<svg width="307" height="98" viewBox="0 0 307 98" fill="none" xmlns="http://www.w3.org/2000/svg">
<rect x="5.11816" y="2.21094" width="300.432" height="82" rx="8" transform="rotate(2.18 5.11816 2.21094)" fill="#DDFFFF" stroke="#6ECFD6" stroke-width="3"/>
<path d="M120.921 46.2578C123.935 46.3725 126.316 45.0812 126.431 42.0593L126.892 29.9562L124.633 29.8702L124.56 31.7898L124.39 31.7833C124.009 31.0354 123.243 29.6629 121.039 29.579C118.179 29.4701 115.988 31.6487 115.845 35.4184C115.701 39.1958 117.775 41.2898 120.573 41.3963C122.747 41.479 123.634 40.2853 124.079 39.5457L124.226 39.5512L124.137 41.8793C124.068 43.7064 122.765 44.4674 121.015 44.4008C119.095 44.3277 118.384 43.3356 118.001 42.6648L115.988 43.4065C116.558 44.8565 118.092 46.1501 120.921 46.2578ZM121.155 39.5038C119.097 39.4255 118.085 37.8043 118.174 35.4762C118.26 33.2021 119.376 31.4766 121.457 31.5559C123.469 31.6325 124.486 33.3156 124.395 35.713C124.302 38.1568 123.144 39.5795 121.155 39.5038Z" fill="#007D85"/>
<path d="M137.22 37.2898C137.151 39.3021 135.619 40.2011 134.324 40.1518C132.898 40.0975 131.95 39.027 132.012 37.4158L132.288 30.1616L129.983 30.0739L129.696 37.6056C129.584 40.5427 131.137 42.1304 133.412 42.217C135.192 42.2847 136.438 41.3903 137.034 40.1469L137.157 40.1516L137.079 42.2022L139.346 42.2884L139.796 30.4475L137.484 30.3594L137.22 37.2898Z" fill="#007D85"/>
<path d="M142.443 42.4063L144.748 42.4941L145.198 30.6531L142.893 30.5653L142.443 42.4063ZM144.127 28.7826C144.921 28.8129 145.608 28.2214 145.636 27.4659C145.665 26.7104 145.026 26.0607 144.232 26.0305C143.43 26 142.751 26.5995 142.722 27.355C142.694 28.1104 143.325 28.7521 144.127 28.7826Z" fill="#007D85"/>
<path d="M152.272 43.0121C154.431 43.0943 155.329 41.8083 155.774 41.0687L155.967 41.076L155.897 42.9185L158.148 43.0042L158.749 27.2162L156.444 27.1284L156.221 32.995L156.082 32.9897C155.693 32.2415 154.958 30.8702 152.753 30.7863C149.893 30.6774 147.703 32.856 147.557 36.6951C147.411 40.5265 149.397 42.9027 152.272 43.0121ZM152.856 41.0657C150.798 40.9874 149.795 39.135 149.886 36.7606C149.975 34.4093 151.091 32.6839 153.172 32.7631C155.184 32.8397 156.201 34.5228 156.107 36.9974C156.012 39.4874 154.845 41.1414 152.856 41.0657Z" fill="#007D85"/>
<path d="M166.532 43.5627C169.114 43.661 170.99 42.4585 171.587 40.5512L169.421 40.075C168.962 41.177 167.938 41.7093 166.627 41.6594C164.654 41.5843 163.377 40.2541 163.402 37.9699L171.82 38.2904L171.851 37.4732C172.014 33.1947 169.518 31.4245 166.836 31.3223C163.536 31.1967 161.267 33.6271 161.128 37.2658C160.988 40.9429 163.04 43.4297 166.532 43.5627ZM163.475 36.2434C163.632 34.5664 164.905 33.1557 166.779 33.227C168.567 33.2951 169.688 34.6657 169.627 36.4776L163.475 36.2434Z" fill="#007D85"/>
<path d="M184.711 48.686C187.725 48.8008 190.106 47.5095 190.221 44.4876L190.681 32.3845L188.423 32.2985L188.35 34.218L188.18 34.2116C187.799 33.4637 187.033 32.0912 184.828 32.0073C181.968 31.8984 179.778 34.077 179.634 37.8467C179.491 41.6241 181.565 43.718 184.363 43.8245C186.537 43.9073 187.424 42.7136 187.869 41.9739L188.016 41.9795L187.927 44.3076C187.857 46.1346 186.555 46.8957 184.805 46.829C182.885 46.756 182.174 45.7639 181.79 45.0931L179.778 45.8348C180.348 47.2847 181.882 48.5783 184.711 48.686ZM184.945 41.9321C182.886 41.8537 181.875 40.2326 181.964 37.9045C182.05 35.6303 183.166 33.9049 185.247 33.9841C187.259 34.0607 188.276 35.7438 188.185 38.1413C188.092 40.5851 186.934 42.0078 184.945 41.9321Z" fill="#007D85"/>
<path d="M193.322 44.3431L195.627 44.4309L195.902 37.1999C195.961 35.6504 197.199 34.578 198.833 34.6402C199.311 34.6584 199.847 34.7638 200.03 34.8248L200.114 32.62C199.884 32.5804 199.43 32.5399 199.137 32.5288C197.75 32.476 196.532 33.2171 196.052 34.4726L195.929 34.4679L196.001 32.587L193.773 32.5021L193.322 44.3431Z" fill="#007D85"/>
<path d="M206.208 45.073C209.546 45.2001 211.821 42.8394 211.96 39.1776C212.1 35.4927 210.012 32.9659 206.674 32.8388C203.336 32.7118 201.061 35.0725 200.921 38.7574C200.781 42.4191 202.87 44.9459 206.208 45.073ZM206.289 43.1383C204.108 43.0553 203.163 41.1124 203.249 38.8383C203.336 36.5718 204.426 34.6833 206.608 34.7664C208.774 34.8488 209.719 36.8148 209.632 39.0813C209.546 41.3554 208.456 43.2208 206.289 43.1383Z" fill="#007D85"/>
<path d="M216.516 45.2261L218.86 45.3153L221.591 36.8576L221.768 36.8643L223.848 45.5051L226.199 45.5946L230.126 33.886L227.744 33.7953L225.11 42.3648L224.994 42.3604L223.011 33.6151L220.629 33.5245L217.97 42.1316L217.854 42.1272L215.865 33.3431L213.483 33.2524L216.516 45.2261Z" fill="#007D85"/>
<path d="M231.863 45.8103L234.168 45.898L234.619 34.057L232.314 33.9693L231.863 45.8103ZM233.547 32.1866C234.341 32.2168 235.028 31.6253 235.057 30.8698C235.085 30.1143 234.446 29.4647 233.652 29.4344C232.85 29.4039 232.171 30.0034 232.143 30.7589C232.114 31.5144 232.746 32.156 233.547 32.1866Z" fill="#007D85"/>
<path d="M239.842 39.0732C239.913 37.1845 241.111 36.1493 242.714 36.2103C244.279 36.2699 245.188 37.3313 245.123 39.0504L244.847 46.3045L247.152 46.3923L247.439 38.8606C247.55 35.9312 245.997 34.3357 243.577 34.2436C241.796 34.1758 240.6 34.9564 240.005 36.1921L239.859 36.1865L239.932 34.2593L237.72 34.1751L237.269 46.016L239.574 46.1038L239.842 39.0732Z" fill="#007D85"/>
<path d="M255.03 51.3628C258.044 51.4776 260.425 50.1863 260.54 47.1644L261.001 35.0613L258.742 34.9753L258.669 36.8948L258.499 36.8884C258.119 36.1405 257.353 34.768 255.148 34.6841C252.288 34.5752 250.097 36.7538 249.954 40.5235C249.81 44.3009 251.884 46.3948 254.683 46.5014C256.856 46.5841 257.743 45.3904 258.188 44.6507L258.335 44.6563L258.246 46.9844C258.177 48.8115 256.874 49.5725 255.124 49.5059C253.205 49.4328 252.493 48.4407 252.11 47.7699L250.097 48.5116C250.668 49.9616 252.201 51.2551 255.03 51.3628ZM255.264 44.6089C253.206 44.5305 252.194 42.9094 252.283 40.5813C252.37 38.3072 253.485 36.5817 255.567 36.6609C257.579 36.7375 258.595 38.4206 258.504 40.8181C258.411 43.2619 257.253 44.6846 255.264 44.6089Z" fill="#007D85"/>
<path d="M116.39 73.0055C118.294 73.0779 119.542 72.1295 120.291 70.3206L125.696 57.1088L123.207 56.9909L119.858 66.0658L119.735 66.0611L117.086 56.7579L114.619 56.664L118.495 68.824L118.18 69.5995C117.535 71.1113 116.705 71.2187 115.454 70.8236L114.827 72.6912C115.1 72.8328 115.696 72.979 116.39 73.0055Z" fill="#007D85"/>
<path d="M131.973 69.422C135.311 69.5491 137.585 67.1884 137.725 63.5266C137.865 59.8417 135.776 57.3149 132.438 57.1879C129.1 57.0608 126.826 59.4215 126.685 63.1064C126.546 66.7682 128.635 69.295 131.973 69.422ZM132.054 67.4874C129.872 67.4043 128.927 65.4615 129.014 63.1873C129.1 60.9209 130.191 59.0324 132.373 59.1154C134.539 59.1979 135.483 61.1639 135.397 63.4303C135.31 65.7044 134.22 67.5698 132.054 67.4874Z" fill="#007D85"/>
<path d="M147.762 64.866C147.693 66.8783 146.161 67.7773 144.866 67.728C143.44 67.6737 142.492 66.6032 142.554 64.992L142.83 57.7379L140.525 57.6501L140.238 65.1818C140.126 68.1189 141.679 69.7066 143.954 69.7932C145.734 69.861 146.981 68.9665 147.576 67.7231L147.699 67.7278L147.621 69.7784L149.888 69.8647L150.338 58.0237L148.026 57.9356L147.762 64.866Z" fill="#007D85"/>
<path d="M158.963 58.352L156.535 58.2595L156.643 55.4226L154.338 55.3349L154.23 58.1718L152.495 58.1058L152.425 59.9559L154.159 60.022L153.893 67.014C153.803 69.1645 155.406 70.2677 157.227 70.2984C157.959 70.3186 158.458 70.1986 158.732 70.1087L158.388 68.1887C158.232 68.2137 157.944 68.2722 157.574 68.2581C156.827 68.2297 156.165 67.9574 156.216 66.6238L156.464 60.1097L158.892 60.2021L158.963 58.352Z" fill="#007D85"/>
<path d="M163.889 63.3569C163.961 61.4682 165.197 60.4344 166.839 60.4969C168.427 60.5574 169.337 61.6033 169.271 63.3378L168.994 70.592L171.299 70.6797L171.586 63.1481C171.698 60.1955 170.137 58.6229 167.701 58.5302C165.859 58.4601 164.718 59.2195 164.114 60.4781L163.968 60.4725L164.191 54.5983L161.917 54.5117L161.316 70.2997L163.621 70.3875L163.889 63.3569Z" fill="#007D85"/>
<path d="M180.12 71.0155L182.425 71.1033L182.876 59.2623L180.571 59.1745L180.12 71.0155ZM181.805 57.3918C182.599 57.422 183.285 56.8306 183.314 56.0751C183.343 55.3196 182.704 54.6699 181.91 54.6397C181.108 54.6092 180.429 55.2087 180.4 55.9642C180.371 56.7196 181.003 57.3613 181.805 57.3918Z" fill="#007D85"/>
<path d="M188.099 64.2785C188.171 62.3898 189.368 61.3545 190.972 61.4156C192.537 61.4751 193.446 62.5365 193.38 64.2556L193.104 71.5098L195.409 71.5975L195.696 64.0658C195.807 61.1364 194.255 59.541 191.834 59.4489C190.053 59.3811 188.858 60.1616 188.263 61.3974L188.116 61.3918L188.19 59.4645L185.977 59.3803L185.526 71.2213L187.831 71.309L188.099 64.2785Z" fill="#007D85"/>
<path d="M210.224 60.3033L207.795 60.2109L207.903 57.374L205.598 57.2862L205.49 60.1231L203.756 60.0571L203.685 61.9072L205.42 61.9733L205.154 68.9653C205.064 71.1158 206.667 72.219 208.487 72.2498C209.22 72.2699 209.719 72.1499 209.992 72.06L209.649 70.14C209.493 70.165 209.205 70.2235 208.835 70.2094C208.088 70.181 207.426 69.9088 207.477 68.5751L207.725 62.061L210.153 62.1535L210.224 60.3033Z" fill="#007D85"/>
<path d="M217.29 72.6698C219.872 72.7681 221.748 71.5656 222.345 69.6583L220.179 69.1821C219.72 70.2841 218.696 70.8164 217.385 70.7665C215.412 70.6914 214.135 69.3612 214.16 67.077L222.578 67.3975L222.609 66.5803C222.772 62.3018 220.276 60.5316 217.594 60.4294C214.294 60.3038 212.025 62.7342 211.886 66.3729C211.746 70.05 213.798 72.5368 217.29 72.6698ZM214.233 65.3505C214.39 63.6735 215.663 62.2628 217.537 62.3341C219.325 62.4022 220.446 63.7728 220.385 65.5847L214.233 65.3505Z" fill="#007D85"/>
<path d="M229.915 73.1504C232.714 73.2569 234.589 71.6453 234.931 69.35L232.688 69.2646C232.346 70.5331 231.323 71.2508 230.005 71.2006C228.054 71.1263 226.86 69.4519 226.958 66.8694C227.055 64.3331 228.395 62.7861 230.322 62.8595C231.787 62.9152 232.646 63.8743 232.85 64.9938L235.094 65.0792C234.938 62.68 233.048 61.0177 230.358 60.9153C227.02 60.7883 224.766 63.2192 224.628 66.8347C224.492 70.404 226.477 73.0195 229.915 73.1504Z" fill="#007D85"/>
<path d="M239.826 66.2475C239.898 64.3588 241.134 63.3251 242.776 63.3876C244.364 63.448 245.274 64.494 245.208 66.2285L244.932 73.4827L247.237 73.5704L247.523 66.0387C247.636 63.0862 246.074 61.5136 243.638 61.4209C241.796 61.3507 240.655 62.1102 240.052 63.3688L239.905 63.3632L240.129 57.489L237.855 57.4024L237.254 73.1904L239.559 73.2781L239.826 66.2475Z" fill="#007D85"/>
<g clip-path="url(#clip0)">
<path d="M74.6337 54.5526C74.5934 55.6127 74.1336 56.6134 73.3554 57.3344C72.5773 58.0555 71.5446 58.438 70.4845 58.3976L46.5019 57.4851L38.2035 65.1751L39.4202 33.1983C39.4605 32.1382 39.9203 31.1375 40.6984 30.4164C41.4766 29.6954 42.5093 29.3129 43.5694 29.3533L71.5491 30.4179C72.6092 30.4582 73.6099 30.918 74.331 31.6961C75.052 32.4743 75.4345 33.507 75.3941 34.5671L74.6337 54.5526Z" fill="white" stroke="#007D85" stroke-width="3" stroke-linecap="round" stroke-linejoin="round"/>
</g>
<defs>
<clipPath id="clip0">
<rect width="48" height="48" fill="white" transform="translate(33.4502 22.6963) rotate(2.18)"/>
</clipPath>
</defs>
</svg>
