<svg width="280" height="93" viewBox="0 0 280 93" fill="none" xmlns="http://www.w3.org/2000/svg">
<rect width="274.057" height="82" rx="8" transform="matrix(-0.999716 -0.0238238 -0.0238238 0.999716 277.936 8.5293)" fill="#D3FF98" stroke="#73C39D" stroke-width="3"/>
<g clip-path="url(#clip0)">
<path d="M55.0803 25.5019L60.9602 38.1655L74.7282 40.5142L64.499 50.0132L66.5305 63.8255L54.3289 57.0329L41.8175 63.2366L44.5047 49.5367L34.7395 39.5613L48.6037 37.8711L55.0803 25.5019Z" fill="white" stroke="#006837" stroke-width="3" stroke-linecap="round" stroke-linejoin="round"/>
</g>
<path d="M125.55 31.1986C125.111 29.3203 123.679 28.067 121.086 28.005C118.376 27.9402 116.421 29.3235 116.37 31.4479C116.329 33.1505 117.333 34.3077 119.57 34.8613L121.59 35.3551C122.74 35.6405 123.267 36.1688 123.249 36.9186C123.227 37.848 122.217 38.5507 120.687 38.514C119.289 38.4806 118.405 37.8577 118.152 36.6717L115.886 36.9613C116.226 39.0951 117.963 40.3323 120.657 40.3967C123.555 40.466 125.599 38.9754 125.651 36.8041C125.691 35.1093 124.638 34.0369 122.448 33.4766L120.553 32.9936C119.24 32.6497 118.681 32.1908 118.708 31.3788C118.722 30.457 119.738 29.8248 121.066 29.8566C122.518 29.8913 123.171 30.7118 123.425 31.5228L125.55 31.1986Z" fill="#006837"/>
<path d="M130.641 33.2662C130.687 31.3527 131.924 30.2882 133.587 30.328C135.196 30.3664 136.132 31.4126 136.09 33.1699L135.914 40.5193L138.25 40.5752L138.432 32.9445C138.504 29.9532 136.9 28.3832 134.432 28.3241C132.566 28.2795 131.421 29.0649 130.828 30.3479L130.68 30.3444L130.822 24.393L128.518 24.3379L128.135 40.3333L130.471 40.3891L130.641 33.2662Z" fill="#006837"/>
<path d="M144.851 40.9987C146.835 41.0462 147.976 40.0654 148.442 39.1778L148.536 39.1801L148.497 40.8202L150.777 40.8748L150.968 32.9083C151.051 29.4171 148.319 28.6563 146.413 28.6107C144.242 28.5588 142.222 29.3857 141.388 31.5539L143.571 32.1062C143.935 31.2631 144.829 30.464 146.399 30.5015C147.907 30.5376 148.661 31.3449 148.628 32.7039L148.627 32.7585C148.607 33.6099 147.732 33.5733 145.571 33.7717C143.292 33.9829 140.95 34.5208 140.885 37.2466C140.828 39.6053 142.57 40.9442 144.851 40.9987ZM145.403 39.1364C144.083 39.1049 143.145 38.4885 143.172 37.3326C143.202 36.0829 144.322 35.6643 145.677 35.5169C146.437 35.4335 148.239 35.2734 148.583 34.9456L148.546 36.492C148.512 37.9135 147.348 39.1829 145.403 39.1364Z" fill="#006837"/>
<path d="M153.888 40.9492L156.223 41.005L156.398 33.679C156.436 32.1091 157.674 31.0056 159.329 31.0452C159.814 31.0568 160.358 31.1558 160.544 31.2149L160.598 28.9812C160.364 28.9443 159.904 28.9099 159.607 28.9028C158.201 28.8692 156.979 29.637 156.511 30.9153L156.386 30.9123L156.432 29.0066L154.175 28.9526L153.888 40.9492Z" fill="#006837"/>
<path d="M167.064 41.5065C169.68 41.5691 171.562 40.3247 172.14 38.3848L169.939 37.9336C169.49 39.056 168.461 39.6097 167.133 39.578C165.134 39.5301 163.822 38.2015 163.814 35.8882L172.343 36.0922L172.363 35.2643C172.467 30.9296 169.914 29.1727 167.196 29.1077C163.853 29.0278 161.59 31.5212 161.502 35.2077C161.413 38.9332 163.526 41.4219 167.064 41.5065ZM163.864 34.1389C163.998 32.4385 165.268 30.9918 167.166 31.0372C168.978 31.0806 170.133 32.4523 170.097 34.2879L163.864 34.1389Z" fill="#006837"/>
<path d="M181.998 46.0915C183.927 46.1376 185.177 45.1594 185.909 43.317L191.193 29.8614L188.671 29.7776L185.41 39.0148L185.285 39.0118L182.469 29.6293L179.97 29.5695L184.069 41.8273L183.761 42.617C183.13 44.157 182.291 44.2776 181.018 43.8955L180.41 45.7956C180.688 45.9351 181.295 46.0746 181.998 46.0915Z" fill="#006837"/>
<path d="M197.725 42.2398C201.107 42.3207 203.376 39.8977 203.465 36.1878C203.554 32.4545 201.403 29.9258 198.021 29.8449C194.64 29.764 192.37 32.187 192.281 35.9203C192.192 39.6302 194.343 42.1589 197.725 42.2398ZM197.78 40.2796C195.569 40.2268 194.585 38.273 194.64 35.9689C194.695 33.6727 195.772 31.7448 197.983 31.7977C200.177 31.8502 201.161 33.8274 201.107 36.1236C201.051 38.4276 199.974 40.3321 197.78 40.2796Z" fill="#006837"/>
<path d="M213.648 37.4004C213.607 39.439 212.069 40.3713 210.757 40.3399C209.312 40.3053 208.337 39.2349 208.376 37.6025L208.552 30.2531L206.216 30.1972L206.034 37.8278C205.963 40.8036 207.558 42.389 209.862 42.4441C211.666 42.4873 212.915 41.5637 213.501 40.2961L213.626 40.2991L213.576 42.3766L215.872 42.4316L216.159 30.435L213.816 30.379L213.648 37.4004Z" fill="#006837"/>
<path d="M219.01 42.5066L221.345 42.5624L221.52 35.2364C221.558 33.6666 222.796 32.563 224.451 32.6026C224.936 32.6142 225.48 32.7132 225.666 32.7723L225.72 30.5386C225.486 30.5018 225.026 30.4673 224.729 30.4602C223.323 30.4266 222.101 31.1945 221.633 32.4727L221.508 32.4697L221.554 30.564L219.297 30.51L219.01 42.5066Z" fill="#006837"/>
<path d="M120.851 67.9092C123.467 67.9718 125.349 66.7273 125.927 64.7875L123.726 64.3363C123.277 65.4587 122.248 66.0124 120.921 65.9806C118.921 65.9328 117.609 64.6042 117.602 62.2908L126.13 62.4948L126.15 61.6669C126.254 57.3322 123.701 55.5754 120.983 55.5104C117.641 55.4304 115.377 57.9239 115.289 61.6104C115.2 65.3359 117.313 67.8246 120.851 67.9092ZM117.651 60.5415C117.786 58.8411 119.055 57.3945 120.953 57.4399C122.765 57.4832 123.92 58.855 123.884 60.6906L117.651 60.5415Z" fill="#006837"/>
<path d="M130.446 55.893L127.884 55.8317L131.427 61.9182L127.55 67.8272L130.112 67.8884L132.914 63.4698L135.509 68.0175L138.063 68.0786L134.434 61.9901L138.318 56.0813L135.765 56.0202L132.982 60.6268L130.446 55.893Z" fill="#006837"/>
<path d="M140.322 72.6339L142.657 72.6897L142.809 66.3244L142.95 66.3277C143.353 67.1032 144.18 68.4593 146.367 68.5116C149.273 68.5811 151.437 66.3041 151.53 62.4224C151.623 58.5329 149.538 56.1933 146.64 56.124C144.414 56.0707 143.577 57.4105 143.146 58.1426L142.95 58.1379L142.997 56.1931L140.716 56.1386L140.322 72.6339ZM142.861 62.1916C142.921 59.6845 144.054 58.0471 146.093 58.0958C148.209 58.1464 149.229 59.9604 149.172 62.3425C149.114 64.7481 147.977 66.5574 145.892 66.5075C143.884 66.4595 142.801 64.7143 142.861 62.1916Z" fill="#006837"/>
<path d="M159.168 68.8256C161.785 68.8881 163.666 67.6437 164.244 65.7039L162.043 65.2527C161.595 66.3751 160.565 66.9288 159.238 66.897C157.238 66.8492 155.926 65.5205 155.919 63.2072L164.448 63.4112L164.467 62.5833C164.571 58.2486 162.019 56.4918 159.301 56.4268C155.958 56.3468 153.694 58.8403 153.606 62.5267C153.517 66.2522 155.63 68.741 159.168 68.8256ZM155.968 61.4579C156.103 59.7575 157.372 58.3109 159.27 58.3563C161.082 58.3996 162.237 59.7714 162.201 61.607L155.968 61.4579Z" fill="#006837"/>
<path d="M166.912 68.7685L169.247 68.8244L169.422 61.4983C169.46 59.9285 170.698 58.8249 172.353 58.8645C172.838 58.8761 173.382 58.9751 173.568 59.0343L173.622 56.8005C173.388 56.7637 172.928 56.7292 172.631 56.7221C171.225 56.6885 170.004 57.4564 169.535 58.7346L169.41 58.7316L169.456 56.8259L167.199 56.7719L166.912 68.7685Z" fill="#006837"/>
<path d="M181.949 57.1247L179.488 57.0659L179.557 54.1917L177.222 54.1358L177.153 57.01L175.396 56.968L175.351 58.8424L177.108 58.8845L176.939 65.9684C176.879 68.1473 178.517 69.2414 180.361 69.2465C181.104 69.2564 181.607 69.1278 181.883 69.0328L181.507 67.0935C181.35 67.1211 181.059 67.1844 180.684 67.1755C179.927 67.1573 179.253 66.8912 179.286 65.54L179.443 58.9403L181.904 58.9992L181.949 57.1247Z" fill="#006837"/>
<path d="M184.245 69.183L186.58 69.2389L186.867 57.2423L184.532 57.1865L184.245 69.183ZM185.755 55.3636C186.56 55.3829 187.247 54.7741 187.265 54.0087C187.283 53.2433 186.627 52.5946 185.822 52.5754C185.01 52.556 184.331 53.1727 184.313 53.9381C184.294 54.7035 184.943 55.3442 185.755 55.3636Z" fill="#006837"/>
<path d="M198.928 60.4613C198.489 58.5831 197.057 57.3297 194.464 57.2677C191.754 57.2029 189.799 58.5862 189.748 60.7106C189.707 62.4133 190.711 63.5704 192.948 64.1241L194.968 64.6178C196.118 64.9032 196.645 65.4316 196.627 66.1813C196.605 67.1108 195.595 67.8134 194.065 67.7768C192.666 67.7434 191.783 67.1205 191.53 65.9344L189.264 66.2241C189.604 68.3578 191.341 69.595 194.035 69.6594C196.933 69.7287 198.977 68.2381 199.029 66.0669C199.069 64.372 198.016 63.2997 195.826 62.7393L193.931 62.2564C192.618 61.9124 192.059 61.4536 192.086 60.6415C192.1 59.7197 193.116 59.0876 194.444 59.1193C195.896 59.1541 196.549 59.9746 196.803 60.7856L198.928 60.4613Z" fill="#006837"/>
<path d="M206.678 69.9618C209.294 70.0244 211.176 68.7799 211.754 66.8401L209.553 66.3889C209.104 67.5113 208.075 68.065 206.748 68.0332C204.748 67.9854 203.436 66.6568 203.429 64.3434L211.957 64.5474L211.977 63.7195C212.081 59.3848 209.528 57.628 206.81 57.563C203.468 57.483 201.204 59.9765 201.116 63.663C201.027 67.3885 203.14 69.8772 206.678 69.9618ZM203.478 62.5941C203.613 60.8937 204.882 59.4471 206.78 59.4925C208.592 59.5358 209.747 60.9076 209.711 62.7432L203.478 62.5941Z" fill="#006837"/>
<defs>
<clipPath id="clip0">
<rect width="48" height="48" fill="white" transform="translate(31.5693 21.7119) rotate(1.37)"/>
</clipPath>
</defs>
</svg>
