<svg width="31" height="48" viewBox="0 0 31 48" fill="none" xmlns="http://www.w3.org/2000/svg">
<path d="M27.7748 16.1031C28.2497 14.0916 28.7891 12.065 29.297 10.1609C29.8534 8.07376 30.0788 6.47361 30.0795 5.22276C30.0792 4.45759 29.9945 3.82171 29.839 3.28714C29.7226 2.8867 29.5654 2.54319 29.374 2.25404C29.2306 2.03758 29.0684 1.85199 28.8946 1.69922C28.6339 1.46924 28.3481 1.31357 28.0723 1.21965C27.8655 1.14889 27.6648 1.11158 27.4778 1.09711C27.4409 1.08167 27.3996 1.06527 27.3537 1.04919C27.1738 0.986466 26.9237 0.926319 26.6203 0.926319C26.2788 0.925033 25.8696 1.00769 25.4607 1.23155C25.1535 1.39881 24.8485 1.64164 24.5577 1.96939C24.1212 2.46214 23.7133 3.14337 23.342 4.08674C22.9713 5.03107 22.6368 6.24043 22.3601 7.80487C22.0137 9.76462 21.6927 11.598 21.382 13.2412C21.1489 14.4737 20.9215 15.5998 20.6945 16.5907C20.5242 17.3337 20.3542 18.0011 20.1833 18.5781C20.0553 19.0107 19.9267 19.3929 19.7994 19.7158C19.7042 19.958 19.6093 20.167 19.5185 20.3382C19.4505 20.4665 19.3848 20.5733 19.3255 20.6562C19.2934 20.7016 19.2642 20.737 19.2366 20.7679C19.1946 20.6987 19.1475 20.6132 19.0978 20.5109C18.9368 20.1812 18.754 19.7003 18.5693 19.1224C18.2445 18.1089 17.9071 16.7934 17.5803 15.3669C17.0897 13.2261 16.6202 10.8318 16.2248 8.77654C16.027 7.74859 15.8477 6.80554 15.6928 6.0185C15.6152 5.62481 15.544 5.27004 15.4792 4.96224C15.4145 4.65411 15.3564 4.39358 15.3038 4.18258C15.1416 3.53191 14.9562 2.95714 14.734 2.45024C14.5672 2.07039 14.3799 1.72848 14.1628 1.4255C13.9999 1.19843 13.8204 0.992898 13.6215 0.813424C13.3236 0.543891 12.9811 0.334183 12.6082 0.198452C12.2356 0.0620774 11.8366 -0.000320401 11.4249 1.23688e-06C11.1933 1.23688e-06 10.957 0.0192995 10.7155 0.0556447C10.3317 0.11354 9.94975 0.209709 9.58481 0.380499C9.31159 0.50819 9.04863 0.679944 8.81614 0.901875C8.64169 1.06816 8.4852 1.26179 8.35244 1.47986C8.15265 1.80696 8.00642 2.18618 7.91054 2.61428C7.81466 3.04302 7.76816 3.52258 7.76784 4.06615C7.7688 5.29449 8.0045 6.8554 8.524 8.91067C9.21859 11.653 9.89908 15.0961 10.4394 18.0741C10.2595 18.0619 10.069 18.0539 9.86797 18.0539C9.39593 18.0542 8.87386 18.0947 8.34218 18.2166C7.94357 18.3083 7.53919 18.4466 7.15117 18.6534C6.86063 18.8084 6.5794 19.0024 6.32317 19.2423C5.93836 19.6016 5.61255 20.0657 5.39256 20.6273C5.37172 20.6804 5.35247 20.7351 5.33355 20.7901C5.18348 20.7994 4.97343 20.8174 4.72138 20.8537C4.3465 20.9078 3.87895 21.0017 3.37805 21.1699C3.00253 21.2963 2.60809 21.4645 2.22199 21.6929C1.93274 21.8643 1.64798 22.0699 1.38277 22.3172C0.985452 22.6877 0.632704 23.1554 0.38578 23.724C0.139498 24.2937 -0.000639168 24.9585 2.19185e-06 25.7114C2.19185e-06 26.0874 0.034315 26.4856 0.105827 26.9079C0.315231 28.1443 0.641042 29.3672 1.05536 30.5122C1.07524 30.5672 1.09705 30.6203 1.11757 30.675C1.13521 31.1047 1.2157 32.6151 1.54215 34.525C1.73488 35.6513 2.01291 36.9167 2.41793 38.1846C2.82327 39.4525 3.35496 40.7236 4.06655 41.8609C4.66622 42.8187 5.21587 43.6129 5.69721 44.3041C6.05797 44.8222 6.37993 45.2822 6.65572 45.7077C7.07004 46.3468 7.37725 46.9045 7.58184 47.4773C7.64245 47.6481 7.69472 47.8215 7.73801 48H9.25323C9.2032 47.7318 9.14035 47.4722 9.06114 47.2213C8.90465 46.7244 8.69492 46.2599 8.4464 45.8048C8.0728 45.1217 7.61455 44.4588 7.09088 43.7061C6.56689 42.9532 5.97459 42.1098 5.32329 41.0693C4.69957 40.0742 4.20861 38.9121 3.83117 37.7301C3.46367 36.5806 3.2036 35.4137 3.02081 34.3629C3.38991 34.8768 3.78339 35.3345 4.20316 35.7179C4.59278 36.0727 5.00614 36.366 5.449 36.5754C5.62345 36.6577 5.80335 36.7266 5.98678 36.78C6.38154 36.8353 6.67656 37.1675 6.919 37.4686C7.06106 37.6452 7.20697 37.8115 7.38527 37.9533C7.58409 38.1116 7.80407 38.2415 8.01637 38.3801C8.21166 38.5078 8.40856 38.6365 8.55703 38.8198C8.69781 38.9935 8.79754 39.189 8.87835 39.3968C8.96814 39.6281 9.0233 39.8687 9.09096 40.107C9.16985 40.3846 9.26317 40.6576 9.36643 40.9269C9.3924 40.9947 9.41934 41.0632 9.44724 41.1314C9.56236 41.3337 9.72014 41.5007 9.93082 41.6068C9.95263 41.6177 9.98374 41.6332 10.0203 41.6496C10.0678 41.6592 10.1159 41.665 10.164 41.6666C10.3124 41.6454 10.4567 41.6132 10.5882 41.545C10.6466 41.5032 10.6992 41.4521 10.7498 41.399C10.7947 41.3366 10.8364 41.2716 10.8775 41.206C10.9083 41.1356 10.9432 41.0664 10.9721 40.9954C10.9756 40.987 10.9794 40.9793 10.9836 40.9719C10.9913 40.9519 11.0038 40.9323 11.0227 40.914C11.041 40.8963 11.0593 40.8789 11.0779 40.8616C11.11 40.8275 11.1446 40.7972 11.1812 40.7693C11.4213 40.5612 11.6756 40.3781 11.8604 40.1102C11.8681 40.099 11.8761 40.0883 11.8838 40.0774C11.9408 39.9703 12.0031 39.8674 12.0871 39.7831C12.2378 39.6316 12.4401 39.5666 12.6342 39.4923C12.8641 39.4042 13.0696 39.2617 13.2107 39.0549C13.2467 39.0022 13.2762 38.9417 13.3066 38.8819C13.3223 38.8253 13.3339 38.7671 13.3435 38.7092C13.3579 38.5641 13.3858 38.4178 13.3974 38.274C13.4044 38.1859 13.4176 38.1019 13.4439 38.0231C13.474 37.9154 13.5266 37.8128 13.5875 37.7185C13.6911 37.5577 13.7755 37.4245 13.7899 37.2483C13.7892 37.2399 13.7883 37.2322 13.7873 37.2254C13.7524 36.9948 13.5535 36.8581 13.3592 36.76C12.8978 36.5268 12.3869 36.4805 11.8822 36.4323C11.8665 36.4307 11.8504 36.4291 11.8347 36.4275C11.7558 36.423 11.6766 36.4175 11.5974 36.4152C11.2203 36.4043 10.8515 36.5165 10.475 36.5092C10.3605 36.5069 10.221 36.4905 10.1572 36.3802C10.104 36.2875 10.1396 36.1792 10.2073 36.1058C10.2781 36.0293 10.3721 35.9894 10.4612 35.9402C10.5125 35.9074 10.5642 35.8749 10.6142 35.8398C10.6527 35.8106 10.6892 35.779 10.7242 35.7459C10.7357 35.7301 10.7479 35.7147 10.7598 35.6993C10.7713 35.6845 10.7845 35.6684 10.7989 35.6539C10.8303 35.5996 10.8695 35.5497 10.9118 35.5089C10.9823 35.441 11.0692 35.3818 11.1706 35.3796C11.2132 35.3786 11.2594 35.3918 11.2976 35.4101C11.3011 35.4117 11.3049 35.4143 11.3091 35.4172C11.5204 35.4641 11.7379 35.4902 11.9588 35.4899C12.2846 35.4902 12.6159 35.4355 12.9407 35.3265C13.6138 35.102 14.1478 34.7945 14.5598 34.4516C14.869 34.1946 15.1088 33.9187 15.291 33.6501C15.4481 33.4185 15.5613 33.194 15.6447 32.9891C17.0118 33.4308 18.5639 33.6781 20.2234 33.6784C20.6332 33.6784 20.9651 33.3452 20.9651 32.9345C20.9651 32.5234 20.6329 32.1905 20.2234 32.1905C19.0083 32.1905 17.8622 32.0455 16.8331 31.7862C16.0613 31.5919 15.3554 31.333 14.7359 31.0259C13.8059 30.5653 13.0741 29.9941 12.5915 29.3833C12.3497 29.0777 12.1689 28.7628 12.0486 28.4438C11.9283 28.124 11.8674 27.8002 11.8671 27.464C11.8671 27.163 11.9165 26.8513 12.0252 26.5233C12.1464 26.1582 12.2891 25.8793 12.4373 25.6667C12.5489 25.5069 12.6633 25.3837 12.7794 25.2853C12.9539 25.1383 13.1325 25.0453 13.3236 24.9836C13.5144 24.9225 13.7187 24.8951 13.9294 24.8954C14.3447 24.8942 14.7798 25.0064 15.1005 25.1251C15.2608 25.184 15.393 25.2431 15.4815 25.2856C15.5257 25.3068 15.5591 25.3242 15.5796 25.3351C15.5899 25.3406 15.5969 25.3444 15.6008 25.3467L15.6037 25.3483C15.63 25.3634 15.6614 25.3785 15.6893 25.3901L21.6039 27.8114C21.6045 27.8114 21.6049 27.8117 21.6055 27.8117C21.9105 27.9008 21.8377 28.2743 21.7809 28.5254C21.763 28.8349 21.8774 29.1514 22.2449 29.1559C22.5265 29.1594 22.7202 29.2598 22.8869 29.426C22.894 29.4325 22.9011 29.4386 22.9081 29.4447C22.9177 29.4502 22.927 29.4553 22.9357 29.4605C23.0396 29.5209 23.29 29.6653 23.2974 29.435C23.3048 29.199 23.0973 28.9909 22.935 28.8471C22.8026 28.73 22.6375 28.6377 22.6237 28.4421C22.6144 28.31 22.7641 28.2559 22.8648 28.3032C22.9687 28.3524 23.0585 28.3958 23.1332 28.4775C23.2317 28.5525 23.3163 28.6451 23.4193 28.7155C23.4799 28.7574 23.5443 28.7837 23.6091 28.8082C23.6277 28.8124 23.646 28.8172 23.6646 28.8226C23.8034 28.8304 23.949 28.794 24.086 28.7898C24.1456 28.7879 24.1879 28.8133 24.213 28.8506C24.2858 28.9034 24.3464 28.9979 24.3813 29.078C24.5375 29.4347 24.4971 30.1636 24.0205 30.2652C23.9907 30.2813 23.9596 30.2957 23.9288 30.3093C23.6566 30.4283 23.3516 30.4842 23.0999 30.6476C22.6602 30.9329 22.2209 31.5482 22.3828 32.0956C22.4559 32.2063 22.548 32.3021 22.6359 32.3645C22.8231 32.498 23.0335 32.5691 23.2516 32.6177C23.3715 32.6138 23.4882 32.6109 23.6024 32.5678C23.6736 32.5411 23.7383 32.5012 23.806 32.4681C23.815 32.4604 23.8256 32.4536 23.8371 32.4482C23.8429 32.4443 23.849 32.4408 23.8551 32.4375C23.8596 32.4346 23.8637 32.4317 23.8682 32.4289C23.8759 32.4237 23.8836 32.4202 23.891 32.417C23.8964 32.4131 23.9022 32.4096 23.9086 32.4063C23.924 32.3938 23.9394 32.3812 23.9474 32.3758C23.9814 32.3529 24.0125 32.3279 24.0446 32.3024C24.085 32.27 24.1257 32.241 24.1681 32.215C24.2306 32.1648 24.2841 32.1255 24.3502 32.1017C24.407 32.066 24.4794 32.0529 24.5442 32.0696C24.5484 32.0705 24.5519 32.0722 24.5561 32.0734C24.5728 32.077 24.5888 32.0824 24.6035 32.0905C24.6513 32.1165 24.6799 32.1587 24.7017 32.2053C24.7392 32.277 24.803 32.3272 24.871 32.37C24.9492 32.4195 25.032 32.4626 25.1141 32.5051C25.2542 32.5774 25.4328 32.6562 25.5258 32.7917C25.5306 32.7962 25.5335 32.801 25.5354 32.8058C25.5563 32.8396 25.572 32.8766 25.5807 32.9181C25.5807 32.9187 25.5807 32.919 25.581 32.9197C25.5835 32.9242 25.5861 32.9287 25.5884 32.9335C25.5957 32.948 25.6018 32.9625 25.6098 32.9766C25.6166 32.9888 25.6243 33.0004 25.6316 33.0117C25.6608 33.0396 25.6942 33.0628 25.7301 33.0821C25.8042 33.1223 25.9052 33.1506 25.9821 33.0937C26.0303 33.0583 26.0565 32.9998 26.0905 32.9525C26.1313 32.8959 26.1774 32.8537 26.2336 32.8126C26.2348 32.8116 26.2358 32.811 26.2371 32.81C26.2512 32.7946 26.265 32.7791 26.2781 32.763C26.2836 32.7556 26.2884 32.7479 26.2932 32.7405C26.3115 32.7058 26.3237 32.6694 26.333 32.6321C26.3323 32.5752 26.3304 32.5186 26.3256 32.462C26.323 32.4314 26.3201 32.4009 26.3163 32.3706C26.316 32.3677 26.315 32.3607 26.3147 32.3584C26.3147 32.3574 26.3144 32.3562 26.3144 32.3552C26.3141 32.3536 26.3131 32.3523 26.3128 32.3504C26.3044 32.3044 26.2903 32.2593 26.2753 32.215C26.266 32.1934 26.257 32.1712 26.2502 32.1487C26.2432 32.1255 26.2371 32.1017 26.2323 32.0779C26.2297 32.0712 26.2268 32.0648 26.2246 32.058C26.2172 32.0377 26.215 32.0162 26.2108 31.9953C26.2015 31.9486 26.1909 31.9023 26.1848 31.8554C26.1835 31.8448 26.1826 31.8341 26.1826 31.8235C26.18 31.7891 26.1807 31.7541 26.1858 31.7203C26.1903 31.6888 26.205 31.6556 26.2271 31.6305C26.2387 31.6087 26.2525 31.5881 26.2704 31.5701C26.3009 31.5398 26.3378 31.5247 26.3772 31.518C26.3981 31.5128 26.4192 31.5096 26.442 31.5077C26.4763 31.5051 26.5126 31.5067 26.5459 31.5157C26.5805 31.525 26.6161 31.5453 26.6363 31.5759C26.637 31.5746 26.6373 31.5733 26.6376 31.572C26.6758 31.6707 26.7139 31.7695 26.7499 31.8689L26.7502 31.8692C26.7531 31.876 26.756 31.8821 26.7582 31.8885L26.7588 31.8898C26.7604 31.8949 26.7624 31.9001 26.7646 31.9052C26.771 31.92 26.7778 31.9348 26.7829 31.9499C26.7877 31.9641 26.7903 31.9792 26.7938 31.994C26.7941 31.9956 26.7944 31.9972 26.7948 31.9985C26.8624 32.1934 26.9249 32.3893 26.9833 32.5865C26.9891 32.5977 26.992 32.6109 26.9926 32.6241C26.9926 32.625 26.9929 32.626 26.9933 32.627C26.9955 32.6376 26.9952 32.6482 26.992 32.6591C26.9907 32.6653 26.9894 32.6717 26.9875 32.6775C26.9843 32.6894 26.9779 32.6997 26.9698 32.709C26.9249 32.7894 26.8278 32.8393 26.756 32.8907C26.7511 32.8943 26.746 32.8978 26.7412 32.9013C26.7406 32.902 26.7329 32.9078 26.7306 32.9094C26.7226 32.9158 26.7149 32.9222 26.7072 32.929C26.6985 32.937 26.6899 32.9451 26.6819 32.9538C26.6787 32.9573 26.6755 32.9608 26.6726 32.9644C26.6713 32.9657 26.6707 32.9666 26.67 32.9673C26.6694 32.9682 26.669 32.9689 26.6681 32.9705C26.6614 32.9805 26.6549 32.9908 26.6495 33.0014C26.6479 33.0043 26.6466 33.0075 26.645 33.0107C26.6444 33.0129 26.6399 33.0258 26.6399 33.0258C26.6354 33.0393 26.6318 33.0532 26.6293 33.0673C26.629 33.0686 26.6274 33.0786 26.6267 33.0821C26.6264 33.086 26.6254 33.0966 26.6254 33.0966C26.6251 33.0998 26.6245 33.103 26.6238 33.1062C26.6229 33.1812 26.6315 33.2741 26.6476 33.3555C26.6482 33.3571 26.6492 33.3584 26.6498 33.36C26.6508 33.3619 26.6511 33.3639 26.6521 33.3658C26.6928 33.4291 26.7415 33.487 26.8041 33.5256C26.8066 33.5272 26.8089 33.5292 26.8114 33.5308C26.8201 33.535 26.8287 33.5388 26.8371 33.544C26.8804 33.5703 26.9144 33.6048 26.9602 33.6279C27.0638 33.6803 27.1655 33.7212 27.252 33.8013C27.286 33.8328 27.3011 33.8685 27.3021 33.9039C27.3582 34.2001 27.4053 34.4986 27.4425 34.7987C27.4432 34.8006 27.4441 34.8029 27.4445 34.8048C27.4499 34.8315 27.4528 34.8585 27.4515 34.8852C27.4528 34.891 27.4537 34.8971 27.4534 34.9035C27.4531 34.9068 27.4528 34.9096 27.4525 34.9125C27.455 34.936 27.4502 34.9611 27.4387 34.9839C27.4313 34.9984 27.4207 35.0103 27.4082 35.02L27.4073 35.0206C27.4044 35.0225 27.4015 35.0245 27.3986 35.0264C27.396 35.028 27.3935 35.0296 27.3906 35.0312C27.3713 35.0412 27.3492 35.0457 27.3274 35.0441C27.3123 35.0428 27.2976 35.0402 27.2831 35.0367C27.2732 35.0354 27.2633 35.0341 27.2533 35.0328C27.2267 35.029 27.2011 35.0232 27.176 35.0135C27.1639 35.0087 27.152 35.0026 27.1404 34.9968C27.1392 34.9965 27.1376 34.9962 27.1363 34.9955C27.0943 34.9814 27.0539 34.9634 27.0109 34.9518H27.0086C26.8845 34.9347 26.7617 34.9058 26.6363 34.901C26.5517 34.9125 26.4811 34.9421 26.4285 35.0296C26.3644 35.1358 26.2961 35.2435 26.1752 35.2406C26.1723 35.2416 26.172 35.2413 26.173 35.2406C26.1499 35.2396 26.1249 35.2355 26.0976 35.2255C26.0966 35.2252 26.096 35.2245 26.095 35.2242C26.0889 35.2229 26.0828 35.2216 26.0768 35.2194C26.012 35.1959 25.9469 35.174 25.8824 35.1506C25.7567 35.1354 25.6425 35.0801 25.5258 35.0319C25.4466 35.011 25.3613 34.9894 25.2818 34.9585C25.2706 34.9563 25.2606 34.9531 25.2513 34.9489C25.1497 34.9306 25.0519 34.9003 24.9682 34.8344C24.8873 34.7707 24.8277 34.6848 24.7834 34.5915C24.7741 34.5787 24.7652 34.5658 24.7568 34.5526C24.6882 34.4462 24.6302 34.3329 24.5282 34.2577C24.4474 34.2101 24.3614 34.1705 24.2723 34.1432C24.1597 34.1432 24.0472 34.1454 23.9356 34.1573C23.8743 34.1638 23.814 34.175 23.7537 34.1866C23.747 34.1879 23.7403 34.1892 23.7332 34.1905C23.7098 34.195 23.6864 34.1995 23.6633 34.2033C23.6498 34.2062 23.6364 34.2094 23.6229 34.2133C23.425 34.2702 23.2907 34.4446 23.1162 34.5423C22.9678 34.6256 22.8052 34.644 22.6407 34.6646C22.4723 34.726 22.3331 34.862 22.2302 35.01C22.0795 35.2261 22.04 35.4487 21.965 35.6944C21.8714 36.001 21.6834 36.2158 21.467 36.4439C21.3772 36.5384 21.2704 36.65 21.1828 36.7713C21.1052 36.9543 21.0408 37.145 20.9786 37.3329C20.9382 37.4548 20.9061 37.578 20.8808 37.7021C20.8814 37.7169 20.8804 37.7314 20.8776 37.7459C20.8817 37.8173 20.8808 37.8877 20.8859 37.9437C20.9279 38.3978 21.0103 38.8629 21.1399 39.3007C21.2479 39.6664 21.406 40.0366 21.6709 40.3167C21.9018 40.5611 22.1981 40.6827 22.5153 40.7326C22.8776 40.6895 23.2365 40.611 23.5748 40.4823C23.7335 40.4219 23.9041 40.3447 24.077 40.3315C24.0908 40.3283 24.1059 40.3267 24.1225 40.3276C24.1302 40.328 24.1379 40.3293 24.1453 40.3296C24.1886 40.3309 24.2319 40.3366 24.2748 40.3485C24.2768 40.3492 24.2784 40.3498 24.2803 40.3502C24.296 40.3537 24.3117 40.3572 24.3271 40.3614C24.3415 40.3627 24.3521 40.3646 24.3618 40.3711C24.4541 40.3974 24.5452 40.4302 24.6411 40.4547C24.7331 40.4782 24.8338 40.4897 24.9223 40.5245C24.9457 40.529 24.9653 40.5351 24.9932 40.5483C25.0169 40.5592 25.0384 40.5756 25.058 40.5933C25.0788 40.612 25.0968 40.6364 25.1109 40.6625C25.1356 40.6998 25.15 40.7454 25.1535 40.7953C25.1699 40.8686 25.1538 40.9458 25.1256 41.0208C25.1102 41.0758 25.0891 41.1276 25.0624 41.1768C25.0098 41.3122 24.956 41.4428 24.9213 41.5836C24.921 41.5894 24.9207 41.5955 24.9197 41.6013C24.9005 41.7277 24.8966 41.8001 24.9553 41.9207C24.9916 41.995 25.0307 42.0664 25.0656 42.1407C25.0717 42.1488 25.0756 42.1587 25.0788 42.1697C25.0884 42.1912 25.098 42.2131 25.1064 42.2356C25.107 42.2372 25.1073 42.2391 25.108 42.2407C25.1131 42.2507 25.1176 42.261 25.1208 42.2716C25.1218 42.2748 25.1224 42.2781 25.1234 42.2813C25.1288 42.2948 25.1323 42.3089 25.1343 42.3234C25.1359 42.3308 25.1372 42.3382 25.1378 42.3453C25.1433 42.3662 25.1452 42.3887 25.1413 42.4135C25.1182 42.5708 25.133 42.7287 25.1266 42.8869C25.1218 43.0072 25.0964 43.123 25.0762 43.2407C25.0759 43.2523 25.0743 43.2632 25.0721 43.2738C25.0721 43.2822 25.0714 43.2903 25.0701 43.2983C25.0698 43.3044 25.0695 43.3105 25.0682 43.3169C25.0429 43.471 24.9438 43.5936 24.8739 43.729C24.7908 43.8904 24.7212 44.0699 24.6824 44.2478C24.6398 44.444 24.6571 44.6505 24.7507 44.8296C24.7915 44.9075 24.8466 44.9718 24.9015 45.0393C24.9085 45.0458 24.9149 45.0532 24.9207 45.0609C24.9229 45.0634 24.9249 45.0663 24.9268 45.0689C24.9303 45.0718 24.9335 45.075 24.9367 45.0786C24.9871 45.1146 25.0313 45.157 25.0814 45.1937C25.1365 45.2342 25.2035 45.2542 25.2606 45.2918C25.3273 45.3359 25.3809 45.3963 25.4065 45.4623C25.4248 45.4896 25.4348 45.5224 25.4348 45.5562C25.4348 45.5568 25.4348 45.5575 25.4348 45.5581C25.4357 45.5765 25.4341 45.5951 25.4296 45.6131C25.4309 45.6118 25.4319 45.6105 25.4331 45.6089C25.4309 45.6138 25.4287 45.6186 25.4264 45.6234C25.4222 45.6369 25.4165 45.6495 25.4088 45.6614C25.0535 46.4365 24.6606 47.1959 24.2402 47.9357H25.9356C26.5376 46.8083 27.075 45.6395 27.5256 44.442C28.47 41.9313 29.0411 39.2994 29.0414 36.6912C29.0414 35.3808 28.8968 34.0769 28.5813 32.8023C28.2657 31.5276 27.7789 30.2822 27.0988 29.0928C26.8602 28.6763 26.6764 28.1456 26.5558 27.5149C26.4349 26.8848 26.3772 26.1576 26.3775 25.3586C26.3775 24.3255 26.4734 23.1724 26.6405 21.9486C26.8897 20.1108 27.2998 18.1143 27.7748 16.1031ZM9.14837 34.5166C9.01689 34.5237 8.91042 34.4388 8.81325 34.3622C8.71481 34.2844 8.61315 34.2098 8.50348 34.1487C8.4371 34.1158 8.36943 34.0859 8.29856 34.0625C8.28413 34.0579 8.2697 34.0534 8.25495 34.0493C8.24982 34.0477 8.24501 34.0464 8.23988 34.0451C8.18857 34.0319 8.13598 34.0219 8.08307 34.0152C8.00386 34.0062 7.92561 34.0052 7.8464 34.0071C7.80311 34.0097 7.75982 34.0136 7.71717 34.0206C7.54625 34.0489 7.40547 34.149 7.2416 34.1901C7.10018 34.2339 6.95684 34.2149 6.80387 34.1975C6.65155 34.1802 6.41745 34.1747 6.32125 34.3188C6.29784 34.4314 6.34883 34.5549 6.3809 34.6607C6.41745 34.782 6.44728 34.9061 6.45241 35.0332C6.45401 35.075 6.45337 35.1181 6.44471 35.1567C6.44407 35.2271 6.40302 35.2712 6.35011 35.2885C6.33119 35.2969 6.30906 35.3017 6.28405 35.3017C6.25455 35.3017 6.22953 35.295 6.20869 35.284C6.19683 35.2799 6.18496 35.2757 6.1731 35.2705C5.74691 35.0923 5.26814 34.7324 4.79609 34.2088C4.58509 33.9763 4.37632 33.7115 4.17173 33.4211C4.16083 33.4086 4.14992 33.396 4.13998 33.3825C4.09509 33.3301 4.04634 33.2751 4.00754 33.2153C3.91487 33.1059 3.844 32.9708 3.77601 32.8496C3.67692 32.6733 3.57013 32.5003 3.48772 32.3153C3.48708 32.3153 3.48676 32.3153 3.4858 32.3156C3.28826 31.9567 3.09938 31.5749 2.92172 31.1751C2.92108 31.1738 2.92044 31.1729 2.9198 31.1719C2.91819 31.1693 2.91723 31.1667 2.91595 31.1642C2.91563 31.1632 2.91563 31.1626 2.91531 31.1616L2.91498 31.1606C2.91498 31.1606 2.91498 31.16 2.91498 31.1593C2.91498 31.1587 2.91466 31.1577 2.91466 31.1571C2.9137 31.1545 2.91306 31.1516 2.91242 31.1487L2.9121 31.1481C2.90985 31.1397 2.90889 31.1314 2.90729 31.123C2.90408 31.1047 2.90023 31.0867 2.89831 31.068C2.89831 31.067 2.89831 31.0661 2.89831 31.0651C2.8951 31.0516 2.89286 31.0378 2.88997 31.0243C2.8842 30.9937 2.87939 30.9628 2.87843 30.9316C2.87586 30.9159 2.8733 30.8998 2.87105 30.884C2.87073 30.8821 2.87009 30.8802 2.87009 30.8779C2.86977 30.8763 2.86977 30.8747 2.86977 30.8731C2.85694 30.7808 2.85117 30.6881 2.86336 30.5946C2.87169 30.5302 2.88869 30.4659 2.91146 30.4029L2.91178 30.4019C2.91947 30.381 2.92781 30.3604 2.93679 30.3398C2.93711 30.3385 2.93775 30.3372 2.93807 30.336C2.94609 30.3086 2.95443 30.2816 2.96501 30.2552C2.9865 30.2015 3.01792 30.1555 3.05384 30.1105C3.07051 30.0896 3.08719 30.068 3.10643 30.05C3.12728 30.0304 3.15133 30.0146 3.17377 29.9973C3.18468 29.9886 3.19558 29.9802 3.2068 29.9719C3.20745 29.9712 3.20809 29.9702 3.20873 29.9696C3.22188 29.959 3.23534 29.9503 3.25074 29.9426C3.2517 29.9423 3.25234 29.9416 3.2533 29.9413C3.25426 29.9407 3.25555 29.9403 3.25651 29.9397C3.26613 29.9352 3.27543 29.9307 3.28441 29.9252C3.29178 29.9207 3.29948 29.9172 3.30718 29.914C3.31038 29.912 3.31359 29.9101 3.3168 29.9082C3.32898 29.9005 3.34181 29.8934 3.35496 29.8873C3.35945 29.8847 3.36426 29.8821 3.36875 29.8795C3.44796 29.82 3.54865 29.7818 3.6564 29.7602C3.67403 29.7548 3.69167 29.7499 3.70931 29.7448C3.73336 29.7351 3.77377 29.7229 3.78627 29.7194C3.8379 29.7046 3.89466 29.701 3.94854 29.6952C3.99696 29.6885 4.04602 29.6837 4.09541 29.6805C4.17109 29.666 4.24645 29.6676 4.32245 29.6711C4.35195 29.6711 4.38178 29.6724 4.41096 29.675C4.41897 29.6753 4.42699 29.6756 4.43533 29.676C4.74767 29.666 5.05681 29.5685 5.31143 29.3884C5.33355 29.3694 5.35568 29.3505 5.37813 29.3312C5.4413 29.2546 5.50223 29.1761 5.56573 29.0999C5.56669 29.0989 5.56765 29.0976 5.56829 29.0964C5.67444 28.8963 5.73216 28.6699 5.73505 28.4425C5.72639 28.3479 5.71613 28.2543 5.71035 28.1636C5.70715 28.1466 5.70298 28.1295 5.69881 28.1125C5.65007 28.0031 5.58208 27.9053 5.49774 27.8217C5.41052 27.7416 5.30854 27.6757 5.20111 27.6175C5.01287 27.5258 4.79353 27.446 4.6396 27.3003C4.51293 27.1974 4.40775 27.0697 4.3651 26.9185C4.31219 26.8079 4.2814 26.6834 4.27403 26.5403C4.27339 26.5319 4.27307 26.5233 4.27307 26.5149C4.27274 26.5081 4.27242 26.5014 4.2721 26.4946C4.2721 26.4892 4.27242 26.484 4.27274 26.4789C4.27371 26.412 4.28236 26.3431 4.30032 26.2714C4.31636 26.2074 4.33945 26.1476 4.36734 26.0907C4.40551 26.0035 4.45233 25.9192 4.50428 25.8423C4.51935 25.816 4.53538 25.7893 4.55174 25.7623C4.58413 25.7082 4.61459 25.6519 4.64281 25.5947C4.65083 25.5764 4.65852 25.5577 4.66622 25.5384C4.70374 25.4004 4.72683 25.2576 4.75922 25.1183C4.807 24.9115 4.83297 24.7025 4.8474 24.4921C4.84708 24.4442 4.84612 24.3963 4.84388 24.3487C4.83778 24.2094 4.83233 24.1476 4.80764 24.0283C4.79577 23.9701 4.77782 23.8958 4.76018 23.8131C4.73645 23.7318 4.71977 23.6491 4.71464 23.5735C4.70727 23.5365 4.70085 23.4999 4.69797 23.4632C4.68578 23.3773 4.68482 23.2908 4.71208 23.2091C4.73773 23.0576 4.8102 22.936 4.9683 22.8926C5.01736 22.8791 5.05937 22.8881 5.09176 22.9093C5.10331 22.9154 5.11357 22.9232 5.12287 22.9322C5.16231 22.9573 5.19149 22.9997 5.1947 23.0592C5.24665 24.036 5.45253 24.9932 5.59266 25.9591C5.61447 26.1099 5.63563 26.2602 5.65808 26.41C5.66482 26.4264 5.66899 26.4445 5.67027 26.4647C5.67091 26.4734 5.67219 26.4821 5.67348 26.4908C5.68438 26.5352 5.69528 26.5795 5.70651 26.6239C5.73312 26.7014 5.76744 26.7783 5.78636 26.8536C5.81746 26.9761 5.84472 27.098 5.88192 27.2193C5.94381 27.4209 6.01757 27.6191 6.08523 27.8185C6.09517 27.8407 6.10479 27.8629 6.11313 27.8854C6.11858 27.8983 6.12403 27.9114 6.12852 27.9246C6.13525 27.9442 6.13942 27.9639 6.14327 27.9841C6.14616 27.9925 6.1484 28.0012 6.15001 28.0108C6.15578 28.0475 6.16123 28.0832 6.16412 28.1195C6.17951 28.1996 6.21254 28.281 6.23306 28.3576C6.25391 28.436 6.27443 28.5132 6.28662 28.5927C6.28694 28.5952 6.28758 28.5981 6.28822 28.6007C6.28918 28.6065 6.28982 28.6123 6.29046 28.6181C6.29303 28.6281 6.29527 28.6383 6.29656 28.6486C6.29816 28.6535 6.29976 28.6586 6.30105 28.6638L6.30201 28.6634C6.49377 29.2398 6.70222 29.8088 6.9315 30.3565C7.21466 31.0329 7.52572 31.6781 7.86629 32.2716C7.87334 32.2841 7.88104 32.296 7.88809 32.3086L7.94774 32.4089C8.29151 32.9908 8.66286 33.5202 9.07204 33.9746C9.0884 33.9894 9.10443 34.0039 9.12111 34.0181C9.20833 34.093 9.34719 34.1593 9.36739 34.2834C9.36996 34.296 9.37092 34.3091 9.36996 34.322C9.3645 34.4352 9.2574 34.5108 9.14837 34.5166ZM11.9024 30.8374C12.5402 31.4733 13.3403 32.0126 14.2623 32.4472C14.1872 32.626 14.0695 32.836 13.8787 33.0499C13.7421 33.2024 13.568 33.3577 13.3397 33.506C13.111 33.654 12.8278 33.7952 12.4716 33.9142C12.2891 33.975 12.1217 34.001 11.9588 34.001C11.7007 34.0004 11.446 33.9357 11.1709 33.7942C10.9313 33.6707 10.6799 33.4861 10.4266 33.242C9.98278 32.8158 9.53767 32.2092 9.12688 31.4852C8.50925 30.399 7.96602 29.0529 7.53823 27.667C7.53342 27.6512 7.52861 27.6355 7.5238 27.6197C7.48404 27.5313 7.44203 27.4373 7.41669 27.3425C7.3439 27.1524 7.34229 26.8561 7.35705 26.6497C7.3718 26.4448 7.42663 26.2531 7.56421 26.1145L7.56517 26.1045L7.58729 26.0919C7.59178 26.0874 7.59627 26.0836 7.60108 26.0791C7.71076 25.9228 7.85667 25.8063 8.00161 25.6831C8.15458 25.5529 8.31396 25.4403 8.51085 25.3892C8.61828 25.3615 8.72603 25.348 8.8341 25.3409C8.93126 25.3161 9.02747 25.2779 9.11822 25.247C9.17819 25.2267 9.23719 25.2042 9.29492 25.1785C9.30999 25.1672 9.32506 25.1556 9.33917 25.145C9.52324 25.0035 9.63612 24.7784 9.59796 24.5436C9.57487 24.4011 9.49021 24.2673 9.3924 24.1492C9.18043 23.9325 8.88765 23.798 8.61123 23.6465C8.40054 23.5806 8.23603 23.3657 8.16612 23.1605C8.10615 22.9852 8.03945 22.8505 7.82332 22.9286C7.7146 22.9679 7.56453 23.1046 7.51931 23.2297C7.51514 23.2445 7.51161 23.2577 7.50873 23.2683C7.50841 23.2699 7.50777 23.2718 7.50777 23.2734C7.50552 23.2889 7.50135 23.3024 7.49622 23.3146C7.4696 23.4088 7.44684 23.504 7.42054 23.5983C7.38013 23.743 7.34005 23.9296 7.24096 24.0547C7.23615 24.063 7.23038 24.0704 7.2246 24.0772C7.2153 24.0913 7.20408 24.1052 7.18965 24.118C7.14091 24.1608 7.11974 24.1914 7.08928 24.2126C7.05881 24.2338 7.02835 24.2676 7.01328 24.2737C6.99788 24.2798 6.97672 24.3043 6.95555 24.3104C6.93407 24.3165 6.92188 24.3258 6.89463 24.3348C6.86705 24.3438 6.8276 24.3654 6.81253 24.3683C6.79746 24.3715 6.76379 24.3959 6.74872 24.3959C6.74775 24.3959 6.74615 24.3963 6.74519 24.3963C6.69709 24.1261 6.65347 23.8598 6.61692 23.6028C6.56593 23.2458 6.5422 22.9225 6.54059 22.6298C6.51205 22.3899 6.54059 22.1393 6.57395 21.9049C6.59896 21.7289 6.63744 21.5539 6.68522 21.3828C6.71889 21.2625 6.77629 21.1541 6.83081 21.0435C6.84011 21.0226 6.84941 21.002 6.85903 20.9824C6.86192 20.9763 6.86512 20.9708 6.86801 20.965C6.8725 20.9551 6.87731 20.9454 6.88148 20.9354C6.88693 20.9229 6.89334 20.912 6.9004 20.9026C7.00558 20.7071 7.1284 20.5446 7.26629 20.4031L7.26661 20.4028C7.28201 20.3829 7.29964 20.3645 7.31889 20.3481C7.32626 20.342 7.33396 20.3362 7.34133 20.3301C7.35737 20.315 7.37244 20.2986 7.38879 20.2841C7.46191 20.2198 7.53983 20.1609 7.62097 20.1059C7.62321 20.1056 7.62417 20.1056 7.62417 20.1056C7.62417 20.1056 7.62546 20.1037 7.62674 20.1017C7.65175 20.085 7.67773 20.0689 7.7037 20.0532C7.98975 19.7959 8.43357 19.6949 8.7953 19.6177C9.01977 19.5694 9.24874 19.5357 9.4777 19.5209C9.70988 19.5058 9.93563 19.5305 10.1672 19.5395L10.3355 19.5595C10.4442 19.5669 10.5491 19.5759 10.6463 19.5868C10.6681 19.5894 10.6899 19.5903 10.7117 19.5907C10.9634 21.0248 11.1725 22.2821 11.3219 23.203C11.4037 23.706 11.4675 24.109 11.5111 24.386C11.5143 24.4059 11.5169 24.4236 11.5198 24.4419C11.3479 24.6301 11.1892 24.8437 11.0478 25.0855C10.9567 25.2412 10.8733 25.4091 10.796 25.5873C10.7935 25.5953 10.7899 25.6034 10.7858 25.6111C10.7829 25.6281 10.7771 25.6452 10.7675 25.6619C10.7553 25.6828 10.7434 25.704 10.7319 25.7253C10.7268 25.7407 10.7219 25.7565 10.7162 25.7719C10.7056 25.8002 10.6944 25.8282 10.6825 25.8559C10.6754 25.8774 10.6687 25.8993 10.6613 25.9208C10.6591 25.9395 10.654 25.9562 10.6469 25.971C10.6373 25.998 10.6273 26.0241 10.618 26.0517C10.6103 26.0752 10.6036 26.0984 10.5962 26.1218C10.595 26.1238 10.5943 26.1264 10.594 26.1292C10.4542 26.5744 10.3836 27.0228 10.3839 27.4628C10.3839 27.9253 10.4606 28.3778 10.6043 28.8082C10.8553 29.5627 11.3085 30.2443 11.9024 30.8374ZM25.8738 17.7943C25.5874 19.1439 25.343 20.4732 25.1692 21.7456C24.9957 23.018 24.8928 24.2329 24.8925 25.3576C24.8925 26.1614 24.9457 26.9185 25.0669 27.621L16.288 24.0267C16.1889 23.9733 15.9494 23.8511 15.6097 23.7263C15.1807 23.5703 14.5958 23.4075 13.9294 23.4063C13.6299 23.4063 13.3134 23.4404 12.993 23.5291C12.9561 23.5391 12.9192 23.5516 12.8827 23.5632C12.7217 22.5558 12.4485 20.8878 12.1012 18.9278C11.5307 15.7062 10.763 11.7041 9.96321 8.54529C9.46039 6.56335 9.25162 5.1015 9.25259 4.06712C9.25227 3.52516 9.30903 3.10284 9.3985 2.7841C9.46552 2.54448 9.54954 2.3634 9.64157 2.22156C9.71084 2.11509 9.78491 2.02986 9.86669 1.95588C9.98919 1.84588 10.1316 1.75968 10.3086 1.68828C10.485 1.61752 10.6956 1.56413 10.9368 1.52778C11.1145 1.50109 11.2774 1.48854 11.4262 1.48854C11.7411 1.48919 11.989 1.54258 12.2064 1.63971C12.3696 1.71337 12.5187 1.8134 12.6672 1.95395C12.8885 2.1643 13.1068 2.47211 13.3102 2.90214C13.5138 3.33121 13.7004 3.87864 13.8659 4.54346C13.9461 4.8651 14.057 5.39098 14.1875 6.04776C14.4165 7.19923 14.709 8.76207 15.0402 10.4568C15.2887 11.7279 15.5591 13.0736 15.8419 14.3792C16.0539 15.3585 16.2729 16.3151 16.4948 17.2022C16.6616 17.8676 16.8299 18.4939 16.9993 19.0629C17.1266 19.4897 17.2542 19.884 17.3831 20.24C17.48 20.507 17.5774 20.7527 17.6778 20.9756C17.7532 21.1429 17.8298 21.2976 17.911 21.441C18.0338 21.6559 18.1608 21.8453 18.3362 22.0171C18.4247 22.1023 18.5276 22.1847 18.6597 22.2519C18.7903 22.3188 18.956 22.369 19.1353 22.3687C19.3489 22.3693 19.5602 22.3169 19.742 22.2297C19.9136 22.1483 20.0618 22.0396 20.1919 21.9177C20.4357 21.6877 20.6245 21.4118 20.7996 21.0924C20.952 20.8126 21.0911 20.498 21.2252 20.1468C21.459 19.5321 21.6761 18.8046 21.8887 17.9712C22.2074 16.722 22.5153 15.2354 22.8315 13.5651C23.1477 11.8948 23.4725 10.0412 23.8217 8.06444C24.0558 6.73961 24.3297 5.70908 24.6154 4.91785C24.8296 4.32443 25.0499 3.86609 25.2613 3.51776C25.4197 3.25659 25.573 3.05717 25.7137 2.90632C25.9257 2.67989 26.1075 2.56249 26.2547 2.49656C26.4026 2.43126 26.5199 2.41454 26.6206 2.4139C26.7255 2.4139 26.8124 2.43545 26.8675 2.45442C26.8948 2.46375 26.9137 2.47243 26.9211 2.47629L26.9246 2.4779L26.9249 2.47694C27.0375 2.54191 27.1645 2.57729 27.2947 2.57729C27.4008 2.57729 27.5275 2.59659 27.6526 2.64966C27.7469 2.68954 27.8424 2.74743 27.9405 2.83878C28.0861 2.9758 28.2442 3.19355 28.3738 3.57179C28.5027 3.94907 28.5963 4.48621 28.5963 5.22212C28.597 6.29124 28.3982 7.77625 27.8642 9.77555C27.1863 12.3162 26.4465 15.0958 25.8738 17.7943Z" fill="url(#paint0_linear)"/>
<g opacity="0.2">
<path d="M5.18798 23.0966C5.18895 23.1008 5.19023 23.105 5.19087 23.1095C5.19537 23.1461 5.19859 23.1831 5.20084 23.2198C5.20084 23.2146 5.20116 23.2092 5.20116 23.204C5.2002 23.1632 5.1957 23.1265 5.18798 23.0908V23.0966Z" fill="white"/>
<path d="M5.69998 28.1154C5.61019 27.9125 5.45466 27.7488 5.25039 27.6426C5.02303 27.5246 4.73313 27.4361 4.5699 27.2248C4.52533 27.1888 4.48813 27.1454 4.46087 27.0955C4.4567 27.0897 4.45318 27.0836 4.44933 27.0775C4.44869 27.0769 4.44837 27.0762 4.44773 27.0753C4.44644 27.0733 4.44548 27.0714 4.44452 27.0698C4.44131 27.0647 4.43778 27.0598 4.4349 27.0547C4.43169 27.0495 4.42881 27.0444 4.42624 27.0392C4.42432 27.0357 4.42239 27.0322 4.42047 27.0286C4.40315 26.9981 4.3884 26.9656 4.37621 26.9312C4.36723 26.909 4.35858 26.8868 4.35024 26.864C4.34543 26.8501 4.34318 26.8369 4.34254 26.8241C4.3419 26.8221 4.34158 26.8202 4.34094 26.8183C4.3403 26.816 4.33966 26.8138 4.33901 26.8118C4.33869 26.8109 4.33837 26.8099 4.33837 26.8089C4.33324 26.7945 4.32843 26.7797 4.32394 26.7652C4.31881 26.7533 4.31464 26.7404 4.3124 26.7266C4.27007 26.6221 4.26814 26.5018 4.2922 26.3924C4.29348 26.3339 4.30053 26.275 4.32009 26.2149C4.3621 26.0846 4.42816 25.956 4.50449 25.8431C4.58947 25.7173 4.64334 25.6108 4.6924 25.468C4.69818 25.4127 4.711 25.359 4.72736 25.3059C4.76584 25.1255 4.80785 24.9418 4.83511 24.7575C4.83575 24.6453 4.84986 24.5311 4.85339 24.4192C4.85339 24.407 4.85371 24.3947 4.85403 24.3822C4.84537 24.3095 4.84024 24.2358 4.83831 24.1641C4.83479 24.1458 4.83126 24.1274 4.82805 24.1088C4.81683 24.0647 4.80689 24.021 4.80336 23.976C4.79662 23.9541 4.79085 23.9322 4.7854 23.91C4.77674 23.8798 4.76873 23.8496 4.76167 23.8187C4.7373 23.7357 4.71966 23.6511 4.71453 23.5736C4.70748 23.5379 4.70106 23.5022 4.69818 23.4662C4.68471 23.3742 4.68375 23.2815 4.71646 23.1944C4.71806 23.1899 4.72062 23.1857 4.72255 23.1815C4.72543 23.1715 4.7296 23.1629 4.73377 23.1545C4.73922 23.1265 4.74692 23.0998 4.76071 23.0718C4.76873 23.05 4.78059 23.0326 4.7947 23.0191C4.80913 22.9998 4.82485 22.9834 4.84344 22.9702C4.86108 22.9544 4.88096 22.9412 4.90213 22.929C4.90886 22.9245 4.9156 22.9203 4.92297 22.9168C4.93388 22.9104 4.94574 22.9049 4.95921 22.9014C4.96145 22.9004 4.96338 22.8994 4.96562 22.8988C4.96562 22.8988 4.96562 22.8994 4.96594 22.9001C4.97108 22.8988 4.97621 22.8972 4.98166 22.8965C4.98903 22.8956 4.99673 22.8946 5.00411 22.8936C5.02174 22.8914 5.03714 22.8927 5.05157 22.8956C5.08588 22.9007 5.11346 22.9187 5.13334 22.9435C5.13623 22.9458 5.13879 22.9486 5.14168 22.9515C5.11089 22.8817 5.07305 22.8177 5.01405 22.7656C4.95729 22.7155 4.90918 22.6846 4.84184 22.656C4.80689 22.6412 4.7838 22.6293 4.74917 22.6228C4.67797 22.6096 4.60774 22.6032 4.53591 22.6035C4.23544 22.6048 3.93079 22.6441 3.63897 22.7151C3.34555 22.7862 3.0595 22.8978 2.79045 23.0348C2.67308 23.0947 2.55892 23.1612 2.44957 23.2346C2.31713 23.3234 2.18757 23.4211 2.07501 23.5343C2.00158 23.6083 1.93776 23.6913 1.87651 23.7753C1.83803 23.8277 1.80436 23.884 1.77806 23.9435C1.75177 24.0033 1.72483 24.0628 1.70495 24.1246C1.67096 24.1712 1.64562 24.2227 1.62959 24.2796C1.58758 24.3822 1.56128 24.4925 1.54653 24.6038C1.48753 24.7691 1.45642 24.9473 1.43237 25.1203C1.40062 25.3497 1.3785 25.5774 1.38106 25.8093C1.38555 26.2342 1.44937 26.6623 1.55006 27.0746C1.58149 27.203 1.61708 27.3297 1.65588 27.4551C1.68603 27.6359 1.72355 27.815 1.76844 27.9919C1.79249 28.0871 1.81911 28.182 1.84765 28.2763C1.90858 28.6011 1.99324 28.9205 2.09714 29.2344C2.28987 29.8156 2.53711 30.3798 2.80232 30.9311C2.83951 31.0086 2.87735 31.0858 2.91552 31.1626C2.91487 31.1607 2.91455 31.1585 2.91423 31.1565C2.91327 31.154 2.91263 31.1511 2.91199 31.1482L2.91167 31.1475C2.90942 31.1392 2.90846 31.1308 2.90686 31.1224C2.90365 31.1041 2.8998 31.0861 2.89788 31.0674C2.89788 31.0665 2.89788 31.0655 2.89788 31.0645C2.89467 31.051 2.89243 31.0372 2.88954 31.0237C2.88281 30.9883 2.87703 30.9523 2.87735 30.9163C2.87735 30.9156 2.87768 30.915 2.87768 30.9143C2.87415 30.9021 2.87094 30.8899 2.86934 30.877C2.86581 30.8484 2.86613 30.8198 2.8626 30.7912C2.85523 30.7323 2.85619 30.6767 2.86228 30.6178C2.8687 30.5586 2.88473 30.5004 2.8982 30.4425C2.90461 30.4152 2.91487 30.3901 2.92706 30.3659C2.93059 30.3557 2.93444 30.3457 2.93732 30.3351C2.94534 30.3077 2.95368 30.2807 2.96426 30.2543C2.98574 30.2006 3.01717 30.1546 3.05309 30.1096C3.06976 30.0887 3.08644 30.0671 3.10568 30.0491C3.12652 30.0295 3.15057 30.0138 3.17302 29.9964C3.18392 29.9877 3.19515 29.9793 3.20605 29.971C3.20669 29.9703 3.20733 29.9694 3.20798 29.969C3.22112 29.9584 3.23459 29.9497 3.24999 29.942C3.25223 29.9411 3.25415 29.9401 3.2564 29.9391C3.25864 29.9378 3.26089 29.9369 3.26313 29.9359C3.27019 29.9324 3.27724 29.9288 3.28398 29.925C3.29264 29.9198 3.30194 29.9157 3.31124 29.9121C3.32887 29.9005 3.34715 29.8896 3.36671 29.8816C3.44432 29.8224 3.54341 29.7847 3.64955 29.7626C3.65532 29.7609 3.66142 29.7593 3.66783 29.7587C3.67553 29.7571 3.68322 29.7561 3.69092 29.7548C3.69445 29.7468 3.7682 29.7246 3.78616 29.7195C3.84036 29.704 3.90032 29.7008 3.95644 29.6947C3.9946 29.6905 4.03244 29.6883 4.06996 29.6866C4.19311 29.6574 4.31432 29.6731 4.44067 29.6764C4.59139 29.6802 4.73313 29.6548 4.87808 29.6156C5.09486 29.557 5.24782 29.4432 5.41522 29.3135C5.44183 29.2785 5.4723 29.2476 5.5002 29.2119C5.70928 28.8941 5.78656 28.4885 5.69998 28.1154Z" fill="white"/>
</g>
<path opacity="0.2" d="M9.61231 24.6485C9.61134 24.6257 9.60878 24.6028 9.60717 24.5787C9.60589 24.5594 9.60557 24.5401 9.60493 24.5211C9.60268 24.5064 9.60012 24.4916 9.59723 24.4768C9.5905 24.4575 9.58312 24.4382 9.57543 24.4195C9.57286 24.4189 9.57254 24.4179 9.57414 24.4166C9.56452 24.3941 9.55458 24.3719 9.54528 24.3497C9.52444 24.3098 9.50167 24.2709 9.47313 24.2346C9.36763 24.0988 9.25122 24.0152 9.10659 23.9258C8.97159 23.8422 8.83722 23.7685 8.69644 23.6942C8.62461 23.6563 8.52809 23.6196 8.47485 23.5537C8.46876 23.5524 8.46331 23.5508 8.45914 23.5482C8.39468 23.5051 8.34658 23.4478 8.2972 23.389C8.25583 23.3401 8.2074 23.2613 8.18945 23.1925C8.184 23.1806 8.18015 23.1683 8.17662 23.1558C8.17149 23.1439 8.167 23.1317 8.16379 23.1191C8.14167 23.0773 8.12403 23.0323 8.1019 22.9911C8.0926 22.9789 8.08298 22.9667 8.07272 22.9567C8.06598 22.9503 8.05957 22.9451 8.05316 22.94C8.0182 22.9245 7.98165 22.9113 7.94156 22.9023H7.94124C7.92489 22.9046 7.90885 22.9059 7.8925 22.9065C7.87935 22.9107 7.86492 22.9136 7.84953 22.9159C7.8367 22.9216 7.82355 22.9271 7.8104 22.9323C7.80463 22.9345 7.79661 22.938 7.78828 22.9409C7.77737 22.9471 7.76647 22.9535 7.75525 22.959C7.74627 22.9635 7.73729 22.9676 7.72831 22.9721C7.72478 22.9737 7.72125 22.9754 7.71773 22.977C7.71644 22.9783 7.71484 22.9799 7.71356 22.9811C7.70233 22.9918 7.69079 23.0021 7.6786 23.012C7.67379 23.0185 7.66642 23.0242 7.66257 23.0281C7.65231 23.0381 7.64108 23.0471 7.62986 23.0561C7.62794 23.058 7.62601 23.0599 7.62377 23.0619L7.6228 23.0628C7.61928 23.067 7.61575 23.0712 7.6119 23.0751C7.60966 23.0802 7.60677 23.0854 7.60356 23.0905C7.59843 23.0982 7.59266 23.1056 7.58689 23.113C7.58593 23.1143 7.58496 23.1156 7.58368 23.1169C7.58272 23.1178 7.58304 23.1175 7.58304 23.1175C7.57278 23.1317 7.56123 23.1449 7.54905 23.1577C7.54296 23.1699 7.53654 23.1825 7.53077 23.195C7.52532 23.2073 7.52083 23.2198 7.5157 23.2323C7.51441 23.2359 7.51281 23.2391 7.51153 23.2426C7.50928 23.2516 7.5064 23.2606 7.50383 23.2693C7.50063 23.2793 7.49838 23.2896 7.49614 23.2999C7.49389 23.3099 7.49165 23.3202 7.48748 23.3295C7.48716 23.3301 7.48684 23.3308 7.48684 23.3308V23.3314C7.48203 23.3514 7.47722 23.3719 7.47112 23.3919C7.47016 23.3973 7.46888 23.4028 7.4676 23.4083C7.46535 23.4173 7.46311 23.4263 7.46054 23.4353V23.4356C7.46022 23.4379 7.4599 23.4401 7.45926 23.4421C7.45894 23.443 7.45862 23.4437 7.4583 23.4446C7.45894 23.4485 7.45637 23.4559 7.45573 23.4591C7.45541 23.4601 7.45509 23.4614 7.45477 23.4623C7.45445 23.4716 7.45188 23.4803 7.449 23.4893C7.44739 23.4945 7.44611 23.4996 7.44483 23.5048C7.44387 23.5077 7.44322 23.5109 7.44226 23.5138C7.44226 23.5151 7.44194 23.5164 7.44162 23.5176V23.518L7.4413 23.5183V23.5186C7.4413 23.5186 7.44098 23.5192 7.44066 23.5199C7.43905 23.5234 7.43809 23.527 7.43681 23.5305C7.43649 23.5315 7.43617 23.5321 7.43585 23.5331C7.43521 23.536 7.43424 23.5389 7.43328 23.5421C7.43168 23.5472 7.4304 23.5521 7.42911 23.5572C7.42911 23.5604 7.42815 23.564 7.42751 23.5665C7.42623 23.572 7.42462 23.5768 7.4227 23.5823C7.4211 23.5874 7.42014 23.5926 7.41853 23.5977C7.41789 23.6003 7.41725 23.6032 7.41629 23.6058C7.41597 23.6071 7.41532 23.608 7.41468 23.609C7.41083 23.6186 7.40891 23.6286 7.40635 23.6386C7.40378 23.6495 7.40025 23.6604 7.39737 23.6714C7.39416 23.6836 7.39095 23.6955 7.38743 23.7077C7.38646 23.7148 7.38486 23.7219 7.38262 23.7286C7.37941 23.7518 7.36786 23.7727 7.36209 23.7952C7.35953 23.8058 7.35664 23.8161 7.35215 23.8258C7.35151 23.8271 7.35119 23.8283 7.35055 23.8296C7.34926 23.8361 7.34734 23.8428 7.34445 23.8489C7.34317 23.8541 7.34125 23.8592 7.33932 23.8644C7.33612 23.8724 7.33323 23.8804 7.33034 23.8885C7.3281 23.8952 7.32521 23.9017 7.32233 23.9081C7.32169 23.9161 7.31591 23.9229 7.31175 23.9297C7.31239 23.9297 7.31303 23.9297 7.31239 23.9306C7.30822 23.9371 7.30469 23.9435 7.30116 23.9502C7.29892 23.9557 7.29699 23.9609 7.29443 23.9663C7.2925 23.9705 7.29026 23.974 7.28769 23.9779C7.28224 23.9927 7.27262 24.0059 7.26364 24.0191C7.25819 24.0271 7.25242 24.0342 7.24633 24.0413L7.24601 24.0416C7.24184 24.0493 7.23735 24.0564 7.2319 24.0631C7.23157 24.0638 7.23125 24.0644 7.23061 24.0651C7.22131 24.0792 7.20977 24.0914 7.20015 24.1049C7.19502 24.1123 7.18796 24.1178 7.18123 24.1236C7.17321 24.13 7.16584 24.1371 7.15846 24.1439C7.14916 24.1522 7.14146 24.1625 7.13184 24.1709C7.13088 24.1722 7.12992 24.1735 7.12896 24.1747L7.12799 24.1757C7.12415 24.1809 7.11998 24.186 7.11485 24.1905C7.11421 24.1911 7.11292 24.1915 7.11228 24.1921C7.10779 24.1982 7.10234 24.2037 7.09657 24.2082C7.0908 24.2127 7.0847 24.2166 7.07925 24.2207C7.07669 24.2227 7.07412 24.2243 7.07156 24.2259C7.07123 24.2265 7.07091 24.2272 7.07027 24.2278C7.06514 24.2333 7.05873 24.2371 7.05328 24.2416C7.04654 24.2474 7.04013 24.2532 7.03307 24.2587C7.03211 24.2593 7.03115 24.26 7.03019 24.2606C7.02955 24.2613 7.0289 24.2622 7.02826 24.2626C7.02409 24.2661 7.01928 24.269 7.01447 24.2716C7.01351 24.2722 7.01255 24.2732 7.01159 24.2738C7.01031 24.2748 7.0087 24.2754 7.00742 24.2761C7.00678 24.2773 7.00614 24.2783 7.0055 24.2793C7.00485 24.2802 7.00389 24.2809 7.00293 24.2815C7.00229 24.2818 7.00197 24.2822 7.00133 24.2825C7.00068 24.2825 6.99812 24.2847 6.99748 24.2851C6.9962 24.286 6.99491 24.287 6.99363 24.288C6.98946 24.2909 6.98497 24.2931 6.9808 24.2957C6.97984 24.297 6.97856 24.2979 6.9776 24.2986C6.97471 24.3008 6.97182 24.3024 6.96862 24.304C6.96317 24.3069 6.95771 24.3095 6.95194 24.3114C6.9497 24.3124 6.94713 24.313 6.94489 24.3137C6.94392 24.314 6.94328 24.3137 6.94232 24.314C6.93976 24.3153 6.93751 24.3166 6.93495 24.3175C6.93238 24.3185 6.92981 24.3195 6.92725 24.3204C6.92629 24.3211 6.925 24.3221 6.92372 24.3227C6.92051 24.3246 6.91731 24.3262 6.9141 24.3275C6.90865 24.3301 6.9032 24.332 6.89775 24.3333C6.89422 24.3349 6.89069 24.3368 6.88716 24.3385C6.88973 24.3375 6.89197 24.3362 6.89454 24.3352C6.89262 24.3362 6.89935 24.333 6.89711 24.334L6.89582 24.3346C6.89486 24.3349 6.89422 24.3356 6.89326 24.3359C6.88877 24.3381 6.8846 24.3401 6.88011 24.342C6.87562 24.3439 6.87081 24.3459 6.866 24.3471H6.86504L6.8644 24.3475C6.86087 24.3494 6.85734 24.3507 6.85349 24.3523C6.85189 24.3533 6.85029 24.3542 6.84868 24.3549C6.84259 24.3581 6.83618 24.3607 6.82976 24.3626C6.82912 24.3629 6.82848 24.3629 6.82784 24.3629C6.8272 24.3632 6.82624 24.3635 6.82559 24.3639C6.82559 24.3639 6.82495 24.3639 6.82431 24.3642C6.82303 24.3648 6.82207 24.3655 6.82078 24.3658C6.81854 24.3668 6.81597 24.3677 6.81373 24.3687C6.81277 24.369 6.81148 24.3693 6.81052 24.3693L6.80956 24.37C6.80828 24.3706 6.80731 24.3709 6.80603 24.3716C6.80507 24.3719 6.80411 24.3722 6.80283 24.3726H6.8025C6.80186 24.3729 6.80122 24.3732 6.80026 24.3735C6.79962 24.3738 6.79898 24.3738 6.79834 24.3742C6.79641 24.3751 6.79449 24.3764 6.79224 24.3774C6.79128 24.3777 6.79032 24.378 6.78936 24.3783C6.78872 24.3787 6.78807 24.3796 6.78807 24.3796C6.78455 24.3819 6.7807 24.3845 6.77685 24.3867C6.77428 24.388 6.77172 24.389 6.76915 24.3899C6.76595 24.3915 6.76306 24.3928 6.75985 24.3941C6.75793 24.3947 6.75601 24.3957 6.75376 24.396C6.75248 24.3964 6.75088 24.3964 6.74959 24.3967C6.74863 24.397 6.74767 24.397 6.74671 24.3973H6.74542L6.74414 24.3967C6.76242 24.5478 6.78487 24.6984 6.81116 24.8486C6.87273 25.1988 6.95868 25.5443 7.05745 25.8859C7.08727 26.1567 7.16199 26.4178 7.25338 26.6745C7.25723 26.6883 7.26108 26.7025 7.26493 26.7163C7.29282 26.8138 7.32361 26.9103 7.356 27.0061C7.35504 26.9608 7.35247 26.9151 7.35536 26.8697C7.35536 26.8263 7.35696 26.7852 7.36049 26.7437C7.36113 26.607 7.3762 26.4616 7.43072 26.3352C7.44258 26.2776 7.4785 26.2255 7.51474 26.1805C7.53686 26.1525 7.55963 26.1264 7.58593 26.1059C7.60388 26.0827 7.6228 26.0608 7.64205 26.0406C7.67155 25.9849 7.72542 25.9344 7.76936 25.8965C7.84023 25.8354 7.9143 25.7787 7.9887 25.7225C7.99127 25.716 7.99479 25.7096 8.00185 25.7028C8.11184 25.5903 8.24204 25.4957 8.38827 25.4394C8.39244 25.4375 8.39789 25.4349 8.40334 25.432C8.41553 25.4259 8.43028 25.4214 8.44599 25.4182C8.5547 25.3735 8.67688 25.3564 8.79842 25.349C8.87057 25.3346 8.94433 25.3236 9.01199 25.3018C9.10178 25.2728 9.20023 25.2426 9.28136 25.1947C9.31215 25.1763 9.33909 25.157 9.36763 25.14C9.39841 25.1027 9.43272 25.0689 9.46608 25.0345C9.48147 25.011 9.49943 24.9888 9.51835 24.9679C9.55298 24.8872 9.58729 24.8235 9.60268 24.7395H9.60172C9.60621 24.7077 9.60974 24.6781 9.61231 24.6485Z" fill="white"/>
<path opacity="0.2" d="M9.37048 34.316C9.37016 34.3237 9.3692 34.3314 9.36759 34.3388C9.36599 34.3456 9.36342 34.351 9.36022 34.3562C9.3599 34.3623 9.35893 34.3687 9.35573 34.3758C9.35444 34.3787 9.35316 34.3809 9.35188 34.3835C9.3506 34.3925 9.34579 34.4022 9.33617 34.4128C9.29287 34.4614 9.24285 34.4848 9.19026 34.4916C9.1056 34.5099 9.02863 34.4787 8.95263 34.4353C8.91736 34.4173 8.88369 34.3967 8.85322 34.3764C8.85194 34.3755 8.85098 34.3748 8.85001 34.3739C8.84296 34.3694 8.8359 34.3645 8.82885 34.3597C8.82693 34.3584 8.825 34.3575 8.82308 34.3562L8.82372 34.3559C8.82276 34.3552 8.82179 34.3543 8.82051 34.3536C8.79454 34.3398 8.77273 34.3211 8.75157 34.3012C8.73297 34.2886 8.71533 34.2742 8.69833 34.2594C8.67621 34.2459 8.65344 34.232 8.63324 34.2156C8.63163 34.2147 8.63003 34.2137 8.62842 34.2127C8.49727 34.1439 8.36675 34.076 8.22084 34.04C8.05633 33.9992 7.90208 34.005 7.73758 34.0114C7.68755 34.021 7.63849 34.0323 7.59038 34.049C7.51053 34.077 7.44415 34.1133 7.3704 34.1365C7.2944 34.1709 7.21423 34.196 7.12796 34.2063C7.00514 34.2211 6.88874 34.2031 6.7672 34.1876C6.67164 34.1757 6.58152 34.1902 6.48917 34.2015C6.4757 34.206 6.46191 34.2098 6.44812 34.2131C6.42599 34.224 6.40387 34.2356 6.38366 34.2475C6.3625 34.2597 6.34679 34.2751 6.33107 34.2915C6.33011 34.2928 6.32915 34.2941 6.32819 34.2954C6.29131 34.4144 6.34711 34.5479 6.38142 34.6614C6.41798 34.7827 6.4478 34.9068 6.45293 35.0339C6.4571 35.1368 6.44748 35.2474 6.33524 35.2815C6.31087 35.2889 6.28842 35.2921 6.26758 35.2925C6.34454 35.3311 6.42215 35.3671 6.50745 35.3874C6.66426 35.4247 6.83037 35.4343 6.99103 35.4382C7.29889 35.4452 7.60802 35.4108 7.90946 35.3507C8.19454 35.2938 8.47482 35.2105 8.74644 35.1062C9.03248 34.9966 9.36182 34.8203 9.39357 34.4774C9.3987 34.4231 9.39036 34.3674 9.37048 34.316Z" fill="white"/>
<path opacity="0.2" d="M13.7946 37.1647C13.7741 37.0959 13.7292 37.0274 13.6772 36.9679C13.6718 36.9659 13.6666 36.9634 13.6618 36.9595C13.5557 36.8695 13.4698 36.791 13.3412 36.7324C13.245 36.6887 13.1401 36.6575 13.0432 36.6131C12.8938 36.5665 12.7428 36.5282 12.5901 36.4928C12.5343 36.4915 12.4846 36.4864 12.4352 36.469C12.4336 36.469 12.4317 36.4697 12.4301 36.4697C12.3968 36.4687 12.3679 36.4664 12.3403 36.4597C12.094 36.4266 11.8388 36.3796 11.5909 36.3806C11.3985 36.3812 11.207 36.4256 11.0153 36.4484C10.6946 36.5247 10.1084 36.6015 10.1421 36.2442C10.1421 36.2435 10.1421 36.2426 10.1421 36.2426C10.1421 36.2387 10.1421 36.2349 10.1424 36.231C10.143 36.2281 10.1437 36.2255 10.1443 36.223C10.1446 36.2217 10.1446 36.2204 10.1449 36.2188C10.1459 36.214 10.1475 36.2088 10.1494 36.2037C10.1523 36.1947 10.1558 36.1856 10.1616 36.175C10.1629 36.1725 10.1648 36.1702 10.1664 36.1676L10.1667 36.167C9.31181 36.451 8.44053 36.6842 7.55769 36.8621C7.50286 36.873 7.44834 36.8836 7.3935 36.8942C7.33418 36.8987 7.27485 36.9029 7.21553 36.9048C6.91633 36.9142 6.61682 36.9007 6.31955 36.8653C6.27561 36.8476 6.22944 36.8347 6.18262 36.8302C6.19737 36.8363 6.21116 36.8453 6.22366 36.855C6.22431 36.8553 6.22527 36.8553 6.22591 36.8556C6.23457 36.8592 6.2429 36.8624 6.25156 36.8659C6.26279 36.8711 6.27305 36.8781 6.28267 36.8859C6.29967 36.8894 6.31794 36.8984 6.33526 36.9109C6.34713 36.9177 6.35803 36.9257 6.36765 36.9354C6.36893 36.9367 6.37022 36.9383 6.3715 36.9396C6.37631 36.9425 6.3808 36.9454 6.38432 36.9483C6.39074 36.9534 6.39683 36.9582 6.40324 36.9634C6.41094 36.9679 6.42024 36.9737 6.42986 36.9807C6.50554 37.0283 6.56743 37.0814 6.62516 37.1544C6.65177 37.1882 6.68095 37.2191 6.71014 37.25C6.78966 37.33 6.86631 37.4169 6.93076 37.5105C6.93942 37.5201 6.9484 37.5298 6.95738 37.5397C6.96283 37.5459 6.96764 37.5516 6.97149 37.5578C6.99169 37.578 7.00869 37.6015 7.02472 37.6263C7.02857 37.6311 7.03242 37.6362 7.03627 37.6411C7.0507 37.6597 7.06481 37.6787 7.07828 37.6977C7.09142 37.7147 7.10553 37.7311 7.12189 37.7462C7.17512 37.7955 7.22515 37.8504 7.28319 37.8939C7.31205 37.9154 7.33899 37.9383 7.36464 37.9624C7.40665 37.9871 7.4493 38.0113 7.48971 38.0389C7.57244 38.0846 7.64877 38.1441 7.72349 38.2043C7.73407 38.2091 7.74529 38.2152 7.75716 38.2242C7.96528 38.3808 8.23818 38.487 8.40878 38.6825C8.44726 38.7144 8.48318 38.7494 8.51685 38.7867C8.53481 38.8067 8.54988 38.8279 8.56367 38.8498C8.62267 38.9016 8.66019 38.9694 8.69964 39.0386C8.73331 39.0974 8.77243 39.1598 8.7968 39.2255C8.80097 39.2335 8.80482 39.2415 8.80706 39.2496C8.80738 39.2505 8.80835 39.2515 8.80867 39.2521C8.86992 39.3821 8.93405 39.5333 8.96035 39.6848C8.96804 39.6983 8.97414 39.7108 8.97702 39.7185C9.05302 39.9205 9.0992 40.1389 9.16109 40.346C9.17071 40.3779 9.17969 40.4097 9.18803 40.4419C9.20086 40.4757 9.21336 40.5098 9.22459 40.5442C9.23581 40.5779 9.24415 40.6127 9.25153 40.6474C9.27558 40.7098 9.2977 40.7722 9.31726 40.8359C9.32272 40.842 9.32721 40.8501 9.33041 40.8616C9.39166 41.0903 9.54559 41.3335 9.73255 41.4908C9.79636 41.5146 9.8512 41.5689 9.90892 41.6027C9.96664 41.6365 10.0144 41.6551 10.0782 41.6677H10.0789C10.1209 41.6738 10.1626 41.6763 10.2039 41.6763C10.3662 41.6046 10.5442 41.6168 10.6811 41.4814C10.7151 41.448 10.752 41.4152 10.7873 41.3817C10.8036 41.3595 10.8197 41.3367 10.8347 41.3122C10.9014 41.2042 10.9508 41.0858 11.0185 40.9787C11.0797 40.8816 11.156 40.8282 11.2439 40.7587C11.2506 40.7532 11.2571 40.7481 11.2635 40.7426C11.2894 40.7156 11.317 40.6892 11.3446 40.6638C11.351 40.6564 11.3574 40.6487 11.3645 40.6419C11.395 40.6124 11.4257 40.5841 11.4565 40.5554C11.4825 40.5287 11.5088 40.5027 11.5357 40.4773C11.5441 40.4683 11.5527 40.4599 11.5607 40.4506C11.57 40.44 11.579 40.4322 11.5877 40.4261C11.6018 40.4117 11.6172 40.3988 11.6335 40.3862C11.6371 40.3814 11.6406 40.3766 11.6441 40.3718C11.6541 40.3592 11.6714 40.3451 11.6906 40.3341C11.6983 40.3245 11.7092 40.3148 11.7198 40.3049C11.732 40.2859 11.7458 40.2679 11.7605 40.2505C11.7618 40.2383 11.7631 40.2264 11.7631 40.2142C11.7685 40.2193 11.7743 40.2241 11.7801 40.2286C11.7852 40.2232 11.7897 40.2174 11.7952 40.2119C11.8054 40.2016 11.8154 40.1942 11.825 40.1888C11.8279 40.1849 11.8311 40.1814 11.834 40.1778C11.8487 40.1576 11.8635 40.1376 11.8782 40.1174C11.8984 40.081 11.9196 40.0456 11.9427 40.0115C11.9776 39.9398 12.0251 39.8787 12.0812 39.8221C12.0815 39.8214 12.0825 39.8205 12.0825 39.8205C12.0876 39.8141 12.0928 39.8083 12.0982 39.8031C12.0992 39.8018 12.0998 39.8009 12.1008 39.7996C12.1043 39.7948 12.1081 39.7909 12.1117 39.7867C12.113 39.7854 12.1139 39.7841 12.1152 39.7825C12.1158 39.7819 12.1165 39.7812 12.1168 39.7806C12.1364 39.7581 12.1575 39.7391 12.1822 39.7227C12.2749 39.6326 12.4009 39.5812 12.5234 39.5458C12.5593 39.5355 12.5959 39.5265 12.6325 39.5172C12.7181 39.4776 12.8069 39.4435 12.8797 39.384C12.9474 39.3287 13.0157 39.2792 13.0875 39.2316C13.0907 39.2283 13.0939 39.2251 13.0971 39.2219C13.1144 39.2023 13.1314 39.1824 13.1478 39.1614C13.1709 39.1322 13.1969 39.1029 13.2215 39.073C13.2559 39.0248 13.286 38.9743 13.3091 38.9196C13.3344 38.8604 13.3501 38.7977 13.361 38.733C13.3803 38.6012 13.3819 38.4654 13.4085 38.3352C13.4088 38.3233 13.4098 38.3117 13.4107 38.2998C13.4075 38.2695 13.4072 38.2374 13.4107 38.2017C13.4181 38.1251 13.4415 38.0573 13.471 37.9923C13.4944 37.9151 13.5275 37.8398 13.5711 37.7736C13.6311 37.6446 13.7196 37.5272 13.7795 37.3982C13.7818 37.3889 13.784 37.3796 13.7859 37.3702C13.794 37.3082 13.7997 37.2461 13.7991 37.1827C13.7978 37.1773 13.7965 37.1711 13.7946 37.1647Z" fill="white"/>
<path opacity="0.2" d="M27.4362 35.0998C27.4353 35.0667 27.434 35.0335 27.433 35.0004C27.4308 35.0011 27.4285 35.0023 27.4263 35.0027H27.4228C27.4228 35.0027 27.4224 35.0033 27.4221 35.0039C27.4192 35.0091 27.4154 35.0133 27.4096 35.0162C27.4077 35.0175 27.4058 35.0184 27.4035 35.0194L27.4032 35.02C27.3936 35.0368 27.367 35.039 27.3509 35.0377C27.3484 35.0374 27.3455 35.0368 27.3429 35.0364C27.3365 35.0364 27.3298 35.0355 27.3234 35.0342C27.2967 35.0355 27.2682 35.0306 27.2413 35.0223C27.2339 35.021 27.2259 35.0187 27.2169 35.0155C27.2095 35.013 27.2028 35.0101 27.196 35.0072C27.1521 34.994 27.1088 34.976 27.0617 34.9625C26.978 34.9387 26.8917 34.9255 26.8055 34.9126C26.7971 34.9113 26.7878 34.9097 26.7785 34.9081C26.7718 34.9084 26.7651 34.9081 26.7583 34.9071C26.716 34.902 26.6692 34.8936 26.6265 34.8978C26.6172 34.9001 26.6079 34.9017 26.5989 34.902C26.5925 34.9033 26.5861 34.9049 26.5803 34.9065C26.5768 34.9078 26.5736 34.9091 26.5704 34.91C26.5691 34.9104 26.5682 34.9107 26.5669 34.911C26.5649 34.9116 26.5633 34.912 26.5614 34.9123C26.5496 34.9184 26.5374 34.9245 26.5249 34.93C26.5233 34.9309 26.521 34.9319 26.5194 34.9329C26.5188 34.9335 26.5181 34.9342 26.5175 34.9348C26.5059 34.9441 26.4934 34.9522 26.4809 34.9605C26.4796 34.9618 26.4787 34.9634 26.4774 34.9647C26.4716 34.9711 26.4655 34.9776 26.4601 34.9843C26.4556 34.9901 26.4505 34.9953 26.445 35.0001C26.4421 35.0046 26.4392 35.0088 26.4364 35.0123C26.4344 35.0146 26.4325 35.0168 26.4306 35.0191C26.428 35.0271 26.4242 35.0345 26.4197 35.0416C26.4133 35.0586 26.4004 35.0747 26.3886 35.0873C26.3879 35.0885 26.3873 35.0901 26.3867 35.0911C26.3597 35.1294 26.3305 35.1667 26.292 35.194C26.259 35.2178 26.2084 35.2474 26.1651 35.2333C26.158 35.233 26.1513 35.2317 26.1449 35.2297C26.0868 35.2223 26.0304 35.1953 25.9768 35.1735C25.9294 35.1587 25.8822 35.1448 25.8335 35.1342C25.7924 35.1252 25.7504 35.1146 25.7132 35.0947L25.7119 35.094L25.7116 35.0943C25.711 35.094 25.7103 35.0937 25.7097 35.0934C25.6943 35.0866 25.6792 35.0799 25.6645 35.0721C25.5433 35.0458 25.4285 34.9847 25.3063 34.9509C25.135 34.9123 25.0071 34.8907 24.8855 34.7502C24.8208 34.6752 24.7845 34.5887 24.7348 34.5044C24.7185 34.4768 24.7024 34.4514 24.6883 34.4253C24.5947 34.3134 24.5299 34.2179 24.3712 34.1648C24.359 34.1606 24.3468 34.1564 24.3349 34.1519C24.115 34.1053 23.8982 34.1725 23.6811 34.1899C23.6381 34.2015 23.5951 34.213 23.5538 34.2298C23.5445 34.2336 23.5352 34.2368 23.5259 34.2404C23.4678 34.2722 23.4136 34.3115 23.354 34.361C23.345 34.3684 23.3357 34.3755 23.3264 34.3829C23.2103 34.5028 23.0638 34.5939 22.898 34.6206C22.7277 34.6479 22.5914 34.6485 22.4461 34.7563C22.4086 34.7843 22.3746 34.8158 22.3409 34.8473C22.2996 34.9055 22.2524 34.9596 22.205 35.0133C22.1841 35.0577 22.1594 35.0998 22.1347 35.1419C22.1158 35.1966 22.0886 35.2487 22.0648 35.3018C22.0645 35.3028 22.0648 35.3037 22.0645 35.305C22.0472 35.3716 22.0264 35.434 22.0033 35.4951C21.9956 35.543 21.9834 35.5887 21.9683 35.6353C21.9702 35.6427 21.9699 35.6521 21.9664 35.6643C21.9597 35.6868 21.951 35.7074 21.9414 35.7273C21.9417 35.7344 21.9407 35.7424 21.9369 35.753C21.9269 35.7801 21.9144 35.8058 21.9003 35.8309C21.9 35.8405 21.8962 35.8524 21.8872 35.8679C21.8804 35.8788 21.8734 35.8894 21.8667 35.9004C21.8647 35.9068 21.8619 35.9135 21.8577 35.9213C21.8404 35.9528 21.8192 35.9808 21.7971 36.0075C21.7932 36.0171 21.7878 36.0277 21.7785 36.0399C21.7695 36.0522 21.7615 36.0618 21.7535 36.0708C21.7528 36.0872 21.7413 36.1081 21.715 36.1329C21.7124 36.1448 21.705 36.159 21.69 36.1763C21.6813 36.1863 21.6723 36.1963 21.6637 36.2059C21.6287 36.2545 21.5906 36.3008 21.5495 36.3445C21.5457 36.3526 21.5402 36.3606 21.5328 36.3677C21.4584 36.441 21.3904 36.5205 21.3132 36.5912C21.3023 36.6012 21.2914 36.6109 21.2805 36.6205C21.251 36.6614 21.2195 36.7006 21.1878 36.7402C21.1419 36.8296 21.1099 36.9245 21.0698 37.0242C21.0678 37.0293 21.0653 37.0345 21.0624 37.0393C21.0441 37.085 21.0249 37.1303 21.004 37.1744C21.0008 37.1814 20.9938 37.1888 20.9858 37.1962C20.9344 37.368 20.8905 37.5436 20.8661 37.7163C20.8642 37.7302 20.8629 37.7443 20.8613 37.7581C20.8671 37.7971 20.8722 37.8363 20.8758 37.8759C20.8822 37.9492 20.8857 38.0228 20.8886 38.0965C20.8947 38.1534 20.9017 38.2104 20.9072 38.2673C20.9181 38.3245 20.9274 38.3815 20.9271 38.4394C20.9402 38.5104 20.9518 38.5819 20.9652 38.6529C20.9931 38.7996 21.0335 38.9434 21.0608 39.0894C21.0794 39.1611 21.099 39.2325 21.1217 39.3033C21.1487 39.3866 21.1743 39.4696 21.1875 39.5548C21.2227 39.6584 21.2811 39.7603 21.3282 39.8536C21.3571 39.9105 21.3847 39.9675 21.4116 40.0247C21.4972 40.1617 21.589 40.2608 21.7082 40.3731C21.756 40.4181 21.7968 40.4647 21.8404 40.5075C21.9289 40.5596 22.0199 40.6043 22.1226 40.6416C22.2053 40.6719 22.2877 40.7015 22.3708 40.7288C22.4711 40.733 22.5699 40.7561 22.6719 40.7449C22.7886 40.7323 22.9018 40.6986 23.0189 40.6834C23.1715 40.6635 23.3335 40.6188 23.4755 40.557C23.5627 40.5188 23.6381 40.467 23.7263 40.4332C23.7292 40.4313 23.7314 40.429 23.7343 40.4274C23.7433 40.4229 23.7523 40.4184 23.7609 40.4139C23.783 40.4043 23.8093 40.3994 23.8334 40.4039C23.8356 40.4043 23.8376 40.4055 23.8398 40.4062C24.0585 40.3428 24.2541 40.356 24.4696 40.4358C24.6354 40.4972 24.8262 40.5143 24.9856 40.5869C25.1001 40.6391 25.1251 40.7298 25.1042 40.8365C25.1026 40.9353 25.0654 41.0221 25.026 41.1103C25.0096 41.1688 24.9837 41.2251 24.9587 41.2817C24.8984 41.4837 24.8743 41.6725 24.8958 41.8777C24.8971 41.8832 24.8987 41.8889 24.9 41.8944C24.9006 41.8957 24.9009 41.897 24.9016 41.8986C24.9391 41.9613 24.9862 42.0205 25.009 42.0903C25.0311 42.1591 25.0555 42.227 25.076 42.2958C25.0889 42.3209 25.0998 42.3466 25.1059 42.3737C25.111 42.3971 25.1116 42.4196 25.11 42.4418C25.1123 42.4553 25.1142 42.4689 25.1158 42.4827C25.1286 42.6023 25.1216 42.7258 25.1023 42.8445C25.102 42.8458 25.1017 42.8474 25.1014 42.8487C25.094 42.9764 25.0722 43.1006 25.0385 43.2228C25.0385 43.2237 25.0385 43.2247 25.0385 43.226C25.0157 43.3733 24.9654 43.511 24.8907 43.6396C24.8891 43.6422 24.8875 43.6448 24.8859 43.6473C24.8471 43.7432 24.7852 43.8304 24.7384 43.9246C24.7165 43.9979 24.7034 44.0745 24.6835 44.1484C24.6659 44.215 24.6514 44.2816 24.6393 44.3488C24.6364 44.3861 24.6348 44.4235 24.6338 44.4608C24.6335 44.4691 24.6341 44.4772 24.6345 44.4855C24.6348 44.4868 24.6351 44.4875 24.6354 44.4887C24.6405 44.5158 24.6444 44.5425 24.6476 44.5695C24.6524 44.5959 24.6575 44.6219 24.6633 44.648C24.7358 44.8593 24.8846 45.0539 25.0642 45.1806C25.1841 45.2655 25.3239 45.3231 25.3836 45.4369C25.3957 45.4521 25.407 45.4681 25.4163 45.4845C25.432 45.5125 25.4381 45.5395 25.4352 45.5656C25.7058 45.1098 25.9306 44.628 26.1243 44.1333C26.3793 43.482 26.5698 42.8069 26.7279 42.126C26.8882 41.4341 27.0155 40.7355 27.1409 40.0366C27.29 39.2062 27.4109 38.3738 27.4484 37.5301C27.4827 36.7196 27.4625 35.909 27.4362 35.0998Z" fill="white"/>
<path opacity="0.2" d="M27.236 33.6835C27.1847 33.3223 27.0968 32.9675 26.9938 32.6179C26.9425 32.4426 26.8874 32.2686 26.8316 32.0946C26.7681 31.8971 26.704 31.7029 26.6215 31.5121C26.5853 31.4279 26.543 31.3462 26.4894 31.2715C26.4355 31.1963 26.3794 31.1229 26.3146 31.0576C26.1896 30.7055 25.9789 30.3957 25.7342 30.1136C25.4988 29.8419 25.2304 29.5955 24.9582 29.3616C24.6513 29.0982 24.3255 28.848 23.9666 28.6595C23.6014 28.4675 23.2085 28.3392 22.8112 28.233C22.4578 28.1385 22.1003 28.0551 21.7559 27.9316C21.7584 27.9358 21.761 27.9397 21.7632 27.9442C21.7687 27.9509 21.7732 27.9577 21.777 27.9641C21.7847 27.9747 21.7902 27.985 21.7918 27.995C21.7953 28.0149 21.7972 28.0285 21.7979 28.0423C21.8024 28.0722 21.8043 28.1024 21.8046 28.133C21.8052 28.1417 21.8056 28.1504 21.8059 28.159C21.8171 28.2433 21.821 28.3279 21.7828 28.4064C21.7757 28.4434 21.7677 28.4807 21.7597 28.5183C21.7581 28.5955 21.7584 28.673 21.76 28.7505C21.7636 28.7849 21.7687 28.819 21.7754 28.8531C21.7854 28.874 21.795 28.8953 21.8056 28.9159C21.8168 28.9387 21.829 28.9596 21.8418 28.9802C21.878 29.0287 21.9207 29.0722 21.9714 29.1063C22.0329 29.1481 22.098 29.1699 22.1654 29.1851C22.36 29.1957 22.5582 29.2028 22.7227 29.3214C22.8561 29.4179 22.9613 29.5482 23.1313 29.5816C23.198 29.5948 23.2457 29.5874 23.2807 29.5659C23.3435 29.4832 23.3249 29.361 23.2894 29.2658C23.248 29.1545 23.162 29.0751 23.0909 28.9831C23.0886 28.9802 23.086 28.9763 23.0835 28.9725C23.0421 28.9419 23.0046 28.904 22.9706 28.8641C22.8641 28.7878 22.7432 28.691 22.689 28.582C22.6419 28.4868 22.6018 28.3337 22.7436 28.3086C22.8895 28.2829 23.0309 28.4128 23.1306 28.5019C23.2198 28.582 23.298 28.6775 23.3968 28.7464C23.4638 28.793 23.5395 28.8145 23.6142 28.8406C23.7261 28.8371 23.8384 28.8342 23.9506 28.8261C24.0301 28.8203 24.0862 28.8184 24.1337 28.8335C24.1789 28.8445 24.2341 28.8766 24.2546 28.9081C24.2912 28.9573 24.3223 29.0021 24.3367 29.0628C24.337 29.0638 24.3367 29.0641 24.337 29.0651C24.3842 29.1642 24.4178 29.2623 24.4274 29.3871C24.4358 29.4954 24.4281 29.6 24.4005 29.701C24.3623 29.9078 24.2681 30.1236 24.0875 30.2005C24.0808 30.2034 24.0737 30.2059 24.067 30.2085C23.9846 30.2687 23.8855 30.3124 23.7742 30.3417C23.4625 30.424 23.1643 30.5388 22.9186 30.7476C22.8859 30.7794 22.8539 30.8126 22.8234 30.8479C22.7811 30.8968 22.7246 30.9727 22.6599 31.0252C22.6124 31.0866 22.5601 31.1438 22.5188 31.2101C22.4476 31.3249 22.3931 31.4439 22.3571 31.5742C22.3559 31.5787 22.3549 31.5832 22.3536 31.588C22.3366 31.7205 22.3193 31.8518 22.3308 31.984C22.3555 32.0586 22.3876 32.13 22.4283 32.1982C22.5345 32.3201 22.6477 32.442 22.7904 32.5153C22.9693 32.6073 23.2021 32.6488 23.4054 32.6401C23.5555 32.6044 23.6982 32.5523 23.8422 32.4841C24.0189 32.4005 24.1225 32.2541 24.2822 32.1506C24.3486 32.1075 24.4117 32.0914 24.4682 32.0953C24.4695 32.094 24.4707 32.093 24.4727 32.092C24.4788 32.0901 24.4845 32.0882 24.4906 32.0862C24.5063 32.0843 24.5214 32.0859 24.5365 32.0908C24.5451 32.0943 24.5535 32.0975 24.5621 32.101C24.5759 32.1075 24.5884 32.1158 24.5993 32.1258C24.6009 32.1271 24.6025 32.1287 24.6041 32.13C24.6417 32.1554 24.6785 32.1911 24.6792 32.221C24.701 32.2461 24.7193 32.2741 24.7385 32.3014C24.8793 32.4256 25.0451 32.5095 25.2125 32.5919C25.3189 32.6443 25.4203 32.699 25.4947 32.7945C25.588 32.9145 25.5845 33.0753 25.7531 33.1158C25.7974 33.1264 25.8602 33.1377 25.9167 33.1322C25.9564 33.1152 25.9946 33.0894 26.0308 33.0589C26.0453 33.0373 26.0603 33.0164 26.0767 32.9962C26.1008 32.9566 26.1296 32.9264 26.1614 32.8997C26.1819 32.8749 26.205 32.8524 26.2313 32.8321C26.2338 32.8296 26.2361 32.8267 26.2386 32.8238C26.2826 32.7649 26.3182 32.7118 26.3403 32.653C26.3425 32.6269 26.3451 32.6009 26.3493 32.5751C26.3435 32.5301 26.3361 32.4877 26.3307 32.4526C26.3121 32.3313 26.2739 32.2117 26.2544 32.0904C26.2104 31.9492 26.1803 31.8064 26.2287 31.6916C26.2342 31.6681 26.2435 31.6466 26.2566 31.6276C26.2816 31.5707 26.323 31.5314 26.3894 31.5298C26.4253 31.516 26.466 31.5192 26.5051 31.5366C26.5459 31.5446 26.5808 31.5723 26.6094 31.6099C26.6267 31.6228 26.6401 31.636 26.6456 31.6466C26.6619 31.6794 26.6741 31.7128 26.6834 31.7469C26.6959 31.7601 26.7056 31.7733 26.7091 31.7846C26.712 31.7929 26.7142 31.8016 26.7165 31.81C26.7222 31.818 26.727 31.826 26.7293 31.8331C26.7379 31.8608 26.746 31.8888 26.7537 31.9164C26.7572 31.9277 26.7601 31.9389 26.7626 31.9502C26.763 31.9515 26.7633 31.9528 26.7636 31.9541C26.7707 31.9772 26.7777 32.0004 26.7844 32.0232C26.8306 32.1319 26.8755 32.2377 26.9044 32.3487C26.9121 32.3706 26.9182 32.3924 26.9236 32.4146C26.9249 32.4179 26.9265 32.4208 26.9271 32.424C26.9345 32.4542 26.9422 32.4831 26.9483 32.5127C26.982 32.5822 26.9692 32.6436 26.9329 32.6983C26.9291 32.7109 26.9243 32.7228 26.9182 32.7344C26.8758 32.8157 26.7957 32.8492 26.7174 32.8862C26.6767 32.9293 26.6405 32.9759 26.6052 33.0241C26.6023 33.0705 26.6023 33.1171 26.6033 33.1641C26.6049 33.1743 26.6065 33.1846 26.609 33.1953C26.6302 33.2844 26.6517 33.3722 26.6895 33.4532C26.7209 33.4851 26.7533 33.5159 26.7867 33.5462C26.8348 33.5832 26.8855 33.6169 26.9364 33.651C26.9653 33.6607 26.9942 33.6703 27.0224 33.6813C27.0865 33.7067 27.1394 33.7363 27.1847 33.7761C27.2061 33.788 27.2247 33.8025 27.2344 33.816C27.2366 33.8189 27.2385 33.8221 27.2408 33.825C27.2456 33.8292 27.2501 33.8334 27.2539 33.8376C27.2552 33.7861 27.2498 33.7346 27.236 33.6835Z" fill="white"/>
<defs>
<linearGradient id="paint0_linear" x1="83.0354" y1="-39.784" x2="-11.3374" y2="51.9456" gradientUnits="userSpaceOnUse">
<stop stop-color="#8CC63F"/>
<stop offset="0.9888" stop-color="#006837"/>
</linearGradient>
</defs>
</svg>
