<svg width="366" height="95" viewBox="0 0 366 95" fill="none" xmlns="http://www.w3.org/2000/svg">
<rect x="2" y="10.5762" width="360" height="82" rx="8" transform="rotate(-1.36513 2 10.5762)" fill="#DDFFFF" stroke="#6ECFD6" stroke-width="3"/>
<path d="M118.242 41.2372L120.565 41.1819L122.746 32.5775L122.922 32.5733L125.51 41.064L127.841 41.0085L131.006 29.0878L128.644 29.144L126.565 37.8539L126.451 37.8567L123.951 29.2559L121.59 29.3121L119.489 38.0611L119.374 38.0638L116.867 29.4247L114.505 29.481L118.242 41.2372Z" fill="#007D85"/>
<path d="M138.05 41.0043C141.359 40.9254 143.464 38.4306 143.376 34.7696C143.289 31.0855 141.067 28.6937 137.758 28.7726C134.449 28.8515 132.344 31.3463 132.432 35.0304C132.519 38.6914 134.74 41.0831 138.05 41.0043ZM138.011 39.0695C135.848 39.1211 134.794 37.2414 134.74 34.9677C134.686 32.7017 135.649 30.7508 137.812 30.6993C139.959 30.6481 141.014 32.5509 141.068 34.8169C141.122 37.0906 140.159 39.0184 138.011 39.0695Z" fill="#007D85"/>
<path d="M146.067 40.5742L148.352 40.5197L148.18 33.2901C148.143 31.741 149.301 30.5951 150.921 30.5565C151.395 30.5452 151.932 30.6173 152.117 30.6669L152.064 28.4625C151.834 28.4372 151.383 28.4248 151.092 28.4317C149.717 28.4645 148.558 29.2787 148.161 30.5606L148.038 30.5635L147.994 28.6829L145.785 28.7356L146.067 40.5742Z" fill="#007D85"/>
<path d="M154.327 40.3773L156.612 40.3229L156.512 36.1223L157.623 34.9468L161.74 40.2007L164.545 40.1338L159.309 33.4953L163.942 28.3029L161.206 28.3681L156.648 33.4894L156.449 33.4941L156.236 24.5381L153.951 24.5925L154.327 40.3773Z" fill="#007D85"/>
<path d="M174.547 39.8955L176.871 39.8401L179.052 31.2357L179.227 31.2315L181.816 39.7222L184.147 39.6667L187.311 27.746L184.95 27.8022L182.871 36.5121L182.756 36.5149L180.257 27.9141L177.896 27.9703L175.795 36.7193L175.68 36.722L173.172 28.0829L170.811 28.1392L174.547 39.8955Z" fill="#007D85"/>
<path d="M189.762 39.5329L192.047 39.4784L191.765 27.6398L189.48 27.6943L189.762 39.5329ZM190.591 25.8401C191.378 25.8214 192.02 25.1891 192.002 24.4338C191.984 23.6785 191.312 23.0698 190.525 23.0886C189.73 23.1075 189.095 23.7473 189.113 24.5026C189.131 25.258 189.796 25.8591 190.591 25.8401Z" fill="#007D85"/>
<path d="M200.319 27.436L197.912 27.4933L197.844 24.657L195.559 24.7115L195.627 27.5478L193.907 27.5888L193.951 29.4386L195.671 29.3976L195.837 36.3882C195.881 38.5388 197.534 39.5405 199.336 39.459C200.062 39.4339 200.548 39.2836 200.813 39.177L200.355 37.2831C200.203 37.3176 199.922 37.3937 199.555 37.4024C198.814 37.4201 198.143 37.1893 198.111 35.8559L197.956 29.3431L200.363 29.2858L200.319 27.436Z" fill="#007D85"/>
<path d="M205.499 32.1247C205.454 30.2364 206.613 29.1291 208.241 29.0903C209.815 29.0528 210.779 30.0401 210.821 31.7742L210.994 39.0269L213.279 38.9725L213.099 31.4423C213.029 28.4904 211.388 27.018 208.973 27.0755C207.146 27.119 206.065 27.9468 205.545 29.2394L205.4 29.2429L205.26 23.3698L203.005 23.4235L203.381 39.2083L205.667 39.1539L205.499 32.1247Z" fill="#007D85"/>
<path d="M121.541 56.4588L119.133 56.5162L119.066 53.6799L116.781 53.7343L116.848 56.5707L115.129 56.6116L115.173 58.4614L116.892 58.4204L117.059 65.4111C117.103 67.5616 118.755 68.5633 120.558 68.4818C121.284 68.4568 121.77 68.3064 122.035 68.1998L121.577 66.3059C121.425 66.3404 121.143 66.4165 120.777 66.4253C120.035 66.4429 119.365 66.2121 119.333 64.8787L119.178 58.366L121.585 58.3086L121.541 56.4588Z" fill="#007D85"/>
<path d="M127.773 68.4178C129.715 68.3716 130.784 67.3513 131.198 66.4545L131.29 66.4523L131.329 68.0709L133.56 68.0177L133.373 60.1561C133.291 56.7109 130.584 56.0891 128.719 56.1335C126.595 56.1842 124.659 57.094 123.946 59.2703L126.105 59.7124C126.422 58.8643 127.258 58.0346 128.794 57.998C130.27 57.9628 131.045 58.7233 131.077 60.0643L131.078 60.1183C131.098 60.9584 130.242 60.9634 128.138 61.2603C125.92 61.5753 123.657 62.2154 123.721 64.9053C123.776 67.2329 125.542 68.471 127.773 68.4178ZM128.226 66.5562C126.934 66.587 125.988 66.0234 125.961 64.8827C125.932 63.6496 127.006 63.1844 128.324 62.9756C129.063 62.8577 130.816 62.6154 131.137 62.2762L131.173 63.8023C131.207 65.205 130.129 66.5108 128.226 66.5562Z" fill="#007D85"/>
<path d="M138.513 52.1059L136.228 52.1604L136.604 67.9452L138.889 67.8907L138.513 52.1059Z" fill="#007D85"/>
<path d="M147.029 67.9358C149.589 67.8748 151.37 66.5599 151.844 64.6207L149.671 64.2791C149.285 65.4066 148.305 66.0006 147.006 66.0315C145.05 66.0782 143.705 64.8301 143.589 62.5501L151.935 62.3512L151.915 61.5343C151.814 57.2566 149.236 55.6446 146.577 55.708C143.306 55.7859 141.21 58.3499 141.297 61.9878C141.385 65.6642 143.566 68.0183 147.029 67.9358ZM143.556 60.8235C143.607 59.1411 144.78 57.6556 146.637 57.6113C148.41 57.5691 149.604 58.8671 149.655 60.6781L143.556 60.8235Z" fill="#007D85"/>
<path d="M156.713 60.4328C156.668 58.5445 157.788 57.4381 159.378 57.4003C160.929 57.3633 161.894 58.366 161.935 60.0847L162.108 67.3374L164.393 67.283L164.213 59.7528C164.144 56.824 162.51 55.3283 160.11 55.3855C158.345 55.4275 157.21 56.2797 156.697 57.549L156.552 57.5524L156.506 55.6256L154.313 55.6779L154.595 67.5164L156.88 67.462L156.713 60.4328Z" fill="#007D85"/>
<path d="M172.655 55.2407L170.248 55.2981L170.18 52.4618L167.895 52.5162L167.963 55.3526L166.243 55.3935L166.287 57.2433L168.007 57.2023L168.173 64.193C168.217 66.3435 169.87 67.3452 171.672 67.2637C172.398 67.2387 172.884 67.0883 173.149 66.9817L172.691 65.0878C172.539 65.1223 172.258 65.1984 171.891 65.2072C171.15 65.2248 170.479 64.994 170.447 63.6607L170.292 57.1479L172.699 57.0905L172.655 55.2407Z" fill="#007D85"/>
<path d="M180.404 67.1405C182.965 67.0794 184.746 65.7646 185.219 63.8253L183.047 63.4838C182.661 64.6112 181.681 65.2052 180.382 65.2362C178.425 65.2828 177.08 64.0347 176.965 61.7548L185.311 61.5559L185.291 60.7389C185.189 56.4613 182.612 54.8492 179.952 54.9126C176.681 54.9906 174.586 57.5545 174.673 61.1924C174.76 64.8689 176.942 67.223 180.404 67.1405ZM176.931 60.0281C176.983 58.3457 178.156 56.8602 180.013 56.816C181.786 56.7737 182.979 58.0717 183.03 59.8828L176.931 60.0281Z" fill="#007D85"/>
<path d="M192.371 66.8476C194.511 66.7966 195.32 65.4586 195.715 64.6934L195.906 64.6889L195.95 66.5309L198.181 66.4778L197.805 50.693L195.52 50.7474L195.66 56.6128L195.522 56.616C195.092 55.8937 194.281 54.5712 192.095 54.6233C189.259 54.6908 187.227 56.9988 187.318 60.8371C187.409 64.6677 189.52 66.9155 192.371 66.8476ZM192.828 64.8702C190.788 64.9188 189.682 63.1329 189.626 60.759C189.57 58.4082 190.567 56.6185 192.63 56.5693C194.625 56.5217 195.734 58.1379 195.793 60.612C195.853 63.1015 194.8 64.8232 192.828 64.8702Z" fill="#007D85"/>
<path d="M211.539 66.3908C213.679 66.3398 214.488 65.0018 214.883 64.2366L215.074 64.2321L215.118 66.0742L217.349 66.021L216.973 50.2362L214.688 50.2906L214.828 56.156L214.69 56.1593C214.26 55.4369 213.448 54.1144 211.263 54.1665C208.427 54.234 206.395 56.542 206.486 60.3803C206.577 64.2109 208.688 66.4587 211.539 66.3908ZM211.996 64.4134C209.956 64.462 208.85 62.6761 208.794 60.3022C208.738 57.9514 209.735 56.1617 211.798 56.1125C213.793 56.065 214.902 57.6811 214.961 60.1552C215.021 62.6447 213.968 64.3664 211.996 64.4134Z" fill="#007D85"/>
<path d="M225.676 66.0616C228.236 66.0006 230.017 64.6857 230.491 62.7465L228.319 62.4049C227.933 63.5323 226.953 64.1264 225.653 64.1573C223.697 64.204 222.352 62.9558 222.236 60.6759L230.582 60.477L230.563 59.66C230.461 55.3824 227.884 53.7704 225.224 53.8338C221.953 53.9117 219.857 56.4757 219.944 60.1136C220.032 63.79 222.214 66.1441 225.676 66.0616ZM222.203 58.9493C222.255 57.2669 223.427 55.7814 225.285 55.7371C227.058 55.6949 228.251 56.9929 228.302 58.8039L222.203 58.9493Z" fill="#007D85"/>
<path d="M242.94 53.5658L240.486 53.6243L237.738 62.8051L237.616 62.808L234.426 53.7687L231.972 53.8272L236.519 65.5641L238.965 65.5059L242.94 53.5658Z" fill="#007D85"/>
<path d="M250.014 65.4816C252.574 65.4206 254.355 64.1057 254.829 62.1665L252.657 61.8249C252.271 62.9523 251.291 63.5464 249.992 63.5773C248.035 63.624 246.69 62.3759 246.575 60.0959L254.92 59.897L254.901 59.08C254.799 54.8024 252.222 53.1904 249.562 53.2538C246.291 53.3317 244.196 55.8957 244.282 59.5336C244.37 63.21 246.552 65.5641 250.014 65.4816ZM246.541 58.3693C246.593 56.6869 247.766 55.2014 249.623 55.1571C251.396 55.1149 252.589 56.4129 252.64 58.2239L246.541 58.3693Z" fill="#007D85"/>
<path d="M259.489 49.223L257.204 49.2774L257.58 65.0622L259.866 65.0078L259.489 49.223Z" fill="#007D85"/>
<path d="M267.89 65.0556C271.2 64.9767 273.304 62.482 273.217 58.8209C273.129 55.1368 270.908 52.7451 267.599 52.8239C264.29 52.9028 262.185 55.3976 262.273 59.0817C262.36 62.7428 264.581 65.1345 267.89 65.0556ZM267.852 63.1209C265.689 63.1724 264.635 61.2927 264.581 59.019C264.527 56.7531 265.49 54.8022 267.652 54.7506C269.8 54.6994 270.855 56.6022 270.909 58.8682C270.963 61.1419 270 63.0697 267.852 63.1209Z" fill="#007D85"/>
<path d="M276.013 69.065L278.299 69.0105L278.149 62.729L278.286 62.7257C278.717 63.4712 279.589 64.7691 281.729 64.7181C284.572 64.6504 286.581 62.3044 286.49 58.4738C286.398 54.6355 284.25 52.4271 281.415 52.4947C279.237 52.5466 278.482 53.9065 278.094 54.6483L277.903 54.6529L277.857 52.7337L275.626 52.7869L276.013 69.065ZM278.006 58.6528C277.947 56.1787 278.978 54.5116 280.973 54.464C283.044 54.4147 284.125 56.1549 284.181 58.5057C284.238 60.8796 283.211 62.7163 281.17 62.7649C279.206 62.8117 278.065 61.1423 278.006 58.6528Z" fill="#007D85"/>
<path d="M294.256 64.4273C296.816 64.3663 298.597 63.0514 299.071 61.1122L296.899 60.7706C296.513 61.898 295.533 62.4921 294.233 62.523C292.277 62.5697 290.932 61.3216 290.816 59.0416L299.162 58.8427L299.143 58.0257C299.041 53.7481 296.464 52.1361 293.804 52.1995C290.533 52.2774 288.437 54.8414 288.524 58.4793C288.612 62.1557 290.794 64.5098 294.256 64.4273ZM290.783 57.315C290.835 55.6326 292.007 54.1471 293.865 54.1028C295.638 54.0606 296.831 55.3586 296.882 57.1696L290.783 57.315Z" fill="#007D85"/>
<path d="M301.822 64.0079L304.107 63.9535L303.935 56.7239C303.898 55.1747 305.056 54.0289 306.676 53.9903C307.15 53.979 307.687 54.0511 307.872 54.1006L307.819 51.8963C307.589 51.8709 307.138 51.8586 306.848 51.8655C305.472 51.8983 304.314 52.7125 303.916 53.9944L303.794 53.9973L303.749 52.1167L301.54 52.1693L301.822 64.0079Z" fill="#007D85"/>
<path d="M318.666 54.6532C318.148 52.8224 316.69 51.6541 314.153 51.7145C311.501 51.7777 309.654 53.233 309.704 55.3294C309.744 57.0096 310.78 58.1032 312.992 58.544L314.99 58.936C316.127 59.1634 316.667 59.6595 316.684 60.3994C316.706 61.3166 315.753 62.0565 314.255 62.0922C312.887 62.1248 311.993 61.5523 311.691 60.395L309.49 60.7868C309.922 62.8741 311.677 64.0121 314.314 63.9493C317.15 63.8817 319.078 62.3166 319.027 60.1739C318.987 58.5014 317.907 57.4937 315.74 57.0441L313.865 56.6569C312.566 56.3794 311.998 55.9534 311.986 55.1516C311.957 54.2424 312.92 53.5716 314.219 53.5407C315.641 53.5068 316.317 54.285 316.603 55.0725L318.666 54.6532Z" fill="#007D85"/>
<path d="M60.1128 39.8002C59.7553 40.1827 59.5621 40.6901 59.5746 41.2135C59.587 41.7368 59.8042 42.2344 60.1795 42.5994L63.4548 45.7223C63.8373 46.0797 64.3447 46.273 64.868 46.2605C65.3914 46.248 65.889 46.0308 66.254 45.6556L73.6122 37.9381C74.6706 40.1359 75.034 42.604 74.654 45.0136C74.2741 47.4231 73.1688 49.6597 71.4855 51.4251C69.8022 53.1906 67.6209 54.4012 65.2321 54.8955C62.8434 55.3898 60.3608 55.1443 58.1151 54.1919L44.6282 68.3372C43.8518 69.1516 42.7836 69.6242 41.6587 69.651C40.5338 69.6778 39.4443 69.2566 38.6299 68.4802C37.8156 67.7037 37.343 66.6355 37.3162 65.5106C37.2894 64.3857 37.7105 63.2963 38.487 62.4819L51.9738 48.3366C50.9155 46.1388 50.5521 43.6706 50.9321 41.2611C51.312 38.8515 52.4173 36.615 54.1006 34.8495C55.7838 33.084 57.9652 31.8735 60.3539 31.3792C62.7427 30.8849 65.2253 31.1303 67.471 32.0827L60.1323 39.7798L60.1128 39.8002Z" fill="white" stroke="#007D85" stroke-width="3" stroke-linecap="round" stroke-linejoin="round"/>
</svg>
