<?xml version="1.0" encoding="UTF-8" standalone="no"?>
<!-- Created with Inkscape (http://www.inkscape.org/) -->

<svg
   xmlns:dc="http://purl.org/dc/elements/1.1/"
   xmlns:cc="http://creativecommons.org/ns#"
   xmlns:rdf="http://www.w3.org/1999/02/22-rdf-syntax-ns#"
   xmlns:svg="http://www.w3.org/2000/svg"
   xmlns="http://www.w3.org/2000/svg"
   xmlns:sodipodi="http://sodipodi.sourceforge.net/DTD/sodipodi-0.dtd"
   xmlns:inkscape="http://www.inkscape.org/namespaces/inkscape"
   version="1.1"
   id="svg10"
   width="400"
   height="400"
   viewBox="0 0 400 400"
   sodipodi:docname="negative.svg"
   inkscape:version="0.92.3 (2405546, 2018-03-11)">
  <metadata
     id="metadata16">
    <rdf:RDF>
      <cc:Work
         rdf:about="">
        <dc:format>image/svg+xml</dc:format>
        <dc:type
           rdf:resource="http://purl.org/dc/dcmitype/StillImage" />
        <dc:title></dc:title>
      </cc:Work>
    </rdf:RDF>
  </metadata>
  <defs
     id="defs14" />
  <sodipodi:namedview
     pagecolor="#ffffff"
     bordercolor="#666666"
     borderopacity="1"
     objecttolerance="10"
     gridtolerance="10"
     guidetolerance="10"
     inkscape:pageopacity="0"
     inkscape:pageshadow="2"
     inkscape:window-width="1366"
     inkscape:window-height="706"
     id="namedview12"
     showgrid="false"
     inkscape:zoom="1.3425"
     inkscape:cx="200"
     inkscape:cy="200"
     inkscape:window-x="-8"
     inkscape:window-y="-8"
     inkscape:window-maximized="1"
     inkscape:current-layer="svg10" />
  <g
     id="g20"
     transform="translate(9.683431,2.9795156)">
    <path
       style="fill:#4a3b94;stroke-width:1.33333337"
       d="m 107.33333,349.33961 c -22.228647,-2.67349 -46.349783,-14.36853 -58.700682,-28.46077 -6.907869,-7.8818 -16.892365,-27.43225 -19.515117,-38.21217 -1.397946,-5.74578 -1.784198,-26.38404 -1.784198,-95.33334 0,-99.148099 -0.0065,-99.071197 10.044376,-119.049166 8.992728,-17.874725 21.950279,-29.587741 42.110712,-38.0661 15.747123,-6.622365 22.261989,-7.656683 53.178249,-8.442716 34.2767,-0.871472 108.79578,1.426347 119.36281,3.680588 18.47196,3.940588 39.95752,17.837733 54.05797,34.965427 l 6.3788,7.74826 3.19684,-4.084812 C 318.80433,60.071047 319.06697,60 330.76331,60 c 19.3976,0 17.35298,-15.283071 16.93073,126.55448 -0.42009,141.11596 1.38799,126.77885 -15.98835,126.77885 -11.88404,0 -15.2256,-1.24546 -17.20962,-6.4144 l -1.37628,-3.5856 L 307.57127,310 c -14.43355,17.34223 -34.99156,31.08904 -53.8954,36.03903 -13.67188,3.57998 -123.43622,6.0556 -146.34254,3.30058 z m 143.91839,-32.51476 c 9.81035,-3.62742 22.58291,-12.17428 29.21204,-19.54746 7.30089,-8.12036 10.9138,-15.70603 15.20955,-31.93408 l 3.35565,-12.67664 0.15219,-78 0.15218,-78.000003 L 296,90.760296 c -4.90327,-8.688145 -12.61903,-12.443201 -24.29071,-11.821631 -13.6472,0.726776 -20.13097,6.636119 -22.38505,20.401835 -0.74408,4.54412 -1.31213,40.02839 -1.31652,82.23937 -0.005,49.33554 -0.48488,75.50588 -1.42987,78 -2.03684,5.37581 -6.27232,9.50196 -13.91118,13.55212 L 226,276.66667 l -76.44188,0.66666 c -74.495585,0.6497 -76.492133,0.73456 -78.416117,3.33334 -2.228468,3.01004 -1.681203,7.72248 1.732188,14.91566 4.141756,8.72811 21.977889,20.24768 35.777119,23.10687 2.94178,0.60953 34.74869,0.98725 70.68202,0.83937 59.56227,-0.24512 65.91502,-0.48394 71.91839,-2.70372 z"
       id="path24"
       inkscape:connector-curvature="0" />
    <path
       style="fill:#35333c;stroke-width:1.33333337"
       d="M 112,348.04829 C 90.599787,346.25188 68.751321,337.36463 55.129807,324.91533 46.760195,317.26597 37.426868,302.75511 33.101223,290.66667 L 30,282 29.631003,190.09908 C 29.278663,102.34661 29.380747,97.728605 31.892484,87.796031 38.107383,63.21944 52.410949,44.967412 73.333333,34.915545 90.058257,26.880289 101.3797,24.324133 124.66667,23.325503 c 27.91084,-1.196919 116.22617,1.547934 127.67636,3.9682 16.7552,3.541604 40.08613,18.51861 51.98788,33.372964 3.5254,4.4 7.25846,8.187312 8.29568,8.416248 1.03721,0.228936 2.83596,-1.421064 3.9972,-3.666667 l 2.11136,-4.082915 h 11.89016 c 10.77545,0 12.08473,0.277812 13.96576,2.963342 1.832,2.615552 2.0756,14.248634 2.0756,99.119595 0,110.6237 -0.82606,143.88597 -3.64331,146.70324 C 341.72745,311.4154 337.92071,312 330.77808,312 c -10.73139,0 -13.10551,-1.09333 -15.20024,-7 -1.41257,-3.98317 -4.4886,-2.5996 -9.55013,4.29559 -6.22148,8.47534 -14.79075,15.99516 -26.65182,23.38784 -15.37956,9.58565 -25.12844,12.59353 -45.23522,13.95669 -25.23124,1.71057 -107.27069,2.6564 -122.14067,1.40817 z m 122.89944,-9.38506 c 16.87836,-1.23899 25.405,-3.88051 39.34983,-12.19042 9.33717,-5.56414 21.97569,-17.04804 27.3354,-24.83812 2.38725,-3.46974 6.00696,-6.71433 8.78601,-7.8755 l 4.72616,-1.97471 -0.88176,-54.11076 c -0.48496,-29.76091 -0.88175,-77.64737 -0.88175,-106.41436 V 78.955755 l -3.30473,-0.829436 c -1.86649,-0.46846 -5.56223,-3.88528 -8.49188,-7.851006 C 290.93737,55.927507 273.31589,42.603812 257.66324,37.102348 246.6836,33.243316 223.86771,31.943931 161.33333,31.616273 108.51518,31.339525 107.10153,31.400451 96.742116,34.400001 65.417048,43.470119 47.815848,60.11898 40.094419,87.982688 c -2.664754,9.616085 -2.761086,13.051462 -2.761086,98.464722 0,98.47768 -0.15499,96.52752 9.070059,114.12314 6.54866,12.49074 15.881056,21.63561 28.929941,28.34862 13.692803,7.04427 22.599263,9.74104 36.666667,11.10224 13.18763,1.27607 100.09801,0.31562 122.89944,-1.35818 z"
       id="path22"
       inkscape:connector-curvature="0" />
  </g>
  <path
     style="fill:#ffffff;stroke-width:0.74487895"
     d="m 133.48231,321.78063 c -16.39138,-0.46137 -17.35769,-0.57142 -22.34637,-2.54491 -6.9728,-2.75838 -12.333737,-5.80392 -18.653477,-10.59702 -7.913,-6.00148 -12.240056,-13.06802 -12.38369,-20.22386 -0.08338,-4.15419 1.142812,-5.4674 5.848545,-6.26353 1.972923,-0.33378 36.574202,-0.98469 76.891742,-1.44645 l 73.30461,-0.83959 5.57448,-3.09836 c 3.06595,-1.70412 7.16088,-4.51725 9.09983,-6.25142 6.14475,-5.49578 6.15074,-5.52463 6.77073,-32.60115 0.30018,-13.10987 0.59639,-44.45065 0.65825,-69.64618 0.16255,-66.21276 0.64063,-72.103811 6.3973,-78.829182 3.81095,-4.452241 7.69198,-6.222388 14.83432,-6.765974 13.94237,-1.061118 20.84812,2.322577 26.96738,13.213527 l 2.64827,4.713349 -0.55527,78.34066 -0.55527,78.34065 -2.87716,10.49807 c -3.44841,12.58239 -6.33343,19.90004 -10.0678,25.53629 -5.95937,8.99443 -17.03015,17.97 -29.61028,24.00637 -4.74803,2.27827 -7.51531,3.08396 -12.41708,3.61526 -7.95083,0.86177 -96.64334,1.48762 -119.52906,0.84345 z"
     id="path26"
     inkscape:connector-curvature="0" />
</svg>
