<?xml version="1.0" encoding="UTF-8" standalone="no"?>
<!-- Generator: Adobe Illustrator 16.0.2, SVG Export Plug-In . SVG Version: 6.00 Build 0)  -->

<svg
   xmlns:dc="http://purl.org/dc/elements/1.1/"
   xmlns:cc="http://creativecommons.org/ns#"
   xmlns:rdf="http://www.w3.org/1999/02/22-rdf-syntax-ns#"
   xmlns:svg="http://www.w3.org/2000/svg"
   xmlns="http://www.w3.org/2000/svg"
   xmlns:sodipodi="http://sodipodi.sourceforge.net/DTD/sodipodi-0.dtd"
   xmlns:inkscape="http://www.inkscape.org/namespaces/inkscape"
   version="1.1"
   id="Logo"
   x="0px"
   y="0px"
   width="1326.625"
   height="800"
   viewBox="0 0 1326.625 799.99996"
   enable-background="new 0 0 612 612"
   xml:space="preserve"
   inkscape:version="0.91 r13725"
   sodipodi:docname="JAMHacks.svg"
   inkscape:export-filename="C:\Users\Ethan\git\jamhacks.ca\res\JAMHacks.png"
   inkscape:export-xdpi="371.69159"
   inkscape:export-ydpi="371.69159"><metadata
     id="metadata53"><rdf:RDF><cc:Work
         rdf:about=""><dc:format>image/svg+xml</dc:format><dc:type
           rdf:resource="http://purl.org/dc/dcmitype/StillImage" /><dc:title></dc:title></cc:Work></rdf:RDF></metadata><defs
     id="defs51" /><sodipodi:namedview
     pagecolor="#ffffff"
     bordercolor="#666666"
     borderopacity="1"
     objecttolerance="10"
     gridtolerance="10"
     guidetolerance="10"
     inkscape:pageopacity="0"
     inkscape:pageshadow="2"
     inkscape:window-width="1920"
     inkscape:window-height="1137"
     id="namedview49"
     showgrid="false"
     inkscape:zoom="0.38562093"
     inkscape:cx="298.85807"
     inkscape:cy="257.41104"
     inkscape:window-x="1272"
     inkscape:window-y="-8"
     inkscape:window-maximized="1"
     inkscape:current-layer="Logo"
     fit-margin-top="0"
     fit-margin-left="0"
     fit-margin-right="0"
     fit-margin-bottom="0" /><path
     style="fill:#ffffff;fill-opacity:1"
     d="m 999.518,247.83472 -24.56972,11.45405 c -2.36644,1.10268 -4.39459,2.63443 -6.0416,4.46063 -1.64705,1.82616 -2.91353,3.9493 -3.74273,6.22711 -0.8292,2.27777 -1.22435,4.71334 -1.13733,7.17088 0.0871,2.4575 0.65678,4.9345 1.75843,7.2999 l 221.27265,474.49562 c 1.5445,3.32045 4.0037,6.05097 7.0014,7.95329 2.9978,1.90236 6.534,2.97647 10.2199,2.97647 2.7547,0 5.4223,-0.58967 7.9292,-1.75844 L 1236.7779,756.65209 999.518,247.83472 Z"
     id="path4228"
     inkscape:connector-curvature="0" /><path
     style="fill:#ffffff;fill-opacity:1"
     d="m 1057.9174,222.53905 c -2.767,0 -5.4576,0.60127 -8.0017,1.79068 l -24.5455,11.446 237.2519,508.82546 24.5616,-11.45405 c 2.3644,-1.10268 4.396,-2.63446 6.0416,-4.46062 1.6455,-1.82617 2.9062,-3.94935 3.7347,-6.22712 0.8284,-2.27781 1.2242,-4.71334 1.1373,-7.17088 -0.087,-2.45754 -0.6578,-4.93453 -1.7584,-7.29994 L 1075.0662,233.48491 c -1.5466,-3.32664 -4.0001,-6.0646 -6.9853,-7.96944 -2.9853,-1.9048 -6.5023,-2.97642 -10.1635,-2.97642 z"
     id="path4226"
     inkscape:connector-curvature="0" /><path
     style="fill:#ffffff;fill-opacity:1"
     d="m 38.427497,621.34117 c 0.550145,10.41715 2.468693,20.57523 5.630218,30.3774 3.161526,9.80217 7.564956,19.249 13.075366,28.23984 5.51041,8.99089 12.13321,17.53026 19.729966,25.51349 7.596756,7.98323 16.165444,15.41091 25.586093,22.19015 9.4206,6.77928 19.69387,12.9072 30.67583,18.28615 10.98195,5.37896 22.67822,10.01094 34.95899,13.79323 12.28081,3.78229 25.14262,6.71415 38.45975,8.70344 13.31713,1.98934 27.08715,3.03293 41.1781,3.03293 l 459.34721,0 c 14.07781,0 27.83271,-1.04359 41.1377,-3.03293 13.30499,-1.98929 26.15771,-4.92115 38.4275,-8.70344 12.26979,-3.78229 23.96254,-8.41427 34.93483,-13.79323 10.97226,-5.37895 21.2231,-11.50687 30.63548,-18.28615 9.41243,-6.77924 17.97972,-14.20692 25.56995,-22.19015 7.59023,-7.98323 14.20815,-16.5226 19.71386,-25.51349 5.5057,-8.99084 9.90033,-18.43767 13.05921,-28.23984 3.15884,-9.80217 5.08053,-19.96025 5.63022,-30.3774 l -877.750273,0 z"
     id="path4205"
     inkscape:export-xdpi="371.69159"
     inkscape:export-ydpi="371.69159"
     inkscape:connector-curvature="0" /><path
     style="fill:#ffffff;fill-opacity:1"
     d="m 173.64162,28.522166 c -2.63488,0 -5.14351,0.398949 -7.429,1.121228 -2.28549,0.722321 -4.34396,1.766155 -6.07386,3.057081 -1.72989,1.290926 -3.13765,2.827457 -4.1057,4.533232 -0.96809,1.705776 -1.50035,3.582694 -1.50035,5.549562 l 0,53.874296 -14.7047,2.597339 c -7.47823,1.322066 -14.67682,3.094086 -21.54489,5.275296 -6.86808,2.18121 -13.40353,4.77467 -19.568657,7.72742 -6.165165,2.95276 -11.95678,6.26862 -17.326236,9.90534 -5.369498,3.63671 -10.320471,7.592 -14.801543,11.82507 -4.481072,4.23308 -8.494515,8.74492 -11.994445,13.48675 -3.499972,4.74183 -6.487174,9.71106 -8.913205,14.87411 -2.426031,5.16304 -4.290147,10.51482 -5.549561,16.01144 -1.259374,5.49665 -1.911693,11.13996 -1.911693,16.8826 l 0,99.64208 878.16971,0 0,-99.64208 c 0,-5.74264 -0.6522,-11.38595 -1.91169,-16.8826 -1.2595,-5.49662 -3.12337,-10.8484 -5.54957,-16.01144 -2.42619,-5.16305 -5.41306,-10.13228 -8.91316,-14.87411 -3.50009,-4.74183 -7.51329,-9.25367 -11.99449,-13.48675 -4.48119,-4.23307 -9.432,-8.18836 -14.80154,-11.82507 -5.3695,-3.63672 -11.16119,-6.95258 -17.32623,-9.90534 -6.16505,-2.95275 -12.70087,-5.54621 -19.56866,-7.72742 -6.86778,-2.18121 -14.06716,-3.95323 -21.54489,-5.275296 l -14.71279,-2.597339 0,-53.874296 c 0,-1.965835 -0.53226,-3.843993 -1.50031,-5.549562 -0.96805,-1.705568 -2.37582,-3.242059 -4.10571,-4.533232 -1.72989,-1.291174 -3.78836,-2.33443 -6.07385,-3.057081 -2.28549,-0.722651 -4.79412,-1.121228 -7.429,-1.121228 l -607.31398,0 z"
     id="path4201"
     inkscape:export-xdpi="371.69159"
     inkscape:export-ydpi="371.69159"
     inkscape:connector-curvature="0" /><path
     d="m 838.64923,188.84579 c -69.78715,20.61236 -146.90076,37.69778 -220.20247,34.85227 -72.07099,-2.80007 -140.76785,-30.93712 -209.98508,-47.64672 -69.26265,-16.75503 -146.75208,-23.18117 -214.97401,0.73512 -37.2724,13.07941 -71.35651,32.4528 -103.590432,54.48585 l 0,4.24555 0,65.39293 0,301.82598 c 0,5.77361 0.541017,11.4481 1.627183,17.02347 11.472879,63.88965 87.293829,113.25029 179.138809,113.25029 l 413.3334,0 c 91.90694,0 167.79396,-49.36064 179.27097,-113.25029 1.08204,-5.57537 1.62306,-11.24986 1.62306,-17.02347 l 0,-365.48848 0,-1.73043 0,-41.35689 c -6.24029,-5.75708 -15.26827,-8.57368 -26.24143,-5.31518 z"
     id="path6"
     inkscape:connector-curvature="0"
     style="fill:#493a98;fill-opacity:1"
     inkscape:export-xdpi="371.69159"
     inkscape:export-ydpi="371.69159" /><path
     style="fill:#282828"
     d="m 1057.9094,194.01688 c -6.963,0 -13.7091,1.50362 -20.0527,4.46063 l -74.95936,34.95094 c -23.71806,11.05576 -34.02031,39.3476 -22.96455,63.06978 l 221.26451,474.49562 c 7.756,16.64352 24.6706,27.40098 43.0817,27.40098 6.9507,0 13.6696,-1.4918 19.9801,-4.43643 l 74.9675,-34.95903 c 23.718,-11.05163 34.0122,-39.34368 22.9564,-63.06173 L 1100.9185,221.43397 c -7.756,-16.65592 -24.6434,-27.41709 -43.0091,-27.41709 z m 0.01,28.52217 c 7.3224,0 14.0555,4.29258 17.1488,10.94586 l 221.2727,474.50367 c 4.4024,9.46162 0.3023,20.74782 -9.1552,25.15856 l -24.5616,11.45405 -237.2519,-508.82546 24.5455,-11.446 c 2.5441,-1.18941 5.2347,-1.79068 8.0017,-1.79068 z m -58.39939,25.29567 237.25989,508.81737 -24.5697,11.46214 c -2.5069,1.16877 -5.1745,1.75844 -7.9292,1.75844 -7.3718,0 -14.1322,-4.28887 -17.2213,-10.92976 L 965.78505,284.44729 c -4.40661,-9.46161 -0.30231,-20.74778 9.16323,-25.15852 L 999.518,247.83472 Z"
     id="path43"
     inkscape:connector-curvature="0" /><g
     id="g4207"
     inkscape:export-xdpi="371.69159"
     inkscape:export-ydpi="371.69159"
     transform="matrix(4.1299062,0,0,4.1299062,-759.96725,-886.10685)"><path
       id="path4203"
       d="m 193.26953,292.86719 0,65.23437 212.63672,0 0,-65.23437 -212.63672,0 z"
       style="fill:#ffffff;fill-opacity:1"
       inkscape:connector-curvature="0" /><g
       id="g4161"><path
         style="fill:#493a98;fill-opacity:1"
         inkscape:connector-curvature="0"
         id="path23"
         d="m 207.277,313.469 c 0.309,-0.057 0.802,-0.135 1.478,-0.232 0.675,-0.098 1.323,-0.147 1.942,-0.147 0.646,0 1.217,0.05 1.709,0.147 0.492,0.098 0.907,0.275 1.246,0.527 0.338,0.253 0.591,0.604 0.76,1.056 0.169,0.452 0.253,1.042 0.253,1.773 l 0,15.624 c 0,2.505 -0.718,4.384 -2.154,5.636 -1.436,1.251 -3.546,1.878 -6.333,1.878 -1.465,0 -2.647,-0.226 -3.547,-0.675 -0.648,-0.31 -1.12,-0.732 -1.415,-1.267 -0.295,-0.534 -0.443,-1.141 -0.443,-1.816 0,-0.563 0.077,-1.054 0.233,-1.477 0.154,-0.423 0.343,-0.761 0.569,-1.015 0.535,0.114 0.992,0.191 1.374,0.232 0.379,0.042 0.794,0.063 1.246,0.063 1.097,0 1.884,-0.274 2.364,-0.822 0.478,-0.55 0.718,-1.358 0.718,-2.429 l 0,-17.056 z" /><path
         style="fill:#493a98;fill-opacity:1"
         inkscape:connector-curvature="0"
         id="path25"
         d="m 223.172,314.229 c 0.479,-0.28 1.204,-0.549 2.175,-0.803 0.971,-0.252 1.948,-0.38 2.934,-0.38 1.407,0 2.653,0.204 3.737,0.613 1.083,0.406 1.78,1.048 2.09,1.921 0.507,1.464 1.056,3.166 1.647,5.107 0.591,1.943 1.182,3.949 1.773,6.019 0.591,2.068 1.168,4.109 1.731,6.122 0.563,2.014 1.055,3.793 1.478,5.341 -0.338,0.396 -0.845,0.712 -1.521,0.95 -0.675,0.238 -1.478,0.359 -2.406,0.359 -0.676,0 -1.246,-0.058 -1.71,-0.171 -0.465,-0.111 -0.844,-0.28 -1.14,-0.505 -0.296,-0.225 -0.535,-0.521 -0.719,-0.888 -0.182,-0.364 -0.344,-0.787 -0.485,-1.267 l -0.76,-2.913 -7.642,0 c -0.226,0.845 -0.451,1.718 -0.676,2.618 -0.225,0.901 -0.45,1.772 -0.675,2.618 -0.394,0.141 -0.809,0.259 -1.246,0.358 -0.437,0.098 -0.964,0.148 -1.583,0.148 -1.436,0 -2.499,-0.248 -3.188,-0.739 -0.691,-0.493 -1.035,-1.176 -1.035,-2.048 0,-0.396 0.057,-0.789 0.169,-1.183 0.113,-0.395 0.239,-0.858 0.38,-1.393 0.196,-0.762 0.472,-1.703 0.823,-2.83 0.352,-1.125 0.739,-2.344 1.162,-3.653 0.422,-1.309 0.872,-2.651 1.35,-4.03 0.479,-1.378 0.93,-2.681 1.351,-3.905 0.423,-1.226 0.81,-2.316 1.162,-3.273 0.353,-0.955 0.628,-1.687 0.824,-2.193 z m 5.067,5.447 c -0.395,1.183 -0.838,2.498 -1.331,3.946 -0.493,1.451 -0.935,2.921 -1.33,4.414 l 5.235,0 c -0.394,-1.521 -0.795,-3.005 -1.203,-4.455 -0.408,-1.45 -0.781,-2.751 -1.119,-3.905 l -0.252,0 z" /><path
         style="fill:#493a98;fill-opacity:1"
         inkscape:connector-curvature="0"
         id="path27"
         d="m 260.739,332.764 c -0.366,0.312 -0.838,0.557 -1.415,0.739 -0.577,0.184 -1.246,0.274 -2.006,0.274 -1.013,0 -1.851,-0.127 -2.512,-0.38 -0.662,-0.254 -1.092,-0.688 -1.288,-1.31 -0.788,-2.477 -1.436,-4.481 -1.942,-6.016 -0.507,-1.534 -0.902,-2.878 -1.183,-4.032 l -0.21,0 c -0.085,1.661 -0.148,3.173 -0.191,4.539 -0.042,1.365 -0.071,2.695 -0.084,3.989 -0.014,1.295 -0.042,2.604 -0.084,3.928 -0.042,1.322 -0.106,2.786 -0.19,4.391 -0.367,0.141 -0.844,0.26 -1.436,0.359 -0.591,0.099 -1.182,0.147 -1.773,0.147 -1.239,0 -2.203,-0.197 -2.892,-0.591 -0.69,-0.395 -1.035,-1.111 -1.035,-2.154 l 1.224,-21.533 c 0.225,-0.365 0.718,-0.76 1.479,-1.183 0.759,-0.421 1.829,-0.632 3.208,-0.632 1.493,0 2.661,0.231 3.505,0.695 0.844,0.464 1.462,1.218 1.857,2.259 0.254,0.676 0.528,1.45 0.824,2.323 0.295,0.872 0.591,1.773 0.887,2.702 0.295,0.928 0.584,1.851 0.866,2.765 0.281,0.916 0.534,1.738 0.759,2.471 l 0.211,0 c 0.676,-2.363 1.351,-4.651 2.027,-6.862 0.675,-2.21 1.294,-4.06 1.857,-5.552 0.422,-0.225 0.964,-0.414 1.626,-0.569 0.661,-0.155 1.399,-0.231 2.217,-0.231 1.379,0 2.505,0.204 3.377,0.611 0.873,0.408 1.379,0.992 1.521,1.752 0.112,0.564 0.232,1.43 0.358,2.597 0.128,1.168 0.26,2.483 0.401,3.947 0.141,1.464 0.282,3.015 0.423,4.646 0.141,1.631 0.274,3.2 0.401,4.706 0.126,1.506 0.231,2.885 0.317,4.138 0.083,1.253 0.14,2.217 0.168,2.893 -0.478,0.283 -0.978,0.485 -1.499,0.612 -0.521,0.127 -1.188,0.19 -2.005,0.19 -1.07,0 -1.971,-0.184 -2.702,-0.549 -0.733,-0.367 -1.126,-1.083 -1.182,-2.153 -0.169,-3.068 -0.275,-5.827 -0.317,-8.275 -0.042,-2.451 -0.106,-4.504 -0.19,-6.165 l -0.211,0 c -0.282,1.099 -0.69,2.478 -1.224,4.137 -0.535,1.662 -1.182,3.788 -1.942,6.377 z" /><path
         style="fill:#493a98;fill-opacity:1"
         inkscape:connector-curvature="0"
         id="path29"
         d="m 298.433,338.887 c -0.31,0.085 -0.795,0.169 -1.456,0.254 -0.662,0.084 -1.317,0.126 -1.964,0.126 -0.647,0 -1.218,-0.051 -1.71,-0.147 -0.492,-0.099 -0.907,-0.274 -1.246,-0.528 -0.337,-0.253 -0.591,-0.604 -0.759,-1.056 -0.169,-0.45 -0.253,-1.041 -0.253,-1.773 l 0,-6.588 -8.107,0 0,9.713 c -0.309,0.085 -0.795,0.169 -1.456,0.254 -0.663,0.084 -1.316,0.126 -1.964,0.126 -0.647,0 -1.218,-0.051 -1.709,-0.147 -0.493,-0.099 -0.908,-0.274 -1.246,-0.528 -0.338,-0.253 -0.592,-0.604 -0.76,-1.056 -0.169,-0.45 -0.253,-1.041 -0.253,-1.773 l 0,-22.293 c 0.309,-0.057 0.802,-0.135 1.478,-0.232 0.676,-0.097 1.322,-0.147 1.942,-0.147 0.648,0 1.217,0.05 1.71,0.147 0.492,0.098 0.908,0.275 1.246,0.527 0.338,0.253 0.591,0.604 0.76,1.056 0.168,0.452 0.252,1.042 0.252,1.773 l 0,6.757 8.107,0 0,-9.881 c 0.31,-0.057 0.802,-0.135 1.478,-0.232 0.676,-0.097 1.323,-0.147 1.943,-0.147 0.646,0 1.217,0.05 1.71,0.147 0.491,0.098 0.906,0.275 1.245,0.527 0.337,0.253 0.591,0.604 0.759,1.056 0.169,0.452 0.253,1.042 0.253,1.773 l 0,22.292 z" /><path
         style="fill:#493a98;fill-opacity:1"
         inkscape:connector-curvature="0"
         id="path31"
         d="m 308.217,314.229 c 0.479,-0.28 1.203,-0.549 2.175,-0.803 0.973,-0.252 1.949,-0.38 2.934,-0.38 1.408,0 2.654,0.204 3.736,0.613 1.085,0.406 1.78,1.048 2.092,1.921 0.507,1.464 1.056,3.166 1.646,5.107 0.591,1.943 1.184,3.949 1.775,6.019 0.591,2.068 1.166,4.109 1.729,6.122 0.563,2.014 1.057,3.793 1.477,5.341 -0.336,0.396 -0.843,0.712 -1.519,0.95 -0.677,0.238 -1.479,0.359 -2.406,0.359 -0.675,0 -1.245,-0.058 -1.711,-0.171 -0.465,-0.111 -0.843,-0.28 -1.139,-0.505 -0.296,-0.225 -0.537,-0.521 -0.719,-0.888 -0.184,-0.364 -0.345,-0.787 -0.486,-1.267 l -0.759,-2.913 -7.642,0 c -0.226,0.845 -0.451,1.718 -0.676,2.618 -0.228,0.901 -0.452,1.772 -0.677,2.618 -0.394,0.141 -0.81,0.259 -1.246,0.358 -0.437,0.098 -0.963,0.148 -1.583,0.148 -1.436,0 -2.498,-0.248 -3.188,-0.739 -0.689,-0.493 -1.034,-1.176 -1.034,-2.048 0,-0.396 0.056,-0.789 0.169,-1.183 0.112,-0.395 0.24,-0.858 0.38,-1.393 0.195,-0.762 0.471,-1.703 0.823,-2.83 0.352,-1.125 0.738,-2.344 1.161,-3.653 0.423,-1.309 0.871,-2.651 1.35,-4.03 0.48,-1.378 0.93,-2.681 1.353,-3.905 0.421,-1.226 0.807,-2.316 1.161,-3.273 0.352,-0.955 0.628,-1.687 0.824,-2.193 z m 5.067,5.447 c -0.396,1.183 -0.838,2.498 -1.33,3.946 -0.492,1.451 -0.937,2.921 -1.33,4.414 l 5.235,0 c -0.395,-1.521 -0.795,-3.005 -1.203,-4.455 -0.408,-1.45 -0.781,-2.751 -1.119,-3.905 l -0.253,0 z" /><path
         style="fill:#493a98;fill-opacity:1"
         inkscape:connector-curvature="0"
         id="path33"
         d="m 340.716,318.619 c -2.166,0 -3.827,0.661 -4.981,1.985 -1.155,1.324 -1.73,3.194 -1.73,5.616 0,2.448 0.639,4.334 1.921,5.656 1.279,1.323 3.005,1.984 5.173,1.984 1.152,0 2.132,-0.154 2.935,-0.464 0.802,-0.309 1.568,-0.661 2.3,-1.056 0.479,0.395 0.852,0.865 1.118,1.414 0.269,0.549 0.403,1.189 0.403,1.922 0,1.154 -0.642,2.133 -1.921,2.935 -1.282,0.803 -3.232,1.202 -5.849,1.202 -1.886,0 -3.66,-0.268 -5.321,-0.801 -1.66,-0.536 -3.109,-1.358 -4.349,-2.471 -1.238,-1.11 -2.215,-2.519 -2.934,-4.223 -0.719,-1.702 -1.077,-3.736 -1.077,-6.1 0,-2.197 0.346,-4.131 1.034,-5.807 0.69,-1.675 1.633,-3.088 2.829,-4.243 1.196,-1.155 2.597,-2.027 4.201,-2.618 1.604,-0.591 3.321,-0.887 5.149,-0.887 2.592,0 4.597,0.423 6.02,1.267 1.421,0.845 2.132,1.929 2.132,3.252 0,0.731 -0.184,1.366 -0.55,1.9 -0.366,0.534 -0.788,0.957 -1.267,1.267 -0.731,-0.479 -1.513,-0.887 -2.343,-1.226 -0.832,-0.334 -1.795,-0.504 -2.893,-0.504 z" /><path
         style="fill:#493a98;fill-opacity:1"
         inkscape:connector-curvature="0"
         id="path35"
         d="m 358.061,329.555 0,9.332 c -0.312,0.085 -0.803,0.169 -1.479,0.254 -0.677,0.084 -1.338,0.126 -1.983,0.126 -0.65,0 -1.219,-0.051 -1.712,-0.147 -0.493,-0.099 -0.906,-0.274 -1.245,-0.528 -0.337,-0.253 -0.592,-0.604 -0.76,-1.056 -0.169,-0.45 -0.254,-1.041 -0.254,-1.773 l 0,-22.293 c 0.312,-0.057 0.803,-0.135 1.479,-0.232 0.676,-0.098 1.322,-0.147 1.94,-0.147 0.647,0 1.218,0.05 1.71,0.147 0.493,0.098 0.908,0.275 1.245,0.527 0.339,0.253 0.591,0.604 0.762,1.056 0.167,0.452 0.251,1.042 0.251,1.773 l 0,6.714 8.784,-10.093 c 1.914,0 3.286,0.36 4.116,1.078 0.83,0.718 1.245,1.569 1.245,2.555 0,0.731 -0.183,1.423 -0.548,2.068 -0.366,0.646 -0.957,1.379 -1.773,2.195 l -5.278,5.277 c 0.703,0.789 1.443,1.605 2.217,2.451 0.774,0.842 1.535,1.665 2.28,2.468 0.745,0.803 1.464,1.571 2.153,2.303 0.689,0.732 1.288,1.365 1.795,1.899 0,0.619 -0.114,1.17 -0.338,1.646 -0.226,0.479 -0.527,0.887 -0.907,1.225 -0.38,0.338 -0.81,0.592 -1.288,0.761 -0.48,0.167 -0.987,0.253 -1.521,0.253 -1.154,0 -2.095,-0.29 -2.827,-0.865 -0.733,-0.577 -1.437,-1.26 -2.112,-2.049 l -5.952,-6.925 z" /><path
         style="fill:#493a98;fill-opacity:1"
         inkscape:connector-curvature="0"
         id="path37"
         d="m 383.857,328.88 c -1.24,-0.423 -2.365,-0.852 -3.379,-1.287 -1.013,-0.437 -1.885,-0.964 -2.617,-1.584 -0.733,-0.619 -1.301,-1.358 -1.711,-2.217 -0.406,-0.858 -0.611,-1.906 -0.611,-3.145 0,-2.394 0.921,-4.308 2.766,-5.743 1.844,-1.436 4.426,-2.153 7.748,-2.153 1.21,0 2.335,0.083 3.379,0.254 1.038,0.169 1.935,0.43 2.68,0.78 0.745,0.352 1.33,0.802 1.753,1.352 0.423,0.549 0.634,1.188 0.634,1.921 0,0.731 -0.17,1.358 -0.507,1.879 -0.339,0.521 -0.747,0.964 -1.226,1.331 -0.62,-0.396 -1.45,-0.739 -2.491,-1.035 -1.041,-0.296 -2.182,-0.443 -3.421,-0.443 -1.266,0 -2.195,0.176 -2.786,0.527 -0.591,0.353 -0.886,0.795 -0.886,1.331 0,0.422 0.184,0.765 0.549,1.034 0.366,0.267 0.914,0.513 1.646,0.738 l 2.238,0.718 c 2.646,0.843 4.679,1.922 6.101,3.229 1.421,1.311 2.132,3.09 2.132,5.342 0,2.394 -0.942,4.328 -2.828,5.806 -1.887,1.478 -4.658,2.216 -8.318,2.216 -1.295,0 -2.498,-0.104 -3.61,-0.315 -1.112,-0.212 -2.084,-0.521 -2.913,-0.931 -0.83,-0.406 -1.478,-0.914 -1.941,-1.52 -0.466,-0.605 -0.697,-1.301 -0.697,-2.09 0,-0.816 0.238,-1.514 0.719,-2.091 0.477,-0.575 0.998,-1.019 1.562,-1.329 0.788,0.62 1.752,1.153 2.894,1.604 1.139,0.449 2.384,0.676 3.736,0.676 1.377,0 2.349,-0.211 2.912,-0.634 0.563,-0.422 0.845,-0.913 0.845,-1.477 0,-0.563 -0.225,-0.994 -0.675,-1.288 -0.451,-0.296 -1.084,-0.585 -1.9,-0.867 l -1.777,-0.589 z" /></g></g><path
     style="fill:#282828"
     d="m 173.64967,1.2032619e-6 c -31.6103,0 -57.3347,19.1932437967381 -57.3347,42.7832677967381 l 0,31.837364 C 47.110129,91.776264 0,139.86089 0,195.24293 l 0,99.64208 0,28.52216 0,291.70693 0,6.22711 0.20979923,0 C 4.6330527,720.41138 113.91855,800 247.72185,800 l 459.34721,0 c 133.68998,0 242.90638,-79.58862 247.32653,-178.65879 l 0.2098,0 0,-297.93404 0,-28.52216 0,-99.64208 c 0,-55.38204 -47.11426,-103.466666 -116.31496,-120.622297 l 0,-31.837364 C 838.29043,19.193245 812.57015,1.2032619e-6 780.95572,1.2032619e-6 l -607.30593,0 z M 173.64141,28.522166 l 607.31398,0 c 10.53952,0 19.10887,6.397761 19.10887,14.261103 l 0,53.874296 14.71279,2.597339 c 59.82169,10.576686 101.61023,50.046946 101.61023,95.988026 l 0,99.64208 -878.169706,0 0,-99.64208 c 0,-45.94108 41.784408,-85.41134 101.610226,-95.988026 l 14.7047,-2.597339 0,-53.874296 c 0,-7.867471 8.56939,-14.261103 19.10891,-14.261103 z M 38.217574,323.40717 l 878.169706,0 0,269.41187 -878.169706,0 0,-269.41187 z m 0.209799,297.93404 877.750277,0 c -4.3974,83.337 -96.48601,150.13663 -209.10876,150.13663 l -459.3472,0 c -112.72765,0 -204.893159,-66.79954 -209.294317,-150.13663 z"
     id="path10"
     inkscape:connector-curvature="0"
     inkscape:export-xdpi="371.69159"
     inkscape:export-ydpi="371.69159" /></svg>