<?xml version="1.0" encoding="UTF-8" standalone="no"?>
<!-- Created with Inkscape (http://www.inkscape.org/) -->

<svg
   xmlns:dc="http://purl.org/dc/elements/1.1/"
   xmlns:cc="http://creativecommons.org/ns#"
   xmlns:rdf="http://www.w3.org/1999/02/22-rdf-syntax-ns#"
   xmlns:svg="http://www.w3.org/2000/svg"
   xmlns="http://www.w3.org/2000/svg"
   xmlns:sodipodi="http://sodipodi.sourceforge.net/DTD/sodipodi-0.dtd"
   xmlns:inkscape="http://www.inkscape.org/namespaces/inkscape"
   version="1.1"
   id="svg10"
   width="2666.6667"
   height="576"
   viewBox="0 0 2666.6667 576"
   sodipodi:docname="jamhacks logo.svg"
   inkscape:version="0.92.3 (2405546, 2018-03-11)">
  <metadata
     id="metadata16">
    <rdf:RDF>
      <cc:Work
         rdf:about="">
        <dc:format>image/svg+xml</dc:format>
        <dc:type
           rdf:resource="http://purl.org/dc/dcmitype/StillImage" />
        <dc:title></dc:title>
      </cc:Work>
    </rdf:RDF>
  </metadata>
  <defs
     id="defs14" />
  <sodipodi:namedview
     pagecolor="#ffffff"
     bordercolor="#666666"
     borderopacity="1"
     objecttolerance="10"
     gridtolerance="10"
     guidetolerance="10"
     inkscape:pageopacity="0"
     inkscape:pageshadow="2"
     inkscape:window-width="1366"
     inkscape:window-height="706"
     id="namedview12"
     showgrid="false"
     inkscape:zoom="0.45412499"
     inkscape:cx="1333.3334"
     inkscape:cy="288"
     inkscape:window-x="-8"
     inkscape:window-y="-8"
     inkscape:window-maximized="1"
     inkscape:current-layer="svg10" />
  <g
     id="g26"
     transform="translate(13.212221,13.212225)">
    <path
       style="fill:#4b3c95;stroke-width:1.33333337"
       d="M 406.00001,434.65769 C 399.4,434.14041 391.3,432.97111 388,432.05924 370.1657,427.13121 351.01954,415.70985 342.3504,404.82765 336.24364,397.16193 327.78335,379.87545 325.50562,370.40957 324.46442,366.08249 324,336.65139 324,274.99403 c 0,-85.51759 0.11134,-89.58339 2.72552,-99.56418 6.99495,-26.70597 21.80504,-43.77436 47.27763,-54.48671 20.20591,-8.49748 40.07322,-9.84123 113.68971,-7.68953 51.23816,1.49761 58.81109,2.29799 70.49969,7.45111 15.67315,6.90979 41.11778,28.1542 43.78475,36.55707 1.19971,3.77996 8.68937,3.93561 8.68937,0.1806 0,-6.26608 1.01007,-6.77572 13.42908,-6.77572 10.69386,0 11.95443,0.26906 13.33355,2.84597 1.75837,3.28555 1.09651,238.79939 -0.6824,242.82069 -0.86189,1.94838 -2.83449,2.33334 -11.95621,2.33334 -11.98286,0 -14.12402,-1.05108 -14.12402,-6.93334 0,-3.05822 -0.58224,-3.73333 -3.21977,-3.73333 -2.29489,0 -4.56517,1.81927 -7.90347,6.33333 -13.13832,17.76579 -37.70681,34.06188 -56.76946,37.65476 -7.83907,1.4775 -82.84184,4.09411 -108.77396,3.79479 -8.8,-0.1016 -21.4,-0.60791 -28,-1.12519 z m 99.33876,-3.99165 c 35.94328,-1.35472 42.22248,-2.37607 55.3279,-8.99932 15.87186,-8.02135 26.96267,-17.19757 36.67342,-30.34252 4.44477,-6.01665 6.11729,-7.3242 9.36864,-7.3242 h 3.95794 V 274 164 l -3.66666,-0.0204 c -4.61055,-0.0257 -5.54792,-0.72815 -9.86246,-7.39097 -8.02509,-12.39291 -26.4562,-26.85211 -42.57946,-33.40358 -12.01552,-4.88236 -30.56386,-6.07865 -97.89142,-6.31363 -58.0788,-0.2027 -58.76687,-0.17345 -68.66667,2.91929 -31.94409,9.97948 -49.21349,26.64834 -57.59214,55.58944 -3.07422,10.61878 -3.07452,10.62886 -3.07452,99.95318 0,82.95063 0.17525,89.90492 2.45292,97.33334 3.83657,12.51262 11.50549,25.88956 19.56345,34.12457 11.19647,11.44248 33.55988,21.86616 51.31696,23.91903 12.2076,1.4113 66.66491,1.38829 104.6721,-0.0443 z M 404.00001,407.97747 c -8.20322,-1.42492 -21.99049,-7.48771 -29.83935,-13.12151 -4.51043,-3.23752 -7.47148,-6.74332 -9.65364,-11.42961 -3.67799,-7.89864 -3.97524,-12.35528 -1.09808,-16.463 L 365.48455,364 h 72.52543 c 46.56423,0 74.91116,-0.51164 79.19021,-1.42933 7.78628,-1.66987 16.45979,-7.5222 20.17228,-13.61099 2.52038,-4.1336 2.61775,-7.12067 2.62255,-80.44436 0.003,-45.41272 0.54579,-79.00297 1.34476,-83.21592 1.59064,-8.38747 6.64223,-15.53752 12.79316,-18.10755 2.44645,-1.02218 8.27299,-1.85852 12.94787,-1.85852 11.78749,0 19.01862,3.90759 23.55314,12.72776 l 3.36606,6.54735 -0.05,78.02911 c -0.0493,76.96432 -0.092,78.19853 -3.13008,90.4433 -4.31235,17.3808 -10.59312,29.31531 -19.69888,37.43115 -8.90487,7.93677 -23.80112,15.68601 -33.63638,17.49809 -8.43037,1.55326 -124.5182,1.52487 -133.48468,-0.0327 z m 230.34046,-133.64414 0.34046,-119.66666 -7.00712,-0.21126 c -9.7758,-0.29473 -12.06862,0.0353 -13.27255,1.91094 -0.96843,1.50866 -0.99968,126.02485 -0.0513,204.69116 l 0.40653,33.72417 9.6218,-0.39084 L 634.00001,394 Z m 30.99287,136.30748 c -13.62384,-2.4253 -20.53864,-10.87645 -20.3274,-24.84376 0.1304,-8.62185 2.74636,-15.57172 6.38713,-16.96881 C 652.58018,368.37271 661.62965,368 671.503,368 c 17.2819,0 18.07364,0.12213 21.22428,3.27273 2.34544,2.34543 3.27273,4.73248 3.27273,8.42466 0,11.08844 -6.33479,24.5571 -13.30443,28.28714 -4.15606,2.22426 -12.56357,3.51054 -17.36224,2.65628 z m 167.25711,-0.72446 c -8.22793,-2.08916 -14.34128,-8.51362 -17.17209,-18.046 -3.09356,-10.41718 -2.73259,-16.67732 1.18772,-20.59762 3.15064,-3.15065 3.94237,-3.27273 21.22428,-3.27273 9.87334,0 18.92281,0.37271 20.10992,0.82824 5.57982,2.14119 8.72668,20.90399 4.7808,28.50509 -5.62214,10.83015 -17.4993,15.79023 -30.13063,12.58302 z m 588.74295,0.72446 c -13.6239,-2.4253 -20.5387,-10.87645 -20.3274,-24.84376 0.1307,-8.62185 2.7463,-15.57172 6.3871,-16.96881 1.1871,-0.45553 10.2365,-0.82824 20.1099,-0.82824 17.282,0 18.0737,0.12213 21.2244,3.27273 2.3453,2.34543 3.2726,4.73248 3.2726,8.42466 0,11.08844 -6.3348,24.5571 -13.3044,28.28714 -4.1561,2.22426 -12.5636,3.51054 -17.3622,2.65628 z m 167.257,-0.72446 c -8.2278,-2.08916 -14.3412,-8.51362 -17.172,-18.046 -3.0936,-10.41718 -2.7326,-16.67732 1.1876,-20.59762 3.1507,-3.15065 3.9424,-3.27273 21.2244,-3.27273 9.8734,0 18.9228,0.37271 20.1099,0.82824 5.5799,2.14119 8.7267,20.90399 4.7808,28.50509 -5.6221,10.83015 -17.4993,15.79023 -30.1307,12.58302 z m 147.0628,0.0652 c -21.4238,-4.06303 -39.4417,-12.18071 -52.1228,-23.48316 -6.3465,-5.65655 -7.5304,-7.42119 -7.5304,-11.22479 0,-3.09737 0.8091,-4.94608 2.5791,-5.89336 1.6927,-0.90588 29.1308,-1.38024 79.8367,-1.38024 83.8324,0 81.5942,-0.20059 79.7501,7.14729 -0.4393,1.75006 -4.7137,6.84434 -9.4989,11.32062 -10.1087,9.45612 -25.4666,17.47397 -41.1578,21.48712 -14.147,3.61818 -38.4544,4.56812 -51.856,2.02652 z M 2068,410.75169 c -4.6946,-0.94728 -10.8945,-3.91612 -14.7393,-7.05798 -3.4412,-2.81212 -13.2815,-15.84068 -16.0232,-21.2149 -3.2471,-6.36478 -3.2299,-8.48645 0.096,-11.81214 2.4805,-2.48051 4.4444,-2.66667 28.1317,-2.66667 h 25.4651 l 3.784,4.05081 c 2.3341,2.49868 4.3972,6.79079 5.3843,11.20164 1.4638,6.54083 1.3456,7.67695 -1.3855,13.31876 -3.6228,7.4835 -9.4288,12.1491 -17.4063,13.98726 -6.617,1.52468 -6.702,1.52592 -13.3066,0.19322 z m 136.9866,-0.77014 c -21.4239,-4.06303 -39.4418,-12.18071 -52.1228,-23.48316 -6.3466,-5.65655 -7.5304,-7.42119 -7.5304,-11.22479 0,-3.09737 0.809,-4.94608 2.579,-5.89336 1.6927,-0.90588 29.1308,-1.38024 79.8367,-1.38024 83.8324,0 81.5943,-0.20059 79.7501,7.14729 -0.4393,1.75006 -4.7137,6.84434 -9.4989,11.32062 -10.1087,9.45612 -25.4665,17.47397 -41.1577,21.48712 -14.1471,3.61818 -38.4544,4.56812 -51.856,2.02652 z m -1289.65326,0.0298 c -0.73333,-0.24463 -2.93709,-0.79708 -4.89724,-1.22768 -9.76692,-2.14556 -17.02624,-13.6752 -17.07348,-27.11701 C 893.31636,368.51372 894.25641,368 918.37,368 c 25.14988,0 25.64188,0.26411 25.60073,13.74227 -0.0315,10.31992 -2.73789,18.31084 -7.69414,22.71784 -4.84086,4.30438 -15.89639,7.2348 -20.94325,5.55125 z m 82.66667,-2.22035 c -11.82465,-6.11438 -19.17697,-16.6113 -20.29856,-28.98028 -0.67242,-7.41566 -0.51101,-7.98896 2.87388,-10.20682 3.25483,-2.13264 6.12808,-2.26536 31.08487,-1.43592 16.5492,0.55001 28.197,1.49353 29.2525,2.36956 0.9926,0.82378 1.754,4.16493 1.754,7.69725 0,12.71484 -11.9193,29.08536 -23.2552,31.93977 -8.6413,2.1759 -15.3685,1.7412 -21.41149,-1.38356 z m 93.57839,1.01015 c -10.8182,-3.99909 -15.5036,-12.15275 -15.5491,-27.05889 C 1075.9881,368.26411 1076.4801,368 1101.63,368 c 24.0008,0 25.0367,0.55343 25.0367,13.37616 0,12.18057 -4.8332,21.52157 -13.4582,26.01028 -5.4918,2.85813 -15.8863,3.53799 -21.6301,1.41472 z m 99.7549,1.2102 c -0.7333,-0.24463 -2.937,-0.79708 -4.8972,-1.22768 -9.7669,-2.14556 -17.0262,-13.6752 -17.0735,-27.11701 C 1169.3164,368.51372 1170.2564,368 1194.37,368 c 25.1499,0 25.6419,0.26411 25.6007,13.74227 -0.031,10.31992 -2.7379,18.31084 -7.6941,22.71784 -4.8409,4.30438 -15.8964,7.2348 -20.9433,5.55125 z m 144.2451,-1.2102 c -10.8182,-3.99909 -15.5036,-12.15275 -15.5491,-27.05889 C 1319.9881,368.26411 1320.4801,368 1345.63,368 c 24.0008,0 25.0367,0.55343 25.0367,13.37616 0,12.18057 -4.8332,21.52157 -13.4581,26.01028 -5.4919,2.85813 -15.8864,3.53799 -21.6302,1.41472 z m 583.755,1.2102 c -0.7334,-0.24463 -2.9371,-0.79708 -4.8972,-1.22768 -9.767,-2.14556 -17.0263,-13.6752 -17.0735,-27.11701 C 1897.316,368.51372 1898.2564,368 1922.37,368 c 25.1499,0 25.6419,0.26411 25.6007,13.74227 -0.032,10.31992 -2.7379,18.31084 -7.6941,22.71784 -4.8408,4.30438 -15.8964,7.2348 -20.9432,5.55125 z M 667.0358,346.70304 c -5.23487,-3.19183 -6.58198,-7.81556 -4.41598,-15.15716 0.89992,-3.05024 11.98768,-31.34588 24.63948,-62.87921 12.6518,-31.53334 25.64419,-64.22604 28.87199,-72.65047 6.3394,-16.54559 11.85117,-23.8532 21.40356,-28.37727 7.11887,-3.37154 27.45912,-3.22392 34.18495,0.2481 6.24706,3.22486 13.8766,11.20126 17.32528,18.11297 10.16369,20.3696 57.9414,141.676 58.661,148.9388 0.55684,5.62005 0.19922,6.69437 -3.43975,10.33333 l -4.06119,4.0612 -84.4359,-0.005 c -81.58668,-0.005 -84.58091,-0.0933 -88.73344,-2.62531 z m 116.96421,-37.28176 c 0,-0.68496 -6.34992,-20.56361 -14.11095,-44.17477 -11.76204,-35.7834 -14.40294,-42.62287 -15.86516,-41.08795 -1.62868,1.70967 -30.02389,82.28387 -30.02389,85.19576 0,0.82203 11.20875,1.31235 30,1.31235 17.69877,0 30,-0.51066 30,-1.24539 z m 115.08716,38.56941 c -1.60205,-0.64548 -3.571,-2.4034 -4.37543,-3.90648 -1.02493,-1.9151 -1.35024,-25.37749 -1.08716,-78.40854 0.41552,-83.75714 -0.14878,-78.33746 9.27412,-89.06956 6.92671,-7.88908 13.26111,-10.3676 28.15818,-11.0177 16.20036,-0.70698 23.04708,1.07308 30.9776,8.05382 7.153,6.29632 11.40996,13.28253 15.24833,25.02444 4.45666,13.63325 15.78296,56.4251 23.93199,90.41736 4.0985,17.09622 8.0519,31.08404 8.7852,31.08404 0.7333,0 4.6867,-13.98782 8.7852,-31.08404 8.1491,-33.99226 19.4754,-76.78411 23.932,-90.41736 3.8384,-11.74191 8.0953,-18.72812 15.2483,-25.02444 7.9306,-6.98074 14.7773,-8.7608 30.9776,-8.05382 14.8971,0.6501 21.2315,3.12862 28.1582,11.0177 9.4631,10.77788 8.8987,5.04757 8.8987,90.34602 0,72.0486 -0.1515,77.10388 -2.3771,79.33334 -1.9991,2.0025 -5.2572,2.45109 -20.4863,2.82068 -20.0806,0.48733 -23.6435,0.005 -25.3229,-3.42798 -0.6308,-1.28966 -1.447,-27.84484 -1.8137,-59.0115 L 1075.3333,230 l -9.1423,39.33333 c -5.0283,21.63334 -10.9245,46.96888 -13.1027,56.30123 -3.4542,14.79907 -4.4716,17.39807 -7.96,20.33333 l -3.9996,3.36544 H 1010 978.87128 l -3.9996,-3.36544 c -3.48837,-2.93526 -4.5058,-5.53426 -7.95996,-20.33333 -2.1782,-9.33235 -8.07443,-34.66789 -13.10271,-56.30123 L 944.66668,230 l -0.70255,57.33333 c -0.3864,31.53334 -0.8364,57.44048 -1,57.57143 -0.1636,0.13093 -1.2403,1.18096 -2.39269,2.33333 -1.70967,1.70967 -5.45144,2.0797 -20.33334,2.01072 -10.03094,-0.0465 -19.54886,-0.61264 -21.15093,-1.25812 z m 273.57513,-1.87389 -3.4076,-3.40757 0.3727,-81.89846 0.3726,-81.89845 4.0948,-5.12283 c 5.7174,-7.15281 11.5302,-9.78493 21.6147,-9.78742 12.8492,-0.003 20.5108,4.39246 24.3985,13.99793 1.0696,2.6428 1.8915,17.34581 2.4221,43.33333 l 0.8032,39.33334 H 1270.6667 1318 l 0.7553,-39.33334 c 0.8091,-42.13902 1.3158,-45.37604 8.0729,-51.57785 4.6149,-4.23571 9.615,-5.75575 18.9253,-5.75341 9.9456,0.003 15.7929,2.66621 21.4851,9.78742 l 4.0948,5.12283 0.3726,81.89845 0.3727,81.89846 -3.4076,3.40757 c -3.3944,3.39445 -3.4843,3.40592 -23.3393,2.97872 -26.8416,-0.57752 -25.7687,0.50063 -26.6651,-26.79549 L 1318,302 h -47.3333 -47.3334 l -0.6666,20.30003 c -0.8964,27.29612 0.1765,26.21797 -26.6651,26.79549 -19.855,0.4272 -19.9449,0.41573 -23.3393,-2.97872 z m 250.3735,0.58624 c -5.2348,-3.19183 -6.5819,-7.81556 -4.4159,-15.15716 0.8999,-3.05024 11.9876,-31.34588 24.6395,-62.87921 12.6517,-31.53334 25.6441,-64.22604 28.872,-72.65047 6.3393,-16.54559 11.851,-23.8532 21.4034,-28.37727 7.119,-3.37154 27.4592,-3.22392 34.185,0.2481 6.247,3.22486 13.8766,11.20126 17.3253,18.11297 10.1637,20.3696 57.9413,141.676 58.6611,148.9388 0.5568,5.62005 0.1992,6.69437 -3.4399,10.33333 l -4.0612,4.0612 -84.4359,-0.005 c -81.5866,-0.005 -84.5809,-0.0933 -88.7334,-2.62531 z M 1540,309.42128 c 0,-0.68496 -6.3498,-20.56361 -14.1109,-44.17477 -11.762,-35.7834 -14.4029,-42.62287 -15.8652,-41.08795 -1.6287,1.70967 -30.0239,82.28387 -30.0239,85.19576 0,0.82203 11.2088,1.31235 30,1.31235 17.6988,0 30,-0.51066 30,-1.24539 z m 118.4354,37.86951 C 1650.4179,342.937 1644.4999,323.06368 1643.1615,296 c -2.1833,-44.15412 8.7693,-75.312 35.7433,-101.68128 8.6175,-8.42427 13.1114,-11.5802 24.1736,-16.97651 19.8656,-9.69076 30.7188,-12.1198 54.255,-12.14274 23.592,-0.0229 34.2253,2.37621 54.6666,12.33444 11.8995,5.79692 15.6172,8.44414 24.7784,17.64317 19.5904,19.67144 25.152,37.07628 16.8883,52.85109 -4.5723,8.72814 -10.0815,11.97378 -20.3125,11.96684 -11.9455,-0.008 -16.9098,-4.23336 -27.3878,-23.31053 -6.7301,-12.25345 -15.2244,-21.14161 -24.4645,-25.5988 -6.3444,-3.06037 -9.6619,-3.69925 -21.5019,-4.14087 -19.4174,-0.72425 -26.4894,1.95234 -39.4438,14.92868 -14.0375,14.06124 -20.0428,27.98808 -23.3082,54.05356 -2.3173,18.49931 1.553,44.53306 8.7248,58.68586 3.714,7.32936 4.168,10.7129 1.7606,13.12042 -2.478,2.47796 -44.6166,2.09968 -49.298,-0.44254 z m 149.1342,-0.36312 c -3.5318,-3.90258 -2.6793,-8.76531 3.7972,-21.66091 7.319,-14.57296 10.8366,-17.25541 22.6332,-17.25971 10.7363,-0.004 16.4762,2.99262 20.4187,10.65962 3.9541,7.6894 3.6488,20.59338 -0.6228,26.31897 l -2.7461,3.68103 -20.622,0.36598 c -18.6579,0.33114 -20.835,0.13067 -22.8582,-2.10498 z m 89.2636,-0.0771 c -2.0636,-2.28019 -2.2164,-9.0502 -1.8733,-83 0.3728,-80.35959 0.3793,-80.52819 3.3433,-86.07169 3.827,-7.15743 9.0659,-10.80843 17.9224,-12.48991 10.1112,-1.91971 17.8036,-0.43392 23.4583,4.53097 8.2047,7.20376 8.3161,7.98438 8.3161,58.24827 0,25.018 0.5075,45.28728 1.1276,45.04283 0.6203,-0.24444 22.0703,-22.91882 47.6667,-50.3875 25.5965,-27.46869 49.1409,-51.76869 52.3211,-54 4.9944,-3.50441 6.909,-4.0442 14.0584,-3.9634 9.0592,0.1024 17.5066,3.75315 20.768,8.9752 0.9849,1.57719 2.0782,6.886 2.4297,11.79734 0.5363,7.49617 0.1828,9.6678 -2.2027,13.52742 -1.5628,2.52875 -16.0401,17.33943 -32.1718,32.91263 -16.1316,15.57324 -29.3303,29.08589 -29.3303,30.02816 0,0.94227 9.0987,14.82753 20.2193,30.85615 27.4804,39.60885 30.4474,44.33253 30.4474,48.47633 0,1.97265 -1.1399,4.61817 -2.533,5.87893 -2.2368,2.02423 -5.3394,2.24331 -26.5305,1.87332 -21.7597,-0.37992 -24.2708,-0.6667 -26.9291,-3.07554 -1.6125,-1.46112 -9.4706,-12.37376 -17.4626,-24.25032 -7.9919,-11.87656 -15.145,-21.97332 -15.8956,-22.43726 -0.7507,-0.46392 -8.8539,6.49927 -18.0071,15.47376 l -16.6421,16.31727 v 7.03428 c 0,10.71131 -1.1908,11.18549 -28.09,11.18549 -19.9226,0 -22.3906,-0.25101 -24.4102,-2.48269 z m 236.6024,-0.96916 c -5.1636,-4.34496 -5.5776,-11.27865 -1.0757,-18.01764 4.6951,-7.02793 10.5663,-9.41279 21.9337,-8.90919 9.1692,0.40622 9.8898,0.67891 15.1552,5.73592 6.074,5.83356 9.2179,11.859 9.2179,17.6666 0,6.46296 -1.6305,6.97616 -22.1644,6.97616 -18.4569,0 -19.0741,-0.0924 -23.0667,-3.45185 z m 141.5202,1.37092 c -3.54,-2.47947 -6.5042,-7.91429 -9.1191,-16.71985 -3.6641,-12.33836 -20.934,-20.89432 -57.7079,-28.59003 -40.0365,-8.37852 -59.0373,-19.90717 -70.2722,-42.63747 -7.9903,-16.1657 -7.5527,-37.39226 1.1356,-55.07894 8.0748,-16.43823 29.0784,-31.69147 51.0446,-37.06984 13.2074,-3.23378 50.9316,-3.2479 63.9632,-0.024 21.2814,5.2649 42.7447,20.07864 51.0232,35.21565 13.4311,24.55792 0.7115,49.526 -22.9672,45.08384 -6.9941,-1.31211 -13.3065,-7.62899 -20.4238,-20.43831 -10.0326,-18.05612 -19.9202,-24.32674 -38.3588,-24.32674 -18.0518,0 -29.5256,4.64241 -36.3716,14.71621 -2.6206,3.85604 -3.0492,5.88333 -2.6003,12.29861 1.0244,14.63932 10.2984,19.91212 55.6985,31.66778 13.5667,3.51286 27.8156,7.63718 31.6643,9.16516 20.4441,8.11648 33.3849,17.85066 41.3563,31.10838 8.7861,14.61287 11.0806,42.09459 3.896,46.66298 -0.8708,0.55369 -9.9998,1.0159 -20.2866,1.02713 -14.815,0.0161 -19.3209,-0.4122 -21.6742,-2.06052 z"
       id="path32"
       inkscape:connector-curvature="0" />
    <path
       style="fill:#515151;stroke-width:1.33333337"
       d="m 412.00001,434.63876 c -15.69058,-0.7778 -21.14789,-1.60185 -28.96371,-4.37347 -29.39178,-10.42277 -44.45438,-24.49826 -54.87254,-51.27656 L 324.66667,370 324.28035,278.66667 C 323.93366,196.70311 324.1248,186.37584 326.14362,178 c 7.37213,-30.58619 24.33508,-48.90412 55.15974,-59.56589 14.08623,-4.87221 18.75983,-5.21028 70.58074,-5.10548 68.03395,0.13759 88.48683,1.28782 101.08232,5.6847 17.1654,5.99216 43.51808,26.47884 48.70541,37.86378 2.02026,4.43397 8.99484,4.47757 8.99484,0.0563 0,-5.1123 2.48766,-6.26666 13.50476,-6.26666 8.00062,0 10.8218,0.51704 12.6171,2.31232 2.17282,2.17284 2.26038,9.54265 1.45152,122.16906 -0.62195,86.59927 -1.28244,120.36478 -2.38035,121.68768 -1.05197,1.2675 -4.73709,1.8309 -11.97604,1.8309 -11.15132,0 -13.21699,-1.23662 -13.21699,-7.91235 0,-4.09124 -7.07149,-3.85272 -8.96468,0.30237 -4.27636,9.38559 -23.70998,25.95688 -40.03529,34.13862 -15.83244,7.93472 -16.5116,7.99672 -109.00003,9.95105 -11.73333,0.24793 -30.03333,0.0195 -40.66666,-0.5076 z m 98,-3.91809 c 15.4,-0.65192 30.94698,-1.85504 34.54885,-2.6736 16.75181,-3.80702 40.38137,-19.70208 51.48288,-34.63136 C 601.86301,385.57385 603.67129,384 606.85001,384 h 3.81666 V 274 164 h -3.83845 c -3.20724,0 -5.03552,-1.59047 -11.11795,-9.67168 -10.95445,-14.55431 -29.71772,-27.95563 -46.3254,-33.08707 -11.08146,-3.42395 -66.04528,-5.74692 -117.38486,-4.96111 L 396.66667,116.82096 384,121.14528 c -24.0812,8.22116 -37.48373,18.81168 -46.942,37.09301 -9.88978,19.11542 -9.72466,17.12716 -9.72466,117.09504 0,99.79983 -0.38646,95.22584 9.66801,114.42838 9.22028,17.60932 21.60029,27.84132 43.24276,35.73984 6.01635,2.19569 14.27265,4.48292 18.34735,5.08272 10.16997,1.49704 77.32487,1.57926 111.40855,0.1364 z m 124.34042,-156.22998 0.34044,-119.50929 -3.0071,-0.80583 c -5.12362,-1.373 -15.05942,-0.92325 -16.74043,0.75776 -1.21879,1.21879 -1.6,28.0158 -1.6,112.47108 0,60.9791 0.38804,114.5836 0.86231,119.12114 l 0.86229,8.25005 9.47104,-0.3878 9.47103,-0.3878 z m 34.10898,72.71776 c -4.92554,-2.44774 -7.79346,-8.328 -6.52556,-13.3797 0.49092,-1.95599 12.17784,-31.81763 25.97093,-66.35922 13.7931,-34.54157 26.67844,-67.06542 28.63411,-72.27521 5.34947,-14.25072 10.23755,-21.09997 18.39827,-25.77989 6.45237,-3.70024 8.12557,-4.0546 19.07285,-4.0393 22.02255,0.0308 29.09984,6.26043 42.09237,37.051 21.1208,50.0535 51.01143,126.73798 51.58039,132.32959 0.51967,5.10717 0.0772,6.71971 -2.74399,10 l -3.36356,3.91095 -84.44926,0.31877 c -74.52803,0.28133 -84.94474,0.0725 -88.66655,-1.77699 z m 115.5506,-37.88017 c 0,-0.73612 -6.35337,-20.61132 -14.1186,-44.16712 -11.74323,-35.62304 -14.41275,-42.5202 -15.86695,-40.99495 -0.9616,1.00859 -4.57362,9.93379 -8.02674,19.83379 -9.78339,28.04876 -21.98771,64.47403 -21.98771,65.62501 0,0.57291 13.5,1.04166 30,1.04166 19.18667,0 30,-0.48242 30,-1.33839 z m 114.98061,38.623 c -1.66066,-0.66717 -3.61066,-2.7682 -4.33333,-4.66896 -0.80443,-2.11579 -1.31395,-31.50871 -1.31395,-75.79827 0,-80.43173 -0.0856,-79.56432 8.8823,-90.04125 7.54116,-8.81015 13.50516,-11.20561 29.52245,-11.85781 10.84354,-0.44154 15.01675,-0.0711 19.80684,1.75829 13.23652,5.05507 20.75299,15.49931 27.82031,38.65672 C 984.88185,224.07619 1008,315.25476 1008,318.93619 c 0,1.31842 0.9,2.39714 2,2.39714 1.1,0 2,-1.07872 2,-2.39714 0,-3.68143 23.1182,-94.86 28.6348,-112.93619 7.0673,-23.15741 14.5838,-33.60165 27.8203,-38.65672 4.7901,-1.82936 8.9633,-2.19983 19.8068,-1.75829 16.0307,0.65274 21.9806,3.04677 29.55,11.88997 9.0547,10.57836 8.9628,9.58741 8.5545,92.25501 -0.3413,69.10228 -0.529,74.33904 -2.7436,76.55647 -2.0232,2.02575 -5.3061,2.44351 -22.0438,2.80515 -18.7701,0.40556 -19.7861,0.29288 -22.2895,-2.47202 -2.4986,-2.7597 -2.6544,-5.59032 -3.2895,-59.75825 L 1075.3333,230 l -9.6534,41.33333 c -5.3093,22.73334 -10.9627,47.19455 -12.563,54.35827 -3.2644,14.61309 -6.1828,20.43245 -11.2043,22.34164 -1.8807,0.71505 -16.2414,1.30009 -31.9126,1.30009 -15.67117,0 -30.03184,-0.58504 -31.91257,-1.30009 -5.02152,-1.90919 -7.93994,-7.72855 -11.20434,-22.34164 -1.60028,-7.16372 -7.25364,-31.62493 -12.56301,-54.35827 L 944.66668,230 l -0.66667,56.86132 c -0.62753,53.52339 -0.81577,57.02601 -3.20665,59.66667 -2.35263,2.59841 -3.87705,2.7991 -20.66667,2.72082 -9.96967,-0.0465 -19.48541,-0.63037 -21.14607,-1.29753 z m 274.28078,-1.07425 -3.2614,-2.64035 -0.4029,-79.11833 c -0.274,-53.81003 0.057,-80.69852 1.0355,-84.05826 1.8583,-6.38178 7.4218,-12.94033 12.929,-15.24138 6.8576,-2.86531 18.8894,-2.31488 25.8226,1.18129 4.542,2.29041 6.7174,4.55031 9.1971,9.55435 3.1538,6.36424 3.2698,7.67917 4,45.33333 l 0.752,38.77899 H 1270.6667 1318 L 1318.7684,222 c 0.6976,-35.10063 1.0202,-39.23135 3.4986,-44.78953 3.6599,-8.20783 9.2082,-11.96152 18.9914,-12.84863 10.7344,-0.97336 16.6648,0.40019 22.017,5.09939 8.998,7.90036 8.8502,6.2365 8.433,94.99044 l -0.375,79.785 -3.2614,2.64036 c -2.9818,2.41405 -4.9502,2.6039 -22.9666,2.215 -26.5783,-0.57372 -25.5431,0.47542 -26.4387,-26.79434 L 1318,302 h -47.3333 -47.3334 l -0.6666,20.30003 c -0.8955,27.26864 0.141,26.21825 -26.4386,26.792 -18.0164,0.3889 -19.9849,0.19905 -22.9667,-2.215 z m 251.188,0.33142 c -4.9255,-2.44774 -7.7934,-8.328 -6.5255,-13.3797 0.4909,-1.95599 12.1779,-31.81763 25.9709,-66.35922 13.7931,-34.54157 26.6784,-67.06542 28.6342,-72.27521 5.3494,-14.25072 10.2374,-21.09997 18.3982,-25.77989 6.4523,-3.70024 8.1255,-4.0546 19.0728,-4.0393 22.0226,0.0308 29.0999,6.26043 42.0924,37.051 21.1208,50.0535 51.0115,126.73798 51.5804,132.32959 0.5196,5.10717 0.077,6.71971 -2.744,10 l -3.3636,3.91095 -84.4492,0.31877 c -74.5281,0.28133 -84.9448,0.0725 -88.6666,-1.77699 z M 1540,309.32828 c 0,-0.73612 -6.3533,-20.61132 -14.1186,-44.16712 -11.7432,-35.62304 -14.4127,-42.5202 -15.867,-40.99495 -0.9616,1.00859 -4.5736,9.93379 -8.0266,19.83379 -9.7835,28.04876 -21.9878,64.47403 -21.9878,65.62501 0,0.57291 13.5,1.04166 30,1.04166 19.1867,0 30,-0.48242 30,-1.33839 z m 116.8383,35.97685 c -10.9321,-9.59852 -16.8129,-45.7713 -12.7903,-78.67344 2.961,-24.21848 9.4796,-41.06808 22.6079,-58.43753 11.0037,-14.55851 22.9695,-24.42479 38.596,-31.82407 20.4055,-9.66214 29.7764,-11.45266 55.9619,-10.69272 25.3678,0.73622 29.7117,1.76431 50.7862,12.02012 11.8946,5.78838 15.6071,8.42898 24.6856,17.55776 22.4436,22.56784 26.958,44.89524 12.0074,59.38594 -3.798,3.68113 -5.877,4.57094 -11.834,5.06494 -14.2055,1.17803 -18.9668,-2.38744 -30.8464,-23.09936 -8.0034,-13.95356 -14.386,-20.62125 -24.461,-25.55346 -6.4898,-3.17706 -9.5201,-3.76251 -21.5516,-4.16378 -19.428,-0.64794 -26.5166,2.04332 -39.4668,14.98396 -16.8914,16.8791 -23.7402,36.68872 -23.5537,68.12651 0.1093,18.42764 2.7561,31.12621 9.8084,47.05876 5.0077,11.31361 4.5844,11.53867 -22.5164,11.97237 l -22.7744,0.36447 z m 150.7313,1.62254 c -3.5846,-3.96096 -2.5617,-9.45407 4.1456,-22.261 7.3038,-13.94559 11.0474,-16.66124 22.9723,-16.6646 9.8273,-0.003 15.8083,3.25973 19.7312,10.76325 3.9575,7.56944 3.6505,20.49233 -0.6228,26.22032 l -2.7461,3.68103 -20.622,0.36598 c -18.6579,0.33114 -20.835,0.13067 -22.8582,-2.10498 z m 89.0779,-0.76982 c -1.8379,-2.805 -2.0359,-12.48821 -1.6973,-83 0.3822,-79.63388 0.3902,-79.83778 3.353,-85.3789 3.8179,-7.14063 9.0643,-10.80848 17.8407,-12.47291 12.1087,-2.29635 21.1324,0.63559 27.4539,8.92009 l 3.7356,4.89562 0.3822,47.2006 c 0.2138,26.39249 0.899,47.01185 1.5544,46.77245 0.6447,-0.23547 22.6726,-23.48496 48.9511,-51.66553 31.5044,-33.78488 49.5956,-52.1784 53.1123,-54 10.1646,-5.26516 25.6016,-2.30444 31.7272,6.08508 1.4113,1.93289 2.8738,6.24541 3.2501,9.58337 1.4753,13.08912 1.5163,13.03017 -32.376,46.49749 -17.1975,16.98171 -31.268,31.7101 -31.268,32.72974 0,1.01964 10.7103,17.26365 23.8005,36.0978 26.5511,38.20153 26.8662,38.71112 26.8662,43.45886 0,6.71826 -3.9378,7.67158 -29.7628,7.20552 -20.0466,-0.36178 -23.6619,-0.75002 -25.9036,-2.78174 -1.433,-1.29871 -9.4442,-12.5236 -17.8028,-24.94423 -8.3587,-12.42061 -15.744,-22.60804 -16.4119,-22.63872 -0.668,-0.0307 -8.618,7.26349 -17.6667,16.20925 l -16.4522,16.26503 v 6.99269 c 0,10.67438 -1.191,11.14392 -28.266,11.14392 -22.0611,0 -22.3651,-0.0396 -24.4199,-3.17548 z m 236.7881,-0.27637 c -3.2081,-2.69947 -4.1012,-4.51587 -4.0973,-8.33333 0.013,-10.94132 9.8269,-18.88148 23.3415,-18.88148 4.0989,0 9.0729,0.84644 11.0532,1.88096 11.2709,5.88825 19.2964,23.69038 12.3546,27.40546 -1.4184,0.75914 -10.6724,1.38024 -20.5642,1.38024 -17.4039,0 -18.118,-0.1116 -22.0878,-3.45185 z m 140.0092,-0.23151 c -2.0454,-2.04554 -5.0156,-7.68677 -6.6794,-12.68684 -3.2595,-9.79469 -6.0552,-12.67225 -18.0987,-18.62869 -9.5624,-4.72936 -21.6757,-8.44476 -40.1001,-12.29951 -30.907,-6.46638 -46.4516,-13.49557 -59.197,-26.76857 -18.4486,-19.21227 -22.423,-44.6394 -10.8448,-69.38156 7.2596,-15.51331 24.1079,-29.67437 42.5764,-35.78576 18.577,-6.14725 50.6459,-7.59481 71.4191,-3.2238 15.7963,3.3238 37.9023,16.10356 46.7612,27.03321 8.2353,10.16044 10.6536,16.38776 10.6876,27.52226 0.027,8.84706 -0.4297,10.79342 -3.6891,15.71872 -4.8041,7.25948 -10.7496,10.83928 -18.0129,10.84558 -11.1509,0.009 -17.9711,-5.37997 -26.4233,-20.88152 -10.749,-19.71344 -20.9928,-25.36166 -43.7643,-24.13057 -13.2461,0.71612 -20.6365,3.15467 -26.5319,8.75448 -5.3921,5.12181 -7.7698,10.34687 -7.7698,17.07409 0,14.84759 11.2336,21.32058 56.6996,32.67151 42.6414,10.64576 61.6498,21.47059 73.6453,41.93937 6.9787,11.90828 9.282,37.27215 3.9225,43.19434 -2.257,2.49405 -4.0338,2.71662 -21.6877,2.71662 -19.2207,0 -19.2309,-10e-4 -22.9127,-3.68336 z"
       id="path30"
       inkscape:connector-curvature="0" />
    <path
       style="fill:#2c2c2c;stroke-width:1.33333337"
       d="m 397.8496,433.33491 c -17.16342,-2.51539 -38.8312,-12.90787 -49.94117,-23.9532 -8.20291,-8.15519 -16.07868,-21.20214 -20.41303,-33.8161 C 324.7203,367.4894 324.66667,365.60184 324.66667,276 V 184.66667 L 327.74696,174 c 8.36684,-28.97332 26.91415,-46.87727 58.91971,-56.87595 9.93024,-3.10226 10.43716,-3.12284 72.66667,-2.95024 85.54853,0.23726 91.94256,1.15879 114.72933,16.53514 11.34376,7.6547 19.8011,15.70565 26.07034,24.81769 2.1973,3.19368 4.51721,5.80669 5.15533,5.80669 2.94055,0 5.37833,-1.83453 5.37833,-4.04741 0,-4.56817 3.721,-6.61925 12.00844,-6.61925 4.29988,0 9.35703,0.58514 11.2381,1.30033 l 3.42013,1.30033 -0.0204,120.36634 c -0.0107,66.20148 -0.51263,121.14218 -1.11421,122.09046 -0.78731,1.24103 -4.2374,1.61463 -12.31291,1.33334 -11.19271,-0.38988 -11.22015,-0.39962 -11.64799,-4.12958 -0.28312,-2.46824 -1.58237,-4.26434 -3.82329,-5.28538 -2.92644,-1.33338 -3.69456,-1.1603 -5.57115,1.25532 -1.19718,1.54106 -4.5767,5.9154 -7.51004,9.72074 -9.3989,12.19299 -30.98897,26.46479 -47.33333,31.28902 -4.94956,1.46092 -16.86844,2.57881 -36.66667,3.43902 -33.78374,1.46788 -103.43704,1.4607 -113.48373,-0.012 z m 125.48374,-2.59214 c 16.22628,-0.9491 21.68933,-1.80678 28.95313,-4.54557 17.71635,-6.67988 39.4879,-23.57216 47.08224,-36.53053 2.04758,-3.49383 3.38798,-4.33334 6.91878,-4.33334 h 4.37918 V 274 162.66667 l -4.33333,-0.0359 c -3.61772,-0.03 -4.8838,-0.93308 -7.66667,-5.46889 -7.97662,-13.00119 -32.92524,-31.77056 -48.66666,-36.61295 -9.75916,-3.00213 -41.35575,-4.44087 -98.78672,-4.49823 -57.88146,-0.0578 -62.09931,0.49617 -83.15831,10.92221 -19.77631,9.79101 -32.79912,26.53687 -38.75898,49.8397 -2.48637,9.72164 -2.62933,15.06117 -2.62933,98.20819 0,98.64981 -0.25185,95.68293 9.75817,114.95554 7.45554,14.35436 17.16798,23.88974 31.63111,31.05443 21.00169,10.40373 24.18311,10.81832 83.27739,10.85209 28.6,0.0163 61,-0.4967 72,-1.14012 z M 634.8087,343.33333 c 1.24536,-80.07746 1.27552,-186.46954 0.0535,-188.3961 -0.77763,-1.22588 -3.97452,-1.61411 -10.97958,-1.33334 L 614.00001,154 613.6595,273.91688 c -0.26987,95.03904 0.007,120.14376 1.33333,121.01051 0.92062,0.60149 5.57384,0.93889 10.34051,0.74978 l 8.66667,-0.34384 z m 62.52464,4.8048 c -15.03333,-0.44264 -28.29842,-1.4048 -29.478,-2.13813 -1.17956,-0.73333 -3.06004,-3.10493 -4.17884,-5.27023 -2.08071,-4.02692 -1.47935,-7.58152 2.9995,-17.72977 0.7282,-1.65 1.92401,-4.5 2.65734,-6.33333 0.73334,-1.83334 1.93334,-4.83334 2.66667,-6.66667 0.73333,-1.83333 2.01361,-4.98333 2.84507,-7 0.83144,-2.01667 1.97165,-4.86667 2.53378,-6.33333 0.56214,-1.46667 2.28186,-5.51014 3.8216,-8.98547 1.53975,-3.47535 2.79955,-6.93348 2.79955,-7.68476 0,-0.75128 0.53,-2.40781 1.17777,-3.6812 1.08143,-2.12584 1.96924,-4.21949 5.36368,-12.64857 0.66446,-1.65 3.76008,-9.6 6.87915,-17.66667 3.11907,-8.06667 6.12084,-15.26667 6.67061,-16 0.54978,-0.73333 2.30144,-5.23333 3.8926,-10 1.59115,-4.76667 3.44572,-9.23667 4.12127,-9.93333 0.67553,-0.69667 1.23195,-2.19667 1.23647,-3.33334 0.004,-1.13666 0.81186,-3.60665 1.7941,-5.48886 0.98223,-1.88222 2.227,-5.18222 2.76615,-7.33334 1.96399,-7.83598 9.961,-18.93132 16.58051,-23.00433 10.745,-6.61147 31.09793,-6.31068 41.56218,0.61424 4.65422,3.08001 14.5994,16.66253 14.63436,19.98671 0.007,0.6374 1.48795,4.15892 3.29164,7.82558 1.8037,3.66667 3.29822,7.58316 3.32115,8.70332 0.0229,1.12018 0.83724,3.22018 1.80957,4.66667 0.97232,1.44651 3.13082,6.23001 4.79664,10.63001 1.66584,4.4 3.5703,9.35 4.23214,11 3.01701,7.52156 3.94708,9.86734 5.02212,12.66667 0.63365,1.65 2.39016,5.7 3.90334,9 4.0025,8.72876 10.94455,26.5202 10.94455,28.04924 0,0.72224 1.2598,4.15661 2.79955,7.63196 1.53974,3.47533 3.33974,7.6688 4,9.3188 0.66025,1.65 1.73928,4.35 2.39784,6 0.65856,1.65 2.25846,5.4 3.55534,8.33333 7.81143,17.6682 7.87278,29.41606 0.16438,31.4776 -5.06404,1.35434 -109.78643,2.32232 -143.58378,1.3272 z m 86.73918,-38.34397 c 0.87381,-0.87381 0.65385,-2.9212 -0.64879,-6.03884 -1.08395,-2.59424 -2.24043,-6.15047 -2.56996,-7.90273 -0.52748,-2.8048 -21.74067,-66.07895 -24.21235,-72.21995 -1.32113,-3.28243 -4.0532,-0.82279 -6.0803,5.47401 -0.86642,2.69135 -2.01392,5.49335 -2.55,6.22668 -0.53608,0.73334 -2.31139,5.83334 -3.94512,11.33334 -1.63374,5.5 -3.79706,11.8 -4.80739,14 -1.74036,3.78965 -15.31143,45.18916 -15.72875,47.98168 -0.10813,0.72325 2.20348,1.72628 5.13682,2.22894 7.9347,1.35972 53.8608,0.46191 55.40584,-1.08313 z m 125.26082,38.66468 c -11.52641,-1.76821 -11.6985,-1.84536 -13.4275,-6.01952 -2.51818,-6.0794 -2.47132,-143.4454 0.0515,-151.02293 3.65218,-10.96962 8.40163,-17.07859 16.47296,-21.18832 6.99498,-3.56167 8.83104,-3.89474 21.47042,-3.89474 13.17971,0 14.20431,0.2089 22.0716,4.5 6.774,3.69479 9.06956,5.89174 12.82892,12.27782 2.51825,4.27778 5.68673,11.17778 7.04105,15.33333 5.55318,17.03908 9.51514,30.48927 10.27704,34.88885 0.44451,2.56667 1.6575,7.06667 2.69555,10 1.03805,2.93334 3.0816,10.73334 4.54123,17.33334 1.45961,6.6 2.94494,12.9 3.30072,14 0.35578,1.1 3.09985,12.2 6.09787,24.66666 5.4048,22.47416 7.0935,27.0176 8.5913,23.1144 0.8107,-2.1128 8.8812,-34.68381 15.4079,-62.18344 2.141,-9.02129 4.415,-17.42129 5.0533,-18.66666 0.6383,-1.24536 1.5314,-4.6643 1.9847,-7.59763 0.4533,-2.93333 2.3491,-10.13333 4.213,-16 1.8638,-5.86667 4.5418,-14.32755 5.951,-18.80195 1.4093,-4.47441 4.6456,-11.67441 7.1919,-16 3.8146,-6.48017 6.082,-8.65692 12.8799,-12.36472 7.8673,-4.2911 8.8919,-4.5 22.0716,-4.5 12.6393,0 14.4754,0.33307 21.4704,3.89474 5.7538,2.92973 8.5257,5.38673 11.187,9.91638 7.1092,12.10006 7.0469,11.32892 7.0537,87.32915 0.01,79.26455 0.079,78.57532 -8.292,79.88967 -2.6685,0.41898 -6.8689,1.07345 -9.3344,1.45436 -2.4654,0.38089 -9.7798,0.27814 -16.2543,-0.22834 -8.9323,-0.69876 -12.0184,-1.4437 -12.7947,-3.08842 -0.5627,-1.19215 -1.6485,-27.96754 -2.4128,-59.50087 L 1075.3324,228.66667 1069.1225,254 c -3.4155,13.93333 -8.4077,35.23333 -11.0939,47.33333 -2.6861,12.1 -6.3858,26.86862 -8.2215,32.81914 -3.2655,10.58488 -3.4579,10.85881 -8.8877,12.6508 -3.9229,1.29468 -12.9873,1.83165 -30.9194,1.83165 -17.93211,0 -26.99653,-0.53697 -30.91945,-1.83165 -5.4298,-1.79199 -5.62224,-2.06592 -8.88766,-12.6508 -1.83568,-5.95052 -5.5354,-20.71914 -8.22154,-32.81914 -2.68615,-12.1 -7.67858,-33.4 -11.09428,-47.33333 l -6.21039,-25.33333 -0.82795,30 c -0.45537,16.5 -0.90537,41.82177 -1,56.2706 -0.10386,15.8483 -0.75254,27.54464 -1.63526,29.482 -1.2986,2.8501 -2.59624,3.30717 -11.53451,4.06273 -10.33639,0.87375 -14.51998,0.86897 -20.33562,-0.0232 z m 273.10786,-0.29505 c -4.8906,-0.45675 -9.3723,-1.31212 -9.9592,-1.90082 -1.9611,-1.96698 -3.2404,-62.37325 -2.3917,-112.92964 0.7716,-45.96376 1.055,-50.5061 3.5113,-56.26961 3.1231,-7.32828 5.845,-9.38399 15.4593,-11.67579 6.4018,-1.52601 7.9322,-1.40301 16.3934,1.31763 8.3404,2.68179 9.5494,3.51247 11.3738,7.81428 3.284,7.74357 4.24,17.45443 5.1989,52.81349 0.4972,18.33334 1.1945,33.63334 1.5496,34 0.3551,0.36667 21.5456,0.66667 47.0901,0.66667 25.5444,0 46.7121,-0.3 47.0392,-0.66667 0.3271,-0.36666 1.2035,-18.06666 1.9475,-39.33333 1.1743,-33.56531 1.7053,-39.54621 4.0248,-45.33333 2.5856,-6.45099 2.9678,-6.76828 11.8148,-9.80771 8.3408,-2.86555 9.7837,-2.9976 16.451,-1.50551 9.7975,2.19256 12.6255,4.2902 15.7878,11.71027 2.4562,5.76351 2.7397,10.30585 3.5113,56.26961 0.9891,58.9186 -0.434,111.59722 -3.0584,113.21922 -5.1301,3.17062 -42.6234,2.20874 -46.0126,-1.18043 -0.7551,-0.75517 -1.9069,-10.82284 -2.5594,-22.37259 -0.6525,-11.54974 -1.4823,-21.29953 -1.844,-21.6662 -0.3617,-0.36666 -21.5576,-0.66666 -47.1021,-0.66666 -25.5444,0 -46.7413,0.3 -47.1043,0.66666 -0.3629,0.36667 -1.0395,8.46667 -1.5035,18 -1.2081,24.82114 -1.2991,25.20427 -6.403,26.95399 -5.7605,1.97479 -22.2107,2.90415 -33.2146,1.87647 z m 270.8922,-0.0257 c -15.0334,-0.44264 -28.2984,-1.4048 -29.478,-2.13813 -1.1796,-0.73333 -3.06,-3.10493 -4.1788,-5.27023 -2.0808,-4.02692 -1.4794,-7.58152 2.9994,-17.72977 0.7282,-1.65 1.924,-4.5 2.6574,-6.33333 0.7333,-1.83334 1.9333,-4.83334 2.6666,-6.66667 0.7334,-1.83333 2.0136,-4.98333 2.8451,-7 0.8315,-2.01667 1.9716,-4.86667 2.5337,-6.33333 0.5622,-1.46667 2.2819,-5.51014 3.8216,-8.98547 1.5399,-3.47535 2.7996,-6.93348 2.7996,-7.68476 0,-0.75128 0.53,-2.40781 1.1778,-3.6812 1.0814,-2.12584 1.9693,-4.21949 5.3637,-12.64857 0.6644,-1.65 3.76,-9.6 6.8791,-17.66667 3.119,-8.06667 6.1209,-15.26667 6.6706,-16 0.5498,-0.73333 2.3015,-5.23333 3.8927,-10 1.5911,-4.76667 3.4457,-9.23667 4.1212,-9.93333 0.6756,-0.69667 1.232,-2.19667 1.2365,-3.33334 0,-1.13666 0.8119,-3.60665 1.794,-5.48886 0.9823,-1.88222 2.2271,-5.18222 2.7663,-7.33334 1.9639,-7.83598 9.9609,-18.93132 16.5804,-23.00433 10.7451,-6.61147 31.098,-6.31068 41.5623,0.61424 4.6541,3.08001 14.5993,16.66253 14.6342,19.98671 0.013,0.6374 1.488,4.15892 3.2918,7.82558 1.8036,3.66667 3.2981,7.58316 3.321,8.70332 0.023,1.12018 0.8374,3.22018 1.8096,4.66667 0.9724,1.44651 3.1308,6.23001 4.7967,10.63001 1.6659,4.4 3.5703,9.35 4.2321,11 3.0171,7.52156 3.9471,9.86734 5.0222,12.66667 0.6336,1.65 2.3901,5.7 3.9033,9 4.0025,8.72876 10.9445,26.5202 10.9445,28.04924 0,0.72224 1.2598,4.15661 2.7996,7.63196 1.5398,3.47533 3.3398,7.6688 4,9.3188 0.6602,1.65 1.7392,4.35 2.3978,6 0.6586,1.65 2.2585,5.4 3.5554,8.33333 7.8114,17.6682 7.8727,29.41606 0.1643,31.4776 -5.064,1.35434 -109.7864,2.32232 -143.5837,1.3272 z m 86.7392,-38.34397 c 0.8737,-0.87381 0.6538,-2.9212 -0.6488,-6.03884 -1.084,-2.59424 -2.2404,-6.15047 -2.57,-7.90273 -0.5275,-2.8048 -21.7407,-66.07895 -24.2123,-72.21995 -1.3212,-3.28243 -4.0532,-0.82279 -6.0804,5.47401 -0.8664,2.69135 -2.0139,5.49335 -2.55,6.22668 -0.536,0.73334 -2.3113,5.83334 -3.9451,11.33334 -1.6337,5.5 -3.797,11.8 -4.8073,14 -1.7404,3.78965 -15.3115,45.18916 -15.7288,47.98168 -0.108,0.72325 2.2035,1.72628 5.1368,2.22894 7.9347,1.35972 53.8608,0.46191 55.4059,-1.08313 z M 1668,348.10919 c -9.1328,-0.96624 -10.9797,-2.09786 -14.3234,-8.77586 -8.3276,-16.63209 -12.0466,-42.17888 -9.6192,-66.0785 1.3061,-12.86111 6.373,-35.55739 9.1437,-40.95746 0.6483,-1.26356 1.8469,-3.79737 2.6639,-5.6307 8.1354,-18.25908 29.1813,-39.9298 46.8017,-48.19115 23.5583,-11.04533 27.7075,-11.95252 54.6667,-11.95252 22.8494,0 32.7104,1.53763 42.6666,6.65303 2.5667,1.31872 6.2104,2.77836 8.0972,3.24364 4.54,1.11952 22.763,13.196 28.3638,18.79678 7.6601,7.66024 16.9056,22.87668 19.0617,31.3726 1.8183,7.16526 1.8153,8.71262 -0.029,15.05904 -3.8599,13.27723 -14.7707,19.91544 -27.508,16.73606 -8.1711,-2.03959 -11.3595,-4.34414 -14.0135,-10.1289 -1.242,-2.70705 -3.6159,-7.02192 -5.2755,-9.58858 -1.6594,-2.56667 -5.2781,-8.15387 -8.0412,-12.416 -7.1722,-11.06308 -17.3121,-17.40466 -31.3112,-19.58238 -22.5734,-3.51158 -35.793,0.8006 -51.4005,16.76664 -5.4688,5.59442 -9.9432,10.63767 -9.9432,11.20724 0,0.56958 -1.6257,4.55808 -3.6128,8.86338 -1.9871,4.30528 -3.7408,8.42778 -3.8971,9.16112 -0.1564,0.73333 -1.5982,8.83333 -3.2041,18 -2.6084,14.88949 -2.7528,17.88958 -1.3541,28.13546 1.741,12.75452 5.0809,26.12727 9.2854,37.17904 4.3798,11.51264 4.3891,11.49854 -8.2173,12.47988 -11.8736,0.9243 -17.5939,0.8549 -29,-0.35186 z m 146.7554,0.0683 c -6.5866,-0.76748 -7.3383,-1.19668 -8.2752,-4.72444 -0.8424,-3.17214 0.1886,-6.38278 5.65,-17.59297 l 6.6804,-13.71269 7.4937,-2.1785 c 8.2088,-2.38636 14.5848,-1.8263 20.224,1.77642 5.0579,3.23138 6.5425,5.44488 8.8901,13.25468 1.9179,6.38006 1.9171,7.64344 -0.013,14.26546 -1.1616,3.99602 -2.5543,7.52826 -3.0945,7.84942 -1.8538,1.10169 -30.3151,1.9069 -37.5606,1.06262 z m 92.3752,0.23432 c -8.5232,-0.46778 -9.6104,-0.8361 -10.2352,-3.4676 -1.4011,-5.90125 -2.2888,-99.80162 -1.238,-130.94422 1.0712,-31.74379 1.109,-32.04526 4.7186,-37.65186 4.4686,-6.94072 10.8124,-9.91961 21.649,-10.16582 10.6477,-0.24191 18.0222,3.06964 21.7986,9.78882 2.6168,4.65608 2.8571,7.16604 3.0196,31.54372 0.097,14.56683 0.547,35.7718 1,47.12218 l 0.8235,20.63704 6,-5.98006 c 3.3,-3.28902 23.0911,-24.57569 43.9801,-47.3037 45.5312,-49.53948 47.7196,-51.66178 56.894,-55.17262 l 7.1886,-2.7509 8.8317,3.20574 c 9.8469,3.57423 10.2975,4.03079 13.1035,13.27847 3.4902,11.50331 1.7849,14.67557 -19.7735,36.78232 -10.3696,10.63333 -24.5357,25.16808 -31.4804,32.29943 l -12.6264,12.96609 6.6608,9.70057 c 3.6633,5.33532 14.9244,21.61018 25.0245,36.16635 19.4682,28.05732 21.1111,30.96727 19.9628,35.35828 -1.0012,3.82825 -6.7638,4.78353 -28.4324,4.71316 -24.962,-0.0811 -25.4045,-0.28689 -36.2942,-16.88169 -15.0903,-22.99614 -22.6335,-33.65552 -23.8166,-33.65552 -1.8658,0 -27.9538,24.77896 -32.0692,30.46004 -2.9258,4.03914 -3.82,6.75309 -3.82,11.59546 0,5.45812 -0.41,6.41856 -3,7.02818 -4.7164,1.11009 -27.3678,1.90452 -37.8694,1.32814 z m 235.1016,-0.34857 c -8.6619,-1.18828 -9.2695,-1.60125 -11.2963,-7.6788 -1.1184,-3.35319 -0.9715,-5.44473 0.6767,-9.64069 4.1633,-10.59884 21.6774,-14.71596 33.7357,-7.93044 9.4073,5.29366 16.2765,21.92122 10.0444,24.31277 -3.4744,1.33321 -25.6956,1.96121 -33.1605,0.93716 z m 141.3909,0.007 c -4.9739,-0.52655 -9.6395,-1.55336 -10.368,-2.2818 -0.7284,-0.72844 -2.8196,-5.47884 -4.6472,-10.55644 -4.4509,-12.36664 -6.6372,-15.00532 -16.7045,-20.16088 -11.4287,-5.85279 -21.6416,-9.1522 -40.7042,-13.15014 -30.9418,-6.48932 -49.063,-14.4314 -61.3014,-26.86685 -13.2262,-13.43916 -19.3723,-32.07623 -16.3968,-49.72081 1.8269,-10.83439 9.9558,-28.60223 15.717,-34.35366 14.4348,-14.41025 31.8211,-21.93289 57.6695,-24.95229 13.5372,-1.58129 18.0956,-1.57261 32.0816,0.0611 8.9664,1.04737 18.2592,2.55008 20.6507,3.33933 11.1636,3.68433 33.59,17.67088 39.3189,24.52183 3.5171,4.20581 10.0063,18.19309 10.8487,23.38366 1.7852,10.99952 -4.6864,23.95776 -13.9566,27.94567 -7.9354,3.41372 -7.9565,3.41292 -16.9974,-0.64711 -6.9412,-3.1172 -9.4816,-5.6904 -13.7871,-13.96522 -5.1023,-9.80655 -11.9693,-18.5896 -17.3619,-22.20618 -12.991,-8.71261 -37.5737,-8.91522 -52.401,-0.43188 -5.631,3.22167 -7.4994,5.23698 -9.788,10.55708 -1.5558,3.61643 -2.8287,8.28696 -2.8287,10.37896 0,4.45547 5.1119,15.0607 8,16.59688 11.8063,6.27976 26.1423,11.02979 51.8049,17.16487 9.0594,2.16577 19.1856,5.13833 22.5028,6.60569 3.3172,1.46735 6.7336,2.66791 7.5919,2.66791 4.678,0 27.6849,14.18047 32.4153,19.97939 8.4076,10.30676 11.249,16.12334 13.7319,28.11097 2.2093,10.66668 2.3693,13.64845 1.0532,19.63716 -0.8533,3.88348 -1.9,7.25776 -2.3257,7.49841 -1.9624,1.10903 -25.7154,1.70206 -33.8179,0.84432 z"
       id="path28"
       inkscape:connector-curvature="0" />
  </g>
</svg>
