<?xml version="1.0" encoding="UTF-8"?>
<svg fill="none" viewBox="0 0 15 24" xmlns="http://www.w3.org/2000/svg">
<path d="m9.3396 24h-3.8509c-0.64322 0-1.1665-0.5222-1.1665-1.1642v-8.6689h-2.2467c-0.64322 0-1.1665-0.5224-1.1665-1.1642v-3.7147c0-0.64197 0.52324-1.1642 1.1665-1.1642h2.2467v-1.8602c0-1.8444 0.5803-3.4136 1.678-4.5377 1.1026-1.1292 2.6435-1.726 4.4562-1.726l2.9369 0.0047607c0.6421 0.0010987 1.1644 0.52332 1.1644 1.1642v3.449c0 0.64197-0.523 1.1642-1.1661 1.1642l-1.9773 7.3e-4c-0.6031 0-0.7566 0.12066-0.7895 0.15765-0.0541 0.06134-0.1185 0.23474-0.1185 0.71356v1.4696h2.7367c0.2061 0 0.4057 0.05072 0.5772 0.1463 0.37 0.20636 0.6001 0.59656 0.6001 1.0182l-0.0015 3.7147c0 0.6416-0.5232 1.1638-1.1664 1.1638h-2.7461v8.6691c0 0.642-0.52343 1.1642-1.1666 1.1642zm-3.6076-1.407h3.3644v-9.056c0-0.4287 0.3495-0.7773 0.77881-0.7773h3.1339l0.0013-3.2289h-3.1354c-0.42931 0-0.77863-0.34863-0.77863-0.77728v-2.0995c0-0.54968 0.05596-1.1748 0.47169-1.6446 0.50234-0.56799 1.2939-0.63354 1.8458-0.63354l1.7341-7.4e-4v-2.9637l-2.6927-0.0044c-2.913 0-4.7233 1.8611-4.7233 4.8567v2.4899c0 0.42847-0.34932 0.77728-0.77863 0.77728h-2.6345v3.2289h2.6345c0.42931 0 0.77863 0.3486 0.77863 0.7773v9.056zm7.6585-21.181h2e-4 -2e-4z" fill="#0E3256"/>
</svg>
