<?xml version="1.0" encoding="UTF-8"?>
<svg fill="none" viewBox="0 0 24 24" xmlns="http://www.w3.org/2000/svg">
<g clip-path="url(#a)" fill="#0E3256">
<path d="m18.59 24c0.103 0 4.762-1e-3 4.66-1e-3 0.414 0 0.75-0.336 0.75-0.75-0.35-7.857 1.842-16.148-6.338-16.148-1.573 0-2.826 0.537-3.729 1.247 0-1.461-1.579-0.653-5.224-0.87-0.414 0-0.75 0.336-0.75 0.75 0.302 14.166-0.674 15.771 0.75 15.771h4.66c1.353 0 0.492-1.908 0.75-8.188 0-2.594 0.75-3.102 2.046-3.102 1.434 0 1.675 0.996 1.675 3.228 0.257 6.167-0.598 8.063 0.75 8.063zm-2.425-12.791c-4.491 0-3.546 4.938-3.546 11.29h-3.16v-13.521h2.974v1.298c0 0.72 1.097 1.074 1.479 0.35 0.492-0.93402 1.77-2.025 3.75-2.025 3.527 0 4.838 1.733 4.838 6.396v7.503h-3.16c0-7.144 0.756-11.291-3.175-11.291z"/>
<path d="m1.122 7.4787c-1.42 0-0.448 1.585-0.75 15.771 0 0.414 0.336 0.75 0.75 0.75h4.665c1.42 0 0.448-1.585 0.75-15.771 0-1.295-1.881-0.531-5.415-0.75zm3.915 15.021h-3.165v-13.521h3.165v13.521z"/>
<path d="m3.452 0c-4.576 0-4.548 6.929 0 6.929 4.545 0 4.581-6.929 0-6.929zm0 5.429c-2.568 0-2.592-3.929 0-3.929 2.597 0 2.564 3.929 0 3.929z"/>
</g>
<defs>
<clipPath id="a">
<rect width="24" height="24" fill="#0E3256"/>
</clipPath>
</defs>
</svg>
