<svg width="24" height="24" viewBox="0 0 24 20" fill="none" xmlns="http://www.w3.org/2000/svg">
<path d="M0.472992 17.5949C2.69499 19.0049 5.28099 19.7499 7.95099 19.7499C11.861 19.7499 15.444 18.2479 18.041 15.5209C20.526 12.9109 21.893 9.40389 21.825 5.84489C22.767 5.03889 23.875 3.49989 23.875 1.99989C23.875 1.42489 23.251 1.05989 22.745 1.35289C21.86 1.87289 21.053 2.00889 20.223 1.77589C18.528 0.123892 16.005 -0.224108 13.879 0.921892C12.021 1.92189 10.988 3.75189 11.081 5.75189C7.94199 5.36889 5.04199 3.79489 3.01999 1.34889C2.68799 0.949892 2.05799 0.996892 1.79399 1.44889C0.819992 3.11689 0.829992 5.04989 1.67699 6.61089C1.27399 6.68189 1.02499 7.02089 1.02499 7.38789C1.02499 8.95689 1.73099 10.3989 2.86799 11.3829C2.65599 11.5869 2.58599 11.8899 2.67599 12.1599C3.17599 13.6619 4.30799 14.8359 5.72299 15.4239C4.18399 16.1589 2.48199 16.4039 0.966992 16.2179C0.182992 16.1119 -0.204008 17.1659 0.472992 17.5949ZM8.15599 15.6809C8.71699 15.2499 8.41899 14.3519 7.71499 14.3369C6.47499 14.3109 5.34599 13.6999 4.64299 12.7389C4.98199 12.7169 5.33299 12.6649 5.66699 12.5749C6.42799 12.3689 6.39199 11.2709 5.61899 11.1159C4.21599 10.8339 3.11499 9.81189 2.70199 8.49589C3.07899 8.58889 3.46299 8.64089 3.84599 8.64789C4.60499 8.65189 4.89199 7.67889 4.27299 7.27189C2.87799 6.35289 2.28299 4.72989 2.67699 3.20389C5.11299 5.67189 8.41799 7.15889 11.914 7.32689C12.415 7.35789 12.791 6.88689 12.681 6.40989C12.206 4.35089 13.356 2.90789 14.591 2.24289C15.813 1.58289 17.775 1.37689 19.279 2.95489C19.726 3.42589 21.234 3.44389 22.001 3.26489C21.657 3.91289 21.128 4.52789 20.633 4.87389C20.422 5.02189 20.301 5.26789 20.314 5.52489C20.475 8.80989 19.251 12.0759 16.956 14.4849C14.644 16.9119 11.447 18.2489 7.95199 18.2489C6.56199 18.2489 5.19899 18.0229 3.91099 17.5869C5.45099 17.2889 6.91399 16.6369 8.15599 15.6809Z" fill="#0E3256"/>
</svg>
