<?xml version="1.0" standalone="no"?>
<!DOCTYPE svg PUBLIC "-//W3C//DTD SVG 20010904//EN"
 "http://www.w3.org/TR/2001/REC-SVG-20010904/DTD/svg10.dtd">
<svg version="1.0" xmlns="http://www.w3.org/2000/svg"
 width="16.000000pt" height="16.000000pt" viewBox="0 0 16.000000 16.000000"
 preserveAspectRatio="xMidYMid meet">
<metadata>
Created by potrace 1.11, written by Peter Selinger 2001-2013
</metadata>
<g transform="translate(0.000000,16.000000) scale(0.001863,-0.001863)"
fill="#000000" stroke="none">
<path d="M1394 7880 c-105 -27 -171 -65 -245 -139 -92 -92 -101 -122 -107
-338 l-4 -171 -85 -27 c-475 -148 -807 -444 -925 -827 l-23 -73 -3 -2020 c-3
-2243 -7 -2111 63 -2322 159 -478 599 -882 1200 -1101 142 -52 354 -105 536
-134 l144 -23 2350 0 c2594 0 2389 -5 2695 61 749 160 1345 625 1535 1197 70
211 66 79 63 2322 l-3 2020 -23 75 c-113 367 -437 665 -883 811 l-127 41 -5
171 c-5 210 -15 243 -98 331 -69 74 -147 119 -255 146 -76 20 -121 20 -2903
19 -2728 0 -2828 -1 -2897 -19z m5739 -268 c20 -13 43 -34 50 -45 8 -15 14
-102 17 -282 l5 -259 99 -18 c419 -75 727 -275 866 -562 69 -142 70 -152 70
-703 l0 -493 -225 0 -225 0 0 448 c0 499 5 459 -68 496 -56 29 -132 23 -288
-23 -650 -188 -1212 -281 -1715 -281 -431 0 -680 45 -1434 260 -516 147 -630
177 -845 219 -335 65 -576 86 -889 78 -582 -15 -1013 -159 -1613 -541 l-128
-81 0 -287 0 -288 -230 0 -230 0 0 493 c0 552 1 561 70 704 86 177 239 323
447 428 116 58 242 99 383 125 63 12 121 24 128 26 9 2 12 61 12 249 0 254 5
292 43 324 51 42 -47 40 2877 38 l2785 -2 38 -23z m1107 -3832 l0 -1210 -3945
0 -3945 0 0 1210 0 1210 3945 0 3945 0 0 -1210z m-7395 -1550 c50 -168 133
-301 279 -446 263 -260 657 -430 1100 -473 152 -15 3990 -15 4142 0 448 43
839 213 1105 478 150 150 241 299 283 463 l13 53 238 3 237 2 -7 -65 c-17
-158 -98 -372 -194 -514 -222 -326 -618 -582 -1081 -697 -299 -74 -92 -68
-2580 -72 -1564 -2 -2274 0 -2365 8 -453 38 -885 206 -1197 466 -189 159 -341
374 -415 589 -23 69 -53 215 -53 261 l0 24 236 -2 236 -3 23 -75z"/>
<path d="M5700 4250 c-251 -39 -410 -233 -410 -500 0 -159 44 -276 139 -370
94 -94 207 -134 376 -135 129 0 186 16 242 70 37 36 43 47 43 84 0 44 -18 88
-44 110 -12 10 -27 8 -83 -14 -58 -24 -78 -27 -144 -23 -126 7 -201 67 -230
181 -17 70 -7 202 19 254 62 119 214 156 356 86 l58 -28 28 32 c76 85 30 193
-100 236 -59 20 -181 28 -250 17z"/>
<path d="M7350 4234 c-149 -40 -231 -140 -231 -281 0 -142 79 -225 276 -292
173 -59 207 -84 184 -135 -16 -35 -63 -51 -144 -49 -77 1 -139 20 -198 59
l-38 25 -40 -39 c-34 -35 -39 -45 -39 -87 0 -63 27 -105 87 -137 70 -37 133
-49 252 -49 116 0 179 11 244 41 113 53 167 137 167 259 0 90 -20 141 -74 193
-48 47 -147 98 -269 138 -100 33 -129 55 -120 91 17 64 198 66 345 5 27 -12
68 58 68 115 0 77 -53 123 -168 148 -73 15 -236 13 -302 -5z"/>
<path d="M895 4231 l-30 -6 -5 -351 c-4 -271 -8 -355 -18 -367 -22 -26 -79
-40 -136 -33 -68 9 -81 -5 -81 -85 0 -47 4 -62 25 -84 39 -42 82 -56 177 -56
145 0 237 43 286 134 21 41 22 52 25 407 2 402 2 402 -58 432 -36 18 -123 22
-185 9z"/>
<path d="M1540 4229 c-91 -26 -82 -13 -163 -242 -83 -235 -148 -437 -177 -552
-17 -68 -18 -80 -6 -110 19 -44 63 -66 134 -67 98 -2 120 7 132 55 6 23 18 68
27 100 l16 57 138 0 138 0 16 -57 c34 -122 49 -141 122 -154 57 -11 142 4 174
29 l21 18 -86 300 c-92 325 -150 513 -172 556 -24 47 -86 71 -189 75 -49 1
-106 -2 -125 -8z m154 -389 c20 -74 36 -141 36 -147 0 -10 -25 -13 -90 -13
-49 0 -90 3 -90 8 -1 22 95 301 101 295 3 -5 23 -69 43 -143z"/>
<path d="M3432 4233 l-33 -4 3 -456 3 -455 27 -23 c35 -30 101 -40 181 -29
l62 9 3 183 2 182 144 0 144 0 4 -150 c4 -131 7 -153 24 -177 30 -41 90 -57
180 -48 l74 7 0 443 c0 311 -3 452 -11 469 -20 43 -71 59 -165 53 -45 -2 -87
-8 -93 -11 -7 -5 -11 -68 -11 -187 l0 -179 -145 0 -145 0 0 140 c0 166 -11
203 -64 225 -33 14 -108 17 -184 8z"/>
<path d="M4700 4229 c-62 -17 -88 -30 -93 -47 -3 -9 -39 -111 -80 -227 -75
-212 -159 -476 -175 -550 -18 -84 17 -132 106 -146 51 -8 142 5 152 21 4 6 17
51 29 100 l24 90 138 0 138 0 16 -57 c34 -122 45 -136 119 -153 57 -13 143 1
176 28 l22 17 -70 250 c-65 230 -141 481 -175 580 -15 44 -57 79 -116 95 -44
12 -164 12 -211 -1z m154 -386 c20 -73 36 -139 36 -148 0 -12 -15 -15 -90 -15
-49 0 -90 3 -90 8 -1 22 95 301 100 295 4 -5 24 -67 44 -140z"/>
<path d="M6223 4233 l-33 -4 0 -442 c0 -420 1 -444 20 -474 29 -47 107 -64
215 -45 l40 7 5 170 5 169 112 -129 c176 -205 201 -225 285 -225 76 0 127 38
148 109 9 31 5 36 -151 204 l-159 172 124 125 c68 69 131 136 140 150 20 31
21 102 1 140 -19 36 -74 66 -136 72 l-46 5 -159 -183 -159 -184 -5 148 c-3 95
-10 155 -18 170 -26 45 -105 60 -229 45z"/>
<path d="M2280 4208 c-25 -13 -50 -34 -56 -48 -17 -37 -57 -811 -44 -844 15
-41 69 -59 162 -54 42 2 82 8 89 15 7 7 14 103 20 290 10 347 10 340 14 328 2
-5 29 -91 60 -190 70 -223 75 -229 183 -233 59 -2 85 1 111 15 34 17 37 24 90
201 31 100 58 182 62 182 3 0 9 -114 12 -252 4 -139 11 -266 15 -282 13 -47
53 -70 131 -74 39 -2 85 1 106 8 l38 12 -7 117 c-7 114 -48 579 -62 695 -8 70
-36 107 -92 124 -50 15 -167 14 -211 -2 -33 -12 -37 -18 -71 -122 -20 -60 -52
-162 -70 -226 -19 -65 -36 -118 -40 -118 -3 0 -23 57 -44 128 -83 268 -109
315 -185 341 -59 19 -161 14 -211 -11z"/>
</g>
</svg>
