<svg width="494" height="115" viewBox="0 0 494 115" fill="none" xmlns="http://www.w3.org/2000/svg">
<g clip-path="url(#clip0_4:233)">
<path d="M34.2391 114.748C53.1299 114.748 68.4439 103.697 68.4439 90.0651C68.4439 76.433 53.1299 65.3821 34.2391 65.3821C15.3482 65.3821 0.0341797 76.433 0.0341797 90.0651C0.0341797 103.697 15.3482 114.748 34.2391 114.748Z" fill="#BAE4F8"/>
<path d="M34.2391 57.202C53.1299 57.202 68.4439 49.7346 68.4439 40.5228C68.4439 31.3111 53.1299 23.8436 34.2391 23.8436C15.3482 23.8436 0.0341797 31.3111 0.0341797 40.5228C0.0341797 49.7346 15.3482 57.202 34.2391 57.202Z" fill="#BAE4F8"/>
<path d="M68.4272 40.6613H0.0595703V90.0651H68.4272V40.6613Z" fill="#BAE4F8"/>
<path d="M34.2383 113.514C52.2331 113.514 66.8204 103.016 66.8204 90.0651C66.8204 77.1146 52.2331 66.6161 34.2383 66.6161C16.2438 66.6161 1.65625 77.1146 1.65625 90.0651C1.65625 103.016 16.2438 113.514 34.2383 113.514Z" fill="#E7F6FF"/>
<path d="M34.239 57.84C52.187 57.84 66.7368 50.7444 66.7368 41.9918C66.7368 33.2391 52.187 26.1436 34.239 26.1436C16.291 26.1436 1.74121 33.2391 1.74121 41.9918C1.74121 50.7444 16.291 57.84 34.239 57.84Z" fill="#E7F6FF"/>
<path d="M66.7697 41.8952H1.71094V88.8312H66.7697V41.8952Z" fill="#E7F6FF"/>
<path d="M5.34859 81.3856C5.34859 90.1953 5.5467 64.7819 5.45397 68.1018C5.26008 75.3082 5.28958 82.0613 5.55934 83.4212C9.60997 94.6022 20.1602 99.1182 32.5565 96.9735C35.5365 96.2349 37.3954 95.2821 39.1151 94.0776C35.6082 95.9788 29.2772 94.6735 26.5586 93.0115C24.2066 91.5761 21.8335 89.1964 21.7366 84.1053C21.6607 80.3153 22.373 76.2022 20.5227 72.6557C18.6048 68.979 11.022 64.9876 5.34438 64.1272" fill="#BA00FF"/>
<path d="M63.0951 42.8606C63.0234 63.1661 63.1667 75.9881 62.9517 84.8566C62.918 86.2038 63.0782 87.8533 62.0244 91.5929C59.4238 100.797 50.3446 105.674 46.7029 107.139C35.807 111.529 26.2642 108.868 22.4159 107.483C20.3168 106.728 10.7488 102.509 6.92573 92.9402C4.97418 88.0631 5.31981 83.0015 5.32403 80.3741C5.32824 78.4854 7.24186 87.0558 15.5075 92.1595C17.0797 93.129 22.9175 96.6252 32.3887 95.7018C42.9557 94.6694 44.7934 88.7725 45.1475 87.4714C46.0116 84.3194 46.079 78.8296 45.9947 63.2836C45.9357 51.9347 46.2181 52.8538 48.1317 50.2307C49.2698 48.6693 53.6871 45.5425 59.3858 43.8385" fill="#8600FF"/>
<path d="M34.2386 39.6959C52.1541 39.6959 66.6773 32.6005 66.6773 23.8478C66.6773 15.0951 52.1541 7.9996 34.2386 7.9996C16.3232 7.9996 1.7998 15.0951 1.7998 23.8478C1.7998 32.6005 16.3232 39.6959 34.2386 39.6959Z" fill="url(#paint0_linear_4:233)"/>
<path d="M65.9565 24.8047C66.2768 33.5305 51.7308 40.4347 34.2216 40.4347C16.7124 40.4347 2.33924 33.7445 2.51627 24.9852" stroke="#E1E1E1" stroke-width="3.5" stroke-miterlimit="10"/>
<path d="M34.239 32.9974C52.187 32.9974 66.7368 25.6671 66.7368 16.6246C66.7368 7.58215 52.187 0.251816 34.239 0.251816C16.291 0.251816 1.74121 7.58215 1.74121 16.6246C1.74121 25.6671 16.291 32.9974 34.239 32.9974Z" fill="#E1E1E1"/>
<path d="M34.2382 31.6796C51.2597 31.6796 65.0584 24.9392 65.0584 16.6246C65.0584 8.31001 51.2597 1.5697 34.2382 1.5697C17.2166 1.5697 3.41797 8.31001 3.41797 16.6246C3.41797 24.9392 17.2166 31.6796 34.2382 31.6796Z" fill="url(#paint1_linear_4:233)"/>
<path d="M65.9395 25.6861L66.0197 16.6666" stroke="#E1E1E1" stroke-width="3.5" stroke-miterlimit="10"/>
<path d="M2.54616 25.2328L2.5166 16.9058" stroke="#E1E1E1" stroke-width="3.5" stroke-miterlimit="10"/>
<path opacity="0.2" d="M27.7936 40.9047C27.2372 40.8418 26.2635 40.7159 25.7282 40.6403C23.8062 40.3759 22.4869 40.1451 20.5648 39.8513C19.8862 39.6876 19.4563 39.5953 19.2118 39.5239C17.9642 39.163 17.8208 39.1294 17.1886 38.9615L2.30957 95.0429C2.30957 95.0429 2.67206 96.025 2.95447 96.8141C3.73846 98.5265 3.97872 99.1225 4.8428 100.369C5.80383 101.758 7.01775 103.101 8.29912 104.255C9.58048 105.41 10.1158 105.766 11.4351 106.694C11.7596 106.921 12.7544 107.491 13.0747 107.714C13.2813 107.739 13.4752 108.024 13.6311 108.108L30.7736 41.081C29.5934 41.0223 28.7925 41.0013 27.7936 40.9047Z" fill="white"/>
<path opacity="0.2" d="M25.3787 112.692C25.9478 112.826 26.1754 112.792 26.698 112.889C26.7613 112.889 27.1364 112.99 27.1954 112.99C27.6548 112.99 27.7813 113.069 28.2154 113.132L46.1756 40.0737C45.5771 40.208 45.2905 40.271 44.6498 40.3381C44.1018 40.3969 43.8321 40.4724 42.9764 40.6026C42.8373 40.6235 42.0112 40.7495 41.8721 40.7662C40.7678 40.8334 40.2704 40.867 39.2757 40.9551L21.4883 111.777C22.1163 111.961 22.7781 112.125 23.5283 112.289C24.3798 112.494 24.7001 112.561 25.3787 112.692V112.692Z" fill="white"/>
<g filter="url(#filter0_d_4:233)">
<path d="M105.455 71.3126C105.548 68.2319 108.461 65.6927 111.829 65.6927C115.289 65.6927 118.202 68.1396 118.202 71.3126V103.315C118.202 106.488 115.289 108.935 111.829 108.935C108.461 108.935 105.548 106.396 105.455 103.315V102.501C102.724 106.942 97.5354 109.3 92.7092 109.3C81.8766 109.3 72.043 101.322 72.043 87.2699C72.043 73.2181 81.8766 65.3317 92.7092 65.3317C95.4405 65.3317 101.814 66.5111 105.455 72.131V71.3126ZM95.1665 98.0564C100.903 98.0564 105.544 92.9779 105.544 87.358C105.544 81.7381 100.899 76.6597 95.1665 76.6597C88.7934 76.6597 85.1517 81.7381 85.1517 87.358C85.1517 92.9779 88.7934 98.0564 95.1665 98.0564Z" fill="url(#paint2_linear_4:233)"/>
</g>
<g filter="url(#filter1_d_4:233)">
<path d="M195.864 103.315C195.864 106.488 192.951 108.935 189.491 108.935C186.123 108.935 183.21 106.396 183.118 103.315V85.91C183.118 80.3783 179.75 77.4781 176.015 77.4781C172.011 77.4781 168.825 79.925 168.825 86.0905V103.315C168.825 106.488 165.912 108.935 162.451 108.935C159.084 108.935 156.171 106.396 156.078 103.315V85.6372C156.078 80.2901 152.711 77.4781 149.069 77.4781C145.246 77.4781 141.692 79.6522 141.692 86.0905V103.315C141.692 106.488 138.78 108.935 135.319 108.935C131.952 108.935 129.039 106.396 128.946 103.315V71.3126C129.039 68.2319 131.952 65.6927 135.319 65.6927C138.78 65.6927 141.692 68.1396 141.692 71.3126V72.3115C143.695 67.871 148.247 65.3317 152.799 65.3317C159.535 65.3317 163.998 67.5058 166.818 73.3104C169.912 66.6035 176.197 65.2436 179.202 65.2436C189.31 65.2436 195.771 71.6819 195.864 84.462V103.315Z" fill="url(#paint3_linear_4:233)"/>
</g>
<g filter="url(#filter2_d_4:233)">
<path d="M235.375 85.9058C235.375 80.3741 231.371 77.5662 227.543 77.5662C223.539 77.5662 219.168 79.6522 219.168 86.0863V103.311C219.168 106.484 216.256 108.931 212.795 108.931C209.427 108.931 206.515 106.392 206.422 103.311V48.2832C206.515 45.2026 209.427 42.6633 212.795 42.6633C216.256 42.6633 219.168 45.1102 219.168 48.2832V72.7606C220.896 67.5016 227 65.3276 231.004 65.3276C242.203 65.3276 248.121 72.6724 248.121 85.4526V103.311C248.121 106.484 245.208 108.931 241.748 108.931C238.38 108.931 235.468 106.392 235.375 103.311V85.9058Z" fill="url(#paint4_linear_4:233)"/>
</g>
<g filter="url(#filter3_d_4:233)">
<path d="M289.909 71.3126C290.001 68.2319 292.914 65.6927 296.282 65.6927C299.742 65.6927 302.655 68.1396 302.655 71.3126V103.315C302.655 106.488 299.742 108.935 296.282 108.935C292.914 108.935 290.001 106.396 289.909 103.315V102.501C287.177 106.942 281.989 109.3 277.162 109.3C266.33 109.3 256.496 101.322 256.496 87.2699C256.496 73.2181 266.33 65.3317 277.162 65.3317C279.894 65.3317 286.267 66.5111 289.909 72.131V71.3126ZM279.62 98.0564C285.356 98.0564 289.997 92.9779 289.997 87.358C289.997 81.7381 285.352 76.6597 279.62 76.6597C273.247 76.6597 269.605 81.7381 269.605 87.358C269.605 92.9779 273.247 98.0564 279.62 98.0564Z" fill="url(#paint5_linear_4:233)"/>
</g>
<g filter="url(#filter4_d_4:233)">
<path d="M334.614 97.0575C336.89 97.0575 339.073 96.4237 340.894 95.4248C343.17 94.1573 346.905 93.6117 349.181 95.8781C351.731 98.4173 351.364 103.038 348.363 105.124C344.54 107.844 339.714 109.296 334.614 109.296C322.415 109.296 311.305 100.776 311.305 87.4462V87.1734C311.305 73.8476 322.411 65.3234 334.614 65.3234C339.714 65.3234 344.536 66.7756 348.363 69.4953C351.368 71.5812 351.731 76.2022 349.181 78.7414C346.905 81.0079 343.17 80.4622 340.894 79.1947C339.073 78.1958 336.89 77.5621 334.614 77.5621C329.151 77.5621 324.232 81.2807 324.232 87.1734V87.4462C324.232 93.3431 329.151 97.0575 334.614 97.0575Z" fill="url(#paint6_linear_4:233)"/>
</g>
<g filter="url(#filter5_d_4:233)">
<path d="M372.03 91.7985V103.311C372.03 106.484 369.118 108.931 365.657 108.931C362.289 108.931 359.377 106.392 359.284 103.311V48.2832C359.377 45.2026 362.289 42.6633 365.657 42.6633C369.118 42.6633 372.03 45.1102 372.03 48.2832V77.839L381.953 67.8668C383.955 65.6004 387.689 65.1471 390.146 67.1407C392.515 69.0462 393.152 72.6724 390.964 75.2075L381.042 84.8188L395.061 99.4162C397.43 101.955 397.245 105.762 394.699 107.668C392.423 109.573 388.144 109.3 386.323 107.122L372.03 91.7985Z" fill="url(#paint7_linear_4:233)"/>
</g>
<g filter="url(#filter6_d_4:233)">
<path d="M404.258 93.9768C407.082 92.7093 409.721 93.8845 411.087 95.5172C413.363 97.9641 416.094 99.2358 419.099 99.2358C421.923 99.2358 424.562 98.7825 424.562 96.6084C424.562 94.7953 423.47 94.1615 420.372 93.1626L415.546 91.4418C402.8 87.1818 402.893 81.1967 402.893 77.2976C402.893 71.044 410.45 65.2394 419.373 65.2394C425.472 65.2394 431.757 67.1449 434.67 72.2192C436.216 74.9389 435.487 77.5662 433.578 78.6575C430.754 80.2902 428.115 79.6564 425.477 77.6586C423.656 76.2987 422.016 75.7531 420.376 75.7531C417.645 75.7531 415.731 76.6597 415.731 78.2923C415.731 79.6522 416.823 80.4664 419.373 81.2849L425.839 83.4589C436.128 86.8124 437.401 93.4312 437.401 96.1509C437.401 105.124 427.934 109.389 419.011 109.389C412.182 109.389 404.17 106.576 401.986 100.323C401.072 97.6912 402.168 94.8834 404.258 93.9768Z" fill="url(#paint8_linear_4:233)"/>
</g>
<g filter="url(#filter7_d_4:233)">
<path d="M472.223 109.754C464.199 109.754 457.987 106.939 453.588 101.309C449.249 95.6175 447.079 87.6009 447.079 77.2589C447.079 66.4273 449.546 58.0129 454.48 52.0158C459.413 46.0186 466.249 43.0201 474.987 43.0201C477.543 43.0201 480.129 43.3872 482.745 44.1216C485.36 44.8559 487.797 45.9575 490.056 47.4261C491.542 48.2829 492.434 49.4456 492.731 50.9143C493.088 52.383 492.969 53.7905 492.374 55.1368C491.839 56.4831 490.918 57.4622 489.61 58.0741C488.362 58.6861 486.846 58.5637 485.063 57.707C483.22 56.6666 481.437 55.9323 479.713 55.5039C478.049 55.0756 476.414 54.8614 474.809 54.8614C465.06 54.8614 460.186 61.4399 460.186 74.5969V76.3409C461.434 73.2812 463.366 70.9252 465.982 69.2729C468.597 67.5594 471.599 66.7027 474.987 66.7027C478.554 66.7027 481.704 67.6206 484.439 69.4565C487.233 71.2311 489.432 73.7095 491.037 76.8917C492.642 80.0127 493.444 83.5926 493.444 87.6315C493.444 91.9152 492.523 95.7399 490.68 99.1056C488.897 102.41 486.4 105.011 483.19 106.908C480.04 108.805 476.384 109.754 472.223 109.754ZM471.51 98.6466C474.244 98.6466 476.444 97.6981 478.108 95.8011C479.832 93.8428 480.694 91.3032 480.694 88.1822C480.694 85.1225 479.832 82.6135 478.108 80.6552C476.444 78.697 474.244 77.7178 471.51 77.7178C468.716 77.7178 466.457 78.697 464.734 80.6552C463.069 82.6135 462.237 85.1225 462.237 88.1822C462.237 91.3032 463.069 93.8428 464.734 95.8011C466.457 97.6981 468.716 98.6466 471.51 98.6466Z" fill="url(#paint9_linear_4:233)"/>
</g>
</g>
<defs>
<filter id="filter0_d_4:233" x="68.043" y="65.3317" width="54.1582" height="51.9686" filterUnits="userSpaceOnUse" color-interpolation-filters="sRGB">
<feFlood flood-opacity="0" result="BackgroundImageFix"/>
<feColorMatrix in="SourceAlpha" type="matrix" values="0 0 0 0 0 0 0 0 0 0 0 0 0 0 0 0 0 0 127 0" result="hardAlpha"/>
<feOffset dy="4"/>
<feGaussianBlur stdDeviation="2"/>
<feComposite in2="hardAlpha" operator="out"/>
<feColorMatrix type="matrix" values="0 0 0 0 0 0 0 0 0 0 0 0 0 0 0 0 0 0 0.25 0"/>
<feBlend mode="normal" in2="BackgroundImageFix" result="effect1_dropShadow_4:233"/>
<feBlend mode="normal" in="SourceGraphic" in2="effect1_dropShadow_4:233" result="shape"/>
</filter>
<filter id="filter1_d_4:233" x="124.946" y="65.2436" width="74.918" height="51.6916" filterUnits="userSpaceOnUse" color-interpolation-filters="sRGB">
<feFlood flood-opacity="0" result="BackgroundImageFix"/>
<feColorMatrix in="SourceAlpha" type="matrix" values="0 0 0 0 0 0 0 0 0 0 0 0 0 0 0 0 0 0 127 0" result="hardAlpha"/>
<feOffset dy="4"/>
<feGaussianBlur stdDeviation="2"/>
<feComposite in2="hardAlpha" operator="out"/>
<feColorMatrix type="matrix" values="0 0 0 0 0 0 0 0 0 0 0 0 0 0 0 0 0 0 0.25 0"/>
<feBlend mode="normal" in2="BackgroundImageFix" result="effect1_dropShadow_4:233"/>
<feBlend mode="normal" in="SourceGraphic" in2="effect1_dropShadow_4:233" result="shape"/>
</filter>
<filter id="filter2_d_4:233" x="202.422" y="42.6633" width="49.6992" height="74.2677" filterUnits="userSpaceOnUse" color-interpolation-filters="sRGB">
<feFlood flood-opacity="0" result="BackgroundImageFix"/>
<feColorMatrix in="SourceAlpha" type="matrix" values="0 0 0 0 0 0 0 0 0 0 0 0 0 0 0 0 0 0 127 0" result="hardAlpha"/>
<feOffset dy="4"/>
<feGaussianBlur stdDeviation="2"/>
<feComposite in2="hardAlpha" operator="out"/>
<feColorMatrix type="matrix" values="0 0 0 0 0 0 0 0 0 0 0 0 0 0 0 0 0 0 0.25 0"/>
<feBlend mode="normal" in2="BackgroundImageFix" result="effect1_dropShadow_4:233"/>
<feBlend mode="normal" in="SourceGraphic" in2="effect1_dropShadow_4:233" result="shape"/>
</filter>
<filter id="filter3_d_4:233" x="252.496" y="65.3317" width="54.1582" height="51.9686" filterUnits="userSpaceOnUse" color-interpolation-filters="sRGB">
<feFlood flood-opacity="0" result="BackgroundImageFix"/>
<feColorMatrix in="SourceAlpha" type="matrix" values="0 0 0 0 0 0 0 0 0 0 0 0 0 0 0 0 0 0 127 0" result="hardAlpha"/>
<feOffset dy="4"/>
<feGaussianBlur stdDeviation="2"/>
<feComposite in2="hardAlpha" operator="out"/>
<feColorMatrix type="matrix" values="0 0 0 0 0 0 0 0 0 0 0 0 0 0 0 0 0 0 0.25 0"/>
<feBlend mode="normal" in2="BackgroundImageFix" result="effect1_dropShadow_4:233"/>
<feBlend mode="normal" in="SourceGraphic" in2="effect1_dropShadow_4:233" result="shape"/>
</filter>
<filter id="filter4_d_4:233" x="307.305" y="65.3234" width="47.5742" height="51.9728" filterUnits="userSpaceOnUse" color-interpolation-filters="sRGB">
<feFlood flood-opacity="0" result="BackgroundImageFix"/>
<feColorMatrix in="SourceAlpha" type="matrix" values="0 0 0 0 0 0 0 0 0 0 0 0 0 0 0 0 0 0 127 0" result="hardAlpha"/>
<feOffset dy="4"/>
<feGaussianBlur stdDeviation="2"/>
<feComposite in2="hardAlpha" operator="out"/>
<feColorMatrix type="matrix" values="0 0 0 0 0 0 0 0 0 0 0 0 0 0 0 0 0 0 0.25 0"/>
<feBlend mode="normal" in2="BackgroundImageFix" result="effect1_dropShadow_4:233"/>
<feBlend mode="normal" in="SourceGraphic" in2="effect1_dropShadow_4:233" result="shape"/>
</filter>
<filter id="filter5_d_4:233" x="355.284" y="42.6633" width="45.4443" height="74.2783" filterUnits="userSpaceOnUse" color-interpolation-filters="sRGB">
<feFlood flood-opacity="0" result="BackgroundImageFix"/>
<feColorMatrix in="SourceAlpha" type="matrix" values="0 0 0 0 0 0 0 0 0 0 0 0 0 0 0 0 0 0 127 0" result="hardAlpha"/>
<feOffset dy="4"/>
<feGaussianBlur stdDeviation="2"/>
<feComposite in2="hardAlpha" operator="out"/>
<feColorMatrix type="matrix" values="0 0 0 0 0 0 0 0 0 0 0 0 0 0 0 0 0 0 0.25 0"/>
<feBlend mode="normal" in2="BackgroundImageFix" result="effect1_dropShadow_4:233"/>
<feBlend mode="normal" in="SourceGraphic" in2="effect1_dropShadow_4:233" result="shape"/>
</filter>
<filter id="filter6_d_4:233" x="397.661" y="65.2394" width="43.7393" height="52.1491" filterUnits="userSpaceOnUse" color-interpolation-filters="sRGB">
<feFlood flood-opacity="0" result="BackgroundImageFix"/>
<feColorMatrix in="SourceAlpha" type="matrix" values="0 0 0 0 0 0 0 0 0 0 0 0 0 0 0 0 0 0 127 0" result="hardAlpha"/>
<feOffset dy="4"/>
<feGaussianBlur stdDeviation="2"/>
<feComposite in2="hardAlpha" operator="out"/>
<feColorMatrix type="matrix" values="0 0 0 0 0 0 0 0 0 0 0 0 0 0 0 0 0 0 0.25 0"/>
<feBlend mode="normal" in2="BackgroundImageFix" result="effect1_dropShadow_4:233"/>
<feBlend mode="normal" in="SourceGraphic" in2="effect1_dropShadow_4:233" result="shape"/>
</filter>
<filter id="filter7_d_4:233" x="443.079" y="43.0201" width="54.3652" height="74.7335" filterUnits="userSpaceOnUse" color-interpolation-filters="sRGB">
<feFlood flood-opacity="0" result="BackgroundImageFix"/>
<feColorMatrix in="SourceAlpha" type="matrix" values="0 0 0 0 0 0 0 0 0 0 0 0 0 0 0 0 0 0 127 0" result="hardAlpha"/>
<feOffset dy="4"/>
<feGaussianBlur stdDeviation="2"/>
<feComposite in2="hardAlpha" operator="out"/>
<feColorMatrix type="matrix" values="0 0 0 0 0 0 0 0 0 0 0 0 0 0 0 0 0 0 0.25 0"/>
<feBlend mode="normal" in2="BackgroundImageFix" result="effect1_dropShadow_4:233"/>
<feBlend mode="normal" in="SourceGraphic" in2="effect1_dropShadow_4:233" result="shape"/>
</filter>
<linearGradient id="paint0_linear_4:233" x1="1.79947" y1="23.8489" x2="66.6807" y2="23.8489" gradientUnits="userSpaceOnUse">
<stop stop-color="#EFEFEF"/>
<stop offset="1" stop-color="#CFCFCF"/>
</linearGradient>
<linearGradient id="paint1_linear_4:233" x1="8.26588" y1="4.5639" x2="60.1343" y2="28.8538" gradientUnits="userSpaceOnUse">
<stop stop-color="#F3F3F3"/>
<stop offset="1" stop-color="#D3D4D6"/>
</linearGradient>
<linearGradient id="paint2_linear_4:233" x1="245.725" y1="36.7791" x2="263.348" y2="137.147" gradientUnits="userSpaceOnUse">
<stop stop-color="#BA00FF"/>
<stop offset="1" stop-color="#8600FF"/>
</linearGradient>
<linearGradient id="paint3_linear_4:233" x1="245.726" y1="36.7791" x2="263.348" y2="137.147" gradientUnits="userSpaceOnUse">
<stop stop-color="#BA00FF"/>
<stop offset="1" stop-color="#8600FF"/>
</linearGradient>
<linearGradient id="paint4_linear_4:233" x1="245.725" y1="36.7791" x2="263.348" y2="137.147" gradientUnits="userSpaceOnUse">
<stop stop-color="#BA00FF"/>
<stop offset="1" stop-color="#8600FF"/>
</linearGradient>
<linearGradient id="paint5_linear_4:233" x1="245.725" y1="36.7791" x2="263.348" y2="137.147" gradientUnits="userSpaceOnUse">
<stop stop-color="#BA00FF"/>
<stop offset="1" stop-color="#8600FF"/>
</linearGradient>
<linearGradient id="paint6_linear_4:233" x1="245.726" y1="36.7791" x2="263.348" y2="137.147" gradientUnits="userSpaceOnUse">
<stop stop-color="#BA00FF"/>
<stop offset="1" stop-color="#8600FF"/>
</linearGradient>
<linearGradient id="paint7_linear_4:233" x1="245.726" y1="36.7791" x2="263.348" y2="137.147" gradientUnits="userSpaceOnUse">
<stop stop-color="#BA00FF"/>
<stop offset="1" stop-color="#8600FF"/>
</linearGradient>
<linearGradient id="paint8_linear_4:233" x1="245.726" y1="36.7791" x2="263.348" y2="137.147" gradientUnits="userSpaceOnUse">
<stop stop-color="#BA00FF"/>
<stop offset="1" stop-color="#8600FF"/>
</linearGradient>
<linearGradient id="paint9_linear_4:233" x1="453.814" y1="64.9625" x2="481.506" y2="84.2545" gradientUnits="userSpaceOnUse">
<stop stop-color="#BA00FF"/>
<stop offset="1" stop-color="#8600FF"/>
</linearGradient>
<clipPath id="clip0_4:233">
<rect width="494" height="115" fill="white"/>
</clipPath>
</defs>
</svg>
