<svg width="163" height="274" viewBox="0 0 163 274" fill="none" xmlns="http://www.w3.org/2000/svg">
<path d="M81.7 273.4C126.518 273.4 162.85 247.07 162.85 214.59C162.85 182.11 126.518 155.78 81.7 155.78C36.8821 155.78 0.550003 182.11 0.550003 214.59C0.550003 247.07 36.8821 273.4 81.7 273.4Z" fill="#BAE4F8"/>
<path d="M81.7 136.29C126.518 136.29 162.85 118.498 162.85 96.5499C162.85 74.6021 126.518 56.8099 81.7 56.8099C36.8821 56.8099 0.550003 74.6021 0.550003 96.5499C0.550003 118.498 36.8821 136.29 81.7 136.29Z" fill="#BAE4F8"/>
<path d="M162.81 96.88H0.610001V214.59H162.81V96.88Z" fill="#BAE4F8"/>
<path d="M81.7 270.46C124.392 270.46 159 245.446 159 214.59C159 183.734 124.392 158.72 81.7 158.72C39.0084 158.72 4.4 183.734 4.4 214.59C4.4 245.446 39.0084 270.46 81.7 270.46Z" fill="#E7F6FF"/>
<path d="M81.7 137.81C124.281 137.81 158.8 120.904 158.8 100.05C158.8 79.1957 124.281 62.29 81.7 62.29C39.1189 62.29 4.60001 79.1957 4.60001 100.05C4.60001 120.904 39.1189 137.81 81.7 137.81Z" fill="#E7F6FF"/>
<path d="M158.88 99.8199H4.53001V211.65H158.88V99.8199Z" fill="#E7F6FF"/>
<path d="M13.16 193.91C13.16 214.9 13.63 154.35 13.41 162.26C12.95 179.43 13.02 195.52 13.66 198.76C23.27 225.4 48.3 236.16 77.71 231.05C84.78 229.29 89.19 227.02 93.27 224.15C84.95 228.68 69.93 225.57 63.48 221.61C57.9 218.19 52.27 212.52 52.04 200.39C51.86 191.36 53.55 181.56 49.16 173.11C44.61 164.35 26.62 154.84 13.15 152.79" fill="#BA00FF"/>
<path d="M150.16 102.12C149.99 150.5 150.33 181.05 149.82 202.18C149.74 205.39 150.12 209.32 147.62 218.23C141.45 240.16 119.91 251.78 111.27 255.27C85.42 265.73 62.78 259.39 53.65 256.09C48.67 254.29 25.97 244.24 16.9 221.44C12.27 209.82 13.09 197.76 13.1 191.5C13.11 187 17.65 207.42 37.26 219.58C40.99 221.89 54.84 230.22 77.31 228.02C102.38 225.56 106.74 211.51 107.58 208.41C109.63 200.9 109.79 187.82 109.59 150.78C109.45 123.74 110.12 125.93 114.66 119.68C117.36 115.96 127.84 108.51 141.36 104.45" fill="#8600FF"/>
<path d="M81.7 94.5799C124.204 94.5799 158.66 77.6742 158.66 56.8199C158.66 35.9657 124.204 19.0599 81.7 19.0599C39.1962 19.0599 4.74001 35.9657 4.74001 56.8199C4.74001 77.6742 39.1962 94.5799 81.7 94.5799Z" fill="url(#paint0_linear)"/>
<path d="M156.95 59.1C157.71 79.89 123.2 96.34 81.66 96.34C40.12 96.34 6.02 80.4 6.44 59.53" stroke="#E1E1E1" stroke-width="3.5" stroke-miterlimit="10"/>
<path d="M81.7 78.62C124.281 78.62 158.8 61.1546 158.8 39.61C158.8 18.0653 124.281 0.599976 81.7 0.599976C39.1189 0.599976 4.60001 18.0653 4.60001 39.61C4.60001 61.1546 39.1189 78.62 81.7 78.62Z" fill="#E1E1E1"/>
<path d="M81.7 75.48C122.083 75.48 154.82 59.4204 154.82 39.61C154.82 19.7995 122.083 3.73999 81.7 3.73999C41.3169 3.73999 8.58 19.7995 8.58 39.61C8.58 59.4204 41.3169 75.48 81.7 75.48Z" fill="url(#paint1_linear)"/>
<path d="M156.91 61.2L157.1 39.71" stroke="#E1E1E1" stroke-width="3.5" stroke-miterlimit="10"/>
<path d="M6.51 60.12L6.44 40.28" stroke="#E1E1E1" stroke-width="3.5" stroke-miterlimit="10"/>
<path opacity="0.2" d="M66.41 97.46C65.09 97.31 62.78 97.01 61.51 96.83C56.95 96.2 53.82 95.65 49.26 94.95C47.65 94.56 46.63 94.34 46.05 94.17C43.09 93.31 42.75 93.23 41.25 92.83L5.95 226.45C5.95 226.45 6.81 228.79 7.48 230.67C9.34 234.75 9.91 236.17 11.96 239.14C14.24 242.45 17.12 245.65 20.16 248.4C23.2 251.15 24.47 252 27.6 254.21C28.37 254.75 30.73 256.11 31.49 256.64C31.98 256.7 32.44 257.38 32.81 257.58L73.48 97.88C70.68 97.74 68.78 97.69 66.41 97.46Z" fill="white"/>
<path opacity="0.2" d="M60.68 268.5C62.03 268.82 62.57 268.74 63.81 268.97C63.96 268.97 64.85 269.21 64.99 269.21C66.08 269.21 66.38 269.4 67.41 269.55L110.02 95.48C108.6 95.8 107.92 95.95 106.4 96.11C105.1 96.25 104.46 96.43 102.43 96.74C102.1 96.79 100.14 97.09 99.81 97.13C97.19 97.29 96.01 97.37 93.65 97.58L51.45 266.32C52.94 266.76 54.51 267.15 56.29 267.54C58.31 268.03 59.07 268.19 60.68 268.5Z" fill="white"/>
<defs>
<linearGradient id="paint0_linear" x1="4.73921" y1="56.8226" x2="158.668" y2="56.8226" gradientUnits="userSpaceOnUse">
<stop stop-color="#EFEFEF"/>
<stop offset="1" stop-color="#CFCFCF"/>
</linearGradient>
<linearGradient id="paint1_linear" x1="20.0814" y1="10.874" x2="143.326" y2="68.3437" gradientUnits="userSpaceOnUse">
<stop stop-color="#F3F3F3"/>
<stop offset="1" stop-color="#D3D4D6"/>
</linearGradient>
</defs>
</svg>
