<?xml version="1.0" encoding="UTF-8" standalone="no"?>
<!-- Generator: Adobe Illustrator 16.0.2, SVG Export Plug-In . SVG Version: 6.00 Build 0)  -->

<svg
   xmlns:dc="http://purl.org/dc/elements/1.1/"
   xmlns:cc="http://creativecommons.org/ns#"
   xmlns:rdf="http://www.w3.org/1999/02/22-rdf-syntax-ns#"
   xmlns:svg="http://www.w3.org/2000/svg"
   xmlns="http://www.w3.org/2000/svg"
   xmlns:sodipodi="http://sodipodi.sourceforge.net/DTD/sodipodi-0.dtd"
   xmlns:inkscape="http://www.inkscape.org/namespaces/inkscape"
   version="1.1"
   id="Logo"
   x="0px"
   y="0px"
   width="231.14458"
   height="193.70898"
   viewBox="0 0 231.14458 193.70898"
   enable-background="new 0 0 612 612"
   xml:space="preserve"
   inkscape:version="0.91 r13725"
   sodipodi:docname="JAMHacks Icon.svg"
   inkscape:export-filename="C:\Users\Ethan\git\jamhacks.ca\res\JAMHacks Icon.png"
   inkscape:export-xdpi="371.69159"
   inkscape:export-ydpi="371.69159"><metadata
     id="metadata53"><rdf:RDF><cc:Work
         rdf:about=""><dc:format>image/svg+xml</dc:format><dc:type
           rdf:resource="http://purl.org/dc/dcmitype/StillImage" /><dc:title></dc:title></cc:Work></rdf:RDF></metadata><defs
     id="defs51" /><sodipodi:namedview
     pagecolor="#ffffff"
     bordercolor="#666666"
     borderopacity="1"
     objecttolerance="10"
     gridtolerance="10"
     guidetolerance="10"
     inkscape:pageopacity="0"
     inkscape:pageshadow="2"
     inkscape:window-width="1920"
     inkscape:window-height="1137"
     id="namedview49"
     showgrid="false"
     inkscape:zoom="1.5424837"
     inkscape:cx="2.5687573"
     inkscape:cy="152.42987"
     inkscape:window-x="1272"
     inkscape:window-y="-8"
     inkscape:window-maximized="1"
     inkscape:current-layer="Logo"
     fit-margin-top="0"
     fit-margin-left="0"
     fit-margin-right="0"
     fit-margin-bottom="0" /><path
     style="fill:#ffffff;fill-opacity:1"
     d="m 9.30469,150.44922 c 0.13321,2.52237 0.59776,4.98201 1.36328,7.35547 0.76552,2.37346 1.83175,4.66088 3.16602,6.83789 1.33427,2.17702 2.93789,4.24471 4.77734,6.17774 1.83945,1.93303 3.91424,3.73154 6.19532,5.37304 2.28107,1.64151 4.7686,3.1253 7.42773,4.42774 2.65913,1.30244 5.49122,2.42401 8.46484,3.33984 2.97363,0.91583 6.08794,1.62574 9.3125,2.10742 3.22456,0.48169 6.55878,0.73438 9.97071,0.73438 l 111.22461,0 c 3.40875,0 6.73931,-0.25269 9.96093,-0.73438 3.22162,-0.48168 6.33373,-1.19159 9.30469,-2.10742 2.97096,-0.91583 5.8022,-2.0374 8.45899,-3.33984 2.65678,-1.30244 5.13888,-2.78623 7.41796,-4.42774 2.27909,-1.6415 4.35354,-3.44001 6.19141,-5.37304 1.83787,-1.93303 3.44031,-4.00072 4.77344,-6.17774 1.33313,-2.17701 2.39723,-4.46443 3.16211,-6.83789 0.76487,-2.37346 1.23018,-4.8331 1.36328,-7.35547 l -212.53516,0 z"
     id="path4205"
     inkscape:export-xdpi="371.69159"
     inkscape:export-ydpi="371.69159"
     inkscape:connector-curvature="0" /><path
     style="fill:#ffffff;fill-opacity:1"
     d="m 42.04493,6.90625 c -0.638,0 -1.24543,0.0966 -1.79883,0.27149 -0.5534,0.1749 -1.05183,0.42765 -1.4707,0.74023 -0.41887,0.31258 -0.75974,0.68463 -0.99414,1.09766 -0.23441,0.41303 -0.36329,0.8675 -0.36329,1.34375 l 0,13.04492 -3.56054,0.62891 c -1.81075,0.32012 -3.55379,0.74919 -5.2168,1.27734 -1.66301,0.52815 -3.24548,1.15612 -4.73828,1.87109 -1.49281,0.71497 -2.89517,1.51786 -4.19531,2.39844 -1.30015,0.88058 -2.49896,1.8383 -3.58399,2.86328 -1.08503,1.02498 -2.05683,2.11746 -2.90429,3.26563 -0.84747,1.14817 -1.57078,2.3514 -2.15821,3.60156 -0.58743,1.25016 -1.0388,2.54602 -1.34375,3.87695 -0.30494,1.33094 -0.46289,2.69739 -0.46289,4.08789 l 0,24.12696 212.63672,0 0,-24.12696 c 0,-1.3905 -0.15792,-2.75695 -0.46289,-4.08789 -0.30497,-1.33093 -0.75628,-2.62679 -1.34375,-3.87695 -0.58747,-1.25016 -1.3107,-2.45339 -2.1582,-3.60156 -0.8475,-1.14817 -1.81924,-2.24065 -2.9043,-3.26563 -1.08506,-1.02498 -2.28383,-1.9827 -3.58399,-2.86328 -1.30015,-0.88058 -2.70253,-1.68347 -4.19531,-2.39844 -1.49278,-0.71497 -3.07534,-1.34294 -4.73828,-1.87109 -1.66294,-0.52815 -3.40617,-0.95722 -5.2168,-1.27734 l -3.5625,-0.62891 0,-13.04492 c 0,-0.476 -0.12888,-0.93077 -0.36328,-1.34375 -0.2344,-0.41298 -0.57527,-0.78502 -0.99414,-1.09766 -0.41887,-0.31264 -0.9173,-0.56525 -1.4707,-0.74023 -0.5534,-0.17498 -1.16083,-0.27149 -1.79883,-0.27149 l -147.05273,0 z"
     id="path4201"
     inkscape:export-xdpi="371.69159"
     inkscape:export-ydpi="371.69159"
     inkscape:connector-curvature="0" /><path
     d="m 203.06738,45.72641 c -16.898,4.991 -35.57,9.128 -53.319,8.439 -17.451,-0.678 -34.085,-7.491 -50.845,-11.537 -16.771,-4.057 -35.534,-5.613 -52.053,0.178 -9.025,3.167 -17.278,7.858 -25.083,13.193 l 0,1.028 0,15.834 0,73.083 c 0,1.398 0.131,2.772 0.394,4.122 2.778,15.47 21.137,27.422 43.376,27.422 l 100.083,0 c 22.254,0 40.629,-11.952 43.408,-27.422 0.262,-1.35 0.393,-2.724 0.393,-4.122 l 0,-88.498 0,-0.419 0,-10.014 c -1.511,-1.394 -3.697,-2.076 -6.354,-1.287 z"
     id="path6"
     inkscape:connector-curvature="0"
     style="fill:#493a98;fill-opacity:1"
     inkscape:export-xdpi="371.69159"
     inkscape:export-ydpi="371.69159" /><g
     id="g4207"
     inkscape:export-xdpi="371.69159"
     inkscape:export-ydpi="371.69159"
     transform="translate(-184.01562,-214.55859)"><path
       id="path4203"
       d="m 193.26953,292.86719 0,65.23437 212.63672,0 0,-65.23437 -212.63672,0 z"
       style="fill:#ffffff;fill-opacity:1"
       inkscape:connector-curvature="0" /><g
       id="g4161"><path
         style="fill:#493a98;fill-opacity:1"
         inkscape:connector-curvature="0"
         id="path23"
         d="m 207.277,313.469 c 0.309,-0.057 0.802,-0.135 1.478,-0.232 0.675,-0.098 1.323,-0.147 1.942,-0.147 0.646,0 1.217,0.05 1.709,0.147 0.492,0.098 0.907,0.275 1.246,0.527 0.338,0.253 0.591,0.604 0.76,1.056 0.169,0.452 0.253,1.042 0.253,1.773 l 0,15.624 c 0,2.505 -0.718,4.384 -2.154,5.636 -1.436,1.251 -3.546,1.878 -6.333,1.878 -1.465,0 -2.647,-0.226 -3.547,-0.675 -0.648,-0.31 -1.12,-0.732 -1.415,-1.267 -0.295,-0.534 -0.443,-1.141 -0.443,-1.816 0,-0.563 0.077,-1.054 0.233,-1.477 0.154,-0.423 0.343,-0.761 0.569,-1.015 0.535,0.114 0.992,0.191 1.374,0.232 0.379,0.042 0.794,0.063 1.246,0.063 1.097,0 1.884,-0.274 2.364,-0.822 0.478,-0.55 0.718,-1.358 0.718,-2.429 l 0,-17.056 z" /><path
         style="fill:#493a98;fill-opacity:1"
         inkscape:connector-curvature="0"
         id="path25"
         d="m 223.172,314.229 c 0.479,-0.28 1.204,-0.549 2.175,-0.803 0.971,-0.252 1.948,-0.38 2.934,-0.38 1.407,0 2.653,0.204 3.737,0.613 1.083,0.406 1.78,1.048 2.09,1.921 0.507,1.464 1.056,3.166 1.647,5.107 0.591,1.943 1.182,3.949 1.773,6.019 0.591,2.068 1.168,4.109 1.731,6.122 0.563,2.014 1.055,3.793 1.478,5.341 -0.338,0.396 -0.845,0.712 -1.521,0.95 -0.675,0.238 -1.478,0.359 -2.406,0.359 -0.676,0 -1.246,-0.058 -1.71,-0.171 -0.465,-0.111 -0.844,-0.28 -1.14,-0.505 -0.296,-0.225 -0.535,-0.521 -0.719,-0.888 -0.182,-0.364 -0.344,-0.787 -0.485,-1.267 l -0.76,-2.913 -7.642,0 c -0.226,0.845 -0.451,1.718 -0.676,2.618 -0.225,0.901 -0.45,1.772 -0.675,2.618 -0.394,0.141 -0.809,0.259 -1.246,0.358 -0.437,0.098 -0.964,0.148 -1.583,0.148 -1.436,0 -2.499,-0.248 -3.188,-0.739 -0.691,-0.493 -1.035,-1.176 -1.035,-2.048 0,-0.396 0.057,-0.789 0.169,-1.183 0.113,-0.395 0.239,-0.858 0.38,-1.393 0.196,-0.762 0.472,-1.703 0.823,-2.83 0.352,-1.125 0.739,-2.344 1.162,-3.653 0.422,-1.309 0.872,-2.651 1.35,-4.03 0.479,-1.378 0.93,-2.681 1.351,-3.905 0.423,-1.226 0.81,-2.316 1.162,-3.273 0.353,-0.955 0.628,-1.687 0.824,-2.193 z m 5.067,5.447 c -0.395,1.183 -0.838,2.498 -1.331,3.946 -0.493,1.451 -0.935,2.921 -1.33,4.414 l 5.235,0 c -0.394,-1.521 -0.795,-3.005 -1.203,-4.455 -0.408,-1.45 -0.781,-2.751 -1.119,-3.905 l -0.252,0 z" /><path
         style="fill:#493a98;fill-opacity:1"
         inkscape:connector-curvature="0"
         id="path27"
         d="m 260.739,332.764 c -0.366,0.312 -0.838,0.557 -1.415,0.739 -0.577,0.184 -1.246,0.274 -2.006,0.274 -1.013,0 -1.851,-0.127 -2.512,-0.38 -0.662,-0.254 -1.092,-0.688 -1.288,-1.31 -0.788,-2.477 -1.436,-4.481 -1.942,-6.016 -0.507,-1.534 -0.902,-2.878 -1.183,-4.032 l -0.21,0 c -0.085,1.661 -0.148,3.173 -0.191,4.539 -0.042,1.365 -0.071,2.695 -0.084,3.989 -0.014,1.295 -0.042,2.604 -0.084,3.928 -0.042,1.322 -0.106,2.786 -0.19,4.391 -0.367,0.141 -0.844,0.26 -1.436,0.359 -0.591,0.099 -1.182,0.147 -1.773,0.147 -1.239,0 -2.203,-0.197 -2.892,-0.591 -0.69,-0.395 -1.035,-1.111 -1.035,-2.154 l 1.224,-21.533 c 0.225,-0.365 0.718,-0.76 1.479,-1.183 0.759,-0.421 1.829,-0.632 3.208,-0.632 1.493,0 2.661,0.231 3.505,0.695 0.844,0.464 1.462,1.218 1.857,2.259 0.254,0.676 0.528,1.45 0.824,2.323 0.295,0.872 0.591,1.773 0.887,2.702 0.295,0.928 0.584,1.851 0.866,2.765 0.281,0.916 0.534,1.738 0.759,2.471 l 0.211,0 c 0.676,-2.363 1.351,-4.651 2.027,-6.862 0.675,-2.21 1.294,-4.06 1.857,-5.552 0.422,-0.225 0.964,-0.414 1.626,-0.569 0.661,-0.155 1.399,-0.231 2.217,-0.231 1.379,0 2.505,0.204 3.377,0.611 0.873,0.408 1.379,0.992 1.521,1.752 0.112,0.564 0.232,1.43 0.358,2.597 0.128,1.168 0.26,2.483 0.401,3.947 0.141,1.464 0.282,3.015 0.423,4.646 0.141,1.631 0.274,3.2 0.401,4.706 0.126,1.506 0.231,2.885 0.317,4.138 0.083,1.253 0.14,2.217 0.168,2.893 -0.478,0.283 -0.978,0.485 -1.499,0.612 -0.521,0.127 -1.188,0.19 -2.005,0.19 -1.07,0 -1.971,-0.184 -2.702,-0.549 -0.733,-0.367 -1.126,-1.083 -1.182,-2.153 -0.169,-3.068 -0.275,-5.827 -0.317,-8.275 -0.042,-2.451 -0.106,-4.504 -0.19,-6.165 l -0.211,0 c -0.282,1.099 -0.69,2.478 -1.224,4.137 -0.535,1.662 -1.182,3.788 -1.942,6.377 z" /><path
         style="fill:#493a98;fill-opacity:1"
         inkscape:connector-curvature="0"
         id="path29"
         d="m 298.433,338.887 c -0.31,0.085 -0.795,0.169 -1.456,0.254 -0.662,0.084 -1.317,0.126 -1.964,0.126 -0.647,0 -1.218,-0.051 -1.71,-0.147 -0.492,-0.099 -0.907,-0.274 -1.246,-0.528 -0.337,-0.253 -0.591,-0.604 -0.759,-1.056 -0.169,-0.45 -0.253,-1.041 -0.253,-1.773 l 0,-6.588 -8.107,0 0,9.713 c -0.309,0.085 -0.795,0.169 -1.456,0.254 -0.663,0.084 -1.316,0.126 -1.964,0.126 -0.647,0 -1.218,-0.051 -1.709,-0.147 -0.493,-0.099 -0.908,-0.274 -1.246,-0.528 -0.338,-0.253 -0.592,-0.604 -0.76,-1.056 -0.169,-0.45 -0.253,-1.041 -0.253,-1.773 l 0,-22.293 c 0.309,-0.057 0.802,-0.135 1.478,-0.232 0.676,-0.097 1.322,-0.147 1.942,-0.147 0.648,0 1.217,0.05 1.71,0.147 0.492,0.098 0.908,0.275 1.246,0.527 0.338,0.253 0.591,0.604 0.76,1.056 0.168,0.452 0.252,1.042 0.252,1.773 l 0,6.757 8.107,0 0,-9.881 c 0.31,-0.057 0.802,-0.135 1.478,-0.232 0.676,-0.097 1.323,-0.147 1.943,-0.147 0.646,0 1.217,0.05 1.71,0.147 0.491,0.098 0.906,0.275 1.245,0.527 0.337,0.253 0.591,0.604 0.759,1.056 0.169,0.452 0.253,1.042 0.253,1.773 l 0,22.292 z" /><path
         style="fill:#493a98;fill-opacity:1"
         inkscape:connector-curvature="0"
         id="path31"
         d="m 308.217,314.229 c 0.479,-0.28 1.203,-0.549 2.175,-0.803 0.973,-0.252 1.949,-0.38 2.934,-0.38 1.408,0 2.654,0.204 3.736,0.613 1.085,0.406 1.78,1.048 2.092,1.921 0.507,1.464 1.056,3.166 1.646,5.107 0.591,1.943 1.184,3.949 1.775,6.019 0.591,2.068 1.166,4.109 1.729,6.122 0.563,2.014 1.057,3.793 1.477,5.341 -0.336,0.396 -0.843,0.712 -1.519,0.95 -0.677,0.238 -1.479,0.359 -2.406,0.359 -0.675,0 -1.245,-0.058 -1.711,-0.171 -0.465,-0.111 -0.843,-0.28 -1.139,-0.505 -0.296,-0.225 -0.537,-0.521 -0.719,-0.888 -0.184,-0.364 -0.345,-0.787 -0.486,-1.267 l -0.759,-2.913 -7.642,0 c -0.226,0.845 -0.451,1.718 -0.676,2.618 -0.228,0.901 -0.452,1.772 -0.677,2.618 -0.394,0.141 -0.81,0.259 -1.246,0.358 -0.437,0.098 -0.963,0.148 -1.583,0.148 -1.436,0 -2.498,-0.248 -3.188,-0.739 -0.689,-0.493 -1.034,-1.176 -1.034,-2.048 0,-0.396 0.056,-0.789 0.169,-1.183 0.112,-0.395 0.24,-0.858 0.38,-1.393 0.195,-0.762 0.471,-1.703 0.823,-2.83 0.352,-1.125 0.738,-2.344 1.161,-3.653 0.423,-1.309 0.871,-2.651 1.35,-4.03 0.48,-1.378 0.93,-2.681 1.353,-3.905 0.421,-1.226 0.807,-2.316 1.161,-3.273 0.352,-0.955 0.628,-1.687 0.824,-2.193 z m 5.067,5.447 c -0.396,1.183 -0.838,2.498 -1.33,3.946 -0.492,1.451 -0.937,2.921 -1.33,4.414 l 5.235,0 c -0.395,-1.521 -0.795,-3.005 -1.203,-4.455 -0.408,-1.45 -0.781,-2.751 -1.119,-3.905 l -0.253,0 z" /><path
         style="fill:#493a98;fill-opacity:1"
         inkscape:connector-curvature="0"
         id="path33"
         d="m 340.716,318.619 c -2.166,0 -3.827,0.661 -4.981,1.985 -1.155,1.324 -1.73,3.194 -1.73,5.616 0,2.448 0.639,4.334 1.921,5.656 1.279,1.323 3.005,1.984 5.173,1.984 1.152,0 2.132,-0.154 2.935,-0.464 0.802,-0.309 1.568,-0.661 2.3,-1.056 0.479,0.395 0.852,0.865 1.118,1.414 0.269,0.549 0.403,1.189 0.403,1.922 0,1.154 -0.642,2.133 -1.921,2.935 -1.282,0.803 -3.232,1.202 -5.849,1.202 -1.886,0 -3.66,-0.268 -5.321,-0.801 -1.66,-0.536 -3.109,-1.358 -4.349,-2.471 -1.238,-1.11 -2.215,-2.519 -2.934,-4.223 -0.719,-1.702 -1.077,-3.736 -1.077,-6.1 0,-2.197 0.346,-4.131 1.034,-5.807 0.69,-1.675 1.633,-3.088 2.829,-4.243 1.196,-1.155 2.597,-2.027 4.201,-2.618 1.604,-0.591 3.321,-0.887 5.149,-0.887 2.592,0 4.597,0.423 6.02,1.267 1.421,0.845 2.132,1.929 2.132,3.252 0,0.731 -0.184,1.366 -0.55,1.9 -0.366,0.534 -0.788,0.957 -1.267,1.267 -0.731,-0.479 -1.513,-0.887 -2.343,-1.226 -0.832,-0.334 -1.795,-0.504 -2.893,-0.504 z" /><path
         style="fill:#493a98;fill-opacity:1"
         inkscape:connector-curvature="0"
         id="path35"
         d="m 358.061,329.555 0,9.332 c -0.312,0.085 -0.803,0.169 -1.479,0.254 -0.677,0.084 -1.338,0.126 -1.983,0.126 -0.65,0 -1.219,-0.051 -1.712,-0.147 -0.493,-0.099 -0.906,-0.274 -1.245,-0.528 -0.337,-0.253 -0.592,-0.604 -0.76,-1.056 -0.169,-0.45 -0.254,-1.041 -0.254,-1.773 l 0,-22.293 c 0.312,-0.057 0.803,-0.135 1.479,-0.232 0.676,-0.098 1.322,-0.147 1.94,-0.147 0.647,0 1.218,0.05 1.71,0.147 0.493,0.098 0.908,0.275 1.245,0.527 0.339,0.253 0.591,0.604 0.762,1.056 0.167,0.452 0.251,1.042 0.251,1.773 l 0,6.714 8.784,-10.093 c 1.914,0 3.286,0.36 4.116,1.078 0.83,0.718 1.245,1.569 1.245,2.555 0,0.731 -0.183,1.423 -0.548,2.068 -0.366,0.646 -0.957,1.379 -1.773,2.195 l -5.278,5.277 c 0.703,0.789 1.443,1.605 2.217,2.451 0.774,0.842 1.535,1.665 2.28,2.468 0.745,0.803 1.464,1.571 2.153,2.303 0.689,0.732 1.288,1.365 1.795,1.899 0,0.619 -0.114,1.17 -0.338,1.646 -0.226,0.479 -0.527,0.887 -0.907,1.225 -0.38,0.338 -0.81,0.592 -1.288,0.761 -0.48,0.167 -0.987,0.253 -1.521,0.253 -1.154,0 -2.095,-0.29 -2.827,-0.865 -0.733,-0.577 -1.437,-1.26 -2.112,-2.049 l -5.952,-6.925 z" /><path
         style="fill:#493a98;fill-opacity:1"
         inkscape:connector-curvature="0"
         id="path37"
         d="m 383.857,328.88 c -1.24,-0.423 -2.365,-0.852 -3.379,-1.287 -1.013,-0.437 -1.885,-0.964 -2.617,-1.584 -0.733,-0.619 -1.301,-1.358 -1.711,-2.217 -0.406,-0.858 -0.611,-1.906 -0.611,-3.145 0,-2.394 0.921,-4.308 2.766,-5.743 1.844,-1.436 4.426,-2.153 7.748,-2.153 1.21,0 2.335,0.083 3.379,0.254 1.038,0.169 1.935,0.43 2.68,0.78 0.745,0.352 1.33,0.802 1.753,1.352 0.423,0.549 0.634,1.188 0.634,1.921 0,0.731 -0.17,1.358 -0.507,1.879 -0.339,0.521 -0.747,0.964 -1.226,1.331 -0.62,-0.396 -1.45,-0.739 -2.491,-1.035 -1.041,-0.296 -2.182,-0.443 -3.421,-0.443 -1.266,0 -2.195,0.176 -2.786,0.527 -0.591,0.353 -0.886,0.795 -0.886,1.331 0,0.422 0.184,0.765 0.549,1.034 0.366,0.267 0.914,0.513 1.646,0.738 l 2.238,0.718 c 2.646,0.843 4.679,1.922 6.101,3.229 1.421,1.311 2.132,3.09 2.132,5.342 0,2.394 -0.942,4.328 -2.828,5.806 -1.887,1.478 -4.658,2.216 -8.318,2.216 -1.295,0 -2.498,-0.104 -3.61,-0.315 -1.112,-0.212 -2.084,-0.521 -2.913,-0.931 -0.83,-0.406 -1.478,-0.914 -1.941,-1.52 -0.466,-0.605 -0.697,-1.301 -0.697,-2.09 0,-0.816 0.238,-1.514 0.719,-2.091 0.477,-0.575 0.998,-1.019 1.562,-1.329 0.788,0.62 1.752,1.153 2.894,1.604 1.139,0.449 2.384,0.676 3.736,0.676 1.377,0 2.349,-0.211 2.912,-0.634 0.563,-0.422 0.845,-0.913 0.845,-1.477 0,-0.563 -0.225,-0.994 -0.675,-1.288 -0.451,-0.296 -1.084,-0.585 -1.9,-0.867 l -1.777,-0.589 z" /></g></g><path
     style="fill:#282828"
     d="m 42.04688,0 c -7.654,0 -13.88281,4.64738 -13.88281,10.35938 l 0,7.70898 C 11.40707,22.22236 0,33.86539 0,47.27539 l 0,24.12696 0,6.90625 0,70.63281 0,1.50781 0.0508,0 c 1.07103,23.98848 27.53301,43.25977 59.93164,43.25977 l 111.22461,0 c 32.37119,0 58.81644,-19.27129 59.88672,-43.25977 l 0.0508,0 0,-72.14062 0,-6.90625 0,-24.12696 c 0,-13.41 -11.40807,-25.05303 -28.16407,-29.20703 l 0,-7.70898 C 202.9805,4.64738 196.75269,0 189.09769,0 L 42.04691,0 Z m -0.002,6.90625 147.05273,0 c 2.552,0 4.62695,1.54913 4.62695,3.45313 l 0,13.04492 3.5625,0.62891 c 14.485,2.561 24.60352,12.11818 24.60352,23.24218 l 0,24.12696 -212.63672,0 0,-24.12696 c 0,-11.124 10.11752,-20.68118 24.60352,-23.24218 l 3.56054,-0.62891 0,-13.04492 c 0,-1.905 2.07496,-3.45313 4.62696,-3.45313 z M 9.25386,78.3086 l 212.63672,0 0,65.23437 -212.63672,0 0,-65.23437 z m 0.0508,72.14062 212.53516,0 c -1.06477,20.17891 -23.36276,36.35352 -50.63281,36.35352 l -111.22461,0 c -27.29545,0 -49.61206,-16.17459 -50.67774,-36.35352 z"
     id="path10"
     inkscape:connector-curvature="0"
     inkscape:export-xdpi="371.69159"
     inkscape:export-ydpi="371.69159" /></svg>