<?xml version="1.0" encoding="UTF-8" standalone="no"?>
<!-- Created with Inkscape (http://www.inkscape.org/) -->

<svg
   xmlns:dc="http://purl.org/dc/elements/1.1/"
   xmlns:cc="http://creativecommons.org/ns#"
   xmlns:rdf="http://www.w3.org/1999/02/22-rdf-syntax-ns#"
   xmlns:svg="http://www.w3.org/2000/svg"
   xmlns="http://www.w3.org/2000/svg"
   xmlns:sodipodi="http://sodipodi.sourceforge.net/DTD/sodipodi-0.dtd"
   xmlns:inkscape="http://www.inkscape.org/namespaces/inkscape"
   version="1.1"
   id="svg3788"
   width="682.66669"
   height="682.66669"
   viewBox="0 0 682.66669 682.66669"
   sodipodi:docname="grapes.svg"
   inkscape:version="0.92.3 (2405546, 2018-03-11)">
  <metadata
     id="metadata3794">
    <rdf:RDF>
      <cc:Work
         rdf:about="">
        <dc:format>image/svg+xml</dc:format>
        <dc:type
           rdf:resource="http://purl.org/dc/dcmitype/StillImage" />
        <dc:title />
      </cc:Work>
    </rdf:RDF>
  </metadata>
  <defs
     id="defs3792" />
  <sodipodi:namedview
     pagecolor="#ffffff"
     bordercolor="#666666"
     borderopacity="1"
     objecttolerance="10"
     gridtolerance="10"
     guidetolerance="10"
     inkscape:pageopacity="0"
     inkscape:pageshadow="2"
     inkscape:window-width="1366"
     inkscape:window-height="706"
     id="namedview3790"
     showgrid="false"
     inkscape:zoom="0.78662107"
     inkscape:cx="158.41155"
     inkscape:cy="324.51724"
     inkscape:window-x="-8"
     inkscape:window-y="-8"
     inkscape:window-maximized="1"
     inkscape:current-layer="g3808" />
  <g
     id="g3808"
     transform="matrix(0.74723447,0,0,0.75293555,86.039196,74.063756)">
    <path
       style="fill:#e194fd;stroke-width:1.33333337"
       d="m 246.4136,627.94273 c -56.10833,-6.54296 -99.47049,-58.63938 -95.2253,-114.40614 2.24101,-29.43909 13.66628,-53.58257 34.53116,-72.97003 21.82065,-20.27556 44.50488,-29.16485 74.28055,-29.10839 18.41295,0.0349 29.9388,2.49579 46.17979,9.8598 46.66916,21.16082 71.79051,74.41945 59.1252,125.34872 -10.73125,43.15209 -47.59304,75.73256 -91.93668,81.25866 -12.37434,1.5421 -13.87144,1.54306 -26.95472,0.0173 z"
       id="path3818"
       inkscape:connector-curvature="0"
       sodipodi:nodetypes="csssssscc" />
    <path
       style="fill:#d25dfd;stroke-width:1.33333337"
       d="m 197.33334,404.42733 c -34.91164,-3.58525 -66.48341,-25.55433 -81.92935,-57.01018 -8.5559,-17.42422 -10.58841,-26.24615 -10.61737,-46.08381 -0.0286,-19.5911 2.81982,-31.71536 11.25922,-47.92454 13.39944,-25.73574 37.54123,-44.89991 66.62083,-52.88477 11.95296,-3.28212 38.68038,-3.28742 50.66667,-0.0107 33.8217,9.24774 60.77576,33.99073 72.2016,66.27883 7.88508,22.2823 7.88206,45.73848 -0.009,68.63162 -5.22007,15.14442 -10.93067,24.39721 -22.7966,36.93685 -22.38507,23.6571 -53.50314,35.34188 -85.39567,32.06666 z"
       id="path3816"
       inkscape:connector-curvature="0"
       sodipodi:nodetypes="csssscscccc" />
    <path
       style="fill:#b65dfd;stroke-width:1.33333337"
       d="m 456.66668,517.1713 c -14.17497,-1.14263 -21.78707,-3.16146 -35.12469,-9.31551 -48.6268,-22.43667 -73.28856,-74.08734 -60.1521,-125.9803 9.53846,-37.67973 39.6587,-67.68901 78.42926,-78.14035 14.23548,-3.83742 39.33629,-3.8014 53.88652,0.0773 30.69877,8.18358 55.80259,28.65234 69.72852,56.85417 8.42636,17.06446 11.40516,29.82154 11.36379,48.66667 -0.0923,42.00371 -22.19176,78.01854 -59.28967,96.62222 -19.19259,9.6246 -36.84333,12.98898 -58.84163,11.21573 z"
       id="path3814"
       inkscape:connector-curvature="0"
       sodipodi:nodetypes="cssccscscc" />
    <path
       style="fill:#7f5f55;stroke-width:1.33333337"
       d="m 309.41077,404.07744 c -3.32184,-3.32184 -3.2808,-3.5492 4.9474,-27.41076 7.05633,-20.46321 13.73568,-34.23895 22.10767,-45.59571 l 6.09085,-8.26239 -6.05555,2.59572 c -3.33054,1.42764 -7.48469,2.59571 -9.23142,2.59571 -3.42023,0 -6.3791,-3.96153 -5.21827,-6.9866 0.38971,-1.01555 7.34069,-5.05347 15.44663,-8.97317 15.93072,-7.70346 25.81713,-13.73768 39.58984,-24.1639 10.30973,-7.80466 15.28572,-8.4407 16.01633,-2.04724 0.24067,2.106 -0.16013,4.4268 -0.89065,5.15732 -1.39115,1.39115 -1.06245,5.90772 1.35816,18.6621 1.12472,5.92621 1.07443,8.10294 -0.22333,9.66666 -4.36386,5.25811 -9.8105,0.4462 -11.84962,-10.46869 -0.64764,-3.46664 -1.61436,-6.72528 -2.14828,-7.2414 -1.29518,-1.25205 -21.55424,20.28451 -31.69101,33.68943 -9.60644,12.70361 -16.30387,26.63123 -24.27932,50.49001 -6.57244,19.66162 -9.18266,23.07968 -13.96943,18.29291 z"
       id="path3812"
       inkscape:connector-curvature="0"
       sodipodi:nodetypes="ssccsscsscsscscsss" />
    <path
       style="fill:#45b02f;stroke-width:1.33333337"
       d="m 464.00002,285.22384 c -8.03867,-6.89226 -17.38676,-10.69051 -26.96602,-10.95668 -7.46181,-0.20732 -9.22811,0.23108 -13.23057,3.2839 l -4.61911,3.52318 -1.58356,-20.20379 c -2.31024,-29.47527 -1.5434,-28.44474 -12.54609,-16.86019 -5.56731,5.86174 -11.05136,13.35459 -13.86823,18.94814 -3.80373,7.5532 -5.00183,8.96805 -6.52421,7.70458 -1.46531,-1.21609 -3.0929,-0.70644 -7.59686,2.37888 -10.275,7.0386 -16.61645,9.62482 -23.60021,9.62482 -7.64565,0 -9.16812,-1.31552 -5.43371,-4.69512 6.36251,-5.75799 0.02,-12.63822 -11.65052,-12.63822 h -7.25947 l 0.90815,-4.13478 c 1.56764,-7.13739 -1.85453,-15.84996 -8.9402,-22.76101 l -6.38651,-6.22913 3.29916,-5.77087 c 5.29892,-9.26885 3.85195,-20.9256 -3.85118,-31.02494 -3.72987,-4.8901 -3.6167,-5.19923 2.43448,-6.65024 2.15526,-0.51682 5.66062,-2.18006 7.78969,-3.69608 4.04005,-2.87678 4.28577,-5.38024 1.57691,-16.06628 -0.86434,-3.40963 -0.64059,-3.66667 3.1917,-3.66667 6.16635,0 8.75538,-5.78091 8.5553,-19.10258 -0.13927,-9.27204 0.0919,-10.331 2.07214,-9.49521 7.3803,3.11485 8.03453,2.7274 12.79598,-7.57816 3.8858,-8.4103 6.8232,-18.01601 10.64912,-34.824053 1.08136,-4.750661 2.8752,-4.646701 5.44117,0.315336 2.54266,4.91695 9.83834,13.351327 11.5488,13.351327 0.69479,0 2.14068,-2.1 3.21311,-4.66666 2.97925,-7.130373 4.5776,-5.627951 4.61001,4.33333 0.0289,8.91175 3.13495,18.83538 6.55719,20.95043 2.76957,1.7117 8.27309,-3.38284 11.67008,-10.80285 2.28568,-4.99257 3.56797,-10.63497 4.06505,-17.887044 0.74439,-10.860472 2.10927,-13.14115 4.34507,-7.260536 0.69703,1.833333 1.87841,3.333333 2.62531,3.333333 2.05462,0 8.15998,-9.079195 13.29894,-19.77668 4.58391,-9.542054 6.74242,-11.79509 6.74242,-7.037699 0,3.345026 4.00649,7.900409 7.33333,8.338007 8.53806,1.123057 19.4336,-5.993151 24.02012,-15.68828 1.86524,-3.942774 3.87746,-7.168682 4.47159,-7.168682 0.59413,0 1.76369,1.5 2.59903,3.333333 2.50032,5.487614 8.1392,4.410836 23.45232,-4.478355 13.29312,-7.716589 34.79762,-17.292078 36.04129,-16.048406 0.35268,0.352671 -0.53453,4.418923 -1.97156,9.036117 -2.86656,9.210275 -3.36092,20.743314 -1.21964,28.453355 1.17865,4.243932 2.14315,5.168671 6.65923,6.384727 2.90453,0.782107 5.28096,1.633366 5.28096,1.891683 0,0.258319 -1.18683,3.085192 -2.63739,6.281941 -1.89745,4.181618 -2.6456,8.748313 -2.66666,16.277436 -0.0348,12.46384 2.04876,17.68192 9.66313,24.19954 l 5.34679,4.57664 -10.70198,11.71267 c -5.88608,6.44196 -11.96989,12.85564 -13.5196,14.25264 -1.54969,1.39699 -2.81763,3.02387 -2.81763,3.61527 0,2.00504 9.93403,3.68195 30.62635,5.16984 11.3445,0.81575 20.9445,1.82168 21.33334,2.23541 0.38884,0.41374 -0.3783,1.43188 -1.70476,2.26254 -1.32646,0.83066 -5.97572,3.74457 -10.3317,6.47537 -13.36016,8.37559 -16.64618,18.38275 -9.90716,30.17101 1.8245,3.19152 3.31727,6.2734 3.31727,6.84862 0,0.57521 -2.85,1.47106 -6.33333,1.99078 -12.51506,1.86728 -19.78398,6.51395 -24.4631,15.63806 -2.87827,5.61253 -3.20295,10.74459 -1.06732,16.87084 2.56197,7.34931 1.56389,7.89416 -10.99801,6.00377 -15.01883,-2.26009 -27.14152,-2.23724 -31.53779,0.0595 -9.46747,4.94604 -15.40381,15.65095 -14.07111,25.37416 1.01355,7.3946 -0.68341,7.83831 -7.52934,1.96871 z"
       id="path3810"
       inkscape:connector-curvature="0" />
  </g>
</svg>
