<?xml version="1.0" encoding="UTF-8" standalone="no"?>
<!-- Created with Inkscape (http://www.inkscape.org/) -->

<svg
   xmlns:dc="http://purl.org/dc/elements/1.1/"
   xmlns:cc="http://creativecommons.org/ns#"
   xmlns:rdf="http://www.w3.org/1999/02/22-rdf-syntax-ns#"
   xmlns:svg="http://www.w3.org/2000/svg"
   xmlns="http://www.w3.org/2000/svg"
   xmlns:sodipodi="http://sodipodi.sourceforge.net/DTD/sodipodi-0.dtd"
   xmlns:inkscape="http://www.inkscape.org/namespaces/inkscape"
   version="1.1"
   id="svg3828"
   width="682.66669"
   height="682.66669"
   viewBox="0 0 682.66669 682.66669"
   sodipodi:docname="peach.svg"
   inkscape:version="0.92.3 (2405546, 2018-03-11)">
  <metadata
     id="metadata3834">
    <rdf:RDF>
      <cc:Work
         rdf:about="">
        <dc:format>image/svg+xml</dc:format>
        <dc:type
           rdf:resource="http://purl.org/dc/dcmitype/StillImage" />
        <dc:title />
      </cc:Work>
    </rdf:RDF>
  </metadata>
  <defs
     id="defs3832" />
  <sodipodi:namedview
     pagecolor="#ffffff"
     bordercolor="#666666"
     borderopacity="1"
     objecttolerance="10"
     gridtolerance="10"
     guidetolerance="10"
     inkscape:pageopacity="0"
     inkscape:pageshadow="2"
     inkscape:window-width="1366"
     inkscape:window-height="706"
     id="namedview3830"
     showgrid="false"
     inkscape:zoom="1.5732421"
     inkscape:cx="317.17368"
     inkscape:cy="359.91264"
     inkscape:window-x="-8"
     inkscape:window-y="-8"
     inkscape:window-maximized="1"
     inkscape:current-layer="g3846" />
  <g
     id="g3846"
     transform="matrix(0.80466206,0,0,0.80466206,74.078485,78.440294)">
    <path
       style="fill:#fdda66;stroke-width:1.33333337"
       d="m 408.66668,611.20322 c -2.2,-0.28692 -10.6,-1.17573 -18.66667,-1.97513 -49.63079,-4.91834 -94.59807,-17.89506 -137.20475,-39.59472 -39.62177,-20.17944 -84.32221,-57.80866 -104.25043,-87.75893 -9.07416,-13.63762 -19.43497,-35.46857 -25.17841,-53.05265 -15.77173,-48.28672 -9.71632,-102.25147 16.45405,-146.63537 21.05322,-35.70541 51.07652,-58.23501 90.0606,-67.58179 17.30917,-4.15002 64.46435,-3.20378 89.45227,1.79499 l 8,1.60039 4.94683,9.33333 c 2.72075,5.13333 9.81206,21.03334 15.75844,35.33334 9.71299,23.358 10.58138,26.13549 8.54586,27.33333 -21.00178,12.35897 -34.17527,31.20297 -38.78455,55.47928 -3.98411,20.98364 -0.88747,40.81287 9.76308,62.51731 5.18797,10.57243 8.10361,14.539 17.65883,24.02393 17.76768,17.63703 33.45093,24.54015 55.44485,24.40458 6.90444,-0.0425 14.67093,-0.93684 18.29001,-2.10601 l 6.29003,-2.03203 5.53292,14.18981 c 11.88202,30.47274 25.62163,73.72054 33.73599,106.18981 7.18355,28.74468 8.94009,36.98864 8.06741,37.86262 -0.8949,0.89626 -57.62527,1.49439 -63.91636,0.67391 z m 68.75454,-22.96309 c 0,0 -1e-5,0 -2e-5,0 z M 202.99608,151.60102 c -41.52992,-0.89492 -61.75455,-7.05379 -62.06975,-25.58292 100.4413,13.86433 106.14187,25.18077 62.06975,25.58292 z m 146.92463,0.18322 c 15.25253,-48.25216 21.81859,-9.14775 30.24642,-67.293855 20.47352,1.110709 22.52403,25.312465 -0.46646,51.140535 -8.65682,9.56612 -9.59422,13.91739 -21.52322,18.9355 -15.6179,6.5699 -8.31041,4.62704 -8.25674,-2.78218 z"
       id="path3854"
       inkscape:connector-curvature="0"
       sodipodi:nodetypes="cssssssccsscssccccsscccccccccccsc" />
    <path
       style="fill:#f49655;stroke-width:1.33333337"
       d="m 478.28098,590.02785 c -8.02612,-35.8949 -24.86315,-91.18403 -37.59256,-123.44586 -3.30914,-8.38675 -6.01775,-15.94753 -6.01917,-16.80175 -10e-4,-0.85421 2.92114,-3.6993 6.49455,-6.32242 27.66596,-20.30869 37.99051,-62.43579 24.53862,-100.12447 -9.00986,-25.24325 -29.73199,-47.08989 -53.40234,-56.30027 -7.53615,-2.9324 -11.20033,-3.50587 -22.96673,-3.5944 -7.7,-0.058 -15.85584,0.31084 -18.12408,0.81948 l -4.12408,0.92481 -7.79864,-19.59148 C 354.99728,254.81618 347.9926,238.89581 343.72057,230.2129 l -7.76731,-15.78711 4.88322,-8.21289 c 9.40796,-15.82291 19.18629,-27.36376 30.31744,-35.78215 21.20319,-16.03574 44.17252,-23.72905 70.8461,-23.72905 37.05692,0 70.43297,15.38379 102.61659,47.29831 16.63176,16.4927 28.50529,32.85709 38.69716,53.33333 17.69682,35.55428 23.05665,63.38324 21.57108,112.00001 -1.33344,43.63837 -7.48291,73.5859 -23.13515,112.66667 -14.28016,35.65497 -29.08668,58.97044 -59.69483,94 -10.89035,12.46349 -38.12872,40.66812 -39.27037,40.66347 -0.43147,-10e-4 -2.45804,-7.4878 -4.50352,-16.63564 z"
       id="path3852"
       inkscape:connector-curvature="0"
       sodipodi:nodetypes="cccsssccccscccsssssscc" />
    <path
       style="fill:#3a9543;stroke-width:1.33333337"
       d="m 390.66668,447.10691 c -6.69907,-1.06505 -19.51396,-6.25652 -26.59091,-10.77228 -41.00419,-26.16459 -51.43432,-90.55434 -20.1831,-124.59903 19.07385,-20.77883 46.60912,-25.28802 73.44068,-12.02671 11.40721,5.63795 29.02669,23.90776 34.99927,36.29112 12.58238,26.08796 13.18284,53.48644 1.68428,76.85396 -11.95406,24.29318 -37.86745,38.30433 -63.35022,34.25294 z M 294.00001,195.86209 c -15.72187,-10.4518 -38.97788,-21.69718 -50.66667,-24.4997 -24.7272,-5.92864 -71.10556,-8.88077 -98,-6.23801 C 136.9,165.95307 117.4,167.89459 102,169.43887 c -17.142732,1.71904 -31.288324,2.48123 -36.480322,1.9656 -8.033767,-0.79784 -30.591027,-7.2743 -34.814397,-9.99565 -3.15742,-2.03449 -0.909108,-2.80565 4.040894,-1.38601 7.799909,2.23698 15.259153,1.46845 27.480923,-2.83139 23.143664,-8.14236 39.781102,-17.38156 64.439572,-35.78494 26.10187,-19.48063 37.93266,-26.228789 55.39912,-31.599094 10.90643,-3.353326 13.77148,-3.66936 33.26755,-3.669639 17.52627,-2.49e-4 23.43724,0.523544 33.1228,2.935137 24.70975,6.152445 53.3038,21.266626 64.25392,33.963196 12.03292,13.95208 17.86291,34.32951 15.06935,52.6717 -2.09625,13.7638 -4.29639,14.0176 -8.31221,0.95889 -5.65719,-18.39612 -22.86644,-35.83524 -40.80052,-41.34548 -2.37251,-0.72895 -1.4117,0.50999 3.33333,4.29821 9.41568,7.51706 19.89595,18.9761 23.10091,25.25835 3.48196,6.82519 7.19438,25.02935 6.65098,32.61359 -0.5893,8.22507 -3.30349,7.97596 -17.75189,-1.62925 z m 46.62779,-36.5716 c 2.419,-25.81427 13.72465,-50.61118 34.93508,-76.623821 8.99337,-11.029529 17.92604,-25.076244 22.46939,-35.333334 3.4603,-7.811999 7.30108,-23.866094 7.30108,-30.517852 0,-5.431256 2.04665,-7.4908465 3.11988,-3.139601 0.4057,1.644932 1.4648,13.322282 2.35353,25.949666 2.5792,36.646391 -1.445,59.568477 -15.13772,86.225372 -9.30527,18.11544 -20.20639,29.31239 -35.78795,36.75913 -6.16792,2.94777 -13.24341,5.75722 -15.7233,6.24321 l -4.5089,0.88364 z"
       id="path3850"
       inkscape:connector-curvature="0" />
    <path
       style="fill:#6e270e;stroke-width:1.33333337"
       d="m 390.66668,447.10691 c -6.69907,-1.06505 -19.51396,-6.25652 -26.59091,-10.77228 -41.00419,-26.16459 -51.43432,-90.55434 -20.1831,-124.59903 19.07385,-20.77883 46.60912,-25.28802 73.44068,-12.02671 11.40721,5.63795 29.02669,23.90776 34.99927,36.29112 12.58238,26.08796 13.18284,53.48644 1.68428,76.85396 -11.95406,24.29318 -37.86745,38.30433 -63.35022,34.25294 z"
       id="path3848"
       inkscape:connector-curvature="0" />
  </g>
</svg>
