<?xml version="1.0" encoding="UTF-8" standalone="no"?>
<!-- Created with Inkscape (http://www.inkscape.org/) -->

<svg
   xmlns:dc="http://purl.org/dc/elements/1.1/"
   xmlns:cc="http://creativecommons.org/ns#"
   xmlns:rdf="http://www.w3.org/1999/02/22-rdf-syntax-ns#"
   xmlns:svg="http://www.w3.org/2000/svg"
   xmlns="http://www.w3.org/2000/svg"
   xmlns:sodipodi="http://sodipodi.sourceforge.net/DTD/sodipodi-0.dtd"
   xmlns:inkscape="http://www.inkscape.org/namespaces/inkscape"
   version="1.1"
   id="svg3732"
   width="682.66669"
   height="682.66669"
   viewBox="0 0 682.66669 682.66669"
   sodipodi:docname="blueb.svg"
   inkscape:version="0.92.3 (2405546, 2018-03-11)">
  <metadata
     id="metadata3738">
    <rdf:RDF>
      <cc:Work
         rdf:about="">
        <dc:format>image/svg+xml</dc:format>
        <dc:type
           rdf:resource="http://purl.org/dc/dcmitype/StillImage" />
        <dc:title />
      </cc:Work>
    </rdf:RDF>
  </metadata>
  <defs
     id="defs3736" />
  <sodipodi:namedview
     pagecolor="#ffffff"
     bordercolor="#666666"
     borderopacity="1"
     objecttolerance="10"
     gridtolerance="10"
     guidetolerance="10"
     inkscape:pageopacity="0"
     inkscape:pageshadow="2"
     inkscape:window-width="1366"
     inkscape:window-height="706"
     id="namedview3734"
     showgrid="false"
     inkscape:zoom="0.78662107"
     inkscape:cx="341.33334"
     inkscape:cy="267.55214"
     inkscape:window-x="-8"
     inkscape:window-y="-8"
     inkscape:window-maximized="1"
     inkscape:current-layer="svg3732" />
  <g
     id="g3742"
     transform="matrix(0.84888282,0,0,0.84888282,54.371929,47.052768)">
    <path
       style="fill:#5aa2fc;stroke-width:1.33333337"
       d="m 383.11967,605.28425 c -23.00096,-2.38618 -46.66183,-15.1283 -61.29385,-33.00867 -7.16109,-8.75089 -15.47248,-25.32412 -18.5263,-36.94223 -2.76263,-10.51023 -2.75183,-33.42431 0.0208,-44 11.0705,-42.22728 47.76801,-70.65006 90.67975,-70.23286 15.35032,0.14924 25.30562,2.41756 39.04144,8.8956 19.57116,9.23009 33.93292,23.4407 43.12445,42.67059 7.21319,15.09095 9.30635,24.25275 9.29096,40.66667 -0.0151,16.07908 -2.11217,25.55659 -8.78626,39.70811 -16.80342,35.62939 -53.91597,56.3546 -93.55094,52.24279 z m 21.2084,-53.77583 c 1.28809,-4.91737 3.3029,-10.40725 4.47737,-12.19972 2.61835,-3.9961 9.23164,-5.95811 20.11588,-5.96791 4.54005,-0.004 8.61268,-0.58676 9.05028,-1.29481 0.43761,-0.70806 -2.56497,-4.46562 -6.67239,-8.35012 -10.13741,-9.58727 -10.69864,-13.642 -4.1213,-29.77496 2.93185,-7.19126 4.33092,-12.27874 3.58249,-13.02716 -0.74841,-0.74842 -3.47984,-0.14355 -6.99419,1.54885 -3.17141,1.52725 -8.1662,3.14161 -11.09953,3.58747 -7.81855,1.18837 -16.17032,-4.4793 -21.39893,-14.52174 -2.34854,-4.51074 -4.69822,-7.41256 -5.82935,-7.19916 -1.11988,0.2113 -2.62207,3.55979 -3.67265,8.18663 -2.07518,9.13919 -6.10115,16.86348 -10.19963,19.56913 -1.59469,1.05276 -7.39373,2.21883 -12.88677,2.59127 -12.96802,0.87925 -13.87914,3.28341 -3.47055,9.15765 9.11591,5.14471 10.57193,7.76539 9.85111,17.73079 -0.50276,6.95056 -1.15375,8.43907 -5.74875,13.14477 -7.22567,7.39977 -5.16908,9.07011 6.66649,5.41447 4.93346,-1.52378 10.36068,-2.77052 12.06051,-2.77052 4.48283,0 10.9138,5.99286 14.85217,13.84035 6.5288,13.00912 8.10564,13.05527 11.43774,0.33472 z m -9.77134,-8.46557 c -5.2362,-8.05263 -11.28442,-11.38243 -19.48056,-10.72489 -5.97209,0.47912 -6.77616,0.26635 -5.84946,-1.54789 3.9759,-7.78392 2.32478,-20.97556 -3.36931,-26.91891 -3.63321,-3.79225 -3.64369,-3.85114 -0.68585,-3.85114 7.20266,0 16.53926,-8.43404 19.62668,-17.7294 l 2.19137,-6.5976 2.53393,4.00208 c 5.77827,9.12614 18.81172,14.32813 27.93255,11.1486 2.37033,-0.82631 4.49816,-1.31391 4.72851,-1.08355 0.23034,0.23035 -0.76695,3.53948 -2.21622,7.35364 -4.34298,11.42981 -3.17445,20.03433 3.69926,27.23956 l 3.49796,3.66667 h -4.88914 c -8.30636,0 -15.30052,3.6641 -18.98052,9.94355 -1.81276,3.09324 -3.29592,6.62136 -3.29592,7.84026 0,3.57351 -1.98834,2.57227 -5.44328,-2.74098 z m 6.04876,-18.4365 c 4.04966,-1.92168 6.06656,-4.54796 7.90748,-10.29656 1.28244,-4.00467 -3.38758,-11.695 -8.7691,-14.44045 -5.96798,-3.04463 -8.04072,-3.14044 -12.9556,-0.59887 -4.72275,2.44223 -7.36608,8.65227 -6.34947,14.91695 0.95473,5.8833 4.02365,9.46944 9.45277,11.04584 5.76671,1.67441 5.87796,1.6679 10.71392,-0.62691 z m -12.60548,-7.273 c -1.46666,-1.46667 -2.66666,-4.16667 -2.66666,-6 0,-3.35308 4.12797,-8.66667 6.73288,-8.66667 2.6484,0 8.94522,3.90466 9.77221,6.05974 2.38804,6.22314 -0.86749,11.2736 -7.267,11.2736 -2.14761,0 -5.10476,-1.2 -6.57143,-2.66667 z"
       id="path3752"
       inkscape:connector-curvature="0"
       sodipodi:nodetypes="csccssscsccsccccscscccccsccccssscscssscccscscssscccccccccsscsc" />
    <path
       style="fill:#90d18e;stroke-width:1.33333337"
       d="m 506.76694,453.30567 c -11.43695,-2.41577 -38.76692,-13.23021 -38.76692,-15.34003 0,-1.4858 10.16202,-5.17729 26,-9.44485 12.10961,-3.26295 14.8653,-4.37856 11.33333,-4.58814 -2.56667,-0.15229 -13.66667,-0.64945 -24.66667,-1.10477 -16.49402,-0.68275 -20,-1.17745 -20,-2.82207 0,-2.81153 16.88736,-15.26633 28,-20.65061 19.19824,-9.30193 43.02303,-13.33445 59.57477,-10.08347 10.4101,2.04468 24.75742,6.50971 46.21545,14.3827 l 16.45687,6.03805 -10.45687,10.56967 c -10.77233,10.88854 -23.77449,20.44733 -33.12355,24.35144 -16.33626,6.82193 -47.94456,11.35813 -60.56641,8.69208 z M 178.66667,304.56828 C 153.34415,300.22701 140.77147,293.73705 120.8726,274.73521 106.05554,260.58608 71.371637,213.50517 73.909941,210.98675 75.740535,209.1705 119.04253,210.24671 136,212.52991 c 22.31815,3.00498 30.44583,5.21446 44.66667,12.1425 14.44939,7.03937 30.67982,19.09133 46.016,34.16933 11.14451,10.9569 26.40071,31.186 24.75826,32.82846 -0.45931,0.4593 -4.89643,-0.47294 -9.86027,-2.07164 -4.96385,-1.59872 -12.00016,-3.27387 -15.63625,-3.72255 l -6.61107,-0.81579 6.19629,4.53894 c 3.40796,2.49641 8.65796,5.64898 11.66667,7.00572 3.00871,1.35674 5.47037,2.90273 5.47037,3.43554 0,2.73751 -52.69668,6.46567 -64,4.52786 z"
       id="path3750"
       inkscape:connector-curvature="0"
       sodipodi:nodetypes="sssccscsscssscscssscccccssc" />
    <path
       style="fill:#70c280;stroke-width:1.33333337"
       d="m 276.00001,284.183 c 0,-0.6327 3.10224,-6.72518 6.89388,-13.53883 9.10693,-16.36539 18.16155,-37.95042 25.48328,-60.74888 7.78879,-24.25276 9.02481,-31.06606 3.3674,-18.56195 -12.20715,26.98043 -37.68463,74.88903 -44.90972,84.44959 l -2.35501,3.11624 -6.20648,-14.53741 c -6.69102,-15.67239 -12.03638,-35.78238 -14.18882,-53.38031 -4.22585,-34.54982 13.27627,-77.33679 45.74251,-111.825516 19.37507,-20.582046 41.98249,-36.04212 67.019,-45.830908 16.80704,-6.57123 65.82063,-20.924566 65.82063,-19.275181 0,0.238179 -3.93173,4.5244 -8.73719,9.524938 -4.80545,5.000537 -11.47448,12.691886 -14.82006,17.091886 -12.16478,15.998695 -30.54518,57.662591 -41.76304,94.666671 -8.17803,26.97664 -14.4761,41.83945 -27.00389,63.72648 -13.29269,23.22336 -22.38793,35.5976 -38.17674,51.94019 -12.94072,13.39459 -16.16575,16.02456 -16.16575,13.18299 z m 91.86051,-77.84966 c 7.56801,-17.63091 23.30857,-37.99276 40.65561,-52.59172 12.0622,-10.15136 41.68967,-30.64694 42.75778,-29.57883 1.55775,1.55774 -41.48778,55.45211 -51.42719,64.3885 -6.28703,5.65258 -31.86676,23.44872 -33.7046,23.44872 -0.39271,0 0.38057,-2.55 1.7184,-5.66667 z"
       id="path3748"
       inkscape:connector-curvature="0"
       sodipodi:nodetypes="scsscccssssscsssscccssc" />
    <path
       style="fill:#3295ce;stroke-width:1.33333337"
       d="m 195.33334,504.12363 c -12.03252,-3.31395 -18.16043,-5.95804 -27.1798,-11.72767 -37.08361,-23.72209 -52.45302,-70.4506 -36.52947,-111.06261 8.26861,-21.08858 24.34987,-38.58895 44.68103,-48.62399 36.26267,-17.89848 75.87592,-11.74074 105.35444,16.377 26.04834,24.84591 34.72958,65.04743 21.35972,98.91366 -10.06257,25.48878 -30.93946,45.29254 -57.01925,54.08832 -14.58942,4.92048 -36.93212,5.81798 -50.66667,2.03529 z m 11.49852,-56.25756 c 4.79795,-9.95712 6.64287,-11.19939 16.63235,-11.19939 7.65704,0 8.77714,0.37748 12.85856,4.33334 2.45897,2.38333 5.5604,4.33333 6.89205,4.33333 2.95268,0 2.4848,-3.65503 -1.91111,-14.92916 -1.94684,-4.99307 -2.65422,-8.82084 -2.06441,-11.17086 1.36269,-5.42938 7.71047,-10.93046 14.62063,-12.67046 3.40197,-0.85663 6.53399,-2.12152 6.96003,-2.81087 1.60473,-2.59652 -4.057,-6.39668 -11.79971,-7.91996 -10.54954,-2.07549 -15.06735,-5.97347 -16.91644,-14.59551 -0.79043,-3.68561 -1.43714,-9.03114 -1.43714,-11.87896 0,-4.04729 -0.59622,-5.36709 -2.73065,-6.04453 -3.42503,-1.08707 -6.05809,1.05908 -9.44535,7.69863 -2.70925,5.31057 -8.73306,8.98834 -14.72196,8.98834 -1.64097,0 -7.67752,-2.20272 -13.41454,-4.89494 -13.48574,-6.32847 -14.8304,-5.35968 -9.97691,7.18805 4.93145,12.74925 5.35444,15.27588 3.62969,21.68111 -1.98552,7.37364 -6.32526,11.56394 -13.96997,13.4889 -5.15048,1.2969 -6.10941,2.02431 -5.77333,4.37939 0.33806,2.36897 1.58662,2.95148 7.74646,3.61408 17.2353,1.85397 24.06526,7.17644 25.04086,19.51391 1.04818,13.25551 4.32185,14.22465 9.78089,2.89556 z m -4.81065,-11.76956 c -1.07775,-4.90692 -9.66096,-12.84598 -15.20468,-14.06359 -4.90139,-1.07652 -4.94911,-1.26288 -1.45935,-5.69939 1.47977,-1.88122 3.61816,-6.61145 4.75196,-10.5116 1.86311,-6.40886 1.86081,-7.87441 -0.0239,-15.2309 -1.1469,-4.47686 -2.08529,-8.40667 -2.08529,-8.73295 0,-0.32627 1.67073,0.27076 3.71275,1.32672 9.59674,4.96267 21.72478,3.5828 28.55662,-3.24903 4.09763,-4.09764 4.30075,-3.93832 5.70111,4.47195 1.04645,6.28473 9.23179,14.91235 15.44195,16.27633 l 4.3506,0.95555 -4.7795,4.18021 c -6.83036,5.97392 -9.46782,11.958 -8.47216,19.22223 l 0.81226,5.92597 -5.92287,-0.8882 c -7.92589,-1.18856 -16.3894,1.26919 -20.86337,6.0586 l -3.64903,3.9063 -0.86716,-3.9482 z m 18.36913,-16.11735 c 9.6596,-7.59824 6.3688,-23.92363 -5.26227,-26.10563 -9.51478,-1.78498 -17.79473,5.8919 -17.79473,16.49867 0,4.38277 0.76707,6.03621 4.10231,8.84263 5.2161,4.38906 13.90136,4.73929 18.95469,0.76433 z m -14.72937,-5.51819 c -2.54819,-2.54818 -1.97495,-8.81364 1.08648,-11.87506 3.76777,-3.76778 9.25524,-2.96043 11.87717,1.74744 1.8338,3.29272 1.83381,4.04061 1.6e-4,7.33333 -1.518,2.72591 -3.22993,3.76783 -6.67237,4.06096 -2.54678,0.21685 -5.37792,-0.35315 -6.29144,-1.26667 z"
       id="path3746"
       inkscape:connector-curvature="0"
       sodipodi:nodetypes="csssssscsscsccssscsccsssscsscsccsccsccsscscccsccccssscccsccc" />
    <path
       style="fill:#28599e;stroke-width:1.33333337"
       d="m 401.59049,405.28685 c -40.00408,-5.43208 -73.70312,-33.90096 -82.95656,-70.08152 -12.36992,-48.36596 21.85997,-92.4337 74.60956,-96.05267 6.28275,-0.43104 14.58687,-0.19615 18.45358,0.52199 5.01817,0.93198 7.30792,0.87918 8,-0.18447 0.53329,-0.8196 0.83918,-6.57977 0.67977,-12.8004 l -0.28985,-11.31024 3.29637,5.52779 c 3.76185,6.30834 12.15917,11.10657 19.37095,11.06852 2.5406,-0.0133 7.79004,-1.79407 11.79207,-4 3.96716,-2.18671 7.34505,-3.97584 7.50641,-3.97584 0.16136,0 0.55437,3.60806 0.87335,8.01792 0.7889,10.90652 3.72005,14.6176 14.16306,17.93168 4.53428,1.43893 8.24415,3.08893 8.24415,3.66667 0,0.57772 -0.57912,1.0504 -1.28693,1.0504 -1.7863,0 -10.52311,7.82037 -12.16571,10.88958 -1.11088,2.0757 -0.28239,3.74515 4.66564,9.4015 12.02452,13.74582 19.24785,31.39072 20.34948,49.70892 1.32951,22.10747 -6.14397,41.76668 -21.84732,57.47003 -17.49216,17.49216 -46.89207,26.75749 -73.45802,23.15014 z"
       id="path3744"
       inkscape:connector-curvature="0" />
  </g>
</svg>
