<svg xmlns="http://www.w3.org/2000/svg" viewBox="0 0 1102 189" width="1102" height="189">
	<style>
		tspan { white-space:pre }
		.shp0 { fill: #0080ff } 
	</style>
	<path id="Layer" class="shp0" d="M134.16 179L134.16 146.12C169.02 146.12 195.91 111.75 182.47 75.38C181.25 72.01 179.67 68.79 177.75 65.77C175.83 62.75 173.58 59.95 171.05 57.42C168.52 54.89 165.72 52.64 162.7 50.72C159.68 48.8 156.46 47.22 153.09 46C145.26 43.05 136.82 42.05 128.52 43.06C120.21 44.07 112.27 47.08 105.37 51.83C98.47 56.57 92.83 62.91 88.91 70.31C84.99 77.71 82.92 85.94 82.87 94.31L50 94.31C50 39.51 103.29 -3.83 161.55 14.11C167.79 16.07 173.77 18.77 179.36 22.16C184.95 25.55 190.11 29.6 194.73 34.22C199.36 38.85 203.4 44.01 206.79 49.6C210.18 55.19 212.88 61.17 214.84 67.41C232.77 125.7 189.44 179 134.16 179Z" />
	<path id="Layer" fill-rule="evenodd" class="shp0" d="M134.66 146.12L101.79 146.12L101.79 113.74L134.66 113.74M101.79 171.53L76.89 171.53L76.89 146.12L101.79 146.12L101.79 171.53ZM76.89 146.12L56 146.12L56 125.2L76.89 125.2L76.89 146.12ZM350.3 58.94C355.78 62.43 359.76 67.41 362.76 74.84C365.75 80.82 367.24 88.79 367.24 97.26C367.24 105.73 365.76 113.7 362.76 120.18C362.09 121.71 361.31 123.19 360.44 124.62C359.57 126.05 358.61 127.42 357.56 128.72C356.51 130.03 355.37 131.26 354.16 132.41C352.95 133.56 351.66 134.64 350.31 135.62C340.35 142.59 328.4 146.08 314.45 146.08L284.07 146.08L284.07 48.94L314.44 48.94C328.39 48.94 340.84 52.46 350.3 58.94ZM302 130.19L311.95 130.19C322.91 130.19 331.38 127.71 337.85 123.71C344.85 118.73 348.85 109.72 348.85 97.31C348.85 84.9 345.32 76.38 337.85 71.9C330.88 67.42 321.92 65.42 311.46 65.42L302 65.42L302 130.19ZM395.61 50.49C396.1 50.98 396.54 51.51 396.92 52.09C397.3 52.66 397.63 53.27 397.88 53.91C398.14 54.56 398.33 55.22 398.45 55.9C398.58 56.58 398.63 57.27 398.61 57.96C398.61 60.73 397.51 63.39 395.55 65.36C393.58 67.32 390.92 68.42 388.15 68.42C385.38 68.42 382.72 67.32 380.75 65.36C378.79 63.39 377.69 60.73 377.69 57.96C377.66 57.25 377.72 56.53 377.86 55.83C378 55.13 378.23 54.45 378.53 53.8C378.83 53.15 379.21 52.55 379.66 51.99C380.1 51.43 380.61 50.93 381.18 50.49C381.67 50 382.2 49.56 382.78 49.18C383.35 48.8 383.96 48.47 384.6 48.22C385.24 47.96 385.91 47.77 386.59 47.65C387.27 47.52 387.96 47.47 388.65 47.49L388.61 47.49C388.61 47.49 388.61 47.49 388.61 47.49C391.61 47.49 394.12 48.49 395.61 50.49ZM397.04 77.38L397.04 145.63L379.68 145.63L379.68 77.38L397.04 77.38ZM459.36 83.38C459.03 83.09 458.7 82.8 458.37 82.52L458.37 83.38L459.36 83.38ZM458.37 82.52L458.37 77.38L475.28 77.38L475.28 139.27C475.28 149.73 471.79 157.71 465.82 164.18C459.85 170.65 451.88 173.65 441.42 173.65C433.95 173.65 427.48 172.11 422.5 168.65C417.52 165.19 413.54 161.68 411.05 158.19L410.55 157.69L422.55 146.23C428.52 154.69 433.47 157.69 441.47 157.69C446.92 157.69 450.93 156.21 453.92 153.21C456.91 150.21 458.4 145.69 458.4 140.21L458.4 138.72C457.19 139.62 455.91 140.43 454.57 141.12C453.22 141.82 451.83 142.4 450.39 142.86C448.95 143.33 447.48 143.68 445.98 143.9C444.49 144.12 442.98 144.22 441.47 144.2C432 144.2 424.06 141.21 418.06 134.73C412.06 128.25 409.06 119.79 409.06 110.32C409.02 108.08 409.2 105.84 409.59 103.64C409.98 101.44 410.59 99.28 411.4 97.19C412.21 95.1 413.22 93.1 414.41 91.2C415.61 89.31 416.98 87.54 418.52 85.91C420 84.3 421.64 82.84 423.43 81.58C425.22 80.31 427.13 79.24 429.14 78.38C431.16 77.52 433.26 76.88 435.41 76.46C437.55 76.05 439.74 75.86 441.93 75.91C447.94 75.91 453.58 78.52 458.37 82.52ZM455 123.7C457.99 120.25 459.48 115.7 459.48 110.25C459.48 104.8 458 100.31 455 96.8C452 93.29 448 91.8 443 91.8C438 91.8 434 93.31 431 96.8C428 100.29 426.41 104.83 426.41 110.28C426.41 115.73 427.89 120.22 430.89 123.73C433.89 127.24 437.89 128.73 442.89 128.73C447.89 128.73 451.89 127.22 454.89 123.73L455 123.7ZM491.35 77.37L508.78 77.37L508.78 145.62L491.24 145.62L491.24 77.38L491.35 77.37ZM499.71 47.49C499.71 47.49 499.71 47.49 499.7 47.49C499.7 47.49 499.7 47.49 499.7 47.49L499.71 47.49ZM499.7 47.49C501.09 47.45 502.46 47.7 503.75 48.21C505.03 48.73 506.2 49.5 507.18 50.47C508.16 51.45 508.93 52.62 509.44 53.9C509.96 55.19 510.2 56.57 510.17 57.95C510.17 60.72 509.07 63.38 507.11 65.35C505.14 67.31 502.48 68.41 499.71 68.41C496.94 68.41 494.28 67.31 492.31 65.35C490.35 63.38 489.25 60.72 489.25 57.95C489.22 56.57 489.46 55.19 489.98 53.91C490.49 52.62 491.26 51.46 492.24 50.48C493.22 49.5 494.38 48.73 495.67 48.22C496.95 47.7 498.32 47.46 499.7 47.49ZM546.52 77.87L562.41 77.87L562.41 93.32L546.47 93.32L546.47 119.18C546.47 123.7 546.98 126.69 548.47 128.18C549.47 129.68 552.47 130.18 556.47 130.18L562.47 129.68L562.47 145.13L561.47 145.13C560.77 145.23 560.07 145.32 559.36 145.39C558.66 145.47 557.95 145.52 557.25 145.57C556.54 145.61 555.83 145.63 555.12 145.64C554.42 145.66 553.71 145.65 553 145.63C544.57 145.63 538.05 143.64 534.57 140.15C531.09 136.66 529.09 130.22 529.09 121.22L529.09 92.82L519.09 92.82L519.09 77.38L529.09 77.38L529.09 58.94L546 58.94L546.52 77.87ZM642.61 48.94L660.04 48.94L660.04 146.08L642.63 146.08L642.63 49L642.61 48.94ZM833.87 121.67L845.32 133.13C838.35 143.09 828.39 148.57 815.94 148.57C813.66 148.61 811.38 148.41 809.14 147.97C806.9 147.53 804.72 146.85 802.62 145.95C800.52 145.06 798.53 143.94 796.66 142.62C794.8 141.3 793.08 139.79 791.54 138.11C785.03 131.63 781.54 122.7 781.54 112.7C781.51 110.37 781.71 108.03 782.13 105.74C782.55 103.44 783.2 101.19 784.05 99.02C784.91 96.84 785.97 94.76 787.23 92.79C788.48 90.82 789.93 88.98 791.54 87.29C798.51 80.32 806.48 76.83 815.94 76.83C827.4 76.83 836.86 81.31 844.33 90.78L832.88 101.78C827.9 95.8 821.93 92.31 816.45 92.31C815.28 92.26 814.1 92.34 812.94 92.55C811.79 92.77 810.66 93.12 809.58 93.59C808.51 94.07 807.49 94.66 806.55 95.37C805.61 96.07 804.75 96.89 804 97.79C800.49 101.78 799 106.26 799 112.24C799 118.22 800.51 122.69 804 126.69C804.79 127.55 805.66 128.33 806.6 129.01C807.55 129.69 808.56 130.27 809.62 130.75C810.69 131.22 811.8 131.58 812.94 131.83C814.07 132.08 815.24 132.21 816.4 132.22C817.19 132.22 817.98 132.17 818.76 132.07C819.54 131.97 820.31 131.81 821.07 131.6C821.83 131.39 822.58 131.13 823.3 130.81C824.02 130.5 824.73 130.14 825.4 129.73C826.17 129.14 826.93 128.52 827.67 127.89C828.41 127.26 829.13 126.61 829.84 125.94C830.54 125.28 831.23 124.59 831.91 123.89C832.58 123.19 833.23 122.47 833.87 121.73L833.87 121.67ZM903.92 87.22C904.55 87.96 905.14 88.75 905.67 89.57C906.2 90.39 906.68 91.24 907.1 92.12C907.52 93.01 907.89 93.91 908.19 94.84C908.5 95.77 908.74 96.72 908.92 97.68C909.28 98.72 909.59 99.78 909.85 100.85C910.12 101.92 910.33 103 910.5 104.09C910.67 105.18 910.79 106.28 910.86 107.38C910.93 108.48 910.95 109.58 910.92 110.68L910.92 117.16L865.1 117.16C865.62 121.62 867.1 125.13 870.1 127.62C870.95 128.28 871.85 128.86 872.8 129.37C873.75 129.87 874.74 130.3 875.76 130.64C876.78 130.98 877.83 131.23 878.89 131.4C879.95 131.56 881.03 131.64 882.1 131.62C882.83 131.65 883.57 131.63 884.3 131.55C885.03 131.48 885.76 131.36 886.47 131.19C887.19 131.02 887.89 130.81 888.57 130.54C889.26 130.28 889.93 129.97 890.57 129.62C891.04 129.42 891.5 129.19 891.95 128.94C892.39 128.69 892.83 128.42 893.25 128.13C893.67 127.84 894.07 127.52 894.46 127.19C894.85 126.85 895.22 126.5 895.57 126.13C897.08 124.62 898.57 123.62 899.57 122.13L911.02 133.13L910.52 133.63C903.05 143.1 893.58 147.58 882.13 147.58C871.67 147.58 863.69 144.06 857.23 137.58C850.77 131.1 847.77 122.63 847.77 112.17C847.73 109.89 847.88 107.62 848.22 105.37C848.56 103.11 849.09 100.9 849.81 98.73C850.54 96.57 851.44 94.48 852.52 92.47C853.59 90.47 854.84 88.55 856.24 86.76C862.22 79.79 870.19 76.3 879.65 76.3C880.89 76.27 882.13 76.31 883.37 76.42C884.6 76.54 885.83 76.72 887.04 76.97C888.26 77.22 889.46 77.54 890.63 77.93C891.81 78.32 892.96 78.78 894.09 79.3C895.07 79.75 896.02 80.26 896.94 80.82C897.86 81.39 898.74 82.01 899.59 82.68C900.43 83.35 901.23 84.08 901.98 84.85C902.73 85.62 903.44 86.44 904.09 87.3L903.92 87.22ZM866.74 103.28L893.17 103.28C892.68 100.28 891.68 97.28 889.68 95.28C887.69 92.79 884.22 91.79 880.22 91.79C879.39 91.75 878.56 91.8 877.75 91.94C876.93 92.07 876.13 92.29 875.35 92.59C874.58 92.89 873.84 93.27 873.15 93.72C872.45 94.17 871.81 94.7 871.22 95.28C870.68 95.83 870.18 96.42 869.71 97.04C869.25 97.66 868.83 98.31 868.45 98.98C868.07 99.66 867.74 100.36 867.45 101.08C867.17 101.79 866.93 102.53 866.74 103.28ZM970.36 82.86C975.87 87.34 978.36 93.79 978.36 101.79L978.36 145.63L961.43 145.63L961.43 140.15C955.45 144.66 949.43 147.15 943 147.15C936.57 147.15 931.04 145.65 926.57 141.67C922.1 137.69 920.1 132.71 920.1 126.23C920.1 119.29 922.62 113.29 928.1 109.29C933.58 105.29 940.55 103.29 949.02 103.29C950.08 103.28 951.13 103.32 952.18 103.4C953.24 103.48 954.29 103.6 955.33 103.77C956.37 103.94 957.41 104.15 958.43 104.4C959.46 104.66 960.47 104.95 961.47 105.29L961.47 101.8C961.5 101.09 961.44 100.37 961.3 99.67C961.16 98.97 960.93 98.29 960.63 97.64C960.33 96.99 959.95 96.39 959.5 95.83C959.06 95.27 958.55 94.77 957.98 94.33C957.35 93.83 956.67 93.38 955.96 93C955.25 92.62 954.51 92.29 953.74 92.04C952.98 91.78 952.19 91.6 951.39 91.48C950.59 91.36 949.79 91.31 948.98 91.33C942.01 91.33 937.03 93.86 932.55 101.33L921.55 90.87C924 85.87 928.52 82.36 933 79.87C934.26 79.33 935.54 78.85 936.84 78.44C938.14 78.02 939.46 77.66 940.79 77.37C942.13 77.08 943.48 76.85 944.83 76.68C946.19 76.51 947.55 76.41 948.92 76.37C957.88 76.37 965.33 78.37 970.33 82.85L970.36 82.86ZM939.99 119.69C939.53 120 939.1 120.36 938.71 120.76C938.32 121.16 937.98 121.6 937.68 122.07C937.38 122.54 937.13 123.04 936.93 123.56C936.73 124.08 936.59 124.62 936.5 125.17C936.5 127.17 937.47 128.67 938.99 130.17C940.51 131.67 942.99 132.17 945.99 132.17C947.35 132.2 948.7 132.09 950.04 131.87C951.38 131.64 952.7 131.3 953.97 130.83C955.25 130.36 956.48 129.78 957.64 129.08C958.81 128.39 959.91 127.59 960.93 126.69L960.93 120.21C959.89 119.84 958.84 119.5 957.78 119.21C956.71 118.92 955.64 118.67 954.55 118.46C953.47 118.25 952.38 118.08 951.28 117.96C950.18 117.84 949.08 117.76 947.98 117.72C944.46 117.72 941.98 118.23 939.98 119.72L939.99 119.69ZM1044.53 83.85C1049.01 89.33 1051.5 96.8 1052 106.27L1052 146.18L1034.65 146.18L1034.65 106.33C1034.67 105.35 1034.61 104.37 1034.47 103.4C1034.33 102.43 1034.11 101.48 1033.81 100.54C1033.51 99.61 1033.14 98.7 1032.7 97.83C1032.25 96.95 1031.74 96.12 1031.16 95.33C1030.62 94.67 1030.01 94.08 1029.33 93.56C1028.65 93.04 1027.91 92.61 1027.14 92.26C1026.36 91.91 1025.54 91.66 1024.7 91.5C1023.86 91.35 1023.01 91.29 1022.16 91.33C1021.21 91.3 1020.27 91.38 1019.34 91.56C1018.41 91.75 1017.51 92.03 1016.64 92.42C1015.78 92.81 1014.96 93.29 1014.21 93.86C1013.46 94.43 1012.77 95.08 1012.16 95.81C1009.67 98.79 1008.67 103.26 1008.67 108.26L1008.67 146.1L991.24 146.1L991.24 77.85L1008.18 77.85L1008.18 81.85C1012.16 77.85 1017.64 75.85 1024.61 75.85C1033.08 75.85 1039.53 78.37 1044.53 83.85ZM621.23 82.86C626.23 87.34 629.23 93.79 629.23 101.79L629.23 145.62L612.3 145.62L612.3 140.14C606.32 144.65 600.3 147.14 593.87 147.14C587.44 147.14 581.91 145.64 577.44 141.66C572.97 137.68 570.97 132.7 570.97 126.22C570.97 119.28 573.49 113.28 578.97 109.28C584.45 105.28 591.42 103.28 599.89 103.28C600.95 103.27 602 103.31 603.05 103.39C604.11 103.47 605.16 103.59 606.2 103.76C607.24 103.93 608.28 104.14 609.3 104.39C610.33 104.65 611.34 104.94 612.34 105.28L612.34 101.79C612.37 101.08 612.31 100.36 612.17 99.66C612.03 98.96 611.8 98.28 611.5 97.63C611.2 96.98 610.82 96.38 610.37 95.82C609.93 95.26 609.42 94.76 608.85 94.32C608.22 93.82 607.54 93.37 606.83 92.99C606.12 92.61 605.38 92.28 604.61 92.03C603.85 91.77 603.06 91.59 602.26 91.47C601.46 91.35 600.66 91.3 599.85 91.32C592.88 91.32 587.9 93.85 583.42 101.32L572.42 90.86C574.87 85.86 579.39 82.35 583.87 79.86C585.13 79.32 586.41 78.84 587.71 78.43C589.02 78.01 590.34 77.66 591.68 77.36C593.01 77.07 594.36 76.84 595.72 76.67C597.08 76.51 598.44 76.41 599.81 76.37C608.77 76.37 616.22 78.37 621.22 82.85L621.23 82.86ZM590.36 119.69C589.97 120.08 589.61 120.48 589.27 120.91C588.92 121.33 588.6 121.78 588.31 122.24C588.02 122.7 587.75 123.17 587.51 123.66C587.27 124.15 587.06 124.66 586.87 125.17C586.87 127.17 587.84 128.67 589.36 130.17C590.88 131.67 593.36 132.17 596.36 132.17C597.72 132.2 599.07 132.09 600.41 131.87C601.75 131.64 603.07 131.3 604.34 130.83C605.62 130.36 606.85 129.78 608.01 129.08C609.18 128.39 610.28 127.59 611.3 126.69L611.3 120.21C610.26 119.84 609.21 119.5 608.15 119.21C607.08 118.92 606.01 118.67 604.92 118.46C603.84 118.25 602.75 118.08 601.65 117.96C600.55 117.84 599.45 117.76 598.35 117.72C594.83 117.72 592.35 118.23 590.35 119.72L590.36 119.69ZM676.32 116.85C668.6 98.23 672.86 76.8 687.1 62.55C701.35 48.3 722.78 44.03 741.4 51.74C760.02 59.45 772.16 77.62 772.16 97.77C772.14 104.3 770.83 110.77 768.32 116.8C765.81 122.84 762.14 128.32 757.52 132.94C752.9 137.56 747.42 141.23 741.39 143.74C735.36 146.26 728.89 147.56 722.36 147.59C702.21 147.6 684.04 135.46 676.32 116.85ZM722.36 64.9C709.26 64.88 697.44 72.75 692.41 84.85C687.38 96.94 690.14 110.88 699.39 120.15C708.64 129.42 722.57 132.21 734.68 127.21C746.78 122.2 754.68 110.4 754.69 97.3C754.7 93.05 753.87 88.83 752.24 84.9C750.62 80.97 748.24 77.4 745.23 74.39C742.22 71.38 738.65 68.99 734.72 67.37C730.79 65.74 726.57 64.91 722.32 64.92L722.36 64.9Z" />
</svg>