<svg width="1164" height="274" viewBox="0 0 1164 274" fill="none" xmlns="http://www.w3.org/2000/svg">
<path d="M81.23 273.4C126.048 273.4 162.38 247.07 162.38 214.59C162.38 182.11 126.048 155.78 81.23 155.78C36.4121 155.78 0.0799866 182.11 0.0799866 214.59C0.0799866 247.07 36.4121 273.4 81.23 273.4Z" fill="#BAE4F8"/>
<path d="M81.23 136.29C126.048 136.29 162.38 118.498 162.38 96.5499C162.38 74.6021 126.048 56.8099 81.23 56.8099C36.4121 56.8099 0.0799866 74.6021 0.0799866 96.5499C0.0799866 118.498 36.4121 136.29 81.23 136.29Z" fill="#BAE4F8"/>
<path d="M162.34 96.88H0.139984V214.59H162.34V96.88Z" fill="#BAE4F8"/>
<path d="M81.23 270.46C123.922 270.46 158.53 245.446 158.53 214.59C158.53 183.734 123.922 158.72 81.23 158.72C38.5384 158.72 3.92999 183.734 3.92999 214.59C3.92999 245.446 38.5384 270.46 81.23 270.46Z" fill="#E7F6FF"/>
<path d="M81.23 137.81C123.811 137.81 158.33 120.904 158.33 100.05C158.33 79.1957 123.811 62.29 81.23 62.29C38.6488 62.29 4.12997 79.1957 4.12997 100.05C4.12997 120.904 38.6488 137.81 81.23 137.81Z" fill="#E7F6FF"/>
<path d="M158.41 99.8199H4.06V211.65H158.41V99.8199Z" fill="#E7F6FF"/>
<path d="M12.69 193.91C12.69 214.9 13.16 154.35 12.94 162.26C12.48 179.43 12.55 195.52 13.19 198.76C22.8 225.4 47.83 236.16 77.24 231.05C84.31 229.29 88.72 227.02 92.8 224.15C84.48 228.68 69.46 225.57 63.01 221.61C57.43 218.19 51.8 212.52 51.57 200.39C51.39 191.36 53.08 181.56 48.69 173.11C44.14 164.35 26.15 154.84 12.68 152.79" fill="#BA00FF"/>
<path d="M149.69 102.12C149.52 150.5 149.86 181.05 149.35 202.18C149.27 205.39 149.65 209.32 147.15 218.23C140.98 240.16 119.44 251.78 110.8 255.27C84.95 265.73 62.31 259.39 53.18 256.09C48.2 254.29 25.5 244.24 16.43 221.44C11.8 209.82 12.62 197.76 12.63 191.5C12.64 187 17.18 207.42 36.79 219.58C40.52 221.89 54.37 230.22 76.84 228.02C101.91 225.56 106.27 211.51 107.11 208.41C109.16 200.9 109.32 187.82 109.12 150.78C108.98 123.74 109.65 125.93 114.19 119.68C116.89 115.96 127.37 108.51 140.89 104.45" fill="#8600FF"/>
<path d="M81.23 94.5799C123.734 94.5799 158.19 77.6742 158.19 56.8199C158.19 35.9657 123.734 19.0599 81.23 19.0599C38.7262 19.0599 4.26999 35.9657 4.26999 56.8199C4.26999 77.6742 38.7262 94.5799 81.23 94.5799Z" fill="url(#paint0_linear)"/>
<path d="M156.48 59.1C157.24 79.89 122.73 96.34 81.19 96.34C39.65 96.34 5.54999 80.4 5.96999 59.53" stroke="#E1E1E1" stroke-width="3.5" stroke-miterlimit="10"/>
<path d="M81.23 78.62C123.811 78.62 158.33 61.1546 158.33 39.61C158.33 18.0653 123.811 0.599976 81.23 0.599976C38.6488 0.599976 4.12997 18.0653 4.12997 39.61C4.12997 61.1546 38.6488 78.62 81.23 78.62Z" fill="#E1E1E1"/>
<path d="M81.23 75.48C121.613 75.48 154.35 59.4204 154.35 39.61C154.35 19.7995 121.613 3.73999 81.23 3.73999C40.8469 3.73999 8.10999 19.7995 8.10999 39.61C8.10999 59.4204 40.8469 75.48 81.23 75.48Z" fill="url(#paint1_linear)"/>
<path d="M156.44 61.2L156.63 39.71" stroke="#E1E1E1" stroke-width="3.5" stroke-miterlimit="10"/>
<path d="M6.04 60.12L5.97 40.28" stroke="#E1E1E1" stroke-width="3.5" stroke-miterlimit="10"/>
<path opacity="0.2" d="M65.94 97.46C64.62 97.31 62.31 97.01 61.04 96.83C56.48 96.2 53.35 95.65 48.79 94.95C47.18 94.56 46.16 94.34 45.58 94.17C42.62 93.31 42.28 93.23 40.78 92.83L5.47998 226.45C5.47998 226.45 6.33998 228.79 7.00998 230.67C8.86998 234.75 9.43998 236.17 11.49 239.14C13.77 242.45 16.65 245.65 19.69 248.4C22.73 251.15 24 252 27.13 254.21C27.9 254.75 30.26 256.11 31.02 256.64C31.51 256.7 31.97 257.38 32.34 257.58L73.01 97.88C70.21 97.74 68.31 97.69 65.94 97.46Z" fill="white"/>
<path opacity="0.2" d="M60.21 268.5C61.56 268.82 62.1 268.74 63.34 268.97C63.49 268.97 64.38 269.21 64.52 269.21C65.61 269.21 65.91 269.4 66.94 269.55L109.55 95.48C108.13 95.8 107.45 95.95 105.93 96.11C104.63 96.25 103.99 96.43 101.96 96.74C101.63 96.79 99.67 97.09 99.34 97.13C96.72 97.29 95.54 97.37 93.18 97.58L50.98 266.32C52.47 266.76 54.04 267.15 55.82 267.54C57.84 268.03 58.6 268.19 60.21 268.5Z" fill="white"/>
<path d="M250.19 169.91C250.41 162.57 257.32 156.52 265.31 156.52C273.52 156.52 280.43 162.35 280.43 169.91V246.16C280.43 253.72 273.52 259.55 265.31 259.55C257.32 259.55 250.41 253.5 250.19 246.16V244.22C243.71 254.8 231.4 260.42 219.95 260.42C194.25 260.42 170.92 241.41 170.92 207.93C170.92 174.45 194.25 155.66 219.95 155.66C226.43 155.66 241.55 158.47 250.19 171.86V169.91ZM225.78 233.63C239.39 233.63 250.4 221.53 250.4 208.14C250.4 194.75 239.38 182.65 225.78 182.65C210.66 182.65 202.02 194.75 202.02 208.14C202.02 221.53 210.66 233.63 225.78 233.63Z" fill="url(#paint2_linear)"/>
<path d="M464.68 246.16C464.68 253.72 457.77 259.55 449.56 259.55C441.57 259.55 434.66 253.5 434.44 246.16V204.69C434.44 191.51 426.45 184.6 417.59 184.6C408.09 184.6 400.53 190.43 400.53 205.12V246.16C400.53 253.72 393.62 259.55 385.41 259.55C377.42 259.55 370.51 253.5 370.29 246.16V204.04C370.29 191.3 362.3 184.6 353.66 184.6C344.59 184.6 336.16 189.78 336.16 205.12V246.16C336.16 253.72 329.25 259.55 321.04 259.55C313.05 259.55 306.14 253.5 305.92 246.16V169.91C306.14 162.57 313.05 156.52 321.04 156.52C329.25 156.52 336.16 162.35 336.16 169.91V172.29C340.91 161.71 351.71 155.66 362.51 155.66C378.49 155.66 389.08 160.84 395.77 174.67C403.11 158.69 418.02 155.45 425.15 155.45C449.13 155.45 464.46 170.79 464.68 201.24V246.16V246.16Z" fill="url(#paint3_linear)"/>
<path d="M558.42 204.68C558.42 191.5 548.92 184.81 539.84 184.81C530.34 184.81 519.97 189.78 519.97 205.11V246.15C519.97 253.71 513.06 259.54 504.85 259.54C496.86 259.54 489.95 253.49 489.73 246.15V115.04C489.95 107.7 496.86 101.65 504.85 101.65C513.06 101.65 519.97 107.48 519.97 115.04V173.36C524.07 160.83 538.55 155.65 548.05 155.65C574.62 155.65 588.66 173.15 588.66 203.6V246.15C588.66 253.71 581.75 259.54 573.54 259.54C565.55 259.54 558.64 253.49 558.42 246.15V204.68Z" fill="url(#paint4_linear)"/>
<path d="M687.8 169.91C688.02 162.57 694.93 156.52 702.92 156.52C711.13 156.52 718.04 162.35 718.04 169.91V246.16C718.04 253.72 711.13 259.55 702.92 259.55C694.93 259.55 688.02 253.5 687.8 246.16V244.22C681.32 254.8 669.01 260.42 657.56 260.42C631.86 260.42 608.53 241.41 608.53 207.93C608.53 174.45 631.86 155.66 657.56 155.66C664.04 155.66 679.16 158.47 687.8 171.86V169.91ZM663.39 233.63C677 233.63 688.01 221.53 688.01 208.14C688.01 194.75 676.99 182.65 663.39 182.65C648.27 182.65 639.63 194.75 639.63 208.14C639.63 221.53 648.27 233.63 663.39 233.63Z" fill="url(#paint5_linear)"/>
<path d="M793.86 231.25C799.26 231.25 804.44 229.74 808.76 227.36C814.16 224.34 823.02 223.04 828.42 228.44C834.47 234.49 833.6 245.5 826.48 250.47C817.41 256.95 805.96 260.41 793.86 260.41C764.92 260.41 738.56 240.11 738.56 208.35V207.7C738.56 175.95 764.91 155.64 793.86 155.64C805.96 155.64 817.4 159.1 826.48 165.58C833.61 170.55 834.47 181.56 828.42 187.61C823.02 193.01 814.16 191.71 808.76 188.69C804.44 186.31 799.26 184.8 793.86 184.8C780.9 184.8 769.23 193.66 769.23 207.7V208.35C769.23 222.4 780.9 231.25 793.86 231.25Z" fill="url(#paint6_linear)"/>
<path d="M882.63 218.72V246.15C882.63 253.71 875.72 259.54 867.51 259.54C859.52 259.54 852.61 253.49 852.39 246.15V115.04C852.61 107.7 859.52 101.65 867.51 101.65C875.72 101.65 882.63 107.48 882.63 115.04V185.46L906.17 161.7C910.92 156.3 919.78 155.22 925.61 159.97C931.23 164.51 932.74 173.15 927.55 179.19L904.01 202.09L937.27 236.87C942.89 242.92 942.45 251.99 936.41 256.53C931.01 261.07 920.86 260.42 916.54 255.23L882.63 218.72Z" fill="url(#paint7_linear)"/>
<path d="M959.09 223.91C965.79 220.89 972.05 223.69 975.29 227.58C980.69 233.41 987.17 236.44 994.3 236.44C1001 236.44 1007.26 235.36 1007.26 230.18C1007.26 225.86 1004.67 224.35 997.32 221.97L985.87 217.87C955.63 207.72 955.85 193.46 955.85 184.17C955.85 169.27 973.78 155.44 994.95 155.44C1009.42 155.44 1024.33 159.98 1031.24 172.07C1034.91 178.55 1033.18 184.81 1028.65 187.41C1021.95 191.3 1015.69 189.79 1009.43 185.03C1005.11 181.79 1001.22 180.49 997.33 180.49C990.85 180.49 986.31 182.65 986.31 186.54C986.31 189.78 988.9 191.72 994.95 193.67L1010.29 198.85C1034.7 206.84 1037.72 222.61 1037.72 229.09C1037.72 250.47 1015.26 260.63 994.09 260.63C977.89 260.63 958.88 253.93 953.7 239.03C951.53 232.76 954.13 226.07 959.09 223.91Z" fill="url(#paint8_linear)"/>
<path d="M1125.88 247.21C1123.72 254.12 1118.1 258.66 1110.11 258.66H1107.09C1098.88 258.66 1093.48 254.12 1091.54 247.21L1054.6 126.68C1052.44 119.12 1057.84 110.05 1065.62 108.1C1073.83 106.16 1082.68 110.48 1084.63 118.04L1108.61 209.84L1132.59 118.04C1134.53 110.48 1143.39 106.16 1151.6 108.1C1159.38 110.04 1164.78 119.12 1162.62 126.68L1125.88 247.21Z" fill="url(#paint9_linear)"/>
<defs>
<linearGradient id="paint0_linear" x1="4.26919" y1="56.8226" x2="158.198" y2="56.8226" gradientUnits="userSpaceOnUse">
<stop stop-color="#EFEFEF"/>
<stop offset="1" stop-color="#CFCFCF"/>
</linearGradient>
<linearGradient id="paint1_linear" x1="19.6115" y1="10.874" x2="142.856" y2="68.3437" gradientUnits="userSpaceOnUse">
<stop stop-color="#F3F3F3"/>
<stop offset="1" stop-color="#D3D4D6"/>
</linearGradient>
<linearGradient id="paint2_linear" x1="582.976" y1="87.6302" x2="625.132" y2="326.706" gradientUnits="userSpaceOnUse">
<stop stop-color="#BA00FF"/>
<stop offset="1" stop-color="#8600FF"/>
</linearGradient>
<linearGradient id="paint3_linear" x1="582.976" y1="87.6302" x2="625.132" y2="326.706" gradientUnits="userSpaceOnUse">
<stop stop-color="#BA00FF"/>
<stop offset="1" stop-color="#8600FF"/>
</linearGradient>
<linearGradient id="paint4_linear" x1="582.976" y1="87.6302" x2="625.132" y2="326.706" gradientUnits="userSpaceOnUse">
<stop stop-color="#BA00FF"/>
<stop offset="1" stop-color="#8600FF"/>
</linearGradient>
<linearGradient id="paint5_linear" x1="582.976" y1="87.6302" x2="625.132" y2="326.706" gradientUnits="userSpaceOnUse">
<stop stop-color="#BA00FF"/>
<stop offset="1" stop-color="#8600FF"/>
</linearGradient>
<linearGradient id="paint6_linear" x1="582.976" y1="87.6302" x2="625.132" y2="326.706" gradientUnits="userSpaceOnUse">
<stop stop-color="#BA00FF"/>
<stop offset="1" stop-color="#8600FF"/>
</linearGradient>
<linearGradient id="paint7_linear" x1="582.976" y1="87.6302" x2="625.132" y2="326.706" gradientUnits="userSpaceOnUse">
<stop stop-color="#BA00FF"/>
<stop offset="1" stop-color="#8600FF"/>
</linearGradient>
<linearGradient id="paint8_linear" x1="582.977" y1="87.6302" x2="625.132" y2="326.706" gradientUnits="userSpaceOnUse">
<stop stop-color="#BA00FF"/>
<stop offset="1" stop-color="#8600FF"/>
</linearGradient>
<linearGradient id="paint9_linear" x1="1104.72" y1="101.174" x2="1131.87" y2="255.124" gradientUnits="userSpaceOnUse">
<stop stop-color="#BA00FF"/>
<stop offset="1" stop-color="#8600FF"/>
</linearGradient>
</defs>
</svg>
