<?xml version="1.0" encoding="UTF-8" standalone="no"?>
<svg
   xmlns:dc="http://purl.org/dc/elements/1.1/"
   xmlns:cc="http://creativecommons.org/ns#"
   xmlns:rdf="http://www.w3.org/1999/02/22-rdf-syntax-ns#"
   xmlns:svg="http://www.w3.org/2000/svg"
   xmlns="http://www.w3.org/2000/svg"
   viewBox="0 0 654.67999 300.85333"
   height="300.85333"
   width="654.67999"
   xml:space="preserve"
   id="svg2"
   version="1.1"><metadata
     id="metadata8"><rdf:RDF><cc:Work
         rdf:about=""><dc:format>image/svg+xml</dc:format><dc:type
           rdf:resource="http://purl.org/dc/dcmitype/StillImage" /></cc:Work></rdf:RDF></metadata><defs
     id="defs6" /><g
     transform="matrix(1.3333333,0,0,-1.3333333,0,300.85333)"
     id="g10"><g
       transform="scale(0.1)"
       id="g12"><path
         id="path14"
         style="fill:none;stroke:#ffffff;stroke-width:65.19689941;stroke-linecap:butt;stroke-linejoin:miter;stroke-miterlimit:2.61313009;stroke-dasharray:none;stroke-opacity:1"
         d="m 3001.4,1767.27 32.48,-3.36 c 15.68,-2.99 27.62,-6.35 35.83,-10.08 27.63,-9.7 41.44,-22.03 41.44,-36.95 v -675.3 c -2.24,-8.95 -6.35,-16.23 -12.32,-21.83 -5.97,-5.6 -14.93,-11.01 -26.88,-16.24 l -35.83,-8.959 -34.72,-3.36 -36.95,3.36 -35.84,11.199 c -11.94,5.97 -21.28,12.32 -28,19.03 -6.72,6.73 -10.08,14.56 -10.08,23.53 v 661.85 c 2.24,18.66 14.56,32.85 36.96,42.55 22.4,9.7 47.04,14.56 73.91,14.56 z m -178.06,-282.21 c 0,-11.2 -4.11,-22.02 -12.32,-32.48 -9.7,-9.7 -21.65,-17.91 -35.84,-24.64 l -17.91,-6.71 -14.56,-4.48 h -386.36 c -21.65,0 -42.55,-2.24 -62.72,-6.72 -20.15,-4.48 -38.82,-10.46 -55.99,-17.92 -17.17,-7.47 -32.29,-16.61 -45.35,-27.44 -13.07,-10.82 -22.96,-22.21 -29.68,-34.15 l -5.6,-10.09 -6.72,-12.31 c -0.74,-2.24 -1.87,-6.35 -3.36,-12.32 l -2.24,-5.6 v -241.89 c 0,-8.97 -3.92,-16.99 -11.75,-24.08 -7.85,-7.09 -16.99,-12.88 -27.45,-17.36 -11.19,-5.97 -23.14,-10.069 -35.83,-12.319 l -38.08,-3.36 -35.83,3.36 -35.84,8.959 c -11.94,5.23 -21.28,10.45 -27.99,15.68 -7.47,7.47 -11.21,14.93 -11.21,22.39 v 262.06 c 0.75,2.24 1.13,3.73 1.13,4.48 0,1.49 0.74,4.85 2.23,10.08 l 7.85,22.39 c 10.44,29.87 26.87,57.12 49.27,81.76 39.57,39.56 88.28,71.67 146.15,96.31 57.85,24.63 125.23,36.95 202.13,36.95 h 397.56 c 27.62,0 50.4,-7.84 68.31,-23.52 10.46,-7.46 17.55,-15.3 21.28,-23.51 4.48,-8.22 6.72,-16.06 6.72,-23.52 z m -1488.32,-68.31 h -256.45 c -11.95,0 -22.4,2.05 -31.36,6.15 -8.96,4.11 -18.29,10.27 -28,18.49 -2.24,2.98 -5.22,7.09 -8.95,12.31 -3.74,5.23 -5.98,8.96 -6.73,11.2 -3.729,11.2 -5.592,18.29 -5.592,21.28 l 6.712,23.52 20.16,23.52 30.24,17.91 c 11.94,4.48 25.01,6.72 39.19,6.72 h 237.42 l 4.48,36.96 c 2.24,5.97 4.48,12.13 6.72,18.48 2.23,6.34 4.85,11.38 7.83,15.11 5.98,5.23 11.77,9.9 17.36,14 5.6,4.11 11.77,7.28 18.48,9.52 11.2,4.48 20.35,7.09 27.44,7.84 7.09,0.75 18.85,1.12 35.27,1.12 15.68,0 28.19,-0.74 37.52,-2.24 9.34,-1.49 17.73,-3.73 25.2,-6.72 14.18,-5.97 25.57,-13.62 34.15,-22.96 8.59,-9.33 12.89,-20.34 12.89,-33.03 0.74,-2.99 1.86,-9.33 3.35,-19.04 v -19.04 h 241.9 c 9.71,0 19.41,-1.49 29.12,-4.48 9.7,-2.98 18.66,-6.72 26.87,-11.2 8.21,-4.47 15.31,-9.51 21.28,-15.12 5.97,-5.6 10.08,-11.01 12.32,-16.23 4.48,-8.21 6.72,-16.05 6.72,-23.52 0,-8.21 -1.5,-15.31 -4.48,-21.28 -5.98,-10.45 -11.57,-18.29 -16.8,-23.52 -5.23,-7.46 -14.19,-13.43 -26.88,-17.91 -9.7,-5.23 -20.53,-7.84 -32.47,-7.84 h -259.82 v -378.52 l -8.96,-8.96 -10.07,-11.2 c -21.65,-17.91 -52.27,-26.879 -91.84,-26.879 -27.62,0 -53.75,5.981 -78.38,17.919 -13.45,6.72 -22.78,14 -28,21.84 -5.23,7.84 -7.84,16.98 -7.84,27.44 v 358.36 z m -404.278,282.21 c 0,-5.98 -1.679,-13.44 -5.039,-22.4 -3.363,-8.96 -9.144,-16.8 -17.355,-23.52 -5.973,-7.47 -14.563,-13.43 -25.762,-17.91 -11.199,-4.49 -23.887,-6.73 -38.074,-6.73 H 462.633 c -23.891,0 -47.598,-3.36 -71.113,-10.08 -23.516,-6.71 -45.356,-14.93 -65.512,-24.63 -13.438,-8.22 -22.399,-13.81 -26.879,-16.8 -14.93,-10.45 -25.383,-20.53 -31.356,-30.24 -5.968,-9.7 -8.957,-20.16 -8.957,-31.35 v -262.06 c 0,-12.69 3.36,-24.63 10.079,-35.83 6.718,-11.2 15.675,-21.47 26.875,-30.8 11.199,-9.33 24.074,-17.91 38.636,-25.76 14.559,-7.83 29.676,-14.37 45.356,-19.6 25.383,-6.71 49.273,-10.07 71.672,-10.07 h 393.078 c 14.187,0 26.691,-2.62 37.515,-7.84 10.825,-5.23 19.786,-11.57 26.879,-19.04 7.09,-7.46 12.5,-15.31 16.239,-23.52 3.734,-8.21 5.597,-14.93 5.597,-20.16 0,-7.46 -1.679,-15.3 -5.039,-23.51 -3.363,-8.21 -8.773,-15.69 -16.238,-22.4 -7.465,-6.72 -16.613,-12.32 -27.438,-16.8 -10.824,-4.48 -23.328,-6.719 -37.515,-6.719 H 414.48 c -44.796,0 -86.609,5.61 -125.429,16.799 -22.399,7.47 -41.809,14.93 -58.235,22.4 -16.425,7.46 -32.476,15.3 -48.152,23.52 -35.836,21.65 -63.086,42.55 -81.754,62.71 -13.4373,12.69 -24.078,24.82 -31.9139,36.4 -7.8438,11.57 -14.7461,23.7 -20.7188,36.39 l -4.4765,7.84 -5.6055,14.56 c -2.2383,2.98 -3.3594,7.84 -3.3594,14.56 l -2.2382,10.07 v 299.01 c 0.75,3.74 1.8671,8.96 3.3593,15.68 1.4961,6.72 3.3594,12.32 5.6016,16.8 l 17.9141,31.36 c 29.8632,43.3 68.6873,76.9 116.4723,100.79 51.512,26.12 111.239,45.16 179.176,57.11 l 21.281,3.36 26.875,3.36 c 4.485,1.49 10.453,2.24 17.922,2.24 l 14.559,1.12 h 408.754 c 14.187,0 26.691,-2.43 37.515,-7.28 10.825,-4.85 19.973,-10.83 27.438,-17.92 7.465,-7.09 12.875,-14.55 16.238,-22.39 3.36,-7.84 5.039,-14.75 5.039,-20.72 z" /><path
         id="path16"
         style="fill:#0994dc;fill-opacity:1;fill-rule:nonzero;stroke:none"
         d="m 930.742,1698.96 c 0,-5.98 -1.679,-13.44 -5.039,-22.4 -3.363,-8.96 -9.144,-16.8 -17.355,-23.52 -5.973,-7.47 -14.563,-13.43 -25.762,-17.91 -11.199,-4.49 -23.887,-6.73 -38.074,-6.73 H 462.633 c -23.891,0 -47.598,-3.36 -71.113,-10.08 -23.516,-6.71 -45.356,-14.93 -65.512,-24.63 -13.438,-8.22 -22.399,-13.81 -26.879,-16.8 -14.93,-10.45 -25.383,-20.53 -31.356,-30.24 -5.968,-9.7 -8.957,-20.16 -8.957,-31.35 v -262.06 c 0,-12.69 3.36,-24.63 10.079,-35.83 6.718,-11.2 15.675,-21.47 26.875,-30.8 11.199,-9.33 24.074,-17.91 38.636,-25.76 14.559,-7.83 29.676,-14.37 45.356,-19.6 25.383,-6.71 49.273,-10.07 71.672,-10.07 h 393.078 c 14.187,0 26.691,-2.62 37.515,-7.84 10.825,-5.23 19.786,-11.57 26.879,-19.04 7.09,-7.46 12.5,-15.31 16.239,-23.52 3.734,-8.21 5.597,-14.93 5.597,-20.16 0,-7.46 -1.679,-15.3 -5.039,-23.51 -3.363,-8.21 -8.773,-15.69 -16.238,-22.4 -7.465,-6.72 -16.613,-12.32 -27.438,-16.8 -10.824,-4.48 -23.328,-6.719 -37.515,-6.719 H 414.48 c -44.796,0 -86.609,5.61 -125.429,16.799 -22.399,7.47 -41.809,14.93 -58.235,22.4 -16.425,7.46 -32.476,15.3 -48.152,23.52 -35.836,21.65 -63.086,42.55 -81.754,62.71 -13.4373,12.69 -24.078,24.82 -31.9139,36.4 -7.8438,11.57 -14.7461,23.7 -20.7188,36.39 l -4.4765,7.84 -5.6055,14.56 c -2.2383,2.98 -3.3594,7.84 -3.3594,14.56 l -2.2382,10.07 v 299.01 c 0.75,3.74 1.8671,8.96 3.3593,15.68 1.4961,6.72 3.3594,12.32 5.6016,16.8 l 17.9141,31.36 c 29.8632,43.3 68.6873,76.9 116.4723,100.79 51.512,26.12 111.239,45.16 179.176,57.11 l 21.281,3.36 26.875,3.36 c 4.485,1.49 10.453,2.24 17.922,2.24 l 14.559,1.12 h 408.754 c 14.187,0 26.691,-2.43 37.515,-7.28 10.825,-4.85 19.973,-10.83 27.438,-17.92 7.465,-7.09 12.875,-14.55 16.238,-22.39 3.36,-7.84 5.039,-14.75 5.039,-20.72 v 0" /><path
         id="path18"
         style="fill:#0994dc;fill-opacity:1;fill-rule:nonzero;stroke:none"
         d="m 1335.02,1416.75 h -256.45 c -11.95,0 -22.4,2.05 -31.36,6.15 -8.96,4.11 -18.29,10.27 -28,18.49 -2.24,2.98 -5.22,7.09 -8.95,12.31 -3.74,5.23 -5.98,8.96 -6.73,11.2 -3.729,11.2 -5.592,18.29 -5.592,21.28 l 6.712,23.52 20.16,23.52 30.24,17.91 c 11.94,4.48 25.01,6.72 39.19,6.72 h 237.42 l 4.48,36.96 c 2.24,5.97 4.48,12.13 6.72,18.48 2.23,6.34 4.85,11.38 7.83,15.11 5.98,5.23 11.77,9.9 17.36,14 5.6,4.11 11.77,7.28 18.48,9.52 11.2,4.48 20.35,7.09 27.44,7.84 7.09,0.75 18.85,1.12 35.27,1.12 15.68,0 28.19,-0.74 37.52,-2.24 9.34,-1.49 17.73,-3.73 25.2,-6.72 14.18,-5.97 25.57,-13.62 34.15,-22.96 8.59,-9.33 12.89,-20.34 12.89,-33.03 0.74,-2.99 1.86,-9.33 3.35,-19.04 v -19.04 h 241.9 c 9.71,0 19.41,-1.49 29.12,-4.48 9.7,-2.98 18.66,-6.72 26.87,-11.2 8.21,-4.47 15.31,-9.51 21.28,-15.12 5.97,-5.6 10.08,-11.01 12.32,-16.23 4.48,-8.21 6.72,-16.05 6.72,-23.52 0,-8.21 -1.5,-15.31 -4.48,-21.28 -5.98,-10.45 -11.57,-18.29 -16.8,-23.52 -5.23,-7.46 -14.19,-13.43 -26.88,-17.91 -9.7,-5.23 -20.53,-7.84 -32.47,-7.84 h -259.82 v -378.52 l -8.96,-8.96 -10.07,-11.2 c -21.65,-17.91 -52.27,-26.879 -91.84,-26.879 -27.62,0 -53.75,5.981 -78.38,17.919 -13.45,6.72 -22.78,14 -28,21.84 -5.23,7.84 -7.84,16.98 -7.84,27.44 v 358.36 0" /><path
         id="path20"
         style="fill:#0994dc;fill-opacity:1;fill-rule:nonzero;stroke:none"
         d="m 2823.34,1485.06 c 0,-11.2 -4.11,-22.02 -12.32,-32.48 -9.7,-9.7 -21.65,-17.91 -35.84,-24.64 l -17.91,-6.71 -14.56,-4.48 h -386.36 c -21.65,0 -42.55,-2.24 -62.72,-6.72 -20.15,-4.48 -38.82,-10.46 -55.99,-17.92 -17.17,-7.47 -32.29,-16.61 -45.35,-27.44 -13.07,-10.82 -22.96,-22.21 -29.68,-34.15 l -5.6,-10.09 -6.72,-12.31 c -0.74,-2.24 -1.87,-6.35 -3.36,-12.32 l -2.24,-5.6 v -241.89 c 0,-8.97 -3.92,-16.99 -11.75,-24.08 -7.85,-7.09 -16.99,-12.88 -27.45,-17.36 -11.19,-5.97 -23.14,-10.069 -35.83,-12.319 l -38.08,-3.36 -35.83,3.36 -35.84,8.959 c -11.94,5.23 -21.28,10.45 -27.99,15.68 -7.47,7.47 -11.21,14.93 -11.21,22.39 v 262.06 c 0.75,2.24 1.13,3.73 1.13,4.48 0,1.49 0.74,4.85 2.23,10.08 l 7.85,22.39 c 10.44,29.87 26.87,57.12 49.27,81.76 39.57,39.56 88.28,71.67 146.15,96.31 57.85,24.63 125.23,36.95 202.13,36.95 h 397.56 c 27.62,0 50.4,-7.84 68.31,-23.52 10.46,-7.46 17.55,-15.3 21.28,-23.51 4.48,-8.22 6.72,-16.06 6.72,-23.52 v 0" /><path
         id="path22"
         style="fill:#0994dc;fill-opacity:1;fill-rule:nonzero;stroke:none"
         d="m 3001.4,1767.27 32.48,-3.36 c 15.68,-2.99 27.62,-6.35 35.83,-10.08 27.63,-9.7 41.44,-22.03 41.44,-36.95 v -675.3 c -2.24,-8.95 -6.35,-16.23 -12.32,-21.83 -5.97,-5.6 -14.93,-11.01 -26.88,-16.24 l -35.83,-8.959 -34.72,-3.36 -36.95,3.36 -35.84,11.199 c -11.94,5.97 -21.28,12.32 -28,19.03 -6.72,6.73 -10.08,14.56 -10.08,23.53 v 661.85 c 2.24,18.66 14.56,32.85 36.96,42.55 22.4,9.7 47.04,14.56 73.91,14.56 v 0" /><path
         id="path24"
         style="fill:#383536;fill-opacity:1;fill-rule:evenodd;stroke:none"
         d="m 3528.96,1824.4 666.75,-431.96 V 768.211 l -666.75,431.969 v 624.22 0" /><path
         id="path26"
         style="fill:#918f8f;fill-opacity:1;fill-rule:evenodd;stroke:none"
         d="M 4862.46,1824.4 4195.71,1392.44 V 768.211 l 666.75,431.969 v 624.22 0" /><path
         id="path28"
         style="fill:#656263;fill-opacity:1;fill-rule:evenodd;stroke:none"
         d="m 4862.46,1824.4 -666.75,-431.96 -666.75,431.96 666.75,431.97 666.75,-431.97 v 0" /><path
         id="path30"
         style="fill:none;stroke:#ffffff;stroke-width:66.34919739;stroke-linecap:butt;stroke-linejoin:round;stroke-miterlimit:2.61313009;stroke-dasharray:none;stroke-opacity:1"
         d="M 4862.46,1203.31 4195.71,768.211 3528.96,1203.31 v 621.09 l 336.4,-217.94 v -326.61 c 0,-6.71 13.44,-20.81 40.29,-42.3 26.86,-21.48 58.42,-43.98 94.67,-67.48 36.26,-23.5 72.18,-47 107.77,-70.5 35.58,-23.5 70.16,-39.28 87.62,-47.33 60.96,37.52 127,79.93 186.33,119.85 36.93,24.84 69.5,47.34 97.69,67.47 28.21,20.15 42.31,33.58 42.31,40.29 v 324 l 340.42,220.55 v -621.09 z" /><path
         id="path32"
         style="fill:#0994dc;fill-opacity:1;fill-rule:nonzero;stroke:none"
         d="M 4862.46,1203.31 4195.71,768.211 3528.96,1203.31 v 621.09 l 336.4,-217.94 v -326.61 c 0,-6.71 13.44,-20.81 40.29,-42.3 26.86,-21.48 58.42,-43.98 94.67,-67.48 36.26,-23.5 72.18,-47 107.77,-70.5 35.58,-23.5 70.16,-39.28 87.62,-47.33 60.96,37.52 127,79.93 186.33,119.85 36.93,24.84 69.5,47.34 97.69,67.47 28.21,20.15 42.31,33.58 42.31,40.29 v 324 l 340.42,220.55 v -621.09 0" /><path
         id="path34"
         style="fill:#000000;fill-opacity:1;fill-rule:evenodd;stroke:none"
         d="M 96.6523,569.391 H 4798.4 c 35.24,0 64.06,-28.821 64.06,-64.051 V 64.0391 C 4862.46,28.8203 4833.64,0 4798.4,0 H 96.6523 C 61.4219,0 32.5977,28.8203 32.5977,64.0391 V 505.34 c 0,35.23 28.8242,64.051 64.0546,64.051 v 0" /><path
         id="path36"
         style="fill:#ffffff;fill-opacity:1;fill-rule:nonzero;stroke:none"
         d="m 622.48,248.852 c -0.312,-2.223 -3.949,-5.852 -10.898,-10.903 -6.945,-5.058 -15.555,-11.07 -25.824,-18.008 -10.262,-6.953 -21.563,-14.222 -33.883,-21.8 -12.316,-7.582 -24.246,-14.93 -35.773,-22.039 -11.532,-7.114 -22.039,-13.352 -31.516,-18.723 -9.477,-5.367 -16.426,-8.988 -20.848,-10.899 -4.425,1.911 -11.297,5.532 -20.617,10.899 -9.316,5.371 -19.664,11.609 -31.039,18.723 -11.371,7.109 -23.059,14.457 -35.062,22.039 -12.004,7.578 -22.985,14.847 -32.938,21.8 -9.949,6.938 -18.242,12.95 -24.875,18.008 -6.637,5.051 -10.109,8.68 -10.426,10.903 v 143.097 h 7.11 c 19.902,0 37.117,-4.269 51.648,-12.789 13.586,-6.949 20.375,-17.539 20.375,-31.75 v -80.558 c 0,-1.582 3.16,-4.903 9.481,-9.954 6.316,-5.058 13.746,-10.347 22.269,-15.878 8.531,-5.52 16.984,-11.051 25.356,-16.579 8.371,-5.531 14.609,-9.25 18.718,-11.14 4.106,2.527 10.586,6.398 19.426,11.609 8.848,5.219 17.613,10.738 26.301,16.59 8.687,5.84 16.348,11.141 22.984,15.871 6.633,4.738 9.949,7.899 9.949,9.481 v 81.027 c 0,12.641 7.266,23.383 21.797,32.23 13.903,7.903 31.118,11.84 51.657,11.84 h 6.628 v -143.097 0" /><path
         id="path38"
         style="fill:#ffffff;fill-opacity:1;fill-rule:nonzero;stroke:none"
         d="m 721.52,154.539 c -9.477,0 -18.481,1.191 -27.012,3.551 -8.524,2.379 -16.031,5.699 -22.508,9.961 -6.473,4.258 -11.609,9.398 -15.402,15.398 -3.789,6 -5.684,12.789 -5.684,20.379 v 188.121 h 79.137 v -237.41 h -8.531 v 0" /><path
         id="path40"
         style="fill:#ffffff;fill-opacity:1;fill-rule:nonzero;stroke:none"
         d="M 988.313,154.07 875.055,298.121 h 123.207 v 44.078 H 837.617 V 210.941 c 0,-22.429 -6.789,-37.601 -20.375,-45.5 -6.953,-4.101 -14.847,-6.793 -23.691,-8.062 -8.848,-1.258 -17.852,-1.891 -27.012,-1.891 h -8.055 v 236.461 h 246.406 c 22.12,0 39.65,-4.269 52.61,-12.789 12.95,-8.539 19.43,-20.851 19.43,-36.961 V 297.18 c 0,-15.168 -5.93,-27.008 -17.78,-35.539 -11.84,-8.539 -28.67,-13.27 -50.46,-14.223 l 75.82,-93.348 h -96.197 v 0" /><path
         id="path42"
         style="fill:#ffffff;fill-opacity:1;fill-rule:nonzero;stroke:none"
         d="m 1434.69,381.52 c 0,-10.098 -2.36,-17.84 -7.1,-23.211 -4.74,-5.368 -10.5,-9.161 -17.3,-11.379 -6.79,-2.2 -13.82,-3.551 -21.08,-4.02 -7.27,-0.48 -13.59,-0.711 -18.96,-0.711 h -55.44 V 203.828 c 0,-17.699 -4.03,-30.328 -12.09,-37.906 -8.05,-7.594 -22.98,-11.383 -44.78,-11.383 h -23.22 v 187.66 h -121.78 v 6.629 c 0,16.75 4.82,28.113 14.45,34.121 9.64,6 23.3,9 40.99,9 h 266.31 v -10.429 0" /><path
         id="path44"
         style="fill:#ffffff;fill-opacity:1;fill-rule:nonzero;stroke:none"
         d="m 1763.09,203.828 c 0,-7.59 -1.98,-14.379 -5.93,-20.379 -3.94,-6 -9.16,-11.14 -15.64,-15.398 -6.47,-4.262 -13.97,-7.582 -22.5,-9.961 -8.53,-2.36 -17.7,-3.551 -27.49,-3.551 h -156.85 c -9.79,0 -19.03,1.191 -27.72,3.551 -8.69,2.379 -16.27,5.699 -22.74,9.961 -6.48,4.258 -11.61,9.398 -15.41,15.398 -3.78,6 -5.68,12.789 -5.68,20.379 v 188.121 h 8.53 c 20.85,0 37.83,-3 50.94,-9 13.11,-6.008 19.67,-16.578 19.67,-31.75 V 203.352 h 141.68 v 188.597 h 79.14 v -188.121 0" /><path
         id="path46"
         style="fill:#ffffff;fill-opacity:1;fill-rule:nonzero;stroke:none"
         d="m 2030.83,342.199 h -160.17 v -44.078 h 160.17 v 44.078 z m 0,-187.66 v 93.359 h -160.17 v -36.957 c 0,-11.691 -1.74,-20.703 -5.21,-27.019 -3.48,-6.313 -8.85,-11.684 -16.12,-16.113 -6.63,-4.11 -14.61,-7.34 -23.93,-9.719 -9.31,-2.36 -19.03,-3.551 -29.14,-3.551 h -4.74 V 339.82 c 0,9.16 1.9,16.989 5.69,23.461 3.79,6.481 9,11.848 15.64,16.11 6.63,4.269 14.29,7.429 22.98,9.488 8.68,2.051 17.77,3.07 27.25,3.07 h 247.83 v -237.41 h -80.08 v 0" /><path
         id="path48"
         style="fill:#ffffff;fill-opacity:1;fill-rule:nonzero;stroke:none"
         d="m 2383.86,203.352 c -0.63,-8.532 -3,-15.954 -7.11,-22.274 -4.1,-6.316 -9.4,-11.367 -15.87,-15.156 -6.48,-3.793 -14.06,-6.633 -22.75,-8.543 -8.69,-1.891 -18.08,-2.84 -28.19,-2.84 h -97.62 c -10.11,0 -19.58,1.031 -28.43,3.09 -8.84,2.051 -16.59,5.121 -23.22,9.23 -6.64,4.11 -11.85,9.161 -15.64,15.172 -3.79,6 -5.69,13.258 -5.69,21.797 v 188.121 h 7.11 c 22.12,0 39.65,-4.269 52.6,-12.789 12.95,-8.539 19.43,-20.851 19.43,-36.961 V 203.352 h 165.38 v 0" /><path
         id="path50"
         style="fill:#ffffff;fill-opacity:1;fill-rule:nonzero;stroke:none"
         d="m 2750.16,154.07 -113.25,144.051 h 123.2 v 44.078 H 2599.47 V 210.941 c 0,-22.429 -6.79,-37.601 -20.37,-45.5 -6.95,-4.101 -14.86,-6.793 -23.7,-8.062 -8.84,-1.258 -17.84,-1.891 -27.01,-1.891 h -8.05 v 236.461 h 246.4 c 22.12,0 39.65,-4.269 52.6,-12.789 12.96,-8.539 19.44,-20.851 19.44,-36.961 V 297.18 c 0,-15.168 -5.93,-27.008 -17.78,-35.539 -11.84,-8.539 -28.66,-13.27 -50.47,-14.223 l 75.82,-93.348 h -96.19 v 0" /><path
         id="path52"
         style="fill:#ffffff;fill-opacity:1;fill-rule:nonzero;stroke:none"
         d="m 3105.09,247.898 h -151.16 v -44.546 h 239.3 c 0,-8.532 -1.82,-15.872 -5.45,-22.032 -3.63,-6.16 -8.76,-11.211 -15.4,-15.172 -6.63,-3.937 -14.3,-6.859 -22.98,-8.769 -8.69,-1.891 -18.08,-2.84 -28.2,-2.84 h -175.32 c -9.8,0 -18.96,1.191 -27.49,3.551 -8.53,2.379 -16.04,5.699 -22.51,9.961 -6.48,4.258 -11.62,9.398 -15.4,15.398 -3.79,6 -5.69,12.789 -5.69,20.379 v 138.844 c 0,7.258 1.9,13.898 5.69,19.898 3.78,6 8.92,11.141 15.4,15.399 6.47,4.269 13.98,7.66 22.51,10.191 8.53,2.531 17.52,3.789 27.01,3.789 h 175.8 c 21.8,0 39.26,-4.269 52.36,-12.789 13.12,-8.539 19.67,-20.851 19.67,-36.961 h -239.3 v -44.078 h 151.16 v -50.223 0" /><path
         id="path54"
         style="fill:#ffffff;fill-opacity:1;fill-rule:nonzero;stroke:none"
         d="M 3460.96,342.199 H 3300.8 v -44.078 h 160.16 v 44.078 z m 0,-187.66 v 93.359 H 3300.8 v -36.957 c 0,-11.691 -1.74,-20.703 -5.22,-27.019 -3.46,-6.313 -8.84,-11.684 -16.1,-16.113 -6.64,-4.11 -14.61,-7.34 -23.94,-9.719 -9.31,-2.36 -19.03,-3.551 -29.14,-3.551 h -4.73 V 339.82 c 0,9.16 1.89,16.989 5.68,23.461 3.79,6.481 9,11.848 15.63,16.11 6.64,4.269 14.3,7.429 22.99,9.488 8.68,2.051 17.77,3.07 27.25,3.07 h 247.83 v -237.41 h -80.09 v 0" /><path
         id="path56"
         style="fill:#ffffff;fill-opacity:1;fill-rule:nonzero;stroke:none"
         d="m 3814,203.352 c -0.63,-8.532 -3,-15.954 -7.11,-22.274 -4.1,-6.316 -9.39,-11.367 -15.87,-15.156 -6.47,-3.793 -14.06,-6.633 -22.75,-8.543 -8.68,-1.891 -18.08,-2.84 -28.2,-2.84 h -97.61 c -10.11,0 -19.58,1.031 -28.43,3.09 -8.85,2.051 -16.59,5.121 -23.22,9.23 -6.63,4.11 -11.85,9.161 -15.64,15.172 -3.79,6 -5.68,13.258 -5.68,21.797 v 188.121 h 7.11 c 22.11,0 39.64,-4.269 52.6,-12.789 12.95,-8.539 19.42,-20.851 19.42,-36.961 V 203.352 H 3814 v 0" /><path
         id="path58"
         style="fill:#ffffff;fill-opacity:1;fill-rule:nonzero;stroke:none"
         d="m 3913.04,154.539 c -9.48,0 -18.48,1.191 -27.01,3.551 -8.53,2.379 -16.03,5.699 -22.51,9.961 -6.47,4.258 -11.61,9.398 -15.4,15.398 -3.79,6 -5.69,12.789 -5.69,20.379 v 188.121 h 79.14 v -237.41 h -8.53 v 0" /><path
         id="path60"
         style="fill:#ffffff;fill-opacity:1;fill-rule:nonzero;stroke:none"
         d="m 4271.76,381.52 c 0,-10.098 -2.37,-17.84 -7.11,-23.211 -4.73,-5.368 -10.5,-9.161 -17.29,-11.379 -6.8,-2.2 -13.83,-3.551 -21.09,-4.02 -7.27,-0.48 -13.59,-0.711 -18.96,-0.711 h -55.44 V 203.828 c 0,-17.699 -4.03,-30.328 -12.08,-37.906 -8.06,-7.594 -22.99,-11.383 -44.78,-11.383 h -23.23 v 187.66 h -121.77 v 6.629 c 0,16.75 4.81,28.113 14.45,34.121 9.63,6 23.29,9 40.99,9 h 266.31 v -10.429 0" /><path
         id="path62"
         style="fill:#ffffff;fill-opacity:1;fill-rule:nonzero;stroke:none"
         d="m 4619.11,202.398 c 0,-10.109 -2.61,-18.32 -7.82,-24.636 -5.22,-6.321 -11.69,-11.211 -19.43,-14.684 -7.74,-3.476 -16.27,-5.777 -25.59,-6.879 -9.32,-1.097 -18.09,-1.66 -26.3,-1.66 h -165.85 v 4.75 c 0,11.051 2.92,19.652 8.76,25.82 5.85,6.161 12.63,10.582 20.38,13.27 7.73,2.68 15.79,4.18 24.17,4.5 8.37,0.312 14.92,0.473 19.66,0.473 h 92.88 v 44.546 h -166.8 c -4.75,0 -11.22,-0.238 -19.43,-0.707 -8.22,-0.48 -16.35,0.149 -24.41,1.887 -8.05,1.742 -14.92,5.371 -20.61,10.902 -5.69,5.532 -8.53,14.141 -8.53,25.821 V 391.48 h 6.63 c 5.06,0 11.77,-0.32 20.14,-0.949 8.38,-0.633 16.44,-2.211 24.17,-4.742 7.74,-2.527 14.45,-6.629 20.15,-12.309 5.68,-5.699 8.52,-13.91 8.52,-24.652 v -50.707 h 160.17 v 93.828 h 79.14 v -189.551 0" /><path
         id="path64"
         style="fill:none;stroke:#ffffff;stroke-width:10;stroke-linecap:butt;stroke-linejoin:miter;stroke-miterlimit:10;stroke-dasharray:none;stroke-opacity:1"
         d="m 4905.15,1939.95 c 0,-21.81 -17.68,-39.49 -39.5,-39.49 -21.82,0 -39.49,17.68 -39.49,39.49 0,21.82 17.67,39.5 39.49,39.5 21.82,0 39.5,-17.68 39.5,-39.5 z" /><g
         transform="scale(10)"
         id="g66"><text
           id="text70"
           style="font-variant:normal;font-weight:normal;font-size:5.89929008px;font-family:'Days One';-inkscape-font-specification:Days;writing-mode:lr-tb;fill:#ffffff;fill-opacity:1;fill-rule:nonzero;stroke:none"
           transform="matrix(1,0,0,-1,484.184,191.814)"><tspan
             id="tspan68"
             y="0"
             x="0">R</tspan></text>
</g></g></g></svg>