<?xml version="1.0" encoding="UTF-8"?>
<svg xmlns="http://www.w3.org/2000/svg" xmlns:xlink="http://www.w3.org/1999/xlink" width="719.827pt" height="261.168pt" viewBox="0 0 719.827 261.168" version="1.1">
<g id="surface1">
<path style=" stroke:none;fill-rule:evenodd;fill:rgb(0%,0.799561%,13.299561%);fill-opacity:1;" d="M 148.25 101.355469 C 143.441406 96.523438 133.796875 90.417969 133.796875 90.417969 C 133.796875 90.417969 131.878906 79.179688 130.582031 75.019531 C 139.253906 66.644531 140.550781 65.375 148.898438 57.351563 C 149.546875 73.398438 149.222656 81.746094 148.25 101.355469 "/>
<path style=" stroke:none;fill-rule:evenodd;fill:rgb(0%,0.799561%,13.299561%);fill-opacity:1;" d="M 155.003906 135.070313 C 149.222656 136.664063 148.574219 136.988281 142.792969 138.605469 C 136.6875 135.070313 131.230469 133.148438 126.097656 133.773438 C 126.746094 130.585938 127.691406 128.316406 128.664063 125.425781 C 139.578125 123.832031 147.601563 129.613281 155.003906 135.070313 "/>
<path style=" stroke:none;fill-rule:evenodd;fill:rgb(0%,0.799561%,13.299561%);fill-opacity:1;" d="M 243.632813 130.585938 C 243.632813 160.558594 231.722656 189.3125 210.542969 210.519531 C 204.464844 216.597656 197.785156 221.90625 190.609375 226.390625 C 190.609375 226.390625 190.585938 226.417969 190.558594 226.417969 L 151.789063 178.101563 L 183.90625 181.640625 C 183.90625 181.640625 199.332031 183.234375 202.84375 181.640625 C 206.058594 180.371094 223.402344 155.949219 223.402344 155.949219 C 223.402344 155.949219 173.617188 124.480469 156.597656 107.136719 C 158.542969 77.90625 154.355469 39.039063 154.355469 39.359375 C 141.820313 51.871094 140.226563 53.8125 127.691406 65.375 C 122.234375 47.710938 119.671875 41.605469 114.214844 23.9375 C 97.816406 37.417969 85.308594 60.242188 76.3125 86.902344 C 74.34375 89.070313 72.453125 91.363281 70.582031 93.804688 C 69.363281 95.425781 68.140625 97.070313 66.96875 98.765625 C 64.550781 102.203125 62.234375 105.816406 60.019531 109.601563 C 58.449219 112.269531 56.902344 115.011719 55.40625 117.800781 C 44.96875 137.410156 36.394531 159.886719 28.96875 180.121094 C 28.921875 180.046875 28.871094 179.945313 28.847656 179.871094 C 21.46875 164.644531 17.53125 147.828125 17.53125 130.585938 C 17.53125 100.582031 29.445313 71.828125 50.648438 50.625 C 71.851563 29.417969 100.609375 17.507813 130.585938 17.507813 C 160.585938 17.507813 189.339844 29.417969 210.542969 50.625 C 231.722656 71.828125 243.632813 100.582031 243.632813 130.585938 "/>
<path style=" stroke:none;fill-rule:evenodd;fill:rgb(86.698914%,6.698608%,0%);fill-opacity:1;" d="M 148.25 101.355469 C 143.441406 96.523438 133.796875 90.417969 133.796875 90.417969 C 133.796875 90.417969 131.878906 79.179688 130.582031 75.019531 C 139.253906 66.644531 140.550781 65.375 148.898438 57.351563 C 149.546875 73.398438 149.222656 81.746094 148.25 101.355469 "/>
<path style=" stroke:none;fill-rule:evenodd;fill:rgb(86.698914%,6.698608%,0%);fill-opacity:1;" d="M 155.003906 135.070313 C 149.222656 136.664063 148.574219 136.988281 142.792969 138.605469 C 136.6875 135.070313 131.230469 133.148438 126.097656 133.773438 C 126.746094 130.585938 127.691406 128.316406 128.664063 125.425781 C 139.578125 123.832031 147.601563 129.613281 155.003906 135.070313 "/>
<path style=" stroke:none;fill-rule:evenodd;fill:rgb(86.698914%,6.698608%,0%);fill-opacity:1;" d="M 243.632813 130.585938 C 243.632813 160.558594 231.722656 189.3125 210.542969 210.519531 C 204.464844 216.597656 197.785156 221.90625 190.609375 226.390625 C 190.609375 226.390625 190.585938 226.417969 190.558594 226.417969 L 151.789063 178.101563 L 183.90625 181.640625 C 183.90625 181.640625 199.332031 183.234375 202.84375 181.640625 C 206.058594 180.371094 223.402344 155.949219 223.402344 155.949219 C 223.402344 155.949219 173.617188 124.480469 156.597656 107.136719 C 158.542969 77.90625 154.355469 39.039063 154.355469 39.359375 C 141.820313 51.871094 140.226563 53.8125 127.691406 65.375 C 122.234375 47.710938 119.671875 41.605469 114.214844 23.9375 C 97.816406 37.417969 85.308594 60.242188 76.3125 86.902344 C 74.34375 89.070313 72.453125 91.363281 70.582031 93.804688 C 69.363281 95.425781 68.140625 97.070313 66.96875 98.765625 C 64.550781 102.203125 62.234375 105.816406 60.019531 109.601563 C 58.449219 112.269531 56.902344 115.011719 55.40625 117.800781 C 44.96875 137.410156 36.394531 159.886719 28.96875 180.121094 C 28.921875 180.046875 28.871094 179.945313 28.847656 179.871094 C 21.46875 164.644531 17.53125 147.828125 17.53125 130.585938 C 17.53125 100.582031 29.445313 71.828125 50.648438 50.625 C 71.851563 29.417969 100.609375 17.507813 130.585938 17.507813 C 160.585938 17.507813 189.339844 29.417969 210.542969 50.625 C 231.722656 71.828125 243.632813 100.582031 243.632813 130.585938 "/>
<path style=" stroke:none;fill-rule:evenodd;fill:rgb(100%,100%,100%);fill-opacity:1;" d="M 148.25 101.355469 C 143.441406 96.523438 133.796875 90.417969 133.796875 90.417969 C 133.796875 90.417969 131.878906 79.179688 130.582031 75.019531 C 139.253906 66.644531 140.550781 65.375 148.898438 57.351563 C 149.546875 73.398438 149.222656 81.746094 148.25 101.355469 "/>
<path style=" stroke:none;fill-rule:evenodd;fill:rgb(100%,100%,100%);fill-opacity:1;" d="M 155.003906 135.070313 C 149.222656 136.664063 148.574219 136.988281 142.792969 138.605469 C 136.6875 135.070313 131.230469 133.148438 126.097656 133.773438 C 126.746094 130.585938 127.691406 128.316406 128.664063 125.425781 C 139.578125 123.832031 147.601563 129.613281 155.003906 135.070313 "/>
<path style=" stroke:none;fill-rule:evenodd;fill:rgb(0%,0%,0%);fill-opacity:1;" d="M 155.003906 135.070313 C 149.222656 136.664063 148.574219 136.988281 142.792969 138.605469 C 136.6875 135.070313 131.230469 133.148438 126.097656 133.773438 C 126.746094 130.585938 127.691406 128.316406 128.664063 125.425781 C 139.578125 123.832031 147.601563 129.613281 155.003906 135.070313 "/>
<path style=" stroke:none;fill-rule:evenodd;fill:rgb(0%,0.799561%,13.299561%);fill-opacity:1;" d="M 151.789063 178.101563 L 190.5625 226.417969 C 190.585938 226.417969 190.609375 226.390625 190.609375 226.390625 Z M 28.84375 179.871094 C 28.871094 179.945313 28.921875 180.042969 28.96875 180.121094 C 36.394531 159.886719 44.96875 137.410156 55.40625 117.800781 C 44.894531 137.335938 36.246094 159.738281 28.84375 179.871094 "/>
<path style=" stroke:none;fill-rule:evenodd;fill:rgb(0%,0%,0%);fill-opacity:1;" d="M 210.542969 210.519531 C 204.464844 216.597656 197.785156 221.90625 190.609375 226.390625 C 190.609375 226.390625 190.585938 226.417969 190.558594 226.417969 L 151.789063 178.101563 L 183.90625 181.640625 C 183.90625 181.640625 199.332031 183.234375 202.84375 181.640625 C 206.058594 180.371094 223.402344 155.949219 223.402344 155.949219 C 223.402344 155.949219 173.617188 124.480469 156.597656 107.136719 C 158.539063 77.90625 154.355469 39.039063 154.355469 39.359375 C 141.820313 51.871094 140.226563 53.8125 127.695313 65.375 C 122.238281 47.710938 119.667969 41.605469 114.214844 23.9375 C 97.816406 37.417969 85.308594 60.242188 76.3125 86.902344 C 74.34375 89.070313 72.453125 91.363281 70.582031 93.804688 C 69.363281 95.425781 68.140625 97.070313 66.96875 98.765625 C 64.554688 102.203125 62.234375 105.816406 60.019531 109.601563 C 58.449219 112.269531 56.902344 115.011719 55.40625 117.800781 C 54.761719 119.023438 54.113281 120.269531 53.464844 121.515625 C 43.894531 140.203125 35.921875 161.15625 28.972656 180.121094 C 28.921875 180.046875 28.871094 179.945313 28.847656 179.871094 C 21.46875 164.644531 17.53125 147.828125 17.53125 130.585938 C 17.53125 100.582031 29.445313 71.828125 50.648438 50.625 C 71.855469 29.417969 100.609375 17.507813 130.582031 17.507813 C 160.585938 17.507813 189.339844 29.417969 210.542969 50.625 C 231.722656 71.828125 243.632813 100.582031 243.632813 130.585938 C 243.632813 160.558594 231.722656 189.3125 210.542969 210.519531 M 130.582031 75.019531 C 139.253906 66.644531 140.550781 65.375 148.898438 57.351563 C 149.546875 73.398438 149.222656 81.746094 148.25 101.355469 C 143.441406 96.523438 133.796875 90.417969 133.796875 90.417969 C 133.796875 90.417969 131.878906 79.179688 130.582031 75.019531 M 170.726563 236.882813 C 101.453125 261.925781 51.394531 215.828125 40.707031 199.707031 C 40.757813 199.554688 40.78125 199.429688 40.804688 199.28125 C 50.425781 158.617188 62.285156 109.953125 81.445313 95.574219 C 91.414063 78.207031 94.304688 52.519531 112.269531 39.039063 C 116.78125 52.519531 123.855469 80.476563 128.664063 93.957031 C 149.871094 115.160156 181.988281 141.5 203.492188 152.414063 C 205.734375 153.707031 208.625 162.703125 208.625 162.703125 L 199.953125 173.617188 L 107.460938 164.296875 C 105.390625 164.125 103.324219 164.046875 101.257813 164.046875 C 95.324219 164.046875 89.246094 164.722656 82.09375 165.890625 C 86.578125 154.652344 96.222656 145.660156 96.222656 145.660156 C 96.222656 145.660156 87.226563 140.203125 80.476563 139.253906 C 82.417969 134.746094 87.550781 128.964844 88.847656 127.371094 C 86.257813 128.316406 67.644531 136.664063 65.699219 143.738281 C 74.695313 145.984375 81.121094 148.875 81.121094 148.875 C 81.121094 148.875 71.179688 158.839844 69.238281 176.183594 C 69.238281 176.183594 98.789063 171.671875 120.964844 174.5625 C 121.589844 174.886719 121.914063 174.886719 122.238281 174.886719 L 133.796875 175.210938 L 170.527344 236.359375 L 170.824219 236.832031 C 170.777344 236.855469 170.75 236.882813 170.726563 236.882813 M 219.390625 41.777344 C 195.84375 18.230469 163.898438 5 130.582031 5 C 97.292969 5 65.351563 18.230469 41.777344 41.777344 C 18.230469 65.324219 5 97.269531 5 130.585938 C 5 163.875 18.230469 195.816406 41.777344 219.363281 C 65.351563 242.9375 97.292969 256.167969 130.582031 256.167969 C 163.898438 256.167969 195.84375 242.9375 219.390625 219.363281 C 242.9375 195.816406 256.167969 163.875 256.167969 130.585938 C 256.167969 97.269531 242.9375 65.324219 219.390625 41.777344 "/>
<path style=" stroke:none;fill-rule:evenodd;fill:rgb(100%,100%,100%);fill-opacity:1;" d="M 128.664063 125.425781 C 139.578125 123.832031 147.601563 129.613281 155.003906 135.070313 C 149.222656 136.664063 148.574219 136.988281 142.792969 138.605469 C 136.6875 135.070313 131.230469 133.148438 126.097656 133.773438 C 126.746094 130.585938 127.691406 128.316406 128.664063 125.425781 M 82.09375 165.890625 C 89.246094 164.722656 95.324219 164.046875 101.257813 164.046875 C 103.324219 164.046875 105.390625 164.125 107.460938 164.296875 L 199.953125 173.617188 L 208.625 162.703125 C 208.625 162.703125 205.734375 153.707031 203.492188 152.410156 C 181.988281 141.5 149.871094 115.160156 128.664063 93.957031 C 123.855469 80.476563 116.78125 52.519531 112.269531 39.039063 C 94.304688 52.519531 91.414063 78.207031 81.445313 95.574219 C 62.285156 109.953125 50.425781 158.617188 40.804688 199.28125 C 40.78125 199.429688 40.757813 199.554688 40.707031 199.707031 C 51.394531 215.828125 101.457031 261.925781 170.726563 236.882813 C 170.75 236.882813 170.773438 236.855469 170.824219 236.832031 L 170.527344 236.359375 L 133.796875 175.210938 L 122.234375 174.886719 C 121.914063 174.886719 121.589844 174.886719 120.964844 174.5625 C 98.789063 171.671875 69.238281 176.183594 69.238281 176.183594 C 71.179688 158.839844 81.121094 148.875 81.121094 148.875 C 81.121094 148.875 74.695313 145.984375 65.699219 143.742188 C 67.640625 136.664063 86.253906 128.316406 88.847656 127.371094 C 87.550781 128.964844 82.417969 134.746094 80.476563 139.253906 C 87.226563 140.203125 96.222656 145.660156 96.222656 145.660156 C 96.222656 145.660156 86.578125 154.65625 82.09375 165.890625 "/>
<path style=" stroke:none;fill-rule:nonzero;fill:rgb(0%,0%,0%);fill-opacity:1;" d="M 317.058594 26.359375 L 331.648438 26.359375 L 344.886719 87.957031 L 355.097656 26.359375 L 367.5 26.359375 L 352.808594 105.464844 L 338.527344 105.464844 L 324.355469 40.324219 L 310.179688 105.464844 L 295.902344 105.464844 L 281.203125 26.359375 L 293.609375 26.359375 L 303.824219 87.957031 Z M 317.058594 26.359375 "/>
<path style=" stroke:none;fill-rule:nonzero;fill:rgb(0%,0%,0%);fill-opacity:1;" d="M 370.519531 78.46875 C 370.519531 62.421875 375.105469 51.164063 393.660156 51.164063 C 412.210938 51.164063 416.792969 62.421875 416.792969 78.46875 C 416.792969 94.523438 412.210938 105.777344 393.660156 105.777344 C 375.105469 105.777344 370.519531 94.523438 370.519531 78.46875 M 405.019531 78.46875 C 405.019531 67.320313 403.558594 60.960938 393.660156 60.960938 C 383.757813 60.960938 382.296875 67.320313 382.296875 78.46875 C 382.296875 89.621094 383.757813 95.980469 393.660156 95.980469 C 403.558594 95.980469 405.019531 89.621094 405.019531 78.46875 "/>
<path style=" stroke:none;fill-rule:nonzero;fill:rgb(0%,0%,0%);fill-opacity:1;" d="M 425.753906 91.707031 L 425.753906 26.359375 L 437.425781 26.359375 L 437.425781 91.601563 C 437.425781 94.523438 438.46875 95.5625 441.804688 95.5625 L 441.804688 105.046875 C 441.804688 105.046875 440.761719 105.257813 439.511719 105.257813 C 430.027344 105.257813 425.753906 100.671875 425.753906 91.707031 "/>
<path style=" stroke:none;fill-rule:nonzero;fill:rgb(0%,0%,0%);fill-opacity:1;" d="M 485.574219 36.261719 C 483.699219 35.636719 481.511719 35.21875 477.863281 35.21875 C 472.652344 35.21875 468.480469 37.199219 468.480469 43.140625 L 468.480469 52.417969 L 483.179688 52.417969 L 483.179688 62.316406 L 468.480469 62.316406 L 468.480469 104.527344 L 456.808594 104.527344 L 456.808594 62.316406 L 447.324219 62.316406 L 447.324219 55.125 L 456.808594 52.417969 L 456.808594 42.097656 C 456.808594 30.945313 463.0625 25.109375 477.027344 25.109375 C 480.46875 25.109375 483.59375 25.628906 485.574219 26.359375 Z M 485.574219 36.261719 "/>
<path style=" stroke:none;fill-rule:nonzero;fill:rgb(0%,0%,0%);fill-opacity:1;" d="M 519.964844 61.796875 C 518.714844 61.378906 516.628906 61.171875 514.234375 61.171875 C 508.082031 61.171875 503.496094 62.628906 500.894531 64.296875 L 500.894531 104.527344 L 489.21875 104.527344 L 489.21875 52.414063 L 496.097656 52.414063 L 497.976563 56.582031 C 501.832031 53.457031 507.667969 51.164063 514.441406 51.164063 C 516.628906 51.164063 518.507813 51.476563 519.964844 51.789063 Z M 519.964844 61.796875 "/>
<path style=" stroke:none;fill-rule:nonzero;fill:rgb(0%,0%,0%);fill-opacity:1;" d="M 543.933594 61.167969 C 537.160156 61.167969 531.636719 62.734375 527.675781 64.296875 L 527.675781 54.1875 C 531.742188 52.414063 538.617188 51.164063 544.769531 51.164063 C 561.863281 51.164063 565.824219 58.667969 565.824219 69.714844 L 565.824219 104.527344 L 558.941406 104.527344 L 557.066406 100.359375 C 552.898438 103.796875 547.0625 105.777344 541.328125 105.777344 C 527.886719 105.777344 523.402344 97.441406 523.402344 89.101563 C 523.402344 77.84375 530.699219 73.050781 542.476563 72.113281 L 554.148438 71.175781 L 554.148438 68.570313 C 554.148438 63.253906 551.648438 61.167969 543.933594 61.167969 M 543.207031 80.453125 C 537.992188 81.078125 534.972656 83.054688 534.972656 88.476563 C 534.972656 92.4375 536.640625 96.1875 542.996094 96.1875 C 547.6875 96.1875 550.917969 94.832031 554.148438 92.75 L 554.148438 79.199219 Z M 543.207031 80.453125 "/>
<path style=" stroke:none;fill-rule:nonzero;fill:rgb(0%,0%,0%);fill-opacity:1;" d="M 637.003906 67.734375 C 637.003906 62.835938 634.1875 61.066406 629.601563 61.066406 C 624.496094 61.066406 621.058594 62.628906 618.347656 64.296875 C 618.554688 66.171875 618.660156 67.945313 618.660156 70.027344 L 618.660156 104.527344 L 606.984375 104.527344 L 606.984375 67.734375 C 606.984375 62.835938 604.277344 61.066406 599.589844 61.066406 C 594.792969 61.066406 591.351563 62.523438 588.644531 64.089844 L 588.644531 104.527344 L 576.96875 104.527344 L 576.96875 52.414063 L 583.847656 52.414063 L 585.722656 56.582031 C 590.101563 53.144531 596.355469 51.164063 601.460938 51.164063 C 608.445313 51.164063 612.613281 53.144531 614.800781 56.375 C 619.492188 53.039063 625.746094 51.164063 631.480469 51.164063 C 643.777344 51.164063 648.675781 57.835938 648.675781 67.734375 L 648.675781 104.527344 L 637.003906 104.527344 Z M 637.003906 67.734375 "/>
<path style=" stroke:none;fill-rule:nonzero;fill:rgb(0%,0%,0%);fill-opacity:1;" d="M 292.839844 198.019531 L 326.816406 198.019531 L 326.816406 208.753906 L 281.167969 208.753906 L 281.167969 130.585938 L 292.839844 130.585938 Z M 292.839844 198.019531 "/>
<path style=" stroke:none;fill-rule:nonzero;fill:rgb(0%,0%,0%);fill-opacity:1;" d="M 349.636719 165.398438 C 342.863281 165.398438 337.339844 166.960938 333.378906 168.523438 L 333.378906 158.414063 C 337.445313 156.644531 344.320313 155.390625 350.472656 155.390625 C 367.566406 155.390625 371.527344 162.894531 371.527344 173.941406 L 371.527344 208.753906 L 364.644531 208.753906 L 362.769531 204.585938 C 358.601563 208.023438 352.765625 210.003906 347.03125 210.003906 C 333.585938 210.003906 329.105469 201.667969 329.105469 193.328125 C 329.105469 182.070313 336.402344 177.277344 348.179688 176.339844 L 359.851563 175.402344 L 359.851563 172.796875 C 359.851563 167.480469 357.351563 165.398438 349.636719 165.398438 M 348.910156 184.679688 C 343.695313 185.304688 340.675781 187.28125 340.675781 192.703125 C 340.675781 196.664063 342.34375 200.414063 348.699219 200.414063 C 353.390625 200.414063 356.621094 199.0625 359.851563 196.976563 L 359.851563 183.425781 Z M 348.910156 184.679688 "/>
<path style=" stroke:none;fill-rule:nonzero;fill:rgb(0%,0%,0%);fill-opacity:1;" d="M 414.566406 208.753906 L 414.566406 173.003906 C 414.566406 167.691406 411.855469 165.292969 406.332031 165.292969 C 400.914063 165.292969 397.160156 166.75 394.347656 168.316406 L 394.347656 208.753906 L 382.671875 208.753906 L 382.671875 156.640625 L 389.550781 156.640625 L 391.425781 160.808594 C 396.742188 157.164063 402.683594 155.390625 408.3125 155.390625 C 421.546875 155.390625 426.238281 161.957031 426.238281 171.960938 L 426.238281 208.753906 Z M 414.566406 208.753906 "/>
<path style=" stroke:none;fill-rule:nonzero;fill:rgb(0%,0%,0%);fill-opacity:1;" d="M 457.082031 194.996094 C 454.894531 194.996094 452.808594 194.890625 451.039063 194.578125 C 450.203125 195.414063 449.578125 196.558594 449.578125 197.601563 C 449.578125 199.375 450.515625 200.3125 452.707031 200.625 L 471.570313 202.917969 C 481.890625 204.167969 485.535156 208.855469 485.535156 217.507813 C 485.535156 230.953125 471.363281 236.058594 456.25 236.058594 C 442.285156 236.058594 432.171875 231.578125 432.171875 220.84375 C 432.171875 213.753906 437.488281 209.585938 443.011719 207.921875 L 443.011719 207.816406 C 440.410156 206.355469 438.949219 203.4375 438.949219 200.625 C 438.949219 196.765625 441.242188 194.058594 443.636719 192.179688 C 437.699219 188.847656 435.300781 182.800781 435.300781 175.195313 C 435.300781 163.3125 441.136719 155.390625 457.082031 155.390625 C 460.835938 155.390625 463.960938 155.808594 466.671875 156.640625 L 484.703125 156.640625 L 484.703125 164.042969 L 477.300781 166.125 C 478.34375 168.835938 478.867188 171.855469 478.867188 175.195313 C 478.867188 187.074219 473.03125 194.996094 457.082031 194.996094 M 453.433594 210.316406 C 448.121094 211.253906 443.328125 213.652344 443.328125 218.65625 C 443.328125 224.492188 447.496094 226.785156 457.082031 226.785156 C 466.257813 226.785156 474.28125 224.074219 474.28125 217.820313 C 474.28125 214.277344 472.507813 212.714844 468.234375 212.191406 Z M 457.082031 185.722656 C 465.835938 185.722656 467.820313 181.132813 467.820313 175.195313 C 467.820313 169.253906 465.835938 164.667969 457.082031 164.667969 C 448.328125 164.667969 446.347656 169.253906 446.347656 175.195313 C 446.347656 181.132813 448.328125 185.722656 457.082031 185.722656 "/>
<path style=" stroke:none;fill-rule:nonzero;fill:rgb(0%,0%,0%);fill-opacity:1;" d="M 503.148438 156.640625 L 503.148438 192.390625 C 503.148438 197.707031 505.855469 200.101563 511.378906 200.101563 C 516.800781 200.101563 520.550781 198.644531 523.363281 197.082031 L 523.363281 156.640625 L 535.039063 156.640625 L 535.039063 208.753906 L 528.160156 208.753906 L 526.285156 204.585938 C 520.96875 208.230469 515.027344 210.003906 509.398438 210.003906 C 496.164063 210.003906 491.472656 203.4375 491.472656 193.433594 L 491.472656 156.640625 Z M 503.148438 156.640625 "/>
<path style=" stroke:none;fill-rule:nonzero;fill:rgb(0%,0%,0%);fill-opacity:1;" d="M 563.070313 165.398438 C 556.292969 165.398438 550.769531 166.960938 546.8125 168.523438 L 546.8125 158.414063 C 550.875 156.644531 557.753906 155.390625 563.902344 155.390625 C 580.996094 155.390625 584.957031 162.894531 584.957031 173.941406 L 584.957031 208.753906 L 578.078125 208.753906 L 576.203125 204.585938 C 572.03125 208.023438 566.199219 210.003906 560.464844 210.003906 C 547.019531 210.003906 542.539063 201.667969 542.539063 193.328125 C 542.539063 182.070313 549.832031 177.277344 561.609375 176.339844 L 573.28125 175.402344 L 573.28125 172.796875 C 573.28125 167.480469 570.78125 165.398438 563.070313 165.398438 M 562.339844 184.679688 C 557.128906 185.304688 554.105469 187.28125 554.105469 192.703125 C 554.105469 196.664063 555.773438 200.414063 562.132813 200.414063 C 566.824219 200.414063 570.054688 199.0625 573.28125 196.976563 L 573.28125 183.425781 Z M 562.339844 184.679688 "/>
<path style=" stroke:none;fill-rule:nonzero;fill:rgb(0%,0%,0%);fill-opacity:1;" d="M 615.90625 194.996094 C 613.71875 194.996094 611.632813 194.890625 609.863281 194.578125 C 609.027344 195.414063 608.402344 196.558594 608.402344 197.601563 C 608.402344 199.375 609.339844 200.3125 611.53125 200.625 L 630.394531 202.917969 C 640.714844 204.167969 644.359375 208.855469 644.359375 217.507813 C 644.359375 230.953125 630.183594 236.058594 615.074219 236.058594 C 601.109375 236.058594 590.996094 231.578125 590.996094 220.84375 C 590.996094 213.753906 596.3125 209.585938 601.835938 207.921875 L 601.835938 207.816406 C 599.230469 206.355469 597.773438 203.4375 597.773438 200.625 C 597.773438 196.765625 600.0625 194.058594 602.460938 192.179688 C 596.519531 188.847656 594.125 182.800781 594.125 175.195313 C 594.125 163.3125 599.960938 155.390625 615.90625 155.390625 C 619.660156 155.390625 622.785156 155.808594 625.496094 156.640625 L 643.527344 156.640625 L 643.527344 164.042969 L 636.125 166.125 C 637.167969 168.835938 637.6875 171.855469 637.6875 175.195313 C 637.6875 187.074219 631.851563 194.996094 615.90625 194.996094 M 612.257813 210.316406 C 606.945313 211.253906 602.148438 213.652344 602.148438 218.65625 C 602.148438 224.492188 606.320313 226.785156 615.90625 226.785156 C 625.082031 226.785156 633.101563 224.074219 633.101563 217.820313 C 633.101563 214.277344 631.332031 212.714844 627.058594 212.191406 Z M 615.90625 185.722656 C 624.660156 185.722656 626.644531 181.132813 626.644531 175.195313 C 626.644531 169.253906 624.660156 164.667969 615.90625 164.667969 C 607.152344 164.667969 605.171875 169.253906 605.171875 175.195313 C 605.171875 181.132813 607.152344 185.722656 615.90625 185.722656 "/>
<path style=" stroke:none;fill-rule:nonzero;fill:rgb(0%,0%,0%);fill-opacity:1;" d="M 672.390625 155.390625 C 690.734375 155.390625 693.652344 167.480469 693.652344 181.863281 C 693.652344 183.636719 693.546875 185.300781 693.445313 186.972656 L 661.03125 186.972656 C 661.238281 194.789063 664.054688 199.894531 674.683594 199.894531 C 681.25 199.894531 686.671875 198.75 691.257813 196.765625 L 691.257813 206.773438 C 685.316406 209.273438 678.542969 210.003906 672.914063 210.003906 C 655.507813 210.003906 649.253906 199.582031 649.253906 182.695313 C 649.253906 165.917969 655.402344 155.390625 672.390625 155.390625 M 661.03125 178.84375 L 681.875 178.84375 C 681.875 171.753906 681.460938 165.503906 672.390625 165.503906 C 663.84375 165.503906 661.449219 171.023438 661.03125 178.84375 "/>
<path style=" stroke:none;fill-rule:nonzero;fill:rgb(0%,0%,0%);fill-opacity:1;" d="M 702.363281 145.304688 L 705.617188 145.304688 L 708.621094 153.054688 L 711.574219 145.304688 L 714.828125 145.304688 L 714.828125 156.777344 L 712.730469 156.777344 L 712.730469 148.007813 L 712.675781 148.007813 L 709.449219 156.777344 L 707.738281 156.777344 L 704.511719 148.007813 L 704.457031 148.007813 L 704.457031 156.777344 L 702.363281 156.777344 Z M 694.035156 147.234375 L 690.503906 147.234375 L 690.503906 145.304688 L 699.660156 145.304688 L 699.660156 147.234375 L 696.128906 147.234375 L 696.128906 156.777344 L 694.035156 156.777344 Z M 694.035156 147.234375 "/>
</g>
</svg>
