<svg xmlns="http://www.w3.org/2000/svg" viewBox="0 0 1100 700" width="1100" height="700">
	<style>
		tspan { white-space:pre }
		.shp0 { fill: #57686f } 
		.shp1 { fill: #57676e } 
		.shp2 { fill: #4e4f4f } 
	</style>
	<path id="Layer" class="shp0" d="M432.5 330.43C432.99 335.87 433.33 341.36 433.33 346.93L433.33 346.93C433.34 341.36 433 335.87 432.5 330.43Z" />
	<path id="Layer" class="shp1" d="M165.79 329.47C165.79 329.47 115.79 513.68 316.18 515.29C379.05 491.88 425.38 434.5 432.41 365.32C432.89 360.53 433.04 355.65 433.14 350.76C433.17 349.48 433.34 348.23 433.34 346.93C433.34 341.36 433 335.87 432.5 330.43C379.56 538.84 145.36 457.2 165.79 329.47Z" />
	<path id="Layer" class="shp1" d="M269.4 261.1C269.4 261.1 82.84 209 85.7 412.44C88.08 418.56 90.8 424.55 93.83 430.38C96.87 436.2 100.22 441.86 103.87 447.32C107.53 452.78 111.47 458.04 115.7 463.07C119.93 468.1 124.43 472.89 129.18 477.43C129.97 478.19 130.81 478.91 131.62 479.65C132.97 480.89 134.34 482.12 135.72 483.32C137.11 484.52 138.51 485.7 139.93 486.86C141.35 488.02 142.79 489.16 144.25 490.27C145.71 491.39 147.18 492.48 148.67 493.55C149.59 494.21 150.47 494.94 151.39 495.59C152.97 496.66 154.56 497.72 156.17 498.74C157.78 499.77 159.41 500.77 161.05 501.74C162.69 502.72 164.35 503.67 166.02 504.59C167.69 505.51 169.38 506.41 171.08 507.27C173.05 508.29 175.08 509.22 177.09 510.17C178.56 510.86 180.03 511.53 181.51 512.18C182.99 512.83 184.48 513.46 185.98 514.07C187.48 514.68 188.99 515.26 190.5 515.83C192.01 516.4 193.54 516.95 195.07 517.47C196.57 517.99 198.01 518.63 199.53 519.1C201.36 519.67 203.2 520.2 205.05 520.7C206.9 521.2 208.76 521.67 210.63 522.12C212.49 522.56 214.36 522.97 216.24 523.35C218.12 523.73 220.01 524.08 221.9 524.4C224.18 524.81 226.5 525.14 228.82 525.46C230.78 525.74 232.74 526 234.71 526.21C236.68 526.43 238.66 526.62 240.63 526.77C242.61 526.92 244.58 527.05 246.56 527.13C248.54 527.22 250.52 527.28 252.51 527.3C252.81 527.3 253.11 527.35 253.41 527.35C259.38 527.34 265.29 527.03 271.11 526.45C61.77 476.51 141.36 242.42 269.4 261.1Z" />
	<path id="Layer" class="shp1" d="M342.13 357.58C342.13 357.58 386.27 171.48 187.57 179.8C168.91 187.01 151.59 197.32 136.35 210.3C121.12 223.27 108.18 238.72 98.08 256C87.99 273.28 80.88 292.14 77.05 311.78C73.23 331.43 72.75 351.57 75.63 371.38C117.44 160.82 355.67 229 342.13 357.58Z" />
	<path id="Layer" class="shp1" d="M246.73 437.66C246.73 437.66 433.63 462.06 421.92 284.36C396.49 215.96 330.81 167.14 253.55 167.14C250.82 167.15 248.09 167.22 245.36 167.36C242.63 167.49 239.9 167.69 237.18 167.95C234.46 168.21 231.75 168.53 229.04 168.91C226.33 169.29 223.64 169.73 220.95 170.24C429.21 195.8 375.09 439.48 246.73 437.66Z" />
	<path id="Layer" class="shp2" d="M305.44 346.94C305.44 367.31 293.17 385.67 274.35 393.46C255.53 401.26 233.87 396.94 219.47 382.54C205.07 368.13 200.76 346.47 208.56 327.65C216.36 308.84 234.73 296.57 255.1 296.58C261.71 296.58 268.26 297.88 274.37 300.42C280.48 302.95 286.02 306.66 290.7 311.33C295.37 316.01 299.08 321.56 301.61 327.67C304.14 333.78 305.44 340.32 305.44 346.94L305.44 346.94Z" />
	<path id="Layer" class="shp2" d="M866.91 365.21L886.44 365.21L886.44 384.74L866.91 384.74L866.91 365.21Z" />
	<path id="Layer" class="shp2" d="M887.77 386.04L907.26 386.04L907.26 405.56L887.77 405.56L887.77 386.04Z" />
	<path id="Layer" class="shp2" d="M866.91 406.86L886.44 406.86L886.44 426.39L866.91 426.39L866.91 406.86Z" />
	<path id="Layer" class="shp2" d="M548.1 307.78L548.1 324.98L546.04 324.98C533.65 324.98 523.56 329.95 515.76 339.88C508.42 349.37 504.75 360.68 504.75 373.83L504.75 424.29L487.55 424.29L487.55 309.61L504.75 309.61L504.75 337.82C508.42 325.89 516.37 317.1 528.61 311.45C533.65 309 539.77 307.78 546.95 307.78L548.1 307.78Z" />
	<path id="Layer" fill-rule="evenodd" class="shp2" d="M614.84 410.53C630.28 410.53 641.37 404.11 648.1 391.26L666.91 391.26C665.98 393.76 664.88 396.19 663.6 398.54C662.32 400.88 660.88 403.12 659.28 405.25C657.68 407.39 655.93 409.4 654.04 411.28C652.15 413.16 650.13 414.9 647.99 416.49C639.34 422.92 628.22 426.13 614.61 426.13C597.33 426.13 583.26 420.39 572.41 408.93C561.86 397.77 556.59 383.78 556.59 366.95C556.59 349.98 561.63 335.99 571.72 324.98C582.43 313.51 596.34 307.78 613.47 307.78C630.6 307.78 644.51 313.51 655.21 324.98C665.3 335.99 670.35 349.98 670.35 366.95L670.35 373.83L574.25 373.83C575.47 384.38 579.68 393.1 586.87 399.98C594.2 407.02 603.53 410.53 614.84 410.53ZM586.86 333.23C580.13 339.51 576 347.69 574.47 357.78L652.46 357.78C650.92 347.68 646.8 339.5 640.07 333.23C632.88 326.66 624.01 323.38 613.47 323.37C602.91 323.37 594.05 326.66 586.86 333.23Z" />
	<path id="Layer" fill-rule="evenodd" class="shp2" d="M708.65 327.96C717.82 314.51 731.51 307.78 749.71 307.78C766.22 307.78 779.6 313.51 789.84 324.98C800.09 336.29 805.21 350.28 805.21 366.95C805.21 383.62 800.09 397.61 789.84 408.92C779.6 420.39 765.84 426.12 748.56 426.12C731.28 426.12 717.98 419.32 708.65 405.71L708.65 469.7L691.45 469.7L691.45 309.6L708.65 309.6L708.65 327.96ZM718.05 336.22C711.17 344.32 707.73 354.57 707.73 366.95C707.73 379.33 711.17 389.58 718.05 397.69C725.24 406.25 735.02 410.53 747.41 410.53C759.64 410.53 769.58 406.25 777.23 397.69C784.41 389.58 788.01 379.34 788.01 366.95C788.01 354.57 784.42 344.32 777.23 336.22C769.58 327.66 759.64 323.37 747.41 323.37C735.02 323.37 725.24 327.65 718.05 336.22Z" />
	<path id="Layer" class="shp2" d="M844.89 424.29L827.69 424.29L827.69 263.74L844.89 263.74L844.89 424.29Z" />
	<path id="Layer" class="shp2" d="M941.45 267.87L941.45 290.34L922.87 290.34L922.87 267.87L941.45 267.87ZM923.56 309.61L940.76 309.61L940.76 424.29L923.56 424.29L923.56 309.61Z" />
	<path id="Layer" class="shp2" d="M982.96 424.29L982.96 324.75L959.57 324.75L959.57 309.61L982.96 309.61L982.96 268.55L1000.16 268.55L1000.16 309.61L1026.54 309.61L1026.54 324.75L1000.16 324.75L1000.16 424.29L982.96 424.29Z" />
</svg>