<svg width="1039" height="274" viewBox="0 0 1039 274" fill="none" xmlns="http://www.w3.org/2000/svg">
<path d="M81.7 273.4C126.518 273.4 162.85 247.07 162.85 214.59C162.85 182.11 126.518 155.78 81.7 155.78C36.8821 155.78 0.550003 182.11 0.550003 214.59C0.550003 247.07 36.8821 273.4 81.7 273.4Z" fill="#BAE4F8"/>
<path d="M81.7 136.29C126.518 136.29 162.85 118.498 162.85 96.5499C162.85 74.6021 126.518 56.8099 81.7 56.8099C36.8821 56.8099 0.550003 74.6021 0.550003 96.5499C0.550003 118.498 36.8821 136.29 81.7 136.29Z" fill="#BAE4F8"/>
<path d="M162.81 96.88H0.610001V214.59H162.81V96.88Z" fill="#BAE4F8"/>
<path d="M81.7 270.46C124.392 270.46 159 245.446 159 214.59C159 183.734 124.392 158.72 81.7 158.72C39.0084 158.72 4.4 183.734 4.4 214.59C4.4 245.446 39.0084 270.46 81.7 270.46Z" fill="#E7F6FF"/>
<path d="M81.7 137.81C124.281 137.81 158.8 120.904 158.8 100.05C158.8 79.1957 124.281 62.29 81.7 62.29C39.1189 62.29 4.60001 79.1957 4.60001 100.05C4.60001 120.904 39.1189 137.81 81.7 137.81Z" fill="#E7F6FF"/>
<path d="M158.88 99.8199H4.53001V211.65H158.88V99.8199Z" fill="#E7F6FF"/>
<path d="M13.16 193.91C13.16 214.9 13.63 154.35 13.41 162.26C12.95 179.43 13.02 195.52 13.66 198.76C23.27 225.4 48.3 236.16 77.71 231.05C84.78 229.29 89.19 227.02 93.27 224.15C84.95 228.68 69.93 225.57 63.48 221.61C57.9 218.19 52.27 212.52 52.04 200.39C51.86 191.36 53.55 181.56 49.16 173.11C44.61 164.35 26.62 154.84 13.15 152.79" fill="#BA00FF"/>
<path d="M150.16 102.12C149.99 150.5 150.33 181.05 149.82 202.18C149.74 205.39 150.12 209.32 147.62 218.23C141.45 240.16 119.91 251.78 111.27 255.27C85.42 265.73 62.78 259.39 53.65 256.09C48.67 254.29 25.97 244.24 16.9 221.44C12.27 209.82 13.09 197.76 13.1 191.5C13.11 187 17.65 207.42 37.26 219.58C40.99 221.89 54.84 230.22 77.31 228.02C102.38 225.56 106.74 211.51 107.58 208.41C109.63 200.9 109.79 187.82 109.59 150.78C109.45 123.74 110.12 125.93 114.66 119.68C117.36 115.96 127.84 108.51 141.36 104.45" fill="#8600FF"/>
<path d="M81.7 94.5799C124.204 94.5799 158.66 77.6742 158.66 56.8199C158.66 35.9657 124.204 19.0599 81.7 19.0599C39.1962 19.0599 4.74001 35.9657 4.74001 56.8199C4.74001 77.6742 39.1962 94.5799 81.7 94.5799Z" fill="url(#paint0_linear)"/>
<path d="M156.95 59.1C157.71 79.89 123.2 96.34 81.66 96.34C40.12 96.34 6.02 80.4 6.44 59.53" stroke="#E1E1E1" stroke-width="3.5" stroke-miterlimit="10"/>
<path d="M81.7 78.62C124.281 78.62 158.8 61.1546 158.8 39.61C158.8 18.0653 124.281 0.599976 81.7 0.599976C39.1189 0.599976 4.60001 18.0653 4.60001 39.61C4.60001 61.1546 39.1189 78.62 81.7 78.62Z" fill="#E1E1E1"/>
<path d="M81.7 75.48C122.083 75.48 154.82 59.4204 154.82 39.61C154.82 19.7995 122.083 3.73999 81.7 3.73999C41.3169 3.73999 8.58 19.7995 8.58 39.61C8.58 59.4204 41.3169 75.48 81.7 75.48Z" fill="url(#paint1_linear)"/>
<path d="M156.91 61.2L157.1 39.71" stroke="#E1E1E1" stroke-width="3.5" stroke-miterlimit="10"/>
<path d="M6.51 60.12L6.44 40.28" stroke="#E1E1E1" stroke-width="3.5" stroke-miterlimit="10"/>
<path opacity="0.2" d="M66.41 97.46C65.09 97.31 62.78 97.01 61.51 96.83C56.95 96.2 53.82 95.65 49.26 94.95C47.65 94.56 46.63 94.34 46.05 94.17C43.09 93.31 42.75 93.23 41.25 92.83L5.95 226.45C5.95 226.45 6.81 228.79 7.48 230.67C9.34 234.75 9.91 236.17 11.96 239.14C14.24 242.45 17.12 245.65 20.16 248.4C23.2 251.15 24.47 252 27.6 254.21C28.37 254.75 30.73 256.11 31.49 256.64C31.98 256.7 32.44 257.38 32.81 257.58L73.48 97.88C70.68 97.74 68.78 97.69 66.41 97.46Z" fill="white"/>
<path opacity="0.2" d="M60.68 268.5C62.03 268.82 62.57 268.74 63.81 268.97C63.96 268.97 64.85 269.21 64.99 269.21C66.08 269.21 66.38 269.4 67.41 269.55L110.02 95.48C108.6 95.8 107.92 95.95 106.4 96.11C105.1 96.25 104.46 96.43 102.43 96.74C102.1 96.79 100.14 97.09 99.81 97.13C97.19 97.29 96.01 97.37 93.65 97.58L51.45 266.32C52.94 266.76 54.51 267.15 56.29 267.54C58.31 268.03 59.07 268.19 60.68 268.5Z" fill="white"/>
<path d="M250.66 168.91C250.88 161.57 257.79 155.52 265.78 155.52C273.99 155.52 280.9 161.35 280.9 168.91V245.16C280.9 252.72 273.99 258.55 265.78 258.55C257.79 258.55 250.88 252.5 250.66 245.16V243.22C244.18 253.8 231.87 259.42 220.42 259.42C194.72 259.42 171.39 240.41 171.39 206.93C171.39 173.45 194.72 154.66 220.42 154.66C226.9 154.66 242.02 157.47 250.66 170.86V168.91ZM226.25 232.63C239.86 232.63 250.87 220.53 250.87 207.14C250.87 193.75 239.85 181.65 226.25 181.65C211.13 181.65 202.49 193.75 202.49 207.14C202.49 220.53 211.13 232.63 226.25 232.63Z" fill="#AB11F7"/>
<path d="M465.15 245.16C465.15 252.72 458.24 258.55 450.03 258.55C442.04 258.55 435.13 252.5 434.91 245.16V203.69C434.91 190.51 426.92 183.6 418.06 183.6C408.56 183.6 401 189.43 401 204.12V245.16C401 252.72 394.09 258.55 385.88 258.55C377.89 258.55 370.98 252.5 370.76 245.16V203.04C370.76 190.3 362.77 183.6 354.13 183.6C345.06 183.6 336.63 188.78 336.63 204.12V245.16C336.63 252.72 329.72 258.55 321.51 258.55C313.52 258.55 306.61 252.5 306.39 245.16V168.91C306.61 161.57 313.52 155.52 321.51 155.52C329.72 155.52 336.63 161.35 336.63 168.91V171.29C341.38 160.71 352.18 154.66 362.98 154.66C378.96 154.66 389.55 159.84 396.24 173.67C403.58 157.69 418.49 154.45 425.62 154.45C449.6 154.45 464.93 169.79 465.15 200.24V245.16Z" fill="#BA00FF"/>
<path d="M558.89 203.68C558.89 190.5 549.39 183.81 540.31 183.81C530.81 183.81 520.44 188.78 520.44 204.11V245.15C520.44 252.71 513.53 258.54 505.32 258.54C497.33 258.54 490.42 252.49 490.2 245.15V114.04C490.42 106.7 497.33 100.65 505.32 100.65C513.53 100.65 520.44 106.48 520.44 114.04V172.36C524.54 159.83 539.02 154.65 548.52 154.65C575.09 154.65 589.13 172.15 589.13 202.6V245.15C589.13 252.71 582.22 258.54 574.01 258.54C566.02 258.54 559.11 252.49 558.89 245.15V203.68Z" fill="#BA00FF"/>
<path d="M688.27 168.91C688.49 161.57 695.4 155.52 703.39 155.52C711.6 155.52 718.51 161.35 718.51 168.91V245.16C718.51 252.72 711.6 258.55 703.39 258.55C695.4 258.55 688.49 252.5 688.27 245.16V243.22C681.79 253.8 669.48 259.42 658.03 259.42C632.33 259.42 609 240.41 609 206.93C609 173.45 632.33 154.66 658.03 154.66C664.51 154.66 679.63 157.47 688.27 170.86V168.91ZM663.86 232.63C677.47 232.63 688.48 220.53 688.48 207.14C688.48 193.75 677.46 181.65 663.86 181.65C648.74 181.65 640.1 193.75 640.1 207.14C640.1 220.53 648.74 232.63 663.86 232.63Z" fill="#BA00FF"/>
<path d="M794.33 230.25C799.73 230.25 804.91 228.74 809.23 226.36C814.63 223.34 823.49 222.04 828.89 227.44C834.94 233.49 834.07 244.5 826.95 249.47C817.88 255.95 806.43 259.41 794.33 259.41C765.39 259.41 739.03 239.11 739.03 207.35V206.7C739.03 174.95 765.38 154.64 794.33 154.64C806.43 154.64 817.87 158.1 826.95 164.58C834.08 169.55 834.94 180.56 828.89 186.61C823.49 192.01 814.63 190.71 809.23 187.69C804.91 185.31 799.73 183.8 794.33 183.8C781.37 183.8 769.7 192.66 769.7 206.7V207.35C769.7 221.4 781.37 230.25 794.33 230.25Z" fill="#BA00FF"/>
<path d="M883.1 217.72V245.15C883.1 252.71 876.19 258.54 867.98 258.54C859.99 258.54 853.08 252.49 852.86 245.15V114.04C853.08 106.7 859.99 100.65 867.98 100.65C876.19 100.65 883.1 106.48 883.1 114.04V184.46L906.64 160.7C911.39 155.3 920.25 154.22 926.08 158.97C931.7 163.51 933.21 172.15 928.02 178.19L904.48 201.09L937.74 235.87C943.36 241.92 942.92 250.99 936.88 255.53C931.48 260.07 921.33 259.42 917.01 254.23L883.1 217.72Z" fill="#BA00FF"/>
<path d="M959.56 222.91C966.26 219.89 972.52 222.69 975.76 226.58C981.16 232.41 987.64 235.44 994.77 235.44C1001.47 235.44 1007.73 234.36 1007.73 229.18C1007.73 224.86 1005.14 223.35 997.79 220.97L986.34 216.87C956.1 206.72 956.32 192.46 956.32 183.17C956.32 168.27 974.25 154.44 995.42 154.44C1009.89 154.44 1024.8 158.98 1031.71 171.07C1035.38 177.55 1033.65 183.81 1029.12 186.41C1022.42 190.3 1016.16 188.79 1009.9 184.03C1005.58 180.79 1001.69 179.49 997.8 179.49C991.32 179.49 986.78 181.65 986.78 185.54C986.78 188.78 989.37 190.72 995.42 192.67L1010.76 197.85C1035.17 205.84 1038.19 221.61 1038.19 228.09C1038.19 249.47 1015.73 259.63 994.56 259.63C978.36 259.63 959.35 252.93 954.17 238.03C952 231.76 954.59 225.07 959.56 222.91Z" fill="#BA00FF"/>
<defs>
<linearGradient id="paint0_linear" x1="4.73921" y1="56.8226" x2="158.668" y2="56.8226" gradientUnits="userSpaceOnUse">
<stop stop-color="#EFEFEF"/>
<stop offset="1" stop-color="#CFCFCF"/>
</linearGradient>
<linearGradient id="paint1_linear" x1="20.0814" y1="10.874" x2="143.326" y2="68.3437" gradientUnits="userSpaceOnUse">
<stop stop-color="#F3F3F3"/>
<stop offset="1" stop-color="#D3D4D6"/>
</linearGradient>
</defs>
</svg>
