<svg width="275" height="48" viewBox="0 0 275 48" fill="none" xmlns="http://www.w3.org/2000/svg">
<path d="M123.687 13.8773H122.967V13.5773C122.967 13.2817 123.089 13.1208 123.406 13.1208C123.541 13.1208 123.637 13.1513 123.697 13.1708L123.85 12.6448C123.758 12.61 123.569 12.5557 123.306 12.5557C122.778 12.5557 122.315 12.8643 122.315 13.4904V13.8773H121.8V14.399H122.315V17.2162H122.967V14.399H123.687V13.8773Z" fill="#187939"/>
<path d="M124.786 17.2162H125.436V15.1772C125.436 14.7403 125.773 14.4251 126.233 14.4251C126.368 14.4251 126.52 14.449 126.573 14.4642V13.8425C126.507 13.8338 126.379 13.8273 126.296 13.8273C125.905 13.8273 125.57 14.049 125.449 14.4077H125.414V13.8773H124.786V17.2162Z" fill="#187939"/>
<path d="M128.85 17.2836C129.792 17.2836 130.407 16.5945 130.407 15.562C130.407 14.5229 129.792 13.8338 128.85 13.8338C127.909 13.8338 127.294 14.5229 127.294 15.562C127.294 16.5945 127.909 17.2836 128.85 17.2836ZM128.853 16.738C128.237 16.738 127.95 16.201 127.95 15.5598C127.95 14.9207 128.237 14.3773 128.853 14.3773C129.463 14.3773 129.75 14.9207 129.75 15.5598C129.75 16.201 129.463 16.738 128.853 16.738Z" fill="#187939"/>
<path d="M131.561 17.2162H132.211V15.1576C132.211 14.7077 132.526 14.3947 132.895 14.3947C133.256 14.3947 133.506 14.6338 133.506 14.9968V17.2162H134.154V15.0881C134.154 14.6859 134.4 14.3947 134.824 14.3947C135.167 14.3947 135.45 14.5859 135.45 15.0381V17.2162H136.1V14.9772C136.1 14.2142 135.673 13.8338 135.069 13.8338C134.589 13.8338 134.228 14.0642 134.067 14.4207H134.032C133.887 14.0556 133.58 13.8338 133.135 13.8338C132.693 13.8338 132.365 14.0534 132.226 14.4207H132.185V13.8773H131.561V17.2162Z" fill="#187939"/>
<path d="M175.092 42.0844C176.791 42.0844 177.773 41.0329 177.773 39.2939C177.773 37.5631 176.791 36.5197 175.149 36.5197H173.287V42.0844H175.092ZM174.128 41.3508V37.2533H175.097C176.317 37.2533 176.946 37.9815 176.946 39.2939C176.946 40.6117 176.317 41.3508 175.046 41.3508H174.128Z" fill="#187939"/>
<path d="M181.016 42.1687C181.928 42.1687 182.573 41.7203 182.758 41.041L181.988 40.9025C181.841 41.2965 181.487 41.4975 181.024 41.4975C180.327 41.4975 179.859 41.0465 179.837 40.2422H182.81V39.9542C182.81 38.4462 181.906 37.8565 180.959 37.8565C179.794 37.8565 179.026 38.7423 179.026 40.0248C179.026 41.3209 179.783 42.1687 181.016 42.1687ZM179.84 39.6336C179.873 39.0412 180.303 38.5277 180.964 38.5277C181.596 38.5277 182.01 38.995 182.013 39.6336H179.84Z" fill="#187939"/>
<path d="M187.728 37.9109H186.854L185.798 41.1226H185.754L184.695 37.9109H183.821L185.34 42.0844H186.212L187.728 37.9109Z" fill="#187939"/>
<path d="M190.605 42.1687C191.517 42.1687 192.162 41.7203 192.347 41.041L191.577 40.9025C191.43 41.2965 191.076 41.4975 190.613 41.4975C189.916 41.4975 189.448 41.0465 189.426 40.2422H192.399V39.9542C192.399 38.4462 191.495 37.8565 190.548 37.8565C189.383 37.8565 188.615 38.7423 188.615 40.0248C188.615 41.3209 189.372 42.1687 190.605 42.1687ZM189.429 39.6336C189.462 39.0412 189.892 38.5277 190.553 38.5277C191.185 38.5277 191.599 38.995 191.602 39.6336H189.429Z" fill="#187939"/>
<path d="M194.576 36.5197H193.762V42.0844H194.576V36.5197Z" fill="#187939"/>
<path d="M197.892 42.1687C199.071 42.1687 199.842 41.3073 199.842 40.0167C199.842 38.7179 199.071 37.8565 197.892 37.8565C196.714 37.8565 195.943 38.7179 195.943 40.0167C195.943 41.3073 196.714 42.1687 197.892 42.1687ZM197.895 41.4867C197.125 41.4867 196.765 40.8155 196.765 40.014C196.765 39.2151 197.125 38.5358 197.895 38.5358C198.66 38.5358 199.019 39.2151 199.019 40.014C199.019 40.8155 198.66 41.4867 197.895 41.4867Z" fill="#187939"/>
<path d="M201.21 43.6495H202.024V41.435H202.073C202.22 41.7013 202.52 42.166 203.282 42.166C204.294 42.166 205.029 41.3562 205.029 40.0058C205.029 38.6527 204.284 37.8565 203.274 37.8565C202.498 37.8565 202.217 38.3293 202.073 38.5874H202.005V37.9109H201.21V43.6495ZM202.008 39.9977C202.008 39.1254 202.389 38.5467 203.099 38.5467C203.837 38.5467 204.207 39.1689 204.207 39.9977C204.207 40.8345 203.826 41.4731 203.099 41.4731C202.4 41.4731 202.008 40.8753 202.008 39.9977Z" fill="#187939"/>
<path d="M206.401 42.0844H207.215V39.5113C207.215 38.9488 207.61 38.5576 208.073 38.5576C208.525 38.5576 208.838 38.8564 208.838 39.3102V42.0844H209.649V39.4243C209.649 38.9217 209.957 38.5576 210.487 38.5576C210.918 38.5576 211.272 38.7967 211.272 39.3618V42.0844H212.085V39.2858C212.085 38.332 211.552 37.8565 210.795 37.8565C210.193 37.8565 209.742 38.1445 209.54 38.5902H209.497C209.314 38.1337 208.93 37.8565 208.372 37.8565C207.82 37.8565 207.409 38.131 207.234 38.5902H207.183V37.9109H206.401V42.0844Z" fill="#187939"/>
<path d="M215.439 42.1687C216.35 42.1687 216.996 41.7203 217.181 41.041L216.41 40.9025C216.263 41.2965 215.909 41.4975 215.447 41.4975C214.75 41.4975 214.282 41.0465 214.26 40.2422H217.232V39.9542C217.232 38.4462 216.329 37.8565 215.381 37.8565C214.216 37.8565 213.449 38.7423 213.449 40.0248C213.449 41.3209 214.205 42.1687 215.439 42.1687ZM214.262 39.6336C214.295 39.0412 214.725 38.5277 215.387 38.5277C216.018 38.5277 216.432 38.995 216.435 39.6336H214.262Z" fill="#187939"/>
<path d="M219.41 39.6064C219.41 38.9407 219.818 38.5603 220.384 38.5603C220.937 38.5603 221.272 38.9217 221.272 39.5276V42.0844H222.086V39.4298C222.086 38.3972 221.517 37.8565 220.662 37.8565C220.033 37.8565 219.622 38.1473 219.429 38.5902H219.377V37.9109H218.596V42.0844H219.41V39.6064Z" fill="#187939"/>
<path d="M225.589 37.9109H224.731V36.911H223.917V37.9109H223.305V38.563H223.917V41.0275C223.915 41.7856 224.495 42.1524 225.137 42.1388C225.396 42.1361 225.57 42.0872 225.665 42.0518L225.518 41.3807C225.464 41.3916 225.363 41.416 225.232 41.416C224.968 41.416 224.731 41.3291 224.731 40.859V38.563H225.589V37.9109Z" fill="#187939"/>
<path d="M232.544 37.9815H233.355C233.331 37.0903 232.541 36.4436 231.409 36.4436C230.29 36.4436 229.433 37.0821 229.433 38.0413C229.433 38.8157 229.988 39.2695 230.884 39.5113L231.542 39.6906C232.139 39.8482 232.599 40.0438 232.599 40.5384C232.599 41.0818 232.079 41.4405 231.363 41.4405C230.715 41.4405 230.176 41.1525 230.127 40.5465H229.283C229.337 41.5546 230.119 42.1768 231.368 42.1768C232.678 42.1768 233.432 41.4894 233.432 40.5465C233.432 39.5439 232.536 39.1553 231.828 38.9814L231.284 38.8401C230.848 38.7287 230.268 38.525 230.271 37.9924C230.271 37.5196 230.704 37.1691 231.39 37.1691C232.03 37.1691 232.484 37.468 232.544 37.9815Z" fill="#187939"/>
<path d="M236.783 37.9109H235.926V36.911H235.112V37.9109H234.499V38.563H235.112V41.0275C235.109 41.7856 235.689 42.1524 236.331 42.1388C236.59 42.1361 236.764 42.0872 236.859 42.0518L236.712 41.3807C236.658 41.3916 236.557 41.416 236.427 41.416C236.163 41.416 235.926 41.3291 235.926 40.859V38.563H236.783V37.9109Z" fill="#187939"/>
<path d="M240.792 40.3536C240.795 41.0628 240.267 41.3997 239.81 41.3997C239.306 41.3997 238.958 41.0356 238.958 40.4677V37.9109H238.144V40.5655C238.144 41.6008 238.713 42.1388 239.516 42.1388C240.144 42.1388 240.572 41.8073 240.765 41.3617H240.809V42.0844H241.609V37.9109H240.792V40.3536Z" fill="#187939"/>
<path d="M244.728 42.166C245.49 42.166 245.79 41.7013 245.937 41.435H246.005V42.0844H246.8V36.5197H245.986V38.5874H245.937C245.79 38.3293 245.512 37.8565 244.733 37.8565C243.723 37.8565 242.98 38.6527 242.98 40.0058C242.98 41.3562 243.713 42.166 244.728 42.166ZM244.908 41.4731C244.181 41.4731 243.802 40.8345 243.802 39.9977C243.802 39.1689 244.173 38.5467 244.908 38.5467C245.618 38.5467 245.999 39.1254 245.999 39.9977C245.999 40.8753 245.61 41.4731 244.908 41.4731Z" fill="#187939"/>
<path d="M248.421 42.0844H249.235V37.9109H248.421V42.0844ZM248.832 37.2669C249.113 37.2669 249.347 37.0495 249.347 36.7832C249.347 36.517 249.113 36.2969 248.832 36.2969C248.549 36.2969 248.318 36.517 248.318 36.7832C248.318 37.0495 248.549 37.2669 248.832 37.2669Z" fill="#187939"/>
<path d="M252.552 42.1687C253.73 42.1687 254.501 41.3073 254.501 40.0167C254.501 38.7179 253.73 37.8565 252.552 37.8565C251.373 37.8565 250.602 38.7179 250.602 40.0167C250.602 41.3073 251.373 42.1687 252.552 42.1687ZM252.554 41.4867C251.784 41.4867 251.425 40.8155 251.425 40.014C251.425 39.2151 251.784 38.5358 252.554 38.5358C253.319 38.5358 253.679 39.2151 253.679 40.014C253.679 40.8155 253.319 41.4867 252.554 41.4867Z" fill="#187939"/>
<path d="M259.003 38.9298C258.834 38.2804 258.325 37.8565 257.421 37.8565C256.476 37.8565 255.807 38.3538 255.807 39.0928C255.807 39.6852 256.166 40.0792 256.95 40.2531L257.658 40.4079C258.061 40.4976 258.248 40.6769 258.248 40.9378C258.248 41.2611 257.903 41.5138 257.369 41.5138C256.882 41.5138 256.569 41.3046 256.471 40.8943L255.684 41.0139C255.82 41.7529 256.435 42.1687 257.375 42.1687C258.385 42.1687 259.084 41.6334 259.084 40.878C259.084 40.2884 258.709 39.9243 257.941 39.7477L257.277 39.5955C256.817 39.4868 256.618 39.332 256.621 39.0494C256.618 38.7287 256.966 38.5005 257.429 38.5005C257.935 38.5005 258.17 38.7804 258.265 39.0602L259.003 38.9298Z" fill="#187939"/>
<path d="M169.911 29.4218C169.911 29.9 170.299 30.2877 170.778 30.2877H172.522C173.002 30.2877 173.39 29.9 173.39 29.4218V20.3646C173.39 18.9299 172.218 17.7669 170.781 17.7669C170.302 17.7669 169.911 18.1546 169.911 18.6328V29.4218ZM171.659 16.1529C172.696 16.1529 173.545 15.3623 173.545 14.3922C173.545 13.4303 172.696 12.6396 171.659 12.6396C170.63 12.6396 169.78 13.4303 169.78 14.3922C169.78 15.3623 170.63 16.1529 171.659 16.1529Z" fill="url(#paint0_linear)"/>
<path d="M187.983 21.3945C188.486 21.3636 188.867 20.9071 188.697 20.4336C188.064 18.6637 186.304 17.6039 183.573 17.6039C180.363 17.6039 178.248 19.0875 178.256 21.5003C178.248 23.3752 179.432 24.5898 181.882 25.0788L184.055 25.5109C185.149 25.731 185.647 26.1304 185.663 26.7581C185.647 27.4998 184.839 28.0297 183.622 28.0297C182.697 28.0297 182.004 27.7358 181.622 27.1648C181.385 26.8092 181.028 26.4974 180.6 26.5199L178.863 26.6109C178.356 26.6375 177.971 27.0967 178.144 27.5728C178.818 29.4257 180.735 30.5322 183.614 30.5322C186.864 30.5322 189.192 28.8774 189.2 26.4075C189.192 24.5979 188.007 23.5138 185.574 23.0165L183.303 22.56C182.135 22.3073 181.703 21.9079 181.711 21.3047C181.703 20.5548 182.552 20.0657 183.63 20.0657C184.474 20.0657 185.079 20.3876 185.426 20.8565C185.681 21.2018 186.046 21.5134 186.475 21.4871L187.983 21.3945Z" fill="url(#paint1_linear)"/>
<path d="M193.69 29.4218C193.69 29.9 194.079 30.2877 194.558 30.2877H196.302C196.781 30.2877 197.169 29.9 197.169 29.4218V20.3646C197.169 18.9299 195.997 17.7669 194.56 17.7669C194.081 17.7669 193.69 18.1546 193.69 18.6328V29.4218ZM195.438 16.1529C196.475 16.1529 197.324 15.3623 197.324 14.3922C197.324 13.4303 196.475 12.6396 195.438 12.6396C194.409 12.6396 193.56 13.4303 193.56 14.3922C193.56 15.3623 194.409 16.1529 195.438 16.1529Z" fill="url(#paint2_linear)"/>
<path d="M207.924 30.5322C211.729 30.5322 214.098 27.9319 214.098 24.0762C214.098 20.1961 211.729 17.6039 207.924 17.6039C204.118 17.6039 201.75 20.1961 201.75 24.0762C201.75 27.9319 204.118 30.5322 207.924 30.5322ZM207.94 27.8422C206.184 27.8422 205.286 26.2364 205.286 24.0518C205.286 21.8672 206.184 20.2532 207.94 20.2532C209.663 20.2532 210.562 21.8672 210.562 24.0518C210.562 26.2364 209.663 27.8422 207.94 27.8422Z" fill="url(#paint3_linear)"/>
<path d="M222.139 23.0491C222.147 21.4351 223.111 20.4895 224.515 20.4895C225.912 20.4895 226.753 21.4025 226.745 22.935V29.4218C226.745 29.9 227.133 30.2877 227.612 30.2877H229.356C229.836 30.2877 230.224 29.9 230.224 29.4218V22.3155C230.224 19.3972 228.509 17.6039 225.896 17.6039C224.034 17.6039 222.686 18.5169 222.123 19.976H221.976V18.6328C221.976 18.1546 221.587 17.7669 221.108 17.7669H219.527C219.048 17.7669 218.66 18.1546 218.66 18.6328V29.4218C218.66 29.9 219.048 30.2877 219.527 30.2877H221.271C221.75 30.2877 222.139 29.9 222.139 29.4218V23.0491Z" fill="url(#paint4_linear)"/>
<path d="M238.843 30.5241C240.697 30.5241 241.897 29.7171 242.51 28.5514H242.608V29.4218C242.608 29.9 242.996 30.2877 243.475 30.2877H245.04C245.519 30.2877 245.907 29.9 245.907 29.4218V21.8427C245.907 18.8592 243.375 17.6039 240.582 17.6039C238.011 17.6039 236.193 18.654 235.42 20.3866C235.207 20.863 235.58 21.3584 236.1 21.4006L237.627 21.5243C238.039 21.5578 238.4 21.2773 238.651 20.9486C239.025 20.458 239.663 20.139 240.566 20.139C241.75 20.139 242.428 20.7341 242.428 21.7612V21.8101C242.428 22.6171 241.571 22.7231 239.39 22.935C236.907 23.1632 234.678 23.9947 234.678 26.7907C234.678 29.2687 236.45 30.5241 238.843 30.5241ZM239.839 28.1275C238.769 28.1275 238.002 27.6303 238.002 26.6765C238.002 25.6984 238.81 25.2174 240.035 25.0462C240.795 24.9403 242.036 24.7609 242.453 24.4838V25.8125C242.453 27.1249 241.366 28.1275 239.839 28.1275Z" fill="url(#paint5_linear)"/>
<path d="M250.906 29.4218C250.906 29.9 251.294 30.2877 251.774 30.2877H253.518C253.997 30.2877 254.385 29.9 254.385 29.4218V23.204C254.385 21.6634 255.512 20.6037 257.047 20.6037C257.139 20.6037 257.238 20.6066 257.339 20.6122C257.928 20.6443 258.517 20.1876 258.517 19.5993V18.3946C258.517 17.9933 258.24 17.6413 257.84 17.6068C257.697 17.5944 257.554 17.5876 257.423 17.5876C256.018 17.5876 254.867 18.4028 254.41 19.9516H254.279V18.6328C254.279 18.1546 253.891 17.7669 253.411 17.7669H251.774C251.294 17.7669 250.906 18.1546 250.906 18.6328V29.4218Z" fill="url(#paint6_linear)"/>
<path d="M265.146 34.9585C267.735 34.9585 269.115 33.6461 269.817 31.6408L274.307 18.8807C274.496 18.3435 274.098 17.7806 273.527 17.7781C272.039 17.7715 270.728 18.755 270.32 20.1842L268.388 26.9618H268.257L265.838 18.3979C265.733 18.0247 265.392 17.7669 265.003 17.7669H263.223C262.626 17.7669 262.207 18.3551 262.404 18.9179L266.501 30.6463L266.297 31.1762C265.931 32.0232 265.368 32.2826 264.596 32.1995C264.116 32.1478 263.627 32.3846 263.488 32.8462L263.184 33.8553C263.055 34.2822 263.275 34.7372 263.713 34.8242C264.133 34.9076 264.626 34.9585 265.146 34.9585Z" fill="url(#paint7_linear)"/>
<path d="M164.305 16.0436C164.779 14.0395 165.317 12.0204 165.824 10.1233C166.38 8.04391 166.605 6.44967 166.606 5.20345C166.605 4.4411 166.521 3.80757 166.365 3.27499C166.249 2.87603 166.092 2.53379 165.901 2.24571C165.758 2.03004 165.596 1.84515 165.423 1.69293C165.163 1.46381 164.877 1.30871 164.602 1.21514C164.396 1.14464 164.195 1.10747 164.009 1.09305C163.972 1.07767 163.931 1.06133 163.885 1.0453C163.705 0.982817 163.455 0.922894 163.153 0.922894C162.812 0.921612 162.403 1.00397 161.995 1.227C161.689 1.39363 161.384 1.63557 161.094 1.96211C160.658 2.45304 160.251 3.13175 159.88 4.07162C159.51 5.01246 159.176 6.21735 158.9 7.77601C158.555 9.7285 158.234 11.5551 157.924 13.1922C157.691 14.4202 157.464 15.5421 157.238 16.5294C157.068 17.2696 156.898 17.9346 156.727 18.5094C156.6 18.9404 156.471 19.3211 156.344 19.6429C156.249 19.8842 156.154 20.0925 156.064 20.2629C155.996 20.3908 155.93 20.4972 155.871 20.5799C155.839 20.625 155.81 20.6603 155.783 20.6911C155.741 20.6222 155.694 20.5369 155.644 20.435C155.483 20.1066 155.301 19.6275 155.116 19.0516C154.792 18.0419 154.455 16.7313 154.129 15.3101C153.639 13.1772 153.171 10.7918 152.776 8.74409C152.579 7.71993 152.4 6.78038 152.245 5.99624C152.168 5.60401 152.097 5.25055 152.032 4.94388C151.967 4.63689 151.909 4.37733 151.857 4.16712C151.695 3.51885 151.51 2.94621 151.288 2.44118C151.122 2.06273 150.935 1.72209 150.718 1.42023C150.555 1.19399 150.376 0.989226 150.178 0.810416C149.88 0.54188 149.538 0.332947 149.166 0.197718C148.794 0.0618478 148.396 -0.000319216 147.985 1.23231e-06C147.754 1.23231e-06 147.518 0.0192282 147.277 0.0554389C146.894 0.11312 146.513 0.208934 146.148 0.379092C145.876 0.50631 145.613 0.67743 145.381 0.898539C145.207 1.06421 145.051 1.25712 144.918 1.47439C144.719 1.80028 144.573 2.17809 144.477 2.60461C144.381 3.03177 144.335 3.50956 144.335 4.05111C144.336 5.27491 144.571 6.83005 145.089 8.87771C145.783 11.6099 146.462 15.0403 147.001 18.0073C146.822 17.9951 146.632 17.9871 146.431 17.9871C145.96 17.9874 145.439 18.0278 144.908 18.1493C144.51 18.2406 144.106 18.3784 143.719 18.5844C143.429 18.7389 143.148 18.9321 142.893 19.1712C142.509 19.5291 142.183 19.9915 141.964 20.551C141.943 20.6039 141.924 20.6584 141.905 20.7132C141.755 20.7225 141.545 20.7404 141.294 20.7766C140.92 20.8304 140.453 20.924 139.953 21.0916C139.578 21.2176 139.184 21.3851 138.799 21.6127C138.51 21.7835 138.226 21.9882 137.961 22.2347C137.565 22.6038 137.213 23.0697 136.966 23.6363C136.72 24.2038 136.58 24.8662 136.581 25.6164C136.581 25.991 136.615 26.3877 136.687 26.8084C136.896 28.0402 137.221 29.2586 137.634 30.3994C137.654 30.4542 137.676 30.507 137.697 30.5615C137.714 30.9896 137.795 32.4945 138.12 34.3973C138.313 35.5195 138.59 36.7801 138.995 38.0434C139.399 39.3066 139.93 40.573 140.64 41.7061C141.239 42.6604 141.787 43.4516 142.268 44.1402C142.628 44.6565 142.949 45.1147 143.225 45.5386C143.638 46.1754 143.945 46.731 144.149 47.3018C144.21 47.4719 144.262 47.6446 144.305 47.8225H145.817C145.767 47.5552 145.705 47.2966 145.626 47.0467C145.469 46.5516 145.26 46.0889 145.012 45.6354C144.639 44.9548 144.182 44.2943 143.659 43.5445C143.136 42.7943 142.545 41.9541 141.895 40.9175C141.272 39.926 140.782 38.7682 140.405 37.5906C140.038 36.4453 139.779 35.2827 139.596 34.2358C139.965 34.7479 140.358 35.2039 140.777 35.5858C141.165 35.9393 141.578 36.2315 142.02 36.4401C142.194 36.5222 142.374 36.5908 142.557 36.644C142.951 36.6991 143.245 37.0301 143.487 37.33C143.629 37.506 143.775 37.6716 143.953 37.813C144.151 37.9706 144.371 38.1001 144.583 38.2382C144.778 38.3654 144.974 38.4936 145.122 38.6762C145.263 38.8493 145.363 39.0441 145.443 39.2511C145.533 39.4815 145.588 39.7212 145.655 39.9587C145.734 40.2352 145.827 40.5073 145.93 40.7755C145.956 40.8431 145.983 40.9114 146.011 40.9793C146.126 41.1809 146.283 41.3472 146.494 41.4529C146.515 41.4638 146.547 41.4792 146.583 41.4955C146.63 41.5052 146.678 41.5109 146.726 41.5125C146.875 41.4914 147.019 41.4593 147.15 41.3914C147.208 41.3497 147.261 41.2988 147.311 41.2459C147.356 41.1837 147.398 41.119 147.439 41.0536C147.469 40.9835 147.504 40.9146 147.533 40.8438C147.537 40.8354 147.54 40.8277 147.545 40.8204C147.552 40.8005 147.565 40.7809 147.584 40.7627C147.602 40.7451 147.62 40.7278 147.639 40.7104C147.671 40.6765 147.705 40.6464 147.742 40.6185C147.982 40.4111 148.235 40.2288 148.42 39.9619C148.427 39.9507 148.435 39.9401 148.443 39.9292C148.5 39.8225 148.562 39.7199 148.646 39.636C148.796 39.4851 148.998 39.4203 149.192 39.3463C149.422 39.2585 149.627 39.1165 149.768 38.9105C149.803 38.8579 149.833 38.7977 149.863 38.7381C149.879 38.6817 149.891 38.6237 149.9 38.566C149.915 38.4215 149.942 38.2757 149.954 38.1324C149.961 38.0446 149.974 37.961 150 37.8825C150.03 37.7751 150.083 37.6729 150.144 37.579C150.247 37.4188 150.331 37.2861 150.346 37.1105C150.345 37.1022 150.344 37.0945 150.343 37.0878C150.308 36.858 150.11 36.7218 149.916 36.6241C149.455 36.3918 148.945 36.3456 148.441 36.2975C148.426 36.2959 148.41 36.2943 148.394 36.2927C148.315 36.2883 148.236 36.2828 148.157 36.2806C147.781 36.2697 147.413 36.3815 147.037 36.3741C146.923 36.3719 146.783 36.3555 146.72 36.2456C146.667 36.1533 146.702 36.0454 146.77 35.9723C146.84 35.896 146.934 35.8563 147.023 35.8073C147.074 35.7746 147.126 35.7422 147.176 35.7073C147.214 35.6781 147.251 35.6467 147.286 35.6137C147.297 35.598 147.309 35.5826 147.321 35.5672C147.333 35.5525 147.346 35.5365 147.36 35.5221C147.392 35.4679 147.431 35.4182 147.473 35.3775C147.543 35.3099 147.63 35.251 147.731 35.2487C147.774 35.2478 147.82 35.2609 147.858 35.2792C147.861 35.2808 147.865 35.2833 147.869 35.2862C148.08 35.333 148.297 35.359 148.518 35.3586C148.843 35.359 149.174 35.3045 149.498 35.1958C150.17 34.9722 150.703 34.6658 151.114 34.3242C151.423 34.0682 151.662 33.7932 151.844 33.5257C152.001 33.2949 152.114 33.0713 152.197 32.8671C153.562 33.3071 155.111 33.5535 156.767 33.5539C157.177 33.5539 157.508 33.2219 157.508 32.8127C157.508 32.4031 157.176 32.0715 156.767 32.0715C155.555 32.0715 154.411 31.9269 153.383 31.6687C152.613 31.4751 151.908 31.2172 151.29 30.9111C150.362 30.4522 149.631 29.8831 149.15 29.2746C148.908 28.9702 148.728 28.6564 148.608 28.3386C148.488 28.02 148.427 27.6973 148.426 27.3625C148.426 27.0625 148.476 26.752 148.584 26.4252C148.705 26.0615 148.848 25.7836 148.996 25.5718C149.107 25.4125 149.221 25.2898 149.337 25.1918C149.511 25.0453 149.69 24.9527 149.88 24.8912C150.071 24.8303 150.275 24.8031 150.485 24.8034C150.899 24.8021 151.334 24.9139 151.654 25.0322C151.814 25.0908 151.946 25.1498 152.034 25.1921C152.078 25.2132 152.112 25.2305 152.132 25.2414C152.142 25.2469 152.149 25.2507 152.153 25.253L152.156 25.2546C152.182 25.2696 152.214 25.2847 152.242 25.2962L158.145 27.7086C158.146 27.7086 158.146 27.7089 158.147 27.7089C158.451 27.7976 158.379 28.1697 158.322 28.42C158.304 28.7282 158.418 29.0436 158.785 29.048C159.066 29.0516 159.26 29.1515 159.426 29.3172C159.433 29.3236 159.44 29.3297 159.447 29.3358C159.457 29.3412 159.466 29.3464 159.475 29.3515C159.579 29.4117 159.829 29.5556 159.836 29.3262C159.843 29.091 159.636 28.8836 159.474 28.7404C159.342 28.6238 159.177 28.5318 159.163 28.337C159.154 28.2053 159.304 28.1514 159.404 28.1985C159.508 28.2476 159.597 28.2908 159.672 28.3722C159.77 28.4469 159.855 28.5392 159.957 28.6093C160.018 28.651 160.082 28.6773 160.147 28.7016C160.166 28.7058 160.184 28.7106 160.202 28.7161C160.341 28.7237 160.486 28.6875 160.623 28.6834C160.683 28.6814 160.725 28.7068 160.75 28.7439C160.822 28.7965 160.883 28.8907 160.918 28.9705C161.074 29.3259 161.033 30.052 160.558 30.1533C160.528 30.1693 160.497 30.1837 160.466 30.1972C160.194 30.3157 159.89 30.3715 159.639 30.5343C159.2 30.8185 158.761 31.4315 158.923 31.9769C158.996 32.0872 159.088 32.1827 159.176 32.2448C159.362 32.3778 159.572 32.4486 159.79 32.497C159.91 32.4932 160.026 32.4903 160.14 32.4474C160.211 32.4208 160.276 32.381 160.344 32.348C160.352 32.3403 160.363 32.3336 160.375 32.3282C160.38 32.3243 160.386 32.3208 160.393 32.3176C160.397 32.3147 160.401 32.3118 160.406 32.3089C160.413 32.3038 160.421 32.3003 160.428 32.2971C160.434 32.2932 160.44 32.2897 160.446 32.2865C160.461 32.274 160.477 32.2615 160.485 32.256C160.519 32.2333 160.55 32.2083 160.582 32.183C160.622 32.1506 160.663 32.1218 160.705 32.0958C160.767 32.0458 160.821 32.0067 160.887 31.983C160.943 31.9475 161.016 31.9343 161.08 31.951C161.085 31.9519 161.088 31.9535 161.092 31.9548C161.109 31.9584 161.125 31.9638 161.14 31.9718C161.187 31.9978 161.216 32.0397 161.238 32.0862C161.275 32.1577 161.339 32.2077 161.407 32.2503C161.485 32.2996 161.567 32.3426 161.649 32.3849C161.789 32.457 161.967 32.5355 162.06 32.6704C162.065 32.6749 162.068 32.6797 162.07 32.6845C162.091 32.7181 162.106 32.755 162.115 32.7963C162.115 32.797 162.115 32.7973 162.115 32.7979C162.118 32.8024 162.12 32.8069 162.123 32.8117C162.13 32.8261 162.136 32.8405 162.144 32.8546C162.151 32.8668 162.158 32.8784 162.166 32.8896C162.195 32.9175 162.228 32.9405 162.264 32.9598C162.338 32.9998 162.439 33.028 162.516 32.9713C162.564 32.936 162.59 32.8777 162.624 32.8306C162.665 32.7742 162.711 32.7322 162.767 32.6912C162.768 32.6903 162.769 32.6896 162.77 32.6887C162.784 32.6733 162.798 32.6579 162.811 32.6419C162.817 32.6345 162.821 32.6268 162.826 32.6194C162.844 32.5848 162.857 32.5486 162.866 32.5114C162.865 32.4547 162.863 32.3983 162.859 32.3419C162.856 32.3115 162.853 32.281 162.849 32.2509C162.849 32.248 162.848 32.241 162.848 32.2387C162.848 32.2378 162.847 32.2365 162.847 32.2355C162.847 32.2339 162.846 32.2327 162.846 32.2307C162.837 32.1849 162.823 32.14 162.808 32.0958C162.799 32.0744 162.79 32.0522 162.783 32.0298C162.776 32.0067 162.77 31.983 162.765 31.9593C162.763 31.9526 162.76 31.9462 162.758 31.9394C162.75 31.9193 162.748 31.8978 162.744 31.877C162.735 31.8305 162.724 31.7843 162.718 31.7376C162.717 31.727 162.716 31.7164 162.716 31.7058C162.713 31.6716 162.714 31.6366 162.719 31.603C162.723 31.5716 162.738 31.5386 162.76 31.5136C162.772 31.4918 162.786 31.4713 162.803 31.4533C162.834 31.4232 162.871 31.4081 162.91 31.4014C162.931 31.3963 162.952 31.3931 162.975 31.3912C163.009 31.3886 163.045 31.3902 163.078 31.3992C163.113 31.4085 163.149 31.4287 163.169 31.4591C163.169 31.4578 163.17 31.4565 163.17 31.4552C163.208 31.5536 163.246 31.652 163.282 31.751L163.282 31.7513C163.285 31.7581 163.288 31.7642 163.29 31.7706L163.291 31.7719C163.293 31.777 163.294 31.7821 163.297 31.7872C163.303 31.802 163.31 31.8167 163.315 31.8318C163.32 31.8459 163.322 31.8609 163.326 31.8757C163.326 31.8773 163.326 31.8789 163.327 31.8802C163.394 32.0744 163.457 32.2695 163.515 32.4659C163.521 32.4772 163.524 32.4903 163.524 32.5034C163.524 32.5044 163.525 32.5054 163.525 32.5063C163.527 32.5169 163.527 32.5275 163.524 32.5384C163.522 32.5445 163.521 32.5509 163.519 32.5566C163.516 32.5685 163.51 32.5787 163.502 32.588C163.457 32.6681 163.36 32.7178 163.288 32.7691C163.283 32.7726 163.278 32.7761 163.273 32.7797C163.273 32.7803 163.265 32.7861 163.263 32.7877C163.255 32.7941 163.247 32.8005 163.239 32.8072C163.231 32.8152 163.222 32.8232 163.214 32.8319C163.211 32.8354 163.208 32.8389 163.205 32.8425C163.204 32.8438 163.203 32.8447 163.202 32.8454C163.202 32.8463 163.201 32.847 163.2 32.8486C163.194 32.8585 163.187 32.8687 163.182 32.8793C163.18 32.8822 163.179 32.8854 163.177 32.8886C163.177 32.8909 163.172 32.9037 163.172 32.9037C163.168 32.9171 163.164 32.9309 163.162 32.945C163.161 32.9463 163.16 32.9562 163.159 32.9598C163.159 32.9636 163.158 32.9742 163.158 32.9742C163.157 32.9774 163.157 32.9806 163.156 32.9838C163.155 33.0585 163.164 33.1511 163.18 33.2321C163.181 33.2337 163.181 33.235 163.182 33.2366C163.183 33.2385 163.183 33.2405 163.184 33.2424C163.225 33.3055 163.274 33.3632 163.336 33.4017C163.339 33.4033 163.341 33.4052 163.343 33.4068C163.352 33.4109 163.361 33.4148 163.369 33.4199C163.412 33.4462 163.446 33.4805 163.492 33.5036C163.595 33.5558 163.697 33.5965 163.783 33.6763C163.817 33.7077 163.832 33.7433 163.833 33.7785C163.889 34.0736 163.936 34.371 163.973 34.67C163.974 34.6719 163.975 34.6742 163.975 34.6761C163.981 34.7027 163.984 34.7296 163.982 34.7562C163.984 34.762 163.985 34.768 163.984 34.7745C163.984 34.7777 163.984 34.7805 163.983 34.7834C163.986 34.8068 163.981 34.8318 163.97 34.8546C163.962 34.869 163.952 34.8808 163.939 34.8905L163.938 34.8911C163.935 34.893 163.932 34.8949 163.93 34.8969C163.927 34.8985 163.924 34.9001 163.922 34.9017C163.902 34.9116 163.88 34.9161 163.858 34.9145C163.843 34.9132 163.829 34.9106 163.814 34.9071C163.804 34.9058 163.794 34.9046 163.785 34.9033C163.758 34.8994 163.732 34.8937 163.707 34.884C163.695 34.8792 163.683 34.8732 163.672 34.8674C163.671 34.8671 163.669 34.8667 163.668 34.8661C163.626 34.852 163.585 34.8341 163.543 34.8225H163.54C163.416 34.8055 163.294 34.7767 163.169 34.7719C163.084 34.7834 163.014 34.8129 162.961 34.9001C162.897 35.0058 162.829 35.1132 162.708 35.1103C162.706 35.1112 162.705 35.1109 162.706 35.1103C162.683 35.1093 162.658 35.1052 162.631 35.0952C162.63 35.0949 162.629 35.0943 162.628 35.0939C162.622 35.0927 162.616 35.0914 162.61 35.0891C162.545 35.0657 162.48 35.044 162.416 35.0206C162.291 35.0055 162.177 34.9504 162.06 34.9023C161.981 34.8815 161.896 34.86 161.817 34.8293C161.805 34.827 161.795 34.8238 161.786 34.8196C161.685 34.8014 161.587 34.7713 161.504 34.7056C161.423 34.6421 161.363 34.5565 161.319 34.4636C161.31 34.4508 161.301 34.438 161.293 34.4248C161.224 34.3188 161.166 34.206 161.064 34.131C160.984 34.0836 160.898 34.0442 160.809 34.0169C160.697 34.0169 160.584 34.0192 160.473 34.031C160.412 34.0374 160.352 34.0486 160.291 34.0602C160.285 34.0615 160.278 34.0627 160.271 34.064C160.248 34.0685 160.224 34.073 160.201 34.0768C160.188 34.0797 160.174 34.0829 160.161 34.0868C159.963 34.1435 159.829 34.3172 159.655 34.4146C159.507 34.4976 159.345 34.5159 159.18 34.5364C159.012 34.5976 158.873 34.7331 158.771 34.8805C158.62 35.0959 158.581 35.3176 158.506 35.5624C158.412 35.8678 158.225 36.0819 158.009 36.3091C157.919 36.4033 157.813 36.5145 157.725 36.6353C157.648 36.8176 157.583 37.0077 157.521 37.1948C157.481 37.3163 157.449 37.439 157.424 37.5627C157.424 37.5774 157.423 37.5918 157.42 37.6063C157.425 37.6774 157.424 37.7476 157.429 37.8033C157.471 38.2558 157.553 38.7192 157.682 39.1553C157.79 39.5197 157.948 39.8885 158.212 40.1676C158.443 40.4111 158.739 40.5323 159.055 40.5819C159.417 40.539 159.775 40.4608 160.113 40.3326C160.271 40.2724 160.441 40.1955 160.614 40.1824C160.628 40.1791 160.643 40.1775 160.659 40.1785C160.667 40.1788 160.675 40.1801 160.682 40.1804C160.725 40.1817 160.769 40.1875 160.812 40.1993C160.813 40.2 160.815 40.2006 160.817 40.2009C160.833 40.2045 160.848 40.208 160.864 40.2121C160.878 40.2134 160.889 40.2154 160.898 40.2218C160.99 40.248 161.081 40.2807 161.177 40.3051C161.269 40.3285 161.369 40.34 161.458 40.3746C161.481 40.3791 161.501 40.3852 161.529 40.3983C161.552 40.4092 161.574 40.4256 161.593 40.4432C161.614 40.4618 161.632 40.4861 161.646 40.5121C161.671 40.5493 161.685 40.5948 161.689 40.6444C161.705 40.7175 161.689 40.7944 161.661 40.8691C161.645 40.9239 161.624 40.9755 161.598 41.0245C161.545 41.1594 161.491 41.2895 161.457 41.4299C161.457 41.4356 161.456 41.4417 161.455 41.4475C161.436 41.5734 161.432 41.6455 161.491 41.7657C161.527 41.8397 161.566 41.9109 161.601 41.9849C161.607 41.9929 161.611 42.0028 161.614 42.0137C161.624 42.0352 161.633 42.057 161.642 42.0794C161.642 42.081 161.642 42.0829 161.643 42.0845C161.648 42.0945 161.653 42.1047 161.656 42.1153C161.657 42.1185 161.658 42.1217 161.658 42.1249C161.664 42.1384 161.667 42.1525 161.669 42.1669C161.671 42.1743 161.672 42.1816 161.673 42.1887C161.678 42.2095 161.68 42.2319 161.676 42.2566C161.653 42.4133 161.668 42.5707 161.662 42.7283C161.657 42.8482 161.632 42.9635 161.611 43.0808C161.611 43.0923 161.61 43.1032 161.607 43.1138C161.607 43.1221 161.607 43.1302 161.605 43.1382C161.605 43.1443 161.605 43.1503 161.603 43.1568C161.578 43.3102 161.479 43.4323 161.409 43.5672C161.327 43.7281 161.257 43.9069 161.218 44.0841C161.176 44.2796 161.193 44.4853 161.287 44.6638C161.327 44.7414 161.382 44.8055 161.437 44.8728C161.444 44.8792 161.45 44.8865 161.456 44.8942C161.458 44.8968 161.46 44.8997 161.462 44.9022C161.466 44.9051 161.469 44.9083 161.472 44.9119C161.522 44.9477 161.567 44.99 161.617 45.0266C161.672 45.0669 161.739 45.0868 161.795 45.1243C161.862 45.1682 161.916 45.2285 161.941 45.2941C161.959 45.3214 161.969 45.3541 161.969 45.3877C161.969 45.3884 161.969 45.389 161.969 45.3896C161.97 45.4079 161.969 45.4265 161.964 45.4444C161.965 45.4432 161.966 45.4419 161.968 45.4403C161.965 45.4451 161.963 45.4499 161.961 45.4547C161.957 45.4681 161.951 45.4806 161.943 45.4925C161.589 46.2648 161.197 47.0214 160.777 47.7584H162.469C163.07 46.6352 163.607 45.4707 164.056 44.2777C164.999 41.7763 165.569 39.154 165.569 36.5555C165.569 35.25 165.425 33.9509 165.11 32.681C164.795 31.411 164.309 30.1702 163.63 28.9852C163.392 28.5702 163.209 28.0415 163.088 27.4131C162.968 26.7853 162.91 26.0608 162.91 25.2648C162.91 24.2355 163.006 23.0867 163.173 21.8674C163.422 20.0364 163.831 18.0474 164.305 16.0436ZM145.713 34.389C145.581 34.396 145.475 34.3114 145.378 34.2351C145.28 34.1576 145.178 34.0832 145.069 34.0224C145.003 33.9897 144.935 33.9599 144.864 33.9365C144.85 33.932 144.836 33.9275 144.821 33.9233C144.816 33.9217 144.811 33.9205 144.806 33.9192C144.755 33.906 144.702 33.8961 144.649 33.8894C144.57 33.8804 144.492 33.8794 144.413 33.8814C144.37 33.8839 144.327 33.8878 144.284 33.8948C144.114 33.923 143.973 34.0227 143.809 34.0637C143.668 34.1073 143.525 34.0884 143.372 34.0711C143.22 34.0538 142.987 34.0483 142.891 34.1919C142.867 34.304 142.918 34.4271 142.95 34.5325C142.987 34.6533 143.017 34.777 143.022 34.9036C143.023 34.9453 143.023 34.9882 143.014 35.0266C143.013 35.0968 142.972 35.1407 142.92 35.158C142.901 35.1664 142.879 35.1712 142.854 35.1712C142.824 35.1712 142.799 35.1644 142.778 35.1535C142.767 35.1494 142.755 35.1452 142.743 35.1401C142.317 34.9626 141.84 34.604 141.368 34.0823C141.158 33.8506 140.949 33.5869 140.745 33.2975C140.734 33.285 140.723 33.2725 140.713 33.2591C140.669 33.2068 140.62 33.152 140.581 33.0924C140.489 32.9835 140.418 32.8489 140.35 32.7281C140.251 32.5525 140.145 32.3801 140.062 32.1958C140.062 32.1958 140.061 32.1958 140.06 32.1961C139.863 31.8385 139.675 31.4581 139.497 31.0598C139.497 31.0585 139.496 31.0576 139.496 31.0566C139.494 31.054 139.493 31.0515 139.492 31.0489C139.491 31.048 139.491 31.0473 139.491 31.0464L139.491 31.0454C139.491 31.0454 139.491 31.0448 139.491 31.0441C139.491 31.0435 139.49 31.0425 139.49 31.0419C139.489 31.0393 139.489 31.0364 139.488 31.0335L139.488 31.0329C139.486 31.0246 139.485 31.0162 139.483 31.0079C139.48 30.9896 139.476 30.9717 139.474 30.9531C139.474 30.9521 139.474 30.9512 139.474 30.9502C139.471 30.9368 139.469 30.923 139.466 30.9095C139.46 30.8791 139.455 30.8483 139.454 30.8172C139.452 30.8015 139.449 30.7855 139.447 30.7698C139.447 30.7679 139.446 30.766 139.446 30.7637C139.446 30.7621 139.446 30.7605 139.446 30.7589C139.433 30.6669 139.427 30.5747 139.439 30.4814C139.447 30.4173 139.464 30.3532 139.487 30.2904L139.488 30.2895C139.495 30.2686 139.504 30.2481 139.512 30.2276C139.513 30.2263 139.513 30.225 139.514 30.2238C139.522 30.1965 139.53 30.1696 139.541 30.1433C139.562 30.0898 139.593 30.044 139.629 29.9991C139.646 29.9783 139.663 29.9568 139.682 29.9389C139.703 29.9193 139.727 29.9036 139.749 29.8863C139.76 29.8777 139.771 29.8693 139.782 29.861C139.783 29.8604 139.783 29.8594 139.784 29.8588C139.797 29.8482 139.81 29.8395 139.826 29.8319C139.827 29.8315 139.827 29.8309 139.828 29.8306C139.829 29.8299 139.831 29.8296 139.832 29.829C139.841 29.8245 139.85 29.82 139.859 29.8146C139.867 29.8101 139.875 29.8065 139.882 29.8033C139.885 29.8014 139.889 29.7995 139.892 29.7976C139.904 29.7899 139.917 29.7828 139.93 29.7767C139.934 29.7742 139.939 29.7716 139.944 29.769C140.023 29.7098 140.123 29.6716 140.231 29.6502C140.248 29.6447 140.266 29.6399 140.284 29.6348C140.308 29.6252 140.348 29.613 140.36 29.6095C140.412 29.5947 140.469 29.5912 140.522 29.5854C140.571 29.5787 140.62 29.5739 140.669 29.5707C140.745 29.5563 140.82 29.5579 140.896 29.5614C140.925 29.5614 140.955 29.5627 140.984 29.5652C140.992 29.5656 141 29.5659 141.008 29.5662C141.32 29.5563 141.629 29.4592 141.883 29.2797C141.905 29.2608 141.927 29.2419 141.949 29.2227C142.012 29.1464 142.073 29.0682 142.137 28.9923C142.138 28.9913 142.139 28.99 142.139 28.9888C142.245 28.7894 142.303 28.5638 142.306 28.3373C142.297 28.2431 142.287 28.1498 142.281 28.0595C142.278 28.0425 142.274 28.0255 142.269 28.0085C142.221 27.8995 142.153 27.8021 142.069 27.7188C141.982 27.639 141.88 27.5733 141.773 27.5153C141.585 27.424 141.366 27.3445 141.212 27.1994C141.086 27.0968 140.981 26.9696 140.938 26.819C140.885 26.7088 140.855 26.5847 140.847 26.4421C140.847 26.4338 140.846 26.4252 140.846 26.4168C140.846 26.4101 140.846 26.4034 140.845 26.3966C140.845 26.3912 140.846 26.3861 140.846 26.3809C140.847 26.3143 140.856 26.2457 140.874 26.1743C140.89 26.1105 140.913 26.0509 140.94 25.9942C140.979 25.9073 141.025 25.8234 141.077 25.7468C141.092 25.7205 141.108 25.6939 141.124 25.667C141.157 25.6131 141.187 25.5571 141.215 25.5C141.223 25.4818 141.231 25.4632 141.239 25.4439C141.276 25.3065 141.299 25.1642 141.332 25.0254C141.379 24.8194 141.405 24.6111 141.42 24.4015C141.419 24.3538 141.418 24.306 141.416 24.2586C141.41 24.1199 141.405 24.0583 141.38 23.9394C141.368 23.8814 141.35 23.8074 141.333 23.7251C141.309 23.644 141.292 23.5616 141.287 23.4863C141.28 23.4495 141.273 23.4129 141.27 23.3764C141.258 23.2909 141.257 23.2047 141.285 23.1233C141.31 22.9723 141.382 22.8512 141.54 22.8079C141.589 22.7945 141.631 22.8035 141.664 22.8246C141.675 22.8307 141.685 22.8384 141.695 22.8474C141.734 22.8723 141.763 22.9146 141.766 22.9739C141.818 23.9471 142.024 24.9008 142.163 25.8631C142.185 26.0134 142.206 26.163 142.229 26.3124C142.236 26.3287 142.24 26.3467 142.241 26.3668C142.242 26.3755 142.243 26.3841 142.244 26.3928C142.255 26.437 142.266 26.4812 142.277 26.5255C142.304 26.6027 142.338 26.6793 142.357 26.7543C142.388 26.8764 142.415 26.9978 142.452 27.1186C142.514 27.3195 142.588 27.5169 142.655 27.7156C142.665 27.7377 142.675 27.7598 142.683 27.7823C142.688 27.7951 142.694 27.8082 142.698 27.8214C142.705 27.8409 142.709 27.8605 142.713 27.8806C142.716 27.889 142.718 27.8976 142.72 27.9072C142.726 27.9438 142.731 27.9793 142.734 28.0156C142.749 28.0953 142.782 28.1764 142.803 28.2527C142.824 28.3309 142.844 28.4078 142.856 28.4869C142.856 28.4895 142.857 28.4924 142.858 28.4949C142.859 28.5007 142.859 28.5065 142.86 28.5122C142.863 28.5222 142.865 28.5324 142.866 28.5427C142.868 28.5475 142.869 28.5526 142.871 28.5578L142.872 28.5574C143.063 29.1317 143.271 29.6985 143.5 30.2443C143.783 30.9182 144.093 31.561 144.433 32.1522C144.44 32.1647 144.448 32.1766 144.455 32.1891L144.514 32.2891C144.857 32.8687 145.228 33.3962 145.637 33.849C145.653 33.8637 145.669 33.8782 145.685 33.8923C145.773 33.9669 145.911 34.0329 145.931 34.1566C145.934 34.1691 145.935 34.1823 145.934 34.1951C145.928 34.3079 145.822 34.3832 145.713 34.389ZM148.462 30.7233C149.098 31.3569 149.897 31.8943 150.817 32.3272C150.742 32.5054 150.625 32.7146 150.434 32.9277C150.298 33.0796 150.124 33.2344 149.896 33.3821C149.668 33.5295 149.385 33.6702 149.03 33.7888C148.848 33.8493 148.681 33.8753 148.518 33.8753C148.26 33.8746 148.006 33.8102 147.732 33.6692C147.492 33.5462 147.241 33.3622 146.989 33.119C146.546 32.6944 146.101 32.0901 145.691 31.3687C145.075 30.2866 144.533 28.9455 144.105 27.5647C144.101 27.549 144.096 27.5333 144.091 27.5176C144.051 27.4294 144.009 27.3359 143.984 27.2413C143.912 27.052 143.91 26.7568 143.925 26.5511C143.939 26.347 143.994 26.156 144.131 26.0179L144.132 26.0079L144.154 25.9954C144.159 25.991 144.163 25.9871 144.168 25.9826C144.278 25.8269 144.423 25.7109 144.568 25.5882C144.721 25.4584 144.88 25.3462 145.076 25.2953C145.184 25.2677 145.291 25.2542 145.399 25.2472C145.496 25.2225 145.592 25.1844 145.683 25.1536C145.742 25.1334 145.801 25.111 145.859 25.0854C145.874 25.0742 145.889 25.0626 145.903 25.052C146.087 24.911 146.2 24.6867 146.161 24.4528C146.138 24.3108 146.054 24.1775 145.956 24.0599C145.745 23.844 145.452 23.71 145.177 23.5591C144.966 23.4934 144.802 23.2793 144.732 23.0749C144.672 22.9002 144.606 22.766 144.39 22.8438C144.282 22.8829 144.132 23.0191 144.087 23.1438C144.082 23.1585 144.079 23.1716 144.076 23.1822C144.076 23.1838 144.075 23.1857 144.075 23.1873C144.073 23.2027 144.069 23.2162 144.064 23.2284C144.037 23.3223 144.014 23.4171 143.988 23.511C143.948 23.6552 143.908 23.8411 143.809 23.9657C143.804 23.9741 143.798 23.9814 143.792 23.9882C143.783 24.0023 143.772 24.016 143.758 24.0288C143.709 24.0715 143.688 24.1019 143.657 24.1231C143.627 24.1442 143.597 24.1779 143.582 24.1839C143.566 24.19 143.545 24.2144 143.524 24.2205C143.502 24.2266 143.49 24.2359 143.463 24.2448C143.436 24.2538 143.396 24.2753 143.381 24.2782C143.366 24.2814 143.332 24.3057 143.317 24.3057C143.316 24.3057 143.315 24.306 143.314 24.306C143.266 24.0369 143.222 23.7715 143.186 23.5155C143.135 23.1598 143.111 22.8377 143.11 22.5461C143.081 22.3071 143.11 22.0574 143.143 21.8238C143.168 21.6486 143.206 21.4742 143.254 21.3038C143.288 21.1839 143.345 21.0759 143.399 20.9657C143.409 20.9449 143.418 20.9243 143.428 20.9048C143.43 20.8987 143.434 20.8933 143.437 20.8875C143.441 20.8776 143.446 20.8679 143.45 20.858C143.455 20.8455 143.462 20.8346 143.469 20.8253C143.574 20.6305 143.696 20.4687 143.834 20.3277L143.834 20.3273C143.85 20.3075 143.867 20.2892 143.887 20.2729C143.894 20.2668 143.902 20.261 143.909 20.2549C143.925 20.2399 143.94 20.2235 143.956 20.2091C144.029 20.145 144.107 20.0864 144.188 20.0316C144.19 20.0313 144.191 20.0313 144.191 20.0313C144.191 20.0313 144.193 20.0293 144.194 20.0274C144.219 20.0107 144.245 19.9947 144.271 19.979C144.556 19.7227 144.999 19.622 145.36 19.5451C145.584 19.4971 145.813 19.4634 146.041 19.4487C146.273 19.4336 146.499 19.4583 146.73 19.4673L146.898 19.4871C147.006 19.4945 147.111 19.5035 147.208 19.5144C147.23 19.5169 147.251 19.5179 147.273 19.5182C147.524 20.9471 147.733 22.1997 147.882 23.1172C147.964 23.6184 148.028 24.0199 148.071 24.2958C148.074 24.3156 148.077 24.3333 148.08 24.3515C147.908 24.539 147.75 24.7518 147.609 24.9928C147.518 25.1479 147.434 25.3151 147.357 25.4927C147.355 25.5007 147.351 25.5087 147.347 25.5164C147.344 25.5334 147.338 25.5503 147.329 25.567C147.317 25.5878 147.305 25.609 147.293 25.6301C147.288 25.6455 147.283 25.6612 147.278 25.6766C147.267 25.7048 147.256 25.7327 147.244 25.7602C147.237 25.7817 147.23 25.8035 147.223 25.825C147.221 25.8435 147.216 25.8602 147.208 25.875C147.199 25.9019 147.189 25.9278 147.18 25.9554C147.172 25.9788 147.165 26.0019 147.158 26.0252C147.157 26.0272 147.156 26.0297 147.156 26.0326C147.016 26.4761 146.946 26.9228 146.946 27.3612C146.946 27.822 147.023 28.2729 147.166 28.7016C147.417 29.4534 147.869 30.1324 148.462 30.7233ZM162.407 17.7285C162.122 19.0731 161.878 20.3975 161.704 21.6652C161.531 22.9329 161.428 24.1432 161.428 25.2639C161.428 26.0647 161.481 26.819 161.602 27.5189L152.839 23.9378C152.74 23.8846 152.501 23.7629 152.162 23.6385C151.734 23.4831 151.15 23.321 150.485 23.3197C150.186 23.3197 149.87 23.3537 149.55 23.4421C149.513 23.452 149.477 23.4645 149.44 23.4761C149.279 22.4724 149.007 20.8106 148.66 18.8578C148.091 15.6482 147.324 11.6608 146.526 8.51368C146.024 6.53908 145.816 5.08264 145.817 4.05208C145.816 3.51212 145.873 3.09137 145.962 2.77381C146.029 2.53507 146.113 2.35466 146.205 2.21334C146.274 2.10727 146.348 2.02235 146.43 1.94865C146.552 1.83906 146.694 1.75318 146.871 1.68204C147.047 1.61154 147.257 1.55834 147.498 1.52213C147.675 1.49554 147.838 1.48304 147.986 1.48304C148.301 1.48368 148.548 1.53687 148.765 1.63365C148.928 1.70703 149.077 1.80669 149.225 1.94673C149.446 2.1563 149.664 2.46297 149.867 2.89141C150.07 3.31889 150.256 3.86429 150.422 4.52666C150.502 4.84711 150.612 5.37104 150.743 6.0254C150.971 7.1726 151.263 8.72967 151.594 10.4181C151.842 11.6845 152.112 13.0253 152.394 14.326C152.606 15.3017 152.824 16.2548 153.046 17.1386C153.212 17.8016 153.38 18.4255 153.549 18.9924C153.676 19.4176 153.804 19.8105 153.932 20.1652C154.029 20.4312 154.126 20.676 154.227 20.8981C154.302 21.0647 154.378 21.2188 154.459 21.3618C154.582 21.5758 154.709 21.7646 154.884 21.9357C154.972 22.0206 155.075 22.1026 155.207 22.1696C155.337 22.2363 155.502 22.2862 155.681 22.2859C155.895 22.2866 156.105 22.2343 156.287 22.1475C156.458 22.0664 156.606 21.9581 156.736 21.8367C156.979 21.6075 157.168 21.3326 157.343 21.0144C157.495 20.7356 157.634 20.4222 157.767 20.0723C158.001 19.4599 158.217 18.735 158.43 17.9048C158.748 16.6601 159.055 15.179 159.371 13.5149C159.686 11.8508 160.011 10.0041 160.359 8.03461C160.593 6.71468 160.866 5.68797 161.151 4.89966C161.365 4.30843 161.585 3.85179 161.796 3.50475C161.954 3.24454 162.107 3.04587 162.248 2.89558C162.459 2.66998 162.641 2.55302 162.788 2.48732C162.935 2.42227 163.052 2.40561 163.153 2.40497C163.258 2.40497 163.344 2.42644 163.399 2.44535C163.427 2.45464 163.446 2.46329 163.453 2.46714L163.456 2.46874L163.457 2.46778C163.569 2.53251 163.696 2.56776 163.826 2.56776C163.932 2.56776 164.058 2.58698 164.183 2.63986C164.277 2.67959 164.373 2.73727 164.471 2.82828C164.616 2.96479 164.774 3.18174 164.903 3.55858C165.032 3.93447 165.125 4.46962 165.125 5.20281C165.126 6.26798 164.927 7.74749 164.394 9.7394C163.718 12.2706 162.979 15.0399 162.407 17.7285Z" fill="url(#paint8_linear)"/>
<g opacity="0.2">
<path d="M141.759 23.0118C141.76 23.0159 141.761 23.0201 141.762 23.0246C141.767 23.0611 141.77 23.098 141.772 23.1345C141.772 23.1294 141.772 23.1239 141.772 23.1188C141.771 23.0781 141.767 23.0416 141.759 23.006V23.0118Z" fill="white"/>
<path d="M142.27 28.012C142.181 27.8098 142.025 27.6467 141.821 27.541C141.594 27.4234 141.305 27.3353 141.142 27.1247C141.098 27.0888 141.061 27.0456 141.033 26.9959C141.029 26.9901 141.026 26.984 141.022 26.978C141.021 26.9773 141.021 26.9767 141.02 26.9757C141.019 26.9738 141.018 26.9719 141.017 26.9703C141.014 26.9651 141.01 26.9603 141.007 26.9552C141.004 26.9501 141.001 26.945 140.999 26.9398C140.997 26.9363 140.995 26.9328 140.993 26.9293C140.976 26.8988 140.961 26.8664 140.949 26.8322C140.94 26.81 140.931 26.7879 140.923 26.7652C140.918 26.7514 140.916 26.7383 140.915 26.7254C140.915 26.7235 140.914 26.7216 140.914 26.7197C140.913 26.7174 140.912 26.7152 140.912 26.7133C140.911 26.7123 140.911 26.7113 140.911 26.7104C140.906 26.696 140.901 26.6812 140.897 26.6668C140.892 26.6549 140.887 26.6421 140.885 26.6283C140.843 26.5242 140.841 26.4044 140.865 26.2954C140.866 26.2371 140.873 26.1784 140.893 26.1185C140.935 25.9887 141.001 25.8606 141.077 25.7481C141.162 25.6228 141.215 25.5167 141.264 25.3744C141.27 25.3193 141.283 25.2658 141.299 25.2129C141.338 25.0332 141.38 24.8502 141.407 24.6666C141.408 24.5547 141.422 24.441 141.425 24.3295C141.425 24.3173 141.425 24.3051 141.426 24.2926C141.417 24.2202 141.412 24.1468 141.41 24.0753C141.407 24.0571 141.403 24.0388 141.4 24.0202C141.389 23.9763 141.379 23.9327 141.375 23.8879C141.369 23.8661 141.363 23.8443 141.357 23.8222C141.349 23.7921 141.341 23.7619 141.334 23.7312C141.309 23.6485 141.292 23.5642 141.287 23.487C141.28 23.4514 141.273 23.4159 141.27 23.38C141.257 23.2883 141.256 23.196 141.288 23.1092C141.29 23.1047 141.293 23.1005 141.295 23.0964C141.297 23.0864 141.302 23.0778 141.306 23.0694C141.311 23.0416 141.319 23.015 141.333 22.9871C141.341 22.9653 141.352 22.948 141.367 22.9345C141.381 22.9153 141.397 22.899 141.415 22.8858C141.433 22.8701 141.453 22.857 141.474 22.8448C141.481 22.8403 141.487 22.8362 141.495 22.8326C141.506 22.8262 141.517 22.8208 141.531 22.8173C141.533 22.8163 141.535 22.8153 141.537 22.8147C141.537 22.8147 141.537 22.8153 141.538 22.816C141.543 22.8147 141.548 22.8131 141.553 22.8124C141.561 22.8115 141.568 22.8105 141.576 22.8096C141.593 22.8073 141.609 22.8086 141.623 22.8115C141.657 22.8166 141.685 22.8346 141.705 22.8592C141.707 22.8615 141.71 22.8644 141.713 22.8672C141.682 22.7977 141.644 22.7339 141.586 22.682C141.529 22.632 141.481 22.6013 141.414 22.5728C141.379 22.558 141.356 22.5462 141.321 22.5397C141.25 22.5266 141.18 22.5202 141.108 22.5205C140.808 22.5218 140.504 22.5609 140.213 22.6317C139.92 22.7025 139.635 22.8137 139.366 22.9502C139.249 23.0098 139.135 23.0762 139.026 23.1492C138.894 23.2377 138.764 23.3351 138.652 23.4479C138.579 23.5216 138.515 23.6043 138.454 23.6879C138.415 23.7401 138.382 23.7962 138.355 23.8555C138.329 23.9151 138.302 23.9744 138.282 24.0359C138.249 24.0824 138.223 24.1337 138.207 24.1904C138.165 24.2926 138.139 24.4025 138.124 24.5134C138.065 24.6781 138.034 24.8556 138.01 25.028C137.979 25.2565 137.957 25.4834 137.959 25.7144C137.964 26.1377 138.027 26.5643 138.128 26.9751C138.159 27.1029 138.195 27.2292 138.234 27.3542C138.264 27.5343 138.301 27.7127 138.346 27.889C138.37 27.9838 138.396 28.0784 138.425 28.1723C138.486 28.4959 138.57 28.8141 138.674 29.1269C138.866 29.7059 139.113 30.268 139.378 30.8173C139.415 30.8945 139.453 30.9714 139.491 31.048C139.49 31.0461 139.49 31.0438 139.49 31.0419C139.489 31.0393 139.488 31.0364 139.487 31.0336L139.487 31.0329C139.485 31.0246 139.484 31.0163 139.482 31.0079C139.479 30.9897 139.475 30.9717 139.473 30.9531C139.473 30.9522 139.473 30.9512 139.473 30.9502C139.47 30.9368 139.468 30.923 139.465 30.9095C139.458 30.8743 139.452 30.8384 139.453 30.8025C139.453 30.8019 139.453 30.8012 139.453 30.8006C139.45 30.7884 139.446 30.7762 139.445 30.7634C139.441 30.7349 139.442 30.7064 139.438 30.6779C139.431 30.6192 139.432 30.5638 139.438 30.5051C139.444 30.4462 139.46 30.3882 139.474 30.3305C139.48 30.3033 139.49 30.2783 139.502 30.2542C139.506 30.244 139.51 30.234 139.513 30.2235C139.521 30.1962 139.529 30.1693 139.539 30.143C139.561 30.0895 139.592 30.0437 139.628 29.9988C139.645 29.978 139.661 29.9565 139.681 29.9386C139.701 29.919 139.725 29.9033 139.748 29.886C139.759 29.8774 139.77 29.869 139.781 29.8607C139.781 29.8601 139.782 29.8591 139.783 29.8588C139.796 29.8482 139.809 29.8396 139.825 29.8319C139.827 29.8309 139.829 29.83 139.831 29.829C139.833 29.8277 139.836 29.8267 139.838 29.8258C139.845 29.8223 139.852 29.8187 139.859 29.8149C139.867 29.8098 139.877 29.8056 139.886 29.8021C139.903 29.7905 139.922 29.7796 139.941 29.7716C140.019 29.7127 140.118 29.6752 140.224 29.6531C140.229 29.6515 140.235 29.6499 140.242 29.6492C140.249 29.6476 140.257 29.6467 140.265 29.6454C140.268 29.6374 140.342 29.6153 140.36 29.6101C140.414 29.5947 140.474 29.5915 140.53 29.5854C140.568 29.5813 140.606 29.579 140.643 29.5774C140.766 29.5483 140.887 29.564 141.013 29.5672C141.164 29.571 141.305 29.5457 141.45 29.5066C141.666 29.4483 141.819 29.3349 141.986 29.2057C142.013 29.1708 142.043 29.14 142.071 29.1045C142.279 28.7879 142.357 28.3838 142.27 28.012Z" fill="white"/>
</g>
<path opacity="0.2" d="M146.175 24.5581C146.174 24.5353 146.172 24.5126 146.17 24.4885C146.169 24.4693 146.169 24.4501 146.168 24.4312C146.166 24.4164 146.163 24.4017 146.16 24.387C146.154 24.3677 146.146 24.3485 146.139 24.3299C146.136 24.3293 146.136 24.3283 146.137 24.327C146.128 24.3046 146.118 24.2825 146.109 24.2604C146.088 24.2206 146.065 24.1819 146.036 24.1457C145.931 24.0104 145.815 23.9271 145.671 23.838C145.536 23.7547 145.402 23.6813 145.261 23.6073C145.19 23.5695 145.093 23.533 145.04 23.4673C145.034 23.466 145.029 23.4644 145.024 23.4618C144.96 23.4189 144.912 23.3618 144.863 23.3032C144.821 23.2545 144.773 23.176 144.755 23.1074C144.75 23.0955 144.746 23.0834 144.742 23.0709C144.737 23.059 144.733 23.0468 144.73 23.0343C144.707 22.9927 144.69 22.9478 144.668 22.9068C144.658 22.8946 144.649 22.8824 144.639 22.8725C144.632 22.8661 144.626 22.861 144.619 22.8559C144.584 22.8405 144.548 22.8273 144.508 22.8184H144.507C144.491 22.8206 144.475 22.8219 144.459 22.8225C144.446 22.8267 144.431 22.8296 144.416 22.8318C144.403 22.8376 144.39 22.843 144.377 22.8482C144.371 22.8504 144.363 22.8539 144.355 22.8568C144.344 22.8629 144.333 22.8693 144.322 22.8748C144.313 22.8792 144.304 22.8834 144.295 22.8879C144.291 22.8895 144.288 22.8911 144.284 22.8927C144.283 22.894 144.281 22.8956 144.28 22.8969C144.269 22.9074 144.257 22.9177 144.245 22.9276C144.24 22.934 144.233 22.9398 144.229 22.9437C144.219 22.9536 144.208 22.9626 144.197 22.9715C144.195 22.9735 144.193 22.9754 144.191 22.9773L144.19 22.9783C144.186 22.9824 144.183 22.9866 144.179 22.9904C144.176 22.9956 144.174 23.0007 144.17 23.0058C144.165 23.0135 144.159 23.0209 144.154 23.0283C144.153 23.0295 144.152 23.0308 144.151 23.0321C144.15 23.0331 144.15 23.0327 144.15 23.0327C144.14 23.0468 144.128 23.06 144.116 23.0728C144.11 23.085 144.103 23.0975 144.098 23.11C144.092 23.1221 144.088 23.1346 144.083 23.1471C144.081 23.1507 144.08 23.1539 144.078 23.1574C144.076 23.1664 144.073 23.1753 144.071 23.184C144.068 23.1939 144.065 23.2042 144.063 23.2144C144.061 23.2244 144.059 23.2346 144.054 23.2439C144.054 23.2446 144.054 23.2452 144.054 23.2452V23.2458C144.049 23.2657 144.044 23.2862 144.038 23.3061C144.037 23.3115 144.036 23.317 144.035 23.3224C144.032 23.3314 144.03 23.3404 144.028 23.3493V23.3497C144.027 23.3519 144.027 23.3541 144.026 23.3561C144.026 23.357 144.026 23.3577 144.025 23.3586C144.026 23.3625 144.023 23.3699 144.023 23.3731C144.022 23.374 144.022 23.3753 144.022 23.3763C144.022 23.3856 144.019 23.3942 144.016 23.4032C144.014 23.4083 144.013 23.4134 144.012 23.4186C144.011 23.4214 144.01 23.4246 144.009 23.4275C144.009 23.4288 144.009 23.4301 144.009 23.4314V23.4317L144.008 23.432V23.4323C144.008 23.4323 144.008 23.433 144.008 23.4336C144.006 23.4371 144.005 23.4407 144.004 23.4442C144.004 23.4452 144.003 23.4458 144.003 23.4468C144.002 23.4496 144.001 23.4525 144 23.4557C143.999 23.4609 143.998 23.4657 143.996 23.4708C143.996 23.474 143.995 23.4775 143.995 23.4801C143.993 23.4855 143.992 23.4903 143.99 23.4958C143.988 23.5009 143.987 23.506 143.986 23.5112C143.985 23.5137 143.984 23.5166 143.983 23.5192C143.983 23.5205 143.982 23.5214 143.982 23.5224C143.978 23.532 143.976 23.5419 143.973 23.5519C143.971 23.5628 143.967 23.5737 143.965 23.5846C143.961 23.5967 143.958 23.6086 143.955 23.6208C143.954 23.6278 143.952 23.6349 143.95 23.6416C143.947 23.6647 143.935 23.6855 143.929 23.7079C143.927 23.7185 143.924 23.7288 143.919 23.7384C143.919 23.7396 143.918 23.7409 143.918 23.7422C143.917 23.7486 143.915 23.7553 143.912 23.7614C143.91 23.7666 143.909 23.7717 143.907 23.7768C143.903 23.7848 143.901 23.7928 143.898 23.8009C143.895 23.8076 143.893 23.814 143.89 23.8204C143.889 23.8284 143.883 23.8351 143.879 23.8419C143.88 23.8419 143.88 23.8419 143.88 23.8428C143.876 23.8492 143.872 23.8557 143.869 23.8624C143.866 23.8678 143.864 23.873 143.862 23.8784C143.86 23.8826 143.858 23.8861 143.855 23.8899C143.85 23.9047 143.84 23.9178 143.831 23.931C143.826 23.939 143.82 23.946 143.814 23.9531L143.813 23.9534C143.809 23.9611 143.805 23.9681 143.799 23.9749C143.799 23.9755 143.799 23.9761 143.798 23.9768C143.789 23.9909 143.777 24.0031 143.768 24.0165C143.763 24.0239 143.756 24.0293 143.749 24.0351C143.741 24.0415 143.733 24.0486 143.726 24.0553C143.717 24.0636 143.709 24.0739 143.699 24.0822C143.699 24.0835 143.698 24.0848 143.697 24.0861L143.696 24.087C143.692 24.0921 143.688 24.0973 143.683 24.1018C143.682 24.1024 143.681 24.1027 143.68 24.1034C143.675 24.1094 143.67 24.1149 143.664 24.1194C143.659 24.1239 143.652 24.1277 143.647 24.1319C143.644 24.1338 143.642 24.1354 143.639 24.137C143.639 24.1376 143.639 24.1383 143.638 24.1389C143.633 24.1444 143.627 24.1482 143.621 24.1527C143.614 24.1585 143.608 24.1642 143.601 24.1697C143.6 24.1703 143.599 24.171 143.598 24.1716C143.597 24.1723 143.597 24.1732 143.596 24.1735C143.592 24.1771 143.587 24.1799 143.582 24.1825C143.581 24.1831 143.58 24.1841 143.579 24.1848C143.578 24.1857 143.577 24.1864 143.575 24.187C143.575 24.1883 143.574 24.1892 143.573 24.1902C143.573 24.1912 143.572 24.1918 143.571 24.1924C143.57 24.1928 143.57 24.1931 143.569 24.1934C143.569 24.1934 143.566 24.1956 143.565 24.196C143.564 24.1969 143.563 24.1979 143.562 24.1989C143.557 24.2017 143.553 24.204 143.549 24.2065C143.548 24.2078 143.546 24.2088 143.546 24.2094C143.543 24.2117 143.54 24.2133 143.537 24.2149C143.531 24.2178 143.526 24.2203 143.52 24.2222C143.518 24.2232 143.515 24.2238 143.513 24.2245C143.512 24.2248 143.511 24.2245 143.51 24.2248C143.508 24.2261 143.506 24.2274 143.503 24.2283C143.5 24.2293 143.498 24.2303 143.495 24.2312C143.494 24.2319 143.493 24.2328 143.492 24.2335C143.489 24.2354 143.485 24.237 143.482 24.2383C143.477 24.2408 143.471 24.2428 143.466 24.244C143.462 24.2456 143.459 24.2476 143.455 24.2492C143.458 24.2482 143.46 24.2469 143.463 24.246C143.461 24.2469 143.467 24.2437 143.465 24.2447L143.464 24.2453C143.463 24.2456 143.462 24.2463 143.461 24.2466C143.457 24.2488 143.453 24.2508 143.448 24.2527C143.444 24.2546 143.439 24.2565 143.434 24.2578H143.433L143.433 24.2581C143.429 24.2601 143.425 24.2613 143.422 24.2629C143.42 24.2639 143.418 24.2649 143.417 24.2655C143.411 24.2687 143.404 24.2713 143.398 24.2732C143.397 24.2735 143.397 24.2735 143.396 24.2735C143.395 24.2738 143.394 24.2742 143.394 24.2745C143.394 24.2745 143.393 24.2745 143.393 24.2748C143.391 24.2754 143.39 24.2761 143.389 24.2764C143.387 24.2774 143.384 24.2783 143.382 24.2793C143.381 24.2796 143.38 24.2799 143.379 24.2799L143.378 24.2806C143.377 24.2812 143.376 24.2815 143.374 24.2822C143.373 24.2825 143.372 24.2828 143.371 24.2831H143.371C143.37 24.2834 143.369 24.2838 143.369 24.2841C143.368 24.2844 143.367 24.2844 143.367 24.2847C143.365 24.2857 143.363 24.287 143.361 24.2879C143.36 24.2883 143.359 24.2886 143.358 24.2889C143.357 24.2892 143.356 24.2902 143.356 24.2902C143.353 24.2924 143.349 24.295 143.345 24.2972C143.343 24.2985 143.34 24.2995 143.337 24.3004C143.334 24.302 143.331 24.3033 143.328 24.3046C143.326 24.3052 143.324 24.3062 143.322 24.3065C143.321 24.3068 143.319 24.3068 143.318 24.3072C143.317 24.3075 143.316 24.3075 143.315 24.3078H143.314L143.312 24.3072C143.331 24.4578 143.353 24.6077 143.379 24.7574C143.441 25.1064 143.527 25.4505 143.625 25.7908C143.655 26.0607 143.73 26.3209 143.821 26.5766C143.825 26.5904 143.828 26.6045 143.832 26.6182C143.86 26.7153 143.891 26.8115 143.923 26.907C143.922 26.8618 143.92 26.8163 143.923 26.7711C143.923 26.7278 143.924 26.6868 143.928 26.6455C143.928 26.5093 143.943 26.3644 143.998 26.2385C144.01 26.1811 144.046 26.1292 144.082 26.0844C144.104 26.0565 144.126 26.0305 144.153 26.01C144.171 25.987 144.19 25.9652 144.209 25.945C144.238 25.8895 144.292 25.8392 144.336 25.8014C144.407 25.7405 144.481 25.6841 144.555 25.628C144.557 25.6216 144.561 25.6152 144.568 25.6085C144.678 25.4963 144.808 25.4021 144.954 25.3461C144.958 25.3441 144.963 25.3416 144.969 25.3387C144.981 25.3326 144.996 25.3281 145.011 25.3249C145.12 25.2804 145.242 25.2634 145.363 25.256C145.435 25.2416 145.509 25.2307 145.576 25.2089C145.666 25.1801 145.764 25.1499 145.845 25.1022C145.876 25.0839 145.903 25.0647 145.931 25.0477C145.962 25.0105 145.996 24.9769 146.029 24.9426C146.045 24.9192 146.063 24.8971 146.082 24.8763C146.116 24.7958 146.15 24.7324 146.166 24.6488H146.165C146.169 24.617 146.173 24.5876 146.175 24.5581Z" fill="white"/>
<path opacity="0.2" d="M145.934 34.1889C145.934 34.1965 145.933 34.2042 145.931 34.2116C145.93 34.2183 145.927 34.2238 145.924 34.2289C145.924 34.235 145.923 34.2414 145.919 34.2485C145.918 34.2513 145.917 34.2536 145.916 34.2562C145.914 34.2651 145.909 34.2747 145.9 34.2853C145.857 34.3337 145.807 34.3571 145.754 34.3638C145.67 34.3821 145.593 34.351 145.517 34.3077C145.482 34.2898 145.448 34.2693 145.418 34.2491C145.417 34.2481 145.416 34.2475 145.415 34.2465C145.408 34.2421 145.401 34.2372 145.394 34.2324C145.392 34.2312 145.39 34.2302 145.388 34.2289L145.388 34.2286C145.387 34.228 145.386 34.227 145.385 34.2264C145.359 34.2126 145.337 34.194 145.316 34.1741C145.298 34.1616 145.28 34.1472 145.263 34.1325C145.241 34.119 145.218 34.1052 145.198 34.0889C145.197 34.0879 145.195 34.087 145.193 34.086C145.063 34.0174 144.932 33.9498 144.787 33.9139C144.622 33.8732 144.468 33.879 144.304 33.8854C144.254 33.895 144.205 33.9062 144.157 33.9229C144.078 33.9508 144.011 33.987 143.938 34.01C143.862 34.0443 143.782 34.0693 143.696 34.0796C143.573 34.0943 143.457 34.0764 143.336 34.061C143.24 34.0491 143.15 34.0636 143.058 34.0748C143.045 34.0793 143.031 34.0831 143.017 34.0863C142.995 34.0972 142.973 34.1087 142.953 34.1206C142.932 34.1328 142.916 34.1482 142.9 34.1645C142.899 34.1658 142.898 34.1671 142.897 34.1683C142.861 34.2869 142.916 34.4199 142.951 34.533C142.987 34.6538 143.017 34.7775 143.022 34.9041C143.026 35.0066 143.016 35.1169 142.904 35.1508C142.88 35.1582 142.858 35.1614 142.837 35.1617C142.914 35.2002 142.991 35.2361 143.076 35.2563C143.233 35.2934 143.399 35.3031 143.559 35.3069C143.866 35.314 144.175 35.2797 144.476 35.2197C144.76 35.163 145.04 35.08 145.311 34.9762C145.597 34.8669 145.925 34.6913 145.957 34.3497C145.962 34.2956 145.954 34.2401 145.934 34.1889Z" fill="white"/>
<path opacity="0.2" d="M150.35 37.0272C150.33 36.9587 150.285 36.8904 150.233 36.8311C150.227 36.8292 150.222 36.8266 150.217 36.8228C150.112 36.7331 150.026 36.6549 149.897 36.5966C149.801 36.553 149.697 36.5219 149.6 36.4777C149.451 36.4312 149.3 36.3931 149.148 36.3578C149.092 36.3565 149.042 36.3514 148.993 36.3341C148.992 36.3341 148.99 36.3347 148.988 36.3347C148.955 36.3338 148.926 36.3315 148.898 36.3248C148.653 36.2918 148.398 36.245 148.15 36.246C147.958 36.2466 147.767 36.2908 147.576 36.3136C147.256 36.3895 146.671 36.4661 146.704 36.1101C146.704 36.1095 146.704 36.1085 146.704 36.1085C146.704 36.1047 146.704 36.1008 146.704 36.097C146.705 36.0941 146.706 36.0915 146.706 36.089C146.707 36.0877 146.707 36.0864 146.707 36.0848C146.708 36.08 146.71 36.0749 146.712 36.0697C146.714 36.0608 146.718 36.0518 146.724 36.0412C146.725 36.0387 146.727 36.0364 146.728 36.0338L146.729 36.0332C145.875 36.3162 145.006 36.5485 144.125 36.7257C144.07 36.7366 144.015 36.7472 143.961 36.7577C143.901 36.7622 143.842 36.7664 143.783 36.7683C143.484 36.7776 143.185 36.7641 142.889 36.7289C142.845 36.7113 142.799 36.6985 142.752 36.694C142.767 36.7001 142.78 36.709 142.793 36.7186C142.794 36.719 142.795 36.719 142.795 36.7193C142.804 36.7228 142.812 36.726 142.821 36.7295C142.832 36.7347 142.842 36.7417 142.852 36.7494C142.869 36.7529 142.887 36.7619 142.904 36.7744C142.916 36.7811 142.927 36.7891 142.937 36.7988C142.938 36.8 142.939 36.8016 142.94 36.8029C142.945 36.8058 142.95 36.8087 142.953 36.8116C142.96 36.8167 142.966 36.8215 142.972 36.8266C142.98 36.8311 142.989 36.8369 142.999 36.8439C143.074 36.8914 143.136 36.9442 143.194 37.017C143.22 37.0506 143.249 37.0814 143.279 37.1122C143.358 37.1919 143.434 37.2785 143.499 37.3717C143.507 37.3813 143.516 37.3909 143.525 37.4009C143.531 37.407 143.536 37.4127 143.539 37.4188C143.56 37.439 143.577 37.4624 143.593 37.4871C143.596 37.4919 143.6 37.497 143.604 37.5018C143.618 37.5204 143.633 37.5393 143.646 37.5582C143.659 37.5752 143.673 37.5915 143.69 37.6066C143.743 37.6556 143.793 37.7104 143.851 37.7537C143.879 37.7752 143.906 37.7979 143.932 37.8219C143.974 37.8466 144.016 37.8707 144.057 37.8982C144.139 37.9437 144.215 38.003 144.29 38.0629C144.301 38.0677 144.312 38.0738 144.324 38.0828C144.531 38.2389 144.804 38.3446 144.974 38.5394C145.012 38.5712 145.048 38.6061 145.082 38.6433C145.1 38.6631 145.115 38.6843 145.129 38.7061C145.188 38.7577 145.225 38.8253 145.264 38.8942C145.298 38.9528 145.337 39.015 145.361 39.0803C145.366 39.0884 145.369 39.0964 145.372 39.1044C145.372 39.1053 145.373 39.1063 145.373 39.1069C145.434 39.2364 145.498 39.387 145.525 39.5379C145.532 39.5514 145.538 39.5639 145.541 39.5716C145.617 39.7728 145.663 39.9904 145.725 40.1968C145.735 40.2285 145.744 40.2602 145.752 40.2923C145.765 40.3259 145.777 40.3599 145.788 40.3942C145.8 40.4278 145.808 40.4624 145.815 40.497C145.839 40.5592 145.861 40.6214 145.881 40.6848C145.886 40.6909 145.891 40.6989 145.894 40.7105C145.955 40.9383 146.109 41.1806 146.295 41.3373C146.359 41.361 146.414 41.4151 146.471 41.4488C146.529 41.4824 146.577 41.501 146.64 41.5135H146.641C146.683 41.5196 146.725 41.5222 146.766 41.5222C146.928 41.4507 147.106 41.4629 147.242 41.328C147.276 41.2946 147.313 41.262 147.348 41.2286C147.365 41.2065 147.381 41.1838 147.396 41.1594C147.462 41.0517 147.511 40.9338 147.579 40.8271C147.64 40.7303 147.716 40.6771 147.804 40.6079C147.811 40.6025 147.817 40.5973 147.824 40.5919C147.849 40.565 147.877 40.5387 147.904 40.5134C147.911 40.506 147.917 40.4983 147.924 40.4916C147.955 40.4621 147.985 40.4339 148.016 40.4054C148.042 40.3788 148.068 40.3528 148.095 40.3275C148.104 40.3186 148.112 40.3102 148.12 40.3009C148.13 40.2904 148.138 40.2827 148.147 40.2766C148.161 40.2622 148.177 40.2493 148.193 40.2368C148.196 40.232 148.2 40.2272 148.203 40.2224C148.213 40.2099 148.231 40.1958 148.25 40.1849C148.258 40.1753 148.268 40.1657 148.279 40.1558C148.291 40.1369 148.305 40.1189 148.32 40.1016C148.321 40.0894 148.322 40.0776 148.322 40.0654C148.328 40.0705 148.333 40.0753 148.339 40.0798C148.344 40.0744 148.349 40.0686 148.354 40.0632C148.364 40.0529 148.374 40.0455 148.384 40.0401C148.387 40.0362 148.39 40.0327 148.393 40.0292C148.408 40.009 148.422 39.9891 148.437 39.9689C148.457 39.9327 148.478 39.8975 148.501 39.8635C148.536 39.7921 148.584 39.7312 148.64 39.6748C148.64 39.6741 148.641 39.6732 148.641 39.6732C148.646 39.6668 148.651 39.661 148.657 39.6559C148.658 39.6546 148.658 39.6536 148.659 39.6523C148.663 39.6475 148.667 39.6437 148.67 39.6395C148.671 39.6382 148.672 39.637 148.674 39.6354C148.674 39.6347 148.675 39.6341 148.675 39.6334C148.695 39.611 148.716 39.5921 148.741 39.5758C148.833 39.486 148.959 39.4348 149.081 39.3995C149.117 39.3893 149.154 39.3803 149.19 39.371C149.275 39.3316 149.364 39.2976 149.437 39.2383C149.504 39.1832 149.573 39.1339 149.644 39.0864C149.647 39.0832 149.651 39.08 149.654 39.0768C149.671 39.0573 149.688 39.0374 149.704 39.0166C149.727 38.9874 149.753 38.9583 149.778 38.9285C149.812 38.8804 149.842 38.8301 149.865 38.7756C149.891 38.7166 149.906 38.6541 149.917 38.5897C149.936 38.4584 149.938 38.3231 149.965 38.1933C149.965 38.1815 149.966 38.17 149.967 38.1581C149.964 38.128 149.963 38.0959 149.967 38.0604C149.974 37.9841 149.998 37.9165 150.027 37.8517C150.05 37.7748 150.083 37.6999 150.127 37.6338C150.187 37.5053 150.275 37.3884 150.335 37.2599C150.337 37.2506 150.339 37.2413 150.341 37.232C150.349 37.1702 150.355 37.1083 150.354 37.0452C150.353 37.0397 150.352 37.0336 150.35 37.0272Z" fill="white"/>
<path opacity="0.2" d="M163.967 34.9703C163.966 34.9372 163.965 34.9042 163.964 34.8712C163.962 34.8719 163.959 34.8732 163.957 34.8735H163.954C163.954 34.8735 163.953 34.8741 163.953 34.8748C163.95 34.8799 163.946 34.8841 163.941 34.8869C163.939 34.8882 163.937 34.8892 163.935 34.8901L163.934 34.8908C163.925 34.9074 163.898 34.9097 163.882 34.9084C163.879 34.9081 163.877 34.9074 163.874 34.9071C163.868 34.9071 163.861 34.9062 163.855 34.9049C163.828 34.9062 163.799 34.9014 163.773 34.893C163.765 34.8917 163.757 34.8895 163.748 34.8863C163.741 34.8837 163.734 34.8808 163.727 34.878C163.684 34.8648 163.64 34.8469 163.593 34.8334C163.51 34.8097 163.424 34.7966 163.338 34.7838C163.329 34.7825 163.32 34.7809 163.311 34.7793C163.304 34.7796 163.297 34.7793 163.29 34.7783C163.248 34.7732 163.202 34.7648 163.159 34.769C163.15 34.7713 163.14 34.7729 163.131 34.7732C163.125 34.7745 163.119 34.7761 163.113 34.7777C163.109 34.7789 163.106 34.7802 163.103 34.7812C163.102 34.7815 163.101 34.7818 163.099 34.7822C163.097 34.7828 163.096 34.7831 163.094 34.7834C163.082 34.7895 163.07 34.7956 163.057 34.8011C163.056 34.802 163.054 34.803 163.052 34.8039C163.051 34.8046 163.051 34.8052 163.05 34.8059C163.039 34.8152 163.026 34.8232 163.014 34.8315C163.012 34.8328 163.011 34.8344 163.01 34.8357C163.004 34.8421 162.998 34.8485 162.993 34.8552C162.988 34.861 162.983 34.8661 162.978 34.8709C162.975 34.8754 162.972 34.8796 162.969 34.8831C162.967 34.8853 162.965 34.8876 162.963 34.8898C162.961 34.8978 162.957 34.9052 162.952 34.9123C162.946 34.9292 162.933 34.9453 162.921 34.9578C162.921 34.959 162.92 34.9606 162.92 34.9616C162.893 34.9997 162.863 35.0369 162.825 35.0641C162.792 35.0879 162.742 35.1173 162.698 35.1032C162.691 35.1029 162.685 35.1016 162.678 35.0997C162.62 35.0923 162.564 35.0654 162.51 35.0436C162.463 35.0289 162.416 35.0151 162.367 35.0045C162.326 34.9956 162.284 34.985 162.247 34.9651L162.246 34.9645L162.246 34.9648C162.245 34.9645 162.244 34.9642 162.244 34.9638C162.228 34.9571 162.213 34.9504 162.199 34.9427C162.078 34.9164 161.963 34.8555 161.841 34.8219C161.67 34.7834 161.542 34.762 161.421 34.6219C161.356 34.5473 161.32 34.4611 161.271 34.3771C161.254 34.3495 161.238 34.3242 161.224 34.2983C161.131 34.1868 161.066 34.0916 160.908 34.0387C160.896 34.0345 160.883 34.0304 160.872 34.0259C160.652 33.9794 160.436 34.0464 160.219 34.0637C160.176 34.0752 160.133 34.0868 160.092 34.1034C160.083 34.1073 160.073 34.1105 160.064 34.114C160.006 34.1457 159.952 34.1848 159.892 34.2342C159.883 34.2416 159.874 34.2486 159.865 34.256C159.749 34.3755 159.603 34.4662 159.437 34.4928C159.267 34.52 159.131 34.5207 158.986 34.628C158.949 34.6559 158.915 34.6873 158.881 34.7187C158.84 34.7767 158.793 34.8305 158.745 34.8841C158.725 34.9283 158.7 34.9703 158.675 35.0122C158.657 35.0667 158.629 35.1186 158.606 35.1715C158.605 35.1725 158.606 35.1734 158.605 35.1747C158.588 35.241 158.567 35.3032 158.544 35.3641C158.536 35.4118 158.524 35.4573 158.509 35.5038C158.511 35.5112 158.511 35.5205 158.507 35.5326C158.501 35.5551 158.492 35.5756 158.482 35.5955C158.483 35.6025 158.482 35.6105 158.478 35.6211C158.468 35.648 158.455 35.6736 158.441 35.6986C158.441 35.7082 158.437 35.7201 158.428 35.7355C158.422 35.7464 158.415 35.757 158.408 35.7679C158.406 35.7743 158.403 35.781 158.399 35.7887C158.382 35.8201 158.36 35.848 158.338 35.8746C158.334 35.8842 158.329 35.8947 158.32 35.9069C158.311 35.9191 158.303 35.9287 158.295 35.9377C158.294 35.954 158.283 35.9749 158.256 35.9995C158.254 36.0114 158.246 36.0255 158.231 36.0428C158.223 36.0527 158.214 36.0627 158.205 36.0723C158.17 36.1207 158.132 36.1668 158.091 36.2104C158.087 36.2184 158.082 36.2264 158.075 36.2335C158 36.3065 157.932 36.3857 157.855 36.4562C157.844 36.4661 157.834 36.4757 157.823 36.4853C157.793 36.526 157.762 36.5651 157.73 36.6045C157.684 36.6936 157.652 36.7882 157.612 36.8875C157.61 36.8926 157.608 36.8978 157.605 36.9026C157.587 36.9481 157.568 36.9932 157.547 37.0372C157.544 37.0442 157.536 37.0516 157.528 37.0589C157.477 37.2301 157.433 37.405 157.409 37.5771C157.407 37.5909 157.406 37.605 157.404 37.6188C157.41 37.6575 157.415 37.6966 157.419 37.736C157.425 37.8091 157.429 37.8825 157.432 37.9559C157.438 38.0126 157.445 38.0693 157.45 38.126C157.461 38.1831 157.47 38.2398 157.47 38.2975C157.483 38.3683 157.495 38.4394 157.508 38.5103C157.536 38.6564 157.576 38.7996 157.603 38.9451C157.622 39.0166 157.641 39.0877 157.664 39.1582C157.691 39.2412 157.717 39.3239 157.73 39.4088C157.765 39.512 157.823 39.6136 157.87 39.7065C157.899 39.7632 157.927 39.8199 157.954 39.877C158.039 40.0135 158.131 40.1122 158.25 40.224C158.297 40.2689 158.338 40.3153 158.382 40.358C158.47 40.4099 158.561 40.4544 158.663 40.4916C158.746 40.5217 158.828 40.5512 158.911 40.5784C159.011 40.5826 159.11 40.6057 159.212 40.5945C159.328 40.582 159.441 40.5483 159.558 40.5332C159.71 40.5134 159.872 40.4688 160.014 40.4073C160.101 40.3692 160.176 40.3176 160.264 40.2839C160.267 40.282 160.269 40.2798 160.272 40.2782C160.281 40.2737 160.29 40.2692 160.299 40.2647C160.321 40.2551 160.347 40.2503 160.371 40.2548C160.373 40.2551 160.375 40.2564 160.377 40.257C160.596 40.1939 160.791 40.207 161.006 40.2865C161.171 40.3477 161.362 40.3647 161.521 40.4371C161.635 40.489 161.66 40.5794 161.639 40.6858C161.638 40.7842 161.601 40.8707 161.561 40.9585C161.545 41.0168 161.519 41.0729 161.494 41.1293C161.434 41.3305 161.41 41.5186 161.431 41.7231C161.433 41.7285 161.434 41.7343 161.436 41.7397C161.436 41.741 161.437 41.7423 161.437 41.7439C161.475 41.8064 161.522 41.8654 161.544 41.9349C161.566 42.0035 161.591 42.0711 161.611 42.1397C161.624 42.1647 161.635 42.1903 161.641 42.2172C161.646 42.2406 161.647 42.263 161.645 42.2851C161.647 42.2986 161.649 42.3121 161.651 42.3258C161.664 42.445 161.657 42.5681 161.638 42.6863C161.637 42.6876 161.637 42.6892 161.637 42.6905C161.629 42.8177 161.607 42.9414 161.574 43.0632C161.574 43.0642 161.574 43.0651 161.574 43.0664C161.551 43.2132 161.501 43.3503 161.426 43.4785C161.425 43.4811 161.423 43.4836 161.421 43.4862C161.383 43.5817 161.321 43.6685 161.274 43.7624C161.252 43.8355 161.239 43.9117 161.219 43.9854C161.202 44.0518 161.187 44.1181 161.175 44.1851C161.172 44.2223 161.171 44.2594 161.17 44.2966C161.17 44.3049 161.17 44.3129 161.171 44.3213C161.171 44.3226 161.171 44.3232 161.171 44.3245C161.177 44.3514 161.18 44.378 161.184 44.4049C161.188 44.4312 161.194 44.4571 161.199 44.4831C161.272 44.6936 161.42 44.8875 161.599 45.0138C161.719 45.0984 161.859 45.1557 161.918 45.2692C161.93 45.2842 161.942 45.3002 161.951 45.3166C161.967 45.3445 161.973 45.3714 161.97 45.3973C162.24 44.9433 162.464 44.4632 162.658 43.9704C162.912 43.3215 163.102 42.6488 163.26 41.9705C163.42 41.2812 163.547 40.5852 163.672 39.8888C163.821 39.0614 163.942 38.2321 163.979 37.3916C164.014 36.584 163.993 35.7765 163.967 34.9703Z" fill="white"/>
<path opacity="0.2" d="M163.768 33.5587C163.717 33.1988 163.629 32.8454 163.526 32.4971C163.475 32.3224 163.42 32.1491 163.364 31.9757C163.301 31.7789 163.237 31.5854 163.155 31.3954C163.118 31.3114 163.076 31.23 163.023 31.1557C162.969 31.0807 162.913 31.0076 162.848 30.9426C162.723 30.5917 162.513 30.2831 162.269 30.002C162.034 29.7313 161.766 29.4858 161.494 29.2528C161.188 28.9904 160.863 28.7411 160.505 28.5533C160.14 28.362 159.748 28.2341 159.351 28.1284C158.999 28.0342 158.642 27.9512 158.298 27.8281C158.3 27.8323 158.303 27.8361 158.305 27.8406C158.311 27.8474 158.315 27.8541 158.319 27.8605C158.327 27.8711 158.332 27.8813 158.334 27.8913C158.337 27.9111 158.339 27.9246 158.34 27.9384C158.344 27.9682 158.346 27.9983 158.347 28.0287C158.347 28.0374 158.347 28.046 158.348 28.0547C158.359 28.1386 158.363 28.2229 158.325 28.3011C158.318 28.338 158.31 28.3751 158.302 28.4126C158.3 28.4895 158.3 28.5668 158.302 28.644C158.306 28.6783 158.311 28.7122 158.317 28.7462C158.327 28.767 158.337 28.7882 158.347 28.8087C158.359 28.8314 158.371 28.8523 158.384 28.8728C158.42 28.9212 158.462 28.9644 158.513 28.9984C158.574 29.0401 158.639 29.0619 158.707 29.0769C158.901 29.0875 159.099 29.0945 159.263 29.2128C159.396 29.3089 159.501 29.4387 159.671 29.472C159.737 29.4852 159.785 29.4778 159.82 29.4563C159.883 29.374 159.864 29.2522 159.829 29.1573C159.787 29.0465 159.701 28.9673 159.63 28.8757C159.628 28.8728 159.626 28.8689 159.623 28.8651C159.582 28.8347 159.544 28.7968 159.51 28.7571C159.404 28.6812 159.283 28.5847 159.229 28.4761C159.182 28.3812 159.142 28.2287 159.284 28.2037C159.429 28.1781 159.571 28.3075 159.67 28.3963C159.759 28.4761 159.837 28.5712 159.936 28.6398C160.003 28.6863 160.078 28.7078 160.153 28.7337C160.265 28.7302 160.377 28.7273 160.489 28.7193C160.568 28.7135 160.624 28.7116 160.671 28.7267C160.716 28.7376 160.772 28.7696 160.792 28.801C160.829 28.85 160.86 28.8946 160.874 28.9551C160.874 28.9561 160.874 28.9564 160.874 28.9574C160.921 29.0561 160.955 29.1538 160.965 29.2782C160.973 29.3861 160.965 29.4903 160.938 29.5909C160.9 29.797 160.805 30.012 160.625 30.0886C160.619 30.0915 160.611 30.094 160.605 30.0966C160.523 30.1565 160.424 30.2001 160.313 30.2292C160.001 30.3113 159.704 30.4257 159.459 30.6337C159.426 30.6654 159.394 30.6984 159.363 30.7336C159.321 30.7823 159.265 30.858 159.2 30.9102C159.153 30.9714 159.101 31.0284 159.059 31.0945C158.988 31.2089 158.934 31.3274 158.898 31.4572C158.897 31.4617 158.896 31.4662 158.895 31.471C158.878 31.603 158.86 31.7338 158.872 31.8655C158.896 31.9398 158.928 32.0109 158.969 32.0789C159.075 32.2003 159.188 32.3218 159.33 32.3948C159.509 32.4865 159.741 32.5278 159.944 32.5192C160.094 32.4836 160.237 32.4317 160.38 32.3638C160.557 32.2804 160.66 32.1346 160.82 32.0315C160.886 31.9885 160.949 31.9725 161.005 31.9763C161.006 31.9751 161.008 31.9741 161.01 31.9731C161.016 31.9712 161.022 31.9693 161.028 31.9674C161.043 31.9654 161.058 31.967 161.073 31.9718C161.082 31.9754 161.09 31.9786 161.099 31.9821C161.113 31.9885 161.125 31.9968 161.136 32.0068C161.138 32.0081 161.139 32.0097 161.141 32.0109C161.178 32.0363 161.215 32.0718 161.216 32.1016C161.238 32.1266 161.256 32.1545 161.275 32.1817C161.416 32.3054 161.581 32.3891 161.748 32.4711C161.854 32.5233 161.956 32.5778 162.03 32.673C162.123 32.7925 162.119 32.9527 162.288 32.9931C162.332 33.0037 162.395 33.0149 162.451 33.0095C162.491 32.9925 162.529 32.9668 162.565 32.9364C162.579 32.9149 162.594 32.8941 162.611 32.8739C162.635 32.8345 162.664 32.8044 162.695 32.7778C162.716 32.7531 162.739 32.7307 162.765 32.7105C162.768 32.7079 162.77 32.705 162.772 32.7022C162.816 32.6435 162.852 32.5906 162.874 32.532C162.876 32.506 162.879 32.4801 162.883 32.4544C162.877 32.4096 162.87 32.3673 162.864 32.3324C162.846 32.2115 162.808 32.0923 162.788 31.9715C162.744 31.8309 162.714 31.6886 162.763 31.5742C162.768 31.5508 162.777 31.5293 162.79 31.5104C162.815 31.4537 162.857 31.4146 162.923 31.413C162.959 31.3992 162.999 31.4024 163.038 31.4197C163.079 31.4277 163.114 31.4553 163.142 31.4928C163.16 31.5056 163.173 31.5187 163.179 31.5293C163.195 31.562 163.207 31.5953 163.216 31.6293C163.229 31.6424 163.238 31.6556 163.242 31.6668C163.245 31.6751 163.247 31.6838 163.249 31.6921C163.255 31.7001 163.26 31.7081 163.262 31.7152C163.271 31.7427 163.279 31.7706 163.287 31.7982C163.29 31.8094 163.293 31.8206 163.295 31.8318C163.296 31.8331 163.296 31.8344 163.296 31.8357C163.303 31.8587 163.311 31.8818 163.317 31.9046C163.363 32.0129 163.408 32.1183 163.437 32.2288C163.445 32.2506 163.451 32.2724 163.456 32.2945C163.457 32.2977 163.459 32.3006 163.46 32.3038C163.467 32.334 163.475 32.3628 163.481 32.3923C163.514 32.4615 163.502 32.5227 163.465 32.5772C163.462 32.5897 163.457 32.6015 163.451 32.6131C163.408 32.6941 163.328 32.7275 163.25 32.7643C163.21 32.8073 163.174 32.8537 163.138 32.9018C163.135 32.9479 163.135 32.9944 163.136 33.0412C163.138 33.0514 163.14 33.0617 163.142 33.0723C163.163 33.161 163.185 33.2485 163.222 33.3293C163.254 33.361 163.286 33.3918 163.319 33.4219C163.367 33.4587 163.418 33.4924 163.469 33.5263C163.498 33.536 163.527 33.5456 163.555 33.5565C163.619 33.5818 163.672 33.6113 163.717 33.651C163.738 33.6629 163.757 33.6773 163.766 33.6907C163.769 33.6936 163.77 33.6968 163.773 33.6997C163.778 33.7039 163.782 33.708 163.786 33.7122C163.787 33.6609 163.782 33.6097 163.768 33.5587Z" fill="white"/>
<path d="M2.54951 6.14535L6.23452 19.0643H6.44877L10.1338 6.14535H12.6619L8.26985 21.1425H4.39202L0 6.14535H2.54951Z" fill="#007D85"/>
<path d="M16.4441 21.1425H14.1089V10.5802H16.4441V21.1425ZM13.5304 7.43081C13.5304 6.93091 13.6946 6.52385 14.0232 6.20962C14.3517 5.89539 14.7659 5.73828 15.2658 5.73828C15.7657 5.73828 16.1799 5.89539 16.5084 6.20962C16.8369 6.52385 17.0012 6.93091 17.0012 7.43081C17.0012 7.91644 16.8369 8.31636 16.5084 8.63058C16.1799 8.94481 15.7657 9.10192 15.2658 9.10192C14.7659 9.10192 14.3517 8.94481 14.0232 8.63058C13.6946 8.31636 13.5304 7.91644 13.5304 7.43081Z" fill="#007D85"/>
<path d="M18.9165 13.4725C18.9165 12.4727 19.2878 11.6943 20.0305 11.1372C20.7733 10.5659 21.7731 10.2803 23.03 10.2803C24.2012 10.2803 25.1653 10.5445 25.9223 11.073C26.6793 11.5872 27.1792 12.3013 27.422 13.2154L25.2795 13.8582C25.0367 12.6727 24.2869 12.0799 23.03 12.0799C22.4586 12.0799 22.0087 12.1942 21.6802 12.4227C21.3517 12.637 21.1875 12.9369 21.1875 13.3225C21.1875 13.7082 21.3374 14.0081 21.6374 14.2224C21.9516 14.4223 22.4229 14.5794 23.0514 14.6937L23.7798 14.8223C25.1224 15.0651 26.1294 15.415 26.8007 15.8721C27.4863 16.3148 27.829 17.0361 27.829 18.0359C27.829 19.1072 27.4363 19.9427 26.6507 20.5426C25.8651 21.1425 24.8011 21.4424 23.4585 21.4424C22.073 21.4424 20.9447 21.1353 20.0734 20.5212C19.2021 19.907 18.6737 19.0215 18.488 17.8645L20.6733 17.3289C20.9304 18.8572 21.8588 19.6213 23.4585 19.6213C24.1155 19.6213 24.6297 19.4928 25.001 19.2357C25.3724 18.9643 25.5581 18.6215 25.5581 18.2073C25.5581 17.8217 25.3867 17.5217 25.0439 17.3075C24.7154 17.0933 24.1869 16.9219 23.4585 16.7933L22.73 16.6648C21.5303 16.4505 20.5947 16.1006 19.9234 15.615C19.2521 15.1293 18.9165 14.4152 18.9165 13.4725Z" fill="#007D85"/>
<path d="M32.1777 21.1425H29.8424V10.5802H32.1777V21.1425ZM29.264 7.43081C29.264 6.93091 29.4282 6.52385 29.7567 6.20962C30.0853 5.89539 30.4995 5.73828 30.9994 5.73828C31.4993 5.73828 31.9135 5.89539 32.242 6.20962C32.5705 6.52385 32.7347 6.93091 32.7347 7.43081C32.7347 7.91644 32.5705 8.31636 32.242 8.63058C31.9135 8.94481 31.4993 9.10192 30.9994 9.10192C30.4995 9.10192 30.0853 8.94481 29.7567 8.63058C29.4282 8.31636 29.264 7.91644 29.264 7.43081Z" fill="#007D85"/>
<path d="M34.1787 15.8506C34.1787 14.7366 34.4144 13.7582 34.8857 12.9155C35.3571 12.0728 36.0069 11.4229 36.8354 10.9659C37.6781 10.5088 38.6279 10.2803 39.6848 10.2803C40.7418 10.2803 41.6844 10.5088 42.5128 10.9659C43.3413 11.4229 43.9911 12.0728 44.4625 12.9155C44.9338 13.7582 45.1695 14.7366 45.1695 15.8506C45.1695 16.979 44.9338 17.9645 44.4625 18.8072C43.9911 19.6499 43.3413 20.2998 42.5128 20.7568C41.6844 21.2139 40.7418 21.4424 39.6848 21.4424C38.6279 21.4424 37.6781 21.2139 36.8354 20.7568C36.0069 20.2998 35.3571 19.6499 34.8857 18.8072C34.4144 17.9502 34.1787 16.9647 34.1787 15.8506ZM36.5354 15.8506C36.5354 16.9361 36.8211 17.8003 37.3924 18.443C37.978 19.0714 38.7421 19.3857 39.6848 19.3857C40.6132 19.3857 41.3631 19.0714 41.9344 18.443C42.52 17.8003 42.8128 16.9361 42.8128 15.8506C42.8128 14.7651 42.52 13.9081 41.9344 13.2797C41.3631 12.6512 40.6132 12.337 39.6848 12.337C38.7421 12.337 37.978 12.6584 37.3924 13.3011C36.8211 13.9296 36.5354 14.7794 36.5354 15.8506Z" fill="#007D85"/>
<path d="M49.4586 12.2085H49.6728C50.287 10.9944 51.4296 10.3874 53.1007 10.3874C53.9006 10.3874 54.6147 10.5731 55.2432 10.9444C55.8716 11.3015 56.3572 11.8157 56.7 12.487C57.0571 13.144 57.2356 13.9153 57.2356 14.8008V21.1425H54.879V14.9294C54.879 14.0581 54.6647 13.4082 54.2362 12.9798C53.8077 12.537 53.1936 12.3156 52.3937 12.3156C51.5082 12.3156 50.8012 12.6155 50.2727 13.2154C49.7585 13.801 49.5014 14.6366 49.5014 15.7221V21.1425H47.1661V10.5802H49.4586V12.2085Z" fill="#007D85"/>
<path d="M59.5686 13.3225C59.8542 12.4227 60.3827 11.6871 61.154 11.1158C61.9253 10.5445 62.9465 10.2588 64.2177 10.2588C65.6031 10.2588 66.6886 10.6159 67.4742 11.3301C68.274 12.0299 68.674 13.0226 68.674 14.3081V21.1425H66.4244V19.8142H66.1459C65.5888 20.8997 64.5676 21.4424 63.0822 21.4424C61.9538 21.4424 61.0254 21.1425 60.297 20.5426C59.5686 19.9427 59.2043 19.1214 59.2043 18.0788C59.2043 17.0218 59.5757 16.2077 60.3184 15.6364C61.0611 15.0651 62.0395 14.7794 63.2536 14.7794H66.3815V14.1367C66.3815 13.5511 66.1959 13.0797 65.8245 12.7227C65.4532 12.3513 64.9104 12.1656 64.1962 12.1656C63.4964 12.1656 62.9393 12.337 62.5251 12.6798C62.1252 13.0083 61.8681 13.4654 61.7539 14.051L59.5686 13.3225ZM61.561 18.0145C61.561 18.4716 61.7324 18.8358 62.0752 19.1072C62.418 19.3785 62.9036 19.5142 63.5321 19.5142C64.3748 19.5142 65.0604 19.2714 65.5888 18.7858C66.1173 18.2859 66.3815 17.6217 66.3815 16.7933V16.6005H63.4035C62.8322 16.6005 62.3823 16.729 62.0538 16.9861C61.7253 17.2289 61.561 17.5717 61.561 18.0145Z" fill="#007D85"/>
<path d="M73.6916 12.0371C73.9059 11.5086 74.2273 11.1301 74.6557 10.9016C75.0842 10.6588 75.6484 10.5374 76.3483 10.5374H77.5695V12.5298H75.9412C75.1985 12.5298 74.6058 12.7298 74.163 13.1297C73.7345 13.5296 73.5202 14.1153 73.5202 14.8865V21.1425H71.185V10.5802H73.4774V12.0371H73.6916Z" fill="#007D85"/>
<path d="M87.454 10.5802H90.025L84.0475 25.4274H81.498L83.0834 21.6781L78.6271 10.5802H81.1981L84.2189 18.5287H84.4332L87.454 10.5802Z" fill="#007D85"/>
<path d="M10.6694 28.7176V30.9671H3.70643V35.0806H10.2409V37.3088H3.70643V43.7147H1.22119V28.7176H10.6694Z" fill="#007D85"/>
<path d="M11.8337 38.38C11.8337 37.2945 12.0551 36.3304 12.4978 35.4877C12.9549 34.645 13.5833 33.9951 14.3832 33.5381C15.1973 33.0667 16.1186 32.8311 17.1469 32.8311C18.161 32.8311 19.0537 33.0524 19.825 33.4952C20.5963 33.938 21.1962 34.5664 21.6247 35.3806C22.0531 36.1947 22.2674 37.1374 22.2674 38.2086V39.1727H14.2546C14.2975 39.9868 14.5974 40.6581 15.1545 41.1866C15.7258 41.7151 16.4328 41.9793 17.2755 41.9793C18.0039 41.9793 18.5824 41.8151 19.0109 41.4865C19.4536 41.158 19.8036 40.7224 20.0607 40.1797L22.0103 41.2295C21.5818 42.0007 20.9962 42.6578 20.2535 43.2005C19.5251 43.7433 18.5181 44.0146 17.2326 44.0146C16.1757 44.0146 15.233 43.779 14.4046 43.3076C13.5905 42.822 12.9549 42.1578 12.4978 41.3151C12.0551 40.4582 11.8337 39.4798 11.8337 38.38ZM19.8678 37.3516C19.7964 36.5946 19.5179 35.9947 19.0323 35.552C18.5467 35.0949 17.9111 34.8664 17.1255 34.8664C16.3257 34.8664 15.6758 35.0949 15.1759 35.552C14.676 35.9947 14.376 36.5946 14.2761 37.3516H19.8678Z" fill="#007D85"/>
<path d="M26.5078 43.7147H24.1725V28.7176H26.5078V43.7147Z" fill="#007D85"/>
<path d="M31.5082 43.7147H29.1729V28.7176H31.5082V43.7147Z" fill="#007D85"/>
<path d="M33.5092 38.4228C33.5092 37.3088 33.7449 36.3304 34.2162 35.4877C34.6876 34.645 35.3374 33.9951 36.1658 33.5381C37.0085 33.081 37.9584 32.8525 39.0153 32.8525C40.0722 32.8525 41.0149 33.081 41.8433 33.5381C42.6717 33.9951 43.3216 34.645 43.793 35.4877C44.2643 36.3304 44.5 37.3088 44.5 38.4228C44.5 39.5512 44.2643 40.5367 43.793 41.3794C43.3216 42.2221 42.6717 42.872 41.8433 43.329C41.0149 43.7861 40.0722 44.0146 39.0153 44.0146C37.9584 44.0146 37.0085 43.7861 36.1658 43.329C35.3374 42.872 34.6876 42.2221 34.2162 41.3794C33.7449 40.5224 33.5092 39.5369 33.5092 38.4228ZM35.8659 38.4228C35.8659 39.5084 36.1516 40.3725 36.7229 41.0152C37.3085 41.6437 38.0726 41.9579 39.0153 41.9579C39.9437 41.9579 40.6935 41.6437 41.2649 41.0152C41.8505 40.3725 42.1433 39.5084 42.1433 38.4228C42.1433 37.3373 41.8505 36.4804 41.2649 35.8519C40.6935 35.2235 39.9437 34.9092 39.0153 34.9092C38.0726 34.9092 37.3085 35.2306 36.7229 35.8733C36.1516 36.5018 35.8659 37.3516 35.8659 38.4228Z" fill="#007D85"/>
<path d="M47.8489 33.1524L49.3486 41.7222H49.5628L51.5125 33.1524H54.7904L56.74 41.7222H56.9543L58.454 33.1524H60.8321L58.5825 43.7147H55.2189L53.2693 35.1449H53.055L51.084 43.7147H47.7203L45.4708 33.1524H47.8489Z" fill="#007D85"/>
<path d="M62.2675 36.0447C62.2675 35.0449 62.6389 34.2665 63.3816 33.7095C64.1243 33.1381 65.1241 32.8525 66.381 32.8525C67.5522 32.8525 68.5163 33.1167 69.2733 33.6452C70.0303 34.1594 70.5302 34.8735 70.7731 35.7876L68.6306 36.4304C68.3878 35.2449 67.6379 34.6521 66.381 34.6521C65.8097 34.6521 65.3598 34.7664 65.0313 34.9949C64.7028 35.2092 64.5385 35.5091 64.5385 35.8948C64.5385 36.2804 64.6885 36.5803 64.9885 36.7946C65.3027 36.9945 65.774 37.1517 66.4025 37.2659L67.1309 37.3945C68.4735 37.6373 69.4805 37.9872 70.1518 38.4443C70.8373 38.887 71.1801 39.6083 71.1801 40.6081C71.1801 41.6794 70.7873 42.5149 70.0018 43.1148C69.2162 43.7147 68.1521 44.0146 66.8095 44.0146C65.4241 44.0146 64.2957 43.7075 63.4245 43.0934C62.5532 42.4792 62.0247 41.5937 61.8391 40.4367L64.0244 39.9011C64.2814 41.4294 65.2098 42.1936 66.8095 42.1936C67.4666 42.1936 67.9807 42.065 68.3521 41.8079C68.7235 41.5365 68.9091 41.1937 68.9091 40.7795C68.9091 40.3939 68.7377 40.094 68.3949 39.8797C68.0664 39.6655 67.538 39.4941 66.8095 39.3655L66.0811 39.237C64.8813 39.0227 63.9458 38.6728 63.2745 38.1872C62.6032 37.7016 62.2675 36.9874 62.2675 36.0447Z" fill="#007D85"/>
<path d="M75.5288 34.695H75.743C76.3715 33.5381 77.4998 32.9596 79.1281 32.9596C79.9279 32.9596 80.6421 33.1453 81.2705 33.5166C81.899 33.8737 82.3846 34.3879 82.7274 35.0592C83.0845 35.7162 83.263 36.4875 83.263 37.373V43.7147H80.9063V37.5016C80.9063 36.6303 80.6921 35.9805 80.2636 35.552C79.8351 35.1092 79.2209 34.8878 78.4211 34.8878C77.5356 34.8878 76.8285 35.1877 76.3001 35.7876C75.7859 36.3732 75.5288 37.2088 75.5288 38.2943V43.7147H73.1935V28.7176H75.5288V34.695Z" fill="#007D85"/>
<path d="M88.124 43.7147H85.7888V33.1524H88.124V43.7147ZM85.2103 30.003C85.2103 29.5031 85.3746 29.0961 85.7031 28.7818C86.0316 28.4676 86.4458 28.3105 86.9457 28.3105C87.4456 28.3105 87.8598 28.4676 88.1883 28.7818C88.5168 29.0961 88.6811 29.5031 88.6811 30.003C88.6811 30.4886 88.5168 30.8886 88.1883 31.2028C87.8598 31.517 87.4456 31.6741 86.9457 31.6741C86.4458 31.6741 86.0316 31.517 85.7031 31.2028C85.3746 30.8886 85.2103 30.4886 85.2103 30.003Z" fill="#007D85"/>
<path d="M93.0816 33.1524V34.695H93.2959C94.11 33.4667 95.3312 32.8525 96.9595 32.8525C97.8307 32.8525 98.6306 33.081 99.359 33.5381C100.102 33.9951 100.694 34.645 101.137 35.4877C101.58 36.3304 101.801 37.3088 101.801 38.4228C101.801 39.5369 101.58 40.5224 101.137 41.3794C100.694 42.2221 100.102 42.872 99.359 43.329C98.6306 43.7861 97.8307 44.0146 96.9595 44.0146C95.3312 44.0146 94.1243 43.4147 93.3387 42.215H93.1245V47.9996H90.7892V33.1524H93.0816ZM96.2739 41.9793C97.2165 41.9793 97.9807 41.6651 98.5663 41.0366C99.1519 40.3939 99.4447 39.5226 99.4447 38.4228C99.4447 37.3231 99.1519 36.4589 98.5663 35.8305C97.9807 35.1877 97.2165 34.8664 96.2739 34.8664C95.3455 34.8664 94.5813 35.1877 93.9815 35.8305C93.3958 36.4732 93.1031 37.3373 93.1031 38.4228C93.1031 39.5084 93.3958 40.3725 93.9815 41.0152C94.5813 41.6579 95.3455 41.9793 96.2739 41.9793Z" fill="#007D85"/>
<defs>
<linearGradient id="paint0_linear" x1="169.78" y1="29.3788" x2="274.354" y2="29.3788" gradientUnits="userSpaceOnUse">
<stop stop-color="#006837"/>
<stop offset="1" stop-color="#8DC740"/>
</linearGradient>
<linearGradient id="paint1_linear" x1="169.78" y1="29.3788" x2="274.354" y2="29.3788" gradientUnits="userSpaceOnUse">
<stop stop-color="#006837"/>
<stop offset="1" stop-color="#8DC740"/>
</linearGradient>
<linearGradient id="paint2_linear" x1="169.78" y1="29.3788" x2="274.354" y2="29.3788" gradientUnits="userSpaceOnUse">
<stop stop-color="#006837"/>
<stop offset="1" stop-color="#8DC740"/>
</linearGradient>
<linearGradient id="paint3_linear" x1="169.78" y1="29.3788" x2="274.354" y2="29.3788" gradientUnits="userSpaceOnUse">
<stop stop-color="#006837"/>
<stop offset="1" stop-color="#8DC740"/>
</linearGradient>
<linearGradient id="paint4_linear" x1="169.78" y1="29.3788" x2="274.354" y2="29.3788" gradientUnits="userSpaceOnUse">
<stop stop-color="#006837"/>
<stop offset="1" stop-color="#8DC740"/>
</linearGradient>
<linearGradient id="paint5_linear" x1="169.78" y1="29.3788" x2="274.354" y2="29.3788" gradientUnits="userSpaceOnUse">
<stop stop-color="#006837"/>
<stop offset="1" stop-color="#8DC740"/>
</linearGradient>
<linearGradient id="paint6_linear" x1="169.78" y1="29.3788" x2="274.354" y2="29.3788" gradientUnits="userSpaceOnUse">
<stop stop-color="#006837"/>
<stop offset="1" stop-color="#8DC740"/>
</linearGradient>
<linearGradient id="paint7_linear" x1="169.78" y1="29.3788" x2="274.354" y2="29.3788" gradientUnits="userSpaceOnUse">
<stop stop-color="#006837"/>
<stop offset="1" stop-color="#8DC740"/>
</linearGradient>
<linearGradient id="paint8_linear" x1="219.465" y1="-39.6368" x2="125.436" y2="51.9297" gradientUnits="userSpaceOnUse">
<stop stop-color="#8CC63F"/>
<stop offset="0.9888" stop-color="#006837"/>
</linearGradient>
</defs>
</svg>
