<svg width="359" height="618" viewBox="0 0 359 618" fill="none" xmlns="http://www.w3.org/2000/svg">
<path d="M183.626 617.711C280.069 617.711 358.252 558.096 358.252 484.557C358.252 411.018 280.069 351.402 183.626 351.402C87.1827 351.402 9 411.018 9 484.557C9 558.096 87.1827 617.711 183.626 617.711Z" fill="#C3E4F7"/>
<path d="M183.626 307.271C280.069 307.271 358.252 266.978 358.252 217.274C358.252 167.571 280.069 127.278 183.626 127.278C87.1827 127.278 9 167.571 9 217.274C9 266.978 87.1827 307.271 183.626 307.271Z" fill="#C3E4F7"/>
<path d="M358.123 218.01H9.11835V484.557H358.123V218.01Z" fill="#C3E4F7"/>
<path d="M183.626 611.054C275.482 611.054 349.946 554.419 349.946 484.557C349.946 414.694 275.482 358.06 183.626 358.06C91.7699 358.06 17.3058 414.694 17.3058 484.557C17.3058 554.419 91.7699 611.054 183.626 611.054Z" fill="#EBF7FF"/>
<path d="M183.626 310.689C275.245 310.689 349.516 272.414 349.516 225.2C349.516 177.985 275.245 139.71 183.626 139.71C92.0076 139.71 17.7361 177.985 17.7361 225.2C17.7361 272.414 92.0076 310.689 183.626 310.689Z" fill="#EBF7FF"/>
<path d="M349.699 224.667H17.564V477.888H349.699V224.667Z" fill="#EBF7FF"/>
<path d="M183.626 212.802C275.09 212.802 349.236 174.527 349.236 127.312C349.236 80.0974 275.09 41.8223 183.626 41.8223C92.1621 41.8223 18.0159 80.0974 18.0159 127.312C18.0159 174.527 92.1621 212.802 183.626 212.802Z" fill="url(#paint0_linear)"/>
<path d="M345.546 132.475C347.181 179.551 272.924 216.788 183.54 216.788C94.1559 216.788 20.7809 180.694 21.6846 133.426" stroke="#E2E2E2" stroke-width="7" stroke-miterlimit="10"/>
<path d="M183.626 176.663C275.245 176.663 349.516 137.116 349.516 88.3317C349.516 39.5475 275.245 0 183.626 0C92.0076 0 17.7361 39.5475 17.7361 88.3317C17.7361 137.116 92.0076 176.663 183.626 176.663Z" fill="#E2E2E2"/>
<path d="M183.626 169.554C270.515 169.554 340.952 133.189 340.952 88.3319C340.952 43.4744 270.515 7.11011 183.626 7.11011C96.7374 7.11011 26.3002 43.4744 26.3002 88.3319C26.3002 133.189 96.7374 169.554 183.626 169.554Z" fill="url(#paint1_linear)"/>
<path d="M345.449 137.207L345.858 88.5582" stroke="#E2E2E2" stroke-width="7" stroke-miterlimit="10"/>
<path d="M21.8245 134.773L21.6846 89.8489" stroke="#E2E2E2" stroke-width="7" stroke-miterlimit="10"/>
<path opacity="0.2" d="M150.715 219.312C147.885 218.973 142.915 218.293 140.171 217.886C130.348 216.459 123.624 215.225 113.801 213.618C110.348 212.734 108.153 212.225 106.894 211.84C100.525 209.881 99.8042 209.712 96.5551 208.817L20.5872 511.367C20.5872 511.367 22.4377 516.654 23.8902 520.922C27.8924 530.161 29.1189 533.376 33.53 540.112C38.436 547.596 44.6224 554.865 51.1637 561.08C57.7051 567.296 60.4378 569.243 67.162 574.225C68.8189 575.447 73.8863 578.516 75.5216 579.727C76.576 579.852 77.5658 581.414 78.3727 581.856L165.885 220.229C159.914 219.958 155.815 219.844 150.715 219.312Z" fill="white"/>
<path opacity="0.2" d="M138.375 606.616C141.279 607.329 142.431 607.148 145.099 607.692C145.411 607.68 147.326 608.224 147.649 608.224C149.994 608.224 150.629 608.643 152.845 609.005L244.542 214.852C241.476 215.565 240.024 215.927 236.753 216.278C233.945 216.584 232.568 216.992 228.211 217.705C227.511 217.807 223.283 218.497 222.573 218.599C216.935 218.962 214.396 219.143 209.329 219.618L118.525 601.691C121.741 602.687 125.109 603.57 128.928 604.465C133.286 605.552 134.921 605.903 138.375 606.616Z" fill="white"/>
<path d="M121.456 402.741C121.456 404.501 120.992 406.133 120.064 407.637C119.168 409.109 117.824 410.325 116.032 411.285C114.272 412.213 112.176 412.725 109.744 412.821V416.709H106.672V412.773C103.28 412.485 100.544 411.477 98.4642 409.749C96.3842 407.989 95.2802 405.605 95.1522 402.597H103.888C104.08 404.517 105.008 405.749 106.672 406.293V398.709C104.176 398.069 102.176 397.445 100.672 396.837C99.2002 396.229 97.9042 395.253 96.7842 393.909C95.6642 392.565 95.1042 390.725 95.1042 388.389C95.1042 385.477 96.1762 383.141 98.3202 381.381C100.496 379.621 103.28 378.629 106.672 378.405V374.517H109.744V378.405C113.104 378.661 115.76 379.637 117.712 381.333C119.664 383.029 120.752 385.381 120.976 388.389H112.192C112 386.661 111.184 385.541 109.744 385.029V392.469C112.4 393.205 114.448 393.861 115.888 394.437C117.328 395.013 118.608 395.973 119.728 397.317C120.88 398.629 121.456 400.437 121.456 402.741ZM103.792 388.005C103.792 388.805 104.032 389.477 104.512 390.021C105.024 390.565 105.744 391.045 106.672 391.461V384.789C105.776 384.949 105.072 385.301 104.56 385.845C104.048 386.357 103.792 387.077 103.792 388.005ZM109.744 406.437C110.704 406.277 111.456 405.893 112 405.285C112.576 404.677 112.864 403.925 112.864 403.029C112.864 402.197 112.592 401.525 112.048 401.013C111.536 400.469 110.768 400.005 109.744 399.621V406.437ZM126.938 406.293V399.669L142.106 377.973H151.274V399.189H155.21V406.293H151.274V412.533H143.066V406.293H126.938ZM143.642 386.997L135.578 399.189H143.642V386.997ZM159.23 394.533C159.23 389.029 160.286 384.693 162.398 381.525C164.542 378.357 167.982 376.773 172.718 376.773C177.454 376.773 180.878 378.357 182.99 381.525C185.134 384.693 186.206 389.029 186.206 394.533C186.206 400.101 185.134 404.469 182.99 407.637C180.878 410.805 177.454 412.389 172.718 412.389C167.982 412.389 164.542 410.805 162.398 407.637C160.286 404.469 159.23 400.101 159.23 394.533ZM178.142 394.533C178.142 391.301 177.79 388.821 177.086 387.093C176.382 385.333 174.926 384.453 172.718 384.453C170.51 384.453 169.054 385.333 168.35 387.093C167.646 388.821 167.294 391.301 167.294 394.533C167.294 396.709 167.422 398.517 167.678 399.957C167.934 401.365 168.446 402.517 169.214 403.413C170.014 404.277 171.182 404.709 172.718 404.709C174.254 404.709 175.406 404.277 176.174 403.413C176.974 402.517 177.502 401.365 177.758 399.957C178.014 398.517 178.142 396.709 178.142 394.533ZM190.543 394.533C190.543 389.029 191.599 384.693 193.711 381.525C195.855 378.357 199.295 376.773 204.031 376.773C208.767 376.773 212.191 378.357 214.303 381.525C216.447 384.693 217.519 389.029 217.519 394.533C217.519 400.101 216.447 404.469 214.303 407.637C212.191 410.805 208.767 412.389 204.031 412.389C199.295 412.389 195.855 410.805 193.711 407.637C191.599 404.469 190.543 400.101 190.543 394.533ZM209.455 394.533C209.455 391.301 209.103 388.821 208.399 387.093C207.695 385.333 206.239 384.453 204.031 384.453C201.823 384.453 200.367 385.333 199.663 387.093C198.959 388.821 198.607 391.301 198.607 394.533C198.607 396.709 198.735 398.517 198.991 399.957C199.247 401.365 199.759 402.517 200.527 403.413C201.327 404.277 202.495 404.709 204.031 404.709C205.567 404.709 206.719 404.277 207.487 403.413C208.287 402.517 208.815 401.365 209.071 399.957C209.327 398.517 209.455 396.709 209.455 394.533ZM221.855 394.533C221.855 389.029 222.911 384.693 225.023 381.525C227.167 378.357 230.607 376.773 235.343 376.773C240.079 376.773 243.503 378.357 245.615 381.525C247.759 384.693 248.831 389.029 248.831 394.533C248.831 400.101 247.759 404.469 245.615 407.637C243.503 410.805 240.079 412.389 235.343 412.389C230.607 412.389 227.167 410.805 225.023 407.637C222.911 404.469 221.855 400.101 221.855 394.533ZM240.767 394.533C240.767 391.301 240.415 388.821 239.711 387.093C239.007 385.333 237.551 384.453 235.343 384.453C233.135 384.453 231.679 385.333 230.975 387.093C230.271 388.821 229.919 391.301 229.919 394.533C229.919 396.709 230.047 398.517 230.303 399.957C230.559 401.365 231.071 402.517 231.839 403.413C232.639 404.277 233.807 404.709 235.343 404.709C236.879 404.709 238.031 404.277 238.799 403.413C239.599 402.517 240.127 401.365 240.383 399.957C240.639 398.517 240.767 396.709 240.767 394.533Z" fill="#7B0FF7"/>
<path d="M127.778 290.957C128.866 290.093 129.362 289.693 129.266 289.757C132.402 287.165 134.866 285.037 136.658 283.373C138.482 281.709 140.018 279.965 141.266 278.141C142.514 276.317 143.138 274.541 143.138 272.813C143.138 271.501 142.834 270.477 142.226 269.741C141.618 269.005 140.706 268.637 139.49 268.637C138.274 268.637 137.314 269.101 136.61 270.029C135.938 270.925 135.602 272.205 135.602 273.869H127.682C127.746 271.149 128.322 268.877 129.41 267.053C130.53 265.229 131.986 263.885 133.778 263.021C135.602 262.157 137.618 261.725 139.826 261.725C143.634 261.725 146.498 262.701 148.418 264.653C150.37 266.605 151.346 269.149 151.346 272.285C151.346 275.709 150.178 278.893 147.842 281.837C145.506 284.749 142.53 287.597 138.914 290.381H151.874V297.053H127.778V290.957ZM155.488 279.533C155.488 274.029 156.544 269.693 158.656 266.525C160.8 263.357 164.24 261.773 168.976 261.773C173.712 261.773 177.136 263.357 179.248 266.525C181.392 269.693 182.464 274.029 182.464 279.533C182.464 285.101 181.392 289.469 179.248 292.637C177.136 295.805 173.712 297.389 168.976 297.389C164.24 297.389 160.8 295.805 158.656 292.637C156.544 289.469 155.488 285.101 155.488 279.533ZM174.4 279.533C174.4 276.301 174.048 273.821 173.344 272.093C172.64 270.333 171.184 269.453 168.976 269.453C166.768 269.453 165.312 270.333 164.608 272.093C163.904 273.821 163.552 276.301 163.552 279.533C163.552 281.709 163.68 283.517 163.936 284.957C164.192 286.365 164.704 287.517 165.472 288.413C166.272 289.277 167.44 289.709 168.976 289.709C170.512 289.709 171.664 289.277 172.432 288.413C173.232 287.517 173.76 286.365 174.016 284.957C174.272 283.517 174.4 281.709 174.4 279.533ZM186.801 279.533C186.801 274.029 187.857 269.693 189.969 266.525C192.113 263.357 195.553 261.773 200.289 261.773C205.025 261.773 208.449 263.357 210.561 266.525C212.705 269.693 213.777 274.029 213.777 279.533C213.777 285.101 212.705 289.469 210.561 292.637C208.449 295.805 205.025 297.389 200.289 297.389C195.553 297.389 192.113 295.805 189.969 292.637C187.857 289.469 186.801 285.101 186.801 279.533ZM205.713 279.533C205.713 276.301 205.361 273.821 204.657 272.093C203.953 270.333 202.497 269.453 200.289 269.453C198.081 269.453 196.625 270.333 195.921 272.093C195.217 273.821 194.865 276.301 194.865 279.533C194.865 281.709 194.993 283.517 195.249 284.957C195.505 286.365 196.017 287.517 196.785 288.413C197.585 289.277 198.753 289.709 200.289 289.709C201.825 289.709 202.977 289.277 203.745 288.413C204.545 287.517 205.073 286.365 205.329 284.957C205.585 283.517 205.713 281.709 205.713 279.533ZM243.265 284.429H234.913V292.973H227.137V284.429H218.785V277.085H227.137V268.493H234.913V277.085H243.265V284.429Z" fill="#7B0FF7"/>
<path d="M144.939 315.141C145.931 315.141 146.827 315.357 147.627 315.789C148.427 316.205 149.051 316.837 149.499 317.685C149.963 318.533 150.195 319.565 150.195 320.781V328.533H148.035V321.093C148.035 319.781 147.707 318.781 147.051 318.093C146.395 317.389 145.499 317.037 144.363 317.037C143.211 317.037 142.291 317.397 141.603 318.117C140.931 318.837 140.595 319.885 140.595 321.261V328.533H138.411V310.773H140.595V317.253C141.027 316.581 141.619 316.061 142.371 315.693C143.139 315.325 143.995 315.141 144.939 315.141ZM152.946 321.909C152.946 320.565 153.218 319.389 153.762 318.381C154.306 317.357 155.05 316.565 155.994 316.005C156.954 315.445 158.018 315.165 159.186 315.165C160.338 315.165 161.338 315.413 162.186 315.909C163.034 316.405 163.666 317.029 164.082 317.781V315.381H166.29V328.533H164.082V326.085C163.65 326.853 163.002 327.493 162.138 328.005C161.29 328.501 160.298 328.749 159.162 328.749C157.994 328.749 156.938 328.461 155.994 327.885C155.05 327.309 154.306 326.501 153.762 325.461C153.218 324.421 152.946 323.237 152.946 321.909ZM164.082 321.933C164.082 320.941 163.882 320.077 163.482 319.341C163.082 318.605 162.538 318.045 161.85 317.661C161.178 317.261 160.434 317.061 159.618 317.061C158.802 317.061 158.058 317.253 157.386 317.637C156.714 318.021 156.178 318.581 155.778 319.317C155.378 320.053 155.178 320.917 155.178 321.909C155.178 322.917 155.378 323.797 155.778 324.549C156.178 325.285 156.714 325.853 157.386 326.253C158.058 326.637 158.802 326.829 159.618 326.829C160.434 326.829 161.178 326.637 161.85 326.253C162.538 325.853 163.082 325.285 163.482 324.549C163.882 323.797 164.082 322.925 164.082 321.933ZM169.165 321.933C169.165 320.573 169.437 319.389 169.981 318.381C170.525 317.357 171.277 316.565 172.237 316.005C173.213 315.445 174.325 315.165 175.573 315.165C177.189 315.165 178.517 315.557 179.557 316.341C180.613 317.125 181.309 318.213 181.645 319.605H179.293C179.069 318.805 178.629 318.173 177.973 317.709C177.333 317.245 176.533 317.013 175.573 317.013C174.325 317.013 173.317 317.445 172.549 318.309C171.781 319.157 171.397 320.365 171.397 321.933C171.397 323.517 171.781 324.741 172.549 325.605C173.317 326.469 174.325 326.901 175.573 326.901C176.533 326.901 177.333 326.677 177.973 326.229C178.613 325.781 179.053 325.141 179.293 324.309H181.645C181.293 325.653 180.589 326.733 179.533 327.549C178.477 328.349 177.157 328.749 175.573 328.749C174.325 328.749 173.213 328.469 172.237 327.909C171.277 327.349 170.525 326.557 169.981 325.533C169.437 324.509 169.165 323.309 169.165 321.933ZM191.903 328.533L186.743 322.725V328.533H184.559V310.773H186.743V321.213L191.807 315.381H194.855L188.663 321.933L194.879 328.533H191.903ZM208.911 321.453C208.911 321.869 208.887 322.309 208.839 322.773H198.327C198.407 324.069 198.847 325.085 199.647 325.821C200.463 326.541 201.447 326.901 202.599 326.901C203.543 326.901 204.327 326.685 204.951 326.253C205.591 325.805 206.039 325.213 206.295 324.477H208.647C208.295 325.741 207.591 326.773 206.535 327.573C205.479 328.357 204.167 328.749 202.599 328.749C201.351 328.749 200.231 328.469 199.239 327.909C198.263 327.349 197.495 326.557 196.935 325.533C196.375 324.493 196.095 323.293 196.095 321.933C196.095 320.573 196.367 319.381 196.911 318.357C197.455 317.333 198.215 316.549 199.191 316.005C200.183 315.445 201.319 315.165 202.599 315.165C203.847 315.165 204.951 315.437 205.911 315.981C206.871 316.525 207.607 317.277 208.119 318.237C208.647 319.181 208.911 320.253 208.911 321.453ZM206.655 320.997C206.655 320.165 206.471 319.453 206.103 318.861C205.735 318.253 205.231 317.797 204.591 317.493C203.967 317.173 203.271 317.013 202.503 317.013C201.399 317.013 200.455 317.365 199.671 318.069C198.903 318.773 198.463 319.749 198.351 320.997H206.655ZM213.977 317.517C214.361 316.765 214.905 316.181 215.609 315.765C216.329 315.349 217.201 315.141 218.225 315.141V317.397H217.649C215.201 317.397 213.977 318.725 213.977 321.381V328.533H211.793V315.381H213.977V317.517ZM225.402 328.749C224.394 328.749 223.49 328.581 222.69 328.245C221.89 327.893 221.258 327.413 220.794 326.805C220.33 326.181 220.074 325.469 220.026 324.669H222.282C222.346 325.325 222.65 325.861 223.194 326.277C223.754 326.693 224.482 326.901 225.378 326.901C226.21 326.901 226.866 326.717 227.346 326.349C227.826 325.981 228.066 325.517 228.066 324.957C228.066 324.381 227.81 323.957 227.298 323.685C226.786 323.397 225.994 323.117 224.922 322.845C223.946 322.589 223.146 322.333 222.522 322.077C221.914 321.805 221.386 321.413 220.938 320.901C220.506 320.373 220.29 319.685 220.29 318.837C220.29 318.165 220.49 317.549 220.89 316.989C221.29 316.429 221.858 315.989 222.594 315.669C223.33 315.333 224.17 315.165 225.114 315.165C226.57 315.165 227.746 315.533 228.642 316.269C229.538 317.005 230.018 318.013 230.082 319.293H227.898C227.85 318.605 227.57 318.053 227.058 317.637C226.562 317.221 225.89 317.013 225.042 317.013C224.258 317.013 223.634 317.181 223.17 317.517C222.706 317.853 222.474 318.293 222.474 318.837C222.474 319.269 222.61 319.629 222.882 319.917C223.17 320.189 223.522 320.413 223.938 320.589C224.37 320.749 224.962 320.933 225.714 321.141C226.658 321.397 227.426 321.653 228.018 321.909C228.61 322.149 229.114 322.517 229.53 323.013C229.962 323.509 230.186 324.157 230.202 324.957C230.202 325.677 230.002 326.325 229.602 326.901C229.202 327.477 228.634 327.933 227.898 328.269C227.178 328.589 226.346 328.749 225.402 328.749Z" fill="black"/>
<path d="M137.437 427.245C137.021 427.245 136.669 427.101 136.381 426.813C136.093 426.525 135.949 426.173 135.949 425.757C135.949 425.341 136.093 424.989 136.381 424.701C136.669 424.413 137.021 424.269 137.437 424.269C137.837 424.269 138.173 424.413 138.445 424.701C138.733 424.989 138.877 425.341 138.877 425.757C138.877 426.173 138.733 426.525 138.445 426.813C138.173 427.101 137.837 427.245 137.437 427.245ZM138.493 429.381V442.533H136.309V429.381H138.493ZM148.623 429.141C150.223 429.141 151.519 429.629 152.511 430.605C153.503 431.565 153.999 432.957 153.999 434.781V442.533H151.839V435.093C151.839 433.781 151.511 432.781 150.855 432.093C150.199 431.389 149.303 431.037 148.167 431.037C147.015 431.037 146.095 431.397 145.407 432.117C144.735 432.837 144.399 433.885 144.399 435.261V442.533H142.215V429.381H144.399V431.253C144.831 430.581 145.415 430.061 146.151 429.693C146.903 429.325 147.727 429.141 148.623 429.141ZM166.149 431.805C166.581 431.053 167.221 430.429 168.069 429.933C168.933 429.421 169.933 429.165 171.069 429.165C172.237 429.165 173.293 429.445 174.237 430.005C175.197 430.565 175.949 431.357 176.493 432.381C177.037 433.389 177.309 434.565 177.309 435.909C177.309 437.237 177.037 438.421 176.493 439.461C175.949 440.501 175.197 441.309 174.237 441.885C173.293 442.461 172.237 442.749 171.069 442.749C169.949 442.749 168.957 442.501 168.093 442.005C167.245 441.493 166.597 440.861 166.149 440.109V448.773H163.965V429.381H166.149V431.805ZM175.077 435.909C175.077 434.917 174.877 434.053 174.477 433.317C174.077 432.581 173.533 432.021 172.845 431.637C172.173 431.253 171.429 431.061 170.613 431.061C169.813 431.061 169.069 431.261 168.381 431.661C167.709 432.045 167.165 432.613 166.749 433.365C166.349 434.101 166.149 434.957 166.149 435.933C166.149 436.925 166.349 437.797 166.749 438.549C167.165 439.285 167.709 439.853 168.381 440.253C169.069 440.637 169.813 440.829 170.613 440.829C171.429 440.829 172.173 440.637 172.845 440.253C173.533 439.853 174.077 439.285 174.477 438.549C174.877 437.797 175.077 436.917 175.077 435.909ZM182.368 431.517C182.752 430.765 183.296 430.181 184 429.765C184.72 429.349 185.592 429.141 186.616 429.141V431.397H186.04C183.592 431.397 182.368 432.725 182.368 435.381V442.533H180.184V429.381H182.368V431.517ZM190.265 427.245C189.849 427.245 189.497 427.101 189.209 426.813C188.921 426.525 188.777 426.173 188.777 425.757C188.777 425.341 188.921 424.989 189.209 424.701C189.497 424.413 189.849 424.269 190.265 424.269C190.665 424.269 191.001 424.413 191.273 424.701C191.561 424.989 191.705 425.341 191.705 425.757C191.705 426.173 191.561 426.525 191.273 426.813C191.001 427.101 190.665 427.245 190.265 427.245ZM191.321 429.381V442.533H189.137V429.381H191.321ZM196.675 440.733H203.131V442.533H194.179V440.733L200.563 431.157H194.227V429.381H203.083V431.157L196.675 440.733ZM217.965 435.453C217.965 435.869 217.941 436.309 217.893 436.773H207.381C207.461 438.069 207.901 439.085 208.701 439.821C209.517 440.541 210.501 440.901 211.653 440.901C212.597 440.901 213.381 440.685 214.005 440.253C214.645 439.805 215.093 439.213 215.349 438.477H217.701C217.349 439.741 216.645 440.773 215.589 441.573C214.533 442.357 213.221 442.749 211.653 442.749C210.405 442.749 209.285 442.469 208.293 441.909C207.317 441.349 206.549 440.557 205.989 439.533C205.429 438.493 205.149 437.293 205.149 435.933C205.149 434.573 205.421 433.381 205.965 432.357C206.509 431.333 207.269 430.549 208.245 430.005C209.237 429.445 210.373 429.165 211.653 429.165C212.901 429.165 214.005 429.437 214.965 429.981C215.925 430.525 216.661 431.277 217.173 432.237C217.701 433.181 217.965 434.253 217.965 435.453ZM215.709 434.997C215.709 434.165 215.525 433.453 215.157 432.861C214.789 432.253 214.285 431.797 213.645 431.493C213.021 431.173 212.325 431.013 211.557 431.013C210.453 431.013 209.509 431.365 208.725 432.069C207.957 432.773 207.517 433.749 207.405 434.997H215.709ZM225.504 442.749C224.496 442.749 223.592 442.581 222.792 442.245C221.992 441.893 221.36 441.413 220.896 440.805C220.432 440.181 220.176 439.469 220.128 438.669H222.384C222.448 439.325 222.752 439.861 223.296 440.277C223.856 440.693 224.584 440.901 225.48 440.901C226.312 440.901 226.968 440.717 227.448 440.349C227.928 439.981 228.168 439.517 228.168 438.957C228.168 438.381 227.912 437.957 227.4 437.685C226.888 437.397 226.096 437.117 225.024 436.845C224.048 436.589 223.248 436.333 222.624 436.077C222.016 435.805 221.488 435.413 221.04 434.901C220.608 434.373 220.392 433.685 220.392 432.837C220.392 432.165 220.592 431.549 220.992 430.989C221.392 430.429 221.96 429.989 222.696 429.669C223.432 429.333 224.272 429.165 225.216 429.165C226.672 429.165 227.848 429.533 228.744 430.269C229.64 431.005 230.12 432.013 230.184 433.293H228C227.952 432.605 227.672 432.053 227.16 431.637C226.664 431.221 225.992 431.013 225.144 431.013C224.36 431.013 223.736 431.181 223.272 431.517C222.808 431.853 222.576 432.293 222.576 432.837C222.576 433.269 222.712 433.629 222.984 433.917C223.272 434.189 223.624 434.413 224.04 434.589C224.472 434.749 225.064 434.933 225.816 435.141C226.76 435.397 227.528 435.653 228.12 435.909C228.712 436.149 229.216 436.517 229.632 437.013C230.064 437.509 230.288 438.157 230.304 438.957C230.304 439.677 230.104 440.325 229.704 440.901C229.304 441.477 228.736 441.933 228 442.269C227.28 442.589 226.448 442.749 225.504 442.749Z" fill="black"/>
<defs>
<linearGradient id="paint0_linear" x1="18.0173" y1="127.307" x2="349.235" y2="127.307" gradientUnits="userSpaceOnUse">
<stop stop-color="#EFEFEF"/>
<stop offset="1" stop-color="#CFCFCF"/>
</linearGradient>
<linearGradient id="paint1_linear" x1="51.0301" y1="23.2642" x2="320.896" y2="142.848" gradientUnits="userSpaceOnUse">
<stop stop-color="#F4F4F4"/>
<stop offset="1" stop-color="#D4D5D7"/>
</linearGradient>
</defs>
</svg>
