<svg width="48" height="75" viewBox="0 0 48 75" fill="none" xmlns="http://www.w3.org/2000/svg">
<path d="M24.0246 74.0351C36.1885 74.0351 46.0492 66.8899 46.0492 58.076C46.0492 49.2621 36.1885 42.1169 24.0246 42.1169C11.8608 42.1169 2 49.2621 2 58.076C2 66.8899 11.8608 74.0351 24.0246 74.0351Z" fill="#C3E4F7"/>
<path d="M24.0246 36.8276C36.1885 36.8276 46.0492 31.9983 46.0492 26.0412C46.0492 20.084 36.1885 15.2548 24.0246 15.2548C11.8608 15.2548 2 20.084 2 26.0412C2 31.9983 11.8608 36.8276 24.0246 36.8276Z" fill="#C3E4F7"/>
<path d="M46.0331 26.1294H2.01514V58.076H46.0331V26.1294Z" fill="#C3E4F7"/>
<path d="M24.0244 73.2371C35.6097 73.2371 45.0015 66.4492 45.0015 58.076C45.0015 49.7027 35.6097 42.9148 24.0244 42.9148C12.4391 42.9148 3.04736 49.7027 3.04736 58.076C3.04736 66.4492 12.4391 73.2371 24.0244 73.2371Z" fill="#EBF7FF"/>
<path d="M24.0248 37.2374C35.5801 37.2374 44.9476 32.6499 44.9476 26.9911C44.9476 21.3322 35.5801 16.7448 24.0248 16.7448C12.4695 16.7448 3.10205 21.3322 3.10205 26.9911C3.10205 32.6499 12.4695 37.2374 24.0248 37.2374Z" fill="#EBF7FF"/>
<path d="M44.9704 26.9272H3.08008V57.2767H44.9704V26.9272Z" fill="#EBF7FF"/>
<path d="M5.42224 52.4609C5.42224 58.156 5.54844 41.7234 5.49144 43.8701C5.36525 48.5299 5.38424 52.8965 5.56065 53.7758C8.1687 61.0056 14.9616 63.9271 22.9445 62.539C24.8646 62.0613 26.06 61.4453 27.1673 60.6678C24.9107 61.8972 20.8344 61.0531 19.0826 59.9784C17.5696 59.0489 16.0417 57.5101 15.9766 54.2195C15.9291 51.7689 16.3877 49.1093 15.195 46.816C13.9588 44.4387 9.07786 41.8564 5.4236 41.3" fill="#AB11F7"/>
<path d="M42.6028 27.5515C42.5567 40.6813 42.649 48.9722 42.5105 54.7053C42.4902 55.5765 42.5933 56.643 41.9121 59.0611C40.2377 65.0127 34.3933 68.1662 32.0485 69.1134C25.0331 71.9521 18.8875 70.2315 16.411 69.3373C15.0595 68.8488 8.90032 66.1213 6.43611 59.9336C5.18093 56.7801 5.40211 53.5058 5.40483 51.8096C5.40618 50.5883 6.64101 56.1288 11.9616 59.4316C12.9725 60.0598 16.7313 62.3192 22.8307 61.7207C29.6345 61.0531 30.8177 57.2401 31.0471 56.4001C31.6048 54.362 31.6468 50.8122 31.5939 40.7613C31.5546 33.4216 31.7377 34.0173 32.9699 32.3211C33.704 31.3116 36.5481 29.2897 40.2173 28.1892" fill="#7B0FF7"/>
<path d="M24.0247 25.5052C35.5605 25.5052 44.9122 20.9178 44.9122 15.2589C44.9122 9.6 35.5605 5.01257 24.0247 5.01257C12.4889 5.01257 3.13721 9.6 3.13721 15.2589C3.13721 20.9178 12.4889 25.5052 24.0247 25.5052Z" fill="url(#paint0_linear)"/>
<path d="M44.4465 15.8776C44.6528 21.5198 35.2871 25.9828 24.0136 25.9828C12.7401 25.9828 3.48569 21.6569 3.59967 15.9916" stroke="#E2E2E2" stroke-width="7" stroke-miterlimit="10"/>
<path d="M24.0248 21.1738C35.5801 21.1738 44.9476 16.4339 44.9476 10.5869C44.9476 4.73992 35.5801 0 24.0248 0C12.4695 0 3.10205 4.73992 3.10205 10.5869C3.10205 16.4339 12.4695 21.1738 24.0248 21.1738Z" fill="#E2E2E2"/>
<path d="M24.0248 20.3216C34.9836 20.3216 43.8674 15.9633 43.8674 10.5869C43.8674 5.21056 34.9836 0.852173 24.0248 0.852173C13.066 0.852173 4.18213 5.21056 4.18213 10.5869C4.18213 15.9633 13.066 20.3216 24.0248 20.3216Z" fill="url(#paint1_linear)"/>
<path d="M44.4346 16.4448L44.4861 10.614" stroke="#E2E2E2" stroke-width="7" stroke-miterlimit="10"/>
<path d="M3.61725 16.1531L3.59961 10.7687" stroke="#E2E2E2" stroke-width="7" stroke-miterlimit="10"/>
<path opacity="0.2" d="M19.8737 26.2854C19.5168 26.2447 18.8899 26.1633 18.5439 26.1144C17.305 25.9435 16.4569 25.7956 15.218 25.6029C14.7824 25.497 14.5056 25.436 14.3469 25.3898C13.5435 25.1551 13.4526 25.1347 13.0428 25.0275L3.46143 61.2892C3.46143 61.2892 3.69482 61.9229 3.87801 62.4345C4.38279 63.5418 4.53748 63.9271 5.09383 64.7345C5.7126 65.6315 6.49285 66.5026 7.31787 67.2476C8.14289 67.9925 8.48756 68.2259 9.33565 68.823C9.54462 68.9695 10.1837 69.3373 10.39 69.4825C10.523 69.4974 10.6478 69.6847 10.7496 69.7376L21.787 26.3953C21.0339 26.3628 20.5169 26.3492 19.8737 26.2854Z" fill="white"/>
<path opacity="0.2" d="M18.317 72.7052C18.6834 72.7907 18.8286 72.769 19.1651 72.8341C19.2045 72.8328 19.446 72.8979 19.4867 72.8979C19.7825 72.8979 19.8626 72.9481 20.1421 72.9916L31.7074 25.7508C31.3207 25.8363 31.1375 25.8797 30.725 25.9218C30.3708 25.9584 30.1971 26.0073 29.6476 26.0927C29.5594 26.105 29.0261 26.1877 28.9365 26.1999C28.2255 26.2434 27.9052 26.2651 27.2661 26.3221L15.8135 72.115C16.2192 72.2344 16.6439 72.3402 17.1256 72.4474C17.6752 72.5777 17.8815 72.6198 18.317 72.7052Z" fill="white"/>
<defs>
<linearGradient id="paint0_linear" x1="3.13738" y1="15.2583" x2="44.912" y2="15.2583" gradientUnits="userSpaceOnUse">
<stop stop-color="#EFEFEF"/>
<stop offset="1" stop-color="#CFCFCF"/>
</linearGradient>
<linearGradient id="paint1_linear" x1="7.30118" y1="2.78831" x2="40.7484" y2="18.385" gradientUnits="userSpaceOnUse">
<stop stop-color="#F4F4F4"/>
<stop offset="1" stop-color="#D4D5D7"/>
</linearGradient>
</defs>
</svg>
