<svg width="116" height="40" viewBox="0 0 116 40" fill="none" xmlns="http://www.w3.org/2000/svg">
<path d="M32.1511 35.2005C33.5693 35.2005 34.3897 34.321 34.3897 32.8664C34.3897 31.4187 33.5693 30.546 32.1988 30.546H30.6443V35.2005H32.1511ZM31.3466 34.5869V31.1596H32.1556C33.1738 31.1596 33.6988 31.7687 33.6988 32.8664C33.6988 33.9687 33.1738 34.5869 32.1125 34.5869H31.3466Z" fill="#187939"/>
<path d="M37.097 35.2709C37.8584 35.2709 38.397 34.896 38.5515 34.3278L37.9084 34.2119C37.7856 34.5414 37.4902 34.7096 37.1038 34.7096C36.522 34.7096 36.1311 34.3323 36.1129 33.6596H38.5947V33.4187C38.5947 32.1573 37.8402 31.6642 37.0493 31.6642C36.0765 31.6642 35.4356 32.4051 35.4356 33.4778C35.4356 34.5619 36.0675 35.2709 37.097 35.2709ZM36.1152 33.1505C36.1425 32.6551 36.5015 32.2255 37.0538 32.2255C37.5811 32.2255 37.9265 32.6164 37.9288 33.1505H36.1152Z" fill="#187939"/>
<path d="M42.7003 31.7096H41.9707L41.0889 34.396H41.0526L40.1685 31.7096H39.4389L40.7071 35.2005H41.4344L42.7003 31.7096Z" fill="#187939"/>
<path d="M45.1024 35.2709C45.8638 35.2709 46.4024 34.896 46.557 34.3278L45.9138 34.2119C45.7911 34.5414 45.4956 34.7096 45.1093 34.7096C44.5274 34.7096 44.1365 34.3323 44.1184 33.6596H46.6002V33.4187C46.6002 32.1573 45.8456 31.6642 45.0547 31.6642C44.082 31.6642 43.4411 32.4051 43.4411 33.4778C43.4411 34.5619 44.0729 35.2709 45.1024 35.2709ZM44.1206 33.1505C44.1479 32.6551 44.507 32.2255 45.0593 32.2255C45.5865 32.2255 45.932 32.6164 45.9343 33.1505H44.1206Z" fill="#187939"/>
<path d="M48.4177 30.546H47.7381V35.2005H48.4177V30.546Z" fill="#187939"/>
<path d="M51.1863 35.2709C52.1704 35.2709 52.8136 34.5505 52.8136 33.471C52.8136 32.3846 52.1704 31.6642 51.1863 31.6642C50.2022 31.6642 49.559 32.3846 49.559 33.471C49.559 34.5505 50.2022 35.2709 51.1863 35.2709ZM51.1886 34.7005C50.5454 34.7005 50.2454 34.1391 50.2454 33.4687C50.2454 32.8005 50.5454 32.2323 51.1886 32.2323C51.8272 32.2323 52.1272 32.8005 52.1272 33.4687C52.1272 34.1391 51.8272 34.7005 51.1886 34.7005Z" fill="#187939"/>
<path d="M53.9561 36.5096H54.6356V34.6573H54.6765C54.7993 34.88 55.0493 35.2687 55.6856 35.2687C56.5311 35.2687 57.1447 34.5914 57.1447 33.4619C57.1447 32.3301 56.522 31.6642 55.6788 31.6642C55.0311 31.6642 54.797 32.0596 54.6765 32.2755H54.6197V31.7096H53.9561V36.5096ZM54.622 33.4551C54.622 32.7255 54.9402 32.2414 55.5334 32.2414C56.1493 32.2414 56.4583 32.7619 56.4583 33.4551C56.4583 34.155 56.1402 34.6891 55.5334 34.6891C54.9493 34.6891 54.622 34.1891 54.622 33.4551Z" fill="#187939"/>
<path d="M58.2901 35.2005H58.9696V33.0482C58.9696 32.5778 59.2991 32.2505 59.6855 32.2505C60.0628 32.2505 60.3241 32.5005 60.3241 32.8801V35.2005H61.0014V32.9755C61.0014 32.5551 61.2582 32.2505 61.7014 32.2505C62.0605 32.2505 62.3559 32.4505 62.3559 32.9232V35.2005H63.0355V32.8596C63.0355 32.0619 62.59 31.6642 61.9582 31.6642C61.456 31.6642 61.0787 31.9051 60.9105 32.2778H60.8741C60.7219 31.896 60.4014 31.6642 59.9355 31.6642C59.4741 31.6642 59.131 31.8937 58.9855 32.2778H58.9423V31.7096H58.2901V35.2005Z" fill="#187939"/>
<path d="M65.8348 35.2709C66.5962 35.2709 67.1348 34.896 67.2893 34.3278L66.6462 34.2119C66.5234 34.5414 66.228 34.7096 65.8416 34.7096C65.2598 34.7096 64.8689 34.3323 64.8507 33.6596H67.3325V33.4187C67.3325 32.1573 66.578 31.6642 65.7871 31.6642C64.8144 31.6642 64.1735 32.4051 64.1735 33.4778C64.1735 34.5619 64.8053 35.2709 65.8348 35.2709ZM64.853 33.1505C64.8803 32.6551 65.2394 32.2255 65.7916 32.2255C66.3189 32.2255 66.6643 32.6164 66.6666 33.1505H64.853Z" fill="#187939"/>
<path d="M69.15 33.1278C69.15 32.571 69.4909 32.2528 69.9637 32.2528C70.425 32.2528 70.7046 32.5551 70.7046 33.0619V35.2005H71.3841V32.9801C71.3841 32.1164 70.9091 31.6642 70.1955 31.6642C69.6705 31.6642 69.3273 31.9073 69.1659 32.2778H69.1228V31.7096H68.4705V35.2005H69.15V33.1278Z" fill="#187939"/>
<path d="M74.309 31.7096H73.5931V30.8733H72.9136V31.7096H72.4022V32.2551H72.9136V34.3164C72.9113 34.9505 73.3954 35.2573 73.9317 35.2459C74.1476 35.2437 74.2931 35.2028 74.3726 35.1732L74.2499 34.6119C74.2045 34.621 74.1204 34.6414 74.0113 34.6414C73.7908 34.6414 73.5931 34.5687 73.5931 34.1755V32.2551H74.309V31.7096Z" fill="#187939"/>
<path d="M80.1156 31.7687H80.7929C80.7724 31.0233 80.1133 30.4823 79.1679 30.4823C78.2338 30.4823 77.5179 31.0164 77.5179 31.8187C77.5179 32.4664 77.9815 32.846 78.7292 33.0482L79.2792 33.1982C79.777 33.3301 80.1611 33.4937 80.1611 33.9073C80.1611 34.3619 79.727 34.6619 79.1292 34.6619C78.5883 34.6619 78.1383 34.421 78.0974 33.9141H77.3929C77.4383 34.7573 78.0906 35.2778 79.1338 35.2778C80.227 35.2778 80.8565 34.7028 80.8565 33.9141C80.8565 33.0755 80.1088 32.7505 79.5179 32.6051L79.0633 32.4869C78.6997 32.3937 78.2156 32.2232 78.2179 31.7778C78.2179 31.3823 78.5792 31.0892 79.152 31.0892C79.6861 31.0892 80.0656 31.3392 80.1156 31.7687Z" fill="#187939"/>
<path d="M83.6547 31.7096H82.9388V30.8733H82.2592V31.7096H81.7479V32.2551H82.2592V34.3164C82.257 34.9505 82.7411 35.2573 83.2774 35.2459C83.4933 35.2437 83.6388 35.2028 83.7183 35.1732L83.5956 34.6119C83.5501 34.621 83.4661 34.6414 83.357 34.6414C83.1365 34.6414 82.9388 34.5687 82.9388 34.1755V32.2551H83.6547V31.7096Z" fill="#187939"/>
<path d="M87.0017 33.7528C87.004 34.346 86.5631 34.6278 86.1813 34.6278C85.7608 34.6278 85.4699 34.3232 85.4699 33.8482V31.7096H84.7904V33.93C84.7904 34.796 85.2654 35.2459 85.9358 35.2459C86.4608 35.2459 86.8176 34.9687 86.979 34.596H87.0154V35.2005H87.6836V31.7096H87.0017V33.7528Z" fill="#187939"/>
<path d="M90.2874 35.2687C90.9238 35.2687 91.1738 34.88 91.2965 34.6573H91.3533V35.2005H92.017V30.546H91.3374V32.2755H91.2965C91.1738 32.0596 90.942 31.6642 90.292 31.6642C89.4488 31.6642 88.8283 32.3301 88.8283 33.4619C88.8283 34.5914 89.4397 35.2687 90.2874 35.2687ZM90.4374 34.6891C89.8306 34.6891 89.5147 34.155 89.5147 33.4551C89.5147 32.7619 89.8238 32.2414 90.4374 32.2414C91.0306 32.2414 91.3488 32.7255 91.3488 33.4551C91.3488 34.1891 91.0238 34.6891 90.4374 34.6891Z" fill="#187939"/>
<path d="M93.3708 35.2005H94.0504V31.7096H93.3708V35.2005ZM93.714 31.171C93.9481 31.171 94.1436 30.9892 94.1436 30.7664C94.1436 30.5437 93.9481 30.3596 93.714 30.3596C93.4777 30.3596 93.2845 30.5437 93.2845 30.7664C93.2845 30.9892 93.4777 31.171 93.714 31.171Z" fill="#187939"/>
<path d="M96.819 35.2709C97.8031 35.2709 98.4463 34.5505 98.4463 33.471C98.4463 32.3846 97.8031 31.6642 96.819 31.6642C95.8349 31.6642 95.1917 32.3846 95.1917 33.471C95.1917 34.5505 95.8349 35.2709 96.819 35.2709ZM96.8213 34.7005C96.1781 34.7005 95.8781 34.1391 95.8781 33.4687C95.8781 32.8005 96.1781 32.2323 96.8213 32.2323C97.4599 32.2323 97.7599 32.8005 97.7599 33.4687C97.7599 34.1391 97.4599 34.7005 96.8213 34.7005Z" fill="#187939"/>
<path d="M102.205 32.5619C102.064 32.0187 101.639 31.6642 100.884 31.6642C100.096 31.6642 99.5365 32.0801 99.5365 32.6982C99.5365 33.1937 99.8365 33.5232 100.491 33.6687L101.082 33.7982C101.418 33.8732 101.575 34.0232 101.575 34.2414C101.575 34.5119 101.287 34.7232 100.841 34.7232C100.434 34.7232 100.173 34.5482 100.091 34.205L99.4343 34.305C99.5479 34.9232 100.062 35.2709 100.846 35.2709C101.689 35.2709 102.273 34.8232 102.273 34.1914C102.273 33.6982 101.959 33.3937 101.318 33.246L100.764 33.1187C100.38 33.0278 100.214 32.8982 100.216 32.6619C100.214 32.3937 100.505 32.2028 100.891 32.2028C101.314 32.2028 101.509 32.4369 101.589 32.671L102.205 32.5619Z" fill="#187939"/>
<path d="M27.8255 24.6095C27.8255 25.0095 28.1498 25.3338 28.5498 25.3338H30.0058C30.4058 25.3338 30.73 25.0095 30.73 24.6095V17.0339C30.73 15.8339 29.7516 14.8611 28.5517 14.8611C28.1517 14.8611 27.8255 15.1854 27.8255 15.5854V24.6095ZM29.2846 13.5111C30.1505 13.5111 30.8596 12.8498 30.8596 12.0384C30.8596 11.2339 30.1505 10.5725 29.2846 10.5725C28.4255 10.5725 27.7164 11.2339 27.7164 12.0384C27.7164 12.8498 28.4255 13.5111 29.2846 13.5111Z" fill="url(#paint0_linear)"/>
<path d="M42.9134 17.8953C43.3331 17.8694 43.6508 17.4876 43.5094 17.0915C42.9811 15.6112 41.5114 14.7248 39.2312 14.7248C36.5517 14.7248 34.7858 15.9657 34.7926 17.9838C34.7858 19.552 35.7744 20.5679 37.8199 20.977L39.6335 21.3383C40.5471 21.5224 40.963 21.8565 40.9767 22.3815C40.963 23.002 40.2881 23.4452 39.2722 23.4452C38.5003 23.4452 37.9213 23.1993 37.6028 22.7217C37.4045 22.4243 37.1064 22.1635 36.7494 22.1823L35.2988 22.2584C34.8758 22.2807 34.5544 22.6648 34.699 23.063C35.2619 24.6128 36.8622 25.5383 39.2653 25.5383C41.979 25.5383 43.9221 24.1542 43.9289 22.0883C43.9221 20.5747 42.9335 19.6679 40.9017 19.252L39.0062 18.8702C38.0312 18.6588 37.6699 18.3247 37.6767 17.8202C37.6699 17.1929 38.379 16.7838 39.279 16.7838C39.9835 16.7838 40.4887 17.0531 40.7781 17.4453C40.9912 17.7341 41.2964 17.9948 41.6546 17.9727L42.9134 17.8953Z" fill="url(#paint1_linear)"/>
<path d="M47.6779 24.6095C47.6779 25.0095 48.0021 25.3338 48.4021 25.3338H49.8582C50.2582 25.3338 50.5824 25.0095 50.5824 24.6095V17.0339C50.5824 15.8339 49.604 14.8611 48.404 14.8611C48.004 14.8611 47.6779 15.1854 47.6779 15.5854V24.6095ZM49.137 13.5111C50.0029 13.5111 50.712 12.8498 50.712 12.0384C50.712 11.2339 50.0029 10.5725 49.137 10.5725C48.2779 10.5725 47.5688 11.2339 47.5688 12.0384C47.5688 12.8498 48.2779 13.5111 49.137 13.5111Z" fill="url(#paint2_linear)"/>
<path d="M59.5609 25.5383C62.7381 25.5383 64.7154 23.3633 64.7154 20.1384C64.7154 16.8929 62.7381 14.7248 59.5609 14.7248C56.3836 14.7248 54.4064 16.8929 54.4064 20.1384C54.4064 23.3633 56.3836 25.5383 59.5609 25.5383ZM59.5745 23.2883C58.1086 23.2883 57.3586 21.9452 57.3586 20.1179C57.3586 18.2906 58.1086 16.9406 59.5745 16.9406C61.0131 16.9406 61.7631 18.2906 61.7631 20.1179C61.7631 21.9452 61.0131 23.2883 59.5745 23.2883Z" fill="url(#paint3_linear)"/>
<path d="M71.4285 19.2793C71.4354 17.9293 72.2399 17.1384 73.4126 17.1384C74.5785 17.1384 75.2808 17.902 75.274 19.1838V24.6095C75.274 25.0095 75.5982 25.3338 75.9982 25.3338H77.4542C77.8542 25.3338 78.1785 25.0095 78.1785 24.6095V18.6656C78.1785 16.2247 76.7467 14.7248 74.5649 14.7248C73.0103 14.7248 71.8853 15.4884 71.4149 16.7088H71.2922V15.5854C71.2922 15.1854 70.9679 14.8611 70.5679 14.8611H69.2483C68.8483 14.8611 68.524 15.1854 68.524 15.5854V24.6095C68.524 25.0095 68.8483 25.3338 69.2483 25.3338H70.7043C71.1043 25.3338 71.4285 25.0095 71.4285 24.6095V19.2793Z" fill="url(#paint4_linear)"/>
<path d="M85.374 25.5315C86.9217 25.5315 87.924 24.8565 88.4354 23.8815H88.5172V24.6095C88.5172 25.0095 88.8414 25.3338 89.2414 25.3338H90.5475C90.9474 25.3338 91.2717 25.0095 91.2717 24.6095V18.2702C91.2717 15.7747 89.1581 14.7248 86.8263 14.7248C84.6797 14.7248 83.1619 15.603 82.5163 17.0522C82.3387 17.4508 82.6497 17.8651 83.0845 17.9004L84.3586 18.0039C84.7031 18.0319 85.0044 17.7973 85.2138 17.5223C85.5261 17.112 86.0591 16.8452 86.8126 16.8452C87.8013 16.8452 88.3672 17.3429 88.3672 18.202V18.2429C88.3672 18.9179 87.6513 19.0065 85.8308 19.1838C83.7581 19.3747 81.8968 20.0702 81.8968 22.4088C81.8968 24.4815 83.3763 25.5315 85.374 25.5315ZM86.2058 23.527C85.3126 23.527 84.6717 23.1111 84.6717 22.3133C84.6717 21.4952 85.3467 21.0929 86.3695 20.9497C87.0035 20.8611 88.0399 20.7111 88.3876 20.4793V21.5906C88.3876 22.6883 87.4808 23.527 86.2058 23.527Z" fill="url(#paint5_linear)"/>
<path d="M95.4451 24.6095C95.4451 25.0095 95.7693 25.3338 96.1693 25.3338H97.6254C98.0253 25.3338 98.3496 25.0095 98.3496 24.6095V19.4088C98.3496 18.1202 99.2905 17.2338 100.572 17.2338C100.649 17.2338 100.731 17.2363 100.816 17.241C101.307 17.2678 101.8 16.8858 101.8 16.3937V15.3861C101.8 15.0505 101.568 14.7561 101.234 14.7272C101.114 14.7168 100.995 14.7111 100.886 14.7111C99.7132 14.7111 98.7519 15.3929 98.3701 16.6884H98.261V15.5854C98.261 15.1854 97.9367 14.8611 97.5367 14.8611H96.1693C95.7693 14.8611 95.4451 15.1854 95.4451 15.5854V24.6095Z" fill="url(#paint6_linear)"/>
<path d="M107.333 29.2406C109.495 29.2406 110.647 28.1428 111.233 26.4656L114.981 15.7927C115.139 15.3434 114.807 14.8726 114.331 14.8704C113.088 14.8649 111.993 15.6876 111.653 16.8829L110.04 22.552H109.931L107.912 15.3888C107.824 15.0767 107.539 14.8611 107.214 14.8611H105.728C105.229 14.8611 104.88 15.3531 105.044 15.8238L108.465 25.6338L108.295 26.077C107.989 26.7855 107.519 27.0024 106.874 26.9329C106.473 26.8897 106.066 27.0877 105.949 27.4738L105.695 28.3178C105.588 28.6749 105.771 29.0555 106.137 29.1283C106.488 29.198 106.9 29.2406 107.333 29.2406Z" fill="url(#paint7_linear)"/>
<path d="M23.1456 13.4193C23.5414 11.743 23.9909 10.0541 24.4142 8.4674C24.8778 6.72814 25.0657 5.39468 25.0662 4.3523C25.066 3.71465 24.9954 3.18476 24.8658 2.73929C24.7688 2.40559 24.6379 2.11933 24.4783 1.87837C24.3589 1.69798 24.2236 1.54333 24.0788 1.41601C23.8615 1.22437 23.6234 1.09464 23.3936 1.01638C23.2213 0.957411 23.054 0.926319 22.8982 0.914258C22.8674 0.901392 22.833 0.887722 22.7947 0.874321C22.6448 0.822055 22.4364 0.771933 22.1836 0.771933C21.899 0.770861 21.558 0.839745 21.2173 1.02629C20.9613 1.16567 20.7071 1.36804 20.4647 1.64116C20.101 2.05178 19.7611 2.61948 19.4517 3.40561C19.1427 4.19255 18.864 5.20035 18.6334 6.50406C18.3448 8.13718 18.0773 9.66496 17.8183 11.0343C17.624 12.0614 17.4346 12.9998 17.2454 13.8256C17.1035 14.4448 16.9618 15.0009 16.8194 15.4818C16.7128 15.8423 16.6056 16.1607 16.4995 16.4298C16.4202 16.6316 16.3411 16.8059 16.2654 16.9485C16.2088 17.0554 16.154 17.1444 16.1046 17.2135C16.0778 17.2513 16.0535 17.2808 16.0305 17.3065C15.9955 17.2489 15.9562 17.1776 15.9148 17.0924C15.7807 16.8177 15.6283 16.417 15.4744 15.9353C15.2037 15.0907 14.9226 13.9945 14.6503 12.8058C14.2414 11.0217 13.8502 9.02651 13.5207 7.31379C13.3558 6.45716 13.2064 5.67129 13.0773 5.01541C13.0127 4.68734 12.9533 4.3917 12.8994 4.1352C12.8454 3.87842 12.797 3.66132 12.7532 3.48549C12.618 2.94326 12.4635 2.46429 12.2783 2.04187C12.1393 1.72532 11.9833 1.4404 11.8024 1.18792C11.6666 0.998688 11.517 0.827415 11.3513 0.677854C11.103 0.453243 10.8176 0.278486 10.5068 0.165377C10.1963 0.0517312 9.86386 -0.000267001 9.52073 1.03073e-06C9.32779 1.03073e-06 9.13083 0.0160829 8.92961 0.0463705C8.60973 0.0946163 8.29145 0.174758 7.98734 0.317083C7.75966 0.423491 7.54053 0.56662 7.34678 0.751562C7.20141 0.890135 7.071 1.05149 6.96036 1.23322C6.79388 1.5058 6.67202 1.82181 6.59212 2.17856C6.51221 2.53585 6.47346 2.93549 6.4732 3.38846C6.474 4.41207 6.67042 5.71283 7.10333 7.42556C7.68216 9.71079 8.24923 12.5801 8.69952 15.0618C8.5496 15.0516 8.39086 15.0449 8.22331 15.0449C7.82994 15.0452 7.39489 15.0789 6.95181 15.1805C6.61964 15.2569 6.28266 15.3722 5.95931 15.5445C5.71719 15.6737 5.48283 15.8353 5.26931 16.0353C4.94863 16.3347 4.67712 16.7214 4.4938 17.1894C4.47643 17.2336 4.4604 17.2792 4.44463 17.325C4.31956 17.3328 4.14453 17.3478 3.93448 17.3781C3.62208 17.4231 3.23246 17.5014 2.81504 17.6416C2.50211 17.7469 2.17341 17.8871 1.85166 18.0774C1.61062 18.2203 1.37331 18.3915 1.15231 18.5977C0.82121 18.9064 0.527253 19.2962 0.321484 19.77C0.116248 20.2447 -0.00053264 20.7987 1.82654e-06 21.4262C1.82654e-06 21.7395 0.0285958 22.0714 0.0881889 22.4233C0.262692 23.4536 0.534202 24.4726 0.879467 25.4268C0.896036 25.4727 0.914207 25.5169 0.93131 25.5625C0.946008 25.9206 1.01308 27.1792 1.28513 28.7708C1.44573 29.7095 1.67743 30.7639 2.01494 31.8205C2.35273 32.8771 2.7958 33.9363 3.38879 34.8841C3.88852 35.6823 4.34655 36.344 4.74767 36.92C5.04831 37.3518 5.31661 37.7351 5.54643 38.0897C5.8917 38.6223 6.14771 39.0871 6.3182 39.5644C6.36871 39.7068 6.41227 39.8512 6.44835 40H7.71102C7.66933 39.7765 7.61696 39.5602 7.55095 39.3511C7.42054 38.937 7.24577 38.5499 7.03866 38.1707C6.72734 37.6014 6.34546 37.049 5.90907 36.4218C5.47241 35.7943 4.97883 35.0915 4.43608 34.2245C3.91631 33.3952 3.50717 32.4268 3.19264 31.4417C2.88639 30.4838 2.66966 29.5114 2.51734 28.6357C2.82493 29.064 3.15282 29.4454 3.50263 29.7649C3.82732 30.0606 4.17178 30.305 4.54083 30.4795C4.68621 30.5481 4.83613 30.6055 4.98898 30.65C5.31795 30.6961 5.5638 30.973 5.76583 31.2238C5.88422 31.371 6.00581 31.5096 6.15439 31.6278C6.32007 31.7596 6.5034 31.8679 6.6803 31.9834C6.84305 32.0898 7.00713 32.1971 7.13086 32.3498C7.24817 32.4946 7.33128 32.6575 7.39863 32.8307C7.47345 33.0234 7.51942 33.2239 7.5758 33.4225C7.64154 33.6538 7.71931 33.8814 7.80536 34.1057C7.827 34.1623 7.84945 34.2194 7.8727 34.2762C7.96864 34.4448 8.10011 34.5839 8.27569 34.6723C8.29386 34.6814 8.31978 34.6943 8.35025 34.708C8.3898 34.716 8.42988 34.7208 8.46997 34.7222C8.5937 34.7045 8.71395 34.6777 8.82352 34.6209C8.87215 34.586 8.91598 34.5434 8.9582 34.4992C8.99561 34.4472 9.03035 34.393 9.06456 34.3384C9.09022 34.2797 9.11934 34.222 9.14339 34.1628C9.14633 34.1558 9.14954 34.1494 9.15302 34.1432C9.15943 34.1266 9.16985 34.1103 9.18562 34.095C9.20085 34.0803 9.21608 34.0658 9.23158 34.0513C9.25831 34.0229 9.28717 33.9977 9.31763 33.9744C9.51779 33.801 9.72971 33.6485 9.88363 33.4252C9.89005 33.4158 9.89672 33.407 9.90314 33.3978C9.95071 33.3086 10.0026 33.2228 10.0726 33.1526C10.1982 33.0263 10.3668 32.9722 10.5285 32.9103C10.7201 32.8368 10.8914 32.7181 11.009 32.5458C11.0389 32.5018 11.0635 32.4514 11.0889 32.4016C11.1019 32.3544 11.1116 32.3059 11.1196 32.2576C11.1316 32.1368 11.1549 32.0148 11.1645 31.895C11.1704 31.8215 11.1813 31.7516 11.2032 31.6859C11.2284 31.5961 11.2722 31.5106 11.323 31.4321C11.4093 31.2981 11.4795 31.1871 11.4916 31.0402C11.491 31.0333 11.4902 31.0268 11.4894 31.0212C11.4603 30.829 11.2946 30.7151 11.1327 30.6334C10.7481 30.439 10.3224 30.4004 9.9018 30.3602C9.88871 30.3589 9.87535 30.3576 9.86225 30.3562C9.79651 30.3525 9.73051 30.3479 9.6645 30.346C9.35023 30.3369 9.04291 30.4305 8.72918 30.4243C8.63378 30.4224 8.51753 30.4087 8.46435 30.3168C8.41999 30.2396 8.44966 30.1493 8.50604 30.0882C8.5651 30.0244 8.6434 29.9912 8.71769 29.9501C8.76045 29.9228 8.80347 29.8957 8.84516 29.8665C8.87723 29.8421 8.90769 29.8159 8.93682 29.7883C8.94644 29.7751 8.9566 29.7623 8.96649 29.7494C8.97611 29.7371 8.98706 29.7237 8.99909 29.7116C9.02528 29.6663 9.05788 29.6248 9.09315 29.5907C9.15195 29.5342 9.22437 29.4848 9.30881 29.483C9.34435 29.4822 9.38283 29.4932 9.41464 29.5084C9.41758 29.5098 9.42078 29.5119 9.42426 29.5143C9.60036 29.5535 9.78155 29.5752 9.96567 29.5749C10.2372 29.5752 10.5132 29.5296 10.7839 29.4387C11.3449 29.2517 11.7898 28.9954 12.1332 28.7097C12.3908 28.4955 12.5907 28.2656 12.7425 28.0418C12.8734 27.8488 12.9678 27.6617 13.0373 27.491C14.1765 27.859 15.4699 28.0651 16.8528 28.0653C17.1943 28.0653 17.4709 27.7877 17.4709 27.4454C17.4709 27.1028 17.1941 26.8254 16.8528 26.8254C15.8403 26.8254 14.8852 26.7045 14.0276 26.4885C13.3844 26.3266 12.7962 26.1109 12.2799 25.8549C11.5049 25.4711 10.8951 24.995 10.4929 24.486C10.2914 24.2314 10.1407 23.969 10.0405 23.7031C9.94028 23.4367 9.88951 23.1668 9.88924 22.8867C9.88924 22.6358 9.9304 22.3761 10.021 22.1027C10.122 21.7985 10.2409 21.5661 10.3644 21.3889C10.4574 21.2557 10.5528 21.1531 10.6495 21.0711C10.7949 20.9486 10.9437 20.8711 11.103 20.8196C11.262 20.7687 11.4322 20.7459 11.6078 20.7462C11.9539 20.7451 12.3165 20.8387 12.5838 20.9376C12.7174 20.9866 12.8275 21.0359 12.9012 21.0713C12.9381 21.089 12.9659 21.1035 12.983 21.1126C12.9916 21.1172 12.9974 21.1204 13.0006 21.1223L13.003 21.1236C13.025 21.1362 13.0511 21.1488 13.0744 21.1584L18.0033 23.1762C18.0038 23.1762 18.0041 23.1764 18.0046 23.1764C18.2587 23.2507 18.1981 23.5619 18.1508 23.7712C18.1358 24.0291 18.2312 24.2928 18.5375 24.2966C18.7721 24.2995 18.9335 24.3831 19.0725 24.5217C19.0783 24.5271 19.0842 24.5322 19.0901 24.5372C19.0981 24.5418 19.1059 24.5461 19.1131 24.5504C19.1997 24.6008 19.4084 24.7211 19.4145 24.5292C19.4207 24.3325 19.2478 24.1591 19.1125 24.0392C19.0022 23.9417 18.8645 23.8648 18.8531 23.7018C18.8453 23.5916 18.9701 23.5466 19.054 23.586C19.1406 23.627 19.2154 23.6632 19.2777 23.7313C19.3597 23.7937 19.4303 23.8709 19.5161 23.9296C19.5666 23.9645 19.6203 23.9864 19.6743 24.0068C19.6898 24.0103 19.705 24.0143 19.7205 24.0189C19.8362 24.0253 19.9575 23.995 20.0716 23.9915C20.1213 23.9899 20.1566 24.0111 20.1775 24.0422C20.2381 24.0861 20.2886 24.1649 20.3178 24.2317C20.4479 24.5289 20.4142 25.1363 20.0171 25.221C19.9923 25.2344 19.9664 25.2465 19.9407 25.2577C19.7138 25.3569 19.4597 25.4035 19.2499 25.5397C18.8835 25.7774 18.5174 26.2902 18.6524 26.7464C18.7133 26.8386 18.79 26.9184 18.8632 26.9704C19.0193 27.0817 19.1946 27.1409 19.3763 27.1814C19.4762 27.1782 19.5735 27.1757 19.6687 27.1398C19.728 27.1176 19.782 27.0844 19.8383 27.0567C19.8458 27.0503 19.8546 27.0447 19.8643 27.0401C19.8691 27.0369 19.8742 27.034 19.8792 27.0313C19.883 27.0289 19.8864 27.0265 19.8902 27.024C19.8966 27.0198 19.903 27.0168 19.9092 27.0141C19.9137 27.0109 19.9185 27.008 19.9239 27.0053C19.9367 26.9948 19.9495 26.9844 19.9562 26.9798C19.9845 26.9608 20.0104 26.9399 20.0372 26.9187C20.0708 26.8916 20.1048 26.8675 20.1401 26.8458C20.1922 26.804 20.2368 26.7713 20.2918 26.7515C20.3391 26.7217 20.3995 26.7107 20.4535 26.7247C20.457 26.7255 20.4599 26.7268 20.4634 26.7279C20.4773 26.7308 20.4907 26.7354 20.503 26.7421C20.5428 26.7638 20.5666 26.7989 20.5847 26.8378C20.616 26.8975 20.6692 26.9393 20.7258 26.975C20.791 27.0163 20.86 27.0522 20.9284 27.0876C21.0452 27.1479 21.194 27.2135 21.2715 27.3264C21.2755 27.3301 21.2779 27.3342 21.2795 27.3382C21.2969 27.3663 21.31 27.3971 21.3172 27.4317C21.3172 27.4323 21.3172 27.4325 21.3175 27.4331C21.3196 27.4368 21.3218 27.4406 21.3236 27.4446C21.3298 27.4566 21.3349 27.4687 21.3415 27.4805C21.3471 27.4907 21.3536 27.5003 21.3597 27.5097C21.384 27.533 21.4118 27.5523 21.4417 27.5684C21.5035 27.6019 21.5877 27.6255 21.6518 27.5781C21.6919 27.5486 21.7138 27.4998 21.7421 27.4604C21.7761 27.4132 21.8145 27.3781 21.8613 27.3438C21.8624 27.343 21.8632 27.3425 21.8642 27.3417C21.876 27.3288 21.8875 27.3159 21.8984 27.3025C21.903 27.2964 21.907 27.2899 21.911 27.2838C21.9262 27.2548 21.9364 27.2245 21.9441 27.1934C21.9436 27.146 21.942 27.0988 21.938 27.0517C21.9359 27.0262 21.9335 27.0007 21.9302 26.9755C21.93 26.9731 21.9292 26.9672 21.9289 26.9653C21.9289 26.9645 21.9286 26.9635 21.9286 26.9627C21.9284 26.9613 21.9276 26.9603 21.9273 26.9586C21.9204 26.9203 21.9086 26.8828 21.896 26.8458C21.8883 26.8278 21.8808 26.8093 21.8752 26.7906C21.8693 26.7713 21.8642 26.7515 21.8602 26.7316C21.8581 26.726 21.8557 26.7206 21.8538 26.715C21.8477 26.6981 21.8458 26.6802 21.8423 26.6627C21.8346 26.6239 21.8258 26.5853 21.8207 26.5461C21.8196 26.5373 21.8188 26.5285 21.8188 26.5196C21.8167 26.4909 21.8172 26.4617 21.8215 26.4336C21.8252 26.4073 21.8375 26.3797 21.856 26.3588C21.8656 26.3406 21.8771 26.3234 21.892 26.3084C21.9174 26.2832 21.9482 26.2706 21.981 26.265C21.9984 26.2607 22.016 26.258 22.035 26.2564C22.0636 26.2543 22.0938 26.2556 22.1216 26.2631C22.1504 26.2709 22.1801 26.2878 22.1969 26.3132C22.1975 26.3122 22.1977 26.3111 22.198 26.31C22.2298 26.3923 22.2616 26.4746 22.2915 26.5574L22.2918 26.5577C22.2942 26.5633 22.2966 26.5684 22.2985 26.5737L22.299 26.5748C22.3004 26.5791 22.302 26.5834 22.3038 26.5877C22.3092 26.6 22.3148 26.6123 22.3191 26.6249C22.3231 26.6367 22.3252 26.6493 22.3282 26.6617C22.3284 26.663 22.3287 26.6643 22.329 26.6654C22.3853 26.8278 22.4375 26.9911 22.4861 27.1554C22.4909 27.1648 22.4933 27.1757 22.4938 27.1867C22.4938 27.1875 22.4941 27.1883 22.4944 27.1892C22.4962 27.198 22.496 27.2068 22.4933 27.216C22.4922 27.221 22.4912 27.2264 22.4896 27.2312C22.4869 27.2411 22.4816 27.2497 22.4749 27.2575C22.4375 27.3245 22.3565 27.3661 22.2966 27.4089C22.2926 27.4119 22.2883 27.4148 22.2843 27.4178C22.2838 27.4183 22.2774 27.4231 22.2755 27.4245C22.2688 27.4298 22.2624 27.4352 22.256 27.4408C22.2488 27.4475 22.2416 27.4542 22.2349 27.4615C22.2322 27.4644 22.2296 27.4674 22.2271 27.4703C22.2261 27.4714 22.2255 27.4722 22.225 27.4727C22.2245 27.4735 22.2242 27.4741 22.2234 27.4754C22.2178 27.4837 22.2124 27.4923 22.2079 27.5011C22.2066 27.5036 22.2055 27.5062 22.2042 27.5089C22.2036 27.5108 22.1999 27.5215 22.1999 27.5215C22.1961 27.5328 22.1932 27.5443 22.1911 27.5561C22.1908 27.5572 22.1895 27.5655 22.1889 27.5684C22.1887 27.5716 22.1879 27.5805 22.1879 27.5805C22.1876 27.5832 22.1871 27.5858 22.1865 27.5885C22.1857 27.651 22.1929 27.7284 22.2063 27.7962C22.2068 27.7976 22.2076 27.7987 22.2082 27.8C22.209 27.8016 22.2092 27.8032 22.21 27.8048C22.244 27.8576 22.2846 27.9059 22.3367 27.938C22.3388 27.9394 22.3407 27.941 22.3429 27.9423C22.3501 27.9458 22.3573 27.949 22.3642 27.9533C22.4003 27.9753 22.4286 28.004 22.4669 28.0233C22.5532 28.067 22.6379 28.101 22.71 28.1677C22.7384 28.194 22.7509 28.2238 22.7517 28.2532C22.7985 28.5001 22.8378 28.7488 22.8688 28.9989C22.8693 29.0005 22.8701 29.0024 22.8704 29.004C22.8749 29.0262 22.8773 29.0488 22.8763 29.071C22.8773 29.0758 22.8781 29.0809 22.8779 29.0863C22.8776 29.089 22.8773 29.0914 22.8771 29.0938C22.8792 29.1133 22.8752 29.1343 22.8656 29.1533C22.8594 29.1654 22.8506 29.1753 22.8402 29.1833L22.8394 29.1838C22.837 29.1855 22.8346 29.1871 22.8322 29.1887C22.83 29.19 22.8279 29.1913 22.8255 29.1927C22.8094 29.201 22.791 29.2048 22.7728 29.2034C22.7603 29.2023 22.748 29.2002 22.736 29.1972C22.7277 29.1962 22.7194 29.1951 22.7111 29.194C22.6889 29.1908 22.6675 29.186 22.6467 29.1779C22.6365 29.1739 22.6267 29.1688 22.617 29.164C22.616 29.1637 22.6146 29.1635 22.6136 29.1629C22.5786 29.1511 22.5449 29.1361 22.5091 29.1265H22.5072C22.4038 29.1123 22.3014 29.0882 22.1969 29.0841C22.1264 29.0938 22.0676 29.1184 22.0238 29.1913C21.9703 29.2798 21.9134 29.3696 21.8127 29.3672C21.8103 29.368 21.81 29.3677 21.8108 29.3672C21.7916 29.3664 21.7707 29.3629 21.748 29.3546C21.7472 29.3543 21.7467 29.3538 21.7459 29.3535C21.7408 29.3524 21.7357 29.3514 21.7306 29.3495C21.6766 29.3299 21.6224 29.3117 21.5687 29.2921C21.4639 29.2795 21.3688 29.2334 21.2715 29.1932C21.2055 29.1758 21.1344 29.1578 21.0682 29.1321C21.0588 29.1302 21.0505 29.1276 21.0428 29.1241C20.9581 29.1088 20.8765 29.0836 20.8068 29.0287C20.7395 28.9756 20.6898 28.904 20.6529 28.8263C20.6451 28.8156 20.6376 28.8048 20.6307 28.7939C20.5735 28.7051 20.5251 28.6108 20.4402 28.5481C20.3728 28.5084 20.3012 28.4754 20.2269 28.4527C20.1331 28.4527 20.0393 28.4545 19.9463 28.4644C19.8953 28.4698 19.845 28.4792 19.7948 28.4888C19.7892 28.4899 19.7836 28.491 19.7777 28.4921C19.7582 28.4958 19.7387 28.4996 19.7194 28.5028C19.7082 28.5052 19.697 28.5079 19.6858 28.5111C19.5209 28.5585 19.4089 28.7038 19.2635 28.7853C19.1398 28.8547 19.0043 28.87 18.8672 28.8871C18.7269 28.9383 18.6109 29.0517 18.5252 29.175C18.3996 29.3551 18.3667 29.5406 18.3042 29.7454C18.2261 30.0008 18.0695 30.1799 17.8891 30.3699C17.8143 30.4487 17.7253 30.5417 17.6524 30.6427C17.5877 30.7953 17.534 30.9542 17.4821 31.1107C17.4485 31.2123 17.4218 31.315 17.4006 31.4184C17.4012 31.4308 17.4004 31.4428 17.398 31.4549C17.4014 31.5144 17.4006 31.5731 17.4049 31.6197C17.4399 31.9982 17.5086 32.3858 17.6166 32.7505C17.7066 33.0553 17.8384 33.3638 18.0591 33.5973C18.2515 33.801 18.4984 33.9023 18.7627 33.9438C19.0647 33.9079 19.3637 33.8425 19.6457 33.7353C19.778 33.6849 19.9201 33.6206 20.0642 33.6096C20.0756 33.6069 20.0882 33.6056 20.1021 33.6064C20.1085 33.6066 20.1149 33.6077 20.1211 33.608C20.1572 33.609 20.1932 33.6139 20.229 33.6238C20.2306 33.6243 20.232 33.6249 20.2336 33.6251C20.2467 33.6281 20.2598 33.631 20.2726 33.6345C20.2846 33.6356 20.2934 33.6372 20.3015 33.6426C20.3784 33.6645 20.4543 33.6919 20.5342 33.7122C20.6109 33.7318 20.6948 33.7415 20.7686 33.7704C20.7881 33.7742 20.8044 33.7793 20.8276 33.7902C20.8474 33.7994 20.8653 33.813 20.8816 33.8278C20.899 33.8433 20.914 33.8637 20.9257 33.8854C20.9463 33.9165 20.9583 33.9545 20.9613 33.9961C20.9749 34.0572 20.9615 34.1215 20.938 34.184C20.9252 34.2298 20.9075 34.273 20.8854 34.314C20.8415 34.4268 20.7966 34.5356 20.7678 34.653C20.7675 34.6579 20.7672 34.663 20.7664 34.6678C20.7504 34.7731 20.7472 34.8334 20.7961 34.9339C20.8263 34.9958 20.8589 35.0554 20.888 35.1173C20.8931 35.124 20.8963 35.1323 20.899 35.1414C20.907 35.1593 20.915 35.1776 20.922 35.1963C20.9225 35.1977 20.9228 35.1993 20.9233 35.2006C20.9276 35.2089 20.9313 35.2175 20.934 35.2264C20.9348 35.229 20.9353 35.2317 20.9361 35.2344C20.9407 35.2457 20.9436 35.2574 20.9452 35.2695C20.9466 35.2757 20.9476 35.2818 20.9482 35.2877C20.9527 35.3052 20.9543 35.3239 20.9511 35.3446C20.9319 35.4756 20.9442 35.6072 20.9388 35.7391C20.9348 35.8393 20.9137 35.9358 20.8969 36.0339C20.8966 36.0436 20.8953 36.0527 20.8934 36.0615C20.8934 36.0685 20.8928 36.0752 20.8918 36.0819C20.8915 36.087 20.8912 36.0921 20.8902 36.0975C20.8691 36.2258 20.7865 36.328 20.7282 36.4408C20.659 36.5754 20.601 36.7249 20.5687 36.8731C20.5332 37.0366 20.5476 37.2087 20.6256 37.358C20.6596 37.4229 20.7055 37.4765 20.7512 37.5328C20.7571 37.5381 20.7624 37.5443 20.7672 37.5507C20.7691 37.5529 20.7707 37.5553 20.7723 37.5574C20.7753 37.5598 20.7779 37.5625 20.7806 37.5655C20.8226 37.5955 20.8594 37.6309 20.9011 37.6614C20.9471 37.6952 21.0029 37.7118 21.0505 37.7432C21.1061 37.7799 21.1507 37.8303 21.1721 37.8852C21.1873 37.908 21.1956 37.9353 21.1956 37.9635C21.1956 37.964 21.1956 37.9646 21.1956 37.9651C21.1964 37.9804 21.1951 37.9959 21.1913 38.0109C21.1924 38.0099 21.1932 38.0088 21.1943 38.0074C21.1924 38.0115 21.1905 38.0155 21.1887 38.0195C21.1852 38.0308 21.1804 38.0412 21.174 38.0511C20.8779 38.6971 20.5505 39.3299 20.2002 39.9464H21.613C22.1146 39.0069 22.5625 38.0329 22.938 37.035C23.725 34.9428 24.2009 32.7495 24.2012 30.576C24.2012 29.484 24.0807 28.3974 23.8177 27.3352C23.5548 26.273 23.1491 25.2352 22.5823 24.244C22.3835 23.8969 22.2304 23.4547 22.1299 22.9291C22.0291 22.404 21.981 21.798 21.9813 21.1322C21.9813 20.2712 22.0612 19.3104 22.2004 18.2905C22.4081 16.759 22.7499 15.0953 23.1456 13.4193ZM7.62364 28.7638C7.51407 28.7697 7.42535 28.699 7.34438 28.6352C7.26234 28.5703 7.17763 28.5081 7.08623 28.4572C7.03091 28.4299 6.97453 28.4049 6.91547 28.3854C6.90344 28.3816 6.89142 28.3779 6.87913 28.3744C6.87485 28.373 6.87084 28.372 6.86657 28.3709C6.82381 28.3599 6.77998 28.3516 6.73589 28.346C6.66988 28.3385 6.60468 28.3377 6.53867 28.3393C6.50259 28.3414 6.46652 28.3446 6.43097 28.3505C6.28854 28.3741 6.17122 28.4575 6.03467 28.4918C5.91682 28.5282 5.79736 28.5124 5.66989 28.4979C5.54296 28.4835 5.34788 28.4789 5.26771 28.599C5.2482 28.6928 5.29069 28.7957 5.31741 28.8839C5.34788 28.985 5.37273 29.0884 5.37701 29.1943C5.37834 29.2291 5.37781 29.2651 5.37059 29.2972C5.37006 29.3559 5.33585 29.3926 5.29176 29.4071C5.27599 29.4141 5.25755 29.4181 5.23671 29.4181C5.21212 29.4181 5.19128 29.4125 5.17391 29.4034C5.16402 29.3999 5.15413 29.3964 5.14425 29.3921C4.78909 29.2436 4.39011 28.9437 3.99675 28.5073C3.82091 28.3135 3.64694 28.093 3.47644 27.8509C3.46736 27.8405 3.45827 27.83 3.44999 27.8188C3.41257 27.7751 3.37195 27.7292 3.33962 27.6794C3.26239 27.5883 3.20333 27.4757 3.14668 27.3746C3.0641 27.2277 2.97511 27.0835 2.90643 26.9294C2.9059 26.9294 2.90563 26.9294 2.90483 26.9297C2.74021 26.6306 2.58281 26.3124 2.43477 25.9793C2.43423 25.9782 2.4337 25.9774 2.43316 25.9766C2.43183 25.9744 2.43102 25.9723 2.42996 25.9701C2.42969 25.9693 2.42969 25.9688 2.42942 25.968L2.42915 25.9672C2.42915 25.9672 2.42915 25.9667 2.42915 25.9661C2.42915 25.9656 2.42889 25.9648 2.42889 25.9642C2.42809 25.9621 2.42755 25.9597 2.42702 25.9573L2.42675 25.9567C2.42488 25.9498 2.42408 25.9428 2.42274 25.9358C2.42007 25.9206 2.41686 25.9055 2.41526 25.89C2.41526 25.8892 2.41526 25.8884 2.41526 25.8876C2.41259 25.8763 2.41072 25.8648 2.40831 25.8535C2.4035 25.8281 2.39949 25.8024 2.39869 25.7764C2.39655 25.7632 2.39441 25.7498 2.39254 25.7367C2.39228 25.7351 2.39174 25.7335 2.39174 25.7316C2.39147 25.7303 2.39147 25.7289 2.39147 25.7276C2.38078 25.6506 2.37597 25.5735 2.38613 25.4955C2.39308 25.4419 2.40724 25.3882 2.42621 25.3357L2.42648 25.3349C2.4329 25.3175 2.43984 25.3003 2.44733 25.2832C2.44759 25.2821 2.44813 25.281 2.44839 25.28C2.45508 25.2572 2.46202 25.2347 2.47084 25.2127C2.48875 25.1679 2.51494 25.1296 2.54487 25.0921C2.55876 25.0746 2.57266 25.0567 2.58869 25.0417C2.60606 25.0253 2.62611 25.0122 2.64481 24.9977C2.6539 24.9905 2.66298 24.9835 2.67234 24.9765C2.67287 24.976 2.67341 24.9752 2.67394 24.9747C2.6849 24.9658 2.69612 24.9586 2.70895 24.9522C2.70975 24.9519 2.71028 24.9514 2.71109 24.9511C2.71189 24.9505 2.71296 24.9503 2.71376 24.9497C2.72177 24.946 2.72952 24.9422 2.73701 24.9377C2.74315 24.9339 2.74957 24.931 2.75598 24.9283C2.75865 24.9267 2.76133 24.9251 2.764 24.9235C2.77415 24.917 2.78484 24.9111 2.7958 24.9061C2.79954 24.9039 2.80355 24.9018 2.80729 24.8996C2.8733 24.85 2.95721 24.8181 3.047 24.8002C3.0617 24.7956 3.07639 24.7916 3.09109 24.7873C3.11113 24.7793 3.14481 24.7691 3.15523 24.7661C3.19825 24.7538 3.24555 24.7509 3.29045 24.746C3.3308 24.7404 3.37169 24.7364 3.41284 24.7337C3.47591 24.7217 3.53871 24.723 3.60204 24.7259C3.62663 24.7259 3.65148 24.727 3.6758 24.7292C3.68248 24.7294 3.68916 24.7297 3.69611 24.73C3.95639 24.7216 4.21401 24.6404 4.42619 24.4903C4.44463 24.4745 4.46307 24.4587 4.48177 24.4426C4.53442 24.3788 4.58519 24.3134 4.63811 24.2499C4.63891 24.2491 4.63971 24.248 4.64024 24.247C4.7287 24.0802 4.7768 23.8916 4.7792 23.7021C4.77199 23.6233 4.76344 23.5453 4.75863 23.4697C4.75596 23.4555 4.75248 23.4413 4.74901 23.4271C4.70839 23.3359 4.65173 23.2544 4.58145 23.1848C4.50876 23.118 4.42378 23.0631 4.33426 23.0146C4.1774 22.9382 3.99461 22.8717 3.86634 22.7503C3.76078 22.6645 3.67313 22.5581 3.63758 22.4321C3.59349 22.3399 3.56784 22.2362 3.56169 22.1169C3.56115 22.1099 3.56089 22.1027 3.56089 22.0957C3.56062 22.0901 3.56035 22.0845 3.56009 22.0789C3.56009 22.0743 3.56035 22.07 3.56062 22.0657C3.56142 22.01 3.56864 21.9526 3.5836 21.8928C3.59696 21.8395 3.6162 21.7896 3.63945 21.7422C3.67125 21.6696 3.71027 21.5993 3.75356 21.5353C3.76612 21.5133 3.77948 21.4911 3.79311 21.4685C3.8201 21.4235 3.84549 21.3766 3.86901 21.3289C3.87569 21.3136 3.8821 21.2981 3.88852 21.282C3.91978 21.167 3.93902 21.048 3.96601 20.9319C4.00583 20.7596 4.02748 20.5854 4.0395 20.4101C4.03924 20.3702 4.03843 20.3302 4.03656 20.2905C4.03149 20.1745 4.02694 20.123 4.00637 20.0236C3.99648 19.9751 3.98151 19.9132 3.96682 19.8443C3.94704 19.7765 3.93314 19.7076 3.92887 19.6446C3.92272 19.6138 3.91738 19.5832 3.91497 19.5527C3.90482 19.4811 3.90402 19.409 3.92673 19.3409C3.94811 19.2147 4.0085 19.1134 4.14025 19.0772C4.18114 19.0659 4.21614 19.0734 4.24313 19.0911C4.25275 19.0962 4.26131 19.1026 4.26906 19.1101C4.30193 19.131 4.32624 19.1664 4.32892 19.216C4.37221 20.03 4.54377 20.8277 4.66055 21.6326C4.67872 21.7583 4.69636 21.8835 4.71507 22.0084C4.72068 22.022 4.72415 22.037 4.72522 22.0539C4.72576 22.0612 4.72683 22.0684 4.7279 22.0756C4.73698 22.1126 4.74607 22.1496 4.75542 22.1866C4.7776 22.2512 4.8062 22.3153 4.82196 22.378C4.84788 22.4801 4.8706 22.5817 4.9016 22.6827C4.95317 22.8508 5.01464 23.0159 5.07102 23.1821C5.07931 23.2006 5.08732 23.2191 5.09427 23.2378C5.09882 23.2485 5.10336 23.2595 5.1071 23.2705C5.11271 23.2869 5.11619 23.3032 5.11939 23.3201C5.1218 23.3271 5.12367 23.3343 5.12501 23.3424C5.12982 23.3729 5.13436 23.4027 5.13676 23.433C5.14959 23.4997 5.17712 23.5675 5.19422 23.6313C5.21159 23.6967 5.22869 23.761 5.23885 23.8272C5.23911 23.8294 5.23965 23.8318 5.24018 23.8339C5.24098 23.8388 5.24152 23.8436 5.24205 23.8484C5.24419 23.8567 5.24606 23.8653 5.24713 23.8739C5.24847 23.8779 5.2498 23.8822 5.25087 23.8865L5.25167 23.8862C5.41148 24.3665 5.58518 24.8407 5.77625 25.2971C6.01222 25.8608 6.27144 26.3985 6.55524 26.893C6.56112 26.9034 6.56753 26.9133 6.57341 26.9238L6.62312 27.0074C6.90959 27.4923 7.21905 27.9335 7.56004 28.3122C7.57367 28.3245 7.58703 28.3366 7.60092 28.3484C7.67361 28.4108 7.78932 28.4661 7.80616 28.5695C7.8083 28.58 7.8091 28.591 7.8083 28.6017C7.80375 28.696 7.7145 28.759 7.62364 28.7638ZM9.91864 25.6978C10.4502 26.2277 11.1169 26.6772 11.8852 27.0393C11.8227 27.1883 11.7246 27.3634 11.5656 27.5416C11.4518 27.6687 11.3066 27.7981 11.1164 27.9217C10.9258 28.045 10.6899 28.1626 10.393 28.2618C10.2409 28.3125 10.1014 28.3342 9.96567 28.3342C9.75055 28.3336 9.53837 28.2798 9.30908 28.1618C9.10946 28.0589 8.89995 27.9051 8.68883 27.7016C8.31898 27.3465 7.94806 26.841 7.60573 26.2376C7.09104 25.3325 6.63835 24.2108 6.28186 23.0558C6.27785 23.0427 6.27384 23.0296 6.26983 23.0164C6.2367 22.9427 6.20169 22.8645 6.18058 22.7854C6.11992 22.627 6.11858 22.3801 6.13087 22.208C6.14316 22.0373 6.18886 21.8776 6.3035 21.762L6.30431 21.7537L6.32275 21.7433C6.32649 21.7395 6.33023 21.7363 6.33424 21.7326C6.42563 21.6023 6.54722 21.5053 6.66801 21.4026C6.79548 21.2941 6.9283 21.2002 7.09238 21.1576C7.1819 21.1346 7.27169 21.1233 7.36175 21.1174C7.44272 21.0968 7.52289 21.0649 7.59852 21.0392C7.64849 21.0223 7.69766 21.0035 7.74576 20.9821C7.75832 20.9727 7.77088 20.963 7.78264 20.9542C7.93603 20.8363 8.0301 20.6486 7.9983 20.453C7.97906 20.3342 7.90851 20.2227 7.827 20.1244C7.65036 19.9437 7.40638 19.8317 7.17602 19.7054C7.00045 19.6505 6.86336 19.4714 6.8051 19.3004C6.75513 19.1544 6.69954 19.0421 6.51943 19.1072C6.42884 19.1399 6.30377 19.2538 6.26609 19.3581C6.26262 19.3704 6.25968 19.3814 6.25727 19.3902C6.25701 19.3916 6.25647 19.3932 6.25647 19.3945C6.2546 19.4074 6.25113 19.4186 6.24685 19.4288C6.22467 19.5074 6.2057 19.5867 6.18378 19.6652C6.15011 19.7858 6.11671 19.9413 6.03413 20.0456C6.03012 20.0525 6.02531 20.0587 6.0205 20.0643C6.01275 20.0761 6.0034 20.0876 5.99138 20.0984C5.95076 20.134 5.93312 20.1595 5.90773 20.1772C5.88234 20.1949 5.85696 20.223 5.8444 20.2281C5.83157 20.2332 5.81393 20.2536 5.7963 20.2587C5.77839 20.2637 5.76824 20.2715 5.74552 20.279C5.72254 20.2865 5.68967 20.3045 5.67711 20.3069C5.66455 20.3096 5.63649 20.3299 5.62393 20.3299C5.62313 20.3299 5.62179 20.3302 5.62099 20.3302C5.58091 20.1051 5.54456 19.8831 5.5141 19.669C5.47161 19.3715 5.45183 19.1021 5.4505 18.8582C5.42671 18.6582 5.4505 18.4494 5.47829 18.254C5.49913 18.1074 5.5312 17.9616 5.57102 17.819C5.59908 17.7188 5.64691 17.6285 5.69234 17.5363C5.70009 17.5188 5.70784 17.5017 5.71586 17.4853C5.71826 17.4802 5.72094 17.4757 5.72334 17.4709C5.72708 17.4625 5.73109 17.4545 5.73456 17.4462C5.73911 17.4357 5.74445 17.4266 5.75033 17.4189C5.83798 17.2559 5.94033 17.1205 6.05524 17.0026L6.05551 17.0023C6.06834 16.9857 6.08304 16.9704 6.09907 16.9568C6.10522 16.9517 6.11163 16.9469 6.11778 16.9418C6.13114 16.9292 6.1437 16.9155 6.15733 16.9034C6.21826 16.8498 6.28319 16.8008 6.3508 16.7549C6.35268 16.7547 6.35348 16.7547 6.35348 16.7547C6.35348 16.7547 6.35455 16.7531 6.35562 16.7515C6.37646 16.7375 6.39811 16.7241 6.41975 16.711C6.65812 16.4966 7.02797 16.4124 7.32941 16.3481C7.51648 16.3079 7.70728 16.2797 7.89809 16.2674C8.09156 16.2548 8.2797 16.2754 8.47264 16.2829L8.61294 16.2996C8.70353 16.3057 8.79091 16.3132 8.87189 16.3223C8.89006 16.3245 8.90823 16.3253 8.9264 16.3256C9.13618 17.5207 9.31042 18.5684 9.43495 19.3358C9.50309 19.755 9.55627 20.0909 9.59261 20.3216C9.59529 20.3383 9.59742 20.353 9.59983 20.3683C9.45659 20.5251 9.32431 20.703 9.20646 20.9046C9.13057 21.0343 9.06109 21.1742 8.99668 21.3227C8.99455 21.3294 8.99161 21.3361 8.98813 21.3426C8.98573 21.3568 8.98092 21.371 8.9729 21.3849C8.96274 21.4023 8.95286 21.42 8.94324 21.4377C8.93896 21.4506 8.93495 21.4637 8.93014 21.4766C8.92132 21.5002 8.91197 21.5235 8.90208 21.5465C8.8962 21.5645 8.89059 21.5827 8.88445 21.6007C8.88257 21.6162 8.8783 21.6302 8.87242 21.6425C8.8644 21.665 8.85612 21.6867 8.84837 21.7098C8.84195 21.7293 8.83634 21.7486 8.8302 21.7682C8.82913 21.7698 8.82859 21.772 8.82833 21.7744C8.71181 22.1453 8.65302 22.519 8.65329 22.8856C8.65329 23.2711 8.71716 23.6482 8.83688 24.0068C9.04612 24.6356 9.42372 25.2036 9.91864 25.6978ZM21.5615 14.8286C21.3228 15.9533 21.1192 17.061 20.9744 18.1214C20.8298 19.1817 20.744 20.1941 20.7437 21.1314C20.7437 21.8012 20.7881 22.4321 20.8891 23.0175L13.5733 20.0222C13.4907 19.9778 13.2911 19.8759 13.0081 19.7719C12.6506 19.6419 12.1631 19.5063 11.6078 19.5052C11.3582 19.5052 11.0945 19.5336 10.8275 19.6076C10.7968 19.6159 10.766 19.6264 10.7356 19.636C10.6014 18.7965 10.3737 17.4065 10.0843 15.7731C9.60891 13.0885 8.96916 9.75341 8.30268 7.12107C7.88366 5.46946 7.70969 4.25125 7.71049 3.38926C7.71022 2.93763 7.75752 2.5857 7.83208 2.32008C7.88793 2.1204 7.95795 1.9695 8.03464 1.8513C8.09237 1.76258 8.1541 1.69155 8.22224 1.6299C8.32432 1.53824 8.44298 1.4664 8.59049 1.4069C8.73747 1.34793 8.91304 1.30344 9.114 1.27315C9.26205 1.25091 9.3978 1.24045 9.5218 1.24045C9.78422 1.24099 9.99079 1.28548 10.172 1.36643C10.308 1.42781 10.4323 1.51116 10.556 1.62829C10.7404 1.80359 10.9224 2.06009 11.0918 2.41845C11.2615 2.77601 11.417 3.2322 11.5549 3.78622C11.6217 4.05425 11.7142 4.49248 11.8229 5.0398C12.0137 5.99936 12.2575 7.30172 12.5335 8.71398C12.7406 9.77325 12.9659 10.8947 13.2016 11.9826C13.3782 12.7988 13.5608 13.5959 13.7457 14.3351C13.8847 14.8897 14.0249 15.4116 14.166 15.8857C14.2721 16.2414 14.3785 16.57 14.4859 16.8667C14.5666 17.0892 14.6479 17.294 14.7315 17.4797C14.7943 17.6191 14.8582 17.748 14.9258 17.8675C15.0281 18.0466 15.134 18.2045 15.2801 18.3476C15.3539 18.4186 15.4397 18.4872 15.5498 18.5432C15.6585 18.599 15.7967 18.6408 15.9461 18.6405C16.1241 18.6411 16.3002 18.5974 16.4517 18.5248C16.5947 18.4569 16.7181 18.3663 16.8266 18.2648C17.0297 18.0731 17.1871 17.8431 17.333 17.577C17.46 17.3438 17.5759 17.0817 17.6877 16.789C17.8825 16.2768 18.0634 15.6705 18.2406 14.976C18.5062 13.935 18.7627 12.6961 19.0262 11.3042C19.2897 9.91235 19.5604 8.36769 19.8514 6.72036C20.0465 5.61634 20.2747 4.75757 20.5128 4.09821C20.6914 3.60369 20.8749 3.22174 21.0511 2.93147C21.1831 2.71382 21.3108 2.54764 21.4281 2.42194C21.6048 2.23324 21.7563 2.13541 21.8789 2.08046C22.0021 2.02605 22.0999 2.01212 22.1839 2.01158C22.2712 2.01158 22.3437 2.02954 22.3896 2.04535C22.4123 2.05312 22.4281 2.06036 22.4343 2.06358L22.4372 2.06492L22.4375 2.06411C22.5313 2.11826 22.6371 2.14774 22.7456 2.14774C22.834 2.14774 22.9396 2.16382 23.0438 2.20805C23.1224 2.24128 23.202 2.28953 23.2838 2.36565C23.4051 2.47983 23.5369 2.66129 23.6448 2.97649C23.7522 3.2909 23.8303 3.73851 23.8303 4.35177C23.8308 5.2427 23.6651 6.48021 23.2202 8.14629C22.6553 10.2635 22.0387 12.5798 21.5615 14.8286Z" fill="url(#paint8_linear)"/>
<g opacity="0.2">
<path d="M4.32336 19.2476C4.32416 19.2511 4.32523 19.2545 4.32577 19.2583C4.32952 19.2889 4.3322 19.3197 4.33407 19.3502C4.33407 19.3459 4.33434 19.3414 4.33434 19.3371C4.33354 19.3031 4.32979 19.2725 4.32336 19.2428V19.2476Z" fill="white"/>
<path d="M4.75003 23.4299C4.6752 23.2608 4.54559 23.1244 4.37536 23.0359C4.1859 22.9376 3.94432 22.8639 3.80829 22.6878C3.77115 22.6577 3.74015 22.6216 3.71744 22.58C3.71396 22.5752 3.71102 22.5701 3.70781 22.565C3.70728 22.5645 3.70701 22.5639 3.70648 22.5631C3.70541 22.5615 3.70461 22.5599 3.70381 22.5586C3.70113 22.5543 3.69819 22.5503 3.69579 22.546C3.69312 22.5417 3.69071 22.5374 3.68857 22.5331C3.68697 22.5302 3.68537 22.5272 3.68376 22.5243C3.66933 22.4988 3.65704 22.4717 3.64689 22.443C3.6394 22.4246 3.63219 22.4061 3.62524 22.387C3.62123 22.3755 3.61936 22.3645 3.61883 22.3538C3.61829 22.3522 3.61802 22.3506 3.61749 22.349C3.61696 22.3471 3.61642 22.3452 3.61589 22.3436C3.61562 22.3428 3.61535 22.342 3.61535 22.3412C3.61108 22.3291 3.60707 22.3168 3.60333 22.3047C3.59905 22.2948 3.59558 22.2841 3.59371 22.2726C3.55843 22.1855 3.55683 22.0852 3.57687 21.9941C3.57794 21.9453 3.58382 21.8963 3.60012 21.8461C3.63513 21.7376 3.69018 21.6304 3.75378 21.5363C3.8246 21.4315 3.86949 21.3428 3.91038 21.2238C3.91519 21.1777 3.92588 21.1329 3.93951 21.0887C3.97157 20.9383 4.00658 20.7853 4.0293 20.6317C4.02983 20.5381 4.04159 20.443 4.04453 20.3497C4.04453 20.3395 4.0448 20.3293 4.04506 20.3189C4.03785 20.2583 4.03357 20.1969 4.03197 20.1372C4.02903 20.1219 4.02609 20.1066 4.02342 20.0911C4.01406 20.0543 4.00578 20.0179 4.00284 19.9804C3.99723 19.9621 3.99242 19.9439 3.98788 19.9254C3.98066 19.9002 3.97398 19.875 3.9681 19.8493C3.94779 19.7802 3.93309 19.7097 3.92882 19.6451C3.92294 19.6153 3.91759 19.5856 3.91519 19.5555C3.90396 19.4789 3.90316 19.4017 3.93042 19.3291C3.93176 19.3253 3.93389 19.3218 3.9355 19.3183C3.9379 19.31 3.94138 19.3028 3.94485 19.2958C3.94939 19.2725 3.95581 19.2503 3.9673 19.2269C3.97398 19.2087 3.98387 19.1942 3.99563 19.183C4.00765 19.1669 4.02075 19.1532 4.03624 19.1422C4.05094 19.1291 4.06751 19.1181 4.08515 19.1079C4.09076 19.1042 4.09637 19.1007 4.10252 19.0977C4.1116 19.0924 4.12149 19.0878 4.13272 19.0849C4.13459 19.0841 4.13619 19.0833 4.13806 19.0827C4.13806 19.0827 4.13806 19.0833 4.13833 19.0838C4.1426 19.0827 4.14688 19.0814 4.15142 19.0809C4.15757 19.0801 4.16398 19.0792 4.17013 19.0784C4.18483 19.0766 4.19765 19.0776 4.20968 19.0801C4.23827 19.0843 4.26126 19.0994 4.27782 19.12C4.28023 19.1219 4.28237 19.1243 4.28477 19.1267C4.25912 19.0685 4.22758 19.0152 4.17841 18.9718C4.13111 18.93 4.09103 18.9042 4.03491 18.8804C4.00578 18.868 3.98654 18.8581 3.95768 18.8528C3.89835 18.8418 3.83983 18.8364 3.77997 18.8367C3.52957 18.8378 3.2757 18.8705 3.03252 18.9297C2.788 18.9889 2.54962 19.0819 2.32542 19.1961C2.22761 19.246 2.13247 19.3014 2.04135 19.3626C1.93098 19.4365 1.82302 19.518 1.72922 19.6124C1.66802 19.674 1.61484 19.7432 1.5638 19.8131C1.53173 19.8568 1.50367 19.9037 1.48176 19.9533C1.45985 20.0032 1.4374 20.0527 1.42083 20.1042C1.3925 20.1431 1.37139 20.186 1.35803 20.2334C1.32302 20.3189 1.30111 20.4108 1.28882 20.5036C1.23965 20.6413 1.21373 20.7898 1.19368 20.934C1.16723 21.1251 1.14879 21.3149 1.15093 21.5082C1.15467 21.8622 1.20785 22.219 1.29176 22.5626C1.31795 22.6695 1.34761 22.7751 1.37994 22.8797C1.40506 23.0303 1.43633 23.1796 1.47374 23.327C1.49379 23.4064 1.51597 23.4854 1.53975 23.564C1.59052 23.8347 1.66107 24.1008 1.74766 24.3624C1.90826 24.8468 2.1143 25.3169 2.3353 25.7763C2.3663 25.8409 2.39784 25.9052 2.42964 25.9693C2.4291 25.9677 2.42884 25.9658 2.42857 25.9642C2.42777 25.962 2.42723 25.9596 2.4267 25.9572L2.42643 25.9567C2.42456 25.9497 2.42376 25.9427 2.42242 25.9358C2.41975 25.9205 2.41654 25.9055 2.41494 25.8899C2.41494 25.8891 2.41494 25.8883 2.41494 25.8875C2.41227 25.8763 2.4104 25.8647 2.40799 25.8535C2.40238 25.824 2.39757 25.794 2.39784 25.764C2.39784 25.7634 2.3981 25.7629 2.3981 25.7624C2.39516 25.7522 2.39249 25.742 2.39116 25.7313C2.38822 25.7074 2.38848 25.6836 2.38554 25.6597C2.3794 25.6106 2.3802 25.5643 2.38528 25.5152C2.39062 25.4659 2.40398 25.4174 2.41521 25.3691C2.42055 25.3464 2.4291 25.3255 2.43926 25.3054C2.4422 25.2968 2.4454 25.2885 2.44781 25.2796C2.45449 25.2568 2.46144 25.2343 2.47026 25.2124C2.48816 25.1676 2.51435 25.1293 2.54428 25.0917C2.55818 25.0743 2.57207 25.0564 2.58811 25.0413C2.60548 25.025 2.62552 25.0119 2.64423 24.9974C2.65331 24.9902 2.66266 24.9832 2.67175 24.9762C2.67229 24.9757 2.67282 24.9749 2.67335 24.9746C2.68431 24.9658 2.69553 24.9585 2.70836 24.9521C2.71023 24.9513 2.71184 24.9505 2.71371 24.9497C2.71558 24.9486 2.71745 24.9478 2.71932 24.947C2.7252 24.9441 2.73108 24.9411 2.73669 24.9379C2.7439 24.9336 2.75165 24.9301 2.7594 24.9272C2.7741 24.9175 2.78933 24.9084 2.80563 24.9017C2.87031 24.8524 2.95288 24.821 3.04133 24.8025C3.04614 24.8012 3.05122 24.7999 3.05657 24.7993C3.06298 24.798 3.06939 24.7972 3.07581 24.7961C3.07875 24.7894 3.14021 24.7709 3.15518 24.7666C3.20034 24.7537 3.25031 24.7511 3.29708 24.746C3.32888 24.7425 3.36041 24.7406 3.39168 24.7393C3.4943 24.7149 3.59531 24.728 3.7006 24.7307C3.8262 24.7339 3.94432 24.7127 4.06511 24.68C4.24576 24.6313 4.37323 24.5364 4.51272 24.4284C4.5349 24.3991 4.56029 24.3734 4.58354 24.3437C4.75777 24.0788 4.82218 23.7409 4.75003 23.4299Z" fill="white"/>
</g>
<path opacity="0.2" d="M8.01013 20.5408C8.00933 20.5218 8.00719 20.5028 8.00586 20.4827C8.00479 20.4666 8.00452 20.4505 8.00399 20.4347C8.00211 20.4224 7.99998 20.41 7.99757 20.3977C7.99196 20.3816 7.98581 20.3655 7.9794 20.35C7.97726 20.3495 7.97699 20.3487 7.97833 20.3476C7.97031 20.3288 7.96203 20.3103 7.95428 20.2918C7.93691 20.2586 7.91794 20.2262 7.89415 20.1959C7.80623 20.0828 7.70923 20.0131 7.5887 19.9386C7.4762 19.8689 7.36423 19.8075 7.24691 19.7456C7.18705 19.714 7.10662 19.6834 7.06225 19.6285C7.05718 19.6274 7.05263 19.626 7.04916 19.6239C6.99545 19.588 6.95536 19.5403 6.91421 19.4912C6.87973 19.4505 6.83938 19.3848 6.82442 19.3275C6.81987 19.3175 6.81667 19.3074 6.81373 19.2969C6.80945 19.287 6.80571 19.2768 6.80304 19.2663C6.7846 19.2315 6.7699 19.194 6.75146 19.1597C6.74371 19.1495 6.7357 19.1393 6.72714 19.131C6.72153 19.1256 6.71619 19.1213 6.71084 19.1171C6.68171 19.1042 6.65125 19.0932 6.61785 19.0857H6.61758C6.60395 19.0876 6.59059 19.0886 6.57696 19.0892C6.566 19.0927 6.55398 19.0951 6.54115 19.097C6.53046 19.1018 6.5195 19.1063 6.50855 19.1106C6.50374 19.1125 6.49706 19.1154 6.49011 19.1179C6.48102 19.123 6.47194 19.1283 6.46258 19.1329C6.4551 19.1366 6.44762 19.1401 6.44013 19.1439C6.4372 19.1452 6.43426 19.1465 6.43132 19.1479C6.43025 19.1489 6.42891 19.1503 6.42784 19.1514C6.41849 19.1602 6.40887 19.1688 6.39871 19.1771C6.3947 19.1825 6.38856 19.1873 6.38535 19.1905C6.3768 19.1988 6.36745 19.2063 6.35809 19.2138C6.35649 19.2154 6.35489 19.217 6.35302 19.2186L6.35222 19.2194C6.34928 19.2229 6.34634 19.2264 6.34313 19.2296C6.34126 19.2339 6.33885 19.2382 6.33618 19.2425C6.33191 19.2489 6.3271 19.2551 6.32229 19.2613C6.32148 19.2623 6.32068 19.2634 6.31961 19.2645C6.31881 19.2653 6.31908 19.265 6.31908 19.265C6.31053 19.2768 6.30091 19.2878 6.29075 19.2985C6.28567 19.3087 6.28033 19.3191 6.27552 19.3296C6.27098 19.3398 6.26723 19.3502 6.26296 19.3607C6.26189 19.3636 6.26055 19.3663 6.25949 19.3693C6.25761 19.3768 6.25521 19.3843 6.25307 19.3915C6.2504 19.3998 6.24853 19.4084 6.24666 19.417C6.24479 19.4253 6.24292 19.4339 6.23944 19.4416C6.23918 19.4422 6.23891 19.4427 6.23891 19.4427V19.4432C6.2349 19.4599 6.23089 19.477 6.22581 19.4936C6.22501 19.4982 6.22394 19.5028 6.22287 19.5073C6.221 19.5148 6.21913 19.5223 6.217 19.5298V19.5301C6.21673 19.532 6.21646 19.5338 6.21593 19.5355C6.21566 19.5363 6.21539 19.5368 6.21512 19.5376C6.21566 19.5408 6.21352 19.547 6.21299 19.5497C6.21272 19.5505 6.21245 19.5515 6.21218 19.5523C6.21192 19.5601 6.20978 19.5673 6.20737 19.5749C6.20604 19.5791 6.20497 19.5834 6.2039 19.5877C6.2031 19.5901 6.20256 19.5928 6.20176 19.5952C6.20176 19.5963 6.2015 19.5974 6.20123 19.5984V19.5987L6.20096 19.599V19.5992C6.20096 19.5992 6.20069 19.5998 6.20043 19.6003C6.19909 19.6033 6.19829 19.6062 6.19722 19.6092C6.19695 19.61 6.19669 19.6105 6.19642 19.6113C6.19588 19.6137 6.19508 19.6161 6.19428 19.6188C6.19294 19.6231 6.19187 19.6271 6.19081 19.6314C6.19081 19.6341 6.19 19.637 6.18947 19.6392C6.1884 19.6437 6.18706 19.6478 6.18546 19.6523C6.18413 19.6566 6.18332 19.6609 6.18199 19.6652C6.18145 19.6673 6.18092 19.6697 6.18012 19.6719C6.17985 19.673 6.17931 19.6738 6.17878 19.6746C6.17557 19.6826 6.17397 19.6909 6.17183 19.6992C6.16969 19.7083 6.16676 19.7174 6.16435 19.7266C6.16168 19.7367 6.15901 19.7467 6.15607 19.7568C6.15526 19.7627 6.15393 19.7686 6.15206 19.7743C6.14938 19.7936 6.13976 19.811 6.13495 19.8297C6.13282 19.8386 6.13041 19.8472 6.12667 19.8552C6.12614 19.8563 6.12587 19.8574 6.12533 19.8584C6.12426 19.8638 6.12266 19.8694 6.12026 19.8745C6.11919 19.8788 6.11758 19.8831 6.11598 19.8874C6.11331 19.8941 6.1109 19.9008 6.1085 19.9075C6.10663 19.9131 6.10422 19.9185 6.10182 19.9238C6.10128 19.9305 6.09647 19.9362 6.093 19.9418C6.09353 19.9418 6.09407 19.9418 6.09353 19.9426C6.09006 19.948 6.08712 19.9533 6.08418 19.9589C6.08231 19.9635 6.08071 19.9678 6.07857 19.9723C6.07696 19.9758 6.07509 19.9788 6.07296 19.982C6.06841 19.9943 6.0604 20.0053 6.05291 20.0163C6.04837 20.023 6.04356 20.0289 6.03848 20.0348L6.03822 20.0351C6.03474 20.0415 6.031 20.0474 6.02646 20.053C6.02619 20.0536 6.02592 20.0541 6.02539 20.0546C6.01764 20.0664 6.00802 20.0766 6 20.0879C5.99573 20.094 5.98985 20.0986 5.98423 20.1034C5.97755 20.1088 5.97141 20.1147 5.96526 20.1203C5.95751 20.1273 5.9511 20.1358 5.94308 20.1428C5.94228 20.1439 5.94148 20.145 5.94068 20.146L5.93987 20.1468C5.93667 20.1511 5.93319 20.1554 5.92892 20.1592C5.92838 20.1597 5.92731 20.16 5.92678 20.1605C5.92304 20.1656 5.9185 20.1701 5.91368 20.1739C5.90887 20.1777 5.9038 20.1809 5.89925 20.1844C5.89712 20.186 5.89498 20.1873 5.89284 20.1886C5.89257 20.1892 5.89231 20.1897 5.89177 20.1903C5.8875 20.1948 5.88215 20.198 5.87761 20.2018C5.872 20.2066 5.86665 20.2114 5.86077 20.216C5.85997 20.2165 5.85917 20.2171 5.85837 20.2176C5.85783 20.2181 5.8573 20.2189 5.85676 20.2192C5.85329 20.2221 5.84928 20.2246 5.84527 20.2267C5.84447 20.2272 5.84367 20.228 5.84287 20.2286C5.8418 20.2294 5.84046 20.2299 5.83939 20.2305C5.83886 20.2315 5.83833 20.2323 5.83779 20.2331C5.83726 20.2339 5.83645 20.2345 5.83565 20.235C5.83512 20.2353 5.83485 20.2355 5.83432 20.2358C5.83378 20.2358 5.83164 20.2377 5.83111 20.238C5.83004 20.2388 5.82897 20.2396 5.8279 20.2404C5.82443 20.2428 5.82069 20.2447 5.81721 20.2468C5.81641 20.2479 5.81534 20.2487 5.81454 20.2492C5.81214 20.2511 5.80973 20.2524 5.80706 20.2538C5.80252 20.2562 5.79797 20.2583 5.79316 20.2599C5.79129 20.2607 5.78915 20.2613 5.78728 20.2618C5.78648 20.2621 5.78595 20.2618 5.78515 20.2621C5.78301 20.2632 5.78114 20.2642 5.779 20.265C5.77686 20.2658 5.77472 20.2666 5.77259 20.2674C5.77178 20.268 5.77071 20.2688 5.76965 20.2693C5.76697 20.2709 5.7643 20.2723 5.76163 20.2733C5.75709 20.2755 5.75254 20.2771 5.748 20.2782C5.74506 20.2795 5.74212 20.2811 5.73918 20.2825C5.74132 20.2817 5.74319 20.2806 5.74533 20.2798C5.74372 20.2806 5.74934 20.2779 5.74747 20.2787L5.7464 20.2792C5.7456 20.2795 5.74506 20.28 5.74426 20.2803C5.74052 20.2822 5.73704 20.2838 5.7333 20.2854C5.72956 20.287 5.72555 20.2886 5.72154 20.2897H5.72074L5.72021 20.29C5.71727 20.2916 5.71433 20.2926 5.71112 20.294C5.70979 20.2948 5.70845 20.2956 5.70711 20.2961C5.70204 20.2988 5.69669 20.3009 5.69135 20.3026C5.69081 20.3028 5.69028 20.3028 5.68974 20.3028C5.68921 20.3031 5.68841 20.3034 5.68787 20.3036C5.68787 20.3036 5.68734 20.3036 5.6868 20.3039C5.68573 20.3044 5.68493 20.305 5.68386 20.3052C5.68199 20.306 5.67986 20.3068 5.67799 20.3076C5.67718 20.3079 5.67611 20.3082 5.67531 20.3082L5.67451 20.3087C5.67344 20.3093 5.67264 20.3095 5.67157 20.3101C5.67077 20.3103 5.66997 20.3106 5.6689 20.3109H5.66863C5.6681 20.3111 5.66756 20.3114 5.66676 20.3117C5.66623 20.3119 5.66569 20.3119 5.66516 20.3122C5.66355 20.313 5.66195 20.3141 5.66008 20.3149C5.65928 20.3152 5.65848 20.3154 5.65768 20.3157C5.65714 20.316 5.65661 20.3168 5.65661 20.3168C5.65367 20.3186 5.65046 20.3208 5.64725 20.3227C5.64512 20.3237 5.64298 20.3245 5.64084 20.3253C5.63817 20.3267 5.63576 20.3278 5.63309 20.3288C5.63149 20.3294 5.62988 20.3302 5.62801 20.3304C5.62694 20.3307 5.62561 20.3307 5.62454 20.331C5.62374 20.3312 5.62293 20.3312 5.62213 20.3315H5.62106L5.62 20.331C5.63523 20.4569 5.65393 20.5824 5.67585 20.7076C5.72716 20.9994 5.79877 21.2873 5.88108 21.572C5.90594 21.7976 5.9682 22.0153 6.04436 22.2292C6.04757 22.2407 6.05078 22.2525 6.05398 22.264C6.07723 22.3452 6.10289 22.4256 6.12988 22.5055C6.12907 22.4677 6.12694 22.4297 6.12934 22.3919C6.12934 22.3557 6.13068 22.3214 6.13362 22.2868C6.13415 22.1729 6.14671 22.0517 6.19214 21.9464C6.20203 21.8984 6.23196 21.855 6.26216 21.8175C6.2806 21.7942 6.29957 21.7724 6.32148 21.7553C6.33645 21.736 6.35221 21.7178 6.36825 21.7009C6.39283 21.6545 6.43773 21.6124 6.47434 21.5808C6.5334 21.5299 6.59513 21.4827 6.65713 21.4358C6.65927 21.4304 6.66221 21.4251 6.66808 21.4194C6.75975 21.3256 6.86824 21.2468 6.9901 21.1999C6.99358 21.1983 6.99812 21.1962 7.00266 21.1938C7.01282 21.1887 7.02511 21.1849 7.0382 21.1822C7.1288 21.145 7.23061 21.1308 7.33189 21.1246C7.39202 21.1125 7.45348 21.1034 7.50987 21.0852C7.5847 21.0611 7.66674 21.0359 7.73435 20.996C7.76 20.9807 7.78245 20.9646 7.80623 20.9504C7.83189 20.9193 7.86048 20.8912 7.88827 20.8625C7.9011 20.8429 7.91607 20.8244 7.93183 20.807C7.96069 20.7397 7.98929 20.6866 8.00211 20.6167H8.00131C8.00505 20.5902 8.00799 20.5655 8.01013 20.5408Z" fill="white"/>
<path opacity="0.2" d="M7.80877 28.5965C7.80851 28.6029 7.8077 28.6093 7.80637 28.6155C7.80503 28.6211 7.80289 28.6257 7.80022 28.63C7.79995 28.6351 7.79915 28.6404 7.79648 28.6463C7.79541 28.6488 7.79434 28.6506 7.79327 28.6528C7.7922 28.6603 7.7882 28.6683 7.78018 28.6772C7.7441 28.7176 7.70241 28.7372 7.65859 28.7428C7.58804 28.7581 7.5239 28.7321 7.46057 28.6959C7.43117 28.6809 7.40311 28.6638 7.37773 28.6469C7.37666 28.6461 7.37585 28.6455 7.37505 28.6447C7.36917 28.641 7.36329 28.637 7.35742 28.6329C7.35581 28.6319 7.35421 28.6311 7.35261 28.63L7.35314 28.6297C7.35234 28.6292 7.35154 28.6284 7.35047 28.6278C7.32882 28.6163 7.31065 28.6008 7.29301 28.5842C7.27751 28.5737 7.26282 28.5616 7.24865 28.5493C7.23021 28.5381 7.21124 28.5265 7.1944 28.5129C7.19307 28.5121 7.19173 28.5113 7.19039 28.5104C7.0811 28.4531 6.97233 28.3965 6.85074 28.3665C6.71365 28.3325 6.58511 28.3373 6.44802 28.3427C6.40633 28.3507 6.36545 28.3601 6.32536 28.374C6.25882 28.3973 6.2035 28.4276 6.14204 28.4469C6.0787 28.4756 6.0119 28.4965 5.94001 28.5051C5.83766 28.5174 5.74065 28.5024 5.63937 28.4895C5.55974 28.4796 5.48464 28.4917 5.40768 28.5011C5.39646 28.5048 5.38497 28.508 5.37347 28.5107C5.35504 28.5198 5.3366 28.5295 5.31976 28.5394C5.30212 28.5496 5.28903 28.5624 5.27593 28.5761C5.27513 28.5772 5.27433 28.5783 5.27353 28.5793C5.2428 28.6785 5.2893 28.7897 5.31789 28.8844C5.34835 28.9854 5.37321 29.0889 5.37748 29.1947C5.38096 29.2805 5.37294 29.3727 5.27941 29.4011C5.2591 29.4073 5.24039 29.41 5.22302 29.4102C5.28716 29.4424 5.35183 29.4724 5.42291 29.4893C5.55359 29.5204 5.69202 29.5284 5.8259 29.5316C6.08245 29.5375 6.34006 29.5089 6.59126 29.4587C6.82883 29.4113 7.06239 29.3419 7.28874 29.255C7.52711 29.1636 7.80156 29.0168 7.82801 28.731C7.83229 28.6857 7.82534 28.6394 7.80877 28.5965Z" fill="white"/>
<path opacity="0.2" d="M11.4953 30.9708C11.4782 30.9135 11.4408 30.8564 11.3975 30.8068C11.3929 30.8052 11.3887 30.8031 11.3847 30.7998C11.2962 30.7248 11.2246 30.6594 11.1174 30.6106C11.0373 30.5742 10.9499 30.5482 10.8692 30.5112C10.7446 30.4723 10.6188 30.4404 10.4916 30.4109C10.4451 30.4098 10.4036 30.4056 10.3625 30.3911C10.3612 30.3911 10.3596 30.3916 10.3582 30.3916C10.3304 30.3908 10.3064 30.3889 10.2834 30.3833C10.0782 30.3557 9.86544 30.3166 9.65887 30.3174C9.49853 30.3179 9.33899 30.3549 9.17919 30.3739C8.91195 30.4375 8.42345 30.5015 8.45151 30.2037C8.45151 30.2032 8.45151 30.2024 8.45151 30.2024C8.45151 30.1992 8.45151 30.196 8.45178 30.1927C8.45231 30.1903 8.45285 30.1882 8.45338 30.186C8.45365 30.185 8.45365 30.1839 8.45391 30.1826C8.45472 30.1785 8.45605 30.1742 8.45766 30.17C8.46006 30.1625 8.463 30.155 8.46781 30.1461C8.46888 30.144 8.47048 30.1421 8.47182 30.1399L8.47209 30.1394C7.75964 30.3761 7.03357 30.5704 6.29787 30.7186C6.25218 30.7277 6.20675 30.7366 6.16105 30.7454C6.11161 30.7492 6.06217 30.7527 6.01274 30.7543C5.76341 30.762 5.51381 30.7508 5.26609 30.7213C5.22948 30.7066 5.19099 30.6958 5.15198 30.6921C5.16427 30.6972 5.17576 30.7047 5.18618 30.7127C5.18672 30.713 5.18752 30.713 5.18805 30.7133C5.19527 30.7162 5.20222 30.7189 5.20943 30.7218C5.21879 30.7261 5.22734 30.732 5.23535 30.7385C5.24952 30.7414 5.26475 30.7489 5.27918 30.7594C5.28907 30.765 5.29815 30.7717 5.30617 30.7797C5.30724 30.7808 5.30831 30.7821 5.30938 30.7832C5.31339 30.7856 5.31713 30.788 5.32007 30.7905C5.32541 30.7947 5.33049 30.7988 5.33583 30.8031C5.34225 30.8068 5.35 30.8116 5.35801 30.8175C5.42108 30.8572 5.47266 30.9014 5.52076 30.9623C5.54294 30.9904 5.56726 31.0161 5.59158 31.0419C5.65785 31.1086 5.72172 31.181 5.77543 31.259C5.78265 31.267 5.79013 31.2751 5.79761 31.2834C5.80216 31.2885 5.80616 31.2933 5.80937 31.2984C5.82621 31.3153 5.84037 31.3348 5.85373 31.3555C5.85694 31.3595 5.86015 31.3638 5.86335 31.3678C5.87538 31.3833 5.88714 31.3992 5.89836 31.415C5.90932 31.4292 5.92108 31.4428 5.9347 31.4554C5.97906 31.4965 6.02075 31.5423 6.06912 31.5785C6.09317 31.5964 6.11562 31.6155 6.137 31.6356C6.17201 31.6562 6.20755 31.6763 6.24122 31.6993C6.31017 31.7374 6.37377 31.787 6.43603 31.8371C6.44485 31.8411 6.45421 31.8462 6.46409 31.8537C6.63753 31.9843 6.86494 32.0727 7.00711 32.2357C7.03918 32.2622 7.06911 32.2914 7.09717 32.3225C7.11213 32.3391 7.12469 32.3568 7.13619 32.3751C7.18536 32.4182 7.21662 32.4748 7.24949 32.5324C7.27755 32.5814 7.31016 32.6334 7.33046 32.6881C7.33394 32.6948 7.33715 32.7015 7.33902 32.7082C7.33928 32.709 7.34009 32.7098 7.34035 32.7104C7.39139 32.8186 7.44484 32.9446 7.46675 33.0709C7.47317 33.0821 7.47824 33.0926 7.48065 33.099C7.54398 33.2673 7.58247 33.4493 7.63404 33.6219C7.64206 33.6485 7.64954 33.675 7.65649 33.7018C7.66718 33.73 7.6776 33.7584 7.68695 33.787C7.69631 33.8152 7.70326 33.8441 7.7094 33.8731C7.72944 33.9251 7.74788 33.9771 7.76418 34.0302C7.76873 34.0352 7.77247 34.0419 7.77514 34.0516C7.82618 34.2422 7.95445 34.4448 8.11025 34.5759C8.16343 34.5957 8.20913 34.641 8.25723 34.6691C8.30533 34.6973 8.34515 34.7128 8.39833 34.7233H8.39886C8.43387 34.7284 8.46861 34.7305 8.50309 34.7305C8.63831 34.6707 8.78662 34.6809 8.90073 34.5681C8.92905 34.5402 8.95979 34.5129 8.98918 34.485C9.00281 34.4665 9.01617 34.4475 9.02873 34.4271C9.08432 34.337 9.12547 34.2384 9.18186 34.1492C9.2329 34.0682 9.2965 34.0237 9.36972 33.9658C9.37534 33.9613 9.38068 33.957 9.38602 33.9524C9.40767 33.9299 9.43065 33.9079 9.45363 33.8868C9.45898 33.8806 9.46432 33.8742 9.4702 33.8685C9.49559 33.8439 9.52124 33.8203 9.5469 33.7964C9.56855 33.7742 9.59046 33.7525 9.61291 33.7313C9.61985 33.7238 9.62707 33.7168 9.63375 33.709C9.6415 33.7002 9.64898 33.6938 9.6562 33.6887C9.66796 33.6766 9.68078 33.6659 9.69441 33.6554C9.69735 33.6514 9.70029 33.6474 9.70323 33.6434C9.71151 33.6329 9.72595 33.6211 9.74198 33.612C9.74839 33.604 9.75748 33.5959 9.7663 33.5876C9.77645 33.5718 9.78794 33.5568 9.80024 33.5423C9.80131 33.5321 9.80237 33.5222 9.80237 33.512C9.80692 33.5163 9.81173 33.5204 9.81654 33.5241C9.82081 33.5196 9.82455 33.5147 9.8291 33.5102C9.83765 33.5016 9.84593 33.4954 9.85395 33.4909C9.85636 33.4877 9.85903 33.4847 9.86143 33.4818C9.87373 33.4649 9.88602 33.4483 9.89831 33.4314C9.91515 33.4011 9.93278 33.3716 9.95203 33.3432C9.98115 33.2834 10.0207 33.2325 10.0675 33.1853C10.0677 33.1848 10.0685 33.184 10.0685 33.184C10.0728 33.1786 10.0771 33.1738 10.0816 33.1695C10.0824 33.1684 10.083 33.1676 10.0838 33.1666C10.0867 33.1625 10.0899 33.1593 10.0929 33.1558C10.0939 33.1548 10.0947 33.1537 10.0958 33.1523C10.0963 33.1518 10.0969 33.1513 10.0971 33.1507C10.1134 33.132 10.1311 33.1162 10.1516 33.1025C10.2289 33.0274 10.3339 32.9846 10.436 32.9551C10.4659 32.9465 10.4964 32.939 10.5268 32.9312C10.5982 32.8983 10.6722 32.8698 10.7329 32.8203C10.7893 32.7742 10.8462 32.7329 10.906 32.6932C10.9087 32.6905 10.9114 32.6879 10.9141 32.6852C10.9285 32.6688 10.9427 32.6522 10.9563 32.6348C10.9755 32.6104 10.9972 32.586 11.0178 32.5611C11.0463 32.5209 11.0715 32.4788 11.0907 32.4332C11.1118 32.3839 11.1249 32.3316 11.134 32.2778C11.15 32.1679 11.1514 32.0548 11.1735 31.9462C11.1738 31.9363 11.1746 31.9266 11.1754 31.9167C11.1727 31.8915 11.1725 31.8647 11.1754 31.835C11.1816 31.7712 11.2011 31.7146 11.2257 31.6605C11.2452 31.5962 11.2727 31.5334 11.309 31.4782C11.359 31.3707 11.4328 31.2729 11.4827 31.1654C11.4846 31.1577 11.4865 31.1499 11.4881 31.1421C11.4948 31.0904 11.4996 31.0387 11.499 30.9858C11.498 30.9813 11.4969 30.9762 11.4953 30.9708Z" fill="white"/>
<path opacity="0.2" d="M22.8632 29.2499C22.8624 29.2223 22.8614 29.1947 22.8606 29.1671C22.8587 29.1676 22.8568 29.1687 22.855 29.169H22.852C22.852 29.169 22.8517 29.1695 22.8515 29.17C22.8491 29.1743 22.8459 29.1778 22.8411 29.1802C22.8395 29.1813 22.8379 29.1821 22.836 29.1829L22.8357 29.1834C22.8277 29.1974 22.8055 29.1993 22.7922 29.1982C22.79 29.1979 22.7876 29.1974 22.7855 29.1971C22.7801 29.1971 22.7745 29.1963 22.7692 29.1952C22.747 29.1963 22.7232 29.1923 22.7008 29.1853C22.6946 29.1842 22.6879 29.1824 22.6805 29.1797C22.6743 29.1775 22.6687 29.1751 22.6631 29.1727C22.6265 29.1617 22.5904 29.1467 22.5511 29.1355C22.4814 29.1156 22.4095 29.1046 22.3376 29.0939C22.3306 29.0928 22.3229 29.0915 22.3151 29.0902C22.3095 29.0904 22.3039 29.0902 22.2983 29.0894C22.263 29.0851 22.224 29.0781 22.1885 29.0816C22.1807 29.0835 22.173 29.0848 22.1655 29.0851C22.1601 29.0861 22.1548 29.0875 22.15 29.0888C22.1471 29.0899 22.1444 29.091 22.1417 29.0918C22.1406 29.092 22.1398 29.0923 22.1388 29.0926C22.1372 29.0931 22.1358 29.0934 22.1342 29.0937C22.1243 29.0987 22.1142 29.1038 22.1038 29.1084C22.1024 29.1092 22.1006 29.11 22.0992 29.1108C22.0987 29.1113 22.0982 29.1119 22.0976 29.1124C22.088 29.1202 22.0776 29.1269 22.0672 29.1339C22.0661 29.1349 22.0653 29.1363 22.0642 29.1373C22.0594 29.1427 22.0543 29.1481 22.0498 29.1537C22.046 29.1585 22.0418 29.1628 22.0372 29.1668C22.0348 29.1706 22.0324 29.1741 22.03 29.177C22.0284 29.1789 22.0268 29.1808 22.0252 29.1826C22.0231 29.1893 22.0199 29.1955 22.0161 29.2014C22.0108 29.2156 22.0001 29.229 21.9902 29.2395C21.9897 29.2405 21.9891 29.2419 21.9886 29.2427C21.9661 29.2746 21.9418 29.3057 21.9098 29.3284C21.8822 29.3483 21.84 29.3729 21.8039 29.3611C21.798 29.3609 21.7924 29.3598 21.7871 29.3582C21.7387 29.352 21.6917 29.3295 21.6471 29.3113C21.6075 29.299 21.5682 29.2874 21.5276 29.2786C21.4934 29.2711 21.4584 29.2622 21.4274 29.2456L21.4263 29.2451L21.4261 29.2454C21.4255 29.2451 21.425 29.2448 21.4245 29.2446C21.4116 29.2389 21.3991 29.2333 21.3868 29.2269C21.2858 29.2049 21.1901 29.154 21.0883 29.1258C20.9456 29.0936 20.8389 29.0757 20.7377 28.9586C20.6837 28.8961 20.6535 28.824 20.6121 28.7538C20.5984 28.7307 20.5851 28.7096 20.5733 28.6879C20.4953 28.5946 20.4413 28.515 20.309 28.4707C20.2989 28.4673 20.2887 28.4638 20.2788 28.46C20.0955 28.4212 19.9149 28.4772 19.7339 28.4916C19.6981 28.5013 19.6623 28.5109 19.6278 28.5249C19.6201 28.5281 19.6123 28.5308 19.6046 28.5337C19.5562 28.5603 19.5111 28.593 19.4614 28.6342C19.4539 28.6404 19.4461 28.6463 19.4384 28.6525C19.3416 28.7524 19.2195 28.8283 19.0814 28.8505C18.9395 28.8733 18.8259 28.8739 18.7048 28.9637C18.6736 28.987 18.6452 29.0132 18.6172 29.0395C18.5827 29.088 18.5434 29.133 18.5039 29.1778C18.4865 29.2148 18.4659 29.2499 18.4453 29.285C18.4296 29.3306 18.4069 29.374 18.3871 29.4182C18.3868 29.419 18.3871 29.4198 18.3868 29.4209C18.3724 29.4764 18.355 29.5284 18.3358 29.5793C18.3294 29.6193 18.3192 29.6573 18.3066 29.6962C18.3082 29.7024 18.308 29.7101 18.305 29.7203C18.2994 29.7391 18.2922 29.7562 18.2842 29.7728C18.2845 29.7787 18.2837 29.7854 18.2805 29.7943C18.2722 29.8168 18.2617 29.8382 18.25 29.8591C18.2497 29.8672 18.2465 29.8771 18.239 29.89C18.2334 29.8991 18.2275 29.9079 18.2219 29.917C18.2203 29.9224 18.2179 29.928 18.2144 29.9345C18.2 29.9607 18.1824 29.9841 18.1639 30.0063C18.1607 30.0143 18.1562 30.0232 18.1484 30.0334C18.141 30.0436 18.1343 30.0516 18.1276 30.0591C18.1271 30.0728 18.1174 30.0902 18.0955 30.1108C18.0934 30.1207 18.0872 30.1325 18.0747 30.147C18.0675 30.1553 18.06 30.1636 18.0528 30.1717C18.0236 30.2121 17.9918 30.2507 17.9576 30.2872C17.9544 30.2939 17.9499 30.3006 17.9437 30.3065C17.8817 30.3676 17.8251 30.4338 17.7607 30.4928C17.7516 30.5011 17.7425 30.5091 17.7334 30.5172C17.7088 30.5512 17.6827 30.5839 17.6562 30.6169C17.618 30.6914 17.5913 30.7705 17.5579 30.8535C17.5563 30.8578 17.5541 30.8621 17.5517 30.8661C17.5365 30.9042 17.5204 30.942 17.5031 30.9787C17.5004 30.9846 17.4945 30.9908 17.4878 30.9969C17.4451 31.1401 17.4085 31.2864 17.3882 31.4304C17.3866 31.4419 17.3855 31.4537 17.3842 31.4652C17.389 31.4976 17.3932 31.5303 17.3962 31.5633C17.4015 31.6244 17.4045 31.6858 17.4069 31.7472C17.4119 31.7946 17.4178 31.842 17.4224 31.8895C17.4315 31.9372 17.4392 31.9846 17.4389 32.0329C17.4499 32.0921 17.4595 32.1516 17.4707 32.2109C17.494 32.3331 17.5277 32.4529 17.5504 32.5746C17.5659 32.6344 17.5822 32.6939 17.6011 32.7528C17.6236 32.8222 17.645 32.8914 17.6559 32.9624C17.6853 33.0487 17.734 33.1337 17.7732 33.2114C17.7973 33.2589 17.8203 33.3063 17.8427 33.354C17.9141 33.4682 17.9905 33.5508 18.0899 33.6443C18.1297 33.6818 18.1637 33.7207 18.2 33.7563C18.2738 33.7998 18.3497 33.837 18.4352 33.8681C18.5041 33.8933 18.5728 33.918 18.642 33.9407C18.7257 33.9442 18.808 33.9635 18.893 33.9541C18.9902 33.9437 19.0846 33.9155 19.1821 33.9029C19.3093 33.8863 19.4443 33.8491 19.5626 33.7976C19.6353 33.7657 19.6981 33.7226 19.7716 33.6944C19.774 33.6928 19.7759 33.6909 19.7783 33.6896C19.7858 33.6858 19.7933 33.6821 19.8005 33.6783C19.8189 33.6703 19.8408 33.6663 19.8609 33.67C19.8627 33.6703 19.8643 33.6714 19.8662 33.6719C20.0485 33.6191 20.2115 33.6301 20.3911 33.6966C20.5292 33.7478 20.6882 33.762 20.821 33.8225C20.9164 33.866 20.9373 33.9415 20.9199 34.0305C20.9186 34.1128 20.8876 34.1852 20.8547 34.2586C20.8411 34.3074 20.8194 34.3543 20.7986 34.4015C20.7484 34.5698 20.7283 34.7271 20.7462 34.8981C20.7473 34.9027 20.7486 34.9075 20.7497 34.9121C20.7502 34.9132 20.7505 34.9142 20.751 34.9156C20.7823 34.9678 20.8216 35.0172 20.8405 35.0753C20.859 35.1327 20.8793 35.1892 20.8964 35.2466C20.9071 35.2675 20.9162 35.2889 20.9213 35.3115C20.9255 35.331 20.9261 35.3498 20.9247 35.3683C20.9266 35.3795 20.9282 35.3908 20.9295 35.4023C20.9402 35.502 20.9343 35.6049 20.9183 35.7039C20.918 35.7049 20.9178 35.7063 20.9175 35.7073C20.9114 35.8137 20.8932 35.9172 20.8651 36.0191C20.8651 36.0199 20.8651 36.0207 20.8651 36.0217C20.8462 36.1445 20.8042 36.2592 20.7419 36.3664C20.7406 36.3686 20.7393 36.3707 20.7379 36.3729C20.7056 36.4527 20.654 36.5254 20.615 36.6039C20.5968 36.665 20.5859 36.7288 20.5693 36.7905C20.5546 36.8459 20.5426 36.9014 20.5324 36.9574C20.53 36.9885 20.5287 37.0196 20.5279 37.0507C20.5276 37.0577 20.5282 37.0644 20.5284 37.0713C20.5287 37.0724 20.529 37.073 20.5292 37.074C20.5335 37.0965 20.5367 37.1188 20.5394 37.1413C20.5434 37.1633 20.5477 37.185 20.5525 37.2067C20.6129 37.3828 20.7369 37.545 20.8865 37.6506C20.9865 37.7213 21.103 37.7693 21.1527 37.8642C21.1628 37.8768 21.1722 37.8902 21.1799 37.9039C21.193 37.9272 21.1981 37.9497 21.1957 37.9714C21.4212 37.5916 21.6086 37.1901 21.77 36.7779C21.9824 36.2351 22.1412 35.6725 22.2729 35.1051C22.4065 34.5285 22.5126 33.9464 22.6171 33.3639C22.7414 32.6719 22.8421 31.9782 22.8734 31.2752C22.902 30.5997 22.8852 29.9243 22.8632 29.2499Z" fill="white"/>
<path opacity="0.2" d="M22.6968 28.0696C22.654 27.7686 22.5808 27.4729 22.495 27.1816C22.4522 27.0355 22.4063 26.8905 22.3598 26.7455C22.3069 26.5809 22.2534 26.419 22.1847 26.2601C22.1545 26.1899 22.1193 26.1218 22.0746 26.0596C22.0297 25.9969 21.983 25.9358 21.929 25.8814C21.8248 25.5879 21.6492 25.3298 21.4453 25.0947C21.2492 24.8682 21.0255 24.6629 20.7986 24.468C20.5429 24.2485 20.2713 24.04 19.9723 23.8829C19.6679 23.7229 19.3406 23.616 19.0095 23.5275C18.715 23.4487 18.417 23.3793 18.13 23.2764C18.1321 23.2799 18.1343 23.2831 18.1362 23.2868C18.1407 23.2924 18.1444 23.2981 18.1476 23.3034C18.1541 23.3123 18.1586 23.3209 18.1599 23.3292C18.1629 23.3458 18.1645 23.357 18.165 23.3686C18.1688 23.3935 18.1704 23.4187 18.1706 23.4442C18.1712 23.4514 18.1714 23.4586 18.1717 23.4659C18.181 23.5361 18.1843 23.6066 18.1525 23.672C18.1466 23.7028 18.1399 23.7339 18.1332 23.7653C18.1319 23.8296 18.1321 23.8942 18.1335 23.9588C18.1364 23.9875 18.1407 24.0159 18.1463 24.0443C18.1546 24.0617 18.1626 24.0794 18.1714 24.0965C18.1808 24.1156 18.1909 24.133 18.2016 24.1502C18.2318 24.1906 18.2674 24.2268 18.3096 24.2552C18.3609 24.2901 18.4151 24.3083 18.4713 24.3209C18.6335 24.3297 18.7986 24.3356 18.9357 24.4345C19.0469 24.5149 19.1345 24.6235 19.2762 24.6514C19.3318 24.6624 19.3716 24.6562 19.4007 24.6382C19.4531 24.5694 19.4376 24.4675 19.4079 24.3882C19.3734 24.2954 19.3018 24.2292 19.2425 24.1526C19.2406 24.1502 19.2385 24.1469 19.2364 24.1437C19.2019 24.1183 19.1706 24.0866 19.1423 24.0534C19.0536 23.9899 18.9528 23.9092 18.9077 23.8183C18.8684 23.739 18.835 23.6114 18.9531 23.5905C19.0747 23.5691 19.1925 23.6773 19.2756 23.7516C19.3499 23.8183 19.4151 23.8979 19.4974 23.9553C19.5533 23.9942 19.6164 24.0121 19.6786 24.0338C19.7719 24.0309 19.8654 24.0285 19.959 24.0218C20.0252 24.0169 20.072 24.0153 20.1115 24.0279C20.1492 24.037 20.1952 24.0638 20.2123 24.0901C20.2428 24.1311 20.2687 24.1684 20.2807 24.219C20.281 24.2198 20.2807 24.2201 20.281 24.2209C20.3203 24.3035 20.3483 24.3852 20.3563 24.4892C20.3633 24.5795 20.3569 24.6666 20.3339 24.7508C20.3021 24.9232 20.2235 25.103 20.0731 25.1671C20.0674 25.1695 20.0616 25.1716 20.056 25.1738C19.9873 25.2239 19.9047 25.2603 19.812 25.2847C19.5522 25.3533 19.3037 25.449 19.099 25.623C19.0717 25.6495 19.045 25.6771 19.0196 25.7066C18.9844 25.7474 18.9373 25.8106 18.8833 25.8543C18.8438 25.9055 18.8002 25.9532 18.7658 26.0084C18.7064 26.1041 18.661 26.2033 18.6311 26.3118C18.63 26.3156 18.6292 26.3193 18.6281 26.3234C18.614 26.4338 18.5995 26.5431 18.6092 26.6533C18.6297 26.7155 18.6565 26.775 18.6904 26.8318C18.7788 26.9334 18.8732 27.035 18.9921 27.0961C19.1412 27.1727 19.3352 27.2073 19.5047 27.2001C19.6297 27.1703 19.7486 27.1269 19.8686 27.0701C20.0159 27.0004 20.1022 26.8784 20.2353 26.7921C20.2906 26.7562 20.3432 26.7428 20.3903 26.746C20.3913 26.745 20.3924 26.7442 20.394 26.7434C20.3991 26.7418 20.4039 26.7401 20.409 26.7385C20.4221 26.7369 20.4346 26.7383 20.4472 26.7423C20.4544 26.7452 20.4614 26.7479 20.4686 26.7509C20.4801 26.7562 20.4905 26.7632 20.4996 26.7715C20.5009 26.7726 20.5022 26.7739 20.5036 26.775C20.5348 26.7962 20.5656 26.8259 20.5661 26.8508C20.5843 26.8717 20.5995 26.8951 20.6155 26.9178C20.7329 27.0213 20.871 27.0913 21.0105 27.1599C21.0992 27.2036 21.1837 27.2491 21.2457 27.3287C21.3234 27.4287 21.3205 27.5627 21.4611 27.5965C21.498 27.6053 21.5503 27.6147 21.5974 27.6102C21.6305 27.596 21.6623 27.5745 21.6925 27.5491C21.7045 27.5311 21.7171 27.5137 21.7307 27.4968C21.7508 27.4638 21.7748 27.4386 21.8013 27.4164C21.8184 27.3957 21.8376 27.377 21.8595 27.3601C21.8617 27.358 21.8635 27.3555 21.8657 27.3531C21.9023 27.3041 21.9319 27.2599 21.9504 27.2108C21.9522 27.1891 21.9544 27.1674 21.9579 27.1459C21.953 27.1084 21.9469 27.073 21.9424 27.0438C21.9269 26.9428 21.8951 26.8431 21.8788 26.742C21.8421 26.6244 21.817 26.5053 21.8574 26.4097C21.8619 26.3901 21.8697 26.3721 21.8806 26.3563C21.9015 26.3089 21.9359 26.2762 21.9913 26.2748C22.0212 26.2633 22.0551 26.266 22.0877 26.2805C22.1217 26.2872 22.1508 26.3102 22.1746 26.3416C22.189 26.3523 22.2002 26.3633 22.2048 26.3721C22.2184 26.3995 22.2286 26.4274 22.2363 26.4558C22.2467 26.4668 22.2548 26.4777 22.2577 26.4871C22.2601 26.4941 22.262 26.5013 22.2638 26.5083C22.2687 26.515 22.2727 26.5217 22.2745 26.5276C22.2817 26.5506 22.2884 26.574 22.2948 26.597C22.2978 26.6064 22.3002 26.6158 22.3023 26.6252C22.3026 26.6262 22.3029 26.6273 22.3031 26.6284C22.309 26.6477 22.3149 26.667 22.3205 26.686C22.359 26.7766 22.3964 26.8648 22.4204 26.9572C22.4269 26.9755 22.4319 26.9937 22.4365 27.0122C22.4375 27.0149 22.4389 27.0173 22.4394 27.02C22.4456 27.0452 22.452 27.0693 22.4571 27.0939C22.4851 27.1518 22.4744 27.203 22.4442 27.2486C22.441 27.2591 22.437 27.269 22.4319 27.2786C22.3967 27.3464 22.3298 27.3743 22.2646 27.4051C22.2307 27.441 22.2005 27.4799 22.1711 27.5201C22.1687 27.5587 22.1687 27.5976 22.1695 27.6367C22.1708 27.6453 22.1722 27.6539 22.1743 27.6627C22.192 27.737 22.2099 27.8101 22.2414 27.8777C22.2676 27.9042 22.2946 27.9299 22.3224 27.9551C22.3625 27.986 22.4047 28.0141 22.4472 28.0425C22.4712 28.0506 22.4953 28.0586 22.5188 28.0677C22.5722 28.0889 22.6163 28.1135 22.654 28.1468C22.6719 28.1567 22.6874 28.1688 22.6954 28.18C22.6973 28.1824 22.6989 28.1851 22.7008 28.1875C22.7048 28.191 22.7085 28.1945 22.7117 28.198C22.7128 28.1551 22.7083 28.1122 22.6968 28.0696Z" fill="white"/>
<defs>
<linearGradient id="paint0_linear" x1="27.7164" y1="24.5736" x2="27.7164" y2="24.5736" gradientUnits="userSpaceOnUse">
<stop stop-color="#006837"/>
<stop offset="1" stop-color="#8DC740"/>
</linearGradient>
<linearGradient id="paint1_linear" x1="27.7164" y1="24.5736" x2="27.7164" y2="24.5736" gradientUnits="userSpaceOnUse">
<stop stop-color="#006837"/>
<stop offset="1" stop-color="#8DC740"/>
</linearGradient>
<linearGradient id="paint2_linear" x1="27.7164" y1="24.5736" x2="27.7164" y2="24.5736" gradientUnits="userSpaceOnUse">
<stop stop-color="#006837"/>
<stop offset="1" stop-color="#8DC740"/>
</linearGradient>
<linearGradient id="paint3_linear" x1="27.7164" y1="24.5736" x2="27.7164" y2="24.5736" gradientUnits="userSpaceOnUse">
<stop stop-color="#006837"/>
<stop offset="1" stop-color="#8DC740"/>
</linearGradient>
<linearGradient id="paint4_linear" x1="27.7164" y1="24.5736" x2="27.7164" y2="24.5736" gradientUnits="userSpaceOnUse">
<stop stop-color="#006837"/>
<stop offset="1" stop-color="#8DC740"/>
</linearGradient>
<linearGradient id="paint5_linear" x1="27.7164" y1="24.5736" x2="27.7164" y2="24.5736" gradientUnits="userSpaceOnUse">
<stop stop-color="#006837"/>
<stop offset="1" stop-color="#8DC740"/>
</linearGradient>
<linearGradient id="paint6_linear" x1="27.7164" y1="24.5736" x2="27.7164" y2="24.5736" gradientUnits="userSpaceOnUse">
<stop stop-color="#006837"/>
<stop offset="1" stop-color="#8DC740"/>
</linearGradient>
<linearGradient id="paint7_linear" x1="27.7164" y1="24.5736" x2="27.7164" y2="24.5736" gradientUnits="userSpaceOnUse">
<stop stop-color="#006837"/>
<stop offset="1" stop-color="#8DC740"/>
</linearGradient>
<linearGradient id="paint8_linear" x1="69.1962" y1="-33.1533" x2="-9.44782" y2="43.288" gradientUnits="userSpaceOnUse">
<stop stop-color="#8CC63F"/>
<stop offset="0.9888" stop-color="#006837"/>
</linearGradient>
</defs>
</svg>
