<svg width="339" height="106" viewBox="0 0 339 106" fill="none" xmlns="http://www.w3.org/2000/svg">
<rect x="7.16797" y="1.87109" width="330.482" height="82" rx="8" transform="rotate(3.49802 7.16797 1.87109)" fill="#D3FF98" stroke="#73C49E" stroke-width="3"/>
<path d="M56.3474 65.9905C67.3725 66.6644 76.8565 58.2731 77.5304 47.248C78.2043 36.2229 69.8131 26.7389 58.7879 26.065C47.7628 25.3911 38.2789 33.7823 37.6049 44.8075C36.931 55.8326 45.3223 65.3165 56.3474 65.9905Z" fill="white" stroke="#006837" stroke-width="3" stroke-linecap="round" stroke-linejoin="round"/>
<path d="M37.6055 44.8076L77.5309 47.2482" stroke="#006837" stroke-width="3" stroke-linecap="round" stroke-linejoin="round"/>
<path d="M58.7888 26.0653C63.4479 31.837 65.8519 39.1046 65.5536 46.5161C64.9469 53.9088 61.6756 60.8295 56.3482 65.9907C51.6892 60.219 49.2852 52.9514 49.5834 45.5399C50.1901 38.1472 53.4614 31.2265 58.7888 26.0653V26.0653Z" stroke="#006837" stroke-width="3" stroke-linecap="round" stroke-linejoin="round"/>
<path d="M117.447 42.1065L119.736 42.2464L120.182 34.9543C120.279 33.3604 121.457 32.3194 122.758 32.399C124.028 32.4766 124.857 33.3774 124.778 34.6634L124.297 42.5253L126.578 42.6647L127.039 35.1262C127.126 33.7017 128.054 32.7227 129.547 32.8139C130.756 32.8879 131.709 33.6263 131.611 35.2279L131.14 42.9435L133.428 43.0834L133.913 35.1522C134.078 32.4494 132.661 31.0102 130.533 30.8802C128.841 30.7768 127.521 31.5153 126.877 32.7435L126.755 32.736C126.321 31.4111 125.29 30.5597 123.721 30.4638C122.167 30.3688 120.964 31.0759 120.395 32.3473L120.249 32.3384L120.367 30.4133L118.17 30.279L117.447 42.1065Z" fill="#006837"/>
<path d="M139.901 43.7418C141.845 43.8607 143 42.9343 143.49 42.0754L143.582 42.081L143.483 43.6981L145.718 43.8347L146.198 35.9805C146.409 32.5385 143.756 31.6885 141.889 31.5743C139.761 31.4443 137.749 32.1869 136.852 34.2962L138.973 34.9205C139.361 34.1017 140.267 33.3456 141.806 33.4396C143.283 33.5299 143.993 34.354 143.911 35.6938L143.908 35.7477C143.856 36.587 143 36.5192 140.873 36.6365C138.63 36.7622 136.313 37.208 136.149 39.8953C136.007 42.2208 137.666 43.6052 139.901 43.7418ZM140.511 41.9242C139.218 41.8451 138.32 41.2028 138.389 40.0632C138.465 38.8312 139.578 38.4587 140.913 38.3625C141.662 38.3078 143.434 38.2152 143.784 37.9042L143.69 39.4289C143.605 40.8303 142.417 42.0407 140.511 41.9242Z" fill="#006837"/>
<path d="M148.766 44.021L151.055 44.1609L151.311 39.9643L152.522 38.8867L156.19 44.4748L158.999 44.6465L154.33 37.5828L159.401 32.7994L156.661 32.6319L151.671 37.3507L151.472 37.3385L152.019 28.3909L149.73 28.251L148.766 44.021Z" fill="#006837"/>
<path d="M165.331 45.2732C167.895 45.4299 169.787 44.2703 170.425 42.377L168.283 41.8519C167.801 42.9432 166.772 43.4522 165.471 43.3726C163.511 43.2529 162.273 41.8942 162.351 39.6112L170.709 40.1221L170.759 39.3058C171.02 35.0322 168.581 33.206 165.918 33.0432C162.642 32.8429 160.33 35.2212 160.108 38.8557C159.883 42.5287 161.864 45.0612 165.331 45.2732ZM162.464 37.8868C162.659 36.2138 163.957 34.8323 165.817 34.946C167.592 35.0546 168.675 36.4501 168.572 38.2601L162.464 37.8868Z" fill="#006837"/>
<path d="M182.038 46.3176C183.982 46.4364 185.137 45.51 185.627 44.6512L185.719 44.6568L185.62 46.2738L187.855 46.4104L188.335 38.5562C188.546 35.1142 185.894 34.2642 184.026 34.1501C181.898 34.02 179.886 34.7627 178.989 36.8719L181.11 37.4962C181.498 36.6775 182.404 35.9214 183.943 36.0154C185.42 36.1057 186.13 36.9297 186.048 38.2696L186.045 38.3235C185.994 39.1628 185.137 39.095 183.01 39.2123C180.767 39.3379 178.45 39.7837 178.286 42.4711C178.144 44.7966 179.803 46.181 182.038 46.3176ZM182.648 44.5C181.355 44.4209 180.457 43.7786 180.527 42.639C180.602 41.4069 181.716 41.0345 183.05 40.9383C183.799 40.8836 185.572 40.791 185.921 40.48L185.828 42.0046C185.742 43.4061 184.554 44.6165 182.648 44.5Z" fill="#006837"/>
<path d="M193.621 39.7141C193.736 37.8275 194.95 36.8197 196.542 36.917C198.096 37.012 198.975 38.0936 198.87 39.8108L198.427 47.0566L200.715 47.1965L201.175 39.6734C201.354 36.7474 199.848 35.1173 197.445 34.9704C195.677 34.8623 194.471 35.6156 193.851 36.8375L193.705 36.8286L193.823 34.9035L191.626 34.7693L190.903 46.5967L193.192 46.7366L193.621 39.7141Z" fill="#006837"/>
<path d="M209.488 47.7328L211.777 47.8727L212.5 36.0452L210.211 35.9053L209.488 47.7328ZM211.479 34.151C212.267 34.1992 212.963 33.6234 213.009 32.8688C213.055 32.1142 212.435 31.4502 211.647 31.4021C210.851 31.3534 210.162 31.9373 210.116 32.692C210.07 33.4466 210.683 34.1024 211.479 34.151Z" fill="#006837"/>
<path d="M214.856 48.0609L217.144 48.2008L217.59 40.9087C217.687 39.3148 218.865 38.2738 220.166 38.3533C221.436 38.431 222.265 39.3318 222.186 40.6177L221.706 48.4796L223.986 48.619L224.447 41.0806C224.534 39.656 225.462 38.6771 226.955 38.7683C228.164 38.8422 229.117 39.5806 229.02 41.1823L228.548 48.8979L230.836 49.0378L231.321 41.1066C231.486 38.4038 230.069 36.9646 227.941 36.8345C226.25 36.7311 224.929 37.4697 224.286 38.6979L224.163 38.6904C223.729 37.3654 222.698 36.514 221.129 36.4181C219.576 36.3231 218.372 37.0302 217.803 38.3016L217.657 38.2927L217.775 36.3677L215.579 36.2334L214.856 48.0609Z" fill="#006837"/>
<path d="M233.632 53.6606L235.921 53.8005L236.305 47.5248L236.442 47.5332C236.809 48.3131 237.571 49.6813 239.714 49.8123C242.561 49.9863 244.768 47.818 245.002 43.991C245.236 40.1563 243.277 37.772 240.437 37.5984C238.256 37.4651 237.386 38.7567 236.936 39.4634L236.744 39.4517L236.861 37.5344L234.627 37.3978L233.632 53.6606ZM236.508 43.4486C236.659 40.9768 237.83 39.4022 239.828 39.5243C241.902 39.6511 242.835 41.4781 242.692 43.8266C242.547 46.1983 241.365 47.9423 239.321 47.8174C237.354 47.6972 236.356 45.9358 236.508 43.4486Z" fill="#006837"/>
<path d="M250.611 50.5093C252.555 50.6282 253.71 49.7017 254.2 48.8429L254.292 48.8485L254.193 50.4655L256.428 50.6021L256.908 42.748C257.119 39.306 254.467 38.456 252.599 38.3418C250.471 38.2117 248.459 38.9544 247.562 41.0637L249.683 41.6879C250.071 40.8692 250.977 40.1131 252.516 40.2071C253.993 40.2974 254.703 41.1215 254.621 42.4613L254.618 42.5152C254.567 43.3545 253.71 43.2867 251.583 43.404C249.34 43.5297 247.023 43.9754 246.859 46.6628C246.717 48.9883 248.376 50.3727 250.611 50.5093ZM251.221 48.6917C249.928 48.6126 249.03 47.9703 249.1 46.8307C249.175 45.5987 250.288 45.2262 251.623 45.13C252.372 45.0753 254.145 44.9827 254.494 44.6717L254.401 46.1964C254.315 47.5978 253.127 48.8082 251.221 48.6917Z" fill="#006837"/>
<path d="M264.414 51.3299C267.192 51.4997 269.093 49.931 269.487 47.6441L267.259 47.5079C266.89 48.7684 265.857 49.4627 264.548 49.3827C262.612 49.2643 261.464 47.5633 261.621 44.9837C261.776 42.4504 263.144 40.9341 265.057 41.0511C266.512 41.1399 267.343 42.1182 267.52 43.242L269.747 43.3782C269.648 40.9762 267.809 39.2716 265.138 39.1083C261.824 38.9057 259.527 41.285 259.307 44.8963C259.089 48.4615 261 51.1212 264.414 51.3299Z" fill="#006837"/>
<path d="M277.916 40.0439L275.505 39.8966L275.678 37.0629L273.39 36.923L273.216 39.7567L271.494 39.6514L271.381 41.4995L273.103 41.6047L272.676 48.5888C272.537 50.7367 274.104 51.8759 275.913 51.9478C276.64 51.9845 277.139 51.8759 277.413 51.7921L277.116 49.8649C276.961 49.8864 276.673 49.9383 276.306 49.9159C275.563 49.8705 274.913 49.5834 274.994 48.2513L275.392 41.7446L277.803 41.892L277.916 40.0439Z" fill="#006837"/>
<path d="M120.728 69.7526C124.042 69.9552 126.357 67.6466 126.581 63.989C126.806 60.3083 124.789 57.735 121.475 57.5324C118.161 57.3298 115.846 59.6384 115.621 63.3191C115.397 66.9767 117.414 69.55 120.728 69.7526ZM120.854 67.8203C118.688 67.6879 117.794 65.7242 117.933 63.4527C118.071 61.1888 119.199 59.3255 121.365 59.4579C123.516 59.5894 124.408 61.5762 124.27 63.84C124.131 66.1116 123.004 67.9518 120.854 67.8203Z" fill="#006837"/>
<path d="M131.495 63.1223C131.61 61.2358 132.824 60.2279 134.416 60.3253C135.97 60.4202 136.848 61.5019 136.743 63.219L136.3 70.4649L138.589 70.6048L139.049 63.0817C139.228 60.1557 137.722 58.5255 135.318 58.3786C133.55 58.2706 132.344 59.0238 131.724 60.2457L131.579 60.2369L131.696 58.3118L129.5 58.1775L128.777 70.005L131.065 70.1449L131.495 63.1223Z" fill="#006837"/>
<path d="M148.539 75.634C150.43 75.7496 151.692 74.8297 152.478 73.0382L158.156 59.9524L155.685 59.7782L152.147 68.7748L152.024 68.7673L149.608 59.4067L147.159 59.257L150.728 71.5014L150.397 72.2695C149.721 73.7663 148.894 73.8548 147.66 73.4316L146.993 75.2845C147.261 75.4322 147.85 75.5919 148.539 75.634Z" fill="#006837"/>
<path d="M164.107 72.4043C167.421 72.6069 169.736 70.2983 169.96 66.6407C170.185 62.96 168.168 60.3867 164.854 60.1841C161.54 59.9815 159.225 62.29 159 65.9707C158.776 69.6283 160.793 72.2017 164.107 72.4043ZM164.233 70.472C162.067 70.3396 161.173 68.3759 161.312 66.1043C161.45 63.8405 162.578 61.9772 164.744 62.1096C166.895 62.2411 167.787 64.2279 167.649 66.4917C167.51 68.7633 166.383 70.6035 164.233 70.472Z" fill="#006837"/>
<path d="M179.903 68.2069C179.788 70.2171 178.244 71.0812 176.959 71.0026C175.543 70.916 174.626 69.8243 174.724 68.215L175.167 60.9691L172.879 60.8292L172.419 68.3523C172.24 71.2861 173.746 72.9085 176.004 73.0465C177.772 73.1546 179.031 72.2886 179.652 71.059L179.774 71.0665L179.649 73.1147L181.899 73.2523L182.622 61.4248L180.326 61.2844L179.903 68.2069Z" fill="#006837"/>
<path d="M191.185 61.9482L188.774 61.8008L188.947 58.9671L186.658 58.8273L186.485 61.6609L184.763 61.5557L184.65 63.4037L186.372 63.509L185.945 70.493C185.806 72.6409 187.373 73.7801 189.182 73.852C189.909 73.8888 190.408 73.7801 190.682 73.6964L190.385 71.7692C190.23 71.7906 189.942 71.8426 189.575 71.8201C188.832 71.7748 188.182 71.4877 188.263 70.1555L188.661 63.6489L191.072 63.7962L191.185 61.9482Z" fill="#006837"/>
<path d="M195.963 67.0632C196.079 65.1766 197.331 64.1711 198.961 64.2708C200.538 64.3672 201.417 65.4334 201.312 67.166L200.869 74.4118L203.157 74.5517L203.617 67.0286C203.797 64.0795 202.282 62.472 199.864 62.3241C198.034 62.2123 196.883 62.9458 196.254 64.1903L196.109 64.1814L196.467 58.3139L194.21 58.1759L193.246 73.9459L195.534 74.0857L195.963 67.0632Z" fill="#006837"/>
<path d="M211.915 75.0871L214.203 75.227L214.926 63.3995L212.638 63.2596L211.915 75.0871ZM213.905 61.5053C214.693 61.5535 215.389 60.9777 215.435 60.2231C215.481 59.4685 214.861 58.8045 214.073 58.7563C213.277 58.7077 212.588 59.2916 212.542 60.0462C212.496 60.8008 213.109 61.4566 213.905 61.5053Z" fill="#006837"/>
<path d="M220 68.5325C220.115 66.6459 221.329 65.6381 222.921 65.7354C224.475 65.8304 225.353 66.912 225.248 68.6292L224.805 75.875L227.094 76.0149L227.554 68.4919C227.733 65.5658 226.227 63.9357 223.823 63.7888C222.055 63.6807 220.849 64.434 220.229 65.6559L220.084 65.647L220.202 63.7219L218.005 63.5877L217.282 75.4151L219.57 75.555L220 68.5325Z" fill="#006837"/>
<path d="M242.078 65.0592L239.667 64.9118L239.84 62.0781L237.551 61.9382L237.378 64.7719L235.656 64.6666L235.543 66.5147L237.265 66.62L236.838 73.604C236.699 75.7519 238.266 76.8911 240.075 76.963C240.802 76.9997 241.301 76.8911 241.575 76.8074L241.278 74.8801C241.123 74.9016 240.835 74.9536 240.468 74.9311C239.725 74.8857 239.075 74.5986 239.156 73.2665L239.554 66.7598L241.965 66.9072L242.078 65.0592Z" fill="#006837"/>
<path d="M248.812 77.5821C251.376 77.7388 253.267 76.5792 253.906 74.686L251.764 74.1608C251.282 75.2521 250.252 75.7611 248.951 75.6816C246.992 75.5618 245.754 74.2031 245.832 71.9201L254.189 72.431L254.239 71.6148C254.501 67.3412 252.062 65.5149 249.398 65.3521C246.122 65.1518 243.811 67.5302 243.588 71.1647C243.364 74.8376 245.345 77.3702 248.812 77.5821ZM245.945 70.1957C246.139 68.5227 247.437 67.1413 249.297 67.255C251.073 67.3635 252.155 68.7591 252.052 70.5691L245.945 70.1957Z" fill="#006837"/>
<path d="M261.347 78.3483C264.125 78.5182 266.026 76.9495 266.42 74.6626L264.192 74.5264C263.823 75.7869 262.79 76.4811 261.481 76.4011C259.545 76.2828 258.396 74.5818 258.554 72.0022C258.709 69.4688 260.077 67.9526 261.99 68.0695C263.445 68.1584 264.276 69.1367 264.453 70.2605L266.68 70.3966C266.581 67.9946 264.742 66.29 262.071 66.1267C258.757 65.9242 256.46 68.3034 256.239 71.9148C256.022 75.48 257.933 78.1397 261.347 78.3483Z" fill="#006837"/>
<path d="M271.356 71.6718C271.471 69.7852 272.723 68.7797 274.353 68.8794C275.93 68.9757 276.81 70.042 276.704 71.7745L276.261 79.0204L278.549 79.1603L279.009 71.6372C279.19 68.688 277.675 67.0806 275.256 66.9327C273.427 66.8209 272.276 67.5544 271.647 68.7989L271.501 68.79L271.86 62.9225L269.602 62.7845L268.638 78.5544L270.926 78.6943L271.356 71.6718Z" fill="#006837"/>
<path d="M56.3474 65.9905C67.3725 66.6644 76.8565 58.2731 77.5304 47.248C78.2043 36.2229 69.8131 26.7389 58.7879 26.065C47.7628 25.3911 38.2789 33.7823 37.6049 44.8075C36.931 55.8326 45.3223 65.3165 56.3474 65.9905Z" fill="white" stroke="#006837" stroke-width="3" stroke-linecap="round" stroke-linejoin="round"/>
<path d="M37.6055 44.8076L77.5309 47.2482" stroke="#006837" stroke-width="3" stroke-linecap="round" stroke-linejoin="round"/>
<path d="M58.7888 26.0653C63.4479 31.837 65.8519 39.1046 65.5536 46.5161C64.9469 53.9088 61.6756 60.8295 56.3482 65.9907C51.6892 60.219 49.2852 52.9514 49.5834 45.5399C50.1901 38.1472 53.4614 31.2265 58.7888 26.0653V26.0653Z" stroke="#006837" stroke-width="3" stroke-linecap="round" stroke-linejoin="round"/>
<path d="M117.447 42.1065L119.736 42.2464L120.182 34.9543C120.279 33.3604 121.457 32.3194 122.758 32.399C124.028 32.4766 124.857 33.3774 124.778 34.6634L124.297 42.5253L126.578 42.6647L127.039 35.1262C127.126 33.7017 128.054 32.7227 129.547 32.8139C130.756 32.8879 131.709 33.6263 131.611 35.2279L131.14 42.9435L133.428 43.0834L133.913 35.1522C134.078 32.4494 132.661 31.0102 130.533 30.8802C128.841 30.7768 127.521 31.5153 126.877 32.7435L126.755 32.736C126.321 31.4111 125.29 30.5597 123.721 30.4638C122.167 30.3688 120.964 31.0759 120.395 32.3473L120.249 32.3384L120.367 30.4133L118.17 30.279L117.447 42.1065Z" fill="#006837"/>
<path d="M139.901 43.7418C141.845 43.8607 143 42.9343 143.49 42.0754L143.582 42.081L143.483 43.6981L145.718 43.8347L146.198 35.9805C146.409 32.5385 143.756 31.6885 141.889 31.5743C139.761 31.4443 137.749 32.1869 136.852 34.2962L138.973 34.9205C139.361 34.1017 140.267 33.3456 141.806 33.4396C143.283 33.5299 143.993 34.354 143.911 35.6938L143.908 35.7477C143.856 36.587 143 36.5192 140.873 36.6365C138.63 36.7622 136.313 37.208 136.149 39.8953C136.007 42.2208 137.666 43.6052 139.901 43.7418ZM140.511 41.9242C139.218 41.8451 138.32 41.2028 138.389 40.0632C138.465 38.8312 139.578 38.4587 140.913 38.3625C141.662 38.3078 143.434 38.2152 143.784 37.9042L143.69 39.4289C143.605 40.8303 142.417 42.0407 140.511 41.9242Z" fill="#006837"/>
<path d="M148.766 44.021L151.055 44.1609L151.311 39.9643L152.522 38.8867L156.19 44.4748L158.999 44.6465L154.33 37.5828L159.401 32.7994L156.661 32.6319L151.671 37.3507L151.472 37.3385L152.019 28.3909L149.73 28.251L148.766 44.021Z" fill="#006837"/>
<path d="M165.331 45.2732C167.895 45.4299 169.787 44.2703 170.425 42.377L168.283 41.8519C167.801 42.9432 166.772 43.4522 165.471 43.3726C163.511 43.2529 162.273 41.8942 162.351 39.6112L170.709 40.1221L170.759 39.3058C171.02 35.0322 168.581 33.206 165.918 33.0432C162.642 32.8429 160.33 35.2212 160.108 38.8557C159.883 42.5287 161.864 45.0612 165.331 45.2732ZM162.464 37.8868C162.659 36.2138 163.957 34.8323 165.817 34.946C167.592 35.0546 168.675 36.4501 168.572 38.2601L162.464 37.8868Z" fill="#006837"/>
<path d="M182.038 46.3176C183.982 46.4364 185.137 45.51 185.627 44.6512L185.719 44.6568L185.62 46.2738L187.855 46.4104L188.335 38.5562C188.546 35.1142 185.894 34.2642 184.026 34.1501C181.898 34.02 179.886 34.7627 178.989 36.8719L181.11 37.4962C181.498 36.6775 182.404 35.9214 183.943 36.0154C185.42 36.1057 186.13 36.9297 186.048 38.2696L186.045 38.3235C185.994 39.1628 185.137 39.095 183.01 39.2123C180.767 39.3379 178.45 39.7837 178.286 42.4711C178.144 44.7966 179.803 46.181 182.038 46.3176ZM182.648 44.5C181.355 44.4209 180.457 43.7786 180.527 42.639C180.602 41.4069 181.716 41.0345 183.05 40.9383C183.799 40.8836 185.572 40.791 185.921 40.48L185.828 42.0046C185.742 43.4061 184.554 44.6165 182.648 44.5Z" fill="#006837"/>
<path d="M193.621 39.7141C193.736 37.8275 194.95 36.8197 196.542 36.917C198.096 37.012 198.975 38.0936 198.87 39.8108L198.427 47.0566L200.715 47.1965L201.175 39.6734C201.354 36.7474 199.848 35.1173 197.445 34.9704C195.677 34.8623 194.471 35.6156 193.851 36.8375L193.705 36.8286L193.823 34.9035L191.626 34.7693L190.903 46.5967L193.192 46.7366L193.621 39.7141Z" fill="#006837"/>
<path d="M209.488 47.7328L211.777 47.8727L212.5 36.0452L210.211 35.9053L209.488 47.7328ZM211.479 34.151C212.267 34.1992 212.963 33.6234 213.009 32.8688C213.055 32.1142 212.435 31.4502 211.647 31.4021C210.851 31.3534 210.162 31.9373 210.116 32.692C210.07 33.4466 210.683 34.1024 211.479 34.151Z" fill="#006837"/>
<path d="M214.856 48.0609L217.144 48.2008L217.59 40.9087C217.687 39.3148 218.865 38.2738 220.166 38.3533C221.436 38.431 222.265 39.3318 222.186 40.6177L221.706 48.4796L223.986 48.619L224.447 41.0806C224.534 39.656 225.462 38.6771 226.955 38.7683C228.164 38.8422 229.117 39.5806 229.02 41.1823L228.548 48.8979L230.836 49.0378L231.321 41.1066C231.486 38.4038 230.069 36.9646 227.941 36.8345C226.25 36.7311 224.929 37.4697 224.286 38.6979L224.163 38.6904C223.729 37.3654 222.698 36.514 221.129 36.4181C219.576 36.3231 218.372 37.0302 217.803 38.3016L217.657 38.2927L217.775 36.3677L215.579 36.2334L214.856 48.0609Z" fill="#006837"/>
<path d="M233.632 53.6606L235.921 53.8005L236.305 47.5248L236.442 47.5332C236.809 48.3131 237.571 49.6813 239.714 49.8123C242.561 49.9863 244.768 47.818 245.002 43.991C245.236 40.1563 243.277 37.772 240.437 37.5984C238.256 37.4651 237.386 38.7567 236.936 39.4634L236.744 39.4517L236.861 37.5344L234.627 37.3978L233.632 53.6606ZM236.508 43.4486C236.659 40.9768 237.83 39.4022 239.828 39.5243C241.902 39.6511 242.835 41.4781 242.692 43.8266C242.547 46.1983 241.365 47.9423 239.321 47.8174C237.354 47.6972 236.356 45.9358 236.508 43.4486Z" fill="#006837"/>
<path d="M250.611 50.5093C252.555 50.6282 253.71 49.7017 254.2 48.8429L254.292 48.8485L254.193 50.4655L256.428 50.6021L256.908 42.748C257.119 39.306 254.467 38.456 252.599 38.3418C250.471 38.2117 248.459 38.9544 247.562 41.0637L249.683 41.6879C250.071 40.8692 250.977 40.1131 252.516 40.2071C253.993 40.2974 254.703 41.1215 254.621 42.4613L254.618 42.5152C254.567 43.3545 253.71 43.2867 251.583 43.404C249.34 43.5297 247.023 43.9754 246.859 46.6628C246.717 48.9883 248.376 50.3727 250.611 50.5093ZM251.221 48.6917C249.928 48.6126 249.03 47.9703 249.1 46.8307C249.175 45.5987 250.288 45.2262 251.623 45.13C252.372 45.0753 254.145 44.9827 254.494 44.6717L254.401 46.1964C254.315 47.5978 253.127 48.8082 251.221 48.6917Z" fill="#006837"/>
<path d="M264.414 51.3299C267.192 51.4997 269.093 49.931 269.487 47.6441L267.259 47.5079C266.89 48.7684 265.857 49.4627 264.548 49.3827C262.612 49.2643 261.464 47.5633 261.621 44.9837C261.776 42.4504 263.144 40.9341 265.057 41.0511C266.512 41.1399 267.343 42.1182 267.52 43.242L269.747 43.3782C269.648 40.9762 267.809 39.2716 265.138 39.1083C261.824 38.9057 259.527 41.285 259.307 44.8963C259.089 48.4615 261 51.1212 264.414 51.3299Z" fill="#006837"/>
<path d="M277.916 40.0439L275.505 39.8966L275.678 37.0629L273.39 36.923L273.216 39.7567L271.494 39.6514L271.381 41.4995L273.103 41.6047L272.676 48.5888C272.537 50.7367 274.104 51.8759 275.913 51.9478C276.64 51.9845 277.139 51.8759 277.413 51.7921L277.116 49.8649C276.961 49.8864 276.673 49.9383 276.306 49.9159C275.563 49.8705 274.913 49.5834 274.994 48.2513L275.392 41.7446L277.803 41.892L277.916 40.0439Z" fill="#006837"/>
<path d="M120.728 69.7526C124.042 69.9552 126.357 67.6466 126.581 63.989C126.806 60.3083 124.789 57.735 121.475 57.5324C118.161 57.3298 115.846 59.6384 115.621 63.3191C115.397 66.9767 117.414 69.55 120.728 69.7526ZM120.854 67.8203C118.688 67.6879 117.794 65.7242 117.933 63.4527C118.071 61.1888 119.199 59.3255 121.365 59.4579C123.516 59.5894 124.408 61.5762 124.27 63.84C124.131 66.1116 123.004 67.9518 120.854 67.8203Z" fill="#006837"/>
<path d="M131.495 63.1223C131.61 61.2358 132.824 60.2279 134.416 60.3253C135.97 60.4202 136.848 61.5019 136.743 63.219L136.3 70.4649L138.589 70.6048L139.049 63.0817C139.228 60.1557 137.722 58.5255 135.318 58.3786C133.55 58.2706 132.344 59.0238 131.724 60.2457L131.579 60.2369L131.696 58.3118L129.5 58.1775L128.777 70.005L131.065 70.1449L131.495 63.1223Z" fill="#006837"/>
<path d="M148.539 75.634C150.43 75.7496 151.692 74.8297 152.478 73.0382L158.156 59.9524L155.685 59.7782L152.147 68.7748L152.024 68.7673L149.608 59.4067L147.159 59.257L150.728 71.5014L150.397 72.2695C149.721 73.7663 148.894 73.8548 147.66 73.4316L146.993 75.2845C147.261 75.4322 147.85 75.5919 148.539 75.634Z" fill="#006837"/>
<path d="M164.107 72.4043C167.421 72.6069 169.736 70.2983 169.96 66.6407C170.185 62.96 168.168 60.3867 164.854 60.1841C161.54 59.9815 159.225 62.29 159 65.9707C158.776 69.6283 160.793 72.2017 164.107 72.4043ZM164.233 70.472C162.067 70.3396 161.173 68.3759 161.312 66.1043C161.45 63.8405 162.578 61.9772 164.744 62.1096C166.895 62.2411 167.787 64.2279 167.649 66.4917C167.51 68.7633 166.383 70.6035 164.233 70.472Z" fill="#006837"/>
<path d="M179.903 68.2069C179.788 70.2171 178.244 71.0812 176.959 71.0026C175.543 70.916 174.626 69.8243 174.724 68.215L175.167 60.9691L172.879 60.8292L172.419 68.3523C172.24 71.2861 173.746 72.9085 176.004 73.0465C177.772 73.1546 179.031 72.2886 179.652 71.059L179.774 71.0665L179.649 73.1147L181.899 73.2523L182.622 61.4248L180.326 61.2844L179.903 68.2069Z" fill="#006837"/>
<path d="M191.185 61.9482L188.774 61.8008L188.947 58.9671L186.658 58.8273L186.485 61.6609L184.763 61.5557L184.65 63.4037L186.372 63.509L185.945 70.493C185.806 72.6409 187.373 73.7801 189.182 73.852C189.909 73.8888 190.408 73.7801 190.682 73.6964L190.385 71.7692C190.23 71.7906 189.942 71.8426 189.575 71.8201C188.832 71.7748 188.182 71.4877 188.263 70.1555L188.661 63.6489L191.072 63.7962L191.185 61.9482Z" fill="#006837"/>
<path d="M195.963 67.0632C196.079 65.1766 197.331 64.1711 198.961 64.2708C200.538 64.3672 201.417 65.4334 201.312 67.166L200.869 74.4118L203.157 74.5517L203.617 67.0286C203.797 64.0795 202.282 62.472 199.864 62.3241C198.034 62.2123 196.883 62.9458 196.254 64.1903L196.109 64.1814L196.467 58.3139L194.21 58.1759L193.246 73.9459L195.534 74.0857L195.963 67.0632Z" fill="#006837"/>
<path d="M211.915 75.0871L214.203 75.227L214.926 63.3995L212.638 63.2596L211.915 75.0871ZM213.905 61.5053C214.693 61.5535 215.389 60.9777 215.435 60.2231C215.481 59.4685 214.861 58.8045 214.073 58.7563C213.277 58.7077 212.588 59.2916 212.542 60.0462C212.496 60.8008 213.109 61.4566 213.905 61.5053Z" fill="#006837"/>
<path d="M220 68.5325C220.115 66.6459 221.329 65.6381 222.921 65.7354C224.475 65.8304 225.353 66.912 225.248 68.6292L224.805 75.875L227.094 76.0149L227.554 68.4919C227.733 65.5658 226.227 63.9357 223.823 63.7888C222.055 63.6807 220.849 64.434 220.229 65.6559L220.084 65.647L220.202 63.7219L218.005 63.5877L217.282 75.4151L219.57 75.555L220 68.5325Z" fill="#006837"/>
<path d="M242.078 65.0592L239.667 64.9118L239.84 62.0781L237.551 61.9382L237.378 64.7719L235.656 64.6666L235.543 66.5147L237.265 66.62L236.838 73.604C236.699 75.7519 238.266 76.8911 240.075 76.963C240.802 76.9997 241.301 76.8911 241.575 76.8074L241.278 74.8801C241.123 74.9016 240.835 74.9536 240.468 74.9311C239.725 74.8857 239.075 74.5986 239.156 73.2665L239.554 66.7598L241.965 66.9072L242.078 65.0592Z" fill="#006837"/>
<path d="M248.812 77.5821C251.376 77.7388 253.267 76.5792 253.906 74.686L251.764 74.1608C251.282 75.2521 250.252 75.7611 248.951 75.6816C246.992 75.5618 245.754 74.2031 245.832 71.9201L254.189 72.431L254.239 71.6148C254.501 67.3412 252.062 65.5149 249.398 65.3521C246.122 65.1518 243.811 67.5302 243.588 71.1647C243.364 74.8376 245.345 77.3702 248.812 77.5821ZM245.945 70.1957C246.139 68.5227 247.437 67.1413 249.297 67.255C251.073 67.3635 252.155 68.7591 252.052 70.5691L245.945 70.1957Z" fill="#006837"/>
<path d="M261.347 78.3483C264.125 78.5182 266.026 76.9495 266.42 74.6626L264.192 74.5264C263.823 75.7869 262.79 76.4811 261.481 76.4011C259.545 76.2828 258.396 74.5818 258.554 72.0022C258.709 69.4688 260.077 67.9526 261.99 68.0695C263.445 68.1584 264.276 69.1367 264.453 70.2605L266.68 70.3966C266.581 67.9946 264.742 66.29 262.071 66.1267C258.757 65.9242 256.46 68.3034 256.239 71.9148C256.022 75.48 257.933 78.1397 261.347 78.3483Z" fill="#006837"/>
<path d="M271.356 71.6718C271.471 69.7852 272.723 68.7797 274.353 68.8794C275.93 68.9757 276.81 70.042 276.704 71.7745L276.261 79.0204L278.549 79.1603L279.009 71.6372C279.19 68.688 277.675 67.0806 275.256 66.9327C273.427 66.8209 272.276 67.5544 271.647 68.7989L271.501 68.79L271.86 62.9225L269.602 62.7845L268.638 78.5544L270.926 78.6943L271.356 71.6718Z" fill="#006837"/>
<path d="M56.3474 65.9905C67.3725 66.6644 76.8565 58.2731 77.5304 47.248C78.2043 36.2229 69.8131 26.7389 58.7879 26.065C47.7628 25.3911 38.2789 33.7823 37.6049 44.8075C36.931 55.8326 45.3223 65.3165 56.3474 65.9905Z" fill="white" stroke="#006837" stroke-width="3" stroke-linecap="round" stroke-linejoin="round"/>
<path d="M37.6055 44.8076L77.5309 47.2482" stroke="#006837" stroke-width="3" stroke-linecap="round" stroke-linejoin="round"/>
<path d="M58.7888 26.0653C63.4479 31.837 65.8519 39.1046 65.5536 46.5161C64.9469 53.9088 61.6756 60.8295 56.3482 65.9907C51.6892 60.219 49.2852 52.9514 49.5834 45.5399C50.1901 38.1472 53.4614 31.2265 58.7888 26.0653V26.0653Z" stroke="#006837" stroke-width="3" stroke-linecap="round" stroke-linejoin="round"/>
<path d="M117.447 42.1065L119.736 42.2464L120.182 34.9543C120.279 33.3604 121.457 32.3194 122.758 32.399C124.028 32.4766 124.857 33.3774 124.778 34.6634L124.297 42.5253L126.578 42.6647L127.039 35.1262C127.126 33.7017 128.054 32.7227 129.547 32.8139C130.756 32.8879 131.709 33.6263 131.611 35.2279L131.14 42.9435L133.428 43.0834L133.913 35.1522C134.078 32.4494 132.661 31.0102 130.533 30.8802C128.841 30.7768 127.521 31.5153 126.877 32.7435L126.755 32.736C126.321 31.4111 125.29 30.5597 123.721 30.4638C122.167 30.3688 120.964 31.0759 120.395 32.3473L120.249 32.3384L120.367 30.4133L118.17 30.279L117.447 42.1065Z" fill="#006837"/>
<path d="M139.901 43.7418C141.845 43.8607 143 42.9343 143.49 42.0754L143.582 42.081L143.483 43.6981L145.718 43.8347L146.198 35.9805C146.409 32.5385 143.756 31.6885 141.889 31.5743C139.761 31.4443 137.749 32.1869 136.852 34.2962L138.973 34.9205C139.361 34.1017 140.267 33.3456 141.806 33.4396C143.283 33.5299 143.993 34.354 143.911 35.6938L143.908 35.7477C143.856 36.587 143 36.5192 140.873 36.6365C138.63 36.7622 136.313 37.208 136.149 39.8953C136.007 42.2208 137.666 43.6052 139.901 43.7418ZM140.511 41.9242C139.218 41.8451 138.32 41.2028 138.389 40.0632C138.465 38.8312 139.578 38.4587 140.913 38.3625C141.662 38.3078 143.434 38.2152 143.784 37.9042L143.69 39.4289C143.605 40.8303 142.417 42.0407 140.511 41.9242Z" fill="#006837"/>
<path d="M148.766 44.021L151.055 44.1609L151.311 39.9643L152.522 38.8867L156.19 44.4748L158.999 44.6465L154.33 37.5828L159.401 32.7994L156.661 32.6319L151.671 37.3507L151.472 37.3385L152.019 28.3909L149.73 28.251L148.766 44.021Z" fill="#006837"/>
<path d="M165.331 45.2732C167.895 45.4299 169.787 44.2703 170.425 42.377L168.283 41.8519C167.801 42.9432 166.772 43.4522 165.471 43.3726C163.511 43.2529 162.273 41.8942 162.351 39.6112L170.709 40.1221L170.759 39.3058C171.02 35.0322 168.581 33.206 165.918 33.0432C162.642 32.8429 160.33 35.2212 160.108 38.8557C159.883 42.5287 161.864 45.0612 165.331 45.2732ZM162.464 37.8868C162.659 36.2138 163.957 34.8323 165.817 34.946C167.592 35.0546 168.675 36.4501 168.572 38.2601L162.464 37.8868Z" fill="#006837"/>
<path d="M182.038 46.3176C183.982 46.4364 185.137 45.51 185.627 44.6512L185.719 44.6568L185.62 46.2738L187.855 46.4104L188.335 38.5562C188.546 35.1142 185.894 34.2642 184.026 34.1501C181.898 34.02 179.886 34.7627 178.989 36.8719L181.11 37.4962C181.498 36.6775 182.404 35.9214 183.943 36.0154C185.42 36.1057 186.13 36.9297 186.048 38.2696L186.045 38.3235C185.994 39.1628 185.137 39.095 183.01 39.2123C180.767 39.3379 178.45 39.7837 178.286 42.4711C178.144 44.7966 179.803 46.181 182.038 46.3176ZM182.648 44.5C181.355 44.4209 180.457 43.7786 180.527 42.639C180.602 41.4069 181.716 41.0345 183.05 40.9383C183.799 40.8836 185.572 40.791 185.921 40.48L185.828 42.0046C185.742 43.4061 184.554 44.6165 182.648 44.5Z" fill="#006837"/>
<path d="M193.621 39.7141C193.736 37.8275 194.95 36.8197 196.542 36.917C198.096 37.012 198.975 38.0936 198.87 39.8108L198.427 47.0566L200.715 47.1965L201.175 39.6734C201.354 36.7474 199.848 35.1173 197.445 34.9704C195.677 34.8623 194.471 35.6156 193.851 36.8375L193.705 36.8286L193.823 34.9035L191.626 34.7693L190.903 46.5967L193.192 46.7366L193.621 39.7141Z" fill="#006837"/>
<path d="M209.488 47.7328L211.777 47.8727L212.5 36.0452L210.211 35.9053L209.488 47.7328ZM211.479 34.151C212.267 34.1992 212.963 33.6234 213.009 32.8688C213.055 32.1142 212.435 31.4502 211.647 31.4021C210.851 31.3534 210.162 31.9373 210.116 32.692C210.07 33.4466 210.683 34.1024 211.479 34.151Z" fill="#006837"/>
<path d="M214.856 48.0609L217.144 48.2008L217.59 40.9087C217.687 39.3148 218.865 38.2738 220.166 38.3533C221.436 38.431 222.265 39.3318 222.186 40.6177L221.706 48.4796L223.986 48.619L224.447 41.0806C224.534 39.656 225.462 38.6771 226.955 38.7683C228.164 38.8422 229.117 39.5806 229.02 41.1823L228.548 48.8979L230.836 49.0378L231.321 41.1066C231.486 38.4038 230.069 36.9646 227.941 36.8345C226.25 36.7311 224.929 37.4697 224.286 38.6979L224.163 38.6904C223.729 37.3654 222.698 36.514 221.129 36.4181C219.576 36.3231 218.372 37.0302 217.803 38.3016L217.657 38.2927L217.775 36.3677L215.579 36.2334L214.856 48.0609Z" fill="#006837"/>
<path d="M233.632 53.6606L235.921 53.8005L236.305 47.5248L236.442 47.5332C236.809 48.3131 237.571 49.6813 239.714 49.8123C242.561 49.9863 244.768 47.818 245.002 43.991C245.236 40.1563 243.277 37.772 240.437 37.5984C238.256 37.4651 237.386 38.7567 236.936 39.4634L236.744 39.4517L236.861 37.5344L234.627 37.3978L233.632 53.6606ZM236.508 43.4486C236.659 40.9768 237.83 39.4022 239.828 39.5243C241.902 39.6511 242.835 41.4781 242.692 43.8266C242.547 46.1983 241.365 47.9423 239.321 47.8174C237.354 47.6972 236.356 45.9358 236.508 43.4486Z" fill="#006837"/>
<path d="M250.611 50.5093C252.555 50.6282 253.71 49.7017 254.2 48.8429L254.292 48.8485L254.193 50.4655L256.428 50.6021L256.908 42.748C257.119 39.306 254.467 38.456 252.599 38.3418C250.471 38.2117 248.459 38.9544 247.562 41.0637L249.683 41.6879C250.071 40.8692 250.977 40.1131 252.516 40.2071C253.993 40.2974 254.703 41.1215 254.621 42.4613L254.618 42.5152C254.567 43.3545 253.71 43.2867 251.583 43.404C249.34 43.5297 247.023 43.9754 246.859 46.6628C246.717 48.9883 248.376 50.3727 250.611 50.5093ZM251.221 48.6917C249.928 48.6126 249.03 47.9703 249.1 46.8307C249.175 45.5987 250.288 45.2262 251.623 45.13C252.372 45.0753 254.145 44.9827 254.494 44.6717L254.401 46.1964C254.315 47.5978 253.127 48.8082 251.221 48.6917Z" fill="#006837"/>
<path d="M264.414 51.3299C267.192 51.4997 269.093 49.931 269.487 47.6441L267.259 47.5079C266.89 48.7684 265.857 49.4627 264.548 49.3827C262.612 49.2643 261.464 47.5633 261.621 44.9837C261.776 42.4504 263.144 40.9341 265.057 41.0511C266.512 41.1399 267.343 42.1182 267.52 43.242L269.747 43.3782C269.648 40.9762 267.809 39.2716 265.138 39.1083C261.824 38.9057 259.527 41.285 259.307 44.8963C259.089 48.4615 261 51.1212 264.414 51.3299Z" fill="#006837"/>
<path d="M277.916 40.0439L275.505 39.8966L275.678 37.0629L273.39 36.923L273.216 39.7567L271.494 39.6514L271.381 41.4995L273.103 41.6047L272.676 48.5888C272.537 50.7367 274.104 51.8759 275.913 51.9478C276.64 51.9845 277.139 51.8759 277.413 51.7921L277.116 49.8649C276.961 49.8864 276.673 49.9383 276.306 49.9159C275.563 49.8705 274.913 49.5834 274.994 48.2513L275.392 41.7446L277.803 41.892L277.916 40.0439Z" fill="#006837"/>
<path d="M120.728 69.7526C124.042 69.9552 126.357 67.6466 126.581 63.989C126.806 60.3083 124.789 57.735 121.475 57.5324C118.161 57.3298 115.846 59.6384 115.621 63.3191C115.397 66.9767 117.414 69.55 120.728 69.7526ZM120.854 67.8203C118.688 67.6879 117.794 65.7242 117.933 63.4527C118.071 61.1888 119.199 59.3255 121.365 59.4579C123.516 59.5894 124.408 61.5762 124.27 63.84C124.131 66.1116 123.004 67.9518 120.854 67.8203Z" fill="#006837"/>
<path d="M131.495 63.1223C131.61 61.2358 132.824 60.2279 134.416 60.3253C135.97 60.4202 136.848 61.5019 136.743 63.219L136.3 70.4649L138.589 70.6048L139.049 63.0817C139.228 60.1557 137.722 58.5255 135.318 58.3786C133.55 58.2706 132.344 59.0238 131.724 60.2457L131.579 60.2369L131.696 58.3118L129.5 58.1775L128.777 70.005L131.065 70.1449L131.495 63.1223Z" fill="#006837"/>
<path d="M148.539 75.634C150.43 75.7496 151.692 74.8297 152.478 73.0382L158.156 59.9524L155.685 59.7782L152.147 68.7748L152.024 68.7673L149.608 59.4067L147.159 59.257L150.728 71.5014L150.397 72.2695C149.721 73.7663 148.894 73.8548 147.66 73.4316L146.993 75.2845C147.261 75.4322 147.85 75.5919 148.539 75.634Z" fill="#006837"/>
<path d="M164.107 72.4043C167.421 72.6069 169.736 70.2983 169.96 66.6407C170.185 62.96 168.168 60.3867 164.854 60.1841C161.54 59.9815 159.225 62.29 159 65.9707C158.776 69.6283 160.793 72.2017 164.107 72.4043ZM164.233 70.472C162.067 70.3396 161.173 68.3759 161.312 66.1043C161.45 63.8405 162.578 61.9772 164.744 62.1096C166.895 62.2411 167.787 64.2279 167.649 66.4917C167.51 68.7633 166.383 70.6035 164.233 70.472Z" fill="#006837"/>
<path d="M179.903 68.2069C179.788 70.2171 178.244 71.0812 176.959 71.0026C175.543 70.916 174.626 69.8243 174.724 68.215L175.167 60.9691L172.879 60.8292L172.419 68.3523C172.24 71.2861 173.746 72.9085 176.004 73.0465C177.772 73.1546 179.031 72.2886 179.652 71.059L179.774 71.0665L179.649 73.1147L181.899 73.2523L182.622 61.4248L180.326 61.2844L179.903 68.2069Z" fill="#006837"/>
<path d="M191.185 61.9482L188.774 61.8008L188.947 58.9671L186.658 58.8273L186.485 61.6609L184.763 61.5557L184.65 63.4037L186.372 63.509L185.945 70.493C185.806 72.6409 187.373 73.7801 189.182 73.852C189.909 73.8888 190.408 73.7801 190.682 73.6964L190.385 71.7692C190.23 71.7906 189.942 71.8426 189.575 71.8201C188.832 71.7748 188.182 71.4877 188.263 70.1555L188.661 63.6489L191.072 63.7962L191.185 61.9482Z" fill="#006837"/>
<path d="M195.963 67.0632C196.079 65.1766 197.331 64.1711 198.961 64.2708C200.538 64.3672 201.417 65.4334 201.312 67.166L200.869 74.4118L203.157 74.5517L203.617 67.0286C203.797 64.0795 202.282 62.472 199.864 62.3241C198.034 62.2123 196.883 62.9458 196.254 64.1903L196.109 64.1814L196.467 58.3139L194.21 58.1759L193.246 73.9459L195.534 74.0857L195.963 67.0632Z" fill="#006837"/>
<path d="M211.915 75.0871L214.203 75.227L214.926 63.3995L212.638 63.2596L211.915 75.0871ZM213.905 61.5053C214.693 61.5535 215.389 60.9777 215.435 60.2231C215.481 59.4685 214.861 58.8045 214.073 58.7563C213.277 58.7077 212.588 59.2916 212.542 60.0462C212.496 60.8008 213.109 61.4566 213.905 61.5053Z" fill="#006837"/>
<path d="M220 68.5325C220.115 66.6459 221.329 65.6381 222.921 65.7354C224.475 65.8304 225.353 66.912 225.248 68.6292L224.805 75.875L227.094 76.0149L227.554 68.4919C227.733 65.5658 226.227 63.9357 223.823 63.7888C222.055 63.6807 220.849 64.434 220.229 65.6559L220.084 65.647L220.202 63.7219L218.005 63.5877L217.282 75.4151L219.57 75.555L220 68.5325Z" fill="#006837"/>
<path d="M242.078 65.0592L239.667 64.9118L239.84 62.0781L237.551 61.9382L237.378 64.7719L235.656 64.6666L235.543 66.5147L237.265 66.62L236.838 73.604C236.699 75.7519 238.266 76.8911 240.075 76.963C240.802 76.9997 241.301 76.8911 241.575 76.8074L241.278 74.8801C241.123 74.9016 240.835 74.9536 240.468 74.9311C239.725 74.8857 239.075 74.5986 239.156 73.2665L239.554 66.7598L241.965 66.9072L242.078 65.0592Z" fill="#006837"/>
<path d="M248.812 77.5821C251.376 77.7388 253.267 76.5792 253.906 74.686L251.764 74.1608C251.282 75.2521 250.252 75.7611 248.951 75.6816C246.992 75.5618 245.754 74.2031 245.832 71.9201L254.189 72.431L254.239 71.6148C254.501 67.3412 252.062 65.5149 249.398 65.3521C246.122 65.1518 243.811 67.5302 243.588 71.1647C243.364 74.8376 245.345 77.3702 248.812 77.5821ZM245.945 70.1957C246.139 68.5227 247.437 67.1413 249.297 67.255C251.073 67.3635 252.155 68.7591 252.052 70.5691L245.945 70.1957Z" fill="#006837"/>
<path d="M261.347 78.3483C264.125 78.5182 266.026 76.9495 266.42 74.6626L264.192 74.5264C263.823 75.7869 262.79 76.4811 261.481 76.4011C259.545 76.2828 258.396 74.5818 258.554 72.0022C258.709 69.4688 260.077 67.9526 261.99 68.0695C263.445 68.1584 264.276 69.1367 264.453 70.2605L266.68 70.3966C266.581 67.9946 264.742 66.29 262.071 66.1267C258.757 65.9242 256.46 68.3034 256.239 71.9148C256.022 75.48 257.933 78.1397 261.347 78.3483Z" fill="#006837"/>
<path d="M271.356 71.6718C271.471 69.7852 272.723 68.7797 274.353 68.8794C275.93 68.9757 276.81 70.042 276.704 71.7745L276.261 79.0204L278.549 79.1603L279.009 71.6372C279.19 68.688 277.675 67.0806 275.256 66.9327C273.427 66.8209 272.276 67.5544 271.647 68.7989L271.501 68.79L271.86 62.9225L269.602 62.7845L268.638 78.5544L270.926 78.6943L271.356 71.6718Z" fill="#006837"/>
</svg>
