<svg width="304" height="98" viewBox="0 0 304 98" fill="none" xmlns="http://www.w3.org/2000/svg">
<rect x="2" y="13.6875" width="296.563" height="82" rx="8" transform="rotate(-2.17902 2 13.6875)" fill="#D0FFE9" stroke="#73D0BF" stroke-width="3"/>
<path d="M124.277 33.1288C123.727 31.2879 122.233 30.1294 119.663 30.2272C116.978 30.3294 115.128 31.8254 115.208 33.9413C115.273 35.6371 116.337 36.7262 118.585 37.1392L120.615 37.5061C121.77 37.7192 122.324 38.2123 122.352 38.9591C122.387 39.8848 121.432 40.6456 119.915 40.7033C118.529 40.7561 117.616 40.1909 117.293 39.0269L115.069 39.4543C115.537 41.5555 117.331 42.6791 120.002 42.5775C122.873 42.4682 124.804 40.8601 124.722 38.6975C124.657 37.0095 123.55 36.0077 121.348 35.5851L119.443 35.2214C118.123 34.96 117.541 34.5381 117.518 33.7288C117.475 32.8111 118.441 32.12 119.757 32.0699C121.196 32.0152 121.893 32.7911 122.194 33.582L124.277 33.1288Z" fill="#007C66"/>
<path d="M127.398 42.0546L129.712 41.9665L129.432 34.5998C129.37 32.9896 130.45 31.8267 131.766 31.7766C133.051 31.7277 133.973 32.5495 134.023 33.8486L134.325 41.791L136.631 41.7032L136.342 34.0876C136.287 32.6485 137.122 31.5728 138.631 31.5154C139.854 31.4689 140.886 32.1151 140.948 33.7332L141.244 41.5277L143.559 41.4397L143.254 33.4273C143.15 30.6969 141.581 29.3933 139.429 29.4751C137.719 29.5402 136.465 30.4137 135.941 31.7112L135.817 31.7159C135.249 30.4288 134.127 29.6769 132.541 29.7372C130.97 29.797 129.831 30.6272 129.385 31.9607L129.238 31.9663L129.164 30.0215L126.943 30.106L127.398 42.0546Z" fill="#007C66"/>
<path d="M151.677 41.3722C155.029 41.2447 157.125 38.6954 156.985 35.0004C156.843 31.282 154.559 28.8995 151.208 29.027C147.856 29.1545 145.76 31.7038 145.901 35.4221C146.042 39.1172 148.326 41.4998 151.677 41.3722ZM151.611 39.4194C149.42 39.5028 148.326 37.6202 148.238 35.3254C148.151 33.0384 149.099 31.0548 151.289 30.9714C153.464 30.8887 154.56 32.7945 154.647 35.0816C154.734 37.3764 153.786 39.3367 151.611 39.4194Z" fill="#007C66"/>
<path d="M164.81 40.8725C168.162 40.745 170.258 38.1957 170.118 34.5007C169.976 30.7824 167.692 28.3998 164.34 28.5273C160.989 28.6548 158.892 31.2041 159.034 34.9224C159.175 38.6175 161.459 41.0001 164.81 40.8725ZM164.744 38.9197C162.553 39.0031 161.458 37.1205 161.371 34.8257C161.284 32.5387 162.232 30.5551 164.422 30.4717C166.597 30.389 167.693 32.2949 167.78 34.5819C167.867 36.8767 166.919 38.837 164.744 38.9197Z" fill="#007C66"/>
<path d="M178.021 28.1625L175.583 28.2553L175.474 25.3926L173.16 25.4807L173.269 28.3434L171.527 28.4096L171.598 30.2766L173.34 30.2103L173.608 37.2659C173.683 39.4365 175.372 40.4239 177.197 40.3156C177.932 40.2798 178.422 40.1209 178.689 40.0095L178.198 38.104C178.044 38.141 177.76 38.2219 177.389 38.236C176.638 38.2646 175.955 38.0413 175.904 36.6955L175.654 30.1223L178.092 30.0295L178.021 28.1625Z" fill="#007C66"/>
<path d="M183.335 32.8215C183.263 30.9156 184.421 29.7809 186.07 29.7182C187.664 29.6575 188.655 30.6403 188.722 32.3906L189 39.7106L191.314 39.6226L191.025 32.0225C190.912 29.0431 189.228 27.5803 186.782 27.6734C184.933 27.7438 183.849 28.5952 183.341 29.9077L183.194 29.9133L182.968 23.9857L180.685 24.0726L181.291 40.004L183.605 39.9159L183.335 32.8215Z" fill="#007C66"/>
<path d="M204.792 39.3357C206.224 39.2812 207.793 38.7385 208.823 37.6944L209.939 38.9139L212.555 38.8144L210.199 36.193C210.838 35.265 211.427 33.8248 211.343 31.6156L209.253 31.6951C209.294 32.7608 209.082 33.7193 208.702 34.5283L205.384 30.8374L206.437 29.9949C207.716 28.9802 208.463 27.8378 208.405 26.3209C208.335 24.4617 206.779 22.9083 204.341 23.0011C201.926 23.093 200.399 24.7169 200.483 26.9184C200.537 28.3419 201.323 29.4416 202.368 30.6249C200.605 31.954 199.419 33.1755 199.491 35.0736C199.589 37.6328 201.603 39.457 204.792 39.3357ZM207.464 36.2036C206.669 36.9194 205.7 37.3302 204.725 37.3673C203.007 37.4327 201.84 36.3007 201.788 34.9239C201.769 34.4338 202.142 33.438 203.345 32.473L203.751 32.1459L207.464 36.2036ZM204.048 29.3379C203.294 28.4785 202.698 27.6832 202.667 26.8742C202.632 25.9485 203.355 24.9862 204.47 24.9438C205.538 24.9031 206.266 25.7167 206.295 26.4635C206.331 27.4126 205.834 28.0079 204.997 28.6085L204.048 29.3379Z" fill="#007C66"/>
<path d="M121.887 69.9275C124.48 69.8288 126.266 68.4755 126.718 66.5107L124.512 66.1973C124.137 67.3412 123.153 67.9551 121.837 68.0052C119.856 68.0805 118.475 66.8399 118.326 64.5397L126.778 64.2181L126.746 63.3935C126.582 59.0761 123.948 57.4859 121.255 57.5884C117.942 57.7144 115.856 60.3334 115.996 64.0051C116.137 67.7157 118.381 70.0609 121.887 69.9275ZM118.267 62.7969C118.296 61.0975 119.463 59.5808 121.343 59.5092C123.139 59.4409 124.366 60.7341 124.444 62.5619L118.267 62.7969Z" fill="#007C66"/>
<path d="M133.016 69.5274C134.982 69.4526 136.051 68.407 136.458 67.4956L136.551 67.4921L136.613 69.1256L138.873 69.0397L138.571 61.1051C138.439 57.6279 135.688 57.0392 133.799 57.1111C131.648 57.1929 129.699 58.1396 129.008 60.3471L131.202 60.7622C131.51 59.9014 132.346 59.0516 133.902 58.9924C135.396 58.9356 136.192 59.6921 136.243 61.0456L136.246 61.1001C136.278 61.948 135.41 61.9654 133.284 62.2956C131.041 62.6458 128.757 63.3248 128.861 66.0396C128.95 68.3889 130.756 69.6134 133.016 69.5274ZM133.448 67.6413C132.14 67.691 131.173 67.1358 131.13 65.9845C131.082 64.7398 132.164 64.2546 133.497 64.0247C134.244 63.8951 136.016 63.6251 136.336 63.2779L136.395 64.8181C136.449 66.2339 135.375 67.5679 133.448 67.6413Z" fill="#007C66"/>
<path d="M150.52 59.552C149.97 57.7111 148.476 56.5526 145.907 56.6504C143.221 56.7526 141.371 58.2486 141.451 60.3645C141.516 62.0603 142.581 63.1494 144.829 63.5624L146.858 63.9292C148.013 64.1424 148.567 64.6355 148.595 65.3822C148.63 66.3079 147.675 67.0688 146.158 67.1265C144.773 67.1792 143.86 66.6141 143.536 65.4501L141.312 65.8775C141.78 67.9786 143.574 69.1023 146.245 69.0007C149.116 68.8914 151.047 67.2832 150.965 65.1207C150.901 63.4326 149.793 62.4309 147.591 62.0083L145.686 61.6445C144.366 61.3832 143.784 60.9613 143.761 60.1519C143.718 59.2343 144.684 58.5432 146 58.4931C147.44 58.4383 148.136 59.2143 148.437 60.0052L150.52 59.552Z" fill="#007C66"/>
<path d="M155.273 72.8717C157.185 72.7989 158.362 71.7492 158.972 69.8719L163.373 56.165L160.872 56.2368L158.214 65.6239L158.09 65.6286L154.726 56.4706L152.25 56.5648L157.06 68.5034L156.804 69.3078C156.275 70.8782 155.452 71.0497 154.169 70.748L153.684 72.675C153.968 72.7967 154.576 72.8982 155.273 72.8717Z" fill="#007C66"/>
<path d="M171.946 72.2684L174.26 72.1804L174.019 65.8405L174.158 65.8352C174.605 66.5816 175.507 67.8794 177.675 67.797C180.554 67.6874 182.555 65.2898 182.408 61.4236C182.261 57.5497 180.053 55.3511 177.182 55.4604C174.976 55.5443 174.23 56.9282 173.848 57.6828L173.655 57.6902L173.581 55.7532L171.321 55.8392L171.946 72.2684ZM173.816 61.7272C173.721 59.2301 174.742 57.532 176.762 57.4551C178.859 57.3753 179.98 59.1166 180.07 61.4892C180.161 63.8851 179.147 65.7544 177.081 65.8331C175.091 65.9088 173.912 64.2398 173.816 61.7272Z" fill="#007C66"/>
<path d="M185.228 67.2759L187.542 67.1878L187.264 59.8911C187.205 58.3276 188.362 57.1539 190.002 57.0915C190.482 57.0733 191.027 57.1382 191.215 57.1856L191.131 54.9608C190.897 54.9385 190.44 54.9326 190.145 54.9437C188.752 54.9968 187.591 55.8356 187.206 57.1356L187.082 57.1403L187.01 55.2422L184.773 55.3273L185.228 67.2759Z" fill="#007C66"/>
<path d="M198.184 67.0244C201.535 66.8969 203.632 64.3476 203.491 60.6526C203.35 56.9342 201.066 54.5516 197.714 54.6791C194.363 54.8067 192.266 57.3559 192.408 61.0743C192.548 64.7693 194.832 67.1519 198.184 67.0244ZM198.117 65.0716C195.927 65.1549 194.832 63.2724 194.745 60.9776C194.658 58.6906 195.605 56.7069 197.796 56.6236C199.971 56.5408 201.066 58.4467 201.153 60.7337C201.241 63.0285 200.292 64.9888 198.117 65.0716Z" fill="#007C66"/>
<path d="M211.317 66.5247C214.126 66.4178 215.881 64.6528 216.048 62.3171L213.795 62.4028C213.55 63.7053 212.581 64.5057 211.257 64.556C209.299 64.6305 207.975 63.0372 207.876 60.4312C207.778 57.8719 209.002 56.2128 210.937 56.1392C212.408 56.0832 213.341 56.9825 213.631 58.0933L215.884 58.0076C215.544 55.6055 213.525 54.0775 210.824 54.1803C207.472 54.3078 205.402 56.9263 205.54 60.5746C205.677 64.1763 207.865 66.6561 211.317 66.5247Z" fill="#007C66"/>
<path d="M223.799 66.0498C226.392 65.9511 228.178 64.5978 228.63 62.633L226.425 62.3196C226.049 63.4635 225.065 64.0774 223.749 64.1275C221.768 64.2029 220.388 62.9622 220.238 60.662L228.69 60.3404L228.659 59.5158C228.494 55.1984 225.861 53.6082 223.167 53.7107C219.854 53.8367 217.768 56.4557 217.908 60.1274C218.049 63.838 220.293 66.1832 223.799 66.0498ZM220.179 58.9192C220.208 57.2198 221.375 55.7031 223.256 55.6315C225.051 55.5632 226.279 56.8564 226.356 58.6842L220.179 58.9192Z" fill="#007C66"/>
<path d="M240.024 56.1464C239.473 54.3055 237.979 53.1471 235.41 53.2448C232.724 53.347 230.874 54.843 230.955 56.9589C231.019 58.6547 232.084 59.7438 234.332 60.1569L236.361 60.5237C237.516 60.7368 238.07 61.2299 238.098 61.9767C238.134 62.9024 237.178 63.6632 235.661 63.721C234.276 63.7737 233.363 63.2086 233.039 62.0445L230.816 62.4719C231.283 64.5731 233.078 65.6967 235.748 65.5951C238.619 65.4859 240.55 63.8777 240.468 61.7151C240.404 60.0271 239.296 59.0254 237.094 58.6028L235.189 58.239C233.869 57.9776 233.287 57.5557 233.264 56.7464C233.221 55.8288 234.187 55.1376 235.503 55.0876C236.943 55.0328 237.639 55.8087 237.94 56.5996L240.024 56.1464Z" fill="#007C66"/>
<path d="M251.709 55.7018C251.158 53.8609 249.665 52.7024 247.095 52.8002C244.409 52.9024 242.559 54.3984 242.64 56.5143C242.705 58.2101 243.769 59.2992 246.017 59.7122L248.046 60.0791C249.202 60.2922 249.755 60.7853 249.784 61.5321C249.819 62.4578 248.864 63.2186 247.346 63.2763C245.961 63.3291 245.048 62.7639 244.725 61.5999L242.501 62.0273C242.968 64.1285 244.763 65.2521 247.433 65.1505C250.305 65.0412 252.236 63.4331 252.153 61.2705C252.089 59.5825 250.981 58.5807 248.779 58.1582L246.874 57.7944C245.554 57.533 244.973 57.1111 244.95 56.3018C244.907 55.3842 245.873 54.693 247.189 54.643C248.628 54.5882 249.324 55.3641 249.626 56.155L251.709 55.7018Z" fill="#007C66"/>
<circle cx="56.5" cy="51.5" r="19.5" fill="white"/>
<path d="M76.4354 50.0427L76.5054 51.8814C76.6669 56.1912 75.4309 60.4378 72.9818 63.9878C70.5327 67.5377 67.0016 70.2009 62.9153 71.5801C58.8289 72.9594 54.4062 72.9807 50.3067 71.641C46.2072 70.3012 42.6506 67.6722 40.1674 64.146C37.6841 60.6198 36.4072 56.3854 36.5272 52.0742C36.6471 47.763 38.1574 43.6061 40.8329 40.2234C43.5084 36.8407 47.2056 34.4135 51.3732 33.3038C55.5409 32.1941 59.9556 32.4613 63.9589 34.0655" stroke="#007C66" stroke-width="3" stroke-linecap="round" stroke-linejoin="round"/>
<path d="M75.8972 35.8933L56.6729 56.6592L50.4491 50.8917" stroke="#007C66" stroke-width="3" stroke-linecap="round" stroke-linejoin="round"/>
</svg>
