<?xml version="1.0" encoding="UTF-8" standalone="no"?>
<!-- Created with Inkscape (http://www.inkscape.org/) -->

<svg
   xmlns:dc="http://purl.org/dc/elements/1.1/"
   xmlns:cc="http://creativecommons.org/ns#"
   xmlns:rdf="http://www.w3.org/1999/02/22-rdf-syntax-ns#"
   xmlns:svg="http://www.w3.org/2000/svg"
   xmlns="http://www.w3.org/2000/svg"
   xmlns:sodipodi="http://sodipodi.sourceforge.net/DTD/sodipodi-0.dtd"
   xmlns:inkscape="http://www.inkscape.org/namespaces/inkscape"
   version="1.1"
   id="svg3762"
   width="682.66669"
   height="682.66669"
   viewBox="0 0 682.66669 682.66669"
   sodipodi:docname="strawb.svg"
   inkscape:version="0.92.3 (2405546, 2018-03-11)">
  <metadata
     id="metadata3768">
    <rdf:RDF>
      <cc:Work
         rdf:about="">
        <dc:format>image/svg+xml</dc:format>
        <dc:type
           rdf:resource="http://purl.org/dc/dcmitype/StillImage" />
        <dc:title />
      </cc:Work>
    </rdf:RDF>
  </metadata>
  <defs
     id="defs3766" />
  <sodipodi:namedview
     pagecolor="#ffffff"
     bordercolor="#666666"
     borderopacity="1"
     objecttolerance="10"
     gridtolerance="10"
     guidetolerance="10"
     inkscape:pageopacity="0"
     inkscape:pageshadow="2"
     inkscape:window-width="1366"
     inkscape:window-height="706"
     id="namedview3764"
     showgrid="false"
     inkscape:zoom="0.78662107"
     inkscape:cx="-131.11987"
     inkscape:cy="238.89542"
     inkscape:window-x="-8"
     inkscape:window-y="-8"
     inkscape:window-maximized="1"
     inkscape:current-layer="g3772" />
  <g
     id="g3772"
     transform="matrix(0.82856382,0,0,0.82856382,35.625032,58.381846)">
    <path
       style="fill:#abdb9d;stroke-width:1.33333337"
       d="m 202.16717,597.43961 c -6.71308,-1.59838 -20.85547,-10.34598 -25.27512,-15.70778 -5.12279,-6.21483 -12.7004,-21.43074 -14.61974,-28.64358 -2.76658,-10.39681 18.11984,-8.63409 16.83039,-61.57822 -0.70762,-29.05548 1.35753,-62.21831 -0.0988,-81.19616 -4.27175,-55.66397 -23.77234,-74.47632 -21.40958,-93.97572 2.73871,-22.60198 5.18205,-31.98555 12.27336,-47.13536 10.76035,-22.9883 14.72207,-17.07266 37.60135,-32.14534 19.25178,-12.68291 26.34575,-18.14431 48.86436,-20.70548 21.69716,-2.46773 39.01388,2.98093 56.60588,13.52009 12.21936,7.32046 28.31,23.38209 37.45159,37.38 17.584,26.9252 27.93808,38.61598 58.95923,41.14441 16.02149,1.30584 40.57276,-4.75389 52.53281,2.25517 36.54733,21.41816 46.70067,51.71972 41.79376,98.79384 -4.52273,43.38855 -5.61513,59.18353 -44.30704,85.14297 -16.04074,10.76216 -28.80483,20.13066 -72.90385,39.17699 -16.5,7.12635 -51.79393,20.40449 -73.74283,31.38222 -43.06819,21.54055 -59.26868,22.71887 -70.5977,26.08323 -7.49808,2.22669 -32.07479,8.08571 -39.95802,6.20872 z M 391.13073,482.1947 c 8.21598,-4.53602 11.53371,-14.3739 6.66263,-19.75636 -5.01609,-5.54274 -12.80929,-1.6436 -17.06304,8.53705 -2.12339,5.08197 -2.76029,13.21685 -1.16008,14.81707 1.17395,1.17394 5.17028,-0.0697 11.56049,-3.59776 z m -7.2783,-1.73042 c -0.81986,-6.28238 4.30392,-16.89318 7.82252,-16.19958 3.79426,0.74794 5.19702,4.7403 2.99173,8.51474 -2.10884,3.60936 -10.56217,9.61648 -10.81425,7.68484 z m 61.20368,-8.53621 c 8.74804,-4.37144 12.68275,-9.19069 14.11875,-17.29268 1.70278,-9.6072 -7.57202,-14.23528 -15.7059,-7.83717 -5.84615,4.59858 -13.70955,22.61938 -11.91295,27.30126 1.10059,2.8681 4.51379,2.3191 13.5001,-2.17141 z m -8.41432,-4.12976 c 2.37563,-8.22029 7.8166,-17.37191 11.0618,-18.60572 4.73881,-1.80169 6.96397,-0.59748 6.95811,3.76559 -0.009,7.41241 -6.1537,14.02734 -15.79331,17.00456 -2.807,0.86693 -3.03782,0.64257 -2.2266,-2.16443 z m 16.38925,-51.23574 c 9.60771,-5.66656 25.86725,-21.12295 28.39734,-32.34102 2.95751,-13.1132 -34.39827,-35.35782 -47.41891,-28.62458 -3.07025,1.58768 -16.67491,14.11895 -20.29523,21.44418 -4.12883,8.35411 5.91677,17.11881 5.40641,25.935 -0.48052,8.30076 -0.95797,15.25 0.736,17.83532 2.11906,3.23409 12.04276,5.29523 17.55701,3.34969 3.09621,-1.09242 12.66002,-5.85436 15.61738,-7.59859 z m -18.179,-15.3552 c -1.0935,-7.29204 -2.26211,-8.2202 2.09898,-16.8264 4.05213,-7.99651 2.2942,-9.78149 8.96523,-9.78149 6.28273,0 8.32539,0.15125 7.83251,5.66186 -1.22109,13.65236 -3.42642,12.93878 -8.42748,17.93985 -3.44443,3.44443 -12.57385,15.13216 -15.157,15.13216 -0.36715,0 5.17338,-8.88773 4.68776,-12.12598 z m 135.20863,-69.39879 c -3.89161,-10.8222 -14.77734,-25.90796 -24.4552,-33.8907 -9.27688,-7.652 -24.99052,-16.01266 -38.50172,-20.48535 -8.80797,-2.91576 -35.70449,-7.96392 -60.02939,-11.2668 -13.94524,-1.89352 -33.75881,-8.29179 -35.77388,-11.55224 -0.3874,-0.62683 5.59125,-4.26915 13.28592,-8.09404 13.09335,-6.50851 14.61303,-6.95035 23.7039,-6.89176 5.69364,0.0367 14.3074,1.30213 20.8138,3.05774 8.91569,2.40573 12.45766,2.77121 17.99805,1.85719 3.79383,-0.62589 12.00717,-1.09433 18.25189,-1.04099 13.16431,0.1124 19.48966,2.39389 32.62531,11.7673 18.26268,13.03197 27.55868,27.92557 33.34076,53.41691 3.23631,14.26788 4.4295,29.98084 2.27663,29.98084 -0.58847,0 -2.17969,-3.08614 -3.53607,-6.8581 z M 359.64403,192.94957 c -12.51656,-24.07314 -4.40629,-6.11722 -18.82539,-20.93937 -16.51083,-16.97235 -17.60371,-19.1654 -23.90631,-31.70571 -8.47308,-16.85891 -10.65216,-23.55264 -11.39031,-43.072562 -0.93398,-24.698519 -6.33059,-20.627721 8.21398,-42.500747 5.59017,-8.406842 13.23658,-28.585643 10.89162,-23.064513 -0.54505,1.283333 -7.84915,16.268745 -9.26985,21.035412 -4.61029,15.468483 -0.68512,38.930743 8.71233,65.57194 5.88524,16.68427 20.95058,41.34874 28.80143,52.99518 9.58879,14.22458 1.38051,-6.68229 10.31616,19.6007 10.08093,29.6517 5.85056,15.42951 4.48094,15.42951 -0.6378,0 -3.35381,-4.3665 -8.0246,-13.34984 z m 38.24744,47.91502 c -1.51508,-3.94824 2.03264,-24.80118 5.92472,-34.82454 13.99646,-36.04536 37.80581,-55.9328 76.54216,-63.93402 12.81551,-2.64712 22.31783,-2.64575 50.14352,0.007 18.16022,1.73144 25.58718,1.85077 41.10703,0.66048 39.71327,-3.04579 52.13489,-8.26411 56.78455,-23.85516 1.28038,-4.29333 1.53277,-4.51531 1.98537,-1.74622 0.81007,4.9562 -3.42503,14.29931 -8.50243,18.75732 -8.44637,7.41603 -19.14244,11.40143 -53.62433,19.98067 -24.08015,5.99124 -30.02268,8.9671 -76.25204,38.18504 -23.15466,14.63423 -25.56983,15.88863 -47.22742,24.52903 -20.45476,8.16052 -36.22708,15.9668 -41.89293,20.73431 -3.46522,2.91578 -4.34523,3.18145 -4.9882,1.50586 z m 77.02884,-11.69333 c -3.38001,-0.79979 -5.53389,-2.00724 -5.23041,-2.93215 0.80144,-2.44249 18.92533,-12.28394 28.77897,-15.62726 12.37612,-4.19919 29.46013,-4.84403 51.67648,-1.95055 9.82007,1.27897 17.85467,2.82764 17.85467,3.44147 0,0.61382 -5.85,2.90641 -13,5.09462 -42.48414,13.00199 -40.08699,12.4653 -57.66667,12.91102 -9.16667,0.23241 -19.25253,-0.1893 -22.41304,-0.93715 z"
       id="path3778"
       inkscape:connector-curvature="0"
       sodipodi:nodetypes="cscsssssssscssssssscssccssssscssscscccscccsscscsscsscssssccscccssssscsssccssssscsscssccssscccsssssssss" />
    <path
       style="fill:#f25c5a;stroke-width:1.33333337"
       d="m 198.66667,616.80355 c -3.3,-0.92573 -11.4,-4.99478 -18,-9.04233 -10.55864,-6.47527 -12.83576,-8.58904 -18.95814,-17.59816 -12.84504,-18.90156 -14.46375,-29.98197 -16.38553,-112.16304 -0.6748,-28.85674 -2.46313,-67.42885 -4.01816,-86.66667 -6.98616,-86.4287 -1.17,-120.98534 26.24079,-155.90953 10.34702,-13.18316 35.20522,-31.11369 53.33946,-38.4744 16.72682,-6.78945 25.03512,-8.24699 47.11492,-8.26545 17.98845,-0.0151 21.95649,0.38772 30.61968,3.10805 26.07564,8.18804 46.44402,24.13301 60.02076,46.98605 9.50807,16.00446 23.48724,27.5299 43.49187,35.85785 8.06372,3.35693 13.0824,4.43181 25.36787,5.43316 26.54997,2.16398 47.32188,11.0155 64.60953,27.53202 17.56355,16.78012 27.47426,34.16151 33.40775,58.5905 5.52479,22.74627 2.79244,58.63999 -6.13664,80.61462 -4.89068,12.03604 -17.40872,30.22897 -27.88555,40.52713 -19.84978,19.51127 -42.08897,32.03944 -104.16193,58.67838 -16.86667,7.23841 -46.56667,21.16953 -66.00001,30.95802 -42.30166,21.30719 -72.36001,35.13218 -84.61284,38.9167 -10.38168,3.20657 -28.34888,3.63958 -38.05383,0.9171 z M 388.71092,483.83922 c 3.30836,-1.55511 7.23057,-4.37259 8.71605,-6.26107 6.21866,-7.90573 -0.17825,-21.24576 -8.39309,-17.50284 -4.64073,2.11447 -10.3672,12.91295 -10.3672,19.54959 0,8.04528 1.00085,8.46521 10.04424,4.21432 z m -4.71091,-6.57208 c 0,-3.36566 3.08534,-9.51483 5.979,-11.91636 1.81808,-1.50887 2.4879,-1.4553 4.28599,0.3428 1.82787,1.82786 1.88649,2.72178 0.41195,6.28166 -0.94558,2.28279 -3.40491,5.02224 -5.46519,6.08766 -4.85807,2.5122 -5.21175,2.4582 -5.21175,-0.79576 z m 64.00001,-6.359 c 9.59104,-5.76388 15.11512,-19.60252 9.90476,-24.81288 -2.60806,-2.60806 -8.8695,-2.69908 -13.70372,-0.1992 -5.36877,2.77629 -14.84162,23.44084 -12.97518,28.30469 1.11892,2.91585 9.02595,1.36377 16.77414,-3.29261 z m -10.67831,-4.20088 c 2.07441,-7.23304 7.28563,-15.30954 11.03893,-17.10844 4.44314,-2.12955 6.30604,-1.18044 6.30604,3.21277 0,7.15544 -6.5849,14.37809 -15.59262,17.10275 -2.72166,0.82325 -2.84401,0.59932 -1.75235,-3.20708 z m 4.06964,-53.42801 c 9.11675,-4.5715 15.02853,-10.47972 19.37471,-19.36297 5.008,-10.23599 5.38764,-15.02305 1.63236,-20.58293 -7.09858,-10.50975 -21.78739,-10.17604 -29.34489,0.66666 -5.83525,8.37184 -9.05352,19.22724 -9.05352,30.53812 0,15.35735 2.09603,16.41083 17.39134,8.74112 z m -12.1931,-5.64557 c -0.33714,-14.06044 2.44735,-24.56997 8.50448,-32.09839 4.50374,-5.59772 13.55837,-6.43957 18.63062,-1.73218 4.33731,4.0253 4.60512,7.7865 1.13144,15.89026 -4.51967,10.54396 -12.33792,17.56928 -24.84352,22.32391 -3.16328,1.20268 -3.29304,1.03651 -3.42302,-4.3836 z M 373.84663,219.69672 c -12.18518,-23.97526 -16.21694,-28.10434 -31.86345,-44.44749 -18.04556,-18.84901 -20.28723,-23.69366 -26.9889,-38.14725 -6.43417,-13.87672 -8.8928,-24.3467 -9.88516,-40.333153 -1.28999,-20.781285 -2.8476,-28.624584 10.15013,-47.997379 6.33836,-9.447148 5.31863,-10.927706 1.78162,-3.837582 -4.29978,8.619094 -2.39582,13.305958 -0.89734,26.744475 1.78122,15.974148 5.8642,35.304449 10.48447,48.797159 5.18011,15.12768 18.46364,40.19359 26.25946,51.76704 3.68597,5.4721 8.05414,11.83178 9.23826,14.13264 2.59541,5.04322 14.66438,41.69347 14.02235,42.33551 -0.24863,0.24861 1.57562,-1.38556 -2.30144,-9.01397 z"
       id="path3776"
       inkscape:connector-curvature="0"
       sodipodi:nodetypes="scssssscsssssssssssssscsssccccscscscscsssccccsccccsscsscsccsccccs" />
    <path
       style="fill:#71ad64;stroke-width:1.33333337"
       d="m 376.14807,228.71069 c -12.18518,-23.97526 -19.6691,-34.81687 -35.31561,-51.16002 -18.04556,-18.84901 -23.35582,-25.9951 -30.05749,-40.44869 -6.43417,-13.87672 -9.27637,-25.30563 -10.26873,-41.292086 -1.28999,-20.781285 3.28957,-36.487839 16.2873,-55.860634 6.33836,-9.447148 9.92151,-12.461999 6.3845,-5.371875 -4.29978,8.619094 -6.03976,22.319932 -4.54128,35.758449 1.78122,15.974148 5.48062,33.003006 10.10089,46.495716 5.18011,15.12768 19.039,43.64575 26.83482,55.2192 3.68597,5.4721 7.67057,11.83178 8.85469,14.13264 2.59541,5.04322 19.86419,55.30306 19.22216,55.9451 -0.24863,0.24861 -3.62419,-5.78939 -7.50125,-13.4178 z"
       id="path3774"
       inkscape:connector-curvature="0" />
  </g>
</svg>
