<svg id="forest_tesla" xmlns="http://www.w3.org/2000/svg" width="428.375" height="55.815" viewBox="0 0 428.375 55.815">
  <path id="Path_11" data-name="Path 11" d="M332.287,22.141V55.815H343.05V33.366h39.362V55.815h10.763V22.141H332.287m9.533-10.917h41.515C389.178,10.148,393.33,4.92,394.56,0H330.6c1.23,4.92,5.535,9.994,11.224,11.224m-42.284,44.59A15.912,15.912,0,0,0,309.069,44.9H260.635V.154H249.718V55.815h49.818M168.994,11.071h38.44c5.843-1.691,10.609-6.15,11.839-10.917H158.385v32.9H208.2V44.59H169.148a22.014,22.014,0,0,0-13.992,11.224h63.81V22.141H169.148l-.154-11.071m-94.716.154h41.515c5.843-1.076,10.148-6.3,11.224-11.224H62.9c1.23,4.92,5.535,9.994,11.378,11.224m0,21.988h41.515c5.843-1.076,10.148-6.3,11.224-11.224H62.9c1.23,4.92,5.535,9.994,11.378,11.224m0,22.6h41.515c5.843-1.076,10.148-6.3,11.224-11.224H62.9c1.23,4.92,5.535,10.148,11.378,11.224" transform="translate(33.815)"/>
  <g id="Group_4" data-name="Group 4">
    <path id="Path_12" data-name="Path 12" d="M0,.154A15.458,15.458,0,0,0,11.224,11.224H28.753l.923.308V55.661H40.593V11.532l.923-.308H59.044A15.705,15.705,0,0,0,70.268.154V0L0,.154"/>
  </g>
</svg>
