<svg xmlns="http://www.w3.org/2000/svg" width="737.65" height="124.409" viewBox="0 0 737.65 124.409">
  <g id="forest_digitalocean" transform="translate(-1.5 -0.906)">
    <g id="XMLID_2638_" transform="translate(1.5 0.906)">
      <g id="XMLID_2639_">
        <g id="Group_3" data-name="Group 3">
          <g id="XMLID_44_">
            <g id="XMLID_48_">
              <path id="XMLID_49_" d="M63.708,125.315v-24.1c25.572,0,45.242-25.326,35.53-52.127A36.142,36.142,0,0,0,77.724,27.577C50.923,17.865,25.6,37.535,25.6,63.107H1.5c0-40.694,39.341-72.413,82-59.135A59.843,59.843,0,0,1,122.72,43.19C136,85.974,104.4,125.315,63.708,125.315Z" transform="translate(-1.5 -0.906)" fill="#0080ff"/>
            </g>
            <path id="XMLID_47_" d="M56.574,86.974H32.6V63H56.574Z" transform="translate(5.635 13.339)" fill="#0080ff" fill-rule="evenodd"/>
            <path id="XMLID_46_" d="M36.041,100.941H17.6V82.5H36.041Z" transform="translate(2.194 17.813)" fill="#0080ff" fill-rule="evenodd"/>
            <path id="XMLID_45_" d="M20.491,85.368H5V70H20.491Z" transform="translate(-0.697 14.945)" fill="#0080ff" fill-rule="evenodd"/>
          </g>
        </g>
      </g>
    </g>
    <g id="XMLID_2370_" transform="translate(173.987 28.192)">
      <path id="XMLID_2635_" d="M190.608,31.6c-7.131-4.918-15.982-7.5-26.31-7.5H141.8V95.529h22.5c10.327,0,19.179-2.582,26.31-7.868a26.43,26.43,0,0,0,9.1-11.434,42,42,0,0,0,3.2-16.843,41.807,41.807,0,0,0-3.2-16.72A25.359,25.359,0,0,0,190.608,31.6Zm-35.653,4.672h7.131c7.868,0,14.384,1.6,19.3,4.549,5.409,3.319,8.237,9.589,8.237,18.564,0,9.344-2.828,15.859-8.237,19.425h0c-4.672,3.074-11.188,4.672-19.179,4.672h-7.131V36.271Z" transform="translate(-141.8 -22.871)" fill="#0080ff"/>
      <path id="XMLID_2634_" d="M205.768,23.4a7.768,7.768,0,0,0-7.868,7.622,7.163,7.163,0,0,0,2.336,5.532,7.611,7.611,0,0,0,5.532,2.336,7.162,7.162,0,0,0,5.532-2.336,7.821,7.821,0,0,0,2.336-5.532,6.736,6.736,0,0,0-2.336-5.409A7.705,7.705,0,0,0,205.768,23.4Z" transform="translate(-128.93 -23.031)" fill="#0080ff"/>
      <rect id="XMLID_2564_" width="12.663" height="50.406" transform="translate(70.323 22.375)" fill="#0080ff"/>
      <path id="XMLID_2561_" d="M253.66,45.709C249.848,42.267,245.545,40.3,241,40.3a23.26,23.26,0,0,0-17.335,7.131C219.113,52.1,216.9,58.249,216.9,65.5a25.582,25.582,0,0,0,6.762,18.072A23.26,23.26,0,0,0,241,90.706a19.675,19.675,0,0,0,12.54-4.057v1.229c0,4.18-1.106,7.377-3.319,9.712-2.213,2.213-5.286,3.319-9.1,3.319-5.9,0-9.466-2.336-14.015-8.36l-8.606,8.237.246.369a30.845,30.845,0,0,0,8.483,7.622c3.811,2.459,8.483,3.688,14.138,3.688,7.5,0,13.647-2.336,18.072-6.885,4.549-4.549,6.762-10.7,6.762-18.318V41.529H253.783v4.18ZM250.34,75.461a11.065,11.065,0,0,1-8.729,3.688,10.64,10.64,0,0,1-8.606-3.688c-2.213-2.459-3.319-5.778-3.319-9.835s1.106-7.5,3.319-9.958a11.082,11.082,0,0,1,8.606-3.811,10.777,10.777,0,0,1,8.729,3.811c2.213,2.459,3.319,5.9,3.319,9.958A14.834,14.834,0,0,1,250.34,75.461Z" transform="translate(-124.571 -19.154)" fill="#0080ff"/>
      <rect id="XMLID_2560_" width="12.663" height="50.406" transform="translate(152.325 22.375)" fill="#0080ff"/>
      <path id="XMLID_2552_" d="M272.468,23.4a7.768,7.768,0,0,0-7.868,7.622,7.162,7.162,0,0,0,2.336,5.532,7.61,7.61,0,0,0,5.532,2.336A7.162,7.162,0,0,0,278,36.555a7.821,7.821,0,0,0,2.336-5.532A6.736,6.736,0,0,0,278,25.613,7.7,7.7,0,0,0,272.468,23.4Z" transform="translate(-113.628 -23.031)" fill="#0080ff"/>
      <path id="XMLID_2509_" d="M302.271,30.3H289.854V43.947H282.6V55.5h7.254V76.4c0,6.516,1.352,11.188,3.934,13.892s7.131,4.057,13.647,4.057c2.09,0,4.18-.123,6.147-.246h.615V82.55l-4.3.246c-3.074,0-5.041-.492-6.024-1.6s-1.475-3.319-1.475-6.639V55.38h11.8V43.824h-11.8V30.3Z" transform="translate(-109.498 -21.448)" fill="#0080ff"/>
      <rect id="XMLID_2508_" width="12.663" height="71.429" transform="translate(263.956 1.229)" fill="#0080ff"/>
      <path id="XMLID_2470_" d="M478.15,73.863a30.054,30.054,0,0,1-6.393,5.9h0a11.94,11.94,0,0,1-6.516,1.721,11.66,11.66,0,0,1-9.221-4.18,15.713,15.713,0,0,1-3.688-10.7A15.707,15.707,0,0,1,455.9,56.037a11.417,11.417,0,0,1,9.1-4.18c4.057,0,8.36,2.582,12.048,6.885l8.36-7.991h0c-5.409-7.131-12.417-10.45-20.777-10.45a24.609,24.609,0,0,0-17.949,7.5c-4.918,4.918-7.377,11.311-7.377,18.81a25.869,25.869,0,0,0,7.377,18.81,24.14,24.14,0,0,0,17.949,7.5c9.221,0,16.6-3.934,21.515-11.188Z" transform="translate(-73.549 -19.154)" fill="#0080ff"/>
      <path id="XMLID_2460_" d="M520.908,48.537a20.517,20.517,0,0,0-7.253-6.024A23.727,23.727,0,0,0,503.2,40.3c-7.131,0-12.909,2.582-17.212,7.745A29.129,29.129,0,0,0,479.6,66.978q0,11.434,7.008,18.81c4.549,4.795,10.819,7.254,18.318,7.254A24.912,24.912,0,0,0,525.7,82.715l.246-.369-8.237-7.991h0a31.357,31.357,0,0,1-2.828,2.951,14.111,14.111,0,0,1-3.688,2.7,13.563,13.563,0,0,1-6.393,1.352,11.919,11.919,0,0,1-8.606-3.074,10.927,10.927,0,0,1-3.565-7.622h33.563l.123-4.672a33.005,33.005,0,0,0-1.352-9.344A27.9,27.9,0,0,0,520.908,48.537ZM493.247,60.462a12.58,12.58,0,0,1,3.319-6.024,8.987,8.987,0,0,1,6.639-2.582q4.61,0,7.008,2.582a9.988,9.988,0,0,1,2.582,5.9H493.247Z" transform="translate(-64.303 -19.154)" fill="#0080ff"/>
      <path id="XMLID_2456_" d="M559.751,45.318h0C555.94,42,550.654,40.4,544.015,40.4a26.725,26.725,0,0,0-11.68,2.7,20.913,20.913,0,0,0-8.606,8.114l.123.123,8.114,7.745c3.32-5.286,7.008-7.131,11.925-7.131a10.1,10.1,0,0,1,6.516,2.09,6.48,6.48,0,0,1,2.459,5.409v2.459a31.482,31.482,0,0,0-9.344-1.475c-6.27,0-11.434,1.475-15.245,4.426s-5.778,7.254-5.778,12.54a14.37,14.37,0,0,0,4.918,11.434,18.73,18.73,0,0,0,12.171,4.18c4.795,0,9.344-1.967,13.4-5.286v4.18h12.417V59.456C565.653,53.432,563.685,48.637,559.751,45.318Zm-22.5,27.293a10.647,10.647,0,0,1,6.024-1.475,27.563,27.563,0,0,1,9.589,1.844V77.9c-2.7,2.582-6.393,3.811-10.942,3.811a7.476,7.476,0,0,1-5.041-1.475,4.609,4.609,0,0,1-1.721-3.688A4.739,4.739,0,0,1,537.253,72.611Z" transform="translate(-54.461 -19.131)" fill="#0080ff"/>
      <path id="XMLID_2454_" d="M604.541,46.3q-5.348-5.9-14.753-5.9c-5.041,0-9.1,1.475-12.171,4.3V41.629H565.2V92.035h12.663V64.128c0-3.811.861-6.885,2.7-8.975,1.844-2.213,4.18-3.2,7.5-3.2a8.363,8.363,0,0,1,6.639,2.828,12.045,12.045,0,0,1,2.459,7.868V91.79h12.663V62.652C609.828,55.768,608.107,50.235,604.541,46.3Z" transform="translate(-44.665 -19.131)" fill="#0080ff"/>
      <path id="XMLID_2450_" d="M350.551,45.318h0C346.74,42,341.454,40.4,334.815,40.4a26.724,26.724,0,0,0-11.679,2.7,20.912,20.912,0,0,0-8.606,8.114l.123.123,8.114,7.745c3.319-5.286,7.008-7.131,11.925-7.131a10.1,10.1,0,0,1,6.516,2.09,6.48,6.48,0,0,1,2.459,5.409v2.459a31.484,31.484,0,0,0-9.344-1.475c-6.27,0-11.434,1.475-15.245,4.426s-5.778,7.254-5.778,12.54a14.369,14.369,0,0,0,4.918,11.434,18.729,18.729,0,0,0,12.171,4.18c4.795,0,9.344-1.967,13.4-5.286v4.18h12.417V59.456C356.33,53.432,354.362,48.637,350.551,45.318Zm-22.5,27.293a10.647,10.647,0,0,1,6.024-1.475,27.564,27.564,0,0,1,9.59,1.844V77.9c-2.7,2.582-6.393,3.811-10.942,3.811a7.477,7.477,0,0,1-5.041-1.475,4.609,4.609,0,0,1-1.721-3.688A4.453,4.453,0,0,1,328.053,72.611Z" transform="translate(-102.455 -19.131)" fill="#0080ff"/>
      <path id="XMLID_2371_" d="M411.083,96.865a36.882,36.882,0,1,1,36.882-36.882A36.912,36.912,0,0,1,411.083,96.865Zm0-60.61a23.851,23.851,0,1,0,23.851,23.851A23.873,23.873,0,0,0,411.083,36.255Z" transform="translate(-88.484 -23.1)" fill="#0080ff"/>
    </g>
  </g>
</svg>
