<svg xmlns="http://www.w3.org/2000/svg" width="408.842" height="80.918" viewBox="0 0 408.842 80.918">
  <g id="forest_facebook" transform="translate(-28.79 -28.828)">
    <path id="Path_14" data-name="Path 14" d="M239.271,68.129a18.684,18.684,0,0,0-8.277,2.235V95.883a53.825,53.825,0,0,0,5.961.225c8.1,0,9.214-3.711,9.214-8.892V75.028c0-3.826-1.27-6.9-6.9-6.9Zm-53.813-1.393c-5.622,0-6.9,3.086-6.9,6.909v2.148h13.8V73.645C192.355,69.822,191.072,66.736,185.458,66.736ZM81.212,93.3c0,3.024,1.427,4.594,4.576,4.594,3.378,0,5.378-1.1,7.844-2.233V89.606H86.245c-3.5,0-5.033.651-5.033,3.692ZM291.617,68.129c-5.631,0-7.582,3.073-7.582,6.9V88.991c0,3.836,1.951,6.918,7.582,6.918,5.616,0,7.582-3.083,7.582-6.918V75.028C299.2,71.2,297.232,68.129,291.617,68.129Zm-238,40.826H37.061V68.888H28.79V55.082h8.273V46.79c0-11.265,4.668-17.962,17.937-17.962H66.047v13.81h-6.9c-5.166,0-5.507,1.93-5.507,5.531l-.021,6.911H66.123L64.66,68.886H53.615v40.069Zm56.574.1h-13.8l-.6-3.489a31.622,31.622,0,0,1-15.63,4.055c-10.118,0-15.5-6.759-15.5-16.107,0-11.028,6.284-14.964,17.526-14.964H93.631V76.169c0-5.63-.645-7.282-9.3-7.282H70.174l1.383-13.806H87.029c18.995,0,23.16,6,23.16,21.2v32.778ZM157.1,69.9c-8.585-1.472-11.051-1.8-15.182-1.8-7.42,0-9.662,1.637-9.662,7.938v11.92c0,6.3,2.242,7.946,9.662,7.946,4.131,0,6.6-.329,15.182-1.807v13.467a73.174,73.174,0,0,1-16.559,2.129c-17.772,0-24.836-9.346-24.836-22.847V77.178c0-13.513,7.064-22.876,24.836-22.876A72.862,72.862,0,0,1,157.1,56.44V69.9Zm51.8,16.949H178.551v1.113c0,6.3,2.244,7.946,9.662,7.946A96.514,96.514,0,0,0,207.522,94.1v13.467a87.036,87.036,0,0,1-20.681,2.129C169.067,109.7,162,100.351,162,86.849V75.791c0-11.814,5.244-21.489,23.457-21.489s23.451,9.564,23.451,21.489Zm53.811.255c0,13.049-3.73,22.567-26.324,22.567-8.16,0-12.945-.717-21.951-2.1V32.976l16.548-2.761V56.308a37.57,37.57,0,0,1,12.417-2c16.55,0,19.307,7.42,19.307,19.343V87.1Zm53.046.284c0,11.257-4.647,22.176-24.093,22.176s-24.189-10.918-24.189-22.176V76.519c0-11.263,4.734-22.183,24.189-22.183s24.093,10.92,24.093,22.183Zm53.011,0c0,11.257-4.653,22.176-24.094,22.176s-24.189-10.918-24.189-22.176V76.519c0-11.263,4.734-22.183,24.189-22.183s24.094,10.92,24.094,22.183Zm54.4,21.566H405.239L390.069,83.63v25.324H373.515V32.974l16.554-2.761V79.127l15.17-24.045h17.937l-16.561,26.24ZM344.624,68.129c-5.622,0-7.573,3.073-7.573,6.9V88.991c0,3.836,1.951,6.918,7.573,6.918s7.6-3.083,7.6-6.918V75.028C352.225,71.2,350.238,68.129,344.624,68.129Zm88,31.376a5.069,5.069,0,1,1-.021,0Zm-.021.795a4.332,4.332,0,0,0,.021,8.652,4.333,4.333,0,0,0,0-8.652Zm-.952,7.291h-.908v-5.7a10.468,10.468,0,0,1,1.612-.132,3.031,3.031,0,0,1,1.773.43,1.375,1.375,0,0,1,.515,1.179,1.418,1.418,0,0,1-1.107,1.389v.044c.5.093.836.543.952,1.381a4.745,4.745,0,0,0,.36,1.412H433.9a4.292,4.292,0,0,1-.386-1.457,1.064,1.064,0,0,0-1.226-1h-.63v2.456Zm0-3.156h.659c.746,0,1.379-.274,1.379-.98,0-.5-.36-1-1.379-1a4.7,4.7,0,0,0-.659.044v1.934Z" fill="#3b5998"/>
  </g>
</svg>
