<svg xmlns="http://www.w3.org/2000/svg" width="424.589" height="127.193" viewBox="0 0 424.589 127.193">
  <g id="forest_slack" transform="translate(-1.464 -25.444)">
    <path id="Path_26" data-name="Path 26" d="M178.311,75.342c0-12.63,9.209-21.449,25.943-21.449,10.211,0,18.566,3.26,23.093,6.454a2.949,2.949,0,0,1,1.111,3.62c-.888,2.216-2.517,5.549-3.685,7.714-.68,1.261-2.417,1.1-3.307.644-3.224-1.634-8.513-4.4-13.371-4.908a28.451,28.451,0,0,0-3.705-.16c-4.279.1-7.853,1.581-9.112,4.845a5.744,5.744,0,0,0-.407,1.938c-.118,4.3,5.869,5.857,13.122,7.1,13.483,2.31,23.684,6.263,23.684,20.14,0,11.785-9.366,22.436-27.718,22.109-12.1-.245-20.681-4.332-25.28-8.3a3.783,3.783,0,0,1-.969-4.062,30.482,30.482,0,0,1,4.309-7.6,3.344,3.344,0,0,1,3.963-.578c3.791,2.356,10.03,6.133,17.222,6.384.568.02,1.13.023,1.682.009,6.469-.157,10.383-2.61,10.3-6.742-.07-3.64-5.2-5.767-13.367-7.306-13.027-2.454-23.507-6.748-23.507-19.852M296.659,93.325c-9.186.12-17.609,2.631-17.852,9.81,0,5.7,4.619,8.5,11.1,8.129,6.222-.6,10.967-3.3,13.058-6.878.773-1.327.891-6.293.844-8.415-.012-.452-.905-1.307-1.3-1.471a14.834,14.834,0,0,0-5.859-1.176M266.092,64.4a37.152,37.152,0,0,1,26.387-9.512c17.913.372,27.377,8.77,28.258,28.86.363,8.285-.239,31.393-.382,37.15-.021.826-.3,1.4-1.414,1.418-2.95.118-9.765.072-12.9.031-1.58-.077-1.763-.861-1.784-1.682-.014-.537-.06-2.129-.093-3.427a.524.524,0,0,0-.83-.493c-4.2,4.487-11.084,6.653-18.4,6.653-11.123,0-22.212-6.543-22.178-19.5.034-13.271,9.444-19.817,19.781-21.36a40.194,40.194,0,0,1,19.73,2.136c.361.145,1.1-.065,1.105-.577a38.945,38.945,0,0,0-.384-6.441c-.829-3.892-4.076-7.023-10.9-7.867a20.988,20.988,0,0,0-4.234-.118c-5.422.426-11.946,4.654-14.648,6.236a1.728,1.728,0,0,1-1.954-.315,81.056,81.056,0,0,1-5.852-8.947,2.092,2.092,0,0,1,.683-2.248l0,0Zm60.552,24.7c-.107-18.508,12.789-34.122,33.729-34.259,13.066-.085,22.559,5.838,24.233,8.632a2.127,2.127,0,0,1-.07,1.865,64.934,64.934,0,0,1-5.891,9.4c-.848,1.089-1.769.156-2.838-.556a27.867,27.867,0,0,0-14.161-4.4c-10.071,0-17.571,6.907-17.487,19.612.078,12.192,7.262,18.892,17.522,19.135,5.364.135,10.56-2.948,13.356-5.474.878-.766,1.786-.383,2.79.4a80.388,80.388,0,0,1,6.358,7.258,2.088,2.088,0,0,1-.111,2.818c-4.248,5.376-12.452,9.9-23.31,9.961-22.735.159-34.013-15.826-34.118-34.4m108.522,33.565c1.067-.08,12.455-1.652,15.95-2.452a1.007,1.007,0,0,0,.691-1.65c-1.952-2.927-7.084-11.239-12.458-18.68-4.943-6.842-10.154-12.859-11.839-15.174a1.094,1.094,0,0,1,.059-1.553c3.206-3.137,16.614-16.284,21.656-21.713,1.952-2.112.78-3.021-.878-3.514-3.2-.955-8.382-2.144-11.327-2.766a4.012,4.012,0,0,0-3.824.946c-5.041,4.7-20.424,20.14-25.017,24.756-.827.833-1.308.648-1.313-.542-.038-8.9-.213-47-.531-53.262a1.825,1.825,0,0,0-1.58-1.487c-2.888-.151-10.183-.194-13.058-.026a2.039,2.039,0,0,0-1.645,1.606c-.663,10.02.281,83.574.675,93.863a1.385,1.385,0,0,0,1.289,1.363c2.868.166,9.962.155,13.274.093,1.63,0,1.829-1.146,1.829-1.146l.245-19.737a3.273,3.273,0,0,1,.44-1.168c1.168-1.257,4.4-4.719,5.775-6.057a.767.767,0,0,1,1.19.156c1.637,2.208,6.3,9.384,10.629,15.794,3.974,5.888,7.685,11.113,7.944,11.483a1.908,1.908,0,0,0,1.824.87v0ZM241.491,122.6c1,.033,8.6.025,11.967.02a1.668,1.668,0,0,0,1.76-1.594c.715-14.426.409-83.112-.043-93.958-.038-.938-.439-1.29-1.079-1.375-2.889-.387-11.1-.3-13.733.392a1.059,1.059,0,0,0-.834,1.028c-.644,27.956-.21,92.409-.073,93.63a1.858,1.858,0,0,0,2.037,1.856h0Z" transform="translate(-25.986)" fill="#443642"/>
    <path id="Path_27" data-name="Path 27" d="M12.146,96.922a10.376,10.376,0,0,1-10.112-7.11q-.081-.247-.152-.5A10.873,10.873,0,0,1,8.918,76.034L97.765,46.268a12.042,12.042,0,0,1,3.245-.474,10.647,10.647,0,0,1,10.381,7.262l.133.43c1.662,5.809-2.467,11-7.415,12.657,0,0-.9.307-88.354,30.165a11.5,11.5,0,0,1-3.609.615Z" transform="translate(0 -3.005)" fill="#70cadb"/>
    <path id="Path_28" data-name="Path 28" d="M29.513,148.114a10.366,10.366,0,0,1-10.145-7.01q-.082-.245-.153-.493A10.948,10.948,0,0,1,26.244,127.2l88.85-30.039a11.442,11.442,0,0,1,3.526-.591,10.736,10.736,0,0,1,10.357,7.2l.136.452a11.242,11.242,0,0,1-1.355,9.036c-1.272,1.979-5.283,3.721-5.283,3.721l-89.187,30.5a12.236,12.236,0,0,1-3.774.645Z" transform="translate(-2.558 -10.503)" fill="#e01765"/>
    <path id="Path_29" data-name="Path 29" d="M111.1,138.222a10.908,10.908,0,0,1-10.445-7.435L71,42.708l-.148-.494a10.922,10.922,0,0,1,20.856-6.474l29.65,88.072.086.283A10.914,10.914,0,0,1,111.1,138.222Z" transform="translate(-10.185 -0.421)" fill="#e8a723"/>
    <path id="Path_30" data-name="Path 30" d="M59.389,155.629a10.912,10.912,0,0,1-10.45-7.441L19.294,60.113a10.907,10.907,0,0,1,6.862-13.833,11.046,11.046,0,0,1,3.4-.569A10.906,10.906,0,0,1,40,53.145l29.646,88.079a10.919,10.919,0,0,1-10.26,14.4h0Z" transform="translate(-2.548 -2.993)" fill="#3eb890"/>
    <path id="Path_31" data-name="Path 31" d="M99.822,129.294l20.676-7.069-6.759-20.072-20.7,7Z" transform="translate(-13.523 -11.328)" fill="#cc2027"/>
    <path id="Path_32" data-name="Path 32" d="M48.181,146.921l20.674-7.068-6.81-20.226-20.694,7Z" transform="translate(-5.89 -13.908)" fill="#361238"/>
    <path id="Path_33" data-name="Path 33" d="M82.563,78.04l20.677-7.06-6.68-19.838-20.716,6.94Z" transform="translate(-10.984 -3.795)" fill="#65863a"/>
    <path id="Path_34" data-name="Path 34" d="M30.91,95.626l20.677-7.06L44.826,68.475,24.11,75.415Z" transform="translate(-3.344 -6.355)" fill="#1a937d"/>
  </g>
</svg>
