<?xml version="1.0" encoding="UTF-8"?>
<svg fill="none" version="1.1" viewBox="0 0 1172 274"
   xmlns="http://www.w3.org/2000/svg"
   xmlns:xlink="http://www.w3.org/1999/xlink">
   <path d="m81.23 273.4c44.818 0 81.15-26.33 81.15-58.81s-36.332-58.81-81.15-58.81c-44.818 0-81.15 26.33-81.15 58.81s36.332 58.81 81.15 58.81z" fill="#bae4f8"/>
   <path d="m81.23 136.29c44.818 0 81.15-17.792 81.15-39.74 0-21.948-36.332-39.74-81.15-39.74-44.818 0-81.15 17.792-81.15 39.74 0 21.948 36.332 39.74 81.15 39.74z" fill="#bae4f8"/>
   <path d="m162.34 96.88h-162.2v117.71h162.2z" fill="#bae4f8"/>
   <path d="m81.23 270.46c42.692 0 77.3-25.014 77.3-55.87s-34.608-55.87-77.3-55.87c-42.692 0-77.3 25.014-77.3 55.87s34.608 55.87 77.3 55.87z" fill="#e7f6ff"/>
   <path d="m81.23 137.81c42.581 0 77.1-16.906 77.1-37.76 0-20.854-34.519-37.76-77.1-37.76-42.581 0-77.1 16.906-77.1 37.76 0 20.854 34.519 37.76 77.1 37.76z" fill="#e7f6ff"/>
   <path d="m158.41 99.82h-154.35v111.83h154.35z" fill="#e7f6ff"/>
   <path d="m12.69 193.91c0 20.99 0.47-39.56 0.25-31.65-0.46 17.17-0.39 33.26 0.25 36.5 9.61 26.64 34.64 37.4 64.05 32.29 7.07-1.76 11.48-4.03 15.56-6.9-8.32 4.53-23.34 1.42-29.79-2.54-5.58-3.42-11.21-9.09-11.44-21.22-0.18-9.03 1.51-18.83-2.88-27.28-4.55-8.76-22.54-18.27-36.01-20.32" fill="#ba00ff"/>
   <path d="m149.69 102.12c-0.17 48.38 0.17 78.93-0.34 100.06-0.08 3.21 0.3 7.14-2.2 16.05-6.17 21.93-27.71 33.55-36.35 37.04-25.85 10.46-48.49 4.12-57.62 0.82-4.98-1.8-27.68-11.85-36.75-34.65-4.63-11.62-3.81-23.68-3.8-29.94 0.01-4.5 4.55 15.92 24.16 28.08 3.73 2.31 17.58 10.64 40.05 8.44 25.07-2.46 29.43-16.51 30.27-19.61 2.05-7.51 2.21-20.59 2.01-57.63-0.14-27.04 0.53-24.85 5.07-31.1 2.7-3.72 13.18-11.17 26.7-15.23" fill="#8600ff"/>
   <path d="m81.23 94.58c42.504 0 76.96-16.906 76.96-37.76 0-20.854-34.456-37.76-76.96-37.76-42.504 0-76.96 16.906-76.96 37.76 0 20.854 34.456 37.76 76.96 37.76z" fill="url(#e)"/>
   <path d="m156.48 59.1c0.76 20.79-33.75 37.24-75.29 37.24s-75.64-15.94-75.22-36.81" stroke="#e1e1e1" stroke-miterlimit="10" stroke-width="3.5"/>
   <path d="m81.23 78.62c42.581 0 77.1-17.465 77.1-39.01 0-21.545-34.519-39.01-77.1-39.01-42.581 0-77.1 17.465-77.1 39.01 0 21.545 34.519 39.01 77.1 39.01z" fill="#e1e1e1"/>
   <path d="m81.23 75.48c40.383 0 73.12-16.06 73.12-35.87 0-19.81-32.737-35.87-73.12-35.87-40.383 0-73.12 16.06-73.12 35.87 0 19.81 32.737 35.87 73.12 35.87z" fill="url(#d)"/>
   <path d="m156.44 61.2 0.19-21.49" stroke="#e1e1e1" stroke-miterlimit="10" stroke-width="3.5"/>
   <path d="m6.04 60.12-0.07-19.84" stroke="#e1e1e1" stroke-miterlimit="10" stroke-width="3.5"/>
   <path d="m65.94 97.46c-1.32-0.15-3.63-0.45-4.9-0.63-4.56-0.63-7.69-1.18-12.25-1.88-1.61-0.39-2.63-0.61-3.21-0.78-2.96-0.86-3.3-0.94-4.8-1.34l-35.3 133.62s0.86 2.34 1.53 4.22c1.86 4.08 2.43 5.5 4.48 8.47 2.28 3.31 5.16 6.51 8.2 9.26s4.31 3.6 7.44 5.81c0.77 0.54 3.13 1.9 3.89 2.43 0.49 0.06 0.95 0.74 1.32 0.94l40.67-159.7c-2.8-0.14-4.7-0.19-7.07-0.42z" fill="#fff" opacity=".2"/>
   <path d="m60.21 268.5c1.35 0.32 1.89 0.24 3.13 0.47 0.15 0 1.04 0.24 1.18 0.24 1.09 0 1.39 0.19 2.42 0.34l42.61-174.07c-1.42 0.32-2.1 0.47-3.62 0.63-1.3 0.14-1.94 0.32-3.97 0.63-0.33 0.05-2.29 0.35-2.62 0.39-2.62 0.16-3.8 0.24-6.16 0.45l-42.2 168.74c1.49 0.44 3.06 0.83 4.84 1.22 2.02 0.49 2.78 0.65 4.39 0.96z" fill="#fff" opacity=".2"/>
   <path d="m250.19 169.91c0.22-7.34 7.13-13.39 15.12-13.39 8.21 0 15.12 5.83 15.12 13.39v76.25c0 7.56-6.91 13.39-15.12 13.39-7.99 0-14.9-6.05-15.12-13.39v-1.94c-6.48 10.58-18.79 16.2-30.24 16.2-25.7 0-49.03-19.01-49.03-52.49s23.33-52.27 49.03-52.27c6.48 0 21.6 2.81 30.24 16.2zm-24.41 63.72c13.61 0 24.62-12.1 24.62-25.49s-11.02-25.49-24.62-25.49c-15.12 0-23.76 12.1-23.76 25.49s8.64 25.49 23.76 25.49z" fill="url(#a)"/>
   <path d="m464.68 246.16c0 7.56-6.91 13.39-15.12 13.39-7.99 0-14.9-6.05-15.12-13.39v-41.47c0-13.18-7.99-20.09-16.85-20.09-9.5 0-17.06 5.83-17.06 20.52v41.04c0 7.56-6.91 13.39-15.12 13.39-7.99 0-14.9-6.05-15.12-13.39v-42.12c0-12.74-7.99-19.44-16.63-19.44-9.07 0-17.5 5.18-17.5 20.52v41.04c0 7.56-6.91 13.39-15.12 13.39-7.99 0-14.9-6.05-15.12-13.39v-76.25c0.22-7.34 7.13-13.39 15.12-13.39 8.21 0 15.12 5.83 15.12 13.39v2.38c4.75-10.58 15.55-16.63 26.35-16.63 15.98 0 26.57 5.18 33.26 19.01 7.34-15.98 22.25-19.22 29.38-19.22 23.98 0 39.31 15.34 39.53 45.79z" fill="url(#a)"/>
   <path d="m558.42 204.68c0-13.18-9.5-19.87-18.58-19.87-9.5 0-19.87 4.97-19.87 20.3v41.04c0 7.56-6.91 13.39-15.12 13.39-7.99 0-14.9-6.05-15.12-13.39v-131.11c0.22-7.34 7.13-13.39 15.12-13.39 8.21 0 15.12 5.83 15.12 13.39v58.32c4.1-12.53 18.58-17.71 28.08-17.71 26.57 0 40.61 17.5 40.61 47.95v42.55c0 7.56-6.91 13.39-15.12 13.39-7.99 0-14.9-6.05-15.12-13.39z" fill="url(#a)"/>
   <path d="m687.8 169.91c0.22-7.34 7.13-13.39 15.12-13.39 8.21 0 15.12 5.83 15.12 13.39v76.25c0 7.56-6.91 13.39-15.12 13.39-7.99 0-14.9-6.05-15.12-13.39v-1.94c-6.48 10.58-18.79 16.2-30.24 16.2-25.7 0-49.03-19.01-49.03-52.49s23.33-52.27 49.03-52.27c6.48 0 21.6 2.81 30.24 16.2zm-24.41 63.72c13.61 0 24.62-12.1 24.62-25.49s-11.02-25.49-24.62-25.49c-15.12 0-23.76 12.1-23.76 25.49s8.64 25.49 23.76 25.49z" fill="url(#a)"/>
   <path d="m793.86 231.25c5.4 0 10.58-1.51 14.9-3.89 5.4-3.02 14.26-4.32 19.66 1.08 6.05 6.05 5.18 17.06-1.94 22.03-9.07 6.48-20.52 9.94-32.62 9.94-28.94 0-55.3-20.3-55.3-52.06v-0.65c0-31.75 26.35-52.06 55.3-52.06 12.1 0 23.54 3.46 32.62 9.94 7.13 4.97 7.99 15.98 1.94 22.03-5.4 5.4-14.26 4.1-19.66 1.08-4.32-2.38-9.5-3.89-14.9-3.89-12.96 0-24.63 8.86-24.63 22.9v0.65c0 14.05 11.67 22.9 24.63 22.9z" fill="url(#a)"/>
   <path d="m882.63 218.72v27.43c0 7.56-6.91 13.39-15.12 13.39-7.99 0-14.9-6.05-15.12-13.39v-131.11c0.22-7.34 7.13-13.39 15.12-13.39 8.21 0 15.12 5.83 15.12 13.39v70.42l23.54-23.76c4.75-5.4 13.61-6.48 19.44-1.73 5.62 4.54 7.13 13.18 1.94 19.22l-23.54 22.9 33.26 34.78c5.62 6.05 5.18 15.12-0.86 19.66-5.4 4.54-15.55 3.89-19.87-1.3z" fill="url(#a)"/>
   <path d="m959.09 223.91c6.7-3.02 12.96-0.22 16.2 3.67 5.4 5.83 11.88 8.86 19.01 8.86 6.7 0 12.96-1.08 12.96-6.26 0-4.32-2.59-5.83-9.94-8.21l-11.45-4.1c-30.24-10.15-30.02-24.41-30.02-33.7 0-14.9 17.93-28.73 39.1-28.73 14.47 0 29.38 4.54 36.29 16.63 3.67 6.48 1.94 12.74-2.59 15.34-6.7 3.89-12.96 2.38-19.22-2.38-4.32-3.24-8.21-4.54-12.1-4.54-6.48 0-11.02 2.16-11.02 6.05 0 3.24 2.59 5.18 8.64 7.13l15.34 5.18c24.41 7.99 27.43 23.76 27.43 30.24 0 21.38-22.46 31.54-43.63 31.54-16.2 0-35.21-6.7-40.39-21.6-2.17-6.27 0.43-12.96 5.39-15.12z" fill="url(#a)"/>
   <defs>
      <linearGradient id="e" x1="4.2692" x2="158.2" y1="56.823" y2="56.823" gradientUnits="userSpaceOnUse">
         <stop stop-color="#EFEFEF" offset="0"/>
         <stop stop-color="#CFCFCF" offset="1"/>
      </linearGradient>
      <linearGradient id="d" x1="19.612" x2="142.86" y1="10.874" y2="68.344" gradientUnits="userSpaceOnUse">
         <stop stop-color="#F3F3F3" offset="0"/>
         <stop stop-color="#D3D4D6" offset="1"/>
      </linearGradient>
      <linearGradient id="b" x1="162.34" x2="1178.8" y1="214.59" y2="190.15" gradientUnits="userSpaceOnUse">
         <stop stop-color="#BA00FF" offset="0"/>
         <stop stop-color="#8600FF" offset="1"/>
      </linearGradient>
      <linearGradient id="a" x1="63.333" x2="1199.4" y1="12.879" y2="452.21" gradientUnits="userSpaceOnUse" xlink:href="#b"/>
      <linearGradient id="c" x1="66.431" x2="1221.6" y1="12.666" y2="444.73" gradientUnits="userSpaceOnUse" xlink:href="#b"/>
   </defs>
   <g transform="matrix(.98348 0 0 1.0168 -2 0)" fill="url(#c)" stroke-width="5.3773" aria-label="6">
      <path d="m1141.2 257.18q-29.038 0-44.954-19.789-15.702-20.004-15.702-56.354 0-38.071 17.853-59.151 17.853-21.079 49.471-21.079 9.249 0 18.713 2.5811 9.4641 2.5811 17.638 7.7434 5.3773 3.0113 6.4528 8.1735 1.2905 5.1622-0.8604 9.8943-1.9359 4.732-6.6679 6.883-4.517 2.1509-10.97-0.86037-6.6679-3.6566-12.906-5.1622-6.0226-1.5056-11.83-1.5056-35.275 0-35.275 46.245v4.0868q4.517-10.755 13.981-16.562 9.464-6.0226 21.724-6.0226 12.906 0 22.8 6.4528 10.109 6.2377 15.917 17.423 5.8075 10.97 5.8075 25.166 0 15.057-6.6679 26.887-6.4528 11.615-18.068 18.283-11.4 6.6679-26.456 6.6679zm-1.7208-26.026q9.8943 0 15.917-6.6679 6.2377-6.883 6.2377-17.853 0-10.755-6.2377-17.638-6.0226-6.883-15.917-6.883-10.109 0-16.347 6.883-6.0227 6.883-6.0227 17.638 0 10.97 6.0227 17.853 6.2377 6.6679 16.347 6.6679z" fill="url(#c)"/>
   </g>
</svg>
