<svg width="350" height="618" viewBox="0 0 350 618" fill="none" xmlns="http://www.w3.org/2000/svg">
<path d="M174.626 617.711C271.069 617.711 349.252 558.096 349.252 484.557C349.252 411.018 271.069 351.402 174.626 351.402C78.1827 351.402 0 411.018 0 484.557C0 558.096 78.1827 617.711 174.626 617.711Z" fill="#C3E4F7"/>
<path d="M174.626 307.271C271.069 307.271 349.252 266.978 349.252 217.274C349.252 167.571 271.069 127.278 174.626 127.278C78.1827 127.278 0 167.571 0 217.274C0 266.978 78.1827 307.271 174.626 307.271Z" fill="#C3E4F7"/>
<path d="M349.123 218.01H0.118408V484.557H349.123V218.01Z" fill="#C3E4F7"/>
<path d="M174.626 611.054C266.482 611.054 340.946 554.419 340.946 484.557C340.946 414.694 266.482 358.06 174.626 358.06C82.7699 358.06 8.30579 414.694 8.30579 484.557C8.30579 554.419 82.7699 611.054 174.626 611.054Z" fill="#EBF7FF"/>
<path d="M174.626 310.689C266.244 310.689 340.516 272.414 340.516 225.2C340.516 177.985 266.244 139.71 174.626 139.71C83.0075 139.71 8.73608 177.985 8.73608 225.2C8.73608 272.414 83.0075 310.689 174.626 310.689Z" fill="#EBF7FF"/>
<path d="M340.699 224.667H8.56396V477.888H340.699V224.667Z" fill="#EBF7FF"/>
<path d="M174.626 212.802C266.09 212.802 340.236 174.527 340.236 127.312C340.236 80.0974 266.09 41.8223 174.626 41.8223C83.1621 41.8223 9.01587 80.0974 9.01587 127.312C9.01587 174.527 83.1621 212.802 174.626 212.802Z" fill="url(#paint0_linear)"/>
<path d="M336.546 132.475C338.181 179.551 263.924 216.788 174.54 216.788C85.1558 216.788 11.7808 180.694 12.6845 133.426" stroke="#E2E2E2" stroke-width="7" stroke-miterlimit="10"/>
<path d="M174.626 176.663C266.245 176.663 340.516 137.116 340.516 88.3317C340.516 39.5475 266.245 0 174.626 0C83.0075 0 8.73608 39.5475 8.73608 88.3317C8.73608 137.116 83.0075 176.663 174.626 176.663Z" fill="#E2E2E2"/>
<path d="M174.626 169.554C261.515 169.554 331.952 133.189 331.952 88.3319C331.952 43.4744 261.515 7.11011 174.626 7.11011C87.7374 7.11011 17.3002 43.4744 17.3002 88.3319C17.3002 133.189 87.7374 169.554 174.626 169.554Z" fill="url(#paint1_linear)"/>
<path d="M336.449 137.207L336.858 88.5582" stroke="#E2E2E2" stroke-width="7" stroke-miterlimit="10"/>
<path d="M12.8245 134.773L12.6846 89.8489" stroke="#E2E2E2" stroke-width="7" stroke-miterlimit="10"/>
<path opacity="0.2" d="M141.715 219.312C138.885 218.973 133.915 218.293 131.171 217.886C121.348 216.459 114.624 215.225 104.801 213.618C101.348 212.734 99.153 212.225 97.8942 211.84C91.525 209.881 90.8042 209.712 87.555 208.817L11.5872 511.367C11.5872 511.367 13.4377 516.654 14.8901 520.922C18.8924 530.161 20.1189 533.376 24.53 540.112C29.436 547.596 35.6223 554.865 42.1637 561.08C48.705 567.296 51.4377 569.243 58.162 574.225C59.8188 575.447 64.8862 578.516 66.5216 579.727C67.5759 579.852 68.5657 581.414 69.3727 581.856L156.885 220.229C150.914 219.958 146.814 219.844 141.715 219.312Z" fill="white"/>
<path opacity="0.2" d="M129.375 606.616C132.279 607.329 133.431 607.148 136.099 607.692C136.411 607.68 138.326 608.224 138.649 608.224C140.994 608.224 141.629 608.643 143.845 609.005L235.542 214.852C232.476 215.565 231.024 215.927 227.753 216.278C224.945 216.584 223.568 216.992 219.211 217.705C218.511 217.807 214.283 218.497 213.573 218.599C207.935 218.962 205.396 219.143 200.329 219.618L109.525 601.691C112.741 602.687 116.109 603.57 119.928 604.465C124.286 605.552 125.921 605.903 129.375 606.616Z" fill="white"/>
<defs>
<linearGradient id="paint0_linear" x1="9.01727" y1="127.307" x2="340.235" y2="127.307" gradientUnits="userSpaceOnUse">
<stop stop-color="#EFEFEF"/>
<stop offset="1" stop-color="#CFCFCF"/>
</linearGradient>
<linearGradient id="paint1_linear" x1="42.0301" y1="23.2642" x2="311.896" y2="142.848" gradientUnits="userSpaceOnUse">
<stop stop-color="#F4F4F4"/>
<stop offset="1" stop-color="#D4D5D7"/>
</linearGradient>
</defs>
</svg>
