<svg width="208" height="64" viewBox="0 0 208 64" fill="none" xmlns="http://www.w3.org/2000/svg">
<path fill-rule="evenodd" clip-rule="evenodd" d="M24.8849 49.5586L9.01395 42.1439C7.66202 41.4966 7.66202 40.4961 9.01395 39.9077L14.5394 37.3184L24.8262 42.1439C26.1781 42.7913 28.353 42.7913 29.6462 42.1439L39.9329 37.3184L45.4584 39.9077C46.8103 40.555 46.8103 41.5554 45.4584 42.1439L29.5874 49.5586C28.353 50.1471 26.1781 50.1471 24.8849 49.5586Z" fill="#FF6F3D"/>
<path fill-rule="evenodd" clip-rule="evenodd" d="M24.8849 40.4374L9.01395 33.0226C7.66202 32.3753 7.66202 31.3749 9.01395 30.7864L14.4219 28.256L24.8849 33.1403C26.2369 33.7876 28.4118 33.7876 29.7049 33.1403L40.1681 28.256L45.5759 30.7864C46.9279 31.4338 46.9279 32.4342 45.5759 33.0226L29.7049 40.4374C28.353 41.0847 26.1781 41.0847 24.8849 40.4374Z" fill="#95C038"/>
<path fill-rule="evenodd" clip-rule="evenodd" d="M24.8849 31.5513L9.01395 24.1365C7.66202 23.4892 7.66202 22.4888 9.01395 21.9004L24.8849 14.4855C26.2369 13.8382 28.4118 13.8382 29.7049 14.4855L45.5759 21.9004C46.9279 22.5476 46.9279 23.548 45.5759 24.1365L29.7049 31.5513C28.353 32.1398 26.1781 32.1398 24.8849 31.5513Z" fill="#5DC0E8"/>
<path d="M56.2903 31.9271C56.2903 28.8605 57.1655 26.5461 58.974 25.0417C60.7242 23.4796 62.8244 22.7273 65.2164 22.7273C67.6083 22.7273 69.6503 23.4796 71.4004 25.0417C73.1506 26.604 74.0257 28.8605 74.0257 31.985C74.0257 35.0516 73.1506 37.366 71.4004 38.8703C69.6503 40.4326 67.5499 41.1848 65.2164 41.1848C62.8244 41.1848 60.7826 40.4326 58.974 38.8703C57.1655 37.3082 56.2903 34.9938 56.2903 31.9271ZM60.1407 31.9271C60.1407 34.0679 60.5492 35.5724 61.3075 36.5559C62.1243 37.5396 62.9994 38.176 63.9328 38.4075C64.1662 38.4653 64.3413 38.5232 64.5747 38.5232C64.7496 38.5232 64.983 38.5811 65.158 38.5811C65.3913 38.5811 65.5665 38.5811 65.7998 38.5232C66.0332 38.5232 66.2082 38.4653 66.4415 38.4075C67.3749 38.176 68.25 37.5396 69.0084 36.5559C69.7669 35.5724 70.1752 34.0101 70.1752 31.985C70.1752 29.902 69.7669 28.3977 69.0084 27.414C68.25 26.4304 67.3749 25.794 66.4415 25.5626C66.2082 25.5047 65.9748 25.4468 65.7998 25.4468C65.5665 25.4468 65.3913 25.389 65.158 25.389C64.9246 25.389 64.7496 25.389 64.5747 25.4468C64.3997 25.4468 64.1662 25.5047 63.9328 25.5626C62.9994 25.794 62.1243 26.4304 61.3075 27.414C60.5492 28.282 60.1407 29.8441 60.1407 31.9271Z" fill="#333333"/>
<path d="M75.9509 22.9009H80.7348L87.0356 34.2414L87.969 36.7294H88.0274L87.969 33.4893V22.9009H91.6445V40.9532H86.8606L80.5598 29.1497L79.6264 27.1246H79.568L79.6264 30.307V40.9532H75.9509V22.9009Z" fill="#333333"/>
<path d="M95.4365 22.9009H99.1119V37.8866H106.346V40.9532H95.4365V22.9009Z" fill="#333333"/>
<path d="M104.071 22.9009H108.33L112.063 29.2076L112.647 30.4805H112.764L113.346 29.2076L117.139 22.9009H121.048L114.456 33.605V40.9532H110.78V33.5471L104.071 22.9009Z" fill="#333333"/>
<path d="M120.581 31.9271C120.581 28.8605 121.457 26.5461 123.264 25.0417C125.015 23.4796 127.115 22.7273 129.508 22.7273C131.899 22.7273 133.941 23.4796 135.691 25.0417C137.442 26.604 138.316 28.8605 138.316 31.985C138.316 35.0516 137.442 37.366 135.691 38.8703C133.941 40.4326 131.841 41.1848 129.508 41.1848C127.115 41.1848 125.073 40.4326 123.264 38.8703C121.514 37.3082 120.581 34.9938 120.581 31.9271ZM124.432 31.9271C124.432 34.0679 124.841 35.5724 125.598 36.5559C126.416 37.5396 127.232 38.176 128.223 38.4075C128.457 38.4653 128.632 38.5232 128.865 38.5232C129.041 38.5232 129.274 38.5811 129.449 38.5811C129.683 38.5811 129.857 38.5811 130.09 38.5232C130.324 38.5232 130.499 38.4653 130.732 38.4075C131.665 38.176 132.541 37.5396 133.299 36.5559C134.058 35.5724 134.467 34.0101 134.467 31.985C134.467 29.902 134.058 28.3977 133.299 27.414C132.541 26.4304 131.665 25.794 130.732 25.5626C130.499 25.5047 130.265 25.4468 130.09 25.4468C129.857 25.4468 129.683 25.389 129.449 25.389C129.216 25.389 129.041 25.389 128.865 25.4468C128.69 25.4468 128.457 25.5047 128.223 25.5626C127.29 25.794 126.416 26.4304 125.598 27.414C124.841 28.282 124.432 29.8441 124.432 31.9271Z" fill="#333333"/>
<path d="M140.884 22.9009H151.034V25.9096H144.558V30.307H150.743V33.3735H144.558V40.9532H140.884V22.9009Z" fill="#333333"/>
<path d="M153.777 22.9009H163.928V25.9096H157.453V30.307H163.636V33.3735H157.453V40.9532H153.777V22.9009Z" fill="#333333"/>
<path d="M166.086 40.9532V22.9009H169.762V40.9532H166.086Z" fill="#333333"/>
<path d="M185.957 23.3058V26.4302C185.314 26.1987 184.673 26.0252 183.973 25.9095C183.273 25.7937 182.456 25.7359 181.64 25.7359C179.714 25.7359 178.256 26.3145 177.205 27.5295C176.156 28.6867 175.63 30.1911 175.63 31.9847C175.63 33.7206 176.097 35.1671 177.09 36.3243C178.081 37.4815 179.481 38.118 181.29 38.118C181.932 38.118 182.573 38.0601 183.332 38.0022C184.09 37.8865 184.848 37.713 185.665 37.3658L185.898 40.4324C185.781 40.4902 185.606 40.5481 185.431 40.6059C185.199 40.6638 184.965 40.7217 184.673 40.7795C184.206 40.8952 183.624 40.9531 182.923 41.0688C182.223 41.1267 181.523 41.1845 180.764 41.1845C180.647 41.1845 180.531 41.1845 180.472 41.1845C180.357 41.1845 180.24 41.1845 180.18 41.1845C178.081 41.0688 176.156 40.2588 174.405 38.8701C172.655 37.4237 171.78 35.1671 171.78 32.1583C171.78 29.2074 172.655 26.893 174.347 25.2729C176.039 23.6529 178.373 22.8428 181.231 22.8428C181.989 22.8428 182.69 22.8428 183.273 22.9006C183.914 22.9586 184.498 23.0743 185.139 23.19C185.256 23.2479 185.431 23.2479 185.548 23.3058C185.665 23.2479 185.781 23.3058 185.957 23.3058Z" fill="#333333"/>
<path d="M188.873 22.9009H199.783V25.736H192.607V30.2491H199.083V33.0264H192.607V38.1182H199.783V40.9533H188.873V22.9009Z" fill="#333333"/>
</svg>
